<svg width="82" height="82" viewBox="0 0 82 82" fill="none" xmlns="http://www.w3.org/2000/svg">
<g filter="url(#filter0_d_1_2427)">
<path d="M65.1534 30.8642C65.1696 31.0135 65.1857 31.1627 65.2018 31.31C65.3551 31.7174 65.9764 31.5984 66.0671 32.0785C67.362 33.0668 68.2213 34.4222 69.1511 35.7211C69.1632 35.7595 69.1733 35.7958 69.1834 35.8321C69.1753 35.7958 69.1672 35.7595 69.1592 35.7232C69.732 35.7857 69.5827 36.3666 69.8228 36.6752C70.6154 37.6998 71.2165 38.8435 71.6643 40.0637C71.1661 40.808 72.0112 40.7999 72.2593 41.1247C72.8644 42.8573 73.3787 44.6201 73.8366 46.3971C73.9616 46.8872 73.9859 47.4016 74.0564 47.9058C73.8063 48.045 74.1412 48.1035 74.0988 48.2124C74.4498 49.2996 74.6192 50.4271 74.835 51.5445C75.2868 53.9064 75.787 56.2582 76.2449 58.6181C76.6443 60.6775 77.0194 62.7408 77.3905 64.8063C77.5822 65.8672 77.8343 66.8999 77.5701 68.0173C77.2211 69.4917 76.2388 70.2663 74.9278 70.6838C73.5038 71.1376 72.0032 71.3292 70.5247 71.42C68.776 71.5269 67.0252 71.6419 65.2805 71.777C63.6205 71.9061 61.9524 71.8879 60.2985 72.0634C58.4146 72.2611 56.5247 72.2933 54.6368 72.3881C52.3717 72.5011 50.1026 72.5737 47.8395 72.6867C44.7717 72.842 41.6978 72.848 38.6339 73.0033C35.9513 73.1405 33.2728 72.9973 30.5962 73.1223C27.2722 73.2776 23.9482 73.0053 20.6282 73.1485C18.6092 73.2353 16.5962 72.9953 14.5813 73.1122C14.4804 73.1183 14.3715 73.1385 14.2807 73.1082C12.9878 72.6887 11.6385 73.0295 10.3274 72.8157C9.00425 72.5979 7.66093 72.5374 6.37006 72.0937C5.65402 71.8476 5.16187 71.428 4.85126 70.7967C4.31474 69.7055 3.96983 68.5679 4.0142 67.3194C4.06866 65.8349 3.91335 64.3323 4.07875 62.8639C4.30263 60.8973 4.16144 58.9146 4.48215 56.9561C4.61527 56.1513 4.59308 55.3102 4.60317 54.5034C4.61729 53.3558 4.86538 52.2383 4.8331 51.0846C4.79478 49.703 4.89967 48.2951 5.13162 46.9316C5.38576 45.4451 5.25869 43.9323 5.56729 42.462C5.67823 41.9355 5.5451 41.286 6.15222 40.9391C6.31761 41.0178 6.47696 41.1267 6.45074 41.3244C6.37611 41.9315 6.62823 42.5023 6.61411 43.1034C6.56974 45.1506 6.68067 47.1958 6.48502 49.2471C6.30753 51.1068 6.4225 52.9887 6.3519 54.8624C6.26316 57.182 6.04935 59.5036 6.15827 61.8312C6.16231 61.932 6.16432 62.0329 6.15222 62.1317C5.89001 64.1265 5.99288 66.1254 6.17844 68.1121C6.33778 69.8205 7.03567 70.3974 8.57665 70.3651C10.4585 70.6878 12.3545 70.8451 14.2626 70.8492C16.092 70.8512 17.9234 70.8673 19.7528 70.8754C19.8658 70.9924 19.9767 70.9843 20.0171 70.825C20.0655 70.6374 19.9344 70.5668 19.769 70.5446C19.5592 70.2118 19.3474 69.879 19.1417 69.5442C17.0097 66.0911 14.5349 62.9123 11.59 60.1107C11.5336 60.0683 11.4791 60.028 11.4226 59.9856C10.6179 59.2978 9.93611 58.4668 9.02241 57.9041C8.48589 57.541 8.42941 57.2203 9.09099 56.9339C9.19184 56.8915 9.25436 56.7625 9.33504 56.6737C10.9244 55.6874 12.3605 54.4853 13.7563 53.267C15.3376 51.8854 16.7878 50.3484 18.3672 48.9547C18.6919 48.9526 18.6879 48.7247 18.6798 48.4948C19.3474 47.7929 20.015 47.091 20.6827 46.3911C20.721 46.3487 20.7573 46.3064 20.7956 46.264C22.0018 44.9066 23.1777 43.5269 24.2911 42.0888C26.2234 39.5918 28.1012 37.0665 29.7128 34.3415C30.4227 33.1414 31.0299 31.8646 31.9637 30.8037C32.0021 30.7916 32.0424 30.7815 32.0807 30.7694C32.0424 30.7452 32.0041 30.721 31.9657 30.6968C32.0142 30.6121 32.0868 30.5314 32.1049 30.4406C32.4176 28.944 33.3998 27.752 33.9585 26.3603C34.3519 25.378 34.7936 24.4018 35.201 23.4215C35.8686 21.82 36.4596 20.1842 37.0809 18.5626C37.3895 18.6412 37.3229 18.8348 37.2584 19.0607C37.099 19.6154 36.9639 20.1782 36.8186 20.7389C36.7702 20.8902 36.7218 21.0414 36.6754 21.1927C36.5706 21.6324 37.0022 22.2073 36.4092 22.5058C36.1651 22.6288 36.1994 22.8164 36.1409 22.9778C35.8888 23.6837 35.6629 24.4018 35.4289 25.1138C35.2656 25.3397 35.1405 25.5797 35.1849 25.8721C35.1183 26.0194 35.0497 26.1686 34.9832 26.3159C34.9065 26.3381 34.84 26.3663 34.8783 26.4692C34.8137 26.6729 34.7492 26.8766 34.6826 27.0783C34.604 27.0944 34.5314 27.1146 34.5818 27.2215C34.3236 27.8811 34.0634 28.5427 33.8053 29.2022C33.5612 29.3898 33.539 29.6762 33.4664 29.9424L32.5951 31.7577C32.468 32.0018 32.2643 32.2116 32.2663 32.5121C31.9133 33.1656 31.401 33.7344 31.1993 34.4706C31.0399 34.519 31.0682 34.6562 31.0581 34.7752C30.7999 34.9628 30.6386 35.2088 30.6023 35.5295C30.3925 35.6768 30.3804 35.9228 30.3017 36.1346C29.9346 36.6792 29.5131 37.1875 29.2509 37.7966C29.0593 37.8955 29.0593 38.1153 28.9544 38.2706C28.8777 38.2868 28.8031 38.3009 28.7265 38.317C28.7527 38.3453 28.7789 38.3715 28.8051 38.3997C28.4421 39.3376 27.6353 40.0133 27.2863 40.9593C27.014 41.0722 26.9616 41.3506 26.8264 41.5664C26.6328 41.6572 26.6187 41.8629 26.534 42.0222C26.3444 42.2239 26.1548 42.4256 25.9632 42.6273C25.9006 42.7262 25.8401 42.825 25.7776 42.9259C25.6404 42.9904 25.348 42.9037 25.4811 43.2304C25.3944 43.5249 25.0132 43.6338 25.0071 43.9787C24.8276 44.0957 24.6602 44.2208 24.6239 44.4527C24.5553 44.4709 24.4887 44.487 24.4202 44.5052L24.3556 44.4991C24.3798 44.5193 24.404 44.5395 24.4282 44.5576C24.0732 45.0699 23.7182 45.5822 23.3612 46.0946C23.0688 46.1894 23.0325 46.4818 22.8953 46.6976C22.7985 46.7985 22.7017 46.8993 22.6069 47.0002C22.3245 47.1152 22.2317 47.4076 22.0381 47.6073C21.8747 47.803 21.7093 47.9986 21.5459 48.1943C21.2979 48.4524 21.0498 48.7086 20.7997 48.9668C20.4951 49.3137 20.1905 49.6586 19.886 50.0055C19.539 50.2697 19.2324 50.5703 18.9763 50.9253C18.1816 51.6353 17.4272 52.3876 16.7193 53.1823C16.3683 53.4324 16.0718 53.739 15.8116 54.0819C14.7487 55.0379 13.6837 55.994 12.6207 56.95C11.7655 57.3938 11.7353 57.5047 12.3384 58.0251C13.5849 59.1062 14.7144 60.3063 15.854 61.4964C15.8278 61.5972 15.8701 61.6315 15.9669 61.6154C16.3602 62.0651 16.7737 62.4988 17.1449 62.9647C18.4519 64.6086 19.777 66.2363 20.844 68.0597C21.0699 68.4449 21.3059 69.1509 21.673 69.0924C22.1329 69.0198 22.0623 68.2916 22.2277 67.8479C23.4117 64.6832 24.5795 61.5125 25.8179 58.37C26.4271 56.821 26.7518 55.1489 27.7422 53.7571C27.7825 53.743 27.8228 53.7289 27.8632 53.7168C27.8249 53.6906 27.7845 53.6644 27.7462 53.6381C27.9822 52.67 28.2625 51.718 28.6559 50.8002C28.7365 50.772 28.797 50.7337 28.7668 50.6328C28.7668 50.4089 28.9403 50.2072 28.8535 49.9712C28.9745 49.7877 29.0935 49.6041 29.2146 49.4186C29.2105 49.1947 29.4001 48.999 29.3053 48.7631C29.4284 48.5795 29.5494 48.396 29.6724 48.2104C29.6724 47.9885 29.858 47.7888 29.7531 47.5529C29.8842 47.3915 30.0335 47.2402 30.0193 47.0083C30.7535 45.8203 30.8685 44.3297 31.8447 43.2607C31.875 43.2264 31.9133 43.1618 31.9012 43.1336C31.6027 42.5104 32.0384 41.992 32.1372 41.4272C32.353 41.3264 32.234 41.1227 32.2784 40.9694C32.474 40.7878 32.5204 40.5619 32.47 40.3078C32.6011 40.1464 32.7483 39.9931 32.7322 39.7612C32.9783 39.5393 33.4724 39.1944 33.4321 39.1137C33.1336 38.5127 33.5693 37.9923 33.5249 37.4376C33.656 37.2763 33.8053 37.125 33.7891 36.893C34.5092 35.231 34.9711 33.4782 35.5822 31.7779C35.794 31.1869 36.0239 30.5919 36.034 29.9485C36.143 29.9283 36.2882 29.9364 36.2761 29.7811C36.272 29.7307 36.145 29.6903 36.0724 29.6439C36.0562 29.3797 36.3769 29.182 36.2216 28.8896C36.3527 28.8654 36.5443 28.944 36.5786 28.7383C36.5968 28.6274 36.4697 28.6032 36.3729 28.587C36.8186 27.6854 37.0627 26.7314 37.1151 25.7269C37.2745 25.6684 37.2503 25.5434 37.2241 25.4183C37.3289 24.5611 37.5105 23.72 37.5932 22.8547C37.7565 21.1443 37.9966 19.446 37.8211 17.7235C37.4278 16.4165 37.5286 15.0389 37.2604 13.7117C37.1797 13.3103 37.1817 12.8625 37.4439 12.4874C37.5569 12.328 37.6254 12.0981 37.4641 12.0255C37.0788 11.85 37.218 11.5676 37.218 11.2913C37.218 10.2626 37.2059 9.23596 37.1978 8.20729C37.2321 8.16896 37.2362 8.12661 37.214 8.08223C37.2301 7.97735 37.2442 7.87247 37.2604 7.76557C37.3431 7.67883 37.6053 7.67682 37.4116 7.45495C37.1777 6.90834 37.0607 6.23265 37.3108 5.79294C37.6154 5.25239 37.3531 4.89941 37.3431 4.42138C36.7723 4.64527 36.6875 5.17171 36.4031 5.52872C35.197 7.02734 34.0211 8.55219 32.8492 10.077C32.0545 11.1097 31.2134 12.1061 30.3985 13.1187C29.6845 14.0041 28.9423 14.8876 28.1415 15.7065L28.1294 15.7206C27.2077 16.7109 26.2133 17.6408 25.3843 18.7017C23.9905 20.4888 22.4354 22.1306 20.9348 23.8188C18.468 26.5942 15.9689 29.3414 13.5385 32.149C12.0096 33.9139 10.4605 35.6606 8.8913 37.3872C8.59077 37.716 8.37293 38.198 7.83036 38.2484C8.50404 37.0322 9.4601 36.0257 10.3133 34.9466C11.8462 33.0083 13.3711 31.0578 15.0129 29.2143C16.4107 27.6431 17.7237 26.0012 19.1175 24.428C20.3761 23.01 21.556 21.5215 22.7803 20.0733C23.21 19.565 23.6739 19.085 24.1237 18.5928C24.2285 18.6231 24.2588 18.5666 24.2588 18.4758C24.8679 17.7174 25.473 16.955 26.0862 16.2006C26.2234 16.0312 26.3867 15.882 26.538 15.7226C26.6429 15.7549 26.6711 15.6984 26.6671 15.6076C27.6332 14.3732 28.5772 13.1227 29.5675 11.9105C31.6087 9.41345 33.5693 6.8559 35.4713 4.24994C36.2317 3.20917 36.8993 2.0978 37.7525 1.11553C38.0551 0.768602 38.1842 0.740364 38.4847 1.05098C40.4069 3.03369 42.2 5.13338 44.0254 7.20081C45.0117 8.31822 46.0283 9.40942 47.0247 10.5188C49.199 12.9392 51.3693 15.3656 53.5436 17.786C53.6747 17.9312 53.8381 18.0502 53.9853 18.1813C53.9672 18.4052 54.0741 18.5061 54.2939 18.496C55.1592 19.4964 56.0265 20.4969 56.8918 21.4993C56.8676 21.6042 56.91 21.6445 57.0148 21.6244C57.5332 22.0136 57.8963 22.5259 58.2371 23.0705C58.4106 23.3489 58.812 23.4154 58.9895 23.7483C59.2013 24.1476 59.5986 24.432 59.6026 24.9625C59.6047 25.2872 59.9435 25.2529 60.1896 25.257C60.2158 25.4466 60.3731 25.3921 60.4881 25.4183C60.597 25.5716 60.7059 25.7229 60.8149 25.8762C60.7927 25.9811 60.833 26.0234 60.9399 26.0012C61.541 26.4873 62.0472 27.036 62.1844 27.8367C62.2953 28.2522 62.6483 28.0747 62.9045 28.1312C62.9529 28.1856 63.0013 28.2381 63.0497 28.2925C63.0719 28.4055 63.0255 28.5507 63.1909 28.5971C63.3422 28.7686 63.3583 28.9864 63.3865 29.1982C63.3643 29.299 63.3946 29.3434 63.5015 29.3051C63.6044 29.3172 63.7052 29.3293 63.8081 29.3414C63.8383 29.5269 63.9937 29.4725 64.1066 29.5007C64.1268 29.6137 64.0743 29.7609 64.2438 29.8073C64.393 29.9424 64.3668 30.0957 64.2922 30.2531C64.4071 30.6968 64.988 30.487 65.1494 30.8622L65.1534 30.8642ZM68.7901 38.5429C68.78 38.3392 68.665 38.2545 68.4694 38.2626C68.0922 37.8793 67.7594 37.4638 67.5456 36.9656C67.5597 36.9233 67.6928 36.9293 67.596 36.8406C67.5698 36.8729 67.5436 36.9071 67.5173 36.9394C66.9667 36.0701 66.3656 35.2371 65.6738 34.4767C65.3289 34.0975 65.341 33.4319 64.9679 33.2342C64.1933 32.8247 63.8787 32.1248 63.4733 31.4592C63.4894 31.3664 63.4612 31.3221 63.3603 31.3564C62.4446 30.2309 61.2505 29.3595 60.4458 28.1372C60.476 28.0384 60.4397 28.0061 60.3409 28.0303C59.2456 27.4333 59.2235 25.8721 57.981 25.4002C57.9406 25.384 57.9144 25.259 57.9285 25.1924C58.0314 24.7164 57.6865 24.6277 57.3638 24.4885C57.1883 24.4139 56.9846 24.2989 56.8958 24.1436C56.4521 23.3711 55.6655 22.9193 55.1572 22.2012C54.6792 21.5275 54.4069 20.6703 53.5194 20.3133C53.2552 20.2064 53.0837 19.8454 52.8659 19.6114C52.4786 19.1919 52.293 18.5968 51.8533 18.2741C50.9074 17.5823 50.2397 16.6404 49.4713 15.7993C47.3575 13.4817 45.3263 11.0876 43.265 8.72364C42.3654 7.69295 41.4658 6.66025 40.5662 5.62755C40.5259 5.58519 40.4876 5.54485 40.4472 5.50249C39.9873 5.0406 39.5295 4.57871 39.0696 4.11883C39.0111 3.8062 38.8619 3.58635 38.5129 3.56819C38.5049 3.84856 38.1398 4.10875 38.4988 4.41937C38.7308 4.61905 38.5432 4.94177 38.6319 5.19591C38.8296 5.74857 38.8215 6.30324 38.638 6.85792C38.6521 7.02533 38.7731 7.09592 38.9042 7.16248C38.997 7.94306 39.1301 8.72162 39.1684 9.50422C39.2128 10.3816 39.588 11.253 39.2431 12.1404C39.2572 12.3078 39.3782 12.3784 39.5093 12.445C39.5134 13.1994 39.7856 13.9477 39.5436 14.7061C39.5537 14.8755 39.6787 14.9441 39.8078 15.0126C39.8361 16.0554 39.9712 17.0317 40.7578 17.8566C43.3799 20.6058 45.4655 23.7846 47.7851 26.7758C49.1607 28.5487 50.5161 30.3378 51.8352 32.1571C53.7574 34.8095 55.7845 37.3892 57.7813 39.9851C59.403 42.0949 61.0529 44.1824 62.6846 46.2842C64.3224 48.3939 65.9138 50.538 67.7937 52.4501C68.3524 53.0189 68.8405 53.6825 68.9373 54.5337C68.901 54.572 68.8667 54.6123 68.8304 54.6507L68.9434 54.6769C69.3851 56.0222 68.9898 57.2546 68.3383 58.4023C67.352 60.1409 65.9179 61.5387 64.6008 63.0152C62.6887 65.1572 60.6999 67.2327 58.7535 69.3445C58.6345 69.4736 58.3561 69.5563 58.4812 69.8044C58.5901 70.0222 58.8362 69.9577 59.0258 69.9435C60.3348 69.8487 61.6439 69.7197 62.9549 69.645C64.4475 69.5623 65.9421 69.526 67.4367 69.4695C67.5395 69.4938 67.5758 69.4312 67.596 69.3485C69.02 69.4171 70.4178 69.1307 71.8277 69.0137C72.6708 68.9431 73.5441 68.8846 74.361 68.5881C75.1053 68.3158 75.4724 67.7914 75.428 66.9927C75.4139 66.7244 75.3171 66.4622 75.2848 66.1939C74.9621 63.5618 74.2561 61.0002 73.8769 58.3801C73.7902 57.781 73.3323 57.0005 73.5663 56.6414C73.9879 55.992 73.5381 55.7156 73.3787 55.2921C73.3021 55.0863 73.1629 54.9129 73.1649 54.6668C73.175 53.2045 72.6183 51.839 72.4106 50.4069C72.1484 48.6037 71.6603 46.8348 71.269 45.0498C71.3658 45.0296 71.4807 44.9973 71.4444 44.8823C71.4243 44.8198 71.3032 44.7896 71.2266 44.7472C70.8736 43.773 70.4763 42.8129 70.1778 41.8205C69.8974 40.8907 69.2741 40.1162 69.0644 39.1642C69.143 38.8838 69.0301 38.6881 68.7941 38.547L68.7901 38.5429ZM45.0702 32.2176C45.0823 32.4798 45.0661 32.7501 45.2598 32.9679C45.0198 33.1696 45.163 33.2342 45.3707 33.2745C45.4796 33.8494 45.5502 34.4343 45.7055 34.997C46.1311 36.53 46.6414 38.0387 47.0085 39.5837C47.1114 40.0214 47.5329 40.3058 47.4583 40.7798C47.3272 41.6067 47.7024 42.2744 48.1259 42.9279C47.8859 43.1296 48.0291 43.1941 48.2369 43.2345C48.0997 43.7387 48.0553 44.2309 48.5475 44.5818C48.6645 44.6645 48.723 44.7069 48.6725 44.8581C48.5233 45.3039 48.8057 45.6186 49.0316 45.9473C48.7936 46.149 48.9368 46.2136 49.1425 46.2539C49.1062 47.2745 49.6286 48.158 49.8444 49.116C50.0804 50.1649 50.5705 51.127 50.8166 52.1819C51.0284 53.0915 51.1716 54.0577 51.7505 54.8524C51.5105 55.0541 51.6537 55.1186 51.8614 55.1589C51.8594 55.5079 51.6113 55.8931 51.8735 56.1997C52.4524 56.8815 52.2628 57.8214 52.7025 58.5294C52.8639 58.7916 52.5774 58.9791 52.7166 59.195C53.3298 60.145 53.5053 61.2543 53.8078 62.3092C54.3322 64.1366 54.8425 65.9721 55.2479 67.8277C55.373 68.4005 55.8994 69.0782 55.2157 69.6733C54.9676 69.5341 54.8345 69.3082 54.6913 69.0661C53.6283 67.273 53.1079 65.25 52.3959 63.3238C50.6936 58.725 49.197 54.0496 47.66 49.3924C46.6838 46.4334 45.7539 43.4584 44.8685 40.4712C44.6426 39.7067 44.2029 38.9625 44.3602 38.1052C44.5821 37.9701 44.2957 37.9056 44.3178 37.7987C43.9346 37.3953 43.7894 36.8729 43.6321 36.3646C43.4445 35.7534 43.3073 35.1282 43.1278 34.515C42.2202 31.4249 41.3044 28.3369 40.2657 25.2872C40.0297 24.5934 39.6767 23.9278 39.6566 23.1714C39.6505 23.0605 39.6626 22.8971 39.5174 22.9132C39.3782 22.9293 39.4972 23.0504 39.5073 23.125C39.1463 23.4154 39.0293 23.7563 39.0414 24.2485C39.0837 26.1102 38.6945 27.9073 38.0409 29.646C38.0409 29.7468 38.0409 29.8477 38.0409 29.9485C37.811 30.5354 37.9522 31.1809 37.7606 31.7678C37.4258 32.7884 37.0526 33.7969 36.7017 34.8135C35.911 37.1008 35.0961 39.382 34.3156 41.6713C33.6762 43.5511 32.9541 45.4027 32.3288 47.2886C31.6208 49.4226 30.8241 51.5284 29.981 53.6139C29.6623 54.4026 29.6038 55.3203 28.9524 55.9657C28.7628 56.109 28.7184 56.2945 28.793 56.5144C28.797 56.5628 28.793 56.6112 28.7829 56.6576C28.6296 56.7221 28.6438 56.8391 28.6881 56.9662C26.9656 61.6355 25.2451 66.3029 23.5105 71.0045C25.6747 70.95 27.8491 71.0408 30.0314 70.8956C33.1558 70.6898 36.2922 70.829 39.4226 70.7503C43.9749 70.6354 48.5253 70.3469 53.0837 70.3994C53.9046 70.4095 54.6993 70.24 55.5021 70.1109C56.5933 70.2864 57.505 70.0343 58.1121 69.0359C58.1504 68.9955 58.1867 68.9532 58.225 68.9128C58.2634 68.8523 58.2997 68.7898 58.338 68.7293C58.457 68.5841 58.578 68.4368 58.697 68.2916C59.4655 67.382 60.238 66.4783 61.0004 65.5646C62.4143 63.8704 63.8444 62.1862 65.226 60.4657C66.0248 59.4713 66.9486 58.5435 67.3197 57.2647C67.356 57.2102 67.3923 57.1558 67.4286 57.1033C67.6626 55.9153 67.8219 54.7293 66.8618 53.7551C66.0006 52.8838 65.1232 52.0286 64.3386 51.0826C63.2131 49.7252 62.0271 48.4121 60.95 47.0163C59.3465 44.9408 57.6341 42.9561 56.0547 40.8605C54.3282 38.5691 52.4645 36.3787 50.6835 34.1277C49.1122 32.141 47.5753 30.13 46.0222 28.1312C45.8064 27.9315 45.7479 27.5826 45.4131 27.4978C45.4796 27.2135 45.1367 27.161 45.0984 26.9351C45.0984 26.7556 45.0238 26.6426 44.8322 26.6305C44.0637 25.6281 43.2972 24.6277 42.5288 23.6252C42.5106 23.4255 42.4703 23.1734 42.2262 23.2339C41.9902 23.2924 42.083 23.484 42.2302 23.6111C42.2383 23.7341 42.2121 23.8733 42.2585 23.9782C42.7063 24.9827 43.0431 26.0254 43.3678 27.0743C43.7611 28.343 44.2251 29.5915 44.6587 30.8481C44.4187 31.0498 44.5599 31.1143 44.7696 31.1547C44.7212 31.433 44.7192 31.6993 44.9613 31.903C44.7192 32.1047 44.8624 32.1692 45.0722 32.2116L45.0702 32.2176Z" fill="#202020"/>
<path d="M7.82633 38.2505C8.3689 38.2 8.58674 37.72 8.88727 37.3892C10.4565 35.6627 12.0055 33.9159 13.5344 32.1511C15.9669 29.3434 18.466 26.5983 20.9308 23.8209C22.4314 22.1326 23.9865 20.4908 25.3803 18.7037C26.2092 17.6428 27.2056 16.7109 28.1254 15.7226C28.1657 15.7408 28.1536 15.8759 28.2444 15.7751C28.2081 15.7529 28.1738 15.7307 28.1375 15.7085C28.9382 14.8876 29.6805 14.0062 30.3945 13.1207C31.2114 12.1082 32.0525 11.1118 32.8452 10.0791C34.0191 8.55421 35.195 7.03138 36.3991 5.53073C36.6855 5.17574 36.7702 4.6493 37.339 4.4234C37.3491 4.90143 37.6133 5.2544 37.3068 5.79496C37.0587 6.23668 37.1736 6.91036 37.4076 7.45696C37.218 7.49327 37.0062 7.51747 37.2563 7.76758C37.2402 7.87247 37.2261 7.97735 37.2099 8.08425C37.1676 8.12661 37.1272 8.16896 37.0849 8.21334C36.8751 8.21939 36.8065 8.3868 36.7037 8.53001C36.3305 9.04434 36.1934 9.67566 35.8626 10.2021C33.66 13.7258 31.4171 17.2233 29.1379 20.6986C25.0071 27.0017 20.2994 32.8893 16.0335 39.0936C12.7518 43.8658 10.3032 48.9526 9.37337 54.6991C9.2705 55.3324 8.93366 56.0142 9.33101 56.6798C9.25033 56.7685 9.1878 56.8956 9.08695 56.94C8.42538 57.2264 8.48186 57.5471 9.01838 57.9101C9.08292 58.4144 8.86508 58.9005 8.88324 59.3906C8.95988 61.339 8.67549 63.2753 8.71381 65.2238C8.74205 66.6478 8.71986 68.0738 8.71784 69.4998C8.71784 69.7983 8.75818 70.1029 8.56859 70.3691C7.0276 70.3994 6.32972 69.8245 6.17038 68.1161C5.98481 66.1294 5.88195 64.1306 6.14416 62.1357C6.15626 62.0369 6.15424 61.934 6.15021 61.8352C6.04129 59.5076 6.25509 57.186 6.34384 54.8665C6.41645 52.9927 6.29946 51.1108 6.47696 49.2512C6.67261 47.1999 6.56167 45.1546 6.60605 43.1074C6.61815 42.5063 6.36804 41.9355 6.44267 41.3284C6.46688 41.1287 6.30955 41.0198 6.14416 40.9432C6.20265 40.1081 6.88843 39.6482 7.31401 39.0391C7.49353 38.7809 7.74969 38.5792 7.81625 38.2484L7.82633 38.2505Z" fill="#FDBFBF"/>
<path d="M72.2593 41.1267C72.0112 40.802 71.1661 40.8101 71.6643 40.0658C72.1444 40.2614 72.225 40.681 72.2593 41.1267Z" fill="#FCFCFC"/>
<path d="M66.0691 32.0785C65.9803 31.5984 65.3571 31.7174 65.2038 31.31C65.6959 31.3362 66.3374 31.197 66.0691 32.0785Z" fill="#FCFCFC"/>
<path d="M65.1534 30.8643C64.9901 30.4871 64.4112 30.6989 64.2962 30.2551C65.1373 30.2753 65.1978 30.3197 65.1534 30.8643Z" fill="#FCFCFC"/>
<path d="M62.9085 28.1332C62.6503 28.0787 62.2994 28.2542 62.1884 27.8387C62.4446 27.8972 62.8197 27.6672 62.9085 28.1332Z" fill="#FCFCFC"/>
<path d="M74.0988 48.2144C74.1432 48.1035 73.8063 48.047 74.0564 47.9078C74.1654 47.93 74.3146 47.9199 74.3025 48.0773C74.2985 48.1277 74.1694 48.17 74.0988 48.2144Z" fill="#FDFDFD"/>
<path d="M64.1106 29.5007C63.9977 29.4724 63.8404 29.5269 63.8121 29.3413C64.0582 29.1195 64.0844 29.3091 64.1106 29.5007Z" fill="#FCFCFC"/>
<path d="M64.2478 29.8073C64.0763 29.7609 64.1308 29.6137 64.1106 29.5007C64.3123 29.533 64.4958 29.5733 64.2478 29.8073Z" fill="#FCFCFC"/>
<path d="M63.1929 28.5991C63.0275 28.5527 63.0739 28.4075 63.0517 28.2946C63.2514 28.3268 63.439 28.3631 63.1929 28.5991Z" fill="#FCFCFC"/>
<path d="M54.2959 18.5C54.0761 18.5101 53.9692 18.4093 53.9873 18.1854C54.1971 18.1854 54.3 18.2902 54.2959 18.5Z" fill="#FDFDFD"/>
<path d="M60.4921 25.4223C60.3771 25.3961 60.2198 25.4506 60.1936 25.261C60.4377 25.0452 60.4639 25.2348 60.4921 25.4223Z" fill="#FCFCFC"/>
<path d="M26.6671 15.6097C26.6731 15.7025 26.6449 15.7569 26.538 15.7246C26.5803 15.6863 26.6247 15.648 26.6671 15.6097Z" fill="#FCFCFC"/>
<path d="M63.5055 29.3072C63.3986 29.3455 63.3684 29.3011 63.3906 29.2003C63.4289 29.2366 63.4672 29.2709 63.5055 29.3072Z" fill="#FCFCFC"/>
<path d="M24.2588 18.4778C24.2588 18.5685 24.2285 18.625 24.1237 18.5948C24.168 18.5564 24.2144 18.5161 24.2588 18.4778Z" fill="#FCFCFC"/>
<path d="M60.9419 26.0032C60.8371 26.0254 60.7947 25.9851 60.8169 25.8782C60.8592 25.9205 60.8996 25.9609 60.9419 26.0032Z" fill="#FCFCFC"/>
<path d="M57.0169 21.6264C56.912 21.6486 56.8696 21.6082 56.8938 21.5013C56.9342 21.5437 56.9765 21.584 57.0169 21.6264Z" fill="#FCFCFC"/>
<path d="M69.1612 35.7231C69.1693 35.7595 69.1773 35.7958 69.1854 35.8321C69.1753 35.7958 69.1632 35.7574 69.1531 35.7211L69.1632 35.7231H69.1612Z" fill="#232322"/>
<path d="M55.5021 70.115C54.6993 70.2441 53.9046 70.4135 53.0837 70.4034C48.5273 70.353 43.977 70.6394 39.4226 70.7544C36.2902 70.833 33.1558 70.6939 30.0314 70.8996C27.8511 71.0428 25.6747 70.9541 23.5105 71.0085C25.2451 66.3069 26.9656 61.6375 28.6881 56.9702C28.8999 56.9238 29.0189 56.8472 28.7829 56.6616C28.793 56.6132 28.797 56.5668 28.793 56.5184C29.2912 56.4639 28.9261 56.1614 28.9524 55.9698C29.6038 55.3243 29.6623 54.4066 29.981 53.618C30.8241 51.5344 31.6208 49.4266 32.3288 47.2927C32.9541 45.4068 33.6762 43.5552 34.3156 41.6753C35.0941 39.388 35.911 37.1048 36.7017 34.8175C37.0526 33.801 37.4258 32.7925 37.7606 31.7719C37.9522 31.1849 37.811 30.5395 38.0409 29.9525C38.1357 29.9364 38.2467 29.9223 38.2467 29.8013C38.2467 29.6802 38.1357 29.6661 38.0409 29.65C38.6945 27.9093 39.0857 26.1142 39.0414 24.2525C39.0293 23.7603 39.1463 23.4195 39.5073 23.129C39.5577 23.1452 39.6061 23.1593 39.6566 23.1754C39.6787 23.9338 40.0297 24.5974 40.2657 25.2912C41.3044 28.3409 42.2181 31.429 43.1278 34.519C43.3073 35.1322 43.4445 35.7574 43.6321 36.3686C43.7894 36.8769 43.9326 37.3993 44.3178 37.8027C44.2452 37.8491 44.1161 37.8894 44.1121 37.9398C44.102 38.0972 44.2513 38.0871 44.3602 38.1093C44.2029 38.9665 44.6406 39.7087 44.8685 40.4752C45.7539 43.4624 46.6838 46.4375 47.66 49.3964C49.197 54.0536 50.6956 58.729 52.3959 63.3278C53.1079 65.254 53.6283 67.275 54.6913 69.0702C54.8345 69.3102 54.9676 69.5361 55.2157 69.6773C55.3286 69.8124 55.5424 69.881 55.5021 70.117V70.115Z" fill="#D85A5A"/>
<path d="M63.4732 31.4592C63.8787 32.1248 64.1933 32.8247 64.9678 33.2341C65.341 33.4318 65.3289 34.0974 65.6738 34.4766C66.3656 35.237 66.9687 36.07 67.5173 36.9394L67.5415 36.9636C67.7573 37.4618 68.0902 37.8773 68.4673 38.2605C68.4915 38.3876 68.4855 38.5288 68.6368 38.5913C68.6973 38.8414 68.7376 39.1056 69.0583 39.1601C69.2681 40.1121 69.8913 40.8866 70.1717 41.8165C70.4702 42.8068 70.8655 43.7689 71.2205 44.7431L71.2629 45.0457C71.6542 46.8307 72.1423 48.5996 72.4045 50.4028C72.6123 51.8349 73.169 53.2004 73.1589 54.6627C73.1589 54.9088 73.296 55.0823 73.3727 55.288C73.532 55.7136 73.9818 55.9879 73.5602 56.6374C73.3263 56.9964 73.7841 57.777 73.8709 58.376C74.2501 60.9981 74.958 63.5597 75.2787 66.1899C75.311 66.4581 75.4078 66.7203 75.4219 66.9886C75.4643 67.7873 75.0992 68.3138 74.3549 68.584C73.5381 68.8825 72.6647 68.941 71.8216 69.0096C70.4137 69.1266 69.0139 69.413 67.5899 69.3444C67.5375 69.3848 67.483 69.4251 67.4306 69.4655C65.936 69.5219 64.4414 69.5582 62.9488 69.6409C61.6378 69.7135 60.3308 69.8447 59.0197 69.9395C58.8301 69.9536 58.584 70.0201 58.4751 69.8003C58.3501 69.5522 58.6304 69.4675 58.7474 69.3404C60.6958 67.2286 62.6826 65.1551 64.5947 63.0111C65.9118 61.5346 67.3459 60.1368 68.3322 58.3982C68.9837 57.2505 69.381 56.0181 68.9373 54.6728C68.9373 54.6244 68.9353 54.578 68.9292 54.5296C68.8344 53.6784 68.3443 53.0148 67.7856 52.446C65.9057 50.5339 64.3123 48.3899 62.6765 46.2801C61.0448 44.1784 59.3949 42.0908 57.7732 39.981C55.7744 37.3831 53.7493 34.8054 51.8271 32.153C50.51 30.3337 49.1526 28.5446 47.777 26.7717C45.4574 23.7805 43.3719 20.6017 40.7498 17.8525C39.9631 17.0276 39.828 16.0534 39.7998 15.0085C40.0357 14.6273 39.6989 14.7403 39.5355 14.702C39.7755 13.9436 39.5053 13.1953 39.5012 12.4409C39.7312 12.0617 39.3984 12.1726 39.235 12.1363C39.5799 11.2489 39.2047 10.3775 39.1604 9.50013C39.12 8.71753 38.9869 7.93897 38.8961 7.1584C39.1261 6.7792 38.7933 6.89013 38.6299 6.85383C38.8134 6.29915 38.8215 5.74448 38.6238 5.19182C39.1785 5.00021 39.0151 4.51411 39.0635 4.11475C39.5234 4.57664 39.9813 5.03853 40.4412 5.49841C40.421 5.59522 40.4654 5.63355 40.5602 5.62346C41.4597 6.65616 42.3573 7.68887 43.2589 8.71955C45.3223 11.0835 47.3514 13.4776 49.4652 15.7952C50.2337 16.6363 50.9013 17.5802 51.8473 18.27C52.287 18.5928 52.4725 19.1878 52.8598 19.6073C53.0756 19.8413 53.2471 20.2023 53.5133 20.3092C54.4008 20.6662 54.6731 21.5235 55.1511 22.1971C55.6594 22.9152 56.446 23.367 56.8898 24.1395C56.9785 24.2948 57.1822 24.4098 57.3577 24.4844C57.6804 24.6236 58.0253 24.7123 57.9225 25.1883C57.9083 25.2529 57.9366 25.3799 57.9749 25.3961C59.2154 25.8681 59.2396 27.4292 60.3348 28.0262C60.3691 28.0626 60.4034 28.0968 60.4397 28.1332C61.2465 29.3555 62.4405 30.2268 63.3542 31.3523L63.4672 31.4551L63.4732 31.4592Z" fill="#F9A7A7"/>
<path d="M9.33705 56.6818C8.93971 56.0161 9.27856 55.3344 9.37941 54.7011C10.3072 48.9546 12.7579 43.8678 16.0395 39.0956C20.3075 32.8913 25.0152 27.0037 29.144 20.7005C31.4212 17.2232 33.6641 13.7278 35.8686 10.2041C36.1994 9.67564 36.3366 9.04432 36.7097 8.532C36.8146 8.3888 36.8812 8.22139 37.0909 8.21533L37.1454 8.22139L37.1999 8.21332C37.2079 9.24199 37.22 10.2686 37.22 11.2973C37.22 11.5716 37.0809 11.856 37.4661 12.0315C37.6275 12.1061 37.5589 12.334 37.4459 12.4934C37.1837 12.8685 37.1817 13.3143 37.2624 13.7177C37.5306 15.0449 37.4298 16.4225 37.8231 17.7295C37.6396 17.8465 37.3915 17.907 37.3955 18.1954C37.1898 18.2297 37.1051 18.3649 37.0909 18.5605L37.0849 18.5726C36.4616 20.1943 35.8727 21.8301 35.205 23.4316C34.7956 24.4118 34.3559 25.3881 33.9626 26.3703C33.4059 27.7621 32.4216 28.9541 32.109 30.4507C32.0908 30.5415 32.0162 30.6222 31.9698 30.7069C31.9698 30.7432 31.9678 30.7775 31.9698 30.8138C31.0359 31.8747 30.4308 33.1515 29.7188 34.3516C28.1072 37.0745 26.2294 39.6018 24.2971 42.0989C23.1837 43.537 22.0078 44.9166 20.8017 46.2741C20.6927 46.2519 20.6726 46.3104 20.6887 46.4011C20.0211 47.103 19.3535 47.805 18.6858 48.5049C18.4841 48.5916 18.3793 48.7429 18.3732 48.9647C16.7939 50.3585 15.3437 51.8954 13.7623 53.2771C12.3666 54.4953 10.9305 55.6975 9.34109 56.6838L9.33705 56.6818Z" fill="#F9A7A7"/>
<path d="M46.0202 28.1332C47.5733 30.1341 49.1102 32.145 50.6814 34.1298C52.4625 36.3828 54.3262 38.5712 56.0527 40.8625C57.632 42.9582 59.3465 44.9429 60.948 47.0184C62.025 48.4141 63.209 49.7252 64.3365 51.0847C65.1211 52.0306 65.9985 52.8858 66.8598 53.7572C67.8219 54.7294 67.6605 55.9174 67.4265 57.1054C67.3479 57.1316 67.2813 57.1659 67.3176 57.2668C66.9465 58.5475 66.0247 59.4733 65.224 60.4677C63.8424 62.1882 62.4123 63.8724 60.9984 65.5667C60.236 66.4804 59.4635 67.386 58.695 68.2937C58.4892 68.2412 58.2815 68.1888 58.0758 68.1363C57.9749 67.8842 57.8741 67.6321 57.7732 67.382C58.0193 67.1319 57.9426 66.9907 57.6219 66.9302C57.3698 66.2263 57.1177 65.5223 56.8656 64.8184C57.0128 64.4674 56.9503 64.2012 56.565 64.064C56.1072 62.9264 55.6755 61.7788 55.3568 60.5928C55.5868 60.3528 55.3992 60.3205 55.2076 60.2902C54.8244 59.076 54.2475 57.9263 53.9994 56.6677C54.2293 56.4277 54.0418 56.3954 53.8501 56.3652C52.9506 53.6442 52.0469 50.9253 51.1595 48.2024C50.9679 47.6134 50.8388 47.0043 50.6814 46.4052C50.9114 46.1652 50.7238 46.1329 50.5322 46.1027C49.2736 41.986 48.0714 37.8511 46.9863 33.686C46.5345 31.9474 45.9697 30.2309 45.7015 28.4459C45.8084 28.343 45.9153 28.2381 46.0222 28.1353L46.0202 28.1332Z" fill="#DE8383"/>
<path d="M37.3955 18.1955C37.3914 17.9071 37.6395 17.8465 37.8231 17.7296C37.9965 19.4521 37.7585 21.1504 37.5952 22.8608C37.5125 23.7281 37.3309 24.5692 37.226 25.4244C37.0143 25.4647 36.8731 25.5313 37.1171 25.733C37.0647 26.7375 36.8186 27.6915 36.3749 28.5931C36.3244 28.694 36.274 28.7948 36.2236 28.8957C36.3789 29.1881 36.0582 29.3858 36.0743 29.65C36.1066 29.7569 35.8101 29.8235 36.036 29.9546C36.0259 30.598 35.796 31.193 35.5842 31.784C34.9731 33.4843 34.5112 35.2371 33.7911 36.8991C33.422 36.9455 33.4744 37.1936 33.5269 37.4437C33.5712 37.9984 33.1356 38.5187 33.4341 39.1198C33.4744 39.2005 32.9803 39.5434 32.7342 39.7673C32.3651 39.8137 32.4175 40.0638 32.472 40.3139C32.5224 40.568 32.476 40.7919 32.2804 40.9754C31.9435 41.038 31.8709 41.1832 32.1392 41.4333C32.0403 41.9981 31.6047 42.5164 31.9032 43.1397C31.9173 43.1679 31.879 43.2345 31.8467 43.2668C30.8705 44.3378 30.7555 45.8263 30.0213 47.0143C29.6482 47.0567 29.7006 47.3068 29.7551 47.5589C29.862 47.7949 29.6744 47.9946 29.6744 48.2165C29.2569 48.2044 29.2085 48.4363 29.3073 48.7691C29.4021 49.0051 29.2125 49.2008 29.2165 49.4247C28.799 49.4146 28.7567 49.6506 28.8555 49.9773C28.9422 50.2133 28.7668 50.413 28.7688 50.6389C28.7325 50.6954 28.6941 50.7518 28.6578 50.8063C28.2645 51.724 27.9821 52.676 27.7482 53.6442C27.7462 53.6845 27.7441 53.7249 27.7441 53.7652C26.7538 55.157 26.4311 56.829 25.8199 58.3781C24.5815 61.5206 23.4157 64.6933 22.2297 67.856C22.0643 68.2997 22.1349 69.0278 21.675 69.1005C21.3059 69.1589 21.0699 68.451 20.846 68.0678C19.779 66.2464 18.4539 64.6167 17.1468 62.9728C16.7757 62.5069 16.3622 62.0712 15.9689 61.6234C15.9306 61.5831 15.8943 61.5448 15.856 61.5044C14.7164 60.3144 13.5868 59.1143 12.3403 58.0332C12.4916 57.6903 12.6973 57.3595 12.6227 56.9581C13.6857 56.0021 14.7506 55.046 15.8136 54.09C16.094 54.3965 16.33 54.2352 16.578 54.0315C16.8745 53.7874 16.9391 53.5171 16.7233 53.1924C17.4333 52.3957 18.1856 51.6454 18.9803 50.9354C19.7084 51.0503 20.0069 50.7377 19.89 50.0156C20.1945 49.6687 20.4991 49.3238 20.8037 48.9769C21.4209 49.0757 21.6568 48.8054 21.5499 48.2044C21.7133 48.0087 21.8787 47.8131 22.0421 47.6174C22.5201 47.686 22.6694 47.444 22.6109 47.0103C22.7077 46.9095 22.8045 46.8086 22.8993 46.7078C23.3894 46.7662 23.3794 46.4375 23.3652 46.1047C23.7202 45.5924 24.0752 45.08 24.4322 44.5677L24.4242 44.5153C24.4927 44.4971 24.5593 44.481 24.6279 44.4628C24.8982 44.4205 25.2491 44.4427 25.0111 43.9888C25.0151 43.6419 25.3984 43.535 25.4851 43.2405C25.6828 43.2365 25.7796 43.1316 25.7816 42.936C25.8441 42.8371 25.9046 42.7383 25.9672 42.6375C26.4432 42.706 26.5945 42.468 26.538 42.0324C26.6227 41.873 26.6368 41.6673 26.8304 41.5765C27.3226 41.631 27.3065 41.2982 27.2903 40.9694C27.6393 40.0234 28.4481 39.3477 28.8091 38.4098C28.8575 38.4098 28.9059 38.4098 28.9543 38.4018C29.4404 38.4018 29.5433 38.2041 29.2549 37.8088C29.5191 37.1996 29.9406 36.6913 30.3057 36.1468C30.808 36.1468 30.9007 35.939 30.6063 35.5417C30.6426 35.221 30.8039 34.9749 31.0621 34.7873C31.1226 34.876 31.2154 34.9386 31.2941 34.8458C31.4131 34.7046 31.3404 34.5775 31.2033 34.4827C31.405 33.7465 31.9173 33.1798 32.2703 32.5242C32.8391 32.2661 32.9056 32.1148 32.5991 31.7699L33.4704 29.9546C34.1037 29.9465 33.9746 29.5895 33.8092 29.2143C34.0674 28.5548 34.3276 27.8932 34.5858 27.2336C34.6201 27.1852 34.6544 27.1368 34.6866 27.0904C34.7512 26.8867 34.8157 26.683 34.8823 26.4813C34.9166 26.4309 34.9529 26.3805 34.9872 26.328C35.0537 26.1808 35.1223 26.0315 35.1889 25.8843C35.802 25.8036 35.6346 25.4708 35.4329 25.1259C35.6689 24.4139 35.8928 23.6958 36.1449 22.9899C36.2014 22.8285 36.1671 22.6409 36.4132 22.5179C37.0082 22.2174 36.5746 21.6445 36.6794 21.2048C36.8347 21.1887 37.0304 21.2371 37.0728 21.0132C37.107 20.8317 36.9739 20.7752 36.8247 20.751C36.9699 20.1923 37.105 19.6296 37.2644 19.0729C37.3289 18.847 37.3955 18.6533 37.0869 18.5747L37.0929 18.5626C37.5467 18.736 37.335 18.3528 37.3975 18.1975L37.3955 18.1955Z" fill="#DE8383"/>
<path d="M8.57861 70.3712C8.76821 70.1049 8.72787 69.8004 8.72787 69.5018C8.72787 68.0758 8.75006 66.6518 8.72384 65.2258C8.68551 63.2774 8.96991 61.3431 8.89326 59.3926C8.87309 58.9025 9.09295 58.4164 9.0284 57.9122C9.9421 58.4749 10.6238 59.3059 11.4286 59.9937C11.4549 60.0744 11.4932 60.1369 11.596 60.1188C14.5429 62.9204 17.0157 66.0992 19.1477 69.5523C19.3554 69.8871 19.5672 70.2199 19.775 70.5527C19.7689 70.6636 19.7629 70.7725 19.7568 70.8835C17.9274 70.8734 16.096 70.8593 14.2665 70.8573C12.3564 70.8532 10.4625 70.6959 8.58063 70.3732L8.57861 70.3712Z" fill="#F9A7A7"/>
<path d="M53.9994 56.6676C54.2475 57.9263 54.8244 59.0759 55.2076 60.2902C55.2076 60.4152 55.2358 60.5282 55.3569 60.5927C55.6776 61.7787 56.1092 62.9264 56.565 64.064C56.6276 64.3302 56.6619 64.6086 56.8656 64.8183C57.1177 65.5223 57.3698 66.2262 57.622 66.9301C57.6724 67.0814 57.7228 67.2327 57.7732 67.3819C57.8741 67.6341 57.9749 67.8862 58.0758 68.1363C58.0899 68.3662 58.1887 68.5599 58.336 68.7313C58.2977 68.7918 58.2613 68.8543 58.223 68.9149C58.1302 68.9068 58.0838 68.9391 58.1101 69.0379C57.5029 70.0363 56.5913 70.2904 55.5001 70.1129C55.5404 69.879 55.3266 69.8084 55.2137 69.6732C55.8954 69.0782 55.371 68.4005 55.2459 67.8277C54.8405 65.972 54.3302 64.1366 53.8058 62.3092C53.5012 61.2523 53.3278 60.1449 52.7146 59.1949C52.5734 58.9771 52.8618 58.7895 52.7005 58.5293C52.2628 57.8214 52.4504 56.8814 51.8715 56.1997C51.6113 55.8931 51.8574 55.5079 51.8594 55.1589C51.8836 55.0339 51.9058 54.9108 51.7485 54.8523C51.1716 54.0577 51.0264 53.0915 50.8146 52.1818C50.5705 51.1269 50.0784 50.1648 49.8424 49.116C49.6266 48.1579 49.1042 47.2745 49.1405 46.2539C49.1627 46.1308 49.1849 46.0058 49.0295 45.9473C48.8036 45.6185 48.5213 45.3039 48.6705 44.8581C48.7209 44.7069 48.6625 44.6645 48.5455 44.5818C48.0553 44.2308 48.0977 43.7407 48.2348 43.2344C48.2591 43.1094 48.2812 42.9863 48.1239 42.9279C47.7024 42.2743 47.3272 41.6047 47.4563 40.7798C47.5309 40.3058 47.1094 40.0214 47.0065 39.5837C46.6394 38.0387 46.1291 36.5279 45.7035 34.997C45.5482 34.4343 45.4776 33.8494 45.3687 33.2745C45.3929 33.1495 45.4151 33.0264 45.2578 32.9679C45.0621 32.7521 45.0803 32.4818 45.0682 32.2176C45.0924 32.0926 45.1146 31.9695 44.9572 31.909C44.7152 31.7053 44.7172 31.439 44.7656 31.1607C44.7898 31.0356 44.812 30.9126 44.6547 30.8541C44.221 29.5975 43.7571 28.349 43.3638 27.0803C43.0391 26.0295 42.7042 24.9887 42.2545 23.9842C42.2081 23.8793 42.2343 23.7402 42.2262 23.6171C42.325 23.6212 42.4239 23.6252 42.5227 23.6292C43.2912 24.6317 44.0576 25.6321 44.8261 26.6346C44.7656 26.8665 44.8987 26.929 45.0924 26.9391C45.1307 27.165 45.4756 27.2175 45.407 27.5019C45.4837 27.8226 45.4796 28.1675 45.6954 28.4458C45.9637 30.2309 46.5285 31.9473 46.9803 33.686C48.0654 37.8511 49.2655 41.9859 50.5262 46.1026C50.5262 46.2277 50.5544 46.3386 50.6754 46.4052C50.8327 47.0042 50.9618 47.6133 51.1534 48.2023C52.0409 50.9273 52.9466 53.6442 53.8441 56.3651C53.8441 56.4902 53.8724 56.6031 53.9934 56.6676H53.9994Z" fill="#D86D6D"/>
<path d="M39.0716 4.12083C39.0232 4.5202 39.1866 5.00629 38.6319 5.19791C38.5432 4.94377 38.7307 4.62105 38.4988 4.42136C38.1398 4.11075 38.5048 3.85257 38.5129 3.57019C38.8619 3.58834 39.0111 3.8082 39.0696 4.12083H39.0716Z" fill="#DE8383"/>
<path d="M16.7213 53.1863C16.9391 53.5111 16.8726 53.7814 16.5761 54.0254C16.328 54.2291 16.092 54.3925 15.8116 54.0839C16.0718 53.741 16.3683 53.4344 16.7193 53.1843L16.7213 53.1863Z" fill="#DE8383"/>
<path d="M12.6207 56.954C12.6954 57.3574 12.4896 57.6862 12.3384 58.0291C11.7353 57.5067 11.7635 57.3958 12.6207 56.954Z" fill="#DE8383"/>
<path d="M19.888 50.0075C20.005 50.7296 19.7065 51.0422 18.9783 50.9273C19.2345 50.5743 19.5411 50.2717 19.888 50.0075Z" fill="#DE8383"/>
<path d="M21.548 48.1983C21.6549 48.7994 21.4209 49.0696 20.8017 48.9708C21.0498 48.7126 21.2979 48.4565 21.548 48.1983Z" fill="#DE8383"/>
<path d="M45.6995 28.4438C45.4837 28.1654 45.4877 27.8205 45.4111 27.4998C45.7459 27.5845 45.8064 27.9335 46.0202 28.1332C45.9133 28.236 45.8064 28.3409 45.6995 28.4438Z" fill="#DE8383"/>
<path d="M35.4309 25.1198C35.6326 25.4647 35.8 25.7975 35.1869 25.8781C35.1425 25.5857 35.2696 25.3457 35.4309 25.1198Z" fill="#DE8383"/>
<path d="M33.8052 29.2103C33.9706 29.5834 34.0997 29.9424 33.4664 29.9505C33.539 29.6843 33.5612 29.3978 33.8052 29.2103Z" fill="#DE8383"/>
<path d="M32.5971 31.7638C32.9037 32.1087 32.8391 32.258 32.2683 32.5181C32.2663 32.2176 32.47 32.0079 32.5971 31.7638Z" fill="#DE8383"/>
<path d="M29.2529 37.8007C29.5393 38.196 29.4385 38.3916 28.9524 38.3937C28.9524 38.3533 28.9524 38.313 28.9564 38.2747C29.0613 38.1214 29.0613 37.9015 29.2529 37.8007Z" fill="#DE8383"/>
<path d="M30.6042 35.5356C30.8987 35.9329 30.808 36.1387 30.3037 36.1407C30.3824 35.9289 30.3945 35.6828 30.6042 35.5356Z" fill="#DE8383"/>
<path d="M22.6088 47.0042C22.6673 47.4378 22.5181 47.6798 22.04 47.6113C22.2337 47.4116 22.3265 47.1191 22.6088 47.0042Z" fill="#DE8383"/>
<path d="M58.3359 68.7313C58.1887 68.5599 58.0899 68.3662 58.0757 68.1363C58.2815 68.1887 58.4892 68.2412 58.695 68.2936C58.576 68.4388 58.4549 68.5861 58.3359 68.7313Z" fill="#DE8383"/>
<path d="M26.5339 42.0262C26.5904 42.4599 26.4391 42.6979 25.9631 42.6313C26.1527 42.4296 26.3423 42.2279 26.5339 42.0262Z" fill="#DE8383"/>
<path d="M69.0603 39.1601C68.7396 39.1057 68.6973 38.8414 68.6388 38.5913C68.6892 38.5752 68.7396 38.559 68.7901 38.5429C69.0261 38.6841 69.139 38.8797 69.0603 39.1601Z" fill="#DE8383"/>
<path d="M42.5267 23.6272C42.4279 23.6232 42.3291 23.6192 42.2302 23.6151C42.083 23.4861 41.9902 23.2965 42.2262 23.238C42.4703 23.1775 42.5106 23.4296 42.5287 23.6293L42.5267 23.6272Z" fill="#232322"/>
<path d="M23.3633 46.0986C23.3774 46.4314 23.3895 46.7601 22.8973 46.7017C23.0345 46.4858 23.0708 46.1954 23.3633 46.0986Z" fill="#DE8383"/>
<path d="M25.0091 43.9827C25.2472 44.4366 24.8962 44.4144 24.6259 44.4567C24.6622 44.2248 24.8296 44.0997 25.0091 43.9827Z" fill="#DE8383"/>
<path d="M27.2863 40.9633C27.3024 41.294 27.3186 41.6248 26.8264 41.5704C26.9616 41.3546 27.014 41.0742 27.2863 40.9633Z" fill="#DE8383"/>
<path d="M28.9523 55.9698C28.9261 56.1594 29.2912 56.464 28.793 56.5184C28.7184 56.2986 28.7627 56.113 28.9523 55.9698Z" fill="#DE8383"/>
<path d="M36.8227 20.7469C36.9719 20.7712 37.105 20.8256 37.0707 21.0092C37.0284 21.233 36.8327 21.1846 36.6774 21.2008C36.7258 21.0495 36.7742 20.8982 36.8206 20.7469H36.8227Z" fill="#DE8383"/>
<path d="M19.7549 70.8814C19.7609 70.7705 19.767 70.6616 19.773 70.5507C19.9364 70.5728 20.0675 70.6455 20.0211 70.831C19.9808 70.9884 19.8699 70.9984 19.7569 70.8814H19.7549Z" fill="#232322"/>
<path d="M29.3053 48.7671C29.2065 48.4363 29.2549 48.2023 29.6724 48.2144C29.5494 48.398 29.4283 48.5815 29.3053 48.7671Z" fill="#DE8383"/>
<path d="M28.8535 49.9733C28.7567 49.6465 28.797 49.4105 29.2145 49.4206C29.0935 49.6041 28.9745 49.7877 28.8535 49.9733Z" fill="#DE8383"/>
<path d="M32.1372 41.4312C31.8689 41.1811 31.9395 41.0359 32.2783 40.9734C32.236 41.1267 32.353 41.3304 32.1372 41.4312Z" fill="#DE8383"/>
<path d="M31.2013 34.4746C31.3385 34.5694 31.4131 34.6945 31.2921 34.8377C31.2134 34.9305 31.1206 34.8679 31.0601 34.7792C31.0702 34.6602 31.0399 34.523 31.2013 34.4746Z" fill="#DE8383"/>
<path d="M29.7531 47.5569C29.6986 47.3047 29.6482 47.0546 30.0193 47.0123C30.0314 47.2442 29.8822 47.3955 29.7531 47.5569Z" fill="#DE8383"/>
<path d="M33.5249 37.4437C33.4704 37.1936 33.418 36.9435 33.7891 36.8991C33.8073 37.1311 33.656 37.2844 33.5249 37.4437Z" fill="#DE8383"/>
<path d="M18.3692 48.9627C18.3753 48.7429 18.4801 48.5896 18.6818 48.5029C18.6879 48.7328 18.6919 48.9587 18.3692 48.9627Z" fill="#222121"/>
<path d="M25.7776 42.9279C25.7756 43.1235 25.6788 43.2284 25.4811 43.2324C25.348 42.9057 25.6405 42.9924 25.7776 42.9279Z" fill="#DE8383"/>
<path d="M39.243 12.1425C39.4064 12.1788 39.7392 12.0678 39.5093 12.447C39.3802 12.3805 39.2572 12.3099 39.243 12.1425Z" fill="#DE8383"/>
<path d="M36.034 29.9546C35.8081 29.8235 36.1046 29.7569 36.0723 29.65C36.1429 29.6944 36.27 29.7347 36.276 29.7872C36.2902 29.9425 36.1429 29.9344 36.034 29.9546Z" fill="#232322"/>
<path d="M32.468 40.3118C32.4135 40.0617 32.3611 39.8116 32.7302 39.7652C32.7463 39.9972 32.5971 40.1504 32.468 40.3118Z" fill="#DE8383"/>
<path d="M36.2216 28.8977C36.272 28.7969 36.3224 28.696 36.3728 28.5952C36.4696 28.6113 36.5967 28.6355 36.5786 28.7464C36.5443 28.9522 36.3527 28.8735 36.2216 28.8977Z" fill="#232322"/>
<path d="M44.3602 38.1093C44.2513 38.0871 44.102 38.0972 44.1121 37.9398C44.1162 37.8894 44.2452 37.847 44.3179 37.8027C44.2957 37.9096 44.5821 37.9741 44.3602 38.1093Z" fill="#DE8383"/>
<path d="M38.64 6.85999C38.8034 6.89629 39.1362 6.78536 38.9063 7.16455C38.7772 7.09799 38.6541 7.0274 38.64 6.85999Z" fill="#DE8383"/>
<path d="M39.5436 14.7081C39.707 14.7464 40.0438 14.6334 39.8078 15.0147C39.6787 14.9481 39.5537 14.8775 39.5436 14.7081Z" fill="#DE8383"/>
<path d="M37.2624 7.77162C37.0123 7.52151 37.224 7.49529 37.4136 7.461C37.6073 7.68287 37.3451 7.68488 37.2624 7.77162Z" fill="#DE8383"/>
<path d="M44.9592 31.9091C45.1165 31.9696 45.0944 32.0926 45.0702 32.2177C44.8624 32.1773 44.7192 32.1128 44.9592 31.9091Z" fill="#232322"/>
<path d="M51.7485 54.8503C51.9058 54.9088 51.8836 55.0339 51.8594 55.1569C51.6517 55.1166 51.5084 55.052 51.7485 54.8503Z" fill="#222121"/>
<path d="M68.7901 38.5408C68.7396 38.557 68.6892 38.5731 68.6388 38.5892C68.4875 38.5287 68.4936 38.3855 68.4694 38.2585C68.665 38.2504 68.78 38.3351 68.7901 38.5388V38.5408Z" fill="#232322"/>
<path d="M45.2598 32.9659C45.4171 33.0244 45.395 33.1495 45.3708 33.2725C45.163 33.2322 45.0198 33.1676 45.2598 32.9659Z" fill="#232322"/>
<path d="M38.0389 29.65C38.1337 29.6662 38.2447 29.6803 38.2447 29.8013C38.2447 29.9223 38.1337 29.9364 38.0389 29.9526C38.0389 29.8517 38.0389 29.7509 38.0389 29.65Z" fill="#DE8383"/>
<path d="M48.1279 42.9279C48.2852 42.9863 48.2631 43.1114 48.2389 43.2344C48.0311 43.1941 47.8879 43.1296 48.1279 42.9279Z" fill="#222121"/>
<path d="M45.0964 26.9371C44.9048 26.925 44.7696 26.8645 44.8301 26.6325C45.0197 26.6466 45.0964 26.7576 45.0964 26.9371Z" fill="#232322"/>
<path d="M44.6587 30.8521C44.816 30.9106 44.7938 31.0357 44.7696 31.1587C44.5619 31.1184 44.4187 31.0538 44.6587 30.8521Z" fill="#222121"/>
<path d="M28.7849 56.6616C29.0209 56.8472 28.9019 56.9218 28.6901 56.9702C28.6458 56.8432 28.6316 56.7282 28.7849 56.6616Z" fill="#DE8383"/>
<path d="M71.265 45.0457C71.2508 44.9449 71.2367 44.844 71.2226 44.7432C71.2992 44.7875 71.4203 44.8178 71.4404 44.8783C71.4767 44.9933 71.3618 45.0255 71.265 45.0457Z" fill="#232322"/>
<path d="M49.0315 45.9473C49.1889 46.0058 49.1667 46.1289 49.1425 46.2539C48.9367 46.2136 48.7935 46.151 49.0315 45.9473Z" fill="#222121"/>
<path d="M37.1151 25.733C36.8711 25.5313 37.0123 25.4647 37.2241 25.4244C37.2503 25.5494 37.2745 25.6725 37.1151 25.733Z" fill="#DE8383"/>
<path d="M39.6566 23.1754C39.6061 23.1593 39.5577 23.1452 39.5073 23.129C39.4972 23.0544 39.3782 22.9334 39.5174 22.9172C39.6626 22.9011 39.6505 23.0645 39.6566 23.1754Z" fill="#232322"/>
<path d="M28.9564 38.2747C28.9544 38.315 28.9523 38.3553 28.9523 38.3937C28.9039 38.3997 28.8555 38.4037 28.8071 38.4017C28.7809 38.3735 28.7547 38.3473 28.7285 38.319C28.8051 38.3029 28.8797 38.2888 28.9564 38.2726V38.2747Z" fill="#DE8383"/>
<path d="M34.9831 26.322C34.9488 26.3724 34.9125 26.4228 34.8782 26.4753C34.8399 26.3744 34.9045 26.3441 34.9831 26.322Z" fill="#DE8383"/>
<path d="M20.6847 46.3991C20.6666 46.3084 20.6867 46.2499 20.7977 46.272C20.7593 46.3144 20.723 46.3568 20.6847 46.3991Z" fill="#232322"/>
<path d="M24.4221 44.5092L24.4302 44.5617C24.406 44.5415 24.3818 44.5213 24.3576 44.5032L24.4221 44.5092Z" fill="#DE8383"/>
<path d="M37.1999 8.21331L37.1454 8.22138L37.0909 8.21533C37.1333 8.17297 37.1736 8.1286 37.216 8.08624C37.2382 8.13263 37.2321 8.17499 37.1999 8.21331Z" fill="#DE8383"/>
<path d="M28.6538 50.8022C28.6901 50.7457 28.7284 50.6892 28.7647 50.6348C28.795 50.7356 28.7345 50.776 28.6538 50.8022Z" fill="#DE8383"/>
<path d="M67.5173 36.9394C67.5436 36.9071 67.5698 36.8728 67.596 36.8406C67.6928 36.9293 67.5597 36.9233 67.5436 36.9656L67.5173 36.9414V36.9394Z" fill="#232322"/>
<path d="M27.7401 53.7612C27.7401 53.7209 27.7401 53.6805 27.7441 53.6402C27.7825 53.6664 27.8228 53.6926 27.8611 53.7189C27.8208 53.733 27.7805 53.7471 27.7401 53.7592V53.7612Z" fill="#DE8383"/>
<path d="M68.9353 54.5357C68.9393 54.5841 68.9413 54.6305 68.9433 54.6789C68.905 54.6708 68.8667 54.6608 68.8304 54.6527C68.8667 54.6144 68.901 54.574 68.9373 54.5357H68.9353Z" fill="#DE8383"/>
<path d="M63.4733 31.4592C63.435 31.4249 63.3987 31.3906 63.3604 31.3563C63.4592 31.322 63.4894 31.3664 63.4733 31.4592Z" fill="#DE8383"/>
<path d="M31.9657 30.8138C31.9657 30.7775 31.9657 30.7432 31.9657 30.7069C32.004 30.7311 32.0423 30.7553 32.0807 30.7795C32.0423 30.7916 32.002 30.8017 31.9637 30.8138H31.9657Z" fill="#DE8383"/>
<path d="M67.3177 57.2667C67.2814 57.1638 67.3479 57.1296 67.4266 57.1053C67.3903 57.1598 67.354 57.2143 67.3177 57.2667Z" fill="#232322"/>
<path d="M40.5682 5.62951C40.4734 5.63959 40.431 5.60329 40.4492 5.50446C40.4895 5.54681 40.5278 5.58715 40.5682 5.62951Z" fill="#222121"/>
<path d="M11.5921 60.1167C11.4912 60.1369 11.4509 60.0743 11.4247 59.9916C11.4812 60.034 11.5356 60.0743 11.5921 60.1167Z" fill="#222121"/>
<path d="M60.4477 28.1372C60.4134 28.1009 60.3791 28.0666 60.3428 28.0303C60.4397 28.0061 60.476 28.0384 60.4477 28.1372Z" fill="#DE8383"/>
<path d="M15.856 61.5004C15.8943 61.5407 15.9306 61.579 15.969 61.6194C15.8742 61.6355 15.8298 61.6012 15.856 61.5004Z" fill="#DE8383"/>
<path d="M34.6847 27.0844C34.6504 27.1328 34.6161 27.1812 34.5838 27.2276C34.5354 27.1207 34.608 27.1005 34.6847 27.0844Z" fill="#DE8383"/>
<path d="M58.1121 69.0379C58.0858 68.9391 58.1322 68.9048 58.225 68.9149C58.1867 68.9552 58.1504 68.9976 58.1121 69.0379Z" fill="#232322"/>
<path d="M67.4346 69.4695C67.4871 69.4292 67.5415 69.3889 67.594 69.3485C67.5738 69.4332 67.5355 69.4937 67.4346 69.4695Z" fill="#DE8383"/>
<path d="M28.1415 15.7105C28.1778 15.7327 28.2121 15.7549 28.2484 15.7771C28.1576 15.8779 28.1677 15.7448 28.1294 15.7246L28.1415 15.7105Z" fill="#DE8383"/>
<path d="M37.3955 18.1954C37.333 18.3507 37.5448 18.734 37.0909 18.5605C37.1051 18.3649 37.1918 18.2317 37.3955 18.1954Z" fill="#202020"/>
<path d="M56.8675 64.8163C56.6638 64.6065 56.6295 64.3282 56.567 64.062C56.9523 64.1991 57.0148 64.4674 56.8675 64.8163Z" fill="#DE8383"/>
<path d="M57.7752 67.3819C57.7248 67.2306 57.6744 67.0794 57.624 66.9301C57.9447 66.9906 58.0213 67.1318 57.7752 67.3819Z" fill="#DE8383"/>
</g>
<defs>
<filter id="filter0_d_1_2427" x="0" y="0.835449" width="81.6841" height="80.3365" filterUnits="userSpaceOnUse" color-interpolation-filters="sRGB">
<feFlood flood-opacity="0" result="BackgroundImageFix"/>
<feColorMatrix in="SourceAlpha" type="matrix" values="0 0 0 0 0 0 0 0 0 0 0 0 0 0 0 0 0 0 127 0" result="hardAlpha"/>
<feOffset dy="4"/>
<feGaussianBlur stdDeviation="2"/>
<feComposite in2="hardAlpha" operator="out"/>
<feColorMatrix type="matrix" values="0 0 0 0 0 0 0 0 0 0 0 0 0 0 0 0 0 0 0.25 0"/>
<feBlend mode="normal" in2="BackgroundImageFix" result="effect1_dropShadow_1_2427"/>
<feBlend mode="normal" in="SourceGraphic" in2="effect1_dropShadow_1_2427" result="shape"/>
</filter>
</defs>
</svg>
