<svg width="74" height="74" viewBox="0 0 74 74" fill="none" xmlns="http://www.w3.org/2000/svg">
<path d="M61.1534 30.8642C61.1696 31.0135 61.1857 31.1627 61.2018 31.31C61.3551 31.7174 61.9764 31.5984 62.0671 32.0785C63.362 33.0668 64.2213 34.4222 65.1511 35.7211C65.1632 35.7595 65.1733 35.7958 65.1834 35.8321C65.1753 35.7958 65.1672 35.7595 65.1592 35.7232C65.732 35.7857 65.5827 36.3666 65.8228 36.6752C66.6154 37.6998 67.2165 38.8435 67.6643 40.0637C67.1661 40.808 68.0112 40.7999 68.2593 41.1247C68.8644 42.8573 69.3787 44.6201 69.8366 46.3971C69.9616 46.8872 69.9859 47.4016 70.0564 47.9058C69.8063 48.045 70.1412 48.1035 70.0988 48.2124C70.4498 49.2996 70.6192 50.4271 70.835 51.5445C71.2868 53.9064 71.787 56.2582 72.2449 58.6181C72.6443 60.6775 73.0194 62.7408 73.3905 64.8063C73.5822 65.8672 73.8343 66.8999 73.5701 68.0173C73.2211 69.4917 72.2388 70.2663 70.9278 70.6838C69.5038 71.1376 68.0032 71.3292 66.5247 71.42C64.776 71.5269 63.0252 71.6419 61.2805 71.777C59.6205 71.9061 57.9524 71.8879 56.2985 72.0634C54.4146 72.2611 52.5247 72.2933 50.6368 72.3881C48.3717 72.5011 46.1026 72.5737 43.8395 72.6867C40.7717 72.842 37.6978 72.848 34.6339 73.0033C31.9513 73.1405 29.2728 72.9973 26.5962 73.1223C23.2722 73.2776 19.9482 73.0053 16.6282 73.1485C14.6092 73.2353 12.5962 72.9953 10.5813 73.1122C10.4804 73.1183 10.3715 73.1385 10.2807 73.1082C8.98782 72.6887 7.63845 73.0295 6.3274 72.8157C5.00425 72.5979 3.66093 72.5374 2.37006 72.0937C1.65402 71.8476 1.16187 71.428 0.851257 70.7967C0.314736 69.7055 -0.0301705 68.5679 0.0142035 67.3194C0.0686624 65.8349 -0.0866464 64.3323 0.0787474 62.8639C0.302634 60.8973 0.161444 58.9146 0.482147 56.9561C0.615269 56.1513 0.593082 55.3102 0.603167 54.5034C0.617286 53.3558 0.865376 52.2383 0.833104 51.0846C0.794781 49.703 0.899665 48.2951 1.13162 46.9316C1.38576 45.4451 1.25869 43.9323 1.56729 42.462C1.67823 41.9355 1.5451 41.286 2.15222 40.9391C2.31761 41.0178 2.47696 41.1267 2.45074 41.3244C2.37611 41.9315 2.62823 42.5023 2.61411 43.1034C2.56974 45.1506 2.68067 47.1958 2.48502 49.2471C2.30753 51.1068 2.4225 52.9887 2.3519 54.8624C2.26316 57.182 2.04935 59.5036 2.15827 61.8312C2.16231 61.932 2.16432 62.0329 2.15222 62.1317C1.89001 64.1265 1.99288 66.1254 2.17844 68.1121C2.33778 69.8205 3.03567 70.3974 4.57665 70.3651C6.45851 70.6878 8.35449 70.8451 10.2626 70.8492C12.092 70.8512 13.9234 70.8673 15.7528 70.8754C15.8658 70.9924 15.9767 70.9843 16.0171 70.825C16.0655 70.6374 15.9344 70.5668 15.769 70.5446C15.5592 70.2118 15.3474 69.879 15.1417 69.5442C13.0097 66.0911 10.5349 62.9123 7.59005 60.1107C7.53357 60.0683 7.47911 60.028 7.42263 59.9856C6.61785 59.2978 5.93611 58.4668 5.02241 57.9041C4.48589 57.541 4.42941 57.2203 5.09099 56.9339C5.19184 56.8915 5.25436 56.7625 5.33504 56.6737C6.92444 55.6874 8.36054 54.4853 9.7563 53.267C11.3376 51.8854 12.7878 50.3484 14.3672 48.9547C14.6919 48.9526 14.6879 48.7247 14.6798 48.4948C15.3474 47.7929 16.015 47.091 16.6827 46.3911C16.721 46.3487 16.7573 46.3064 16.7956 46.264C18.0018 44.9066 19.1777 43.5269 20.2911 42.0888C22.2234 39.5918 24.1012 37.0665 25.7128 34.3415C26.4227 33.1414 27.0299 31.8646 27.9637 30.8037C28.0021 30.7916 28.0424 30.7815 28.0807 30.7694C28.0424 30.7452 28.0041 30.721 27.9657 30.6968C28.0142 30.6121 28.0868 30.5314 28.1049 30.4406C28.4176 28.944 29.3998 27.752 29.9585 26.3603C30.3519 25.378 30.7936 24.4018 31.201 23.4215C31.8686 21.82 32.4596 20.1842 33.0809 18.5626C33.3895 18.6412 33.3229 18.8348 33.2584 19.0607C33.099 19.6154 32.9639 20.1782 32.8186 20.7389C32.7702 20.8902 32.7218 21.0414 32.6754 21.1927C32.5706 21.6324 33.0022 22.2073 32.4092 22.5058C32.1651 22.6288 32.1994 22.8164 32.1409 22.9778C31.8888 23.6837 31.6629 24.4018 31.4289 25.1138C31.2656 25.3397 31.1405 25.5797 31.1849 25.8721C31.1183 26.0194 31.0497 26.1686 30.9832 26.3159C30.9065 26.3381 30.84 26.3663 30.8783 26.4692C30.8137 26.6729 30.7492 26.8766 30.6826 27.0783C30.604 27.0944 30.5314 27.1146 30.5818 27.2215C30.3236 27.8811 30.0634 28.5427 29.8053 29.2022C29.5612 29.3898 29.539 29.6762 29.4664 29.9424L28.5951 31.7577C28.468 32.0018 28.2643 32.2116 28.2663 32.5121C27.9133 33.1656 27.401 33.7344 27.1993 34.4706C27.0399 34.519 27.0682 34.6562 27.0581 34.7752C26.7999 34.9628 26.6386 35.2088 26.6023 35.5295C26.3925 35.6768 26.3804 35.9228 26.3017 36.1346C25.9346 36.6792 25.5131 37.1875 25.2509 37.7966C25.0593 37.8955 25.0593 38.1153 24.9544 38.2706C24.8777 38.2868 24.8031 38.3009 24.7265 38.317C24.7527 38.3453 24.7789 38.3715 24.8051 38.3997C24.4421 39.3376 23.6353 40.0133 23.2863 40.9593C23.014 41.0722 22.9616 41.3506 22.8264 41.5664C22.6328 41.6572 22.6187 41.8629 22.534 42.0222C22.3444 42.2239 22.1548 42.4256 21.9632 42.6273C21.9006 42.7262 21.8401 42.825 21.7776 42.9259C21.6404 42.9904 21.348 42.9037 21.4811 43.2304C21.3944 43.5249 21.0132 43.6338 21.0071 43.9787C20.8276 44.0957 20.6602 44.2208 20.6239 44.4527C20.5553 44.4709 20.4887 44.487 20.4202 44.5052L20.3556 44.4991C20.3798 44.5193 20.404 44.5395 20.4282 44.5576C20.0732 45.0699 19.7182 45.5822 19.3612 46.0946C19.0688 46.1894 19.0325 46.4818 18.8953 46.6976C18.7985 46.7985 18.7017 46.8993 18.6069 47.0002C18.3245 47.1152 18.2317 47.4076 18.0381 47.6073C17.8747 47.803 17.7093 47.9986 17.5459 48.1943C17.2979 48.4524 17.0498 48.7086 16.7997 48.9668C16.4951 49.3137 16.1905 49.6586 15.886 50.0055C15.539 50.2697 15.2324 50.5703 14.9763 50.9253C14.1816 51.6353 13.4272 52.3876 12.7193 53.1823C12.3683 53.4324 12.0718 53.739 11.8116 54.0819C10.7487 55.0379 9.68369 55.994 8.62073 56.95C7.76552 57.3938 7.73527 57.5047 8.33835 58.0251C9.58486 59.1062 10.7144 60.3063 11.854 61.4964C11.8278 61.5972 11.8701 61.6315 11.9669 61.6154C12.3602 62.0651 12.7737 62.4988 13.1449 62.9647C14.4519 64.6086 15.777 66.2363 16.844 68.0597C17.0699 68.4449 17.3059 69.1509 17.673 69.0924C18.1329 69.0198 18.0623 68.2916 18.2277 67.8479C19.4117 64.6832 20.5795 61.5125 21.8179 58.37C22.4271 56.821 22.7518 55.1489 23.7422 53.7571C23.7825 53.743 23.8228 53.7289 23.8632 53.7168C23.8249 53.6906 23.7845 53.6644 23.7462 53.6381C23.9822 52.67 24.2625 51.718 24.6559 50.8002C24.7365 50.772 24.797 50.7337 24.7668 50.6328C24.7668 50.4089 24.9403 50.2072 24.8535 49.9712C24.9745 49.7877 25.0935 49.6041 25.2146 49.4186C25.2105 49.1947 25.4001 48.999 25.3053 48.7631C25.4284 48.5795 25.5494 48.396 25.6724 48.2104C25.6724 47.9885 25.858 47.7888 25.7531 47.5529C25.8842 47.3915 26.0335 47.2402 26.0193 47.0083C26.7535 45.8203 26.8685 44.3297 27.8447 43.2607C27.875 43.2264 27.9133 43.1618 27.9012 43.1336C27.6027 42.5104 28.0384 41.992 28.1372 41.4272C28.353 41.3264 28.234 41.1227 28.2784 40.9694C28.474 40.7878 28.5204 40.5619 28.47 40.3078C28.6011 40.1464 28.7483 39.9931 28.7322 39.7612C28.9783 39.5393 29.4724 39.1944 29.4321 39.1137C29.1336 38.5127 29.5693 37.9923 29.5249 37.4376C29.656 37.2763 29.8053 37.125 29.7891 36.893C30.5092 35.231 30.9711 33.4782 31.5822 31.7779C31.794 31.1869 32.0239 30.5919 32.034 29.9485C32.143 29.9283 32.2882 29.9364 32.2761 29.7811C32.272 29.7307 32.145 29.6903 32.0724 29.6439C32.0562 29.3797 32.3769 29.182 32.2216 28.8896C32.3527 28.8654 32.5443 28.944 32.5786 28.7383C32.5968 28.6274 32.4697 28.6032 32.3729 28.587C32.8186 27.6854 33.0627 26.7314 33.1151 25.7269C33.2745 25.6684 33.2503 25.5434 33.2241 25.4183C33.3289 24.5611 33.5105 23.72 33.5932 22.8547C33.7565 21.1443 33.9966 19.446 33.8211 17.7235C33.4278 16.4165 33.5286 15.0389 33.2604 13.7117C33.1797 13.3103 33.1817 12.8625 33.4439 12.4874C33.5569 12.328 33.6254 12.0981 33.4641 12.0255C33.0788 11.85 33.218 11.5676 33.218 11.2913C33.218 10.2626 33.2059 9.23596 33.1978 8.20729C33.2321 8.16896 33.2362 8.12661 33.214 8.08223C33.2301 7.97735 33.2442 7.87247 33.2604 7.76557C33.3431 7.67883 33.6053 7.67682 33.4116 7.45495C33.1777 6.90834 33.0607 6.23265 33.3108 5.79294C33.6154 5.25239 33.3531 4.89941 33.3431 4.42138C32.7723 4.64527 32.6875 5.17171 32.4031 5.52872C31.197 7.02734 30.0211 8.55219 28.8492 10.077C28.0545 11.1097 27.2134 12.1061 26.3985 13.1187C25.6845 14.0041 24.9423 14.8876 24.1415 15.7065L24.1294 15.7206C23.2077 16.7109 22.2133 17.6408 21.3843 18.7017C19.9905 20.4888 18.4354 22.1306 16.9348 23.8188C14.468 26.5942 11.9689 29.3414 9.53846 32.149C8.00958 33.9139 6.46053 35.6606 4.8913 37.3872C4.59077 37.716 4.37293 38.198 3.83036 38.2484C4.50404 37.0322 5.4601 36.0257 6.31329 34.9466C7.8462 33.0083 9.37105 31.0578 11.0129 29.2143C12.4107 27.6431 13.7237 26.0012 15.1175 24.428C16.3761 23.01 17.556 21.5215 18.7803 20.0733C19.21 19.565 19.6739 19.085 20.1237 18.5928C20.2285 18.6231 20.2588 18.5666 20.2588 18.4758C20.8679 17.7174 21.473 16.955 22.0862 16.2006C22.2234 16.0312 22.3867 15.882 22.538 15.7226C22.6429 15.7549 22.6711 15.6984 22.6671 15.6076C23.6332 14.3732 24.5772 13.1227 25.5675 11.9105C27.6087 9.41345 29.5693 6.8559 31.4713 4.24994C32.2317 3.20917 32.8993 2.0978 33.7525 1.11553C34.0551 0.768602 34.1842 0.740364 34.4847 1.05098C36.4069 3.03369 38.2 5.13338 40.0254 7.20081C41.0117 8.31822 42.0283 9.40942 43.0247 10.5188C45.199 12.9392 47.3693 15.3656 49.5436 17.786C49.6747 17.9312 49.8381 18.0502 49.9853 18.1813C49.9672 18.4052 50.0741 18.5061 50.2939 18.496C51.1592 19.4964 52.0265 20.4969 52.8918 21.4993C52.8676 21.6042 52.91 21.6445 53.0148 21.6244C53.5332 22.0136 53.8963 22.5259 54.2371 23.0705C54.4106 23.3489 54.812 23.4154 54.9895 23.7483C55.2013 24.1476 55.5986 24.432 55.6026 24.9625C55.6047 25.2872 55.9435 25.2529 56.1896 25.257C56.2158 25.4466 56.3731 25.3921 56.4881 25.4183C56.597 25.5716 56.7059 25.7229 56.8149 25.8762C56.7927 25.9811 56.833 26.0234 56.9399 26.0012C57.541 26.4873 58.0472 27.036 58.1844 27.8367C58.2953 28.2522 58.6483 28.0747 58.9045 28.1312C58.9529 28.1856 59.0013 28.2381 59.0497 28.2925C59.0719 28.4055 59.0255 28.5507 59.1909 28.5971C59.3422 28.7686 59.3583 28.9864 59.3865 29.1982C59.3643 29.299 59.3946 29.3434 59.5015 29.3051C59.6044 29.3172 59.7052 29.3293 59.8081 29.3414C59.8383 29.5269 59.9937 29.4725 60.1066 29.5007C60.1268 29.6137 60.0743 29.7609 60.2438 29.8073C60.393 29.9424 60.3668 30.0957 60.2922 30.2531C60.4071 30.6968 60.988 30.487 61.1494 30.8622L61.1534 30.8642ZM64.7901 38.5429C64.78 38.3392 64.665 38.2545 64.4694 38.2626C64.0922 37.8793 63.7594 37.4638 63.5456 36.9656C63.5597 36.9233 63.6928 36.9293 63.596 36.8406C63.5698 36.8729 63.5436 36.9071 63.5173 36.9394C62.9667 36.0701 62.3656 35.2371 61.6738 34.4767C61.3289 34.0975 61.341 33.4319 60.9679 33.2342C60.1933 32.8247 59.8787 32.1248 59.4733 31.4592C59.4894 31.3664 59.4612 31.3221 59.3603 31.3564C58.4446 30.2309 57.2505 29.3595 56.4458 28.1372C56.476 28.0384 56.4397 28.0061 56.3409 28.0303C55.2456 27.4333 55.2235 25.8721 53.981 25.4002C53.9406 25.384 53.9144 25.259 53.9285 25.1924C54.0314 24.7164 53.6865 24.6277 53.3638 24.4885C53.1883 24.4139 52.9846 24.2989 52.8958 24.1436C52.4521 23.3711 51.6655 22.9193 51.1572 22.2012C50.6792 21.5275 50.4069 20.6703 49.5194 20.3133C49.2552 20.2064 49.0837 19.8454 48.8659 19.6114C48.4786 19.1919 48.293 18.5968 47.8533 18.2741C46.9074 17.5823 46.2397 16.6404 45.4713 15.7993C43.3575 13.4817 41.3263 11.0876 39.265 8.72364C38.3654 7.69295 37.4658 6.66025 36.5662 5.62755C36.5259 5.58519 36.4876 5.54485 36.4472 5.50249C35.9873 5.0406 35.5295 4.57871 35.0696 4.11883C35.0111 3.8062 34.8619 3.58635 34.5129 3.56819C34.5049 3.84856 34.1398 4.10875 34.4988 4.41937C34.7308 4.61905 34.5432 4.94177 34.6319 5.19591C34.8296 5.74857 34.8215 6.30324 34.638 6.85792C34.6521 7.02533 34.7731 7.09592 34.9042 7.16248C34.997 7.94306 35.1301 8.72162 35.1684 9.50422C35.2128 10.3816 35.588 11.253 35.2431 12.1404C35.2572 12.3078 35.3782 12.3784 35.5093 12.445C35.5134 13.1994 35.7856 13.9477 35.5436 14.7061C35.5537 14.8755 35.6787 14.9441 35.8078 15.0126C35.8361 16.0554 35.9712 17.0317 36.7578 17.8566C39.3799 20.6058 41.4655 23.7846 43.7851 26.7758C45.1607 28.5487 46.5161 30.3378 47.8352 32.1571C49.7574 34.8095 51.7845 37.3892 53.7813 39.9851C55.403 42.0949 57.0529 44.1824 58.6846 46.2842C60.3224 48.3939 61.9138 50.538 63.7937 52.4501C64.3524 53.0189 64.8405 53.6825 64.9373 54.5337C64.901 54.572 64.8667 54.6123 64.8304 54.6507L64.9434 54.6769C65.3851 56.0222 64.9898 57.2546 64.3383 58.4023C63.352 60.1409 61.9179 61.5387 60.6008 63.0152C58.6887 65.1572 56.6999 67.2327 54.7535 69.3445C54.6345 69.4736 54.3561 69.5563 54.4812 69.8044C54.5901 70.0222 54.8362 69.9577 55.0258 69.9435C56.3348 69.8487 57.6439 69.7197 58.9549 69.645C60.4475 69.5623 61.9421 69.526 63.4367 69.4695C63.5395 69.4938 63.5758 69.4312 63.596 69.3485C65.02 69.4171 66.4178 69.1307 67.8277 69.0137C68.6708 68.9431 69.5441 68.8846 70.361 68.5881C71.1053 68.3158 71.4724 67.7914 71.428 66.9927C71.4139 66.7244 71.3171 66.4622 71.2848 66.1939C70.9621 63.5618 70.2561 61.0002 69.8769 58.3801C69.7902 57.781 69.3323 57.0005 69.5663 56.6414C69.9879 55.992 69.5381 55.7156 69.3787 55.2921C69.3021 55.0863 69.1629 54.9129 69.1649 54.6668C69.175 53.2045 68.6183 51.839 68.4106 50.4069C68.1484 48.6037 67.6603 46.8348 67.269 45.0498C67.3658 45.0296 67.4807 44.9973 67.4444 44.8823C67.4243 44.8198 67.3032 44.7896 67.2266 44.7472C66.8736 43.773 66.4763 42.8129 66.1778 41.8205C65.8974 40.8907 65.2741 40.1162 65.0644 39.1642C65.143 38.8838 65.0301 38.6881 64.7941 38.547L64.7901 38.5429ZM41.0702 32.2176C41.0823 32.4798 41.0661 32.7501 41.2598 32.9679C41.0198 33.1696 41.163 33.2342 41.3707 33.2745C41.4796 33.8494 41.5502 34.4343 41.7055 34.997C42.1311 36.53 42.6414 38.0387 43.0085 39.5837C43.1114 40.0214 43.5329 40.3058 43.4583 40.7798C43.3272 41.6067 43.7024 42.2744 44.1259 42.9279C43.8859 43.1296 44.0291 43.1941 44.2369 43.2345C44.0997 43.7387 44.0553 44.2309 44.5475 44.5818C44.6645 44.6645 44.723 44.7069 44.6725 44.8581C44.5233 45.3039 44.8057 45.6186 45.0316 45.9473C44.7936 46.149 44.9368 46.2136 45.1425 46.2539C45.1062 47.2745 45.6286 48.158 45.8444 49.116C46.0804 50.1649 46.5705 51.127 46.8166 52.1819C47.0284 53.0915 47.1716 54.0577 47.7505 54.8524C47.5105 55.0541 47.6537 55.1186 47.8614 55.1589C47.8594 55.5079 47.6113 55.8931 47.8735 56.1997C48.4524 56.8815 48.2628 57.8214 48.7025 58.5294C48.8639 58.7916 48.5774 58.9791 48.7166 59.195C49.3298 60.145 49.5053 61.2543 49.8078 62.3092C50.3322 64.1366 50.8425 65.9721 51.2479 67.8277C51.373 68.4005 51.8994 69.0782 51.2157 69.6733C50.9676 69.5341 50.8345 69.3082 50.6913 69.0661C49.6283 67.273 49.1079 65.25 48.3959 63.3238C46.6936 58.725 45.197 54.0496 43.66 49.3924C42.6838 46.4334 41.7539 43.4584 40.8685 40.4712C40.6426 39.7067 40.2029 38.9625 40.3602 38.1052C40.5821 37.9701 40.2957 37.9056 40.3178 37.7987C39.9346 37.3953 39.7894 36.8729 39.6321 36.3646C39.4445 35.7534 39.3073 35.1282 39.1278 34.515C38.2202 31.4249 37.3044 28.3369 36.2657 25.2872C36.0297 24.5934 35.6767 23.9278 35.6566 23.1714C35.6505 23.0605 35.6626 22.8971 35.5174 22.9132C35.3782 22.9293 35.4972 23.0504 35.5073 23.125C35.1463 23.4154 35.0293 23.7563 35.0414 24.2485C35.0837 26.1102 34.6945 27.9073 34.0409 29.646C34.0409 29.7468 34.0409 29.8477 34.0409 29.9485C33.811 30.5354 33.9522 31.1809 33.7606 31.7678C33.4258 32.7884 33.0526 33.7969 32.7017 34.8135C31.911 37.1008 31.0961 39.382 30.3156 41.6713C29.6762 43.5511 28.9541 45.4027 28.3288 47.2886C27.6208 49.4226 26.8241 51.5284 25.981 53.6139C25.6623 54.4026 25.6038 55.3203 24.9524 55.9657C24.7628 56.109 24.7184 56.2945 24.793 56.5144C24.797 56.5628 24.793 56.6112 24.7829 56.6576C24.6296 56.7221 24.6438 56.8391 24.6881 56.9662C22.9656 61.6355 21.2451 66.3029 19.5105 71.0045C21.6747 70.95 23.8491 71.0408 26.0314 70.8956C29.1558 70.6898 32.2922 70.829 35.4226 70.7503C39.9749 70.6354 44.5253 70.3469 49.0837 70.3994C49.9046 70.4095 50.6993 70.24 51.5021 70.1109C52.5933 70.2864 53.505 70.0343 54.1121 69.0359C54.1504 68.9955 54.1867 68.9532 54.225 68.9128C54.2634 68.8523 54.2997 68.7898 54.338 68.7293C54.457 68.5841 54.578 68.4368 54.697 68.2916C55.4655 67.382 56.238 66.4783 57.0004 65.5646C58.4143 63.8704 59.8444 62.1862 61.226 60.4657C62.0248 59.4713 62.9486 58.5435 63.3197 57.2647C63.356 57.2102 63.3923 57.1558 63.4286 57.1033C63.6626 55.9153 63.8219 54.7293 62.8618 53.7551C62.0006 52.8838 61.1232 52.0286 60.3386 51.0826C59.2131 49.7252 58.0271 48.4121 56.95 47.0163C55.3465 44.9408 53.6341 42.9561 52.0547 40.8605C50.3282 38.5691 48.4645 36.3787 46.6835 34.1277C45.1122 32.141 43.5753 30.13 42.0222 28.1312C41.8064 27.9315 41.7479 27.5826 41.4131 27.4978C41.4796 27.2135 41.1367 27.161 41.0984 26.9351C41.0984 26.7556 41.0238 26.6426 40.8322 26.6305C40.0637 25.6281 39.2972 24.6277 38.5288 23.6252C38.5106 23.4255 38.4703 23.1734 38.2262 23.2339C37.9902 23.2924 38.083 23.484 38.2302 23.6111C38.2383 23.7341 38.2121 23.8733 38.2585 23.9782C38.7063 24.9827 39.0431 26.0254 39.3678 27.0743C39.7611 28.343 40.2251 29.5915 40.6587 30.8481C40.4187 31.0498 40.5599 31.1143 40.7696 31.1547C40.7212 31.433 40.7192 31.6993 40.9613 31.903C40.7192 32.1047 40.8624 32.1692 41.0722 32.2116L41.0702 32.2176Z" fill="#202020"/>
<path d="M3.82633 38.2505C4.3689 38.2 4.58674 37.72 4.88727 37.3892C6.4565 35.6627 8.00555 33.9159 9.53443 32.1511C11.9669 29.3434 14.466 26.5983 16.9308 23.8209C18.4314 22.1326 19.9865 20.4908 21.3803 18.7037C22.2092 17.6428 23.2056 16.7109 24.1254 15.7226C24.1657 15.7408 24.1536 15.8759 24.2444 15.7751C24.2081 15.7529 24.1738 15.7307 24.1375 15.7085C24.9382 14.8876 25.6805 14.0062 26.3945 13.1207C27.2114 12.1082 28.0525 11.1118 28.8452 10.0791C30.0191 8.55421 31.195 7.03138 32.3991 5.53073C32.6855 5.17574 32.7702 4.6493 33.339 4.4234C33.3491 4.90143 33.6133 5.2544 33.3068 5.79496C33.0587 6.23668 33.1736 6.91036 33.4076 7.45696C33.218 7.49327 33.0062 7.51747 33.2563 7.76758C33.2402 7.87247 33.2261 7.97735 33.2099 8.08425C33.1676 8.12661 33.1272 8.16896 33.0849 8.21334C32.8751 8.21939 32.8065 8.3868 32.7037 8.53001C32.3305 9.04434 32.1934 9.67566 31.8626 10.2021C29.66 13.7258 27.4171 17.2233 25.1379 20.6986C21.0071 27.0017 16.2994 32.8893 12.0335 39.0936C8.75184 43.8658 6.3032 48.9526 5.37337 54.6991C5.2705 55.3324 4.93366 56.0142 5.33101 56.6798C5.25033 56.7685 5.1878 56.8956 5.08695 56.94C4.42538 57.2264 4.48186 57.5471 5.01838 57.9101C5.08292 58.4144 4.86508 58.9005 4.88324 59.3906C4.95988 61.339 4.67549 63.2753 4.71381 65.2238C4.74205 66.6478 4.71986 68.0738 4.71784 69.4998C4.71784 69.7983 4.75818 70.1029 4.56859 70.3691C3.0276 70.3994 2.32972 69.8245 2.17038 68.1161C1.98481 66.1294 1.88195 64.1306 2.14416 62.1357C2.15626 62.0369 2.15424 61.934 2.15021 61.8352C2.04129 59.5076 2.25509 57.186 2.34384 54.8665C2.41645 52.9927 2.29946 51.1108 2.47696 49.2512C2.67261 47.1999 2.56167 45.1546 2.60605 43.1074C2.61815 42.5063 2.36804 41.9355 2.44267 41.3284C2.46688 41.1287 2.30955 41.0198 2.14416 40.9432C2.20265 40.1081 2.88843 39.6482 3.31401 39.0391C3.49353 38.7809 3.74969 38.5792 3.81625 38.2484L3.82633 38.2505Z" fill="#FDBFBF"/>
<path d="M68.2593 41.1267C68.0112 40.802 67.1661 40.8101 67.6643 40.0658C68.1444 40.2614 68.225 40.681 68.2593 41.1267Z" fill="#FCFCFC"/>
<path d="M62.0691 32.0785C61.9803 31.5984 61.3571 31.7174 61.2038 31.31C61.6959 31.3362 62.3374 31.197 62.0691 32.0785Z" fill="#FCFCFC"/>
<path d="M61.1534 30.8643C60.9901 30.4871 60.4112 30.6989 60.2962 30.2551C61.1373 30.2753 61.1978 30.3197 61.1534 30.8643Z" fill="#FCFCFC"/>
<path d="M58.9085 28.1332C58.6503 28.0787 58.2994 28.2542 58.1884 27.8387C58.4446 27.8972 58.8197 27.6672 58.9085 28.1332Z" fill="#FCFCFC"/>
<path d="M70.0988 48.2144C70.1432 48.1035 69.8063 48.047 70.0564 47.9078C70.1654 47.93 70.3146 47.9199 70.3025 48.0773C70.2985 48.1277 70.1694 48.17 70.0988 48.2144Z" fill="#FDFDFD"/>
<path d="M60.1106 29.5007C59.9977 29.4724 59.8404 29.5269 59.8121 29.3413C60.0582 29.1195 60.0844 29.3091 60.1106 29.5007Z" fill="#FCFCFC"/>
<path d="M60.2478 29.8073C60.0763 29.7609 60.1308 29.6137 60.1106 29.5007C60.3123 29.533 60.4958 29.5733 60.2478 29.8073Z" fill="#FCFCFC"/>
<path d="M59.1929 28.5991C59.0275 28.5527 59.0739 28.4075 59.0517 28.2946C59.2514 28.3268 59.439 28.3631 59.1929 28.5991Z" fill="#FCFCFC"/>
<path d="M50.2959 18.5C50.0761 18.5101 49.9692 18.4093 49.9873 18.1854C50.1971 18.1854 50.3 18.2902 50.2959 18.5Z" fill="#FDFDFD"/>
<path d="M56.4921 25.4223C56.3771 25.3961 56.2198 25.4506 56.1936 25.261C56.4377 25.0452 56.4639 25.2348 56.4921 25.4223Z" fill="#FCFCFC"/>
<path d="M22.6671 15.6097C22.6731 15.7025 22.6449 15.7569 22.538 15.7246C22.5803 15.6863 22.6247 15.648 22.6671 15.6097Z" fill="#FCFCFC"/>
<path d="M59.5055 29.3072C59.3986 29.3455 59.3684 29.3011 59.3906 29.2003C59.4289 29.2366 59.4672 29.2709 59.5055 29.3072Z" fill="#FCFCFC"/>
<path d="M20.2588 18.4778C20.2588 18.5685 20.2285 18.625 20.1237 18.5948C20.168 18.5564 20.2144 18.5161 20.2588 18.4778Z" fill="#FCFCFC"/>
<path d="M56.9419 26.0032C56.8371 26.0254 56.7947 25.9851 56.8169 25.8782C56.8592 25.9205 56.8996 25.9609 56.9419 26.0032Z" fill="#FCFCFC"/>
<path d="M53.0169 21.6264C52.912 21.6486 52.8696 21.6082 52.8938 21.5013C52.9342 21.5437 52.9765 21.584 53.0169 21.6264Z" fill="#FCFCFC"/>
<path d="M65.1612 35.7231C65.1693 35.7595 65.1773 35.7958 65.1854 35.8321C65.1753 35.7958 65.1632 35.7574 65.1531 35.7211L65.1632 35.7231H65.1612Z" fill="#232322"/>
<path d="M51.5021 70.115C50.6993 70.2441 49.9046 70.4135 49.0837 70.4034C44.5273 70.353 39.977 70.6394 35.4226 70.7544C32.2902 70.833 29.1558 70.6939 26.0314 70.8996C23.8511 71.0428 21.6747 70.9541 19.5105 71.0085C21.2451 66.3069 22.9656 61.6375 24.6881 56.9702C24.8999 56.9238 25.0189 56.8472 24.7829 56.6616C24.793 56.6132 24.797 56.5668 24.793 56.5184C25.2912 56.4639 24.9261 56.1614 24.9524 55.9698C25.6038 55.3243 25.6623 54.4066 25.981 53.618C26.8241 51.5344 27.6208 49.4266 28.3288 47.2927C28.9541 45.4068 29.6762 43.5552 30.3156 41.6753C31.0941 39.388 31.911 37.1048 32.7017 34.8175C33.0526 33.801 33.4258 32.7925 33.7606 31.7719C33.9522 31.1849 33.811 30.5395 34.0409 29.9525C34.1357 29.9364 34.2467 29.9223 34.2467 29.8013C34.2467 29.6802 34.1357 29.6661 34.0409 29.65C34.6945 27.9093 35.0857 26.1142 35.0414 24.2525C35.0293 23.7603 35.1463 23.4195 35.5073 23.129C35.5577 23.1452 35.6061 23.1593 35.6566 23.1754C35.6787 23.9338 36.0297 24.5974 36.2657 25.2912C37.3044 28.3409 38.2181 31.429 39.1278 34.519C39.3073 35.1322 39.4445 35.7574 39.6321 36.3686C39.7894 36.8769 39.9326 37.3993 40.3178 37.8027C40.2452 37.8491 40.1161 37.8894 40.1121 37.9398C40.102 38.0972 40.2513 38.0871 40.3602 38.1093C40.2029 38.9665 40.6406 39.7087 40.8685 40.4752C41.7539 43.4624 42.6838 46.4375 43.66 49.3964C45.197 54.0536 46.6956 58.729 48.3959 63.3278C49.1079 65.254 49.6283 67.275 50.6913 69.0702C50.8345 69.3102 50.9676 69.5361 51.2157 69.6773C51.3286 69.8124 51.5424 69.881 51.5021 70.117V70.115Z" fill="#D85A5A"/>
<path d="M59.4732 31.4592C59.8787 32.1248 60.1933 32.8247 60.9678 33.2341C61.341 33.4318 61.3289 34.0974 61.6738 34.4766C62.3656 35.237 62.9687 36.07 63.5173 36.9394L63.5415 36.9636C63.7573 37.4618 64.0902 37.8773 64.4673 38.2605C64.4915 38.3876 64.4855 38.5288 64.6368 38.5913C64.6973 38.8414 64.7376 39.1056 65.0583 39.1601C65.2681 40.1121 65.8913 40.8866 66.1717 41.8165C66.4702 42.8068 66.8655 43.7689 67.2205 44.7431L67.2629 45.0457C67.6542 46.8307 68.1423 48.5996 68.4045 50.4028C68.6123 51.8349 69.169 53.2004 69.1589 54.6627C69.1589 54.9088 69.296 55.0823 69.3727 55.288C69.532 55.7136 69.9818 55.9879 69.5602 56.6374C69.3263 56.9964 69.7841 57.777 69.8709 58.376C70.2501 60.9981 70.958 63.5597 71.2787 66.1899C71.311 66.4581 71.4078 66.7203 71.4219 66.9886C71.4643 67.7873 71.0992 68.3138 70.3549 68.584C69.5381 68.8825 68.6647 68.941 67.8216 69.0096C66.4137 69.1266 65.0139 69.413 63.5899 69.3444C63.5375 69.3848 63.483 69.4251 63.4306 69.4655C61.936 69.5219 60.4414 69.5582 58.9488 69.6409C57.6378 69.7135 56.3308 69.8447 55.0197 69.9395C54.8301 69.9536 54.584 70.0201 54.4751 69.8003C54.3501 69.5522 54.6304 69.4675 54.7474 69.3404C56.6958 67.2286 58.6826 65.1551 60.5947 63.0111C61.9118 61.5346 63.3459 60.1368 64.3322 58.3982C64.9837 57.2505 65.381 56.0181 64.9373 54.6728C64.9373 54.6244 64.9353 54.578 64.9292 54.5296C64.8344 53.6784 64.3443 53.0148 63.7856 52.446C61.9057 50.5339 60.3123 48.3899 58.6765 46.2801C57.0448 44.1784 55.3949 42.0908 53.7732 39.981C51.7744 37.3831 49.7493 34.8054 47.8271 32.153C46.51 30.3337 45.1526 28.5446 43.777 26.7717C41.4574 23.7805 39.3719 20.6017 36.7498 17.8525C35.9631 17.0276 35.828 16.0534 35.7998 15.0085C36.0357 14.6273 35.6989 14.7403 35.5355 14.702C35.7755 13.9436 35.5053 13.1953 35.5012 12.4409C35.7312 12.0617 35.3984 12.1726 35.235 12.1363C35.5799 11.2489 35.2047 10.3775 35.1604 9.50013C35.12 8.71753 34.9869 7.93897 34.8961 7.1584C35.1261 6.7792 34.7933 6.89013 34.6299 6.85383C34.8134 6.29915 34.8215 5.74448 34.6238 5.19182C35.1785 5.00021 35.0151 4.51411 35.0635 4.11475C35.5234 4.57664 35.9813 5.03853 36.4412 5.49841C36.421 5.59522 36.4654 5.63355 36.5602 5.62346C37.4597 6.65616 38.3573 7.68887 39.2589 8.71955C41.3223 11.0835 43.3514 13.4776 45.4652 15.7952C46.2337 16.6363 46.9013 17.5802 47.8473 18.27C48.287 18.5928 48.4725 19.1878 48.8598 19.6073C49.0756 19.8413 49.2471 20.2023 49.5133 20.3092C50.4008 20.6662 50.6731 21.5235 51.1511 22.1971C51.6594 22.9152 52.446 23.367 52.8898 24.1395C52.9785 24.2948 53.1822 24.4098 53.3577 24.4844C53.6804 24.6236 54.0253 24.7123 53.9225 25.1883C53.9083 25.2529 53.9366 25.3799 53.9749 25.3961C55.2154 25.8681 55.2396 27.4292 56.3348 28.0262C56.3691 28.0626 56.4034 28.0968 56.4397 28.1332C57.2465 29.3555 58.4405 30.2268 59.3542 31.3523L59.4672 31.4551L59.4732 31.4592Z" fill="#F9A7A7"/>
<path d="M5.33705 56.6818C4.93971 56.0161 5.27856 55.3344 5.37941 54.7011C6.30723 48.9546 8.75788 43.8678 12.0395 39.0956C16.3075 32.8913 21.0152 27.0037 25.144 20.7005C27.4212 17.2232 29.6641 13.7278 31.8686 10.2041C32.1994 9.67564 32.3366 9.04432 32.7097 8.532C32.8146 8.3888 32.8812 8.22139 33.0909 8.21533L33.1454 8.22139L33.1999 8.21332C33.2079 9.24199 33.22 10.2686 33.22 11.2973C33.22 11.5716 33.0809 11.856 33.4661 12.0315C33.6275 12.1061 33.5589 12.334 33.4459 12.4934C33.1837 12.8685 33.1817 13.3143 33.2624 13.7177C33.5306 15.0449 33.4298 16.4225 33.8231 17.7295C33.6396 17.8465 33.3915 17.907 33.3955 18.1954C33.1898 18.2297 33.1051 18.3649 33.0909 18.5605L33.0849 18.5726C32.4616 20.1943 31.8727 21.8301 31.205 23.4316C30.7956 24.4118 30.3559 25.3881 29.9626 26.3703C29.4059 27.7621 28.4216 28.9541 28.109 30.4507C28.0908 30.5415 28.0162 30.6222 27.9698 30.7069C27.9698 30.7432 27.9678 30.7775 27.9698 30.8138C27.0359 31.8747 26.4308 33.1515 25.7188 34.3516C24.1072 37.0745 22.2294 39.6018 20.2971 42.0989C19.1837 43.537 18.0078 44.9166 16.8017 46.2741C16.6927 46.2519 16.6726 46.3104 16.6887 46.4011C16.0211 47.103 15.3535 47.805 14.6858 48.5049C14.4841 48.5916 14.3793 48.7429 14.3732 48.9647C12.7939 50.3585 11.3437 51.8954 9.76235 53.2771C8.36658 54.4953 6.93048 55.6975 5.34109 56.6838L5.33705 56.6818Z" fill="#F9A7A7"/>
<path d="M42.0202 28.1332C43.5733 30.1341 45.1102 32.145 46.6814 34.1298C48.4625 36.3828 50.3262 38.5712 52.0527 40.8625C53.632 42.9582 55.3465 44.9429 56.948 47.0184C58.025 48.4141 59.209 49.7252 60.3365 51.0847C61.1211 52.0306 61.9985 52.8858 62.8598 53.7572C63.8219 54.7294 63.6605 55.9174 63.4265 57.1054C63.3479 57.1316 63.2813 57.1659 63.3176 57.2668C62.9465 58.5475 62.0247 59.4733 61.224 60.4677C59.8424 62.1882 58.4123 63.8724 56.9984 65.5667C56.236 66.4804 55.4635 67.386 54.695 68.2937C54.4892 68.2412 54.2815 68.1888 54.0758 68.1363C53.9749 67.8842 53.8741 67.6321 53.7732 67.382C54.0193 67.1319 53.9426 66.9907 53.6219 66.9302C53.3698 66.2263 53.1177 65.5223 52.8656 64.8184C53.0128 64.4674 52.9503 64.2012 52.565 64.064C52.1072 62.9264 51.6755 61.7788 51.3568 60.5928C51.5868 60.3528 51.3992 60.3205 51.2076 60.2902C50.8244 59.076 50.2475 57.9263 49.9994 56.6677C50.2293 56.4277 50.0418 56.3954 49.8501 56.3652C48.9506 53.6442 48.0469 50.9253 47.1595 48.2024C46.9679 47.6134 46.8388 47.0043 46.6814 46.4052C46.9114 46.1652 46.7238 46.1329 46.5322 46.1027C45.2736 41.986 44.0714 37.8511 42.9863 33.686C42.5345 31.9474 41.9697 30.2309 41.7015 28.4459C41.8084 28.343 41.9153 28.2381 42.0222 28.1353L42.0202 28.1332Z" fill="#DE8383"/>
<path d="M33.3955 18.1955C33.3914 17.9071 33.6395 17.8465 33.8231 17.7296C33.9965 19.4521 33.7585 21.1504 33.5952 22.8608C33.5125 23.7281 33.3309 24.5692 33.226 25.4244C33.0143 25.4647 32.8731 25.5313 33.1171 25.733C33.0647 26.7375 32.8186 27.6915 32.3749 28.5931C32.3244 28.694 32.274 28.7948 32.2236 28.8957C32.3789 29.1881 32.0582 29.3858 32.0743 29.65C32.1066 29.7569 31.8101 29.8235 32.036 29.9546C32.0259 30.598 31.796 31.193 31.5842 31.784C30.9731 33.4843 30.5112 35.2371 29.7911 36.8991C29.422 36.9455 29.4744 37.1936 29.5269 37.4437C29.5712 37.9984 29.1356 38.5187 29.4341 39.1198C29.4744 39.2005 28.9803 39.5434 28.7342 39.7673C28.3651 39.8137 28.4175 40.0638 28.472 40.3139C28.5224 40.568 28.476 40.7919 28.2804 40.9754C27.9435 41.038 27.8709 41.1832 28.1392 41.4333C28.0403 41.9981 27.6047 42.5164 27.9032 43.1397C27.9173 43.1679 27.879 43.2345 27.8467 43.2668C26.8705 44.3378 26.7555 45.8263 26.0213 47.0143C25.6482 47.0567 25.7006 47.3068 25.7551 47.5589C25.862 47.7949 25.6744 47.9946 25.6744 48.2165C25.2569 48.2044 25.2085 48.4363 25.3073 48.7691C25.4021 49.0051 25.2125 49.2008 25.2165 49.4247C24.799 49.4146 24.7567 49.6506 24.8555 49.9773C24.9422 50.2133 24.7668 50.413 24.7688 50.6389C24.7325 50.6954 24.6941 50.7518 24.6578 50.8063C24.2645 51.724 23.9821 52.676 23.7482 53.6442C23.7462 53.6845 23.7441 53.7249 23.7441 53.7652C22.7538 55.157 22.4311 56.829 21.8199 58.3781C20.5815 61.5206 19.4157 64.6933 18.2297 67.856C18.0643 68.2997 18.1349 69.0278 17.675 69.1005C17.3059 69.1589 17.0699 68.451 16.846 68.0678C15.779 66.2464 14.4539 64.6167 13.1468 62.9728C12.7757 62.5069 12.3622 62.0712 11.9689 61.6234C11.9306 61.5831 11.8943 61.5448 11.856 61.5044C10.7164 60.3144 9.58684 59.1143 8.34033 58.0332C8.49161 57.6903 8.69734 57.3595 8.62271 56.9581C9.68567 56.0021 10.7506 55.046 11.8136 54.09C12.094 54.3965 12.33 54.2352 12.578 54.0315C12.8745 53.7874 12.9391 53.5171 12.7233 53.1924C13.4333 52.3957 14.1856 51.6454 14.9803 50.9354C15.7084 51.0503 16.0069 50.7377 15.89 50.0156C16.1945 49.6687 16.4991 49.3238 16.8037 48.9769C17.4209 49.0757 17.6568 48.8054 17.5499 48.2044C17.7133 48.0087 17.8787 47.8131 18.0421 47.6174C18.5201 47.686 18.6694 47.444 18.6109 47.0103C18.7077 46.9095 18.8045 46.8086 18.8993 46.7078C19.3894 46.7662 19.3794 46.4375 19.3652 46.1047C19.7202 45.5924 20.0752 45.08 20.4322 44.5677L20.4242 44.5153C20.4927 44.4971 20.5593 44.481 20.6279 44.4628C20.8982 44.4205 21.2491 44.4427 21.0111 43.9888C21.0151 43.6419 21.3984 43.535 21.4851 43.2405C21.6828 43.2365 21.7796 43.1316 21.7816 42.936C21.8441 42.8371 21.9046 42.7383 21.9672 42.6375C22.4432 42.706 22.5945 42.468 22.538 42.0324C22.6227 41.873 22.6368 41.6673 22.8304 41.5765C23.3226 41.631 23.3065 41.2982 23.2903 40.9694C23.6393 40.0234 24.4481 39.3477 24.8091 38.4098C24.8575 38.4098 24.9059 38.4098 24.9543 38.4018C25.4404 38.4018 25.5433 38.2041 25.2549 37.8088C25.5191 37.1996 25.9406 36.6913 26.3057 36.1468C26.808 36.1468 26.9007 35.939 26.6063 35.5417C26.6426 35.221 26.8039 34.9749 27.0621 34.7873C27.1226 34.876 27.2154 34.9386 27.2941 34.8458C27.4131 34.7046 27.3404 34.5775 27.2033 34.4827C27.405 33.7465 27.9173 33.1798 28.2703 32.5242C28.8391 32.2661 28.9056 32.1148 28.5991 31.7699L29.4704 29.9546C30.1037 29.9465 29.9746 29.5895 29.8092 29.2143C30.0674 28.5548 30.3276 27.8932 30.5858 27.2336C30.6201 27.1852 30.6544 27.1368 30.6866 27.0904C30.7512 26.8867 30.8157 26.683 30.8823 26.4813C30.9166 26.4309 30.9529 26.3805 30.9872 26.328C31.0537 26.1808 31.1223 26.0315 31.1889 25.8843C31.802 25.8036 31.6346 25.4708 31.4329 25.1259C31.6689 24.4139 31.8928 23.6958 32.1449 22.9899C32.2014 22.8285 32.1671 22.6409 32.4132 22.5179C33.0082 22.2174 32.5746 21.6445 32.6794 21.2048C32.8347 21.1887 33.0304 21.2371 33.0728 21.0132C33.107 20.8317 32.9739 20.7752 32.8247 20.751C32.9699 20.1923 33.105 19.6296 33.2644 19.0729C33.3289 18.847 33.3955 18.6533 33.0869 18.5747L33.0929 18.5626C33.5467 18.736 33.335 18.3528 33.3975 18.1975L33.3955 18.1955Z" fill="#DE8383"/>
<path d="M4.57861 70.3712C4.76821 70.1049 4.72787 69.8004 4.72787 69.5018C4.72787 68.0758 4.75006 66.6518 4.72384 65.2258C4.68551 63.2774 4.96991 61.3431 4.89326 59.3926C4.87309 58.9025 5.09295 58.4164 5.0284 57.9122C5.9421 58.4749 6.62385 59.3059 7.42863 59.9937C7.45485 60.0744 7.49317 60.1369 7.59604 60.1188C10.5429 62.9204 13.0157 66.0992 15.1477 69.5523C15.3554 69.8871 15.5672 70.2199 15.775 70.5527C15.7689 70.6636 15.7629 70.7725 15.7568 70.8835C13.9274 70.8734 12.096 70.8593 10.2665 70.8573C8.35645 70.8532 6.46249 70.6959 4.58063 70.3732L4.57861 70.3712Z" fill="#F9A7A7"/>
<path d="M49.9994 56.6676C50.2475 57.9263 50.8244 59.0759 51.2076 60.2902C51.2076 60.4152 51.2358 60.5282 51.3569 60.5927C51.6776 61.7787 52.1092 62.9264 52.565 64.064C52.6276 64.3302 52.6619 64.6086 52.8656 64.8183C53.1177 65.5223 53.3698 66.2262 53.622 66.9301C53.6724 67.0814 53.7228 67.2327 53.7732 67.3819C53.8741 67.6341 53.9749 67.8862 54.0758 68.1363C54.0899 68.3662 54.1887 68.5599 54.336 68.7313C54.2977 68.7918 54.2613 68.8543 54.223 68.9149C54.1302 68.9068 54.0838 68.9391 54.1101 69.0379C53.5029 70.0363 52.5913 70.2904 51.5001 70.1129C51.5404 69.879 51.3266 69.8084 51.2137 69.6732C51.8954 69.0782 51.371 68.4005 51.2459 67.8277C50.8405 65.972 50.3302 64.1366 49.8058 62.3092C49.5012 61.2523 49.3278 60.1449 48.7146 59.1949C48.5734 58.9771 48.8618 58.7895 48.7005 58.5293C48.2628 57.8214 48.4504 56.8814 47.8715 56.1997C47.6113 55.8931 47.8574 55.5079 47.8594 55.1589C47.8836 55.0339 47.9058 54.9108 47.7485 54.8523C47.1716 54.0577 47.0264 53.0915 46.8146 52.1818C46.5705 51.1269 46.0784 50.1648 45.8424 49.116C45.6266 48.1579 45.1042 47.2745 45.1405 46.2539C45.1627 46.1308 45.1849 46.0058 45.0295 45.9473C44.8036 45.6185 44.5213 45.3039 44.6705 44.8581C44.7209 44.7069 44.6625 44.6645 44.5455 44.5818C44.0553 44.2308 44.0977 43.7407 44.2348 43.2344C44.2591 43.1094 44.2812 42.9863 44.1239 42.9279C43.7024 42.2743 43.3272 41.6047 43.4563 40.7798C43.5309 40.3058 43.1094 40.0214 43.0065 39.5837C42.6394 38.0387 42.1291 36.5279 41.7035 34.997C41.5482 34.4343 41.4776 33.8494 41.3687 33.2745C41.3929 33.1495 41.4151 33.0264 41.2578 32.9679C41.0621 32.7521 41.0803 32.4818 41.0682 32.2176C41.0924 32.0926 41.1146 31.9695 40.9572 31.909C40.7152 31.7053 40.7172 31.439 40.7656 31.1607C40.7898 31.0356 40.812 30.9126 40.6547 30.8541C40.221 29.5975 39.7571 28.349 39.3638 27.0803C39.0391 26.0295 38.7042 24.9887 38.2545 23.9842C38.2081 23.8793 38.2343 23.7402 38.2262 23.6171C38.325 23.6212 38.4239 23.6252 38.5227 23.6292C39.2912 24.6317 40.0576 25.6321 40.8261 26.6346C40.7656 26.8665 40.8987 26.929 41.0924 26.9391C41.1307 27.165 41.4756 27.2175 41.407 27.5019C41.4837 27.8226 41.4796 28.1675 41.6954 28.4458C41.9637 30.2309 42.5285 31.9473 42.9803 33.686C44.0654 37.8511 45.2655 41.9859 46.5262 46.1026C46.5262 46.2277 46.5544 46.3386 46.6754 46.4052C46.8327 47.0042 46.9618 47.6133 47.1534 48.2023C48.0409 50.9273 48.9466 53.6442 49.8441 56.3651C49.8441 56.4902 49.8724 56.6031 49.9934 56.6676H49.9994Z" fill="#D86D6D"/>
<path d="M35.0716 4.12083C35.0232 4.5202 35.1866 5.00629 34.6319 5.19791C34.5432 4.94377 34.7307 4.62105 34.4988 4.42136C34.1398 4.11075 34.5048 3.85257 34.5129 3.57019C34.8619 3.58834 35.0111 3.8082 35.0696 4.12083H35.0716Z" fill="#DE8383"/>
<path d="M12.7213 53.1863C12.9391 53.5111 12.8726 53.7814 12.5761 54.0254C12.328 54.2291 12.092 54.3925 11.8116 54.0839C12.0718 53.741 12.3683 53.4344 12.7193 53.1843L12.7213 53.1863Z" fill="#DE8383"/>
<path d="M8.62075 56.954C8.69538 57.3574 8.48964 57.6862 8.33837 58.0291C7.73529 57.5067 7.76353 57.3958 8.62075 56.954Z" fill="#DE8383"/>
<path d="M15.888 50.0075C16.005 50.7296 15.7065 51.0422 14.9783 50.9273C15.2345 50.5743 15.5411 50.2717 15.888 50.0075Z" fill="#DE8383"/>
<path d="M17.548 48.1983C17.6549 48.7994 17.4209 49.0696 16.8017 48.9708C17.0498 48.7126 17.2979 48.4565 17.548 48.1983Z" fill="#DE8383"/>
<path d="M41.6995 28.4438C41.4837 28.1654 41.4877 27.8205 41.4111 27.4998C41.7459 27.5845 41.8064 27.9335 42.0202 28.1332C41.9133 28.236 41.8064 28.3409 41.6995 28.4438Z" fill="#DE8383"/>
<path d="M31.4309 25.1198C31.6326 25.4647 31.8 25.7975 31.1869 25.8781C31.1425 25.5857 31.2696 25.3457 31.4309 25.1198Z" fill="#DE8383"/>
<path d="M29.8052 29.2103C29.9706 29.5834 30.0997 29.9424 29.4664 29.9505C29.539 29.6843 29.5612 29.3978 29.8052 29.2103Z" fill="#DE8383"/>
<path d="M28.5971 31.7638C28.9037 32.1087 28.8391 32.258 28.2683 32.5181C28.2663 32.2176 28.47 32.0079 28.5971 31.7638Z" fill="#DE8383"/>
<path d="M25.2529 37.8007C25.5393 38.196 25.4385 38.3916 24.9524 38.3937C24.9524 38.3533 24.9524 38.313 24.9564 38.2747C25.0613 38.1214 25.0613 37.9015 25.2529 37.8007Z" fill="#DE8383"/>
<path d="M26.6042 35.5356C26.8987 35.9329 26.808 36.1387 26.3037 36.1407C26.3824 35.9289 26.3945 35.6828 26.6042 35.5356Z" fill="#DE8383"/>
<path d="M18.6088 47.0042C18.6673 47.4378 18.5181 47.6798 18.04 47.6113C18.2337 47.4116 18.3265 47.1191 18.6088 47.0042Z" fill="#DE8383"/>
<path d="M54.3359 68.7313C54.1887 68.5599 54.0899 68.3662 54.0757 68.1363C54.2815 68.1887 54.4892 68.2412 54.695 68.2936C54.576 68.4388 54.4549 68.5861 54.3359 68.7313Z" fill="#DE8383"/>
<path d="M22.5339 42.0262C22.5904 42.4599 22.4391 42.6979 21.9631 42.6313C22.1527 42.4296 22.3423 42.2279 22.5339 42.0262Z" fill="#DE8383"/>
<path d="M65.0603 39.1601C64.7396 39.1057 64.6973 38.8414 64.6388 38.5913C64.6892 38.5752 64.7396 38.559 64.7901 38.5429C65.0261 38.6841 65.139 38.8797 65.0603 39.1601Z" fill="#DE8383"/>
<path d="M38.5267 23.6272C38.4279 23.6232 38.3291 23.6192 38.2302 23.6151C38.083 23.4861 37.9902 23.2965 38.2262 23.238C38.4703 23.1775 38.5106 23.4296 38.5287 23.6293L38.5267 23.6272Z" fill="#232322"/>
<path d="M19.3633 46.0986C19.3774 46.4314 19.3895 46.7601 18.8973 46.7017C19.0345 46.4858 19.0708 46.1954 19.3633 46.0986Z" fill="#DE8383"/>
<path d="M21.0091 43.9827C21.2472 44.4366 20.8962 44.4144 20.6259 44.4567C20.6622 44.2248 20.8296 44.0997 21.0091 43.9827Z" fill="#DE8383"/>
<path d="M23.2863 40.9633C23.3024 41.294 23.3186 41.6248 22.8264 41.5704C22.9616 41.3546 23.014 41.0742 23.2863 40.9633Z" fill="#DE8383"/>
<path d="M24.9523 55.9698C24.9261 56.1594 25.2912 56.464 24.793 56.5184C24.7184 56.2986 24.7627 56.113 24.9523 55.9698Z" fill="#DE8383"/>
<path d="M32.8227 20.7469C32.9719 20.7712 33.105 20.8256 33.0707 21.0092C33.0284 21.233 32.8327 21.1846 32.6774 21.2008C32.7258 21.0495 32.7742 20.8982 32.8206 20.7469H32.8227Z" fill="#DE8383"/>
<path d="M15.7549 70.8814C15.7609 70.7705 15.767 70.6616 15.773 70.5507C15.9364 70.5728 16.0675 70.6455 16.0211 70.831C15.9808 70.9884 15.8699 70.9984 15.7569 70.8814H15.7549Z" fill="#232322"/>
<path d="M25.3053 48.7671C25.2065 48.4363 25.2549 48.2023 25.6724 48.2144C25.5494 48.398 25.4283 48.5815 25.3053 48.7671Z" fill="#DE8383"/>
<path d="M24.8535 49.9733C24.7567 49.6465 24.797 49.4105 25.2145 49.4206C25.0935 49.6041 24.9745 49.7877 24.8535 49.9733Z" fill="#DE8383"/>
<path d="M28.1372 41.4312C27.8689 41.1811 27.9395 41.0359 28.2783 40.9734C28.236 41.1267 28.353 41.3304 28.1372 41.4312Z" fill="#DE8383"/>
<path d="M27.2013 34.4746C27.3385 34.5694 27.4131 34.6945 27.2921 34.8377C27.2134 34.9305 27.1206 34.8679 27.0601 34.7792C27.0702 34.6602 27.0399 34.523 27.2013 34.4746Z" fill="#DE8383"/>
<path d="M25.7531 47.5569C25.6986 47.3047 25.6482 47.0546 26.0193 47.0123C26.0314 47.2442 25.8822 47.3955 25.7531 47.5569Z" fill="#DE8383"/>
<path d="M29.5249 37.4437C29.4704 37.1936 29.418 36.9435 29.7891 36.8991C29.8073 37.1311 29.656 37.2844 29.5249 37.4437Z" fill="#DE8383"/>
<path d="M14.3692 48.9627C14.3753 48.7429 14.4801 48.5896 14.6818 48.5029C14.6879 48.7328 14.6919 48.9587 14.3692 48.9627Z" fill="#222121"/>
<path d="M21.7776 42.9279C21.7756 43.1235 21.6788 43.2284 21.4811 43.2324C21.348 42.9057 21.6405 42.9924 21.7776 42.9279Z" fill="#DE8383"/>
<path d="M35.243 12.1425C35.4064 12.1788 35.7392 12.0678 35.5093 12.447C35.3802 12.3805 35.2572 12.3099 35.243 12.1425Z" fill="#DE8383"/>
<path d="M32.034 29.9546C31.8081 29.8235 32.1046 29.7569 32.0723 29.65C32.1429 29.6944 32.27 29.7347 32.276 29.7872C32.2902 29.9425 32.1429 29.9344 32.034 29.9546Z" fill="#232322"/>
<path d="M28.468 40.3118C28.4135 40.0617 28.3611 39.8116 28.7302 39.7652C28.7463 39.9972 28.5971 40.1504 28.468 40.3118Z" fill="#DE8383"/>
<path d="M32.2216 28.8977C32.272 28.7969 32.3224 28.696 32.3728 28.5952C32.4696 28.6113 32.5967 28.6355 32.5786 28.7464C32.5443 28.9522 32.3527 28.8735 32.2216 28.8977Z" fill="#232322"/>
<path d="M40.3602 38.1093C40.2513 38.0871 40.102 38.0972 40.1121 37.9398C40.1162 37.8894 40.2452 37.847 40.3179 37.8027C40.2957 37.9096 40.5821 37.9741 40.3602 38.1093Z" fill="#DE8383"/>
<path d="M34.64 6.85999C34.8034 6.89629 35.1362 6.78536 34.9063 7.16455C34.7772 7.09799 34.6541 7.0274 34.64 6.85999Z" fill="#DE8383"/>
<path d="M35.5436 14.7081C35.707 14.7464 36.0438 14.6334 35.8078 15.0147C35.6787 14.9481 35.5537 14.8775 35.5436 14.7081Z" fill="#DE8383"/>
<path d="M33.2624 7.77162C33.0123 7.52151 33.224 7.49529 33.4136 7.461C33.6073 7.68287 33.3451 7.68488 33.2624 7.77162Z" fill="#DE8383"/>
<path d="M40.9592 31.9091C41.1165 31.9696 41.0944 32.0926 41.0702 32.2177C40.8624 32.1773 40.7192 32.1128 40.9592 31.9091Z" fill="#232322"/>
<path d="M47.7485 54.8503C47.9058 54.9088 47.8836 55.0339 47.8594 55.1569C47.6517 55.1166 47.5084 55.052 47.7485 54.8503Z" fill="#222121"/>
<path d="M64.7901 38.5408C64.7396 38.557 64.6892 38.5731 64.6388 38.5892C64.4875 38.5287 64.4936 38.3855 64.4694 38.2585C64.665 38.2504 64.78 38.3351 64.7901 38.5388V38.5408Z" fill="#232322"/>
<path d="M41.2598 32.9659C41.4171 33.0244 41.395 33.1495 41.3708 33.2725C41.163 33.2322 41.0198 33.1676 41.2598 32.9659Z" fill="#232322"/>
<path d="M34.0389 29.65C34.1337 29.6662 34.2447 29.6803 34.2447 29.8013C34.2447 29.9223 34.1337 29.9364 34.0389 29.9526C34.0389 29.8517 34.0389 29.7509 34.0389 29.65Z" fill="#DE8383"/>
<path d="M44.1279 42.9279C44.2852 42.9863 44.2631 43.1114 44.2389 43.2344C44.0311 43.1941 43.8879 43.1296 44.1279 42.9279Z" fill="#222121"/>
<path d="M41.0964 26.9371C40.9048 26.925 40.7696 26.8645 40.8301 26.6325C41.0197 26.6466 41.0964 26.7576 41.0964 26.9371Z" fill="#232322"/>
<path d="M40.6587 30.8521C40.816 30.9106 40.7938 31.0357 40.7696 31.1587C40.5619 31.1184 40.4187 31.0538 40.6587 30.8521Z" fill="#222121"/>
<path d="M24.7849 56.6616C25.0209 56.8472 24.9019 56.9218 24.6901 56.9702C24.6458 56.8432 24.6316 56.7282 24.7849 56.6616Z" fill="#DE8383"/>
<path d="M67.265 45.0457C67.2508 44.9449 67.2367 44.844 67.2226 44.7432C67.2992 44.7875 67.4203 44.8178 67.4404 44.8783C67.4767 44.9933 67.3618 45.0255 67.265 45.0457Z" fill="#232322"/>
<path d="M45.0315 45.9473C45.1889 46.0058 45.1667 46.1289 45.1425 46.2539C44.9367 46.2136 44.7935 46.151 45.0315 45.9473Z" fill="#222121"/>
<path d="M33.1151 25.733C32.8711 25.5313 33.0123 25.4647 33.2241 25.4244C33.2503 25.5494 33.2745 25.6725 33.1151 25.733Z" fill="#DE8383"/>
<path d="M35.6566 23.1754C35.6061 23.1593 35.5577 23.1452 35.5073 23.129C35.4972 23.0544 35.3782 22.9334 35.5174 22.9172C35.6626 22.9011 35.6505 23.0645 35.6566 23.1754Z" fill="#232322"/>
<path d="M24.9564 38.2747C24.9544 38.315 24.9523 38.3553 24.9523 38.3937C24.9039 38.3997 24.8555 38.4037 24.8071 38.4017C24.7809 38.3735 24.7547 38.3473 24.7285 38.319C24.8051 38.3029 24.8797 38.2888 24.9564 38.2726V38.2747Z" fill="#DE8383"/>
<path d="M30.9831 26.322C30.9488 26.3724 30.9125 26.4228 30.8782 26.4753C30.8399 26.3744 30.9045 26.3441 30.9831 26.322Z" fill="#DE8383"/>
<path d="M16.6847 46.3991C16.6666 46.3084 16.6867 46.2499 16.7977 46.272C16.7593 46.3144 16.723 46.3568 16.6847 46.3991Z" fill="#232322"/>
<path d="M20.4221 44.5092L20.4302 44.5617C20.406 44.5415 20.3818 44.5213 20.3576 44.5032L20.4221 44.5092Z" fill="#DE8383"/>
<path d="M33.1999 8.21331L33.1454 8.22138L33.0909 8.21533C33.1333 8.17297 33.1736 8.1286 33.216 8.08624C33.2382 8.13263 33.2321 8.17499 33.1999 8.21331Z" fill="#DE8383"/>
<path d="M24.6538 50.8022C24.6901 50.7457 24.7284 50.6892 24.7647 50.6348C24.795 50.7356 24.7345 50.776 24.6538 50.8022Z" fill="#DE8383"/>
<path d="M63.5173 36.9394C63.5436 36.9071 63.5698 36.8728 63.596 36.8406C63.6928 36.9293 63.5597 36.9233 63.5436 36.9656L63.5173 36.9414V36.9394Z" fill="#232322"/>
<path d="M23.7401 53.7612C23.7401 53.7209 23.7401 53.6805 23.7441 53.6402C23.7825 53.6664 23.8228 53.6926 23.8611 53.7189C23.8208 53.733 23.7805 53.7471 23.7401 53.7592V53.7612Z" fill="#DE8383"/>
<path d="M64.9353 54.5357C64.9393 54.5841 64.9413 54.6305 64.9433 54.6789C64.905 54.6708 64.8667 54.6608 64.8304 54.6527C64.8667 54.6144 64.901 54.574 64.9373 54.5357H64.9353Z" fill="#DE8383"/>
<path d="M59.4733 31.4592C59.435 31.4249 59.3987 31.3906 59.3604 31.3563C59.4592 31.322 59.4894 31.3664 59.4733 31.4592Z" fill="#DE8383"/>
<path d="M27.9657 30.8138C27.9657 30.7775 27.9657 30.7432 27.9657 30.7069C28.004 30.7311 28.0423 30.7553 28.0807 30.7795C28.0423 30.7916 28.002 30.8017 27.9637 30.8138H27.9657Z" fill="#DE8383"/>
<path d="M63.3177 57.2667C63.2814 57.1638 63.3479 57.1296 63.4266 57.1053C63.3903 57.1598 63.354 57.2143 63.3177 57.2667Z" fill="#232322"/>
<path d="M36.5682 5.62951C36.4734 5.63959 36.431 5.60329 36.4492 5.50446C36.4895 5.54681 36.5278 5.58715 36.5682 5.62951Z" fill="#222121"/>
<path d="M7.59209 60.1167C7.49124 60.1369 7.4509 60.0743 7.42468 59.9916C7.48116 60.034 7.53562 60.0743 7.59209 60.1167Z" fill="#222121"/>
<path d="M56.4477 28.1372C56.4134 28.1009 56.3791 28.0666 56.3428 28.0303C56.4397 28.0061 56.476 28.0384 56.4477 28.1372Z" fill="#DE8383"/>
<path d="M11.856 61.5004C11.8943 61.5407 11.9306 61.579 11.969 61.6194C11.8742 61.6355 11.8298 61.6012 11.856 61.5004Z" fill="#DE8383"/>
<path d="M30.6847 27.0844C30.6504 27.1328 30.6161 27.1812 30.5838 27.2276C30.5354 27.1207 30.608 27.1005 30.6847 27.0844Z" fill="#DE8383"/>
<path d="M54.1121 69.0379C54.0858 68.9391 54.1322 68.9048 54.225 68.9149C54.1867 68.9552 54.1504 68.9976 54.1121 69.0379Z" fill="#232322"/>
<path d="M63.4346 69.4695C63.4871 69.4292 63.5415 69.3889 63.594 69.3485C63.5738 69.4332 63.5355 69.4937 63.4346 69.4695Z" fill="#DE8383"/>
<path d="M24.1415 15.7105C24.1778 15.7327 24.2121 15.7549 24.2484 15.7771C24.1576 15.8779 24.1677 15.7448 24.1294 15.7246L24.1415 15.7105Z" fill="#DE8383"/>
<path d="M33.3955 18.1954C33.333 18.3507 33.5448 18.734 33.0909 18.5605C33.1051 18.3649 33.1918 18.2317 33.3955 18.1954Z" fill="#202020"/>
<path d="M52.8675 64.8163C52.6638 64.6065 52.6295 64.3282 52.567 64.062C52.9523 64.1991 53.0148 64.4674 52.8675 64.8163Z" fill="#DE8383"/>
<path d="M53.7752 67.3819C53.7248 67.2306 53.6744 67.0794 53.624 66.9301C53.9447 66.9906 54.0213 67.1318 53.7752 67.3819Z" fill="#DE8383"/>
</svg>
