<svg width="93" height="82" viewBox="0 0 93 82" fill="none" xmlns="http://www.w3.org/2000/svg">
<path d="M65.6898 43.9747L40.6401 75.8249L40.4183 77.2695L45.2526 79.6791L47.8331 80.6202L50.1558 78.2165L55.2689 71.9736L70.0116 53.0469L72.5891 49.2976L69.7119 46.753L65.6898 43.9747Z" fill="#676A6D"/>
<path d="M36.6149 38.7778L47.4075 62.8595C47.4075 62.8595 50.98 62.7875 51.2797 62.4878C51.5794 62.1881 54.2948 61.1421 54.2948 61.1421L54.1509 57.9802L45.2735 37.531L36.6149 38.7808V38.7778Z" fill="#676A6D"/>
<path d="M57.7235 34.7646L57.9303 34.8006L58.4488 34.9774L59.8215 35.6638L61.32 36.5629L62.2192 37.1623V37.462L60.4209 37.1623C60.4209 37.1623 57.7235 35.418 57.7235 35.5409C57.7235 35.6638 57.7235 34.7646 57.7235 34.7646Z" fill="#6D7B84"/>
<path d="M51.5375 34.9535L55.7034 34.2911C55.7214 34.2881 55.7394 34.2851 55.7604 34.2851C55.9702 34.2672 57.2679 34.1952 58.0412 34.8516C58.0741 34.8816 58.1131 34.9085 58.152 34.9295L58.6705 35.2202L59.4618 35.6668L60.1002 36.0265L60.7865 36.4131L66.0014 39.3502L75.0527 44.6251C75.0916 44.6461 75.1276 44.6641 75.1696 44.6821C75.739 44.8919 80.1297 46.5073 80.0189 46.4833C79.908 46.4593 83.4326 46.7111 84.035 46.7561C84.0949 46.7591 84.1519 46.7561 84.2088 46.7471C84.8532 46.6422 85.3207 47.3465 84.9701 47.898C84.4875 48.6652 83.951 49.4564 83.7952 49.4564C83.5285 49.4564 80.6303 50.4125 80.0129 50.6163C79.9349 50.6433 79.857 50.6553 79.7761 50.6553C79.0298 50.6553 75.1036 50.6283 75.1036 50.3556C75.1036 50.0559 70.0086 46.7591 69.7088 46.7591C69.4091 46.7591 64.3141 41.9637 64.3141 41.9637L61.3799 39.3233C61.338 39.2873 61.293 39.2543 61.2451 39.2274L56.6055 36.6169C56.5516 36.5869 56.4947 36.5629 56.4347 36.545L53.3027 35.6908C53.2548 35.6788 53.2038 35.6698 53.1529 35.6668C52.6734 35.6368 50.0899 35.469 50.1588 35.424C50.2277 35.3791 51.1868 35.0674 51.4296 34.9895C51.4655 34.9775 51.5045 34.9685 51.5405 34.9625L51.5375 34.9535Z" fill="#6D7B84"/>
<path d="M24.4557 9.58904L42.1626 1.83256L59.219 0.609741L74.69 4.59588L85.4047 12.2385L88.8933 18.883L90.6915 22.7793L92.4898 29.0732C92.4898 29.0732 92.9633 32.1991 92.7895 34.7676C92.6726 36.5 91.8784 37.8187 91.8904 38.3642C91.9173 39.7218 88.5936 44.3583 88.5936 44.3583L84.4246 46.4803L76.8989 45.3294L67.3112 40.1624L62.8155 37.465L61.6167 36.8656L60.7176 36.2662L60.5527 36.1853C60.265 36.0414 60.4179 35.9665 59.8184 35.6668L59.219 35.3671L57.1211 34.4679L54.061 34.3001L44.833 36.5659L42.1356 38.0644L31.7417 38.526L21.099 38.3042L12.1976 36.2422L1.86361 31.8844L0.877562 30.242C0.505922 29.6216 0.230189 28.9503 0.0593545 28.249C-0.0245642 27.9013 0.044369 27.5386 0.245174 27.2449C0.733701 26.5346 1.90257 25.1679 4.27627 23.9391C7.66898 22.1828 5.26531 23.4866 5.26531 23.4866" fill="#72B8F2"/>
<path d="M88.7045 32.8136C71.7709 34.7557 55.5446 26.1151 38.668 23.7474C25.6486 21.9191 12.1167 23.9452 0.194275 29.4808C0.311162 29.7386 0.43704 29.9933 0.583897 30.2361L1.56994 31.8785L11.9039 36.2363L20.8053 38.2983L31.448 38.52L41.8419 38.0585L44.5393 36.5599L53.7674 34.2941L56.8274 34.462L56.8843 34.405L60.4239 35.9605C60.1362 35.8167 60.9664 36.3172 60.4239 35.9605L60.7236 36.2602L61.6227 36.8597L62.8216 37.4591L67.0175 40.1565L76.6052 45.3234L84.1309 46.4743L88.2999 44.3524C88.2999 44.3524 91.6237 39.7159 91.5967 38.3582C91.5847 37.8127 92.3789 36.494 92.4958 34.7617C92.5528 33.9015 92.5408 32.9814 92.4958 32.1332C91.255 32.4539 89.9813 32.6637 88.7105 32.8106L88.7045 32.8136Z" fill="#3391D1"/>
<path d="M92.4596 35.8015C92.4596 35.8015 92.4596 35.8134 92.4359 35.8193C92.4359 35.8104 92.4418 35.7986 92.4359 35.7897C92.4507 35.7986 92.4566 35.8015 92.4566 35.8015H92.4596Z" fill="#0B0E11"/>
<path d="M88.0181 43.654C89.3938 42.5331 90.5177 41.0855 91.2999 39.515C91.8904 38.3312 92.25 37.0874 92.4358 35.8196C92.4598 35.8136 92.4688 35.8076 92.4598 35.8016C92.4598 35.8016 92.4538 35.7987 92.4388 35.7897C92.5917 34.7467 92.6247 33.6857 92.5677 32.6277L92.9693 32.6097C93.0263 33.7396 93.0053 34.8696 92.8944 35.9995C92.5467 39.515 91.189 42.8328 88.5126 45.2125C88.5066 45.2155 88.5037 45.2215 88.4977 45.2275C88.5396 45.1736 88.5756 45.1166 88.6145 45.0597C88.6925 44.9428 88.5996 44.4782 88.5966 44.3344C88.5966 44.2565 88.5186 43.642 88.5786 43.6091C88.4467 43.684 88.3178 43.7709 88.1949 43.8638L88.0181 43.654Z" fill="#0B0E11"/>
<path d="M88.5786 43.609C88.5187 43.642 88.5966 44.2564 88.5966 44.3343C88.5996 44.4782 88.6925 44.9427 88.6146 45.0596C88.5756 45.1165 88.5397 45.1735 88.4977 45.2274C87.3588 46.2345 86.0401 47.0137 84.6284 47.4573C84.7633 47.3314 84.8952 47.2025 85.0241 47.0737C85.6055 46.4922 86.1719 45.8928 86.7474 45.3054C87.2089 44.8348 87.6615 44.2714 88.195 43.8638C88.3179 43.7709 88.4467 43.6839 88.5786 43.609Z" fill="#0B0E11"/>
<path d="M86.4207 13.4823C88.4587 16.6292 89.9662 20.0969 91.1501 23.6454C92.1151 26.5346 92.8225 29.5587 92.9693 32.6097L92.5677 32.6277C92.4928 31.2371 92.265 29.8464 91.9473 28.4947C91.0871 24.8413 89.7115 21.2597 87.9732 17.9359C86.3277 14.786 84.1758 11.8488 81.4695 9.53209C75.9158 4.78169 68.495 2.99242 61.3889 2.26413C53.3147 1.43993 45.0787 1.97641 37.3492 4.55991C30.303 6.91263 23.8563 10.7339 17.8291 15.0198C14.8081 17.1717 11.8769 19.4465 8.9787 21.7602C5.94564 24.1849 2.90059 24.5835 4.4411 23.3307C10.4113 18.4784 16.4385 13.6321 22.9691 9.54707C29.4908 5.46503 36.573 2.22817 44.1856 0.858492C48.3665 0.109218 52.6284 -0.118561 56.8693 0.0552706C60.8165 0.217114 64.7876 0.672672 68.6329 1.58978C72.1815 2.43796 75.6581 3.72372 78.7421 5.69581C81.8561 7.69187 84.4126 10.3893 86.4207 13.4823Z" fill="#0B0E11"/>
<path d="M88.4977 45.2274C87.9372 46.0187 87.2059 46.69 86.5316 47.3883C85.9292 48.0147 85.3297 48.6441 84.6943 49.2375C83.4955 50.3495 82.1438 51.1826 80.5284 51.5123C77.6152 52.1087 74.9778 51.3235 72.5951 49.9059C72.5951 49.7021 72.5951 49.4983 72.5861 49.2975C72.5831 49.0637 72.5741 48.8269 72.5621 48.5932C72.5591 48.5572 72.5351 48.4403 72.5321 48.3684C72.8229 48.5302 73.1196 48.6831 73.4253 48.8269C75.9039 49.9928 78.889 50.4484 81.5144 49.4983C82.7133 49.0637 83.7143 48.3174 84.6284 47.4573C86.04 47.0137 87.3588 46.2344 88.4977 45.2274Z" fill="#0B0E11"/>
<path d="M92.4359 35.8195C92.2081 35.8855 90.5537 35.9214 89.7205 35.6277C88.7914 35.301 87.8413 35.0253 86.8823 34.8005C85.1469 34.3989 83.3457 34.1621 81.5624 34.1831C79.938 34.2041 78.2356 34.5488 77.0368 35.7236C76.4404 36.3051 76.0567 37.0573 75.9279 37.8815C75.9279 37.8905 75.9279 37.9025 75.9279 37.9115C75.9219 37.8965 75.9189 37.8815 75.9189 37.8665C75.9189 37.8665 75.9189 37.8605 75.9189 37.8575C75.9099 37.7856 75.8979 37.7017 75.8799 37.5998C75.8799 37.5908 75.8799 37.5818 75.8769 37.5728H75.781C75.781 37.369 75.787 37.1682 75.793 36.9674C75.82 36.1342 75.9878 35.331 76.4583 34.6297C77.4774 33.1161 79.3775 32.6036 81.1038 32.5677C83.049 32.5257 85.039 32.8554 86.9152 33.3499C87.8833 33.6047 88.8274 33.9224 89.7535 34.309C90.6496 34.6806 92.247 35.6667 92.4419 35.7896C92.4449 35.7985 92.4419 35.8105 92.4419 35.8195H92.4359Z" fill="#0B0E11"/>
<path d="M75.9159 37.8667C75.9159 37.8815 75.9188 37.8963 75.9247 37.9112C75.9218 37.9141 75.9218 37.9201 75.9218 37.923C75.9218 37.9052 75.9188 37.8845 75.9159 37.8667Z" fill="#0B0E11"/>
<path d="M76.0447 40.2793C75.8439 39.3981 75.778 38.481 75.778 37.5729H75.8739C75.8739 37.5729 75.8769 37.5909 75.8769 37.5998C75.8889 37.6628 75.8919 37.7287 75.9039 37.7917C75.9069 37.8126 75.9099 37.8366 75.9159 37.8576C75.9159 37.8606 75.9159 37.8636 75.9159 37.8666C75.9189 37.8846 75.9219 37.9056 75.9219 37.9235C75.8979 38.1603 75.9698 38.3162 75.9219 37.9235C75.9219 37.9205 75.9219 37.9145 75.9249 37.9115C75.9518 38.0884 75.9878 38.2592 76.0298 38.433C76.1227 38.8287 76.2425 39.2183 76.3774 39.6019C76.6681 40.4291 77.0218 41.2353 77.3605 42.0445C77.7501 42.9676 77.3125 43.8398 77.0907 43.2883C76.6891 42.3053 76.2815 41.3192 76.0447 40.2793Z" fill="#0B0E11"/>
<path d="M72.5861 49.2976C72.5921 49.4984 72.5951 49.7022 72.5951 49.906C72.3344 49.7532 72.0796 49.5883 71.8249 49.4205C72.0526 49.0668 72.2804 48.7102 72.5022 48.3535C72.5112 48.3595 72.5202 48.3655 72.5322 48.3685C72.5352 48.4404 72.5592 48.5573 72.5622 48.5933C72.5741 48.8271 72.5831 49.0638 72.5861 49.2976Z" fill="#0B0E11"/>
<path d="M72.5022 48.3529C72.514 48.3351 72.5229 48.3203 72.5348 48.3025C72.5289 48.3114 72.5289 48.3351 72.5318 48.3677C72.52 48.3648 72.5111 48.3588 72.5022 48.3529Z" fill="#0B0E11"/>
<path d="M72.3433 19.2696C72.9817 19.7072 72.8678 21.5354 72.1275 21.0199C71.4262 20.5284 70.7099 20.0579 69.9786 19.6113C68.4801 18.6972 66.9216 17.882 65.3121 17.1837C62.4769 15.9549 59.4768 15.0977 56.4018 14.75C53.2099 14.3874 49.991 14.6181 46.859 15.3255C43.6491 16.0538 40.5321 17.2346 37.544 18.6013C34.6398 19.929 35.3322 18.4305 38.626 16.854C44.5063 14.0427 50.95 12.3763 57.4897 13.2904C60.5378 13.716 63.5139 14.6211 66.3191 15.8769C67.7098 16.5003 69.0615 17.2136 70.3682 17.9989C71.0396 18.4035 71.6989 18.8261 72.3433 19.2696Z" fill="#0B0E11"/>
<path d="M58.7995 35.1362C64.9555 38.0134 78.4634 47.3194 84.3887 45.5991C85.7194 45.2125 86.9452 44.5321 88.0182 43.654L88.195 43.8638C87.6615 44.2714 87.2089 44.8348 86.7474 45.3054C86.1719 45.8928 85.6055 46.4922 85.0241 47.0737C84.8952 47.2025 84.7633 47.3314 84.6284 47.4573C83.0819 47.9398 81.4275 48.0147 79.7851 47.5472C76.6052 46.6391 63.9874 38.2562 62.369 37.3091C61.7156 36.9285 61.1252 36.5449 60.5528 36.1852C60.0972 35.9005 59.6536 35.6307 59.2041 35.394C59.0632 35.3191 58.9223 35.2501 58.7785 35.1812L58.7995 35.1362Z" fill="#0B0E11"/>
<path d="M60.337 51.965C58.3409 54.5784 56.3209 57.1769 54.2798 59.7604C54.2918 59.6225 54.2888 59.4787 54.2888 59.3618C54.2918 58.9512 54.3188 58.4597 54.1779 58.0581C54.7204 57.3867 55.2599 56.7124 55.8024 56.041C59.2221 51.7911 62.2851 49.4144 60.337 51.965Z" fill="#0B0E11"/>
<path d="M54.1779 58.0581C54.3188 58.4597 54.2918 58.9512 54.2888 59.3618C54.2888 59.4787 54.2918 59.6226 54.2798 59.7605C54.2109 59.8504 54.142 59.9403 54.07 60.0272C53.9112 59.6136 53.7523 59.2 53.5935 58.7834C53.7883 58.5406 53.9831 58.3009 54.1779 58.0581Z" fill="#0B0E11"/>
<path d="M54.07 60.0271C54.142 59.9402 54.2109 59.8503 54.2798 59.7604C54.2738 59.8593 54.2589 59.9582 54.2349 60.0391C54.2409 60.0241 54.1779 60.2999 54.121 60.156C54.103 60.114 54.088 60.0691 54.07 60.0271Z" fill="#0B0E11"/>
<path d="M53.5935 58.7833C53.7523 59.1999 53.9112 59.6135 54.07 60.0271C52.6973 61.7684 51.3157 63.5008 49.928 65.2271C48.1867 67.394 46.4334 69.5519 44.6771 71.7068C43.811 72.7648 42.9388 73.8138 42.0786 74.8777C41.6291 75.4352 41.1945 76.0046 40.8139 76.6041C40.5261 76.4422 40.2384 76.2834 39.9507 76.1215L39.9327 76.1125C40.5082 74.8268 41.3683 73.7238 42.2585 72.6449C43.2445 71.4491 44.2365 70.2592 45.2226 69.0634C48.0309 65.6497 50.8182 62.221 53.5935 58.7833Z" fill="#0B0E11"/>
<path d="M59.8035 37.6508C64.479 40.6629 67.6199 45.6471 72.5022 48.3534C72.2804 48.7101 72.0526 49.0667 71.8248 49.4204C69.538 47.9009 67.5 45.8479 65.6868 43.9747C63.5888 41.8078 61.4549 39.6019 58.8324 38.0614C56.5936 36.7487 53.3597 35.6607 50.5994 35.7177C51.0879 35.5139 51.5465 35.3371 51.9841 35.1872C54.7114 35.1333 57.6066 36.2362 59.8035 37.6508Z" fill="#0B0E11"/>
<path d="M49.7812 35.5108C50.4885 35.304 51.2288 35.1991 51.9841 35.1871C51.5465 35.337 51.088 35.5138 50.5994 35.7176C50.2158 35.7266 49.8412 35.7566 49.4815 35.8105C49.4935 35.8105 49.7603 35.5168 49.7812 35.5108Z" fill="#0B0E11"/>
<path d="M47.5782 61.723V61.7289C47.5753 61.7112 47.5753 61.6934 47.5723 61.6726C47.5753 61.6874 47.5753 61.6993 47.5782 61.7111V61.723Z" fill="#0B0E11"/>
<path d="M47.5693 61.6217C47.5693 61.6217 47.5693 61.6007 47.5693 61.5917C47.5693 61.5767 47.5663 61.5587 47.5633 61.5378C47.5633 61.5258 47.5633 61.5108 47.5604 61.4958C47.5604 61.4898 47.5604 61.4838 47.5604 61.4778C47.5604 61.4598 47.5574 61.4418 47.5544 61.4269C47.5544 61.4179 47.5544 61.4089 47.5514 61.3999C47.5514 61.3909 47.5514 61.3849 47.5514 61.3789C47.5723 61.3879 47.5813 61.5677 47.5873 61.7116C47.5843 61.6996 47.5843 61.6876 47.5813 61.6726C47.5813 61.6576 47.5783 61.6397 47.5783 61.6217H47.5693Z" fill="#0B0E11"/>
<path d="M47.5663 61.5911C47.5663 61.5911 47.5663 61.6118 47.5663 61.6207C47.5663 61.5911 47.5603 61.5644 47.5574 61.5377C47.5603 61.5585 47.5633 61.5763 47.5633 61.5911H47.5663Z" fill="#0B0E11"/>
<path d="M47.5454 61.3999C47.5454 61.3999 47.5484 61.4177 47.5484 61.4266C47.5484 61.4147 47.5484 61.4088 47.5454 61.3999Z" fill="#0B0E11"/>
<path d="M47.2516 62.5416C47.2605 62.5683 47.2665 62.592 47.2694 62.6128C47.2694 62.6069 47.2635 62.6009 47.2635 62.595C47.2576 62.5742 47.2516 62.5535 47.2516 62.5416Z" fill="#0B0E11"/>
<path d="M47.2216 41.3522C49.5444 46.8879 51.8581 52.4265 54.1479 57.9771C54.1599 58.0041 54.1689 58.0311 54.1779 58.0581C53.9831 58.3008 53.7883 58.5406 53.5935 58.7834C53.1199 57.5485 52.6494 56.3107 52.1728 55.0759C49.952 49.3305 47.5513 43.651 45.4054 37.8756C45.5013 37.8486 45.5972 37.8187 45.6901 37.7887C46.2206 38.9696 46.7211 40.1594 47.2216 41.3522Z" fill="#0B0E11"/>
<path d="M47.1827 61.8914C47.1947 62.29 47.3536 62.9074 47.2846 62.6616H47.2816C47.2816 62.6616 47.2816 62.6406 47.2756 62.6316C47.2756 62.6256 47.2756 62.6226 47.2726 62.6196C47.2726 62.6196 47.2696 62.6197 47.2696 62.6137C47.2696 62.5927 47.2607 62.5687 47.2517 62.5417C47.2517 62.5537 47.2577 62.5747 47.2636 62.5957C47.2487 62.5597 47.2367 62.5237 47.2217 62.4908C47.1857 62.248 47.1857 61.9633 47.1827 61.8914Z" fill="#0B0E11"/>
<path d="M45.2556 36.8356C45.4025 37.1533 45.5463 37.471 45.6902 37.7886C45.5973 37.8186 45.5014 37.8486 45.4055 37.8756C45.3605 37.7587 45.3155 37.6418 45.2736 37.5249C45.1987 37.3241 45.3425 37.0214 45.2556 36.8356Z" fill="#0B0E11"/>
<path d="M39.9507 76.1216C40.2384 76.2834 40.5261 76.4423 40.8139 76.6041C40.5171 77.0597 40.2534 77.5332 40.0346 78.0337C40.0076 77.3953 39.9777 76.76 39.9507 76.1216Z" fill="#0B0E11"/>
<path d="M72.5951 50.0018C72.5951 50.0318 72.6131 50.2446 72.5831 50.2926C70.608 53.4365 68.4201 56.4396 66.1034 59.3408C62.2431 64.1781 58.0532 68.7397 54.2499 73.625C53.2938 74.8508 52.3647 76.0946 51.4716 77.3653C51.019 78.0127 50.5754 78.6631 50.1408 79.3194C49.7602 79.9009 49.4065 80.5243 48.897 81.0068C48.4115 81.4714 47.8211 81.7231 47.1467 81.5793C46.2956 81.4024 45.4594 80.9319 44.6801 80.5632C43.0827 79.802 41.5392 78.9358 39.9987 78.0697C39.8069 77.9648 39.8428 77.4133 39.8338 77.2275C39.8188 76.9068 39.7769 76.4632 39.9118 76.1575C39.9177 76.1425 39.9237 76.1275 39.9327 76.1125L39.9507 76.1215C39.9777 76.7599 40.0077 77.3953 40.0346 78.0337C40.2534 77.5332 40.5172 77.0596 40.8139 76.6041C42.2795 77.4193 43.757 78.2195 45.2825 78.9238C46.0348 79.2715 46.9729 79.8469 47.8361 79.6761C48.5913 79.5262 49.1008 78.8669 49.5114 78.2675C50.3776 77.0027 51.2138 75.7199 52.1159 74.4791C53.0151 73.2443 53.9471 72.0335 54.9002 70.8377C56.8214 68.425 58.8294 66.0843 60.8255 63.7345C64.7217 59.137 68.546 54.4825 71.8248 49.4204C72.0796 49.5882 72.3343 49.7531 72.5951 49.9059V50.0018Z" fill="#0B0E11"/>
<path d="M36.6149 38.7748C36.7168 38.9636 36.8217 39.1524 36.9296 39.3382C36.8277 39.3502 36.7258 39.3592 36.6239 39.3652C36.555 39.2004 36.6928 38.9216 36.6149 38.7748Z" fill="#0B0E11"/>
<path d="M38.0415 41.2864C38.572 42.2604 39.0755 43.2465 39.5731 44.2355C41.4133 47.889 43.1756 51.5814 44.9259 55.2768C45.5373 56.5746 46.1397 57.8813 46.7241 59.194C46.9279 59.6556 47.1527 60.1141 47.3325 60.5847C47.3925 60.7405 47.4434 60.8964 47.4824 61.0552C47.5064 61.1541 47.5243 61.256 47.5393 61.3549C47.5393 61.3609 47.5423 61.3699 47.5423 61.3789C47.5423 61.3849 47.5423 61.3909 47.5423 61.3999C47.5453 61.4089 47.5453 61.4149 47.5453 61.4269C47.5483 61.4418 47.5513 61.4598 47.5513 61.4778C47.5513 61.4838 47.5513 61.4898 47.5513 61.4958C47.5543 61.5108 47.5543 61.5258 47.5543 61.5377C47.5573 61.5647 47.5603 61.5917 47.5633 61.6217C47.5633 61.6396 47.5663 61.6576 47.5663 61.6726C47.5693 61.6936 47.5693 61.7116 47.5723 61.7296V61.7445C47.5723 61.8165 47.5783 61.8704 47.5783 61.8824C47.5813 61.9603 47.6113 62.8535 47.4015 62.8565C47.3026 62.8595 47.2486 62.6886 47.2156 62.4908C47.2306 62.5238 47.2426 62.5598 47.2576 62.5957C47.2576 62.6017 47.2606 62.6077 47.2636 62.6137C47.2666 62.6317 47.2696 62.6467 47.2756 62.6587H47.2786C47.3475 62.9074 47.1887 62.29 47.1767 61.8914C47.1797 61.9633 47.1797 62.2481 47.2156 62.4908C47.2156 62.4878 47.2127 62.4848 47.2127 62.4818C47.1527 62.326 47.0898 62.1701 47.0358 62.0113C46.841 61.4688 46.6072 60.9383 46.3765 60.4078C44.9648 57.126 43.4483 53.8832 41.9228 50.6523C41.0117 48.7192 40.0975 46.792 39.1804 44.8649C38.3143 43.0427 37.5141 41.1905 36.6239 39.3832C36.6239 39.3772 36.6179 39.3712 36.6179 39.3652C36.7198 39.3592 36.8217 39.3502 36.9236 39.3383C37.2923 39.9886 37.6759 40.63 38.0355 41.2864H38.0415Z" fill="#0B0E11"/>
<path d="M26.5177 29.9243C28.2531 30.0892 30.0124 30.254 31.7567 30.242C31.7627 30.242 31.7687 30.269 31.7717 30.32C31.8526 31.2551 31.0494 32.0253 30.1143 31.9414C28.7146 31.8185 27.312 31.7046 25.9153 31.5248C22.4327 31.0782 18.9651 30.4338 15.5664 29.5497C13.9329 29.1241 12.2875 28.6835 10.7021 28.1051C9.17056 27.5446 7.99869 25.9112 8.79292 26.2409C9.58715 26.5706 10.4084 26.8253 11.2296 27.0681C14.5234 28.0362 17.9251 28.7315 21.3118 29.265C23.0411 29.5377 24.7764 29.7565 26.5177 29.9243Z" fill="#0B0E11"/>
<path d="M45.885 35.9875C49.7662 34.9325 52.3018 34.0723 56.3748 34.3121C56.9233 34.3451 57.7565 34.6478 58.7995 35.1363L58.7785 35.1813C57.0641 34.375 55.158 34.0993 51.9841 35.1872C51.2288 35.1992 50.4885 35.3041 49.7812 35.5109C49.7602 35.5169 49.4935 35.8106 49.4815 35.8106C49.8411 35.7567 50.2158 35.7267 50.5994 35.7177C50.5275 35.7477 50.4555 35.7777 50.3806 35.8106C48.8191 36.482 47.2996 37.2642 45.6902 37.7887C45.5463 37.471 45.4024 37.1533 45.2556 36.8357C45.3425 37.0215 45.1986 37.3242 45.2736 37.525C45.3155 37.6419 45.3605 37.7588 45.4054 37.8756C45.1387 37.9566 44.869 38.0315 44.5962 38.0944C42.711 38.535 40.7959 38.8737 38.8748 39.1194C38.2274 39.2034 37.58 39.2783 36.9296 39.3382C36.8218 39.1524 36.7169 38.9636 36.6149 38.7748C36.6929 38.9216 36.555 39.2004 36.6239 39.3652C29.6977 40.0036 22.6815 39.4371 15.935 37.7258C12.1886 36.7757 8.53816 35.457 5.04355 33.8056C4.17139 33.392 3.30523 32.9544 2.46604 32.4779C1.76173 32.0763 1.24922 31.5278 0.796661 30.8594C0.457989 30.3619 -0.0964735 28.3778 0.0144191 27.9852C-0.0245432 28.249 0.451995 29.5167 0.604847 29.7415C0.976487 30.296 1.483 30.8804 2.10939 31.1801C5.46913 32.7716 8.87084 34.2312 12.4434 35.2862C16.0339 36.3471 19.6963 37.1204 23.4187 37.54C30.9474 38.3851 38.5721 37.9745 45.885 35.9875Z" fill="#0B0E11"/>
<path d="M59.3719 61.8883C58.6167 60.6775 55.4457 59.4457 54.0221 59.3738C52.5356 59.2989 50.998 59.5386 49.7123 60.2909C48.4265 61.0432 47.4255 62.3619 47.2786 63.8424C47.1797 64.8465 47.4645 65.8535 47.8721 66.7736C48.8192 68.9045 50.5215 70.7627 52.7124 71.569C54.9003 72.3752 57.5677 71.9945 59.2341 70.3641C60.7266 68.9015 61.2511 66.5848 60.6966 64.5707C60.1392 62.5567 58.5777 60.8843 56.6686 60.0331" fill="#ACB5BF"/>
<path d="M59.3629 61.4778C58.7245 60.3989 57.3548 59.7365 56.2339 59.2959C54.9152 58.7804 53.6324 58.5677 52.2178 58.7505C50.5604 58.9663 48.951 59.7275 47.9889 61.1362C47.0268 62.5448 46.9939 64.6278 47.4284 66.3002C48.2077 69.3032 50.6743 72.1655 53.8093 72.7619C55.2928 73.0436 56.8903 72.8398 58.209 72.0816C59.5277 71.3233 60.4628 69.9626 60.8195 68.4551C61.0562 67.469 61.0682 66.435 60.9963 65.428C60.9304 64.5109 60.7445 63.6058 60.3609 62.7666C59.6416 61.1961 58.2629 59.8264 56.6505 59.1821C56.6385 59.1761 56.6145 59.9673 56.6145 60.0332C56.6145 60.1531 56.5636 60.8155 56.6895 60.8814C57.9602 61.5348 59.0812 62.3979 59.8664 63.6088C60.232 64.1722 60.5317 64.8016 60.6906 65.455C60.8285 66.0094 60.7895 66.3601 60.6366 66.9475C59.8904 69.8038 57.0431 71.3563 54.2049 71.0326C51.3666 70.7089 49.0858 68.5869 47.923 66.0874C47.7551 65.7247 47.6053 65.3501 47.4914 64.9664C47.4344 64.7746 47.4015 64.5798 47.3565 64.385C47.2666 64.0074 47.3026 64.4989 47.3565 64.349C47.3955 64.2382 47.3985 64.1033 47.4284 63.9864C47.6053 63.2851 47.9649 62.6407 48.4385 62.0982C49.4245 60.9653 50.8511 60.3479 52.3167 60.1381C53.7163 59.9373 54.9871 60.1022 56.3118 60.5637C56.9412 60.7825 57.5616 61.0283 58.1461 61.355C58.5956 61.6067 59.0782 61.8764 59.3869 62.302C59.3599 62.2661 59.4078 61.9544 59.4078 61.8914C59.4078 61.7745 59.4288 61.5857 59.3689 61.4838L59.3629 61.4778Z" fill="#0B0E11"/>
</svg>
