<svg width="93" height="81" viewBox="0 0 101 90" fill="none" xmlns="http://www.w3.org/2000/svg">
<g filter="url(#filter0_d_15_14)">
<path d="M69.6898 43.9747L44.6401 75.8249L44.4183 77.2695L49.2526 79.6791L51.8331 80.6202L54.1558 78.2165L59.2689 71.9736L74.0116 53.0469L76.5891 49.2976L73.7119 46.753L69.6898 43.9747Z" fill="#676A6D"/>
<path d="M40.6149 38.7778L51.4075 62.8595C51.4075 62.8595 54.98 62.7875 55.2797 62.4878C55.5794 62.1881 58.2948 61.1421 58.2948 61.1421L58.1509 57.9802L49.2735 37.531L40.6149 38.7808V38.7778Z" fill="#676A6D"/>
<path d="M61.7235 34.7646L61.9303 34.8006L62.4488 34.9774L63.8215 35.6638L65.32 36.5629L66.2192 37.1623V37.462L64.4209 37.1623C64.4209 37.1623 61.7235 35.418 61.7235 35.5409C61.7235 35.6638 61.7235 34.7646 61.7235 34.7646Z" fill="#6D7B84"/>
<path d="M55.5375 34.9535L59.7034 34.2911C59.7214 34.2881 59.7394 34.2851 59.7604 34.2851C59.9702 34.2672 61.2679 34.1952 62.0412 34.8516C62.0741 34.8816 62.1131 34.9085 62.152 34.9295L62.6705 35.2202L63.4618 35.6668L64.1002 36.0265L64.7865 36.4131L70.0014 39.3502L79.0527 44.6251C79.0916 44.6461 79.1276 44.6641 79.1696 44.6821C79.739 44.8919 84.1297 46.5073 84.0189 46.4833C83.908 46.4593 87.4326 46.7111 88.035 46.7561C88.0949 46.7591 88.1519 46.7561 88.2088 46.7471C88.8532 46.6422 89.3207 47.3465 88.9701 47.898C88.4875 48.6652 87.951 49.4564 87.7952 49.4564C87.5285 49.4564 84.6303 50.4125 84.0129 50.6163C83.9349 50.6433 83.857 50.6553 83.7761 50.6553C83.0298 50.6553 79.1036 50.6283 79.1036 50.3556C79.1036 50.0559 74.0086 46.7591 73.7088 46.7591C73.4091 46.7591 68.3141 41.9637 68.3141 41.9637L65.3799 39.3233C65.338 39.2873 65.293 39.2543 65.2451 39.2274L60.6055 36.6169C60.5516 36.5869 60.4947 36.5629 60.4347 36.545L57.3027 35.6908C57.2548 35.6788 57.2038 35.6698 57.1529 35.6668C56.6734 35.6368 54.0899 35.469 54.1588 35.424C54.2277 35.3791 55.1868 35.0674 55.4296 34.9895C55.4655 34.9775 55.5045 34.9685 55.5405 34.9625L55.5375 34.9535Z" fill="#6D7B84"/>
<path d="M28.4557 9.58904L46.1626 1.83256L63.219 0.609741L78.69 4.59588L89.4047 12.2385L92.8933 18.883L94.6915 22.7793L96.4898 29.0732C96.4898 29.0732 96.9633 32.1991 96.7895 34.7676C96.6726 36.5 95.8784 37.8187 95.8904 38.3642C95.9173 39.7218 92.5936 44.3583 92.5936 44.3583L88.4246 46.4803L80.8989 45.3294L71.3112 40.1624L66.8155 37.465L65.6167 36.8656L64.7176 36.2662L64.5527 36.1853C64.265 36.0414 64.4179 35.9665 63.8184 35.6668L63.219 35.3671L61.1211 34.4679L58.061 34.3001L48.833 36.5659L46.1356 38.0644L35.7417 38.526L25.099 38.3042L16.1976 36.2422L5.86361 31.8844L4.87756 30.242C4.50592 29.6216 4.23019 28.9503 4.05935 28.249C3.97544 27.9013 4.04437 27.5386 4.24517 27.2449C4.7337 26.5346 5.90257 25.1679 8.27627 23.9391C11.669 22.1828 9.26531 23.4866 9.26531 23.4866" fill="#72B8F2"/>
<path d="M92.7045 32.8136C75.7709 34.7557 59.5446 26.1151 42.668 23.7474C29.6486 21.9191 16.1167 23.9452 4.19427 29.4808C4.31116 29.7386 4.43704 29.9933 4.5839 30.2361L5.56994 31.8785L15.9039 36.2363L24.8053 38.2983L35.448 38.52L45.8419 38.0585L48.5393 36.5599L57.7674 34.2941L60.8274 34.462L60.8843 34.405L64.4239 35.9605C64.1362 35.8167 64.9664 36.3172 64.4239 35.9605L64.7236 36.2602L65.6227 36.8597L66.8216 37.4591L71.0175 40.1565L80.6052 45.3234L88.1309 46.4743L92.2999 44.3524C92.2999 44.3524 95.6237 39.7159 95.5967 38.3582C95.5847 37.8127 96.3789 36.494 96.4958 34.7617C96.5528 33.9015 96.5408 32.9814 96.4958 32.1332C95.255 32.4539 93.9813 32.6637 92.7105 32.8106L92.7045 32.8136Z" fill="#3391D1"/>
<path d="M96.4596 35.8015C96.4596 35.8015 96.4596 35.8134 96.4359 35.8193C96.4359 35.8104 96.4418 35.7986 96.4359 35.7897C96.4507 35.7986 96.4566 35.8015 96.4566 35.8015H96.4596Z" fill="#0B0E11"/>
<path d="M92.0181 43.654C93.3938 42.5331 94.5177 41.0855 95.2999 39.515C95.8904 38.3312 96.25 37.0874 96.4358 35.8196C96.4598 35.8136 96.4688 35.8076 96.4598 35.8016C96.4598 35.8016 96.4538 35.7987 96.4388 35.7897C96.5917 34.7467 96.6247 33.6857 96.5677 32.6277L96.9693 32.6097C97.0263 33.7396 97.0053 34.8696 96.8944 35.9995C96.5467 39.515 95.189 42.8328 92.5126 45.2125C92.5066 45.2155 92.5037 45.2215 92.4977 45.2275C92.5396 45.1736 92.5756 45.1166 92.6145 45.0597C92.6925 44.9428 92.5996 44.4782 92.5966 44.3344C92.5966 44.2565 92.5186 43.642 92.5786 43.6091C92.4467 43.684 92.3178 43.7709 92.1949 43.8638L92.0181 43.654Z" fill="#0B0E11"/>
<path d="M92.5786 43.609C92.5187 43.642 92.5966 44.2564 92.5966 44.3343C92.5996 44.4782 92.6925 44.9427 92.6146 45.0596C92.5756 45.1165 92.5397 45.1735 92.4977 45.2274C91.3588 46.2345 90.0401 47.0137 88.6284 47.4573C88.7633 47.3314 88.8952 47.2025 89.0241 47.0737C89.6055 46.4922 90.1719 45.8928 90.7474 45.3054C91.2089 44.8348 91.6615 44.2714 92.195 43.8638C92.3179 43.7709 92.4467 43.6839 92.5786 43.609Z" fill="#0B0E11"/>
<path d="M90.4207 13.4823C92.4587 16.6292 93.9662 20.0969 95.1501 23.6454C96.1151 26.5346 96.8225 29.5587 96.9693 32.6097L96.5677 32.6277C96.4928 31.2371 96.265 29.8464 95.9473 28.4947C95.0871 24.8413 93.7115 21.2597 91.9732 17.9359C90.3277 14.786 88.1758 11.8488 85.4695 9.53209C79.9158 4.78169 72.495 2.99242 65.3889 2.26413C57.3147 1.43993 49.0787 1.97641 41.3492 4.55991C34.303 6.91263 27.8563 10.7339 21.8291 15.0198C18.8081 17.1717 15.8769 19.4465 12.9787 21.7602C9.94564 24.1849 6.90059 24.5835 8.4411 23.3307C14.4113 18.4784 20.4385 13.6321 26.9691 9.54707C33.4908 5.46503 40.573 2.22817 48.1856 0.858492C52.3665 0.109218 56.6284 -0.118561 60.8693 0.0552706C64.8165 0.217114 68.7876 0.672672 72.6329 1.58978C76.1815 2.43796 79.6581 3.72372 82.7421 5.69581C85.8561 7.69187 88.4126 10.3893 90.4207 13.4823Z" fill="#0B0E11"/>
<path d="M92.4977 45.2274C91.9372 46.0187 91.2059 46.69 90.5316 47.3883C89.9292 48.0147 89.3297 48.6441 88.6943 49.2375C87.4955 50.3495 86.1438 51.1826 84.5284 51.5123C81.6152 52.1087 78.9778 51.3235 76.5951 49.9059C76.5951 49.7021 76.5951 49.4983 76.5861 49.2975C76.5831 49.0637 76.5741 48.8269 76.5621 48.5932C76.5591 48.5572 76.5351 48.4403 76.5321 48.3684C76.8229 48.5302 77.1196 48.6831 77.4253 48.8269C79.9039 49.9928 82.889 50.4484 85.5144 49.4983C86.7133 49.0637 87.7143 48.3174 88.6284 47.4573C90.04 47.0137 91.3588 46.2344 92.4977 45.2274Z" fill="#0B0E11"/>
<path d="M96.4359 35.8195C96.2081 35.8855 94.5537 35.9214 93.7205 35.6277C92.7914 35.301 91.8413 35.0253 90.8823 34.8005C89.1469 34.3989 87.3457 34.1621 85.5624 34.1831C83.938 34.2041 82.2356 34.5488 81.0368 35.7236C80.4404 36.3051 80.0567 37.0573 79.9279 37.8815C79.9279 37.8905 79.9279 37.9025 79.9279 37.9115C79.9219 37.8965 79.9189 37.8815 79.9189 37.8665C79.9189 37.8665 79.9189 37.8605 79.9189 37.8575C79.9099 37.7856 79.8979 37.7017 79.8799 37.5998C79.8799 37.5908 79.8799 37.5818 79.8769 37.5728H79.781C79.781 37.369 79.787 37.1682 79.793 36.9674C79.82 36.1342 79.9878 35.331 80.4583 34.6297C81.4774 33.1161 83.3775 32.6036 85.1038 32.5677C87.049 32.5257 89.039 32.8554 90.9152 33.3499C91.8833 33.6047 92.8274 33.9224 93.7535 34.309C94.6496 34.6806 96.247 35.6667 96.4419 35.7896C96.4449 35.7985 96.4419 35.8105 96.4419 35.8195H96.4359Z" fill="#0B0E11"/>
<path d="M79.9159 37.8667C79.9159 37.8815 79.9188 37.8963 79.9247 37.9112C79.9218 37.9141 79.9218 37.9201 79.9218 37.923C79.9218 37.9052 79.9188 37.8845 79.9159 37.8667Z" fill="#0B0E11"/>
<path d="M80.0447 40.2793C79.8439 39.3981 79.778 38.481 79.778 37.5729H79.8739C79.8739 37.5729 79.8769 37.5909 79.8769 37.5998C79.8889 37.6628 79.8919 37.7287 79.9039 37.7917C79.9069 37.8126 79.9099 37.8366 79.9159 37.8576C79.9159 37.8606 79.9159 37.8636 79.9159 37.8666C79.9189 37.8846 79.9219 37.9056 79.9219 37.9235C79.8979 38.1603 79.9698 38.3162 79.9219 37.9235C79.9219 37.9205 79.9219 37.9145 79.9249 37.9115C79.9518 38.0884 79.9878 38.2592 80.0298 38.433C80.1227 38.8287 80.2425 39.2183 80.3774 39.6019C80.6681 40.4291 81.0218 41.2353 81.3605 42.0445C81.7501 42.9676 81.3125 43.8398 81.0907 43.2883C80.6891 42.3053 80.2815 41.3192 80.0447 40.2793Z" fill="#0B0E11"/>
<path d="M76.5861 49.2976C76.5921 49.4984 76.5951 49.7022 76.5951 49.906C76.3344 49.7532 76.0796 49.5883 75.8249 49.4205C76.0526 49.0668 76.2804 48.7102 76.5022 48.3535C76.5112 48.3595 76.5202 48.3655 76.5322 48.3685C76.5352 48.4404 76.5592 48.5573 76.5622 48.5933C76.5741 48.8271 76.5831 49.0638 76.5861 49.2976Z" fill="#0B0E11"/>
<path d="M76.5022 48.3529C76.514 48.3351 76.5229 48.3203 76.5348 48.3025C76.5289 48.3114 76.5289 48.3351 76.5318 48.3677C76.52 48.3648 76.5111 48.3588 76.5022 48.3529Z" fill="#0B0E11"/>
<path d="M76.3433 19.2696C76.9817 19.7072 76.8678 21.5354 76.1275 21.0199C75.4262 20.5284 74.7099 20.0579 73.9786 19.6113C72.4801 18.6972 70.9216 17.882 69.3121 17.1837C66.4769 15.9549 63.4768 15.0977 60.4018 14.75C57.2099 14.3874 53.991 14.6181 50.859 15.3255C47.6491 16.0538 44.5321 17.2346 41.544 18.6013C38.6398 19.929 39.3322 18.4305 42.626 16.854C48.5063 14.0427 54.95 12.3763 61.4897 13.2904C64.5378 13.716 67.5139 14.6211 70.3191 15.8769C71.7098 16.5003 73.0615 17.2136 74.3682 17.9989C75.0396 18.4035 75.6989 18.8261 76.3433 19.2696Z" fill="#0B0E11"/>
<path d="M62.7995 35.1362C68.9555 38.0134 82.4634 47.3194 88.3887 45.5991C89.7194 45.2125 90.9452 44.5321 92.0182 43.654L92.195 43.8638C91.6615 44.2714 91.2089 44.8348 90.7474 45.3054C90.1719 45.8928 89.6055 46.4922 89.0241 47.0737C88.8952 47.2025 88.7633 47.3314 88.6284 47.4573C87.0819 47.9398 85.4275 48.0147 83.7851 47.5472C80.6052 46.6391 67.9874 38.2562 66.369 37.3091C65.7156 36.9285 65.1252 36.5449 64.5528 36.1852C64.0972 35.9005 63.6536 35.6307 63.2041 35.394C63.0632 35.3191 62.9223 35.2501 62.7785 35.1812L62.7995 35.1362Z" fill="#0B0E11"/>
<path d="M64.337 51.965C62.3409 54.5784 60.3209 57.1769 58.2798 59.7604C58.2918 59.6225 58.2888 59.4787 58.2888 59.3618C58.2918 58.9512 58.3188 58.4597 58.1779 58.0581C58.7204 57.3867 59.2599 56.7124 59.8024 56.041C63.2221 51.7911 66.2851 49.4144 64.337 51.965Z" fill="#0B0E11"/>
<path d="M58.1779 58.0581C58.3188 58.4597 58.2918 58.9512 58.2888 59.3618C58.2888 59.4787 58.2918 59.6226 58.2798 59.7605C58.2109 59.8504 58.142 59.9403 58.07 60.0272C57.9112 59.6136 57.7523 59.2 57.5935 58.7834C57.7883 58.5406 57.9831 58.3009 58.1779 58.0581Z" fill="#0B0E11"/>
<path d="M58.07 60.0271C58.142 59.9402 58.2109 59.8503 58.2798 59.7604C58.2738 59.8593 58.2589 59.9582 58.2349 60.0391C58.2409 60.0241 58.1779 60.2999 58.121 60.156C58.103 60.114 58.088 60.0691 58.07 60.0271Z" fill="#0B0E11"/>
<path d="M57.5935 58.7833C57.7523 59.1999 57.9112 59.6135 58.07 60.0271C56.6973 61.7684 55.3157 63.5008 53.928 65.2271C52.1867 67.394 50.4334 69.5519 48.6771 71.7068C47.811 72.7648 46.9388 73.8138 46.0786 74.8777C45.6291 75.4352 45.1945 76.0046 44.8139 76.6041C44.5261 76.4422 44.2384 76.2834 43.9507 76.1215L43.9327 76.1125C44.5082 74.8268 45.3683 73.7238 46.2585 72.6449C47.2445 71.4491 48.2365 70.2592 49.2226 69.0634C52.0309 65.6497 54.8182 62.221 57.5935 58.7833Z" fill="#0B0E11"/>
<path d="M63.8035 37.6508C68.479 40.6629 71.6199 45.6471 76.5022 48.3534C76.2804 48.7101 76.0526 49.0667 75.8248 49.4204C73.538 47.9009 71.5 45.8479 69.6868 43.9747C67.5888 41.8078 65.4549 39.6019 62.8324 38.0614C60.5936 36.7487 57.3597 35.6607 54.5994 35.7177C55.0879 35.5139 55.5465 35.3371 55.9841 35.1872C58.7114 35.1333 61.6066 36.2362 63.8035 37.6508Z" fill="#0B0E11"/>
<path d="M53.7812 35.5108C54.4885 35.304 55.2288 35.1991 55.9841 35.1871C55.5465 35.337 55.088 35.5138 54.5994 35.7176C54.2158 35.7266 53.8412 35.7566 53.4815 35.8105C53.4935 35.8105 53.7603 35.5168 53.7812 35.5108Z" fill="#0B0E11"/>
<path d="M51.5782 61.723V61.7289C51.5753 61.7112 51.5753 61.6934 51.5723 61.6726C51.5753 61.6874 51.5753 61.6993 51.5782 61.7111V61.723Z" fill="#0B0E11"/>
<path d="M51.5693 61.6217C51.5693 61.6217 51.5693 61.6007 51.5693 61.5917C51.5693 61.5767 51.5663 61.5587 51.5633 61.5378C51.5633 61.5258 51.5633 61.5108 51.5604 61.4958C51.5604 61.4898 51.5604 61.4838 51.5604 61.4778C51.5604 61.4598 51.5574 61.4418 51.5544 61.4269C51.5544 61.4179 51.5544 61.4089 51.5514 61.3999C51.5514 61.3909 51.5514 61.3849 51.5514 61.3789C51.5723 61.3879 51.5813 61.5677 51.5873 61.7116C51.5843 61.6996 51.5843 61.6876 51.5813 61.6726C51.5813 61.6576 51.5783 61.6397 51.5783 61.6217H51.5693Z" fill="#0B0E11"/>
<path d="M51.5663 61.5911C51.5663 61.5911 51.5663 61.6118 51.5663 61.6207C51.5663 61.5911 51.5603 61.5644 51.5574 61.5377C51.5603 61.5585 51.5633 61.5763 51.5633 61.5911H51.5663Z" fill="#0B0E11"/>
<path d="M51.5454 61.3999C51.5454 61.3999 51.5484 61.4177 51.5484 61.4266C51.5484 61.4147 51.5484 61.4088 51.5454 61.3999Z" fill="#0B0E11"/>
<path d="M51.2516 62.5416C51.2605 62.5683 51.2665 62.592 51.2694 62.6128C51.2694 62.6069 51.2635 62.6009 51.2635 62.595C51.2576 62.5742 51.2516 62.5535 51.2516 62.5416Z" fill="#0B0E11"/>
<path d="M51.2216 41.3522C53.5444 46.8879 55.8581 52.4265 58.1479 57.9771C58.1599 58.0041 58.1689 58.0311 58.1779 58.0581C57.9831 58.3008 57.7883 58.5406 57.5935 58.7834C57.1199 57.5485 56.6494 56.3107 56.1728 55.0759C53.952 49.3305 51.5513 43.651 49.4054 37.8756C49.5013 37.8486 49.5972 37.8187 49.6901 37.7887C50.2206 38.9696 50.7211 40.1594 51.2216 41.3522Z" fill="#0B0E11"/>
<path d="M51.1827 61.8914C51.1947 62.29 51.3536 62.9074 51.2846 62.6616H51.2816C51.2816 62.6616 51.2816 62.6406 51.2756 62.6316C51.2756 62.6256 51.2756 62.6226 51.2726 62.6196C51.2726 62.6196 51.2696 62.6197 51.2696 62.6137C51.2696 62.5927 51.2607 62.5687 51.2517 62.5417C51.2517 62.5537 51.2577 62.5747 51.2636 62.5957C51.2487 62.5597 51.2367 62.5237 51.2217 62.4908C51.1857 62.248 51.1857 61.9633 51.1827 61.8914Z" fill="#0B0E11"/>
<path d="M49.2556 36.8356C49.4025 37.1533 49.5463 37.471 49.6902 37.7886C49.5973 37.8186 49.5014 37.8486 49.4055 37.8756C49.3605 37.7587 49.3155 37.6418 49.2736 37.5249C49.1987 37.3241 49.3425 37.0214 49.2556 36.8356Z" fill="#0B0E11"/>
<path d="M43.9507 76.1216C44.2384 76.2834 44.5261 76.4423 44.8139 76.6041C44.5171 77.0597 44.2534 77.5332 44.0346 78.0337C44.0076 77.3953 43.9777 76.76 43.9507 76.1216Z" fill="#0B0E11"/>
<path d="M76.5951 50.0018C76.5951 50.0318 76.6131 50.2446 76.5831 50.2926C74.608 53.4365 72.4201 56.4396 70.1034 59.3408C66.2431 64.1781 62.0532 68.7397 58.2499 73.625C57.2938 74.8508 56.3647 76.0946 55.4716 77.3653C55.019 78.0127 54.5754 78.6631 54.1408 79.3194C53.7602 79.9009 53.4065 80.5243 52.897 81.0068C52.4115 81.4714 51.8211 81.7231 51.1467 81.5793C50.2956 81.4024 49.4594 80.9319 48.6801 80.5632C47.0827 79.802 45.5392 78.9358 43.9987 78.0697C43.8069 77.9648 43.8428 77.4133 43.8338 77.2275C43.8188 76.9068 43.7769 76.4632 43.9118 76.1575C43.9177 76.1425 43.9237 76.1275 43.9327 76.1125L43.9507 76.1215C43.9777 76.7599 44.0077 77.3953 44.0346 78.0337C44.2534 77.5332 44.5172 77.0596 44.8139 76.6041C46.2795 77.4193 47.757 78.2195 49.2825 78.9238C50.0348 79.2715 50.9729 79.8469 51.8361 79.6761C52.5913 79.5262 53.1008 78.8669 53.5114 78.2675C54.3776 77.0027 55.2138 75.7199 56.1159 74.4791C57.0151 73.2443 57.9471 72.0335 58.9002 70.8377C60.8214 68.425 62.8294 66.0843 64.8255 63.7345C68.7217 59.137 72.546 54.4825 75.8248 49.4204C76.0796 49.5882 76.3343 49.7531 76.5951 49.9059V50.0018Z" fill="#0B0E11"/>
<path d="M40.6149 38.7748C40.7168 38.9636 40.8217 39.1524 40.9296 39.3382C40.8277 39.3502 40.7258 39.3592 40.6239 39.3652C40.555 39.2004 40.6928 38.9216 40.6149 38.7748Z" fill="#0B0E11"/>
<path d="M42.0415 41.2864C42.572 42.2604 43.0755 43.2465 43.5731 44.2355C45.4133 47.889 47.1756 51.5814 48.9259 55.2768C49.5373 56.5746 50.1397 57.8813 50.7241 59.194C50.9279 59.6556 51.1527 60.1141 51.3325 60.5847C51.3925 60.7405 51.4434 60.8964 51.4824 61.0552C51.5064 61.1541 51.5243 61.256 51.5393 61.3549C51.5393 61.3609 51.5423 61.3699 51.5423 61.3789C51.5423 61.3849 51.5423 61.3909 51.5423 61.3999C51.5453 61.4089 51.5453 61.4149 51.5453 61.4269C51.5483 61.4418 51.5513 61.4598 51.5513 61.4778C51.5513 61.4838 51.5513 61.4898 51.5513 61.4958C51.5543 61.5108 51.5543 61.5258 51.5543 61.5377C51.5573 61.5647 51.5603 61.5917 51.5633 61.6217C51.5633 61.6396 51.5663 61.6576 51.5663 61.6726C51.5693 61.6936 51.5693 61.7116 51.5723 61.7296V61.7445C51.5723 61.8165 51.5783 61.8704 51.5783 61.8824C51.5813 61.9603 51.6113 62.8535 51.4015 62.8565C51.3026 62.8595 51.2486 62.6886 51.2156 62.4908C51.2306 62.5238 51.2426 62.5598 51.2576 62.5957C51.2576 62.6017 51.2606 62.6077 51.2636 62.6137C51.2666 62.6317 51.2696 62.6467 51.2756 62.6587H51.2786C51.3475 62.9074 51.1887 62.29 51.1767 61.8914C51.1797 61.9633 51.1797 62.2481 51.2156 62.4908C51.2156 62.4878 51.2127 62.4848 51.2127 62.4818C51.1527 62.326 51.0898 62.1701 51.0358 62.0113C50.841 61.4688 50.6072 60.9383 50.3765 60.4078C48.9648 57.126 47.4483 53.8832 45.9228 50.6523C45.0117 48.7192 44.0975 46.792 43.1804 44.8649C42.3143 43.0427 41.5141 41.1905 40.6239 39.3832C40.6239 39.3772 40.6179 39.3712 40.6179 39.3652C40.7198 39.3592 40.8217 39.3502 40.9236 39.3383C41.2923 39.9886 41.6759 40.63 42.0355 41.2864H42.0415Z" fill="#0B0E11"/>
<path d="M30.5177 29.9243C32.2531 30.0892 34.0124 30.254 35.7567 30.242C35.7627 30.242 35.7687 30.269 35.7717 30.32C35.8526 31.2551 35.0494 32.0253 34.1143 31.9414C32.7146 31.8185 31.312 31.7046 29.9153 31.5248C26.4327 31.0782 22.9651 30.4338 19.5664 29.5497C17.9329 29.1241 16.2875 28.6835 14.7021 28.1051C13.1706 27.5446 11.9987 25.9112 12.7929 26.2409C13.5872 26.5706 14.4084 26.8253 15.2296 27.0681C18.5234 28.0362 21.9251 28.7315 25.3118 29.265C27.0411 29.5377 28.7764 29.7565 30.5177 29.9243Z" fill="#0B0E11"/>
<path d="M49.885 35.9875C53.7662 34.9325 56.3018 34.0723 60.3748 34.3121C60.9233 34.3451 61.7565 34.6478 62.7995 35.1363L62.7785 35.1813C61.0641 34.375 59.158 34.0993 55.9841 35.1872C55.2288 35.1992 54.4885 35.3041 53.7812 35.5109C53.7602 35.5169 53.4935 35.8106 53.4815 35.8106C53.8411 35.7567 54.2158 35.7267 54.5994 35.7177C54.5275 35.7477 54.4555 35.7777 54.3806 35.8106C52.8191 36.482 51.2996 37.2642 49.6902 37.7887C49.5463 37.471 49.4024 37.1533 49.2556 36.8357C49.3425 37.0215 49.1986 37.3242 49.2736 37.525C49.3155 37.6419 49.3605 37.7588 49.4054 37.8756C49.1387 37.9566 48.869 38.0315 48.5962 38.0944C46.711 38.535 44.7959 38.8737 42.8748 39.1194C42.2274 39.2034 41.58 39.2783 40.9296 39.3382C40.8218 39.1524 40.7169 38.9636 40.6149 38.7748C40.6929 38.9216 40.555 39.2004 40.6239 39.3652C33.6977 40.0036 26.6815 39.4371 19.935 37.7258C16.1886 36.7757 12.5382 35.457 9.04355 33.8056C8.17139 33.392 7.30523 32.9544 6.46604 32.4779C5.76173 32.0763 5.24922 31.5278 4.79666 30.8594C4.45799 30.3619 3.90353 28.3778 4.01442 27.9852C3.97546 28.249 4.45199 29.5167 4.60485 29.7415C4.97649 30.296 5.483 30.8804 6.10939 31.1801C9.46913 32.7716 12.8708 34.2312 16.4434 35.2862C20.0339 36.3471 23.6963 37.1204 27.4187 37.54C34.9474 38.3851 42.5721 37.9745 49.885 35.9875Z" fill="#0B0E11"/>
<path d="M63.3719 61.8883C62.6167 60.6775 59.4457 59.4457 58.0221 59.3738C56.5356 59.2989 54.998 59.5386 53.7123 60.2909C52.4265 61.0432 51.4255 62.3619 51.2786 63.8424C51.1797 64.8465 51.4645 65.8535 51.8721 66.7736C52.8192 68.9045 54.5215 70.7627 56.7124 71.569C58.9003 72.3752 61.5677 71.9945 63.2341 70.3641C64.7266 68.9015 65.2511 66.5848 64.6966 64.5707C64.1392 62.5567 62.5777 60.8843 60.6686 60.0331" fill="#ACB5BF"/>
<path d="M63.3629 61.4778C62.7245 60.3989 61.3548 59.7365 60.2339 59.2959C58.9152 58.7804 57.6324 58.5677 56.2178 58.7505C54.5604 58.9663 52.951 59.7275 51.9889 61.1362C51.0268 62.5448 50.9939 64.6278 51.4284 66.3002C52.2077 69.3032 54.6743 72.1655 57.8093 72.7619C59.2928 73.0436 60.8903 72.8398 62.209 72.0816C63.5277 71.3233 64.4628 69.9626 64.8195 68.4551C65.0562 67.469 65.0682 66.435 64.9963 65.428C64.9304 64.5109 64.7445 63.6058 64.3609 62.7666C63.6416 61.1961 62.2629 59.8264 60.6505 59.1821C60.6385 59.1761 60.6145 59.9673 60.6145 60.0332C60.6145 60.1531 60.5636 60.8155 60.6895 60.8814C61.9602 61.5348 63.0812 62.3979 63.8664 63.6088C64.232 64.1722 64.5317 64.8016 64.6906 65.455C64.8285 66.0094 64.7895 66.3601 64.6366 66.9475C63.8904 69.8038 61.0431 71.3563 58.2049 71.0326C55.3666 70.7089 53.0858 68.5869 51.923 66.0874C51.7551 65.7247 51.6053 65.3501 51.4914 64.9664C51.4344 64.7746 51.4015 64.5798 51.3565 64.385C51.2666 64.0074 51.3026 64.4989 51.3565 64.349C51.3955 64.2382 51.3985 64.1033 51.4284 63.9864C51.6053 63.2851 51.9649 62.6407 52.4385 62.0982C53.4245 60.9653 54.8511 60.3479 56.3167 60.1381C57.7163 59.9373 58.9871 60.1022 60.3118 60.5637C60.9412 60.7825 61.5616 61.0283 62.1461 61.355C62.5956 61.6067 63.0782 61.8764 63.3869 62.302C63.3599 62.2661 63.4078 61.9544 63.4078 61.8914C63.4078 61.7745 63.4288 61.5857 63.3689 61.4838L63.3629 61.4778Z" fill="#0B0E11"/>
</g>
<defs>
<filter id="filter0_d_15_14" x="0" y="0" width="101" height="89.6196" filterUnits="userSpaceOnUse" color-interpolation-filters="sRGB">
<feFlood flood-opacity="0" result="BackgroundImageFix"/>
<feColorMatrix in="SourceAlpha" type="matrix" values="0 0 0 0 0 0 0 0 0 0 0 0 0 0 0 0 0 0 127 0" result="hardAlpha"/>
<feOffset dy="4"/>
<feGaussianBlur stdDeviation="2"/>
<feComposite in2="hardAlpha" operator="out"/>
<feColorMatrix type="matrix" values="0 0 0 0 0 0 0 0 0 0 0 0 0 0 0 0 0 0 0.25 0"/>
<feBlend mode="normal" in2="BackgroundImageFix" result="effect1_dropShadow_15_14"/>
<feBlend mode="normal" in="SourceGraphic" in2="effect1_dropShadow_15_14" result="shape"/>
</filter>
</defs>
</svg>
