<svg width="40" height="45" viewBox="0 0 45 50" fill="none" xmlns="http://www.w3.org/2000/svg">
<path d="M11.1178 7.58418C11.3837 7.28682 11.7662 7.18465 12.0963 6.99602C12.4552 7.13487 13.2189 6.7419 13.3761 6.33845C14.6611 5.72933 15.9893 5.24074 17.3739 4.91457C18.1127 4.74166 18.858 4.59757 19.6047 4.46789C19.8182 4.43121 19.8418 4.44562 19.775 4.19542C19.6204 3.60596 19.4004 3.00471 19.6453 2.37202C19.6964 2.23972 19.7475 2.11659 19.83 2.00394C20.109 1.9856 20.0213 1.77208 20.0383 1.61358C20.1522 1.32147 20.3645 1.11188 20.612 0.931115C20.7705 0.908846 20.9906 1.00578 21.0155 0.724148C21.043 0.615425 21.1399 0.648173 21.2107 0.627215C21.4556 0.84728 21.546 0.6914 21.6076 0.464785C23.1611 0.302356 24.7369 -0.136466 26.2001 0.835491C26.5682 1.08045 26.8498 1.39221 27.0097 1.80876C26.8459 1.97119 26.9769 1.98822 27.1066 2.00525C27.4838 2.67592 27.4498 3.35839 27.2048 4.06443C26.9559 4.78227 26.99 4.81108 27.7825 4.77048C27.8336 5.18441 28.1008 5.11891 28.3746 5.0377C28.7833 5.07962 29.1789 5.17 29.547 5.35863C29.6544 5.58131 29.8142 5.65467 30.0408 5.52761C30.5255 5.61668 30.9761 5.79745 31.411 6.02014C31.4555 6.26771 31.6035 6.24544 31.7751 6.15768C31.948 6.24151 32.1209 6.32535 32.2938 6.41049C32.4681 6.79954 32.9095 7.0196 33.275 6.9004C34.3609 7.39555 35.3289 8.08063 36.293 8.77227C36.3127 8.82335 36.3336 8.87313 36.4057 8.85086C37.1641 9.44818 37.8767 10.0953 38.5644 10.7738C40.1088 12.2986 41.4096 14.0001 42.4051 15.931C42.3854 15.9991 42.4274 16.0213 42.4824 16.0344C42.7116 16.5545 42.9408 17.0732 43.1701 17.5932C43.1478 17.6155 43.1255 17.6378 43.102 17.6587C43.1255 17.6614 43.1478 17.664 43.1714 17.6679C43.212 17.7098 43.2513 17.7517 43.2919 17.7937C43.267 17.8631 43.3115 17.8827 43.3653 17.8971C43.7477 18.9503 44.1525 19.9982 44.3726 21.0999C44.518 21.8295 44.6817 22.55 44.7236 23.3097C44.7472 23.7407 44.7656 24.2096 44.8284 24.6563C44.852 24.727 44.8219 24.8266 44.9345 24.8502C45.0288 25.3623 44.7446 25.868 44.911 26.3815C44.8219 26.3395 44.7289 26.3068 44.6739 26.4221C44.6333 26.5059 44.683 26.5701 44.7525 26.6172C44.7551 26.7509 44.7092 26.836 44.5547 26.8098C44.459 26.6251 44.3739 26.447 44.3372 26.2295C44.2521 25.7108 44.2901 25.179 44.2141 24.6733C44.1106 23.9765 43.8447 23.3032 43.7622 22.5932L43.5801 22.0063C43.6901 21.9906 43.7687 21.9422 43.7438 21.8164C43.7176 21.6867 43.622 21.6304 43.4989 21.6147C43.2788 21.0056 43.0312 20.4043 42.9592 19.752C42.988 19.6053 42.8793 19.5856 42.7797 19.5581C42.4902 18.5495 41.9283 17.6627 41.4986 16.7169C41.5877 16.6553 41.6349 16.5741 41.5576 16.4811C41.5078 16.4209 41.4475 16.4602 41.4069 16.5178C40.6301 15.2891 39.8219 14.0827 38.8591 12.9889C38.9037 12.6169 38.7399 12.4544 38.3692 12.499C38.0968 12.1165 37.7248 11.8349 37.3829 11.5218C37.4497 11.1668 37.3619 11.0633 37.0764 11.1589C36.4279 10.6546 35.7808 10.1503 35.1324 9.64467C35.0984 9.61585 35.0656 9.58834 35.0316 9.55953C34.9988 9.53071 34.9661 9.50189 34.9346 9.47176C34.9189 9.34601 34.9084 9.20978 34.7408 9.36697C34.6753 9.32767 34.6098 9.28968 34.5443 9.25039C34.5102 9.22288 34.4775 9.19406 34.4434 9.16655C34.0531 8.92815 33.6627 8.68843 33.2724 8.45003C33.2383 8.10814 33.1034 7.96536 32.7772 8.19722C32.5506 8.0898 32.324 7.98108 32.0961 7.87367C32.1144 7.706 32.041 7.59858 31.8825 7.54488C31.7411 7.49772 31.7214 7.59465 31.7044 7.69421C31.3769 7.55667 31.0481 7.41913 30.7206 7.28158C30.684 7.25801 30.6486 7.23312 30.6119 7.20954C29.86 6.97768 29.1094 6.7419 28.3549 6.51659C26.7398 6.03324 25.0736 5.86557 23.4035 5.7778C21.9796 5.70183 20.5609 5.8564 19.1593 6.13934C19.048 6.12493 18.9301 6.08694 18.8541 6.21662C18.2751 6.16292 17.7721 6.52445 17.2023 6.52052C16.9993 6.49957 16.884 6.57554 16.905 6.79561C16.5762 6.79299 16.2513 6.82966 15.933 6.9135C15.7195 6.97506 15.3671 6.73011 15.3318 7.18596C15.2257 7.4152 14.9335 7.20299 14.817 7.40472C14.7895 7.4152 14.7698 7.43353 14.7554 7.45973C13.7546 7.82389 12.7748 8.22865 11.9142 8.87444C11.7963 8.87182 11.7203 8.91898 11.7112 9.04604C11.1073 9.36173 10.5322 9.71672 9.98337 10.1293C9.6166 10.4057 9.40308 10.8354 8.97867 11.0332C8.68918 11.0096 8.44684 11.045 8.47959 11.4288C8.12067 11.8545 7.72377 12.2409 7.30459 12.6064C6.95878 12.4597 7.02689 12.723 7.01117 12.9024C6.76229 13.2325 6.50948 13.56 6.26714 13.894C5.74056 14.6184 5.24279 15.3664 4.68345 16.0646C4.4254 16.3855 4.46994 16.8269 4.16604 17.1059C3.90013 17.1177 3.80843 17.2775 3.8831 17.6011C3.79664 18.07 3.50453 18.4552 3.36044 18.9032C3.26613 19.1992 3.26482 19.545 2.97402 19.7533C2.67142 19.9432 2.56139 20.2 2.70679 20.5419C2.6413 20.9021 2.63737 21.261 2.43564 21.6094C2.30727 21.8321 2.14091 22.1321 2.13698 22.3679C2.12388 23.0084 1.97193 23.6228 1.91036 24.2502C1.7833 25.5457 1.86321 26.8478 1.79509 28.1433C1.75579 28.8782 2.03481 29.5501 2.06231 30.2693C2.07148 30.4946 2.05183 30.7657 2.13829 31.0303C2.44612 31.9722 2.66095 32.9441 2.91245 33.9043C2.89411 34.0615 2.85481 34.2292 3.09191 34.2567C3.4875 35.1369 3.88179 36.0185 4.27738 36.8988C4.21974 36.9315 4.16342 36.98 4.21843 37.0429C4.27476 37.1057 4.32716 37.056 4.36384 36.9983C4.58521 37.2813 4.67952 37.6467 4.94544 37.9022C4.93627 38.0476 5.02927 38.1288 5.13538 38.2008C5.47857 38.9056 6.03136 39.4688 6.43088 40.1356C6.33395 40.1984 6.32085 40.2718 6.40468 40.3543C6.48852 40.4369 6.56187 40.4198 6.62213 40.3229C6.75967 40.4277 6.88411 40.543 6.92079 40.7237C6.82255 40.7879 6.81207 40.8639 6.89721 40.9451C6.98629 41.0289 7.05833 41.0014 7.11597 40.9045C7.61243 41.5228 8.18224 42.069 8.78087 42.5877C8.6918 42.6493 8.64464 42.7397 8.72323 42.8209C8.82672 42.9296 8.91841 42.8628 8.98522 42.7554C10.1497 43.7195 11.3771 44.5932 12.6883 45.3464C13.4127 45.7001 14.1384 46.0525 14.8694 46.3943C16.3889 47.1043 17.9883 47.5183 19.6296 47.7815C21.1635 48.0278 22.6987 48.1012 24.2654 48.0095C25.9905 47.9086 27.6489 47.5824 29.2837 47.0768C30.6696 46.6485 32.0004 46.0839 33.2671 45.3713C33.4295 45.4669 33.5068 45.3674 33.5684 45.2364C33.6928 45.2377 33.7754 45.1591 33.8631 45.0884C34.0884 45.1617 34.171 45.0609 34.1592 44.8447C34.2574 44.8054 34.3543 44.7661 34.4526 44.7255C34.5954 44.7425 34.6989 44.7098 34.6884 44.5356C35.3591 44.1963 35.8594 43.6147 36.5105 43.2466C36.6952 43.2532 36.8091 43.1877 36.779 42.9794C36.8733 42.7475 37.2257 42.8196 37.2872 42.5497C37.43 42.5917 37.489 42.5366 37.4693 42.3912C37.9409 41.9 38.4125 41.4101 38.8827 40.9189L38.96 40.8377C39.1578 40.6294 39.3556 40.4224 39.5534 40.2142C39.6137 40.2233 39.6359 40.1893 39.6399 40.1356C39.8507 39.816 40.0485 39.4859 40.338 39.2252C40.3891 39.233 40.414 39.2186 40.3917 39.1636C40.655 38.6672 40.9799 38.2126 41.3165 37.7646C41.3716 37.7686 41.4017 37.7528 41.3781 37.6913C41.3886 37.5223 41.5248 37.428 41.6073 37.3022C41.6532 37.2839 41.6977 37.2655 41.6728 37.2014C41.7305 37.0677 41.7803 36.9289 41.8484 36.8005C42.8216 34.968 43.5473 33.0463 44.0124 31.0212C44.2717 29.8881 44.2743 28.717 44.5651 27.5905C44.6175 27.5905 44.6699 27.5905 44.7223 27.5905C44.6791 28.7275 44.5704 29.854 44.3857 30.9793C44.2678 31.6984 44.1119 32.411 43.956 33.1184C43.8001 33.8283 43.4504 34.4951 43.1897 35.1815C43.1727 35.226 43.1792 35.2784 43.1753 35.3269C43.1229 35.3413 43.0771 35.3596 43.1033 35.429C42.7024 36.4272 42.1798 37.3612 41.6728 38.3082C41.1463 39.292 40.4861 40.1749 39.7748 41.0054C38.9129 42.0127 38.0575 43.0541 36.965 43.8322C36.386 44.2448 35.9079 44.7753 35.2896 45.1368C34.1566 45.7996 33.0863 46.562 31.8812 47.1096C30.1888 47.8772 28.4388 48.4339 26.6127 48.7692C25.9054 48.8989 25.2033 49.0561 24.4815 49.0535C23.689 49.0495 22.8887 49.157 22.1132 49.1177C20.9146 49.0574 19.6872 49.0535 18.5175 48.6566C18.1821 48.5426 17.8009 48.6225 17.4446 48.4915C16.6377 48.1942 15.8125 47.9453 15.0017 47.6663C13.1088 47.0139 11.4073 46.0616 9.7751 44.943C9.26423 44.5932 8.79921 44.1911 8.3486 43.7667C8.11805 43.5492 7.8469 43.3763 7.5954 43.1837C7.58754 42.5877 7.55217 42.5524 7.06488 42.6716C7.04261 42.665 7.02951 42.6506 7.02296 42.6283C7.05309 42.0716 6.89459 41.9092 6.31561 41.904C6.0235 41.5464 5.73139 41.1874 5.43797 40.8298C5.39867 40.7381 5.54014 40.463 5.24017 40.636C4.91269 40.1762 4.58652 39.7164 4.25904 39.2566C4.34812 39.1911 4.39658 39.1073 4.30751 39.0182C4.25249 38.9619 4.19355 39.0143 4.15818 39.0732C3.87262 38.7209 3.59099 38.3816 3.45344 37.9218C3.35258 37.5865 3.01069 37.352 2.88101 37.0049C3.07488 36.68 3.05523 36.4508 2.61379 36.4128C2.31513 35.7998 2.11078 35.1409 1.83439 34.5331C1.3209 33.4092 1.03665 32.2368 0.825754 31.05C0.639746 30.0086 0.346325 28.9685 0.435399 27.8879C0.610928 27.715 0.538883 27.6285 0.331916 27.5879C0.283449 26.6474 0.413131 25.7121 0.455048 24.7755C0.472077 24.3891 0.622717 23.9804 0.627957 23.611C0.634506 23.1027 0.825754 22.6482 0.865052 22.157C0.897799 21.7535 0.985564 21.3383 1.13882 20.9636C1.44665 20.2118 1.46499 19.3669 1.90774 18.6634C1.95752 18.7302 2.02957 18.7853 2.07803 18.6844C2.14091 18.5534 2.05314 18.4932 1.9287 18.4761C1.98634 18.3739 2.04529 18.2718 2.10292 18.1696C2.1527 18.2364 2.22343 18.2954 2.27321 18.1945C2.33871 18.0635 2.24963 18.0032 2.12519 17.9849C2.52602 17.3378 2.80504 16.6252 3.1574 15.9532C3.56086 15.1843 4.0416 14.4717 4.47649 13.7277C4.53805 13.6216 4.65464 13.5469 4.74633 13.4591C5.13014 13.581 4.87863 13.2653 4.94544 13.1697C4.95461 13.0937 4.94413 13.0072 5.04499 12.9771C5.34496 13.1487 5.20349 12.8749 5.24148 12.7819C5.49822 12.6562 5.48119 12.3051 5.73532 12.178C5.80343 12.1977 5.82439 12.161 5.82439 12.1008C6.15449 11.5847 6.59069 11.1602 7.03999 10.7555C7.87965 9.99835 8.68525 9.20323 9.65196 8.58757C10.0869 8.31118 10.4576 7.92475 10.9239 7.68111C11.0876 7.84354 11.1034 7.71124 11.1204 7.58156L11.1178 7.58418ZM23.6667 4.27795C23.7178 4.49408 23.8187 4.51111 23.9641 4.3513C24.3545 4.35916 24.7461 4.36702 25.1365 4.37619C25.1627 4.51242 25.2046 4.60674 25.3369 4.44693C25.5923 4.44824 25.8478 4.45086 26.1019 4.45217C26.2342 4.44955 26.3102 4.39191 26.3049 4.25044C26.2984 4.06574 26.1634 4.07098 26.0351 4.06574C26.0364 3.73957 26.039 3.41209 26.0403 3.08593C26.335 2.77548 26.1608 2.65627 25.8399 2.59602C25.6591 2.30784 25.426 2.07074 25.1352 1.89259C25.0972 1.8677 25.0605 1.84282 25.0225 1.81793C24.2536 1.65681 23.4729 1.75243 22.7 1.70789C21.8826 1.66074 21.1805 1.8533 20.6448 2.50563C20.3972 2.53445 20.4129 2.68247 20.4876 2.85538C20.4365 3.2274 20.3893 3.5981 20.3317 3.96881C20.2832 4.28188 20.3959 4.40763 20.7221 4.36309C21.6993 4.22948 22.6817 4.22424 23.6654 4.27795H23.6667Z" fill="#202020"/>
<path d="M40.3315 39.2265C40.042 39.4872 39.8442 39.8173 39.6333 40.1369C39.6045 40.1631 39.5756 40.1893 39.5468 40.2155C39.349 40.4238 39.1512 40.6307 38.9534 40.839C38.8984 40.8377 38.8696 40.8626 38.8761 40.9202C38.4046 41.4114 37.933 41.9014 37.4627 42.3926C37.3606 42.3978 37.3003 42.4502 37.2807 42.5511C37.2178 42.8209 36.8667 42.7489 36.7724 42.9807C36.61 42.9964 36.5196 43.0842 36.5039 43.2479C35.8529 43.6147 35.3525 44.1963 34.6818 44.5369C34.5665 44.5539 34.4512 44.571 34.446 44.7255C34.3478 44.7648 34.2508 44.8041 34.1526 44.8447C33.9915 44.85 33.8854 44.922 33.8565 45.0884C33.7688 45.1591 33.6863 45.2377 33.5618 45.2364C33.4413 45.2364 33.3155 45.2233 33.2605 45.3713C31.9952 46.0839 30.663 46.6485 29.2771 47.0768C27.6423 47.5812 25.9853 47.9086 24.2588 48.0095C22.6921 48.1012 21.1569 48.0265 19.623 47.7816C17.9817 47.5183 16.381 47.1043 14.8628 46.3944C14.1318 46.0525 13.4075 45.7001 12.6818 45.3464C12.7892 45.1984 12.9411 45.2325 13.0839 45.2587C14.9911 45.6032 16.9259 45.5888 18.8502 45.7185C19.6597 45.7735 20.4731 45.6962 21.2866 45.6503C22.2428 45.5953 23.1965 45.5508 24.1501 45.4486C26.3533 45.2115 28.5016 44.7635 30.5857 43.9933C32.6724 43.2231 34.5482 42.1083 36.179 40.6032C37.9435 38.975 39.3281 37.0494 40.3891 34.9025C41.4239 32.8105 42.1614 30.6086 42.6736 28.3306C42.9853 26.9421 43.2211 25.5392 43.4818 24.1415C43.5774 23.6267 43.4006 23.0608 43.7582 22.5958C43.8407 23.3058 44.1066 23.9804 44.2101 24.676C44.2861 25.1816 44.2468 25.7134 44.3332 26.2321C44.3686 26.4496 44.4551 26.6277 44.5507 26.8124C44.5808 26.8753 44.6109 26.9382 44.6398 27.0011C44.4865 27.1818 44.5651 27.3954 44.5559 27.5971C44.2638 28.7223 44.2625 29.8947 44.0031 31.0278C43.5381 33.0529 42.8124 34.9758 41.8392 36.8071C41.7711 36.9355 41.7226 37.0743 41.6636 37.2079C41.6414 37.242 41.6204 37.2747 41.5981 37.3088C41.5156 37.4345 41.3794 37.5289 41.3689 37.6978C41.3479 37.7227 41.327 37.7463 41.3073 37.7712C40.9707 38.2192 40.6458 38.6737 40.3825 39.1702C40.3577 39.1846 40.3406 39.2055 40.3288 39.2317L40.3315 39.2265Z" fill="#7EAD34"/>
<path d="M13.376 6.33838C13.2189 6.74183 12.4552 7.13481 12.0963 6.99596C12.4945 6.72218 12.9411 6.54273 13.376 6.33838Z" fill="#202020"/>
<path d="M6.31165 41.9053C6.89063 41.9105 7.04782 42.0729 7.019 42.6297C6.78322 42.3886 6.54743 42.1463 6.31165 41.9053Z" fill="#202020"/>
<path d="M33.2762 6.89774C32.9121 7.01695 32.4706 6.79688 32.2951 6.40784C32.6462 6.5218 32.9723 6.68816 33.2762 6.89774Z" fill="#202020"/>
<path d="M7.06091 42.6728C7.54689 42.5523 7.58357 42.5877 7.59143 43.185C7.41459 43.0147 7.23775 42.8444 7.06091 42.6728Z" fill="#202020"/>
<path d="M2.61115 36.4128C3.0526 36.4521 3.07224 36.6801 2.87838 37.0049C2.74346 36.8281 2.60984 36.6512 2.61115 36.4128Z" fill="#202020"/>
<path d="M28.3759 5.03643C28.1021 5.11764 27.8349 5.18314 27.7838 4.76921C28.0301 4.74825 28.1571 4.99451 28.3759 5.03643Z" fill="#202020"/>
<path d="M44.5586 27.5919C44.5678 27.3901 44.4892 27.1779 44.6424 26.9958C44.8245 27.1753 44.7105 27.3901 44.7158 27.5906C44.6634 27.5906 44.611 27.5906 44.5586 27.5906V27.5919Z" fill="#242521"/>
<path d="M21.6088 0.463475C21.5473 0.69009 21.4569 0.84597 21.2119 0.625904C21.3233 0.519801 21.4398 0.429417 21.6088 0.463475Z" fill="#202020"/>
<path d="M30.0421 5.52631C29.8154 5.65337 29.6556 5.58133 29.5482 5.35733C29.7342 5.35078 29.8927 5.42545 30.0421 5.52631Z" fill="#202020"/>
<path d="M0.329267 27.5879C0.536233 27.6285 0.608279 27.715 0.43275 27.8879C0.350225 27.804 0.236263 27.732 0.329267 27.5879Z" fill="#202020"/>
<path d="M4.94145 13.1697C4.87333 13.2653 5.12615 13.5823 4.74234 13.4592C4.73055 13.3085 4.82356 13.2312 4.94145 13.1697Z" fill="#202020"/>
<path d="M2.12127 17.9849C2.24571 18.0019 2.33478 18.0635 2.26929 18.1944C2.21951 18.2953 2.14878 18.2364 2.099 18.1696C2.10686 18.108 2.11341 18.0464 2.12127 17.9849Z" fill="#202020"/>
<path d="M44.7498 26.6159C44.6804 26.5674 44.6319 26.5046 44.6712 26.4207C44.7262 26.3041 44.8192 26.3369 44.9083 26.3801C44.8166 26.4325 44.8743 26.5858 44.7498 26.6172V26.6159Z" fill="#202020"/>
<path d="M1.92477 18.4761C2.04921 18.4931 2.13697 18.5534 2.0741 18.6844C2.02563 18.7839 1.9549 18.7302 1.90381 18.6634C1.91036 18.6005 1.91691 18.539 1.92477 18.4761Z" fill="#202020"/>
<path d="M20.0396 1.61365C20.0212 1.77084 20.109 1.98566 19.8313 2.004C19.8549 1.84943 19.9086 1.71058 20.0396 1.61365Z" fill="#202020"/>
<path d="M21.0167 0.7229C20.9918 1.00584 20.7718 0.907598 20.6133 0.929867C20.7233 0.814594 20.8582 0.745169 21.0167 0.7229Z" fill="#202020"/>
<path d="M4.15552 39.0746C4.19089 39.0157 4.24852 38.9633 4.30485 39.0196C4.39261 39.1087 4.34415 39.1925 4.25638 39.258C4.14635 39.2383 4.15814 39.1532 4.15683 39.0746H4.15552Z" fill="#202020"/>
<path d="M31.7764 6.1564C31.6048 6.24416 31.4568 6.26643 31.4122 6.01886C31.5576 6.00183 31.6572 6.104 31.7764 6.1564Z" fill="#202020"/>
<path d="M5.23755 40.6373C5.53621 40.4631 5.39605 40.7381 5.43535 40.8311C5.33841 40.7984 5.27685 40.729 5.23755 40.6373Z" fill="#202020"/>
<path d="M5.2375 12.7832C5.19952 12.8762 5.34099 13.15 5.04102 12.9784C5.08031 12.8867 5.14188 12.8173 5.2375 12.7832Z" fill="#202020"/>
<path d="M44.9319 24.8476C44.8206 24.8253 44.8494 24.7257 44.8258 24.6537C44.9489 24.6694 45.0852 24.6799 44.9319 24.8476Z" fill="#FDFDFD"/>
<path d="M27.1066 2.0052C26.9769 1.98817 26.8459 1.97115 27.0096 1.80872C27.1183 1.83622 27.0869 1.93316 27.1066 2.0052Z" fill="#202020"/>
<path d="M11.1178 7.58411C11.1007 7.71379 11.0863 7.84609 10.9213 7.68366C10.9475 7.57363 11.0405 7.59328 11.1178 7.58411Z" fill="#202020"/>
<path d="M36.407 8.84825C36.3349 8.87052 36.314 8.82074 36.2943 8.76965C36.3323 8.79585 36.369 8.82205 36.407 8.84825Z" fill="#FDFDFD"/>
<path d="M42.4824 16.0318C42.4273 16.0187 42.3854 15.9965 42.4051 15.9283C42.4313 15.9624 42.4562 15.9978 42.4824 16.0318Z" fill="#FDFDFD"/>
<path d="M43.0967 35.4316C43.0705 35.3622 43.1164 35.3426 43.1688 35.3295L43.0967 35.4316Z" fill="#FDFDFD"/>
<path d="M43.3639 17.8945C43.3115 17.8801 43.2656 17.8604 43.2905 17.791C43.3154 17.8251 43.339 17.8604 43.3639 17.8945Z" fill="#FDFDFD"/>
<path d="M43.1714 17.6652C43.1478 17.6626 43.1255 17.66 43.1019 17.6561C43.1242 17.6338 43.1465 17.6115 43.17 17.5906C43.17 17.6155 43.1714 17.6404 43.1714 17.6652Z" fill="#FDFDFD"/>
<path d="M5.82174 12.1021C5.82174 12.1623 5.80078 12.199 5.73267 12.1793C5.76279 12.1531 5.79161 12.1282 5.82174 12.1021Z" fill="#FDFDFD"/>
<path d="M43.7608 22.5918C43.4032 23.0568 43.5801 23.6227 43.4844 24.1375C43.2238 25.5352 42.988 26.9381 42.6762 28.3266C42.164 30.6046 41.4265 32.8065 40.3917 34.8985C39.3307 37.0454 37.9461 38.9723 36.1816 40.5992C34.5508 42.1043 32.675 43.2191 30.5883 43.9893C28.5055 44.7595 26.3573 45.2075 24.1527 45.4446C23.1991 45.5468 22.2455 45.5913 21.2892 45.6463C20.4758 45.6935 19.6623 45.7695 18.8528 45.7144C16.9298 45.5848 14.9938 45.5992 13.0865 45.2547C12.9438 45.2285 12.7918 45.1957 12.6844 45.3424C11.3719 44.5892 10.1458 43.7142 8.98126 42.7514C8.91314 42.6951 8.84503 42.6401 8.77691 42.5837C8.17828 42.065 7.60847 41.5188 7.11201 40.9005C7.07664 40.8075 7.01114 40.7486 6.91683 40.721C6.88015 40.5403 6.75702 40.425 6.61817 40.3202C6.58804 40.2233 6.51993 40.1643 6.42561 40.1329C6.02609 39.4661 5.4733 38.9016 5.13011 38.1981C5.26372 37.9113 5.28599 37.6532 4.94279 37.4921C4.707 37.2445 4.71093 36.9157 4.64937 36.6092C4.7987 36.456 4.6808 36.4324 4.55505 36.4127C4.52099 36.249 4.48825 36.0866 4.45419 35.9228C4.64544 35.7368 4.51576 35.6307 4.35726 35.5312C4.35595 35.4984 4.35464 35.467 4.35464 35.4342C4.51706 35.2744 4.46991 35.1801 4.26032 35.1395C4.26032 35.074 4.2577 35.0098 4.25639 34.9443C4.41882 34.7845 4.37297 34.6902 4.16339 34.6496C4.16208 34.5527 4.15946 34.4544 4.15815 34.3575C4.29569 34.1859 4.34154 34.0365 4.06514 33.9645C4.06383 33.8335 4.06121 33.7038 4.0599 33.5728C4.16339 33.5597 4.25901 33.5296 4.24329 33.3999C4.22495 33.2414 4.10968 33.1917 3.9669 33.1799C3.96559 32.9847 3.96297 32.7882 3.96166 32.593C4.26687 32.3664 4.23805 32.2014 3.86997 32.1018C3.70099 30.2391 3.76648 28.3777 3.86997 26.515C4.02323 26.515 4.1516 26.4993 4.16077 26.2949C4.16994 26.0801 4.06252 26.0133 3.87259 26.0251C3.92105 25.7985 3.99441 25.5758 3.96821 25.3387C4.25901 25.2693 4.36904 25.1566 4.06121 24.9457C4.06252 24.8161 4.06514 24.6851 4.06645 24.5554C4.27735 24.5135 4.32189 24.4191 4.15946 24.2593C4.16077 24.1624 4.16208 24.0642 4.1647 23.9672C4.4424 23.8952 4.39655 23.7459 4.25901 23.5743C4.25901 23.5415 4.25901 23.5101 4.26163 23.4773C4.42144 23.3778 4.55112 23.2704 4.35726 23.0843C4.35726 23.0516 4.35726 23.0202 4.35988 22.9874C4.51968 22.8879 4.64937 22.7804 4.4555 22.5944C4.5223 22.301 4.5878 22.0063 4.65461 21.7129C4.86288 21.6723 4.91266 21.5806 4.75154 21.4181C4.75154 21.3854 4.75154 21.3526 4.75285 21.3199C4.78429 21.2858 4.81573 21.2518 4.84716 21.2177C4.84716 21.1535 4.84847 21.0907 4.84978 21.0265C5.09867 20.9348 5.14451 20.7632 5.04234 20.5352C5.05544 20.3217 5.09736 20.1174 5.24145 19.9484C5.36982 19.9288 5.48902 19.9052 5.33576 19.7506C5.34231 19.6432 5.32266 19.5279 5.43663 19.4585C5.75232 19.3956 5.80995 19.2293 5.63311 18.9686C5.86366 18.3804 6.09944 17.7936 6.51076 17.2998C6.7413 17.2526 6.91945 17.1792 6.70986 16.9081C6.71248 16.7692 6.77667 16.671 6.90373 16.6134C7.18929 16.5623 7.18798 16.3383 7.20108 16.1221C7.20239 15.9833 7.2692 15.8864 7.39495 15.8287C7.79054 15.6178 7.98441 15.2655 8.08265 14.8463C8.08265 14.8148 8.08265 14.7834 8.08527 14.752C8.52279 14.6721 8.75071 14.4088 8.76774 13.9647C8.77036 13.8848 8.79132 13.8128 8.8686 13.7722C9.30088 13.7407 9.31659 13.725 9.25634 13.3779C9.28778 13.1329 9.46986 13.0111 9.65193 12.8893C10.1838 12.8474 10.8204 12.2107 10.9252 11.616C10.9985 11.4431 11.0837 11.2846 11.3155 11.3174C11.5028 11.4877 11.6168 11.3292 11.7033 11.2073C11.7989 11.0737 11.943 10.9925 12.0347 10.8851C12.3451 10.5236 12.9005 10.4397 13.08 9.94458C13.3315 9.60793 13.693 9.43109 14.0611 9.2595C14.3205 9.44026 14.3113 9.21103 14.3558 9.06563C14.3978 8.98703 14.4698 8.96869 14.551 8.96476C14.7108 9.11672 14.7279 8.99096 14.7462 8.86521C14.8038 8.73815 14.9021 8.67396 15.0409 8.67134C15.4129 8.76828 16.4176 8.26658 16.6102 7.88801C16.7373 7.73475 16.9089 7.6876 17.0988 7.68891C17.2534 7.84217 17.2769 7.72166 17.2966 7.59459C17.366 7.48063 17.4813 7.49897 17.5887 7.49242C17.7433 7.64568 17.7669 7.52648 17.7865 7.39811C17.8559 7.28414 17.9699 7.30248 18.0773 7.29855C18.6209 7.26057 19.1056 6.74053 19.1593 6.13666C20.5609 5.85372 21.9795 5.69915 23.4034 5.77512C25.0736 5.8642 26.7398 6.03186 28.3549 6.51391C29.1094 6.73922 29.86 6.975 30.6119 7.20686C30.6486 7.23044 30.6839 7.25533 30.7206 7.2789C31.0481 7.41645 31.3769 7.55399 31.7044 7.69153C31.8026 7.82383 31.9742 7.79239 32.096 7.86968C32.3226 7.97709 32.5493 8.08581 32.7772 8.19322C32.9448 8.27313 33.0418 8.49189 33.2723 8.44604C33.6627 8.68444 34.053 8.92416 34.4434 9.16256C34.4775 9.19007 34.5102 9.21889 34.5443 9.2464C34.6098 9.28569 34.6752 9.32368 34.7407 9.36298C34.7722 9.45991 34.8573 9.45729 34.9346 9.46777C34.9674 9.49659 35.0001 9.52541 35.0315 9.55554C35.0656 9.58436 35.0983 9.61186 35.1324 9.64068C35.7808 10.145 36.4279 10.6493 37.0763 11.1549C37.1078 11.3357 37.2492 11.4235 37.3828 11.5178C37.7247 11.8309 38.0967 12.1125 38.3692 12.495C38.5329 12.6587 38.6954 12.8212 38.8591 12.9849C39.8219 14.0787 40.6301 15.2851 41.4069 16.5138C41.4069 16.5937 41.4017 16.6775 41.4973 16.7129C41.9269 17.6587 42.4889 18.5455 42.7784 19.5541C42.7797 19.672 42.836 19.7414 42.9578 19.748C43.0299 20.4003 43.2775 21.0016 43.4975 21.6107C43.4242 21.7626 43.5905 21.8635 43.5787 22.0024L43.7608 22.5892V22.5918ZM31.4987 10.9309C31.4044 10.8943 31.3114 10.8563 31.2171 10.8183C31.0088 10.6519 30.8018 10.4843 30.5294 10.4319C30.4809 10.3611 30.4154 10.3336 30.3316 10.3533C29.1553 9.75464 27.9148 9.35643 26.6114 9.15208C26.5721 9.06039 26.4935 9.05777 26.411 9.06694C25.4456 8.8377 24.4658 8.74077 23.4742 8.76042C23.3995 8.63336 23.2842 8.67789 23.1768 8.68706C22.4118 8.59668 21.656 8.76304 20.8962 8.79972C20.2164 8.83246 19.5169 8.91499 18.8633 9.16911C18.7978 9.17173 18.7323 9.17435 18.6681 9.17828C18.2777 9.30927 17.852 9.3263 17.4878 9.54244C17.3254 9.58436 17.1643 9.62627 17.0019 9.66688C16.0522 10.0088 15.113 10.3755 14.2563 10.9205C14.1777 10.9231 14.0952 10.9205 14.0559 11.0095C13.4782 11.341 12.8756 11.6344 12.3818 12.0942C12.349 12.119 12.315 12.1439 12.2822 12.1688C12.1617 12.212 12.0622 12.2815 11.9901 12.3889C11.9574 12.4138 11.9233 12.4387 11.8906 12.4635C11.4531 12.7478 11.0431 13.0648 10.7038 13.4656C10.6409 13.5233 10.5794 13.5809 10.5165 13.6385C10.265 13.746 10.0999 13.9477 9.94535 14.1625C9.81698 14.207 9.80388 14.3407 9.73708 14.4324C9.10177 14.9655 8.65247 15.6506 8.17697 16.316C8.07741 16.3448 8.08003 16.43 8.06825 16.5086C7.97262 16.6396 7.877 16.7719 7.78137 16.9029C7.68575 16.9356 7.68837 17.0168 7.68575 17.0954C7.46568 17.3233 7.33469 17.6063 7.19191 17.8827C7.09629 17.9193 7.10153 18.0019 7.10153 18.0818C6.5435 19.004 6.12433 19.9864 5.81781 21.0186C5.68158 21.1168 5.73791 21.2976 5.64752 21.4155C5.61084 21.6264 5.61608 21.8556 5.52963 22.043C5.30563 22.5316 5.22049 23.0464 5.16547 23.5729C5.15106 23.6358 5.13796 23.6987 5.12356 23.7629C4.90873 23.9594 5.20739 24.1821 5.11832 24.3432C4.80525 24.9117 4.931 25.5273 4.88646 26.122C4.81835 27.0246 4.84978 27.935 4.96506 28.8257C5.17595 30.4539 5.61608 32.0337 6.23043 33.5558C6.72689 34.7884 7.33338 35.97 8.17304 37.0153C8.19662 37.0494 8.2202 37.0821 8.24377 37.1162C8.38132 37.3703 8.52148 37.6231 8.75988 37.8012C8.82407 37.8969 8.83717 38.0292 8.96292 38.0803C9.05592 38.2361 9.16203 38.375 9.35327 38.4169C9.35327 38.5374 9.35851 38.6553 9.51963 38.6684C9.89034 39.2382 10.3763 39.6941 10.9226 40.0897C10.9343 40.1866 10.9933 40.2311 11.0876 40.2364C11.2396 40.4067 11.3719 40.6005 11.6089 40.666C11.622 40.7774 11.6928 40.8206 11.7963 40.8232C12.5377 41.486 13.3957 41.972 14.2563 42.4541C14.5969 42.7553 15.0082 42.9178 15.4313 43.0606C16.5237 43.5884 17.6856 43.912 18.8567 44.2054C19.3021 44.3168 19.771 44.3285 20.2007 44.4137C20.6146 44.4949 21.0561 44.6036 21.4634 44.6246C24.1226 44.7608 26.7267 44.4478 29.2103 43.4273C29.9766 43.1116 30.7206 42.7422 31.424 42.2982C31.521 42.3506 31.6048 42.3742 31.6022 42.2143C31.9899 41.9799 32.3777 41.7467 32.7654 41.5122C32.8008 41.4873 32.8361 41.4625 32.8728 41.4363C33.2671 41.1337 33.6614 40.8324 34.0557 40.5298C34.184 40.5259 34.2469 40.4577 34.2469 40.3307C34.746 39.9587 35.2123 39.5513 35.6341 39.0928C35.8791 38.8256 36.048 38.4889 36.3677 38.2885C36.5733 38.2794 36.6192 38.151 36.5982 37.9755C36.6061 37.8995 36.5943 37.813 36.6951 37.7842C36.8445 37.7436 37.0685 37.7541 36.8956 37.4921C36.927 37.4594 36.9584 37.4253 36.9886 37.3925C37.1837 37.386 37.2807 37.2851 37.282 37.09C37.5178 36.7009 37.7549 36.3132 37.9906 35.9241C38.174 35.9084 38.1675 35.7709 38.1714 35.6412C38.3496 35.281 38.5146 34.9129 38.7085 34.5605C39.3045 33.4811 39.6424 32.3101 39.9398 31.1272C40.3197 29.6143 40.3773 28.0633 40.4389 26.515C40.5751 26.4888 40.6681 26.4469 40.5109 26.3146C40.5214 26.084 40.5528 25.8509 40.4389 25.6334C40.5424 25.6072 40.7611 25.6858 40.6183 25.437C40.7428 24.9222 40.2791 24.4807 40.4363 23.962C40.5699 23.8192 40.4611 23.793 40.3446 23.7707C40.2699 23.2481 40.1965 22.7254 40.1219 22.2028C40.1376 22.1189 40.1324 22.043 40.0407 22.0024C40.0354 21.9382 40.0302 21.8753 40.0249 21.8111C40.0407 21.726 40.0341 21.6513 39.9424 21.6107C39.7171 20.6911 39.4525 19.7873 38.9665 18.9634C38.8801 18.5979 38.7294 18.2639 38.4753 17.9822C38.0889 17.0745 37.5322 16.2754 36.8995 15.5261C36.8694 15.4253 36.7973 15.3663 36.7017 15.331C36.6323 15.1187 36.4986 14.9589 36.31 14.8424C36.2825 14.7389 36.2131 14.6773 36.1135 14.6446C35.6931 14.1507 35.2228 13.7067 34.7421 13.2731C34.6923 13.1264 34.5639 13.0583 34.4473 12.977C33.516 12.288 32.62 11.5466 31.5943 10.9938C31.5603 10.9729 31.5275 10.9532 31.4935 10.9323L31.4987 10.9309Z" fill="#8DC63F"/>
<path d="M4.75157 21.3173C4.75157 21.3501 4.75157 21.3828 4.75026 21.4156C4.6363 21.4863 4.65595 21.6016 4.65333 21.7103C4.58652 22.0037 4.52103 22.2985 4.45422 22.5919C4.31406 22.6967 4.37039 22.8486 4.3586 22.9849C4.35729 23.0176 4.35598 23.049 4.35598 23.0818C4.21582 23.1866 4.27345 23.3385 4.26035 23.4748C4.25904 23.5075 4.25773 23.5389 4.25773 23.5717C4.11757 23.6765 4.1739 23.8284 4.16342 23.9647C4.16211 24.0616 4.1608 24.1598 4.15818 24.2568C4.04684 24.3301 4.06649 24.4441 4.06518 24.5528C4.06387 24.6825 4.06125 24.8135 4.05994 24.9432C3.92108 25.0493 3.97741 25.1999 3.96693 25.3361C3.99313 25.5732 3.91977 25.7959 3.87131 26.0225C3.87131 26.1863 3.87 26.35 3.86869 26.5125C3.7652 28.3752 3.6984 30.2365 3.86869 32.0992C3.88703 32.2656 3.8045 32.4503 3.96038 32.5905C3.96169 32.7856 3.96431 32.9821 3.96562 33.1773C3.9761 33.3135 3.91977 33.4642 4.05732 33.5703C4.05863 33.7013 4.06125 33.831 4.06256 33.9619C4.07303 34.0982 4.01671 34.2501 4.15556 34.3549C4.15687 34.4519 4.15949 34.5501 4.1608 34.647C4.1608 34.7557 4.14246 34.8697 4.2538 34.9418C4.2538 35.0073 4.25642 35.0714 4.25773 35.1369C4.25773 35.2444 4.23939 35.3596 4.35205 35.4317C4.35205 35.4644 4.35205 35.4959 4.35467 35.5286C4.36646 35.6648 4.31013 35.8168 4.4516 35.9203C4.48566 36.084 4.51841 36.2464 4.55246 36.4102C4.55246 36.4914 4.56949 36.5634 4.64678 36.6067C4.70703 36.9132 4.70441 37.2407 4.9402 37.4895C4.9402 37.6258 4.93889 37.7607 4.93758 37.8969C4.67298 37.6415 4.57735 37.2773 4.35598 36.9931C4.32716 36.9603 4.29834 36.9276 4.26952 36.8935C3.87393 36.0133 3.47964 35.1317 3.08405 34.2514C3.0906 34.1008 3.00545 33.996 2.90459 33.8991C2.6544 32.9389 2.43826 31.9669 2.13043 31.0251C2.04398 30.7605 2.06362 30.488 2.05446 30.264C2.02695 29.5449 1.74794 28.8729 1.78723 28.1381C1.85535 26.8426 1.77413 25.5405 1.90251 24.245C1.96407 23.6162 2.11602 23.0019 2.12912 22.3626C2.13305 22.1282 2.29941 21.8269 2.42778 21.6042C2.62951 21.2545 2.63213 20.8968 2.69893 20.5366C2.85481 20.2969 2.91245 20.0231 2.96616 19.748C3.25696 19.5398 3.25827 19.194 3.35258 18.8979C3.49536 18.4512 3.78878 18.0648 3.87524 17.5959C3.97086 17.4308 4.13591 17.3077 4.15818 17.1007C4.46208 16.8217 4.41754 16.3803 4.6756 16.0593C5.23624 15.3611 5.7327 14.6132 6.25928 13.8888C6.50293 13.5548 6.75574 13.2273 7.00332 12.8972C7.1199 12.8173 7.24958 12.7505 7.29674 12.6012C7.71591 12.2357 8.11412 11.8493 8.47173 11.4235C8.62106 11.2716 8.85816 11.2284 8.97081 11.0279C9.39522 10.8301 9.60874 10.4005 9.97551 10.1241C10.5244 9.71148 11.0994 9.35649 11.7033 9.0408C11.8513 9.07879 11.8919 8.98972 11.9063 8.8692C12.7669 8.22342 13.7468 7.81865 14.7475 7.4545C14.8052 7.47807 14.8209 7.4545 14.8091 7.39948C14.927 7.19775 15.2191 7.40996 15.3252 7.18072C15.5505 7.14536 15.9016 7.38769 15.9265 6.90826C16.2448 6.82443 16.5696 6.78775 16.8984 6.79037C17.1185 6.82967 17.0831 6.59257 17.1958 6.51529C17.7656 6.51922 18.2686 6.15899 18.8476 6.21139C19.0493 6.43014 18.8305 6.56506 18.7231 6.68427C18.5253 6.90564 18.2909 7.09427 18.0708 7.296C17.9634 7.29993 17.8494 7.28159 17.78 7.39555C17.7001 7.39817 17.6267 7.41258 17.5822 7.48986C17.4748 7.49641 17.3595 7.47807 17.2901 7.59204C17.2102 7.59335 17.1355 7.60907 17.0923 7.68635C16.9023 7.68635 16.7307 7.73089 16.6037 7.88546C16.0116 8.00728 15.5427 8.37799 15.0344 8.66879C14.8956 8.67141 14.7973 8.73559 14.7397 8.86265C14.6598 8.86789 14.5864 8.88361 14.5445 8.96221C14.4646 8.96614 14.3912 8.98448 14.3493 9.06307C14.2092 9.06307 14.1109 9.12857 14.0546 9.25694C13.6878 9.42723 13.325 9.60538 13.0735 9.94202C12.3962 10.2839 11.8186 10.7555 11.309 11.3148C11.0772 11.2821 10.992 11.4393 10.9187 11.6135C10.4523 11.996 10.0292 12.4217 9.64541 12.8867C9.46334 13.0085 9.27995 13.1304 9.24982 13.3753C9.08608 13.4736 8.95378 13.6006 8.86209 13.7696C8.78349 13.8102 8.76384 13.8809 8.76122 13.9622C8.44422 14.1469 8.30537 14.4874 8.07876 14.7494C8.07614 14.7809 8.07614 14.8123 8.07614 14.8437C7.74473 15.0992 7.55479 15.4541 7.38843 15.8262C7.26268 15.8838 7.19587 15.9794 7.19456 16.1196C7.0007 16.2257 6.93651 16.4104 6.89721 16.6108C6.77015 16.6684 6.70597 16.7667 6.70334 16.9055C6.57628 17.0051 6.5252 17.1426 6.50424 17.2972C6.09292 17.791 5.85714 18.3766 5.62659 18.966C5.49298 19.1023 5.47071 19.283 5.43011 19.4559C5.31614 19.5254 5.33448 19.6406 5.32924 19.748C5.25196 19.7913 5.23624 19.8659 5.23493 19.9458C5.09084 20.1148 5.04892 20.3192 5.03582 20.5327C4.90745 20.6715 4.88256 20.8497 4.84326 21.0239C4.84326 21.0881 4.84195 21.151 4.84065 21.2152C4.80921 21.2492 4.77777 21.2833 4.74633 21.3173H4.75157Z" fill="#A6DD50"/>
<path d="M26.0403 3.08596C26.039 3.41213 26.0363 3.73961 26.035 4.06578C26.0743 4.19153 26.166 4.30812 26.1018 4.45221C25.8464 4.4509 25.591 4.44828 25.3368 4.44697C25.3015 4.33693 25.219 4.35527 25.1364 4.37623C24.7461 4.36837 24.3544 4.36051 23.9641 4.35134C23.8946 4.20856 23.7728 4.27275 23.6667 4.27799C22.683 4.22428 21.7005 4.22952 20.7233 4.36313C20.3985 4.40767 20.2858 4.28192 20.333 3.96885C20.3893 3.59814 20.4365 3.22613 20.4875 2.85542C20.5308 2.73491 20.6578 2.65107 20.6447 2.50567C21.1805 1.85333 21.8826 1.66078 22.7 1.70793C23.4741 1.75247 24.2535 1.65816 25.0225 1.81797C25.0395 1.87298 25.067 1.91359 25.1351 1.89263C25.4259 2.07078 25.6591 2.30787 25.8399 2.59606C25.9315 2.74932 25.8949 2.95497 26.0403 3.08596Z" fill="white"/>
<path d="M18.076 7.29994C18.2961 7.09822 18.5305 6.90959 18.7283 6.68821C18.8357 6.5677 19.0545 6.43409 18.8528 6.21533C18.9287 6.08565 19.0453 6.12364 19.158 6.13805C19.1043 6.74192 18.6196 7.26196 18.076 7.29994Z" fill="#8DC63F"/>
<path d="M15.9317 6.9122C15.9068 7.39163 15.5557 7.1493 15.3304 7.18466C15.3658 6.72881 15.7182 6.97377 15.9317 6.9122Z" fill="#202020"/>
<path d="M4.94148 37.8996C4.94148 37.7633 4.94279 37.6284 4.9441 37.4922C5.28599 37.6533 5.26503 37.9114 5.13142 38.1982C5.02532 38.1262 4.93231 38.045 4.94148 37.8996Z" fill="#8DC63F"/>
<path d="M2.97005 19.7507C2.91634 20.0258 2.85871 20.2996 2.70283 20.5393C2.55743 20.1974 2.66615 19.9407 2.97005 19.7507Z" fill="#202020"/>
<path d="M33.2723 8.44872C33.0405 8.49326 32.9435 8.27581 32.7772 8.19591C33.1033 7.96536 33.2396 8.10684 33.2723 8.44872Z" fill="#202020"/>
<path d="M26.0403 3.08598C25.8949 2.95499 25.9315 2.74933 25.8398 2.59607C26.1595 2.65633 26.335 2.77553 26.0403 3.08598Z" fill="#202020"/>
<path d="M4.16211 17.1034C4.13984 17.3091 3.9748 17.4335 3.87917 17.5985C3.80451 17.2763 3.8962 17.1165 4.16211 17.1034Z" fill="#202020"/>
<path d="M37.3815 11.5191C37.2479 11.4248 37.1065 11.3357 37.075 11.1563C37.3606 11.0606 37.4483 11.1654 37.3815 11.5191Z" fill="#202020"/>
<path d="M38.8578 12.9862C38.6941 12.8225 38.5317 12.6601 38.3679 12.4963C38.7399 12.4518 38.9024 12.6142 38.8578 12.9862Z" fill="#202020"/>
<path d="M8.97604 11.0306C8.86469 11.231 8.6276 11.2742 8.47696 11.4262C8.4429 11.0423 8.68523 11.007 8.97604 11.0306Z" fill="#202020"/>
<path d="M32.096 7.871C31.9742 7.79371 31.8013 7.82384 31.7043 7.69285C31.7214 7.59198 31.741 7.49636 31.8825 7.54352C32.041 7.59591 32.1143 7.70333 32.096 7.87231V7.871Z" fill="#202020"/>
<path d="M26.1018 4.45344C26.166 4.30935 26.073 4.19277 26.035 4.06702C26.1634 4.07226 26.2983 4.06702 26.3049 4.25171C26.3101 4.39319 26.2341 4.45082 26.1018 4.45344Z" fill="#202020"/>
<path d="M43.5787 22.0037C43.5905 21.8649 43.4242 21.764 43.4975 21.6121C43.622 21.6278 43.7163 21.6828 43.7425 21.8138C43.7674 21.9409 43.6888 21.988 43.5787 22.0037Z" fill="#202020"/>
<path d="M33.8578 45.0857C33.8867 44.9193 33.9928 44.8473 34.1539 44.842C34.1657 45.0569 34.0832 45.1577 33.8578 45.0857Z" fill="#79A533"/>
<path d="M7.30325 12.6038C7.25609 12.7532 7.12641 12.82 7.00983 12.8999C7.02555 12.7204 6.95743 12.4571 7.30325 12.6038Z" fill="#202020"/>
<path d="M8.77821 42.5839C8.84633 42.6402 8.91444 42.6952 8.98256 42.7515C8.91706 42.8603 8.82537 42.9258 8.72057 42.817C8.64198 42.7345 8.68914 42.6441 8.77821 42.5839Z" fill="#202020"/>
<path d="M6.42693 40.1329C6.52125 40.1644 6.58805 40.2233 6.61949 40.3203C6.55924 40.4172 6.48588 40.4342 6.40205 40.3517C6.31821 40.2692 6.33131 40.1958 6.42824 40.1329H6.42693Z" fill="#202020"/>
<path d="M17.201 6.51791C17.0883 6.59519 17.125 6.83229 16.9036 6.79299C16.8827 6.57161 16.9967 6.49695 17.201 6.51791Z" fill="#202020"/>
<path d="M6.91686 40.721C7.01118 40.7485 7.07798 40.8075 7.11204 40.9005C7.0544 40.9974 6.98236 41.0262 6.89328 40.9411C6.80814 40.8599 6.81731 40.7839 6.91686 40.7197V40.721Z" fill="#202020"/>
<path d="M36.5039 43.2466C36.5196 43.0829 36.61 42.9951 36.7724 42.9794C36.8026 43.1876 36.6886 43.2531 36.5039 43.2466Z" fill="#79A533"/>
<path d="M23.6667 4.2779C23.7729 4.27397 23.8947 4.20848 23.9641 4.35126C23.82 4.50976 23.7178 4.49273 23.6667 4.2779Z" fill="#202020"/>
<path d="M41.4973 16.7143C41.4003 16.6776 41.4069 16.5951 41.4069 16.5152C41.4462 16.4576 41.5078 16.4183 41.5575 16.4785C41.6348 16.5702 41.5877 16.6528 41.4986 16.7143H41.4973Z" fill="#202020"/>
<path d="M20.6448 2.50427C20.6579 2.65098 20.5308 2.73351 20.4876 2.85402C20.4129 2.6798 20.3972 2.53309 20.6448 2.50427Z" fill="#202020"/>
<path d="M2.90982 33.903C3.01069 33.9999 3.09583 34.1034 3.08928 34.2553C2.85219 34.2291 2.89149 34.0601 2.90982 33.903Z" fill="#202020"/>
<path d="M34.4473 44.7242C34.4526 44.5696 34.5678 44.5526 34.6831 44.5355C34.6923 44.7084 34.5901 44.7425 34.4473 44.7242Z" fill="#79A533"/>
<path d="M33.2632 45.3686C33.3169 45.2206 33.444 45.2337 33.5645 45.2337C33.5029 45.3647 33.4269 45.4629 33.2632 45.3686Z" fill="#79A533"/>
<path d="M37.2806 42.5497C37.3003 42.4502 37.3605 42.3965 37.4627 42.3912C37.4824 42.5366 37.4234 42.5903 37.2806 42.5497Z" fill="#79A533"/>
<path d="M25.1365 4.37614C25.219 4.35649 25.3002 4.33684 25.3369 4.44687C25.2046 4.60537 25.1627 4.51237 25.1365 4.37614Z" fill="#202020"/>
<path d="M11.9115 8.8718C11.8971 8.99232 11.8565 9.08139 11.7085 9.0434C11.7177 8.91765 11.7936 8.86918 11.9115 8.8718Z" fill="#242521"/>
<path d="M42.9578 19.7506C42.836 19.7428 42.7797 19.6747 42.7784 19.5568C42.8779 19.5843 42.9867 19.6052 42.9578 19.7506Z" fill="#8AC13E"/>
<path d="M34.9333 9.47044C34.8547 9.45996 34.7709 9.46258 34.7394 9.36564C34.9071 9.20845 34.9176 9.34469 34.9333 9.47044Z" fill="#202020"/>
<path d="M4.27475 36.8975C4.30357 36.9302 4.33239 36.963 4.36121 36.997C4.32453 37.0546 4.27213 37.1044 4.21581 37.0415C4.16079 36.98 4.21581 36.9315 4.27475 36.8975Z" fill="#202020"/>
<path d="M41.6008 37.3035C41.623 37.2694 41.644 37.2367 41.6663 37.2026C41.6912 37.2668 41.6466 37.2852 41.6008 37.3035Z" fill="#79A533"/>
<path d="M39.5468 40.2142C39.5756 40.188 39.6045 40.1618 39.6333 40.1356C39.6293 40.1893 39.6071 40.2234 39.5468 40.2142Z" fill="#79A533"/>
<path d="M38.8775 40.9189C38.8709 40.8613 38.8984 40.8364 38.9548 40.8377C38.9286 40.8652 38.9037 40.8914 38.8775 40.9189Z" fill="#242521"/>
<path d="M41.31 37.766C41.331 37.7411 41.3519 37.7175 41.3716 37.6926C41.3938 37.7542 41.3637 37.7699 41.31 37.766Z" fill="#79A533"/>
<path d="M25.1351 1.89388C25.067 1.91353 25.0395 1.87423 25.0225 1.81921C25.0604 1.8441 25.0971 1.86899 25.1351 1.89388Z" fill="#202020"/>
<path d="M14.8143 7.40344C14.8261 7.45715 14.8104 7.48204 14.7527 7.45846C14.7672 7.43357 14.7868 7.41523 14.8143 7.40344Z" fill="#242521"/>
<path d="M40.3315 39.2265C40.3433 39.2003 40.3603 39.1793 40.3852 39.1649C40.4075 39.2212 40.3826 39.2343 40.3315 39.2265Z" fill="#79A533"/>
<path d="M8.17827 16.3174C8.65246 15.6519 9.10307 14.9668 9.73838 14.4337C9.87199 14.4922 9.94141 14.4023 9.94665 14.1639C10.1012 13.9503 10.2663 13.7486 10.5178 13.6399C10.62 13.8036 10.7575 13.8063 10.8557 13.6635C10.9618 13.5102 10.8125 13.4906 10.7051 13.467C11.0444 13.0662 11.4531 12.7492 11.8919 12.4649C11.9325 12.5265 11.9783 12.6103 12.0556 12.5265C12.1015 12.4767 12.0451 12.4217 11.9914 12.3902C12.0635 12.2828 12.163 12.2134 12.2835 12.1702C12.3242 12.2317 12.37 12.3156 12.4473 12.2317C12.4944 12.182 12.4368 12.1269 12.3831 12.0955C12.8769 11.6357 13.4795 11.3423 14.0572 11.0109C14.2117 11.1773 14.2379 11.0554 14.2576 10.9218C15.1156 10.3769 16.0535 10.0101 17.0032 9.66824C17.239 9.91319 17.383 9.80316 17.4891 9.5438C17.8533 9.32635 18.279 9.31063 18.6694 9.17964C18.6799 9.24382 18.6877 9.3198 18.7716 9.31587C18.8528 9.31194 18.8567 9.23465 18.8659 9.17047C19.5195 8.91634 20.219 8.83382 20.8989 8.80107C21.6586 8.76439 22.4144 8.59804 23.1794 8.68842C23.2331 8.90063 23.3327 8.92159 23.4768 8.76178C24.4684 8.74213 25.4482 8.83775 26.4136 9.0683C26.4359 9.2006 26.4673 9.31325 26.614 9.15344C27.9174 9.35779 29.1579 9.756 30.3342 10.3546C30.3578 10.4869 30.3944 10.5865 30.532 10.4332C30.8044 10.4843 31.0114 10.6533 31.2197 10.8197C31.2223 11.0332 31.3716 11.0279 31.5223 11.0214C31.5524 11.024 31.5799 11.0135 31.6009 10.9926C32.6265 11.5453 33.5225 12.2868 34.4539 12.9758C34.4748 13.1513 34.3923 13.429 34.7486 13.2718C35.2293 13.7054 35.6996 14.1495 36.1201 14.6433C36.1594 14.735 36.0087 15.0166 36.3166 14.8411C36.5052 14.9577 36.6388 15.1175 36.7082 15.3297C36.7475 15.4214 36.5956 15.7069 36.906 15.5249C37.5387 16.2741 38.0954 17.0732 38.4818 17.981C38.4177 18.4224 38.6076 18.7368 38.9731 18.9621C39.459 19.7847 39.7236 20.6899 39.949 21.6094C39.7891 21.7535 39.8952 21.7876 40.0315 21.8098C40.0367 21.874 40.042 21.9369 40.0472 22.0011C39.8874 22.1426 39.9922 22.1792 40.1284 22.2015C40.2031 22.7242 40.2764 23.2468 40.3511 23.7695C40.3393 23.8533 40.3393 23.9319 40.4428 23.9607C40.2856 24.4795 40.7493 24.9209 40.6249 25.4357C40.5358 25.475 40.4559 25.5221 40.4454 25.6322C40.5607 25.8496 40.5292 26.0828 40.5175 26.3133C40.4231 26.3552 40.4297 26.4325 40.4454 26.5137C40.3852 28.0621 40.3262 29.613 39.9463 31.126C39.649 32.3101 39.311 33.4812 38.715 34.5592C38.5211 34.9116 38.3561 35.2784 38.1779 35.6399C38.043 35.6871 37.9631 35.7683 37.9972 35.9229C37.7614 36.3119 37.5243 36.6996 37.2885 37.0887C37.1117 37.1123 37.0161 37.2158 36.9951 37.3913C36.9637 37.424 36.9322 37.4581 36.9021 37.4908C36.779 37.5498 36.7174 37.6506 36.7017 37.7829C36.6008 37.8118 36.6126 37.8982 36.6047 37.9742C36.5222 38.0738 36.2891 38.0633 36.3742 38.2873C36.0559 38.4877 35.8869 38.8243 35.6406 39.0916C35.2189 39.55 34.7525 39.9574 34.2534 40.3294C34.1356 40.3451 34.057 40.3962 34.0622 40.5285C33.6679 40.8311 33.2736 41.1324 32.8793 41.435C32.8152 41.4206 32.7916 41.4612 32.7719 41.511C32.3842 41.7454 31.9965 41.9786 31.6087 42.2131C31.5327 42.2052 31.4476 42.179 31.4306 42.2969C30.7272 42.741 29.9831 43.1104 29.2168 43.4261C26.7332 44.4465 24.1291 44.7596 21.47 44.6233C21.0626 44.6024 20.6212 44.4936 20.2072 44.4124C19.7776 44.3273 19.3086 44.3155 18.8632 44.2042C17.6922 43.9107 16.5316 43.5872 15.4378 43.0593C15.3291 42.7501 14.6139 42.2773 14.3296 42.3349C14.3008 42.3401 14.2851 42.4122 14.2628 42.4541C13.4022 41.9721 12.5429 41.4861 11.8028 40.8233C11.8238 40.6713 11.7674 40.6111 11.6155 40.6661C11.3784 40.6006 11.2448 40.4067 11.0941 40.2364C11.1282 40.0884 11.0784 40.0334 10.9291 40.0897C10.3829 39.6941 9.89688 39.2383 9.52617 38.6685C9.53796 38.5401 9.50128 38.4431 9.35981 38.4169C9.16856 38.375 9.06246 38.2362 8.96946 38.0803C9.09783 37.9834 9.08473 37.876 8.98649 37.7712C8.90527 37.6847 8.82799 37.7044 8.76642 37.8026C8.52802 37.6245 8.38655 37.3729 8.25031 37.1175C8.31188 37.0769 8.39964 37.0337 8.31581 36.9538C8.26603 36.9053 8.21102 36.9629 8.17958 37.0167C7.33992 35.9713 6.73343 34.7898 6.23697 33.5572C5.62393 32.035 5.18249 30.454 4.9716 28.8271C4.85632 27.935 4.8262 27.0259 4.893 26.1234C4.93754 25.5287 4.81179 24.9143 5.12486 24.3445C5.21393 24.1821 4.91658 23.9607 5.1301 23.7642C5.20214 23.7577 5.29645 23.7721 5.29776 23.6699C5.29776 23.6398 5.21655 23.607 5.17201 23.5756C5.22703 23.0503 5.31217 22.5355 5.53617 22.0456C5.62262 21.8583 5.61738 21.6291 5.65406 21.4182C5.96844 21.3959 6.02477 21.2636 5.82435 21.0213C6.13087 19.9891 6.55004 19.0066 7.10807 18.0844C7.14737 18.1421 7.20893 18.1827 7.25871 18.1224C7.33599 18.0294 7.28884 17.9482 7.19845 17.8866C7.34123 17.6103 7.47222 17.326 7.69229 17.0994C7.73028 17.157 7.79053 17.2029 7.84293 17.1452C7.92546 17.0535 7.87699 16.971 7.78791 16.9081C7.88354 16.7771 7.97916 16.6448 8.07479 16.5139C8.19923 16.4994 8.33808 16.4929 8.18351 16.3213L8.17827 16.3174ZM14.6492 41.3905C14.682 41.3905 14.7147 41.3918 14.7475 41.3931C16.7962 42.5733 19.0126 43.244 21.3442 43.5544C21.5695 43.5846 21.842 43.54 22.0372 43.4313C22.2376 43.3186 21.9743 43.1287 21.9913 42.9519C22.0215 42.6283 22.0031 42.2995 21.9992 41.9734C21.9966 41.7585 22.2834 41.6446 22.1931 41.3996C22.0686 41.0656 22.2559 40.7944 22.3922 40.5246C22.5467 40.2181 22.7982 40.2849 22.9096 40.5259C23.3497 41.4743 23.6471 42.4554 23.3798 43.5413C24.2234 43.6605 25.0526 43.4798 25.8608 43.3344C27.586 43.0239 29.2574 42.5262 30.7953 41.6236C32.1327 40.839 33.5002 40.1172 34.5875 38.975C35.0093 38.5322 35.5201 38.1523 35.8935 37.6886C36.7711 36.5962 37.599 35.4539 38.2041 34.1754C38.8185 32.8786 39.3543 31.5504 39.6582 30.1409C39.7957 30.1147 39.8874 30.0715 39.7289 29.9405C39.8559 29.1427 39.9883 28.3463 40.1075 27.5473C40.1297 27.3953 40.2502 27.1635 39.9961 27.1137C39.78 27.0718 39.4866 27.0652 39.3281 27.1307C38.4347 27.4988 37.5466 27.2277 36.6584 27.1923C36.4305 27.1831 36.183 27.0508 36.1384 26.8307C36.0952 26.6212 36.3572 26.5517 36.5183 26.4548C36.7331 26.3251 36.9453 26.1954 37.1929 26.1365C37.223 26.1836 37.2505 26.2688 37.282 26.2701C37.3868 26.2753 37.375 26.1784 37.3841 26.1064C38.0745 25.8234 38.8002 25.8182 39.5272 25.8247C39.6752 25.826 39.9267 25.8666 39.8232 25.6099C39.7001 25.3034 39.7381 24.9838 39.6542 24.6746C39.4198 23.8153 39.3569 22.9128 39.0124 22.0784C39.0163 21.874 39.2089 21.6147 38.8486 21.5177C38.3286 20.3611 37.7902 19.2123 37.1903 18.0936C37.1628 18.0582 37.1353 18.0216 37.1077 17.9862C37.0685 17.9207 37.0292 17.8565 36.9912 17.791C37.0868 17.5041 37.0003 17.3889 36.7004 17.4046C36.5995 17.3745 36.6126 17.2867 36.6008 17.2107C36.6061 17.0588 36.6074 16.9094 36.3925 16.9121C36.0218 16.6003 35.8214 16.1366 35.4952 15.8117C34.4814 14.7992 33.4452 13.7971 32.1943 13.0635C32.1969 12.9024 32.1144 12.926 32.0174 12.9836C31.6375 12.626 31.2171 12.364 30.7101 12.182C29.9726 11.9174 29.2797 11.5322 28.5671 11.1995C28.4007 10.8301 28.1414 10.7319 27.7812 10.9336C27.21 10.9768 26.7241 10.6559 26.1831 10.5537C25.2596 10.3808 24.3243 10.3835 23.3838 10.2407C23.6287 11.0109 23.7348 11.7353 23.5789 12.5029C23.4506 13.1356 23.2331 13.4159 22.7327 13.3792C22.3254 13.3491 22.1027 13.0033 22.0974 12.4086C22.0909 11.7654 22.2219 11.1458 22.4105 10.5367C22.548 10.5092 22.6384 10.466 22.4799 10.3363C22.1341 10.0848 21.7909 10.3284 21.4464 10.3415C20.5268 10.3756 19.6374 10.5839 18.744 10.7895C17.9476 10.9729 17.1983 11.2952 16.4189 11.527C16.1727 11.3148 16.1281 11.4694 16.1203 11.6907C15.6644 11.8977 15.2086 12.1034 14.7527 12.3103C14.7187 12.2527 14.6689 12.199 14.6086 12.2579C14.5497 12.3169 14.6034 12.368 14.661 12.402C14.1423 12.6483 13.7546 13.112 13.1913 13.2836C13.0996 13.3229 12.8219 13.1723 12.9922 13.4788C12.4709 13.9045 11.9495 14.3289 11.4269 14.7546C10.9867 14.7114 10.7889 14.9105 10.8322 15.3493C10.523 15.7358 10.1864 16.1039 9.91129 16.5125C9.64144 16.9121 9.28515 17.2264 8.98387 17.5932C8.98387 17.6587 8.98387 17.7242 8.98387 17.7897C8.78083 18.0831 8.5791 18.3766 8.37607 18.6713C8.24114 18.6687 8.156 18.7106 8.20316 18.8691C8.22805 19.1258 7.99881 19.3 7.98309 19.545C7.93069 19.5607 7.88616 19.583 7.90712 19.6511C7.54296 20.699 6.97053 21.6749 6.79369 22.7897C6.571 22.8971 6.49765 23.0569 6.62471 23.2835C6.58672 23.5429 6.54873 23.8022 6.51206 24.0616C6.42822 24.1048 6.3457 24.1494 6.34046 24.2594C6.64043 24.8384 6.10991 25.4239 6.37713 26.0199C6.42167 26.0042 6.478 25.9819 6.53563 25.9636C7.36743 25.6885 8.2084 25.6099 9.06508 25.8444C9.09128 25.9819 9.13451 26.0736 9.2655 25.9151C9.40959 25.9177 9.50652 25.9911 9.56547 26.1182C9.40566 26.2596 9.424 26.3592 9.63358 26.4155C9.44496 27.1792 8.95243 27.2617 8.21757 27.1766C7.7198 27.1189 7.205 27.0862 6.71509 26.9185C6.48324 26.8386 6.30902 26.8884 6.30902 27.2434C6.31164 28.2926 6.47407 29.317 6.68889 30.3374C6.62602 30.3479 6.55397 30.3583 6.55659 30.4396C6.56052 30.5182 6.63388 30.5247 6.69675 30.5339C6.98756 31.5962 7.26002 32.6651 7.7198 33.6724C7.69229 33.7419 7.73683 33.7589 7.79053 33.772C7.97523 34.4152 8.43763 34.9169 8.68652 35.5286C8.51492 35.7054 8.66556 35.7067 8.79131 35.7225C8.83978 35.7631 8.90527 35.7958 8.9354 35.8469C9.54713 36.9092 10.358 37.8196 11.2068 38.6855C12.1696 39.6666 13.2817 40.4774 14.4148 41.2529L14.4239 41.2621C14.4528 41.3878 14.53 41.4298 14.6519 41.3931L14.6492 41.3905Z" fill="#202020"/>
<path d="M11.3156 11.3174C11.8238 10.758 12.4015 10.2865 13.08 9.94458C12.9005 10.4397 12.3451 10.5236 12.0347 10.8851C11.943 10.9925 11.7989 11.0737 11.7033 11.2073C11.6168 11.3292 11.5029 11.4877 11.3156 11.3174Z" fill="#8DC63F"/>
<path d="M9.65192 12.8893C10.0357 12.4243 10.4601 11.9986 10.9252 11.6161C10.8204 12.2108 10.1837 12.8474 9.65192 12.8893Z" fill="#8DC63F"/>
<path d="M15.041 8.67273C15.5492 8.38193 16.0168 8.01123 16.6102 7.8894C16.4177 8.26797 15.413 8.76967 15.041 8.67273Z" fill="#8DC63F"/>
<path d="M14.2589 42.4541C14.2812 42.4135 14.2969 42.3414 14.3257 42.3349C14.6113 42.2773 15.3252 42.7501 15.4339 43.0593C15.0108 42.9178 14.5995 42.7554 14.2589 42.4528V42.4541Z" fill="#202020"/>
<path d="M38.9705 18.9607C38.605 18.7341 38.4151 18.4211 38.4792 17.9796C38.7321 18.2626 38.884 18.5953 38.9705 18.9607Z" fill="#202020"/>
<path d="M7.39362 15.8274C7.55997 15.4567 7.74991 15.1017 8.08132 14.845C7.98308 15.2641 7.78921 15.6165 7.39362 15.8274Z" fill="#8DC63F"/>
<path d="M8.08398 14.7508C8.31191 14.4888 8.44945 14.1482 8.76645 13.9635C8.74811 14.4076 8.5215 14.6709 8.08398 14.7508Z" fill="#8DC63F"/>
<path d="M3.87128 26.5138C3.87128 26.3501 3.87259 26.1863 3.8739 26.0239C4.06514 26.0134 4.17256 26.0789 4.16208 26.2937C4.15291 26.4981 4.02454 26.5151 3.87128 26.5138Z" fill="#8DC63F"/>
<path d="M3.96295 32.5918C3.80576 32.4516 3.88959 32.2669 3.87126 32.1006C4.23934 32.2014 4.26816 32.3652 3.96295 32.5918Z" fill="#8DC63F"/>
<path d="M8.86859 13.7709C8.95898 13.6019 9.09259 13.4748 9.25633 13.3766C9.31658 13.7237 9.30086 13.7394 8.86859 13.7709Z" fill="#8DC63F"/>
<path d="M5.43665 19.456C5.47725 19.2831 5.50083 19.1023 5.63313 18.9661C5.80997 19.2267 5.75103 19.3931 5.43665 19.456Z" fill="#8DC63F"/>
<path d="M4.06124 33.5716C3.92239 33.4655 3.98003 33.3148 3.96955 33.1786C4.11102 33.1904 4.22629 33.2402 4.24594 33.3987C4.26166 33.5296 4.16603 33.5585 4.06255 33.5716H4.06124Z" fill="#8DC63F"/>
<path d="M17.4879 9.54504C17.3818 9.80572 17.2377 9.91444 17.0019 9.66949C17.1643 9.62757 17.3254 9.58565 17.4879 9.54504Z" fill="#202020"/>
<path d="M3.96955 25.3374C3.97872 25.2012 3.92371 25.0493 4.06256 24.9445C4.37039 25.1554 4.26035 25.268 3.96955 25.3374Z" fill="#8DC63F"/>
<path d="M10.7038 13.467C10.8112 13.4906 10.9605 13.509 10.8544 13.6635C10.7562 13.8063 10.6187 13.8037 10.5165 13.6399C10.5794 13.5823 10.6409 13.5247 10.7038 13.467Z" fill="#202020"/>
<path d="M8.76117 37.8013C8.82274 37.703 8.90002 37.6834 8.98124 37.7698C9.07948 37.8746 9.09127 37.9833 8.96421 38.079C8.83976 38.0279 8.82536 37.8956 8.76117 37.8V37.8013Z" fill="#202020"/>
<path d="M6.51074 17.2972C6.5317 17.1439 6.58279 17.0064 6.70985 16.9055C6.92075 17.1767 6.7426 17.25 6.51074 17.2972Z" fill="#8DC63F"/>
<path d="M6.9024 16.6121C6.9417 16.4117 7.00589 16.2283 7.19976 16.1208C7.18666 16.337 7.18797 16.561 6.9024 16.6121Z" fill="#8DC63F"/>
<path d="M4.84979 21.0239C4.88778 20.8497 4.91398 20.6716 5.04235 20.5327C5.14452 20.762 5.09868 20.9322 4.84979 21.0239Z" fill="#8DC63F"/>
<path d="M5.81915 21.02C6.01957 21.2624 5.96324 21.3947 5.64886 21.4169C5.73925 21.299 5.68292 21.1183 5.81915 21.02Z" fill="#202020"/>
<path d="M4.16341 23.9646C4.1752 23.8284 4.11756 23.6764 4.25772 23.5717C4.39527 23.7433 4.4398 23.8926 4.16341 23.9646Z" fill="#8DC63F"/>
<path d="M34.746 13.2705C34.3897 13.429 34.4722 13.1513 34.4512 12.9745C34.5678 13.0557 34.6949 13.1238 34.746 13.2705Z" fill="#202020"/>
<path d="M4.15947 34.3562C4.02062 34.2501 4.07695 34.0995 4.06647 33.9633C4.34417 34.0353 4.29832 34.1859 4.15947 34.3562Z" fill="#8DC63F"/>
<path d="M4.3586 22.9849C4.3717 22.8487 4.31406 22.6967 4.45422 22.5919C4.64809 22.7779 4.5171 22.8853 4.3586 22.9849Z" fill="#8DC63F"/>
<path d="M4.26033 23.4748C4.27343 23.3385 4.21579 23.1866 4.35595 23.0818C4.54982 23.2678 4.42014 23.3752 4.26033 23.4748Z" fill="#8DC63F"/>
<path d="M14.0611 9.25954C14.1174 9.13117 14.2157 9.06698 14.3558 9.06567C14.3113 9.21107 14.3205 9.44031 14.0611 9.25954Z" fill="#8DC63F"/>
<path d="M4.45682 35.9229C4.31404 35.8194 4.37167 35.6662 4.35988 35.5312C4.51838 35.6308 4.64807 35.7369 4.45682 35.9229Z" fill="#8DC63F"/>
<path d="M36.3703 38.2885C36.2851 38.0645 36.5183 38.075 36.6008 37.9755C36.6205 38.1523 36.5759 38.2794 36.3703 38.2885Z" fill="#8AC13E"/>
<path d="M36.6991 37.7843C36.7148 37.652 36.7764 37.5511 36.8995 37.4922C37.0724 37.7542 36.8484 37.7437 36.6991 37.7843Z" fill="#8AC13E"/>
<path d="M36.9925 37.3926C37.0148 37.217 37.1091 37.1135 37.2859 37.09C37.2859 37.2851 37.1877 37.386 36.9925 37.3926Z" fill="#8AC13E"/>
<path d="M4.65332 21.7103C4.65463 21.6015 4.6363 21.4876 4.75026 21.4155C4.91138 21.5766 4.86291 21.6697 4.65332 21.7103Z" fill="#8DC63F"/>
<path d="M4.06644 24.5528C4.06644 24.444 4.04679 24.3301 4.15944 24.2567C4.32318 24.4165 4.27864 24.5108 4.06644 24.5528Z" fill="#8DC63F"/>
<path d="M7.7827 16.9043C7.87177 16.9671 7.92024 17.051 7.83771 17.1414C7.78532 17.2003 7.72506 17.1545 7.68707 17.0955C7.68969 17.0169 7.68707 16.9357 7.7827 16.903V16.9043Z" fill="#202020"/>
<path d="M4.35592 35.4343C4.24327 35.3622 4.26292 35.2469 4.26161 35.1395C4.4725 35.1801 4.51835 35.2744 4.35592 35.4343Z" fill="#8DC63F"/>
<path d="M4.25771 34.9444C4.14506 34.8723 4.16471 34.7571 4.16471 34.6497C4.3756 34.6916 4.42014 34.7859 4.25771 34.9444Z" fill="#8DC63F"/>
<path d="M23.4742 8.76305C23.3301 8.92417 23.2292 8.9019 23.1768 8.68969C23.2842 8.67921 23.4008 8.63467 23.4742 8.76305Z" fill="#202020"/>
<path d="M9.94534 14.1638C9.9401 14.4022 9.87067 14.4922 9.73706 14.4337C9.80387 14.342 9.81697 14.2084 9.94534 14.1638Z" fill="#202020"/>
<path d="M7.19322 17.884C7.28229 17.9456 7.33076 18.0268 7.25347 18.1198C7.20239 18.18 7.14213 18.1394 7.10283 18.0818C7.10283 18.0019 7.09759 17.9194 7.19322 17.8827V17.884Z" fill="#202020"/>
<path d="M36.3139 14.8398C36.0061 15.0153 36.1567 14.7337 36.1174 14.642C36.217 14.6734 36.2864 14.7363 36.3139 14.8398Z" fill="#202020"/>
<path d="M36.9034 15.5223C36.5929 15.7057 36.7449 15.4188 36.7056 15.3271C36.8012 15.3625 36.8733 15.4215 36.9034 15.5223Z" fill="#202020"/>
<path d="M9.35461 38.417C9.49609 38.4432 9.53407 38.5401 9.52097 38.6685C9.35985 38.6554 9.35461 38.5375 9.35461 38.417Z" fill="#8AC13E"/>
<path d="M31.5197 11.0214C31.3691 11.028 31.2197 11.0332 31.2171 10.8197C31.3114 10.8564 31.4044 10.8944 31.4987 10.931C31.5053 10.9612 31.5131 10.9913 31.5197 11.0214Z" fill="#202020"/>
<path d="M37.9946 35.9228C37.9605 35.7683 38.0404 35.687 38.1754 35.6399C38.1714 35.7709 38.178 35.9084 37.9946 35.9228Z" fill="#8AC13E"/>
<path d="M40.4428 25.6322C40.4533 25.5221 40.5332 25.4737 40.6223 25.4357C40.765 25.6859 40.5463 25.6073 40.4428 25.6322Z" fill="#8AC13E"/>
<path d="M17.5887 7.49385C17.632 7.41656 17.7066 7.40085 17.7865 7.39954C17.7669 7.52791 17.7433 7.64842 17.5887 7.49385Z" fill="#8DC63F"/>
<path d="M40.4389 23.9594C40.3354 23.9306 40.3354 23.8533 40.3472 23.7682C40.4638 23.7905 40.5725 23.8167 40.4389 23.9594Z" fill="#8AC13E"/>
<path d="M40.4428 26.5138C40.4271 26.4326 40.4205 26.3553 40.5148 26.3134C40.672 26.4457 40.579 26.4863 40.4428 26.5138Z" fill="#8AC13E"/>
<path d="M5.1668 23.573C5.21133 23.6044 5.29255 23.6372 5.29255 23.6673C5.29124 23.7695 5.19692 23.755 5.12488 23.7616C5.13929 23.6987 5.15239 23.6358 5.1668 23.5717V23.573Z" fill="#202020"/>
<path d="M5.24146 19.9458C5.24276 19.8659 5.25848 19.7913 5.33577 19.748C5.48903 19.9026 5.36983 19.9262 5.24146 19.9458Z" fill="#8DC63F"/>
<path d="M12.3818 12.0968C12.4355 12.1282 12.4918 12.1819 12.446 12.233C12.3687 12.3169 12.3228 12.233 12.2822 12.1715C12.315 12.1466 12.349 12.1217 12.3818 12.0968Z" fill="#202020"/>
<path d="M17.0988 7.69026C17.142 7.61298 17.2167 7.59726 17.2966 7.59595C17.277 7.72432 17.2534 7.84352 17.0988 7.69026Z" fill="#8DC63F"/>
<path d="M40.1258 22.2002C39.9896 22.1766 39.8861 22.1412 40.0446 21.9998C40.1363 22.0404 40.1415 22.1163 40.1258 22.2002Z" fill="#202020"/>
<path d="M11.9888 12.3916C12.0425 12.423 12.0989 12.4767 12.053 12.5278C11.9757 12.6117 11.9299 12.5278 11.8893 12.4663C11.922 12.4414 11.9561 12.4165 11.9888 12.3916Z" fill="#202020"/>
<path d="M40.0289 21.8086C39.894 21.7863 39.7865 21.7522 39.9463 21.6082C40.038 21.6488 40.0446 21.7247 40.0289 21.8086Z" fill="#202020"/>
<path d="M14.2563 10.9231C14.2366 11.058 14.2091 11.1785 14.0558 11.0122C14.0951 10.9218 14.1777 10.9257 14.2563 10.9231Z" fill="#202020"/>
<path d="M11.6103 40.6661C11.7636 40.6111 11.8199 40.6714 11.7976 40.8233C11.6928 40.8207 11.6234 40.7775 11.6103 40.6661Z" fill="#8AC13E"/>
<path d="M30.5293 10.4332C30.3918 10.5864 30.3551 10.4856 30.3315 10.3546C30.4154 10.3349 30.4809 10.3624 30.5293 10.4332Z" fill="#202020"/>
<path d="M14.551 8.96479C14.5929 8.88619 14.6676 8.87047 14.7462 8.86523C14.7279 8.99099 14.7095 9.11674 14.551 8.96479Z" fill="#8DC63F"/>
<path d="M34.0596 40.5311C34.0543 40.3988 34.1342 40.3464 34.2508 40.332C34.2508 40.4591 34.1879 40.5272 34.0596 40.5311Z" fill="#8AC13E"/>
<path d="M26.6114 9.1534C26.4647 9.31452 26.4333 9.20186 26.411 9.06825C26.4935 9.05908 26.5721 9.06039 26.6114 9.1534Z" fill="#202020"/>
<path d="M10.9252 40.0897C11.0745 40.0333 11.1243 40.0884 11.0902 40.2364C10.9972 40.2298 10.9383 40.1866 10.9252 40.0897Z" fill="#8AC13E"/>
<path d="M8.1783 16.3174C8.33287 16.489 8.19402 16.4955 8.06958 16.5099C8.08137 16.4313 8.07875 16.3462 8.1783 16.3174Z" fill="#202020"/>
<path d="M4.652 36.6093C4.5734 36.5661 4.55638 36.4941 4.55769 36.4128C4.68344 36.4325 4.80264 36.4561 4.652 36.6093Z" fill="#8DC63F"/>
<path d="M8.17438 37.0153C8.20582 36.9616 8.26083 36.904 8.31061 36.9524C8.39444 37.0323 8.30668 37.0769 8.24511 37.1162C8.22153 37.0821 8.19796 37.0494 8.17438 37.0153Z" fill="#202020"/>
<path d="M18.8646 9.17175C18.8554 9.23594 18.8515 9.31322 18.7703 9.31715C18.6877 9.32108 18.6786 9.2438 18.6681 9.18092C18.7336 9.1783 18.7991 9.17568 18.8633 9.17175H18.8646Z" fill="#202020"/>
<path d="M31.428 42.2982C31.445 42.1803 31.5302 42.2065 31.6061 42.2143C31.6087 42.3741 31.5249 42.3506 31.428 42.2982Z" fill="#8AC13E"/>
<path d="M32.7693 41.5123C32.7877 41.4639 32.8126 41.4219 32.8768 41.4364C32.8414 41.4612 32.806 41.4861 32.7693 41.5123Z" fill="#8AC13E"/>
<path d="M31.5197 11.0214C31.5118 10.9913 31.5053 10.9612 31.4987 10.931C31.5328 10.952 31.5655 10.9716 31.5996 10.9926C31.5773 11.0136 31.5511 11.024 31.521 11.0214H31.5197Z" fill="#8AC13E"/>
<path d="M39.0111 22.0797C39.3556 22.9141 39.4184 23.8166 39.6529 24.6759C39.7381 24.9851 39.6988 25.3047 39.8219 25.6112C39.9254 25.8666 39.6752 25.8273 39.5259 25.826C38.7975 25.8182 38.0718 25.8247 37.3828 26.1076C37.32 26.1181 37.2558 26.1273 37.1929 26.1378C36.9453 26.1967 36.7318 26.3277 36.5183 26.4561C36.3572 26.553 36.0952 26.6238 36.1384 26.832C36.1843 27.0521 36.4318 27.1844 36.6584 27.1936C37.5466 27.2289 38.4347 27.5001 39.3281 27.132C39.4866 27.0665 39.78 27.0731 39.9961 27.115C40.2502 27.1647 40.1297 27.3966 40.1075 27.5486C39.9883 28.3476 39.8559 29.144 39.7289 29.9418C39.6162 29.9771 39.6411 30.061 39.6582 30.1422C39.3543 31.5517 38.8185 32.8799 38.2041 34.1767C37.599 35.4552 36.7711 36.5975 35.8935 37.6899C35.5201 38.1549 35.008 38.5335 34.5875 38.9763C33.5002 40.1185 32.1327 40.8403 30.7953 41.6249C29.2574 42.5274 27.5873 43.0252 25.8608 43.3357C25.0539 43.4811 24.2234 43.6618 23.3798 43.5426C23.6471 42.4567 23.3497 41.4756 22.9096 40.5272C22.7982 40.2862 22.5467 40.2194 22.3922 40.5259C22.2559 40.7957 22.0673 41.0669 22.1931 41.4009C22.2847 41.6446 21.9979 41.7598 21.9992 41.9747C22.0018 42.3008 22.0215 42.6296 21.9913 42.9532C21.9743 43.13 22.2376 43.3199 22.0372 43.4326C21.842 43.5413 21.5695 43.5858 21.3442 43.5557C19.0126 43.2453 16.7949 42.5746 14.7475 41.3944C14.7318 41.3551 14.7161 41.3158 14.7003 41.2765C14.6833 41.3145 14.6663 41.3524 14.6492 41.3904C14.5274 41.4271 14.4501 41.3852 14.4213 41.2594C14.4331 41.2332 14.5222 41.2437 14.4593 41.1808C14.4436 41.2031 14.4279 41.2267 14.4122 41.249C13.2778 40.4735 12.1657 39.664 11.2042 38.6815C10.3553 37.8157 9.54451 36.9053 8.93278 35.8429C8.90265 35.7905 8.83715 35.7591 8.78869 35.7185C8.77297 35.6438 8.79786 35.5456 8.6839 35.5246C8.43501 34.9142 7.97261 34.4112 7.78791 33.768C7.76433 33.7353 7.74076 33.7025 7.71718 33.6685C7.2574 32.6612 6.98493 31.5923 6.69413 30.5299C6.69151 30.4644 6.68889 30.3989 6.68627 30.3334C6.47145 29.313 6.30902 28.2887 6.3064 27.2394C6.3064 26.8844 6.47931 26.8347 6.71247 26.9146C7.20238 27.0822 7.71718 27.115 8.21495 27.1726C8.94981 27.2591 9.44365 27.1752 9.63096 26.4115C9.76719 26.2753 9.73183 26.1797 9.56285 26.1142C9.5039 25.9858 9.40697 25.9125 9.26288 25.9112C9.22751 25.7985 9.14368 25.8234 9.06246 25.8404C8.20578 25.6073 7.36481 25.6845 6.53301 25.9596C6.47538 25.978 6.41905 26.0002 6.37451 26.016C6.1086 25.4199 6.63781 24.8344 6.33784 24.2554C6.44394 24.2319 6.66008 24.3039 6.50944 24.0576C6.54742 23.7983 6.58541 23.5389 6.62209 23.2795C6.73998 23.1355 6.76225 22.9599 6.79107 22.7857C6.96791 21.671 7.54034 20.6951 7.9045 19.6471C7.92938 19.6118 7.95427 19.5764 7.98047 19.541C7.99619 19.2974 8.22542 19.1232 8.20054 18.8651C8.30664 18.8415 8.52147 18.9136 8.37345 18.6673C8.57648 18.3739 8.77821 18.0805 8.98125 17.7858C9.04412 17.7766 9.11879 17.7687 9.11879 17.6875C9.11879 17.6063 9.04412 17.5984 8.98125 17.5893C9.28253 17.2225 9.64013 16.9081 9.90867 16.5086C10.1837 16.0999 10.5204 15.7318 10.8295 15.3454C11.0273 15.1476 11.2264 14.9485 11.4242 14.7507C11.9456 14.325 12.4669 13.9005 12.9896 13.4748L13.1887 13.2796C13.752 13.108 14.1397 12.6443 14.6584 12.3981C14.6885 12.3679 14.7187 12.3378 14.7501 12.3064C15.206 12.0994 15.6618 11.8938 16.1177 11.6868C16.2211 11.6409 16.3469 11.6318 16.4163 11.5231C17.1957 11.2899 17.945 10.969 18.7414 10.7856C19.6335 10.5799 20.5242 10.3703 21.4438 10.3376C21.7883 10.3245 22.1315 10.0808 22.4773 10.3323C22.366 10.3677 22.3895 10.4515 22.4079 10.5328C22.2193 11.1432 22.0883 11.7615 22.0948 12.4046C22.1 12.9993 22.3227 13.3451 22.7301 13.3753C23.2305 13.4119 23.448 13.1316 23.5763 12.4989C23.7322 11.7326 23.6261 11.0083 23.3811 10.2367C24.3217 10.3795 25.2569 10.3769 26.1804 10.5498C26.7214 10.6506 27.2061 10.9729 27.7785 10.9297C28.0209 11.0751 28.2802 11.172 28.5645 11.1956C29.2771 11.5296 29.97 11.9147 30.7075 12.178C31.2144 12.3601 31.6349 12.6221 32.0148 12.9797C32.0227 13.1172 32.1183 13.0635 32.1916 13.0596C33.4426 13.7931 34.4787 14.7952 35.4926 15.8078C35.8188 16.134 36.0179 16.5977 36.3899 16.9081C36.3899 17.0561 36.4711 17.1465 36.5982 17.2068C36.6087 17.2827 36.5969 17.3705 36.6977 17.4006C36.7947 17.529 36.8916 17.6587 36.9885 17.7871C37.0278 17.8526 37.0671 17.9167 37.1051 17.9822C37.0907 18.049 37.13 18.0766 37.1877 18.0897C37.7876 19.2083 38.326 20.3571 38.846 21.5138C38.8434 21.7181 38.8722 21.912 39.0097 22.0744L39.0111 22.0797ZM27.1079 27.7909C27.1354 27.7726 27.1629 27.7542 27.1904 27.7359C27.9855 27.7568 28.7859 27.7621 29.577 27.7568C30.4809 27.7503 31.3965 27.766 32.2938 27.6625C32.7117 27.614 33.1675 27.7188 33.5644 27.4922C33.6967 27.6442 33.736 27.5499 33.7622 27.4176C34.0386 27.487 34.3045 27.4516 34.5652 27.339C34.7158 27.2735 34.9097 27.3023 34.9451 27.0521C34.9818 26.7927 34.7525 26.8032 34.6451 26.6919C34.6294 26.6526 34.6137 26.6133 34.5979 26.5753C34.5809 26.6133 34.5639 26.6513 34.5469 26.6893C33.66 26.4364 32.751 26.4024 31.838 26.4194C30.6184 26.4417 29.4054 26.2491 28.1859 26.3146C28.1597 26.3159 28.1309 26.2923 28.0484 26.2557C28.6195 25.2732 29.1539 24.2751 29.7644 23.3254C30.4927 22.1923 31.1385 21.0147 31.8039 19.8476C31.8039 19.8253 31.8039 19.803 31.8039 19.7808C32.1013 19.4114 32.3475 19.0197 32.5021 18.5599C32.6724 18.053 32.4995 17.6849 32.1235 17.3875C31.7594 17.0981 31.3441 17.1295 30.9511 17.3312C29.712 17.9691 28.6129 18.8298 27.4393 19.5738C26.1948 20.3624 24.9701 21.1824 23.706 22.0076C23.4872 19.9432 23.2711 17.9089 22.7537 15.8628C22.5493 16.0213 22.5965 16.1405 22.5978 16.244C22.5991 18.2364 22.5808 20.2287 22.6227 22.2211C22.6332 22.7215 22.4472 22.9704 22.0503 23.1852C21.0207 23.7393 20.3356 24.6288 19.809 25.6374C19.5392 26.1522 19.2824 26.5268 18.5934 26.4338C18.0563 26.3618 17.497 26.4718 16.9521 26.4901C15.7889 26.5308 14.6296 26.5674 13.4769 26.7259C13.2987 26.6827 13.1874 26.8451 12.966 26.8373C13.1704 26.9447 13.3013 27.0534 13.4769 26.9866C13.5463 27.0246 13.6131 27.0717 13.6865 27.0979C14.0873 27.2394 14.5379 27.0626 14.889 27.1543C15.8125 27.3953 16.7346 27.3914 17.6647 27.3914C18.0144 27.3914 18.338 27.4857 18.7205 27.5525C18.5161 27.8105 18.3 27.9939 18.2541 28.2769C18.1231 28.3031 18.0328 28.345 18.1821 28.4734C17.907 28.7458 17.7813 29.0929 17.6883 29.4571C17.6883 29.4767 17.6883 29.4964 17.6883 29.516C17.4721 29.685 17.2979 29.8894 17.1787 30.1383C16.9757 30.188 16.9468 30.2863 17.0988 30.4317C16.9809 30.5993 16.8434 30.7552 16.7477 30.9347C15.9474 32.4424 15.1614 33.9567 14.3558 35.4618C14.0559 36.0211 13.7782 36.587 13.5751 37.1882C13.6 37.2301 13.5162 37.3729 13.6721 37.2917C13.8148 37.2812 13.9524 37.2681 14.0965 37.2367C14.8588 37.069 15.4837 36.6145 16.1308 36.2359C18.0315 35.1251 19.9099 33.9763 21.69 32.6743C21.8381 32.5655 21.9926 32.3009 22.2114 32.4201C22.3948 32.5197 22.269 32.7699 22.2939 32.9506C22.3057 33.0306 22.2965 33.1131 22.2952 33.1956C22.2874 33.9475 22.273 34.6981 22.2743 35.45C22.2743 36.2503 22.2861 37.0507 22.2978 37.851C22.3005 38.0685 22.3607 38.2846 22.5821 38.3619C22.8362 38.451 22.9554 38.2663 23.0458 38.0593C23.1938 37.7214 23.2161 37.3585 23.2921 37.0048C23.6785 35.1932 23.7885 33.3554 23.8527 31.515C23.8645 31.194 23.9824 30.9923 24.2169 30.8338C24.7199 30.4932 25.2176 30.1435 25.6263 29.6916C26.166 29.0943 26.6455 28.4472 27.1079 27.7883V27.7909Z" fill="white"/>
<path d="M28.5671 11.1995C28.2829 11.1759 28.0235 11.079 27.7812 10.9336C28.1414 10.7332 28.4008 10.8301 28.5671 11.1995Z" fill="#202020"/>
<path d="M11.4268 14.7546C11.229 14.9524 11.0299 15.1515 10.8321 15.3493C10.7889 14.9092 10.988 14.7114 11.4268 14.7546Z" fill="#202020"/>
<path d="M36.9899 17.7924C36.893 17.664 36.796 17.5343 36.6991 17.4059C36.9978 17.3902 37.0842 17.5055 36.9899 17.7924Z" fill="#202020"/>
<path d="M39.0111 22.0797C38.8735 21.9173 38.8447 21.7221 38.8473 21.519C39.2076 21.6173 39.015 21.8753 39.0111 22.0797Z" fill="#202020"/>
<path d="M6.79241 22.7883C6.76359 22.9625 6.74263 23.1394 6.62343 23.2822C6.49637 23.0542 6.56972 22.8957 6.79241 22.7883Z" fill="#202020"/>
<path d="M9.56285 26.1168C9.73183 26.1823 9.76719 26.2793 9.63096 26.4142C9.42007 26.3578 9.40304 26.257 9.56285 26.1168Z" fill="#202020"/>
<path d="M16.4177 11.527C16.3483 11.637 16.2238 11.6449 16.119 11.6907C16.1269 11.468 16.1714 11.3135 16.4177 11.527Z" fill="#202020"/>
<path d="M8.37475 18.6713C8.52277 18.9176 8.30794 18.8455 8.20184 18.8691C8.15337 18.7106 8.23983 18.67 8.37475 18.6713Z" fill="#FDFDFD"/>
<path d="M13.1913 13.2849L12.9922 13.4801C12.8232 13.1736 13.1009 13.3256 13.1913 13.2849Z" fill="#202020"/>
<path d="M36.5995 17.212C36.4725 17.1518 36.3899 17.0614 36.3913 16.9134C36.6061 16.9107 36.6048 17.0601 36.5995 17.212Z" fill="#202020"/>
<path d="M6.51077 24.0616C6.66141 24.3079 6.44397 24.2359 6.33917 24.2594C6.34572 24.1494 6.42694 24.1049 6.51077 24.0616Z" fill="#FDFDFD"/>
<path d="M8.98254 17.5933C9.04542 17.6024 9.12008 17.6116 9.12008 17.6915C9.12008 17.7727 9.04542 17.7806 8.98254 17.7897C8.98254 17.7243 8.98254 17.6588 8.98254 17.5933Z" fill="#FDFDFD"/>
<path d="M9.0625 25.8431C9.14371 25.8261 9.22755 25.8012 9.26292 25.9139C9.13193 26.0724 9.09001 25.9807 9.0625 25.8431Z" fill="#202020"/>
<path d="M37.1916 26.1366C37.2545 26.1261 37.3187 26.1169 37.3816 26.1064C37.3737 26.1785 37.3855 26.2741 37.2794 26.2702C37.2479 26.2689 37.2204 26.1837 37.1903 26.1366H37.1916Z" fill="#202020"/>
<path d="M14.7514 12.3116C14.7213 12.3418 14.6912 12.3719 14.6597 12.4033C14.6021 12.3693 14.5471 12.3195 14.6073 12.2592C14.6663 12.2003 14.7174 12.254 14.7514 12.3116Z" fill="#202020"/>
<path d="M39.6582 30.1396C39.6411 30.0584 39.6162 29.9746 39.7289 29.9392C39.8874 30.0702 39.7957 30.1121 39.6582 30.1396Z" fill="#202020"/>
<path d="M6.68757 30.3361C6.69019 30.4016 6.69281 30.4671 6.69543 30.5325C6.63255 30.5234 6.5592 30.5168 6.55527 30.4382C6.55134 30.3583 6.62469 30.3478 6.68757 30.3361Z" fill="#202020"/>
<path d="M8.68393 35.526C8.7979 35.547 8.77301 35.6452 8.78873 35.7199C8.66297 35.7041 8.51233 35.7028 8.68393 35.526Z" fill="#202020"/>
<path d="M22.4105 10.5367C22.3909 10.4555 22.3673 10.373 22.48 10.3363C22.6385 10.466 22.5481 10.5092 22.4105 10.5367Z" fill="#202020"/>
<path d="M32.1943 13.0648C32.1223 13.0687 32.0266 13.1224 32.0175 12.9849C32.1144 12.9286 32.1956 12.905 32.1943 13.0648Z" fill="#232323"/>
<path d="M14.6492 41.3905C14.6663 41.3525 14.6833 41.3145 14.7003 41.2765C14.716 41.3158 14.7318 41.3551 14.7475 41.3944C14.7147 41.3944 14.682 41.3931 14.6492 41.3918V41.3905Z" fill="#FDFDFD"/>
<path d="M37.189 18.0936C37.1314 18.0805 37.0934 18.053 37.1065 17.9862C37.134 18.0216 37.1615 18.0583 37.189 18.0936Z" fill="#202020"/>
<path d="M7.98181 19.5437C7.95692 19.5791 7.93203 19.6144 7.90583 19.6498C7.88356 19.5804 7.9281 19.5594 7.98181 19.5437Z" fill="#FDFDFD"/>
<path d="M7.71717 33.6711C7.74075 33.7039 7.76433 33.7366 7.7879 33.7707C7.73551 33.7589 7.68966 33.7406 7.71717 33.6711Z" fill="#FDFDFD"/>
<path d="M13.5751 37.1909C13.7782 36.5896 14.0559 36.0237 14.3558 35.4644C15.1614 33.9606 15.9474 32.445 16.7478 30.9373C16.8434 30.7579 16.9809 30.6007 17.0988 30.4343C17.4119 30.4147 17.1132 30.2287 17.1787 30.1409C17.2979 29.892 17.4708 29.6877 17.6883 29.5187C17.7132 29.5135 17.7394 29.5069 17.7642 29.5017C17.738 29.4873 17.7132 29.4728 17.687 29.4597C17.7787 29.0956 17.9057 28.7485 18.1808 28.476C18.2895 28.4419 18.2699 28.3594 18.2528 28.2795C18.2987 27.9966 18.5148 27.8132 18.7192 27.5551C18.3367 27.487 18.0131 27.394 17.6634 27.394C16.7333 27.394 15.8112 27.3992 14.8877 27.1569C14.5366 27.0652 14.086 27.2421 13.6852 27.1006C13.6118 27.0744 13.545 27.0272 13.4756 26.9892C13.4756 26.9015 13.4756 26.815 13.4756 26.7273C14.6296 26.5688 15.7889 26.5308 16.9508 26.4915C17.4957 26.4731 18.0551 26.3631 18.5921 26.4352C19.2811 26.5268 19.5379 26.1535 19.8077 25.6387C20.3356 24.6301 21.0207 23.7407 22.049 23.1866C22.4459 22.973 22.6332 22.7229 22.6214 22.2225C22.5782 20.2314 22.5978 18.2377 22.5965 16.2453C22.5965 16.1418 22.5481 16.0226 22.7524 15.8641C23.2698 17.9102 23.4873 19.9445 23.7047 22.0089C24.9688 21.1837 26.1936 20.3637 27.438 19.5751C28.6117 18.8311 29.7107 17.9705 30.9499 17.3325C31.3415 17.1308 31.7568 17.0994 32.1222 17.3889C32.4982 17.6862 32.6711 18.0543 32.5008 18.5613C32.3462 19.021 32.1 19.4114 31.8026 19.7821C31.7764 19.7886 31.7489 19.7965 31.7227 19.8031C31.7502 19.8188 31.7764 19.8332 31.8039 19.8489C31.1385 21.016 30.4927 22.1936 29.7644 23.3267C29.154 24.2764 28.6195 25.2746 28.0484 26.257C28.1309 26.2937 28.1584 26.3173 28.1859 26.3159C29.4068 26.2505 30.6184 26.443 31.838 26.4207C32.751 26.4037 33.6601 26.4378 34.5469 26.6906C34.5796 26.6906 34.6124 26.6932 34.6451 26.6945C34.7525 26.8059 34.9818 26.7954 34.9451 27.0547C34.9097 27.3049 34.7159 27.2761 34.5652 27.3416C34.3046 27.4543 34.0399 27.4896 33.7622 27.4202C33.6823 27.4071 33.5985 27.3848 33.5644 27.4949C33.1675 27.7215 32.7117 27.6167 32.2938 27.6652C31.3978 27.7686 30.4809 27.7529 29.5771 27.7595C28.7859 27.7647 27.9855 27.7595 27.1904 27.7385C27.121 27.694 27.1144 27.7451 27.1079 27.7935C26.6455 28.4524 26.166 29.0995 25.6264 29.6968C25.2177 30.1488 24.7199 30.4972 24.2169 30.8391C23.9824 30.9976 23.8632 31.2006 23.8527 31.5202C23.7886 33.362 23.6785 35.1985 23.2921 37.0101C23.2161 37.3638 23.1952 37.7266 23.0458 38.0646C22.9554 38.2715 22.8362 38.4562 22.5821 38.3672C22.3607 38.2899 22.3018 38.0737 22.2979 37.8563C22.2861 37.0559 22.2743 36.2556 22.2743 35.4552C22.2743 34.7033 22.2887 33.9528 22.2952 33.2009C22.2952 33.1196 22.3044 33.0371 22.2939 32.9559C22.269 32.7751 22.3948 32.5236 22.2114 32.4254C21.9927 32.3075 21.8381 32.5708 21.6901 32.6795C19.9099 33.9803 18.0315 35.1304 16.1308 36.2412C15.4837 36.6197 14.8602 37.0743 14.0965 37.242C13.9524 37.2734 13.8149 37.2865 13.6721 37.297C13.6393 37.2629 13.6079 37.2289 13.5751 37.1935V37.1909ZM14.3558 36.2176C14.348 36.27 14.327 36.3656 14.3349 36.3682C14.441 36.401 14.4384 36.3119 14.4541 36.2464C14.4882 36.2058 14.5222 36.1665 14.5563 36.1259C14.6781 36.1233 14.7619 36.046 14.851 35.9779C15.4667 35.5076 16.0849 35.0387 16.7019 34.5684C16.7176 34.5619 16.7347 34.5592 16.7478 34.5501C18.7847 33.0764 20.8229 31.6041 22.8559 30.1265C23.7624 29.4676 24.6059 28.7472 25.2295 27.7948C25.9984 26.6212 26.7123 25.4134 27.4144 24.1991C27.8598 23.4302 28.3091 22.6626 28.7571 21.895C29.2588 21.1064 29.7591 20.3178 30.2556 19.5371C30.122 19.435 30.0788 19.4861 30.0237 19.5214C28.2383 20.6427 26.4411 21.7457 24.6701 22.8892C23.7715 23.4695 22.7996 23.9358 22.0084 24.6838C20.6552 25.9623 19.7435 27.5604 18.7572 29.1034C17.9201 30.4121 17.1329 31.7521 16.3522 33.0948C15.7666 34.1021 15.1156 35.0727 14.4947 36.0591C14.4489 36.1115 14.4017 36.1652 14.3558 36.2176Z" fill="#202020"/>
<path d="M13.4742 26.726C13.4742 26.8138 13.4742 26.9002 13.4742 26.988C13.2987 27.0535 13.169 26.9461 12.9634 26.8386C13.1848 26.8465 13.2948 26.6828 13.4742 26.7273V26.726Z" fill="#202020"/>
<path d="M17.1787 30.1396C17.1132 30.2274 17.4119 30.4134 17.0988 30.4331C16.9468 30.2864 16.9757 30.1894 17.1787 30.1396Z" fill="#FDFDFD"/>
<path d="M33.5645 27.4896C33.5985 27.3809 33.6823 27.4019 33.7622 27.415C33.7361 27.546 33.6968 27.6403 33.5645 27.4896Z" fill="#FDFDFD"/>
<path d="M18.2516 28.2769C18.2686 28.3581 18.2882 28.4393 18.1795 28.4733C18.0302 28.345 18.1206 28.3031 18.2516 28.2769Z" fill="#FDFDFD"/>
<path d="M13.5751 37.1909C13.6079 37.225 13.6393 37.259 13.6721 37.2944C13.5162 37.3756 13.6 37.2328 13.5751 37.1909Z" fill="#FDFDFD"/>
<path d="M34.6438 26.6905C34.6111 26.6905 34.5783 26.6879 34.5456 26.6866C34.5626 26.6486 34.5796 26.6106 34.5967 26.5726C34.6124 26.6119 34.6281 26.6512 34.6438 26.6892V26.6905Z" fill="#FDFDFD"/>
<path d="M14.4122 41.2502C14.4279 41.228 14.4436 41.2044 14.4593 41.1821C14.5222 41.245 14.4331 41.2345 14.4213 41.2607L14.4122 41.2502Z" fill="#FDFDFD"/>
<path d="M17.687 29.4585C17.7131 29.4729 17.738 29.4873 17.7642 29.5004C17.7393 29.5057 17.7131 29.5122 17.6883 29.5174C17.6883 29.4978 17.6883 29.4781 17.6883 29.4585H17.687Z" fill="#FDFDFD"/>
<path d="M27.1066 27.7896C27.1131 27.7398 27.1184 27.6901 27.1891 27.7346C27.1616 27.7529 27.1341 27.7713 27.1066 27.7896Z" fill="#FDFDFD"/>
<path d="M31.8026 19.845C31.7751 19.8293 31.7489 19.8149 31.7214 19.7992C31.7476 19.7926 31.7751 19.7847 31.8013 19.7782C31.8013 19.8005 31.8013 19.8227 31.8013 19.845H31.8026Z" fill="#FDFDFD"/>
<path d="M28.757 21.8937C28.309 22.6613 27.8597 23.4289 27.4144 24.1978C26.7109 25.4121 25.9983 26.6199 25.2294 27.7935C24.6059 28.7458 23.761 29.4663 22.8559 30.1252C20.8229 31.6028 18.7846 33.0751 16.7477 34.5488C16.7346 34.5579 16.7176 34.5606 16.7032 34.5671C16.7189 34.4715 16.7176 34.368 16.7517 34.2802C17.7197 31.7508 18.9667 29.3877 20.8622 27.4163C21.4254 26.8307 21.9992 26.2491 22.6161 25.7212C23.1427 25.2693 23.7112 24.8515 24.3086 24.5017C24.826 24.1991 25.3329 23.8808 25.832 23.552C26.7699 22.9324 27.6973 22.2984 28.757 21.895V21.8937Z" fill="#F6941E"/>
<path d="M28.757 21.8937C27.6973 22.2972 26.7686 22.9312 25.832 23.5508C25.3329 23.8809 24.826 24.1979 24.3085 24.5004C23.7099 24.8502 23.1427 25.2681 22.6161 25.72C22.0005 26.2479 21.4254 26.8295 20.8622 27.415C18.9667 29.3864 17.7184 31.7495 16.7516 34.279C16.7176 34.368 16.7189 34.4702 16.7032 34.5658C16.0862 35.0361 15.4679 35.505 14.8523 35.9753C14.7632 36.0434 14.6794 36.1207 14.5575 36.1233C14.5392 36.0984 14.5182 36.0762 14.496 36.0565C15.1182 35.0702 15.7692 34.1008 16.3547 33.0922C17.1355 31.7482 17.9227 30.4095 18.7597 29.1009C19.7474 27.5578 20.6578 25.9597 22.011 24.6812C22.8021 23.9333 23.7741 23.4669 24.6727 22.8866C26.4437 21.7431 28.2409 20.6401 30.0263 19.5188C30.0813 19.4848 30.1246 19.4324 30.2582 19.5346C29.7617 20.3153 29.2613 21.1038 28.7596 21.8924L28.757 21.8937Z" fill="#FEB063"/>
<path d="M14.4541 36.2451C14.4383 36.3106 14.441 36.3984 14.3349 36.3669C14.327 36.3643 14.348 36.2687 14.3558 36.2163C14.3886 36.2255 14.4213 36.236 14.4541 36.2451Z" fill="#242521"/>
<path d="M14.4541 36.2452C14.4213 36.236 14.3886 36.2255 14.3558 36.2164C14.4017 36.164 14.4488 36.1103 14.4947 36.0579C14.5183 36.0775 14.5392 36.0998 14.5563 36.1247C14.5222 36.1653 14.4881 36.2046 14.4541 36.2452Z" fill="#FAAD62"/>
</svg>
