<svg width="107" height="72" viewBox="0 0 107 72" fill="none" xmlns="http://www.w3.org/2000/svg">
<g filter="url(#filter0_d_15_66)">
<path d="M99.5667 56.0109C99.2816 57.5474 98.1146 58.49 97.0269 59.3374C94.4079 61.3809 91.4008 62.6191 88.0663 62.9703H87.0789C86.1443 63.2844 85.1701 63.2026 84.2407 63.06C83.7285 62.9835 83.2375 62.9623 82.7332 62.9703C82.4982 62.7855 82.2501 62.664 81.9438 62.7723C77.9493 61.9301 74.3587 60.2615 71.5074 57.2966C68.8408 54.5245 67.0799 51.2375 66.4647 47.3777C66.2218 45.8569 65.8364 44.3283 65.9789 42.805C66.1717 40.7483 66.1479 38.586 67.1406 36.7274C67.7109 35.6581 67.5921 34.1955 68.8936 33.5038C69.126 33.3797 68.9385 32.8279 69.2976 32.6246C69.5748 32.6378 69.4613 32.4002 69.5194 32.2735C70.1398 30.964 71.18 30.0162 72.2466 29.0921C72.4842 29.1 72.64 29.0076 72.6585 28.7489C73.4373 28.3133 74.2109 27.8697 74.995 27.4447C75.2986 27.281 75.5785 27.1543 75.3118 26.7318C74.2029 24.9656 73.6168 22.9564 72.6981 21.1031C72.5766 20.8575 72.5423 20.4694 72.2809 20.4272C71.9377 20.3691 71.877 20.7889 71.7212 21.0212C69.4058 24.4587 67.0086 27.8301 64.4028 31.059C62.0557 33.9684 59.8248 36.9755 57.5147 39.9193C56.4798 41.2367 55.5319 42.6281 54.431 43.8953C52.9605 45.5876 50.9724 46.0206 48.8788 46.1104C46.3284 46.2186 43.7781 46.2609 41.2251 46.311C40.8396 46.319 40.7393 46.4008 40.6258 46.8232C40.3089 48.0139 39.8548 49.1703 39.4298 50.332C39.3136 50.6488 39.0575 50.8653 38.7064 50.9339C38.6298 50.8996 38.5533 50.8653 38.4793 50.8283C38.4318 50.7781 38.3843 50.728 38.3341 50.6752C38.1097 49.3472 38.4873 48.043 38.4873 46.7255C38.6483 46.6041 38.7856 46.48 38.4793 46.3665C37.4259 46.3638 36.3699 46.3586 35.3165 46.3559C35.1845 46.3269 35.1369 46.3797 35.1581 46.5091C34.8228 48.3017 34.2842 50.0151 33.302 51.5702C31.9239 53.7509 29.9702 55.2928 27.668 56.3277C26.5723 56.8188 25.2866 56.824 24.0827 57.03C22.8471 57.2412 21.6485 56.8636 20.5502 56.6392C15.893 55.6941 12.5928 52.8586 10.618 48.5076C10.5705 48.4363 10.523 48.3677 10.4781 48.2964C10.0214 47.4859 10.3487 46.4246 9.6491 45.6933C9.35869 44.5052 9.44053 43.2934 9.44581 42.0895C9.44581 41.7647 9.41149 41.4585 9.28477 41.1601C9.33493 41.1126 9.38509 41.0651 9.43525 41.0202C9.95272 39.5444 10.3435 38.0263 11.0246 36.6112C11.2886 36.6059 11.4127 36.466 11.4101 36.2046C11.3863 35.9881 11.5421 35.8614 11.6398 35.6977C12.4265 34.3961 13.7598 33.678 14.8132 32.6616C15.0587 32.8015 15.1802 32.7434 15.1617 32.4477C15.3439 32.5243 15.5524 32.6616 15.563 32.2946C15.724 32.2471 15.9247 32.284 15.9986 32.0675C16.194 32.1784 16.3577 32.2259 16.3524 31.9038C17.4005 31.719 18.417 31.3309 19.5074 31.4339C19.6737 31.4709 19.84 31.5105 19.9139 31.2861C20.1093 31.2861 20.302 31.2808 20.4974 31.2808C20.574 31.4735 20.7429 31.4709 20.904 31.4656C23.2247 31.3626 25.2285 32.2972 27.1928 33.3744C27.0713 33.4536 26.9499 33.5354 26.8284 33.6147C26.7044 33.6015 26.5723 33.6094 26.4588 33.5698C23.9771 32.6985 21.4637 32.1283 18.8104 32.651C17.0204 33.0021 15.4495 33.8285 14.2456 35.1433C12.1863 37.3927 11.1566 40.0645 11.4074 43.1878C11.5922 45.5032 12.2312 47.6628 13.5723 49.5452C15.4125 52.1299 17.9022 53.8381 21.0043 54.5852C23.5336 55.1924 25.9625 54.7727 28.1775 53.5186C30.6144 52.1378 31.9265 49.7987 32.8823 47.2536C33.0908 46.7018 33.0618 46.2794 32.2117 46.3005C29.9464 46.3559 27.6786 46.311 25.4133 46.3163C24.7295 46.3163 24.0563 46.3163 23.3857 46.1289C23.1771 46.0708 22.929 45.9837 22.9448 45.8226C22.9659 45.5929 23.2194 45.5375 23.4676 45.5164C26.3981 45.2629 29.326 44.9857 32.2592 44.7402C32.8532 44.69 33.3865 44.4075 33.2968 43.8716C33.1463 42.9713 33.2783 42.0499 33.0512 41.1733C32.5232 39.1484 31.3008 37.5458 29.92 36.033C29.5346 35.6106 29.2838 35.7056 29.0382 36.1149C28.5577 36.9122 28.1089 37.7306 27.6178 38.52C26.4007 40.479 25.2417 42.4749 23.8873 44.3441C23.7421 44.3389 23.5996 44.3309 23.4543 44.3257C23.4913 44.2042 23.5124 44.0749 23.5626 43.9613C24.8932 41.0149 26.34 38.1266 27.866 35.2779C28.1168 34.8106 28.3914 34.3724 28.0191 33.8496C28.2171 33.7968 28.4495 33.95 28.6105 33.6569C29.3603 32.3051 30.1444 30.9719 30.9048 29.6254C31.116 29.2505 30.8863 29.1 30.5484 29.034C30.2025 28.8571 29.8751 28.6301 29.5108 28.5113C26.6647 27.5846 23.7738 27.2995 20.7773 27.6823C16.2838 28.2552 12.614 30.164 9.80223 33.7651C8.85442 34.977 8.31848 36.3868 7.76669 37.7517C7.52908 38.3431 7.47628 39.2936 7.28091 39.9246C6.79776 41.4849 6.89281 43.0188 6.90073 44.5659C6.90337 45.0887 7.18058 45.5586 7.14626 46.1817C7.09346 47.1717 7.49212 48.1908 7.56604 49.2205C7.56604 49.2495 7.74557 49.268 7.84061 49.2891C7.80101 49.7538 8.30792 49.8911 8.4188 50.2792C9.15012 52.885 10.8372 54.836 12.7777 56.6102C12.7935 57.0062 13.0179 57.1567 13.3902 57.1356C14.2641 57.7824 15.0086 58.6325 16.1412 58.8675C16.722 58.989 17.0098 59.6701 17.5537 59.7388C18.6968 59.884 19.737 60.3724 20.8961 60.5123C22.9474 60.7605 24.9619 60.8344 27.0159 60.6073C27.6574 60.5361 28.3201 60.0978 28.9933 60.5229C29.0593 60.5229 29.1254 60.5229 29.194 60.5229C29.9834 59.7652 31.0711 59.583 31.9978 59.084C34.3026 57.8458 36.0055 56.1112 37.2332 53.7932C37.5738 53.149 37.6081 52.217 38.4582 51.8685C38.4609 53.1807 37.8483 54.3159 37.352 55.467C37.0669 56.1297 37.2306 57.0722 36.3039 57.389C36.2379 57.4418 36.1745 57.4946 36.1085 57.5501C34.9996 58.6325 33.8512 59.6859 32.4414 60.3433C30.617 61.1961 28.7689 61.9961 26.7545 62.3551C24.9962 62.6693 23.2379 62.5373 21.4822 62.5162C19.811 62.495 18.2375 61.8984 16.6587 61.3888C15.6528 61.0667 14.6865 60.6734 13.7835 60.1269C13.7519 60.0476 13.7202 59.9684 13.6859 59.8892C13.6515 59.9684 13.6172 60.045 13.5855 60.1242C13.4879 60.1321 13.3374 60.1823 13.303 60.1374C11.9434 58.416 9.87088 57.4894 8.56665 55.636C7.70597 54.4136 6.72648 53.2546 6.12981 51.8976C5.5965 50.6857 4.95495 49.4686 4.91799 48.0826C4.41108 47.5994 4.65134 46.8391 4.27116 46.311C4.04939 45.1124 4.08899 43.898 4.11275 42.6888C4.13915 41.4268 4.07843 40.1067 4.53781 38.9477C5.09488 37.5379 5.10016 35.9934 5.9978 34.6337C6.6552 33.6358 7.06706 32.4187 7.80893 31.426C9.73623 28.8492 12.313 27.1411 15.2515 25.9372C17.8837 24.86 20.632 24.4349 23.4676 24.5326C24.2543 24.559 25.0463 24.5168 25.8357 24.5062C26.0998 24.5722 26.3638 24.6382 26.6251 24.7042C28.4864 25.0131 30.287 25.52 31.9582 26.4177C32.312 26.6077 32.4915 26.7582 32.8031 26.2249C34.7779 22.8429 36.8161 19.5005 38.8674 16.166C39.0443 15.8783 38.9889 15.733 38.8859 15.4849C38.2813 14.0434 37.7031 12.5913 37.1038 11.1498C36.9375 10.7538 36.8213 10.363 36.9771 9.9142C37.4391 9.92476 37.6371 10.2997 37.8404 10.6086C38.6008 11.7623 39.3295 12.9371 40.074 14.0988C40.3089 14.4658 40.5386 14.6004 41.0746 14.4895C43.3187 14.0275 45.613 13.8876 47.8835 13.6051C49.3857 13.4177 50.9012 13.4388 52.4087 13.217C53.5466 13.0507 54.8165 13.0322 56.0309 13.056C59.7746 13.1325 63.5157 12.8078 67.2647 12.8949C68.1148 12.9134 68.9491 13.1906 69.8705 13.0032C69.551 12.0078 69.3847 10.9623 68.664 10.1439C68.5425 10.004 68.5003 9.86404 68.5135 9.70035C68.6402 8.10307 67.8086 6.71964 67.4997 5.22005C67.3835 4.65242 66.8819 4.35936 66.3406 4.36464C64.1599 4.38576 62.0135 4.04783 59.8538 3.88414C59.1489 3.83134 58.5311 3.53036 57.85 3.53564C57.7945 3.31651 57.5992 3.37987 57.454 3.33763C57.0685 2.78849 57.6467 2.75416 57.879 2.6512C58.6711 2.30006 59.5529 2.35022 60.3898 2.18654C60.6248 2.14165 60.8069 2.04925 61.0023 1.94364C61.3323 1.94364 61.6597 1.941 61.9897 1.93836C63.5817 2.02813 65.1103 1.45786 66.6971 1.4869C66.8845 1.48954 67.0746 1.37866 67.262 1.3813C69.7781 1.42618 72.2836 1.02488 74.8023 1.18065C75.4755 1.22289 76.1619 1.25721 76.814 1.40506C77.1784 1.4869 77.6246 1.63211 77.6087 2.22614C77.5955 2.76736 77.519 3.22939 76.9223 3.34555C75.8557 3.55148 74.7204 3.66501 73.7198 3.88678C72.2519 4.21152 70.7365 3.76533 69.3398 4.52041C71.4625 8.4014 73.2947 12.5068 74.0736 17.0109C73.9785 17.3594 74.0577 17.6392 74.393 17.8188C74.6702 18.6029 74.9475 19.3896 75.2247 20.1737C75.1798 20.216 75.1349 20.2609 75.09 20.3031C75.1349 20.3084 75.1824 20.3137 75.2273 20.319C75.3092 20.4061 75.391 20.4906 75.4728 20.5777C75.42 20.7176 75.5098 20.7572 75.6181 20.7836C76.323 22.3756 77.0517 23.9597 77.7222 25.5675C77.9097 26.019 78.179 26.2276 78.6014 26.1008C80.8957 25.4012 83.285 25.3563 85.6374 25.2032C86.5878 25.1425 87.6412 25.5121 88.6207 25.7629C89.7586 26.0533 90.8543 26.5233 91.9446 26.9747C92.1664 27.0671 92.7895 27.1701 92.3169 27.7113C92.1585 27.6796 91.9948 27.6638 91.8417 27.6163C88.032 26.3754 84.1958 26.085 80.3201 27.3021C78.6357 27.8301 78.6384 27.8407 79.4674 29.4406C79.4806 29.467 79.5202 29.4776 79.5492 29.496C79.7525 29.9554 79.9558 30.4148 80.1564 30.8742C80.1723 31.4022 80.3043 31.8352 80.9564 31.8273C81.6376 31.991 82.2606 31.5712 82.9312 31.6293C83.2612 31.6953 83.5886 31.7613 83.9186 31.8273C84.3173 31.8748 84.7318 31.8273 85.104 32.0253C85.7614 32.2259 86.4215 32.4266 87.0789 32.6272C87.4458 32.8411 87.8339 33.0285 88.1745 33.2794C88.3197 33.3876 88.7342 33.5671 88.2907 33.8496C86.44 33.0497 84.5047 32.6325 82.4903 32.6642C81.0039 32.688 80.9511 32.82 81.5452 34.1638C81.6983 34.5123 81.8276 34.8714 81.9649 35.2251C83.4196 38.9873 85.1331 42.6492 86.2129 46.5539C86.3212 46.9447 86.3528 47.3169 85.941 47.4674C85.5977 47.5915 85.3153 47.4569 85.0697 47.0688C84.4625 46.1183 83.8341 45.1811 83.3352 44.1699C81.8039 41.0625 80.299 37.9418 78.7783 34.8318C78.6146 34.4938 78.5618 33.9235 77.9255 34.3988C75.1376 36.4739 73.8624 39.3543 73.6802 42.7178C73.601 44.2121 74.0129 45.6906 74.6042 47.1084C76.5791 51.8316 81.2732 54.9073 86.5931 53.5899C90.9097 52.5206 93.8798 49.1201 94.1782 44.5659C94.3445 42.0393 93.5155 39.7582 92.1796 37.6171C91.3955 36.3604 90.1282 35.5314 89.4233 34.2324C89.8167 34.2351 90.2127 34.2377 90.6061 34.243C90.643 34.3486 90.6958 34.4252 90.8252 34.3935C92.1162 34.9743 93.1776 35.8324 93.9723 37.0125C94.6402 37.7834 94.9887 38.7523 95.5458 39.5893C95.6989 40.178 95.852 40.7694 96.0051 41.3582L96.2111 42.3482C96.0976 42.6518 96.1979 42.9053 96.388 43.1402L96.4064 43.7343C96.4064 43.9983 96.4064 44.2623 96.4064 44.5263C96.3801 44.785 96.3537 45.0464 96.3272 45.3052C96.0368 45.5322 96.1952 45.8332 96.1979 46.1104C96.1345 46.3744 96.0712 46.6384 96.0078 46.9024C95.9391 47.1664 95.8705 47.4305 95.8019 47.6945C95.7385 47.9585 95.6778 48.2225 95.6144 48.4865C95.3293 49.0753 95.0415 49.6666 94.7564 50.2554C94.5003 50.6541 94.2415 51.0527 93.9854 51.4514V51.4487C93.3017 52.1457 92.6179 52.8454 91.9341 53.5424L91.9605 53.5846L91.9235 53.5503C91.4905 53.8328 91.0575 54.1153 90.6246 54.3978C89.3071 55.1 87.9158 55.6096 86.4716 55.9713C86.1495 56.069 85.7614 55.8657 85.4921 56.1904C83.6546 56.3752 81.9016 55.9449 80.1617 55.4327C79.8977 55.306 79.6337 55.1792 79.3723 55.0525C78.4536 54.5034 77.5348 53.9569 76.616 53.4077C76.4101 53.0856 76.1725 52.7926 75.8266 52.613C75.6999 52.4863 75.5732 52.3596 75.4464 52.2329L73.4531 49.6535C73.0598 48.7347 72.6664 47.8159 72.2704 46.8945C72.2096 46.6305 72.3733 46.3058 72.0671 46.1051C71.9905 45.3791 71.914 44.6557 71.8374 43.9296V42.5436C71.914 41.8175 71.9905 41.0941 72.0697 40.3681C72.3813 40.1701 72.2123 39.8427 72.2757 39.5787C72.5423 39.3068 72.5819 38.9372 72.6875 38.5966C73.1443 37.5273 73.7568 36.5531 74.4458 35.6212C74.8947 35.1459 75.2564 34.5862 75.8108 34.214C76.2147 33.8919 76.616 33.5698 77.02 33.245C77.086 33.245 77.1467 33.2213 77.1995 33.179C78.0866 32.8675 77.6747 32.3448 77.4186 31.8458C77.2629 31.1937 76.6741 30.7448 76.5764 30.0637C75.956 28.7172 75.7897 28.6908 74.8867 29.8208C73.5429 30.4412 72.5133 31.4313 71.6631 32.622C70.9318 33.0972 70.6678 33.8813 70.3378 34.6232C69.3583 36.3551 68.9544 38.2982 68.3445 40.1648C68.3445 40.3628 68.3445 40.5608 68.3445 40.7589C68.3445 41.3529 68.3445 41.9469 68.3445 42.5409C68.3445 42.6729 68.3445 42.805 68.3445 42.937C68.3339 43.5864 68.2204 44.257 68.3366 44.8827C68.524 45.8992 68.5636 46.9684 69.1365 47.8846C69.0362 48.1486 69.3504 48.4126 69.1365 48.6766C69.1101 48.8033 69.1788 48.8561 69.2923 48.8773C69.3082 49.2046 69.324 49.5346 69.3425 49.862C69.3636 50.0785 69.5194 50.1762 69.6883 50.2633C69.9655 50.7887 70.2428 51.3167 70.5226 51.8421C70.4355 52.2012 70.5358 52.4757 70.8843 52.6342C71.4572 53.2599 71.8189 54.0651 72.5133 54.5905C72.7984 55.2611 73.4294 55.5436 73.9785 55.9211C74.0973 56.3699 74.2399 56.795 74.8339 56.7475C75.1613 56.964 75.4887 57.1805 75.8161 57.3969C76.0616 57.7164 76.4391 57.7428 76.7876 57.8379C77.1441 58.1203 77.5427 58.3078 77.9889 58.3949C78.2159 58.5982 78.4588 58.7725 78.7783 58.7883C78.8997 59.0734 79.1743 58.9203 79.3697 58.9942C79.6733 59.1896 79.9901 59.3454 80.365 59.3322C81.3181 59.7097 82.2949 59.9552 83.3272 59.9262C83.6573 59.9922 83.9846 60.0582 84.3147 60.1242C84.6658 60.1348 85.0222 60.1876 85.3681 60.148C85.8987 60.0846 86.5456 60.441 86.9284 59.7625C86.9838 59.7625 87.0393 59.7625 87.0947 59.7572C88.5811 60.0714 89.9381 59.6833 91.2344 58.9837C91.3638 58.9626 91.4932 58.9441 91.6252 58.9229C91.8311 58.8121 92.0978 58.8147 92.235 58.5797C92.8212 58.6114 93.1723 58.2154 93.5393 57.8511C93.8957 58.0438 93.9538 57.5976 94.194 57.5448C95.1603 57.0405 95.8969 56.2828 96.5226 55.4037C96.6045 55.2769 96.6863 55.1502 96.7682 55.0235C96.9662 54.6855 97.3331 54.4558 97.4018 54.0361C97.6579 53.5054 97.914 52.9774 98.1727 52.4467C98.3866 52.2962 98.3443 52.0639 98.3707 51.85C99.6565 48.5288 100.148 45.1019 99.7489 41.5562C100.261 41.0493 99.9733 40.6823 99.5376 40.3443C99.3924 39.4573 99.3634 38.5332 99.0783 37.6937C97.9588 34.4146 96.5253 31.3019 93.8931 28.9047C93.6079 28.6459 93.2911 28.3714 93.4205 27.9014C94.0884 27.7905 94.6983 27.9753 95.2606 28.3106C96.3352 28.9522 97.3569 29.665 98.1437 30.663C98.1727 30.8108 98.1014 31.0036 98.3258 31.0643C98.5608 31.7164 99.2921 31.9883 99.5218 32.6431C99.5139 33.0655 99.6063 33.4114 100.118 33.443C100.977 35.336 101.766 37.2475 102.186 39.3041C102.355 40.1331 102.518 40.9225 102.278 41.7489C102.413 41.8809 102.545 42.0103 102.679 42.1423C102.719 45.1177 102.851 48.1037 101.908 50.9946C101.866 51.1266 101.837 51.2375 101.7 51.2903C101.565 51.2534 101.52 51.3088 101.547 51.4382C101.37 52.1642 101.238 52.9008 101.008 53.611C100.786 54.2948 100.266 54.8571 100.118 55.5832C99.9099 55.6835 99.4479 55.4485 99.5746 55.995L99.5667 56.0109ZM67.7188 22.7584C67.6422 22.468 67.8323 22.175 67.9722 22.0614C69.1682 21.0793 69.7728 19.5533 71.085 18.6874C71.2328 18.5897 71.3358 18.426 71.2671 18.2649C70.9661 17.5521 70.6441 16.6492 69.9101 16.504C69.1022 16.3429 68.3049 16.0393 67.4416 16.0551C63.4444 16.137 59.4499 15.9997 55.4475 16.166C52.1579 16.3007 48.8683 16.496 45.5813 16.6756C44.4434 16.7389 43.2685 16.6703 42.1227 16.9792C41.6554 17.1059 41.7214 17.2353 41.8587 17.494C43.1497 19.9177 44.2823 22.4152 45.3173 24.9603C46.1621 27.0354 46.9753 29.1212 47.6063 31.2729C47.5719 31.4128 47.6485 31.4577 47.77 31.4656C48.0525 33.3612 48.8867 35.1037 49.3435 36.9623C49.8002 38.8289 50.4075 40.6744 50.7243 42.5832C50.8088 43.0954 51.0516 42.9818 51.3183 42.8366C51.4846 42.7469 51.6114 42.5753 51.7407 42.4301C53.441 40.516 54.8614 38.3854 56.4243 36.363C58.1826 34.0872 59.97 31.8299 61.7864 29.599C62.9058 28.2261 63.8748 26.7266 65.1552 25.4857C65.2952 25.5253 65.3374 25.4487 65.3427 25.3273C65.9209 24.5907 66.7023 24.0231 67.1327 23.1624C67.3835 23.1096 67.6686 23.1043 67.7188 22.7558V22.7584ZM40.0951 18.5949C38.1678 21.5994 36.3514 24.4323 34.5376 27.2678C34.3555 27.5529 34.2446 27.838 34.63 28.0915C36.3382 29.2136 37.3441 30.9296 38.2866 32.651C38.9994 33.95 39.4694 35.3571 39.8839 36.8145C40.4304 38.7286 40.9241 40.6242 41.0376 42.599C41.1195 43.9877 41.0482 43.993 42.4263 43.9323C42.524 43.927 42.6243 43.9428 42.722 43.9349C44.5648 43.8056 46.4076 43.6841 48.2478 43.5336C48.7494 43.494 49.0715 43.3013 48.7468 42.6888C47.8122 40.9305 47.205 39.0375 46.5819 37.1551C45.4255 33.6727 44.0817 30.2564 43.0124 26.7398C42.1966 24.06 41.1327 21.4595 40.0951 18.5976V18.5949ZM36.9111 44.3283C36.9111 44.3283 36.9111 44.3283 36.9111 44.3309C37.2728 44.3309 37.6345 44.3204 37.9936 44.3309C38.6536 44.3547 38.7645 43.956 38.6853 43.4307C38.3711 41.3634 37.9935 39.3068 37.2728 37.3372C36.3778 34.8872 35.2663 32.5639 33.2228 30.8214C32.8664 30.5178 32.6684 30.333 32.3331 30.8636C31.6546 31.9303 31.1451 33.1025 30.3002 34.0661C30.0204 34.3856 30.2817 34.6153 30.5933 34.837C31.586 35.5472 32.5575 36.2997 33.339 37.2448C34.865 39.0903 35.3138 41.3318 35.4933 43.6313C35.5462 44.2966 35.7758 44.4022 36.3197 44.3257C36.5124 44.2993 36.7131 44.3204 36.9111 44.3204V44.3283Z" fill="#202020"/>
<path d="M29.0013 60.5255C28.3307 60.1004 27.6654 60.5387 27.0238 60.61C24.9698 60.837 22.9554 60.7631 20.904 60.5149C19.7424 60.375 18.7021 59.8866 17.5616 59.7414C17.0177 59.6727 16.7326 58.9916 16.1491 58.8701C15.0165 58.6351 14.272 57.785 13.3981 57.1382C13.3585 56.7712 13.142 56.6102 12.7856 56.6128C10.8451 54.8386 9.15807 52.8876 8.42675 50.2818C8.31851 49.8937 7.80896 49.7564 7.84856 49.2917C8.71453 48.2251 9.49865 47.1189 9.65441 45.6959C10.354 46.4298 10.0267 47.4885 10.4834 48.299C10.4412 48.4284 10.523 48.4759 10.6233 48.5102C12.5982 52.8612 15.8957 55.6967 20.5555 56.6418C21.6538 56.8636 22.8498 57.2438 24.088 57.0326C25.2919 56.8267 26.5777 56.8214 27.6733 56.3303C29.9755 55.2954 31.9266 53.7535 33.3073 51.5728C34.2895 50.0178 34.8281 48.3017 35.1634 46.5117C35.2162 46.4615 35.269 46.4087 35.3218 46.3585C36.3752 46.3612 37.4312 46.3665 38.4846 46.3691C38.4846 46.4879 38.4899 46.6067 38.4926 46.7282C38.4926 48.0482 38.1177 49.3524 38.3394 50.6778C38.3051 50.8072 38.3606 50.8494 38.4846 50.8309C38.5612 50.8652 38.6378 50.8996 38.7117 50.9365C38.7117 51.2718 38.6747 51.5992 38.4662 51.8817C37.6187 52.2302 37.5844 53.1622 37.2411 53.8063C36.0135 56.1244 34.3106 57.8589 32.0058 59.0972C31.0791 59.5961 29.9887 59.7757 29.2019 60.536C29.1808 60.4119 29.1597 60.2879 29.1386 60.1638C28.9089 60.2192 29.0488 60.4119 29.0039 60.536L29.0013 60.5255Z" fill="#00A79D"/>
<path d="M26.9974 2.76735C27.3538 1.01695 29.5689 0.0612193 31.3536 0.013697C33.9806 -0.0523063 36.5837 0.114022 39.2054 0.512682C41.2752 0.826857 43.0652 1.68226 44.9318 2.4347C46.4129 3.03137 47.1126 5.14083 46.1859 6.77771C45.8083 7.44303 45.0453 7.46151 44.4645 7.72288C43.155 8.31163 41.7425 8.5994 40.301 8.70765C38.4793 8.84229 36.5969 8.71293 34.8492 9.05615C32.0981 9.59473 27.6284 6.30249 27.0291 3.95013C27.0132 3.88677 27.008 3.82077 26.9974 3.75476C26.9974 3.42475 26.9974 3.09473 27 2.76471L26.9974 2.76735ZM34.2472 2.90992C33.0433 2.968 32.0295 2.92576 31.0262 3.15281C30.1154 3.35874 30.0124 3.53827 30.6117 4.24583C31.4434 5.22796 32.4361 6.02792 33.5713 6.63515C34.4294 7.09453 35.4326 7.37174 36.1428 7.98953C36.6286 8.41195 36.89 8.35915 37.3546 8.18226C39.3981 7.40342 41.5947 7.04701 43.522 5.94079C43.8441 5.75598 44.3906 5.77446 44.3747 5.29924C44.3589 4.8557 43.8863 4.65241 43.5325 4.43592C43.3715 4.33559 43.1708 4.29599 42.9834 4.24319C40.0634 3.43003 37.0933 2.95216 34.2498 2.90728L34.2472 2.90992Z" fill="#202020"/>
<path d="M93.4152 27.9146C93.2858 28.3846 93.6026 28.6565 93.8878 28.9179C96.52 31.3125 97.9536 34.4252 99.073 37.7069C99.3581 38.5438 99.3872 39.4705 99.5324 40.3575C99.5139 40.611 99.3977 40.7668 99.1284 40.7747C97.4467 40.2651 96.4117 39.1035 95.6223 37.559C93.5129 33.4325 90.2972 30.6339 85.6954 29.5858C83.6493 29.1212 81.6006 29.2822 79.5466 29.504C79.5202 29.4855 79.4779 29.4749 79.4647 29.4485C78.6384 27.8512 78.6331 27.8407 80.3175 27.31C84.1906 26.0929 88.0293 26.3807 91.839 27.6242C91.9922 27.6744 92.1559 27.6902 92.3143 27.7192L92.2984 27.6981C92.4304 27.8644 92.5941 27.9357 92.8053 27.8644C92.932 27.8776 93.0588 27.8882 93.1855 27.9014C93.2621 27.9067 93.3386 27.912 93.4152 27.9146Z" fill="#8FD5D0"/>
<path d="M4.27644 46.311C4.65661 46.8416 4.41636 47.5994 4.92327 48.0825C4.05466 47.9083 3.71145 46.9657 4.27644 46.311Z" fill="white"/>
<path d="M74.3931 17.8267C74.0578 17.6471 73.9786 17.3699 74.0736 17.0188C74.3799 17.0161 74.6888 17.0399 74.7838 17.399C74.8656 17.7079 74.6439 17.795 74.3904 17.8267H74.3931Z" fill="white"/>
<path d="M87.0789 62.9702H88.0663C88.0293 63.2923 87.8841 63.5299 87.5251 63.5009C87.2214 63.4771 87.1053 63.2501 87.0789 62.9702Z" fill="white"/>
<path d="M26.9974 2.76733C26.9974 3.09735 26.9974 3.42737 26.9948 3.75738C26.7149 3.72834 26.4879 3.61218 26.4641 3.30856C26.4377 2.94686 26.6727 2.8043 26.9974 2.76733Z" fill="white"/>
<path d="M61.9924 1.94362C61.6623 1.94362 61.335 1.94626 61.0049 1.9489C61.0419 1.62416 61.1845 1.38655 61.5435 1.41295C61.8498 1.43407 61.9659 1.66377 61.9924 1.94362Z" fill="white"/>
<path d="M26.6331 24.7042C26.3691 24.6382 26.105 24.5722 25.8437 24.5062C25.8648 24.2633 25.812 23.9385 26.2001 23.9861C26.612 24.0362 26.6331 24.3768 26.6331 24.7042Z" fill="white"/>
<path d="M81.9438 62.7722C82.2501 62.6639 82.5009 62.7854 82.7332 62.9702C82.3557 63.4692 82.2395 63.4401 81.9438 62.7722Z" fill="white"/>
<path d="M100.113 33.4588C99.601 33.4245 99.5086 33.0787 99.5165 32.6589C99.9997 32.7143 100.058 33.0866 100.113 33.4588Z" fill="#FAFAFA"/>
<path d="M99.5667 56.0109C99.4399 55.4644 99.902 55.6993 100.111 55.599C100.118 55.9871 99.8571 56.0188 99.5667 56.0109Z" fill="#FAFAFA"/>
<path d="M102.674 42.1607C102.539 42.0287 102.407 41.8993 102.273 41.7673C102.46 41.8439 103.007 41.5508 102.674 42.1607Z" fill="#FDFDFD"/>
<path d="M92.8079 27.8644C92.5967 27.9357 92.433 27.8644 92.301 27.6981C92.3406 27.0011 92.6891 27.6004 92.8845 27.5582C92.8581 27.6611 92.8343 27.7614 92.8079 27.8644Z" fill="#202020"/>
<path d="M98.3206 31.0774C98.0961 31.0167 98.1701 30.824 98.1384 30.6761C98.4024 30.7184 98.6427 30.7712 98.3206 31.0774Z" fill="#FAFAFA"/>
<path d="M72.6611 28.7436C72.6426 29.0023 72.4869 29.0947 72.2493 29.0868C72.2651 28.8254 72.3575 28.6564 72.6611 28.7436Z" fill="#242424"/>
<path d="M57.4566 3.34021C57.5992 3.38245 57.7972 3.31645 57.8526 3.53822C57.5226 3.87088 57.4909 3.60158 57.4566 3.34021Z" fill="white"/>
<path d="M69.5194 32.2682C69.4586 32.3949 69.5748 32.6325 69.2976 32.6193C69.155 32.3632 69.2184 32.2391 69.5194 32.2682Z" fill="#FAFAFA"/>
<path d="M92.8079 27.8644C92.8317 27.7614 92.8581 27.6611 92.8845 27.5581C93.0192 27.6426 93.1776 27.7086 93.1881 27.9013C93.0614 27.8881 92.9347 27.8776 92.8079 27.8644Z" fill="#242424"/>
<path d="M13.5934 60.1268C13.6278 60.0476 13.6621 59.971 13.6938 59.8918C13.7255 59.971 13.7571 60.0503 13.7915 60.1295C13.7255 60.1295 13.6594 60.1295 13.5934 60.1268Z" fill="#222221"/>
<path d="M75.6181 20.7889C75.5098 20.7625 75.42 20.7229 75.4728 20.5829C75.5204 20.6516 75.5705 20.7202 75.6181 20.7889Z" fill="#FAFAFA"/>
<path d="M36.1164 57.5553C36.1824 57.5025 36.2458 57.4497 36.3118 57.3942C36.3012 57.513 36.2564 57.5922 36.1164 57.5553Z" fill="#222221"/>
<path d="M75.23 20.3268C75.1851 20.3216 75.1376 20.3163 75.0927 20.311C75.1376 20.2688 75.1824 20.2239 75.2273 20.1816C75.23 20.2292 75.2326 20.2793 75.23 20.3268Z" fill="#FAFAFA"/>
<path d="M101.539 51.4539C101.515 51.3246 101.56 51.2691 101.692 51.3061C101.642 51.3563 101.589 51.4038 101.539 51.4539Z" fill="#FDFDFD"/>
<path d="M88.3646 33.8549H88.2933C88.7369 33.5724 88.3224 33.3929 88.1771 33.2846C87.8392 33.0312 87.4511 32.8437 87.0815 32.6325C86.9627 32.1626 85.7139 31.3732 85.2941 31.5263C85.0776 31.6055 85.1172 31.8405 85.1067 32.0306C84.7344 31.8299 84.3199 31.8801 83.9213 31.8326C83.9213 31.4973 83.8896 31.1567 83.4751 31.1065C83.1187 31.0643 82.9708 31.3098 82.9338 31.6346C82.2633 31.5765 81.6402 31.9963 80.959 31.8326C81.0013 31.2544 80.8798 30.8135 80.1591 30.8795C79.9558 30.4201 79.7525 29.9607 79.5518 29.5013C81.6032 29.2796 83.652 29.1185 85.7007 29.5832C90.3025 30.6313 93.5181 33.4298 95.6276 37.5564C96.417 39.1008 97.4519 40.2625 99.1337 40.772C99.2023 41.1443 99.271 41.5139 99.7515 41.5694C100.15 45.1151 99.6591 48.5446 98.3733 51.8632C97.9166 51.9319 97.8136 52.1193 98.1753 52.4599C97.9192 52.9906 97.6631 53.5186 97.4044 54.0493C96.6124 54.0044 96.4012 54.3344 96.7708 55.0367C96.6889 55.1634 96.6071 55.2901 96.5252 55.4169C94.9544 55.2637 94.9095 56.7765 94.1966 57.558C93.9564 57.6108 93.8983 58.057 93.5419 57.8643C92.3565 57.7349 92.1796 57.8326 92.2377 58.5929C92.1004 58.8253 91.8337 58.8253 91.6278 58.9362C91.5671 58.8464 91.5116 58.6801 91.4483 58.6774C91.245 58.6642 91.2608 58.8543 91.2397 58.9969C89.9408 59.6965 88.5864 60.0846 87.1 59.7704C87.0657 59.7203 87.0287 59.6701 86.9944 59.6199C86.9759 59.6728 86.9548 59.7229 86.9363 59.7757C86.5535 60.4516 85.9066 60.0952 85.376 60.1612C85.0301 60.2034 84.6737 60.148 84.3226 60.1374C84.3226 59.8021 84.2909 59.4615 83.8764 59.4114C83.52 59.3691 83.3721 59.6147 83.3351 59.9394C82.3029 59.9684 81.3234 59.7229 80.3729 59.3454C80.3782 58.9995 80.3254 58.6827 79.9083 58.6088C79.5967 58.5533 79.404 58.6748 79.3776 59.0074C79.1822 58.9309 78.9077 59.0866 78.7862 58.8015C78.7915 58.4794 78.7994 58.1468 78.406 58.0385C78.1103 57.9567 78.0232 58.1626 77.9942 58.4081C77.548 58.321 77.1493 58.1309 76.7929 57.8511C76.8167 57.5158 76.8378 57.1699 76.4286 57.0485C76.1197 56.9587 75.9454 57.1567 75.8213 57.4102C75.494 57.1937 75.1666 56.9772 74.8392 56.7607C74.8049 55.7046 74.6861 55.5911 73.9838 55.9343C73.4347 55.5594 72.801 55.2743 72.5185 54.6037C72.6637 53.8803 71.9007 52.6236 71.0876 52.2513C70.9265 52.1669 70.8922 52.019 70.8896 51.8553C71.143 51.1002 70.219 49.1386 69.4903 48.8957C69.4322 48.8773 69.3636 48.8905 69.2976 48.8905C69.1867 48.8693 69.1154 48.8165 69.1418 48.6898C69.456 48.6528 69.7015 48.5156 69.6619 48.1591C69.6276 47.8555 69.3504 47.9162 69.1418 47.8978C68.5689 46.9816 68.5319 45.9097 68.3418 44.8959C68.2257 44.2702 68.3418 43.5996 68.3498 42.9502C68.4765 42.9317 68.6296 42.9158 68.6296 42.7521C68.6296 42.5885 68.4791 42.5726 68.3498 42.5541C68.3498 41.9601 68.3498 41.3661 68.3498 40.772C68.5029 40.743 68.6587 40.714 68.6824 40.5212C68.7115 40.2757 68.5478 40.2097 68.3498 40.1807C68.9596 38.3141 69.3609 36.3736 70.3431 34.639C71.3331 34.5361 71.6658 34.0344 71.6684 32.6378C72.5212 31.4471 73.5482 30.4597 74.8946 29.8393C75.4464 30.0056 75.9982 30.1561 76.5843 30.0822C76.682 30.7633 77.2708 31.2095 77.4265 31.8642C76.4946 32.1679 77.4001 32.7725 77.2074 33.1975C77.1546 33.2398 77.0965 33.2609 77.0279 33.2635C76.3124 33.1949 75.7052 33.2635 75.8187 34.2324C75.2643 34.6047 74.9026 35.1644 74.4538 35.6396C74.1845 35.5076 73.836 35.3413 73.733 35.7479C73.5746 36.363 73.0703 36.6746 72.7588 37.1392C72.5027 37.522 71.8981 38.1002 72.6954 38.6151C72.5898 38.9556 72.5502 39.3253 72.2836 39.5972C72.0143 39.6025 71.7872 39.6896 71.7186 39.9747C71.6473 40.2625 71.8321 40.3602 72.0776 40.384C72.0011 41.11 71.9219 41.8334 71.8453 42.5594C71.3859 42.5093 71.1562 42.7891 71.1272 43.1772C71.0902 43.6445 71.4176 43.8663 71.8479 43.9455C71.9245 44.6715 72.0011 45.3949 72.0776 46.121C71.8321 46.1447 71.6473 46.2424 71.7186 46.5302C71.7872 46.8153 72.0143 46.9024 72.2809 46.9104C72.6743 47.8291 73.0677 48.7479 73.4637 49.6693C73.131 50.7438 74.2848 52.2408 75.457 52.2487C75.5837 52.3754 75.7105 52.5022 75.8372 52.6289C75.8425 53.3523 76.1056 53.6172 76.6266 53.4236C77.5453 53.9727 78.4641 54.5192 79.3829 55.0684C79.3776 55.3641 79.404 55.6545 79.7314 55.7706C80.0033 55.8657 80.1432 55.7178 80.1749 55.4485C81.9148 55.9581 83.6652 56.3911 85.5053 56.2063C85.9858 56.824 86.3185 56.7792 86.4848 55.9871C87.9316 55.6254 89.3203 55.1159 90.6378 54.4136C90.6721 54.7278 90.8516 54.9443 91.1367 54.7463C91.538 54.4691 92.243 54.3423 91.9367 53.5661L91.9737 53.6005L91.9473 53.5582C93.2541 53.7325 94.0039 52.9668 93.9986 51.4619V51.4646C94.7537 51.388 95.1735 51.0976 94.7696 50.2686C95.0547 49.6799 95.3425 49.0885 95.6276 48.4997C95.955 48.4997 96.2903 48.4707 96.3352 48.0615C96.3774 47.676 96.0553 47.7288 95.8151 47.7077C95.8837 47.4437 95.9523 47.1796 96.021 46.9156C96.3484 46.9156 96.6837 46.8866 96.7312 46.4774C96.7734 46.0919 96.4513 46.1447 96.2111 46.1236C96.2111 45.849 96.05 45.548 96.3404 45.3184C96.5464 45.3104 96.7206 45.2603 96.7523 45.0174C96.7866 44.7586 96.7021 44.5791 96.4196 44.5395C96.4196 44.2755 96.4196 44.0115 96.4196 43.7475C96.5728 43.7184 96.7232 43.6815 96.7417 43.4861C96.7629 43.2406 96.5939 43.1825 96.4012 43.1534C96.2111 42.9185 96.1107 42.665 96.2243 42.3614C96.5464 42.3192 96.7813 42.166 96.7365 41.8149C96.6837 41.4057 96.351 41.3687 96.0183 41.3714C95.8652 40.7826 95.7121 40.1912 95.559 39.6025C95.9154 38.689 95.0124 37.2132 93.9854 37.0257C93.1908 35.8456 92.1321 34.9849 90.8384 34.4067C90.7645 34.3565 90.6932 34.3064 90.6193 34.2562C90.2259 34.2536 89.8299 34.2483 89.4365 34.2456L89.3441 34.2668L89.257 34.2324C89.3124 33.7018 88.8847 33.6411 88.5441 33.5513C88.3408 33.4985 88.3224 33.6939 88.3752 33.8602L88.3646 33.8549Z" fill="#00A79D"/>
<path d="M9.65702 45.6932C9.50125 47.1163 8.71713 48.2251 7.85117 49.2891C7.75613 49.2653 7.57924 49.2495 7.5766 49.2205C7.50267 48.1908 7.10401 47.1691 7.15682 46.1817C7.19114 45.5586 6.91392 45.0887 6.91128 44.5659C6.90336 43.0188 6.80568 41.4849 7.29146 39.9246C7.48683 39.2936 7.53963 38.3431 7.77725 37.7517C8.32639 36.3868 8.86498 34.977 9.81279 33.7651C12.6245 30.164 16.2943 28.2552 20.7878 27.6823C23.7844 27.2994 26.6727 27.5846 29.5214 28.5113C29.8857 28.6301 30.2131 28.8571 30.5589 29.034C30.2606 29.0921 30.192 29.3904 30.0045 29.5647C29.1993 30.3145 28.5366 31.1646 27.3855 31.558C26.0998 31.9962 24.946 31.7982 23.7368 31.4603C22.6755 31.1646 21.6142 30.7897 20.508 31.2834C20.3126 31.2834 20.1199 31.2887 19.9245 31.2887C19.6552 30.9692 19.576 31.1699 19.5179 31.4365C18.4275 31.3336 17.4111 31.7217 16.363 31.9065C16.2151 31.8986 16.0329 31.8141 16.0092 32.0702C15.9379 32.2867 15.7346 32.2497 15.5736 32.2972C15.4072 32.2655 15.2383 32.2286 15.1723 32.453V32.4503C15.0482 32.5058 14.8343 32.4187 14.8238 32.6642C13.7703 33.6806 12.4344 34.3988 11.6503 35.7003C11.55 35.864 11.3942 35.9908 11.4206 36.2073C11.2437 36.2944 10.8609 36.1888 11.0352 36.6138C10.3514 38.0289 9.96063 39.547 9.44581 41.0229C9.3138 40.9832 9.27156 41.0387 9.29532 41.1628C9.42205 41.4585 9.45637 41.7674 9.45637 42.0921C9.45109 43.296 9.36925 44.5078 9.65966 45.6959L9.65702 45.6932Z" fill="#8FD5D0"/>
<path d="M36.9085 44.3282C36.7105 44.3282 36.5124 44.3045 36.3171 44.3335C35.7732 44.4101 35.5409 44.3018 35.4907 43.6392C35.3112 41.3422 34.8624 39.0981 33.3364 37.2527C32.5549 36.3075 31.5833 35.5551 30.5906 34.8449C30.2791 34.6231 30.0177 34.3934 30.2976 34.074C31.1424 33.1077 31.652 31.9381 32.3305 30.8715C32.6684 30.3408 32.8638 30.523 33.2202 30.8292C35.2663 32.5717 36.3752 34.895 37.2702 37.3451C37.9909 39.3146 38.3685 41.3713 38.6826 43.4385C38.7618 43.9665 38.651 44.3626 37.9909 44.3388C37.6292 44.3256 37.2675 44.3388 36.9085 44.3388C36.9085 44.3388 36.9085 44.3388 36.9085 44.3361V44.3282Z" fill="#00A79D"/>
<path d="M20.5053 31.2807C21.6115 30.787 22.6702 31.1619 23.7342 31.4576C24.9407 31.7929 26.0971 31.9935 27.3829 31.5553C28.534 31.1619 29.1966 30.3118 30.0019 29.562C30.1893 29.3877 30.258 29.0894 30.5563 29.0313C30.8942 29.0947 31.1239 29.2478 30.9127 29.6227C30.1524 30.9692 29.3682 32.3024 28.6184 33.6542C28.4574 33.9472 28.2251 33.7915 28.0271 33.8469C27.9531 33.839 27.8766 33.8337 27.8026 33.8258C27.7314 33.5037 27.4409 33.4747 27.2033 33.3743C25.2417 32.2972 23.2352 31.3625 20.9145 31.4655C20.7535 31.4734 20.5845 31.4761 20.508 31.2807H20.5053Z" fill="#00A79D"/>
<path d="M69.2923 48.8877C69.3557 48.8877 69.427 48.8745 69.485 48.893C70.2111 49.1359 71.1351 51.0975 70.8843 51.8526C70.7629 51.8526 70.6441 51.8526 70.5226 51.8526C70.2454 51.3272 69.9682 50.7992 69.6883 50.2738C69.992 49.7748 69.5537 49.9227 69.3425 49.8725C69.3266 49.5451 69.3108 49.2151 69.2923 48.8877Z" fill="#00A79D"/>
<path d="M72.6902 38.6044C71.8928 38.0896 72.4974 37.5141 72.7535 37.1286C73.0651 36.6639 73.5693 36.3524 73.7277 35.7373C73.8307 35.3307 74.1792 35.497 74.4485 35.629C73.7594 36.5583 73.1469 37.5352 72.6902 38.6044Z" fill="#00A79D"/>
<path d="M75.4491 52.2408C74.2769 52.2302 73.1231 50.7333 73.4558 49.6614L75.4491 52.2408Z" fill="#00A79D"/>
<path d="M93.9907 51.4513C93.9934 52.9562 93.2462 53.7192 91.9393 53.5476C92.6231 52.8479 93.3069 52.1509 93.9907 51.4513Z" fill="#00A79D"/>
<path d="M94.1914 57.5553C94.9042 56.7739 94.9517 55.2611 96.52 55.4142C95.8943 56.2933 95.1577 57.0511 94.1914 57.5553Z" fill="#00A79D"/>
<path d="M71.0797 52.2487C71.8928 52.6209 72.6558 53.8776 72.5106 54.601C71.8163 54.0756 71.4572 53.2704 70.8817 52.6447C71.0427 52.5602 71.0744 52.4123 71.0797 52.2487Z" fill="#00A79D"/>
<path d="M93.9723 37.0178C95.0019 37.2052 95.9048 38.6837 95.5458 39.5945C94.9861 38.755 94.6376 37.7887 93.9723 37.0178Z" fill="#00A79D"/>
<path d="M71.6631 32.6325C71.6631 34.0291 71.3278 34.5308 70.3378 34.6337C70.6678 33.8918 70.9318 33.1077 71.6631 32.6325Z" fill="#00A79D"/>
<path d="M85.104 32.0279C85.1146 31.8378 85.075 31.6028 85.2915 31.5236C85.7139 31.3705 86.9627 32.1599 87.0789 32.6298C86.4215 32.4292 85.7614 32.2285 85.104 32.0279Z" fill="#00A79D"/>
<path d="M76.5764 30.0769C75.993 30.1508 75.4385 30.0003 74.8867 29.834C75.787 28.704 75.956 28.7278 76.5764 30.0769Z" fill="#00A79D"/>
<path d="M91.9261 53.5555C92.2324 54.3317 91.5275 54.4585 91.1262 54.7357C90.8384 54.9337 90.6615 54.7172 90.6272 54.403C91.0602 54.1205 91.4932 53.838 91.9261 53.5555Z" fill="#00A79D"/>
<path d="M71.8427 43.9375C71.4123 43.861 71.085 43.6366 71.1219 43.1693C71.151 42.7812 71.3833 42.5013 71.84 42.5515V43.9375H71.8427Z" fill="#00A79D"/>
<path d="M73.9759 55.9317C74.6782 55.5885 74.797 55.702 74.8313 56.758C74.2373 56.8056 74.0921 56.3831 73.9759 55.9317Z" fill="#00A79D"/>
<path d="M77.2021 33.1895C77.3922 32.7645 76.4893 32.1599 77.4213 31.8563C77.68 32.3552 78.0892 32.878 77.2021 33.1895Z" fill="#00A79D"/>
<path d="M92.2324 58.5903C92.1743 57.8299 92.3512 57.7322 93.5366 57.8616C93.1697 58.2286 92.8212 58.622 92.2324 58.5903Z" fill="#00A79D"/>
<path d="M99.7462 41.5694C99.2684 41.5166 99.1971 41.1443 99.1284 40.7721C99.3977 40.7668 99.5165 40.6084 99.5324 40.3549C99.968 40.6955 100.256 41.0625 99.7436 41.5667L99.7462 41.5694Z" fill="#00A79D"/>
<path d="M80.1564 30.8768C80.8772 30.8108 80.9986 31.2544 80.9564 31.8299C80.3043 31.8352 80.1723 31.4048 80.1564 30.8768Z" fill="#00A79D"/>
<path d="M94.759 50.258C95.1629 51.0844 94.7432 51.3774 93.9881 51.454C94.2442 51.0553 94.5029 50.6567 94.759 50.258Z" fill="#00A79D"/>
<path d="M79.367 59.0048C79.3934 58.6721 79.5862 58.5507 79.8977 58.6061C80.3148 58.68 80.3676 58.9942 80.3624 59.3427C79.9875 59.3559 79.6706 59.2001 79.367 59.0048Z" fill="#00A79D"/>
<path d="M75.8161 34.2219C75.7025 33.2529 76.3098 33.1843 77.0252 33.2529C76.6213 33.575 76.22 33.8971 75.8161 34.2219Z" fill="#00A79D"/>
<path d="M75.8161 57.4075C75.9402 57.154 76.1144 56.956 76.4233 57.0458C76.8325 57.1672 76.8114 57.5131 76.7876 57.8484C76.4391 57.756 76.0616 57.7296 75.8161 57.4075Z" fill="#00A79D"/>
<path d="M83.3272 59.9367C83.3642 59.612 83.5147 59.3664 83.8685 59.4087C84.283 59.4588 84.3173 59.7968 84.3146 60.1347C83.9846 60.0687 83.6572 60.0027 83.3272 59.9367Z" fill="#00A79D"/>
<path d="M96.0078 41.3634C96.3404 41.3634 96.6731 41.3951 96.7259 41.8069C96.7708 42.1581 96.5332 42.3112 96.2137 42.3535L96.0078 41.3634Z" fill="#00A79D"/>
<path d="M82.9312 31.6319C82.9682 31.3071 83.1187 31.0616 83.4724 31.1039C83.8869 31.154 83.9213 31.492 83.9186 31.8299C83.5886 31.7639 83.2612 31.6979 82.9312 31.6319Z" fill="#00A79D"/>
<path d="M76.6187 53.4156C76.0977 53.6092 75.8346 53.3443 75.8293 52.6209C76.1778 52.8031 76.4128 53.0935 76.6187 53.4156Z" fill="#00A79D"/>
<path d="M95.8045 47.6971C96.0448 47.7182 96.3669 47.6654 96.3246 48.0509C96.2797 48.4601 95.9444 48.4891 95.6171 48.4891C95.6804 48.2251 95.7411 47.9611 95.8045 47.6971Z" fill="#00A79D"/>
<path d="M86.4743 55.9765C86.308 56.7685 85.9727 56.8108 85.4948 56.1956C85.7667 55.8709 86.1548 56.0768 86.4743 55.9765Z" fill="#00A79D"/>
<path d="M77.9863 58.4054C78.0153 58.1599 78.1024 57.9566 78.3981 58.0358C78.7915 58.1441 78.7836 58.4767 78.7783 58.7988C78.4588 58.783 78.2159 58.6087 77.9889 58.4054H77.9863Z" fill="#00A79D"/>
<path d="M96.7655 55.0367C96.3985 54.3344 96.6071 54.0044 97.3992 54.0493C97.3279 54.469 96.9635 54.6987 96.7655 55.0367Z" fill="#00A79D"/>
<path d="M96.2005 46.113C96.4408 46.1341 96.7629 46.0813 96.7206 46.4668C96.6758 46.876 96.3378 46.905 96.0104 46.905C96.0738 46.641 96.1372 46.377 96.2005 46.113Z" fill="#00A79D"/>
<path d="M72.2757 46.9024C72.009 46.8945 71.7819 46.8047 71.7133 46.5222C71.642 46.2344 71.8242 46.1394 72.0724 46.113C72.3813 46.3136 72.2149 46.6384 72.2757 46.9024Z" fill="#00A79D"/>
<path d="M80.1644 55.4406C80.1327 55.7099 79.9928 55.8577 79.7208 55.7627C79.3934 55.6492 79.367 55.3561 79.3723 55.0604C79.6363 55.1872 79.9004 55.3139 80.1617 55.4406H80.1644Z" fill="#00A79D"/>
<path d="M72.0724 40.376C71.8242 40.3522 71.642 40.2545 71.7133 39.9668C71.7846 39.6816 72.009 39.5945 72.2783 39.5892C72.2149 39.8532 72.3839 40.178 72.0724 40.3786V40.376Z" fill="#00A79D"/>
<path d="M69.1365 47.8951C69.3451 47.9162 69.6249 47.8528 69.6566 48.1565C69.6962 48.5102 69.4507 48.6475 69.1365 48.6871C69.3504 48.4231 69.0362 48.1591 69.1365 47.8951Z" fill="#00A79D"/>
<path d="M71.0797 52.2486C71.0744 52.4123 71.0427 52.5602 70.8817 52.6446C70.5332 52.4836 70.4328 52.2117 70.52 51.8526C70.6414 51.8526 70.7602 51.8526 70.8817 51.8526C70.8843 52.0163 70.9213 52.1641 71.0797 52.2486Z" fill="#00A79D"/>
<path d="M27.198 33.3717C27.4357 33.472 27.7261 33.5011 27.7974 33.8232C27.4489 33.8786 27.1109 33.876 26.8311 33.612C26.9525 33.5328 27.074 33.4509 27.1954 33.3717H27.198Z" fill="#222222"/>
<path d="M96.4091 44.5316C96.6916 44.5712 96.7761 44.7507 96.7417 45.0094C96.7101 45.2523 96.5358 45.3051 96.3299 45.3104C96.3563 45.0517 96.3827 44.7903 96.4091 44.5316Z" fill="#00A79D"/>
<path d="M12.7856 56.6102C13.142 56.6102 13.3585 56.7686 13.3981 57.1356C13.0259 57.1567 12.7988 57.0062 12.7856 56.6102Z" fill="#00A79D"/>
<path d="M96.388 43.1454C96.5833 43.1745 96.7497 43.2326 96.7285 43.4781C96.7127 43.6708 96.5596 43.7078 96.4064 43.7395C96.4012 43.5415 96.3932 43.3435 96.388 43.1454Z" fill="#00A79D"/>
<path d="M98.1701 52.4598C97.8084 52.1193 97.9113 51.9318 98.3681 51.8632C98.3417 52.0744 98.3839 52.3093 98.1701 52.4598Z" fill="#00A79D"/>
<path d="M68.3471 40.1753C68.5425 40.207 68.7088 40.2704 68.6798 40.5159C68.656 40.7086 68.5003 40.7403 68.3471 40.7667C68.3471 40.5687 68.3471 40.3707 68.3471 40.1727V40.1753Z" fill="#00A79D"/>
<path d="M67.1327 23.165C67.138 22.7531 67.4257 22.7531 67.7188 22.7584C67.6686 23.1043 67.3835 23.1095 67.1327 23.165Z" fill="#FAFAFA"/>
<path d="M11.0325 36.6111C10.8583 36.1887 11.2411 36.2943 11.418 36.2045C11.418 36.4633 11.2965 36.6032 11.0325 36.6111Z" fill="#222222"/>
<path d="M23.89 44.3415C23.8557 44.6108 23.7764 44.8458 23.486 44.9434C23.4253 44.8722 23.3619 44.8009 23.3012 44.7296L23.3171 44.6979C23.3646 44.5712 23.4147 44.4445 23.4623 44.3204L23.457 44.3257C23.6022 44.3309 23.7448 44.3389 23.89 44.3441V44.3415Z" fill="#242424"/>
<path d="M69.3398 49.8726C69.5537 49.9227 69.9919 49.7749 69.6857 50.2739C69.5167 50.1867 69.3583 50.089 69.3398 49.8726Z" fill="#00A79D"/>
<path d="M68.3471 42.5515C68.4739 42.5699 68.627 42.5858 68.627 42.7495C68.627 42.9132 68.4765 42.9264 68.3471 42.9475C68.3471 42.8155 68.3471 42.6835 68.3471 42.5515Z" fill="#00A79D"/>
<path d="M91.2318 58.9915C91.2529 58.8489 91.2371 58.6615 91.4404 58.6721C91.5064 58.6747 91.5618 58.841 91.6199 58.9308C91.4905 58.9519 91.3612 58.9704 91.2292 58.9915H91.2318Z" fill="#00A79D"/>
<path d="M19.5153 31.4339C19.5734 31.1672 19.6526 30.9666 19.9219 31.286C19.8506 31.5104 19.6816 31.4708 19.5153 31.4339Z" fill="#00A79D"/>
<path d="M14.8238 32.6615C14.8343 32.4159 15.0455 32.5031 15.1723 32.4476C15.1934 32.7407 15.0693 32.8014 14.8238 32.6615Z" fill="#222222"/>
<path d="M15.1696 32.453C15.2356 32.2286 15.4046 32.2655 15.5709 32.2972C15.5604 32.6642 15.3518 32.5269 15.1696 32.453Z" fill="#222222"/>
<path d="M16.0065 32.0675C16.0329 31.8114 16.2151 31.8959 16.3603 31.9038C16.3656 32.2259 16.1993 32.1784 16.0065 32.0675Z" fill="#222222"/>
<path d="M29.0013 60.5255C29.0462 60.4014 28.9062 60.2087 29.1359 60.1533C29.157 60.2773 29.1782 60.4014 29.1993 60.5255C29.1333 60.5255 29.0673 60.5255 28.9986 60.5255H29.0013Z" fill="#00A79D"/>
<path d="M38.4899 46.7203C38.4899 46.6015 38.4846 46.4827 38.482 46.3612C38.7882 46.4747 38.6483 46.5962 38.4899 46.7203Z" fill="#00A79D"/>
<path d="M65.1552 25.4883C65.2186 25.4355 65.2793 25.3827 65.3427 25.3299C65.3374 25.4513 65.2952 25.5279 65.1552 25.4883Z" fill="#FAFAFA"/>
<path d="M10.6259 48.5076C10.5256 48.4733 10.4411 48.4284 10.486 48.2964C10.5335 48.3677 10.5811 48.4363 10.6259 48.5076Z" fill="#222222"/>
<path d="M35.3191 46.3532C35.2663 46.4034 35.2135 46.4562 35.1607 46.5063C35.1369 46.377 35.1871 46.3242 35.3191 46.3532Z" fill="#00A79D"/>
<path d="M47.6063 31.2728C47.6617 31.3362 47.7145 31.4022 47.77 31.4656C47.6485 31.4576 47.5719 31.4128 47.6063 31.2728Z" fill="#FDFDFD"/>
<path d="M86.9284 59.7704C86.9469 59.7176 86.968 59.6674 86.9865 59.6146C87.0208 59.6648 87.0577 59.7149 87.0921 59.7651C87.0366 59.7677 86.9812 59.7704 86.9257 59.7704H86.9284Z" fill="#222222"/>
<path d="M9.29005 41.1627C9.26629 41.0387 9.30853 40.9832 9.44054 41.0228C9.39038 41.0703 9.34021 41.1179 9.29005 41.1627Z" fill="#222222"/>
<path d="M90.6087 34.2482C90.6827 34.2984 90.7539 34.3486 90.8279 34.3987C90.6985 34.4304 90.6457 34.3538 90.6087 34.2482Z" fill="#00A79D"/>
<path d="M38.482 50.823C38.3606 50.8441 38.3051 50.7992 38.3368 50.6699C38.3843 50.72 38.4318 50.7702 38.482 50.823Z" fill="#242424"/>
<path d="M34.2472 2.90991C37.0906 2.95479 40.0608 3.43266 42.9808 4.24582C43.1682 4.29862 43.3689 4.33822 43.5299 4.43855C43.8837 4.65504 44.3589 4.85833 44.3721 5.30187C44.388 5.77973 43.8415 5.75861 43.5194 5.94342C41.5921 7.04964 39.3955 7.40605 37.352 8.18489C36.89 8.36178 36.626 8.41458 36.1402 7.99216C35.4274 7.37437 34.4267 7.09716 33.5687 6.63778C32.4334 6.03055 31.4408 5.23059 30.6091 4.24846C30.0098 3.5409 30.1128 3.36137 31.0236 3.15544C32.0269 2.92839 33.0407 2.97063 34.2446 2.91255L34.2472 2.90991Z" fill="#00A79D"/>
<path d="M23.486 44.9434C23.4385 45.0675 23.3356 45.1652 23.222 45.0913C23.0029 44.9434 23.3435 44.8114 23.2669 44.653L23.2379 44.7111L23.3012 44.7269C23.362 44.7982 23.4253 44.8695 23.486 44.9408V44.9434Z" fill="#242424"/>
<path d="M23.3017 44.7303L23.2405 44.7117L23.2671 44.6532L23.2644 44.6319L23.3176 44.6984L23.3017 44.7303Z" fill="white"/>
<path d="M23.3171 44.6979L23.2643 44.6345C23.2748 44.4946 23.2933 44.36 23.4649 44.3204C23.4174 44.4471 23.3672 44.5738 23.3197 44.6979H23.3171Z" fill="#202020"/>
<path d="M88.3646 33.8548C88.3118 33.6885 88.3276 33.4931 88.5336 33.5459C88.8742 33.6357 89.2992 33.6964 89.2464 34.2271C88.8847 34.264 88.6445 34.0132 88.3672 33.8548H88.3646Z" fill="#242424"/>
</g>
<defs>
<filter id="filter0_d_15_66" x="0" y="-0.000366211" width="106.779" height="71.5037" filterUnits="userSpaceOnUse" color-interpolation-filters="sRGB">
<feFlood flood-opacity="0" result="BackgroundImageFix"/>
<feColorMatrix in="SourceAlpha" type="matrix" values="0 0 0 0 0 0 0 0 0 0 0 0 0 0 0 0 0 0 127 0" result="hardAlpha"/>
<feOffset dy="4"/>
<feGaussianBlur stdDeviation="2"/>
<feComposite in2="hardAlpha" operator="out"/>
<feColorMatrix type="matrix" values="0 0 0 0 0 0 0 0 0 0 0 0 0 0 0 0 0 0 0.25 0"/>
<feBlend mode="normal" in2="BackgroundImageFix" result="effect1_dropShadow_15_66"/>
<feBlend mode="normal" in="SourceGraphic" in2="effect1_dropShadow_15_66" result="shape"/>
</filter>
</defs>
</svg>
