<svg width="99" height="64" viewBox="0 0 99 64" fill="none" xmlns="http://www.w3.org/2000/svg">
<path d="M95.5667 56.0109C95.2816 57.5474 94.1146 58.49 93.0269 59.3374C90.4079 61.3809 87.4008 62.6191 84.0663 62.9703H83.0789C82.1443 63.2844 81.1701 63.2026 80.2407 63.06C79.7285 62.9835 79.2375 62.9623 78.7332 62.9703C78.4982 62.7855 78.2501 62.664 77.9438 62.7723C73.9493 61.9301 70.3587 60.2615 67.5074 57.2966C64.8408 54.5245 63.0799 51.2375 62.4647 47.3777C62.2218 45.8569 61.8364 44.3283 61.9789 42.805C62.1717 40.7483 62.1479 38.586 63.1406 36.7274C63.7109 35.6581 63.5921 34.1955 64.8936 33.5038C65.126 33.3797 64.9385 32.8279 65.2976 32.6246C65.5748 32.6378 65.4613 32.4002 65.5194 32.2735C66.1398 30.964 67.18 30.0162 68.2466 29.0921C68.4842 29.1 68.64 29.0076 68.6585 28.7489C69.4373 28.3133 70.2109 27.8697 70.995 27.4447C71.2986 27.281 71.5785 27.1543 71.3118 26.7318C70.2029 24.9656 69.6168 22.9564 68.6981 21.1031C68.5766 20.8575 68.5423 20.4694 68.2809 20.4272C67.9377 20.3691 67.877 20.7889 67.7212 21.0212C65.4058 24.4587 63.0086 27.8301 60.4028 31.059C58.0557 33.9684 55.8248 36.9755 53.5147 39.9193C52.4798 41.2367 51.5319 42.6281 50.431 43.8953C48.9605 45.5876 46.9724 46.0206 44.8788 46.1104C42.3284 46.2186 39.7781 46.2609 37.2251 46.311C36.8396 46.319 36.7393 46.4008 36.6258 46.8232C36.3089 48.0139 35.8548 49.1703 35.4298 50.332C35.3136 50.6488 35.0575 50.8653 34.7064 50.9339C34.6298 50.8996 34.5533 50.8653 34.4793 50.8283C34.4318 50.7781 34.3843 50.728 34.3341 50.6752C34.1097 49.3472 34.4873 48.043 34.4873 46.7255C34.6483 46.6041 34.7856 46.48 34.4793 46.3665C33.4259 46.3638 32.3699 46.3586 31.3165 46.3559C31.1845 46.3269 31.1369 46.3797 31.1581 46.5091C30.8228 48.3017 30.2842 50.0151 29.302 51.5702C27.9239 53.7509 25.9702 55.2928 23.668 56.3277C22.5723 56.8188 21.2866 56.824 20.0827 57.03C18.8471 57.2412 17.6485 56.8636 16.5502 56.6392C11.893 55.6941 8.59285 52.8586 6.61803 48.5076C6.57051 48.4363 6.52299 48.3677 6.47811 48.2964C6.02136 47.4859 6.34874 46.4246 5.6491 45.6933C5.35869 44.5052 5.44053 43.2934 5.44581 42.0895C5.44581 41.7647 5.41149 41.4585 5.28477 41.1601C5.33493 41.1126 5.38509 41.0651 5.43525 41.0202C5.95272 39.5444 6.34346 38.0263 7.02461 36.6112C7.28863 36.6059 7.41271 36.466 7.41007 36.2046C7.38631 35.9881 7.54208 35.8614 7.63976 35.6977C8.42652 34.3961 9.75979 33.678 10.8132 32.6616C11.0587 32.8015 11.1802 32.7434 11.1617 32.4477C11.3439 32.5243 11.5524 32.6616 11.563 32.2946C11.724 32.2471 11.9247 32.284 11.9986 32.0675C12.194 32.1784 12.3577 32.2259 12.3524 31.9038C13.4005 31.719 14.417 31.3309 15.5074 31.4339C15.6737 31.4709 15.84 31.5105 15.9139 31.2861C16.1093 31.2861 16.302 31.2808 16.4974 31.2808C16.574 31.4735 16.7429 31.4709 16.904 31.4656C19.2247 31.3626 21.2285 32.2972 23.1928 33.3744C23.0713 33.4536 22.9499 33.5354 22.8284 33.6147C22.7044 33.6015 22.5723 33.6094 22.4588 33.5698C19.9771 32.6985 17.4637 32.1283 14.8104 32.651C13.0204 33.0021 11.4495 33.8285 10.2456 35.1433C8.18627 37.3927 7.15662 40.0645 7.40743 43.1878C7.59224 45.5032 8.23115 47.6628 9.57234 49.5452C11.4125 52.1299 13.9022 53.8381 17.0043 54.5852C19.5336 55.1924 21.9625 54.7727 24.1775 53.5186C26.6144 52.1378 27.9265 49.7987 28.8823 47.2536C29.0908 46.7018 29.0618 46.2794 28.2117 46.3005C25.9464 46.3559 23.6786 46.311 21.4133 46.3163C20.7295 46.3163 20.0563 46.3163 19.3857 46.1289C19.1771 46.0708 18.929 45.9837 18.9448 45.8226C18.9659 45.5929 19.2194 45.5375 19.4676 45.5164C22.3981 45.2629 25.326 44.9857 28.2592 44.7402C28.8532 44.69 29.3865 44.4075 29.2968 43.8716C29.1463 42.9713 29.2783 42.0499 29.0512 41.1733C28.5232 39.1484 27.3008 37.5458 25.92 36.033C25.5346 35.6106 25.2838 35.7056 25.0382 36.1149C24.5577 36.9122 24.1089 37.7306 23.6178 38.52C22.4007 40.479 21.2417 42.4749 19.8873 44.3441C19.7421 44.3389 19.5996 44.3309 19.4543 44.3257C19.4913 44.2042 19.5124 44.0749 19.5626 43.9613C20.8932 41.0149 22.34 38.1266 23.866 35.2779C24.1168 34.8106 24.3914 34.3724 24.0191 33.8496C24.2171 33.7968 24.4495 33.95 24.6105 33.6569C25.3603 32.3051 26.1444 30.9719 26.9048 29.6254C27.116 29.2505 26.8863 29.1 26.5484 29.034C26.2025 28.8571 25.8751 28.6301 25.5108 28.5113C22.6647 27.5846 19.7738 27.2995 16.7773 27.6823C12.2838 28.2552 8.61397 30.164 5.80223 33.7651C4.85442 34.977 4.31848 36.3868 3.76669 37.7517C3.52908 38.3431 3.47628 39.2936 3.28091 39.9246C2.79776 41.4849 2.89281 43.0188 2.90073 44.5659C2.90337 45.0887 3.18058 45.5586 3.14626 46.1817C3.09346 47.1717 3.49212 48.1908 3.56604 49.2205C3.56604 49.2495 3.74557 49.268 3.84061 49.2891C3.80101 49.7538 4.30792 49.8911 4.4188 50.2792C5.15012 52.885 6.83716 54.836 8.77766 56.6102C8.7935 57.0062 9.01791 57.1567 9.39017 57.1356C10.2641 57.7824 11.0086 58.6325 12.1412 58.8675C12.722 58.989 13.0098 59.6701 13.5537 59.7388C14.6968 59.884 15.737 60.3724 16.8961 60.5123C18.9474 60.7605 20.9619 60.8344 23.0159 60.6073C23.6574 60.5361 24.3201 60.0978 24.9933 60.5229C25.0593 60.5229 25.1254 60.5229 25.194 60.5229C25.9834 59.7652 27.0711 59.583 27.9978 59.084C30.3026 57.8458 32.0055 56.1112 33.2332 53.7932C33.5738 53.149 33.6081 52.217 34.4582 51.8685C34.4609 53.1807 33.8483 54.3159 33.352 55.467C33.0669 56.1297 33.2306 57.0722 32.3039 57.389C32.2379 57.4418 32.1745 57.4946 32.1085 57.5501C30.9996 58.6325 29.8512 59.6859 28.4414 60.3433C26.617 61.1961 24.7689 61.9961 22.7545 62.3551C20.9962 62.6693 19.2379 62.5373 17.4822 62.5162C15.811 62.495 14.2375 61.8984 12.6587 61.3888C11.6528 61.0667 10.6865 60.6734 9.78355 60.1269C9.75187 60.0476 9.72019 59.9684 9.68586 59.8892C9.65154 59.9684 9.61722 60.045 9.58554 60.1242C9.48785 60.1321 9.33737 60.1823 9.30305 60.1374C7.94338 58.416 5.87088 57.4894 4.56665 55.636C3.70597 54.4136 2.72648 53.2546 2.12981 51.8976C1.5965 50.6857 0.954951 49.4686 0.917989 48.0826C0.411084 47.5994 0.651336 46.8391 0.271157 46.311C0.0493861 45.1124 0.0889881 43.898 0.112749 42.6888C0.139151 41.4268 0.0784276 40.1067 0.53781 38.9477C1.09488 37.5379 1.10016 35.9934 1.9978 34.6337C2.6552 33.6358 3.06706 32.4187 3.80893 31.426C5.73623 28.8492 8.313 27.1411 11.2515 25.9372C13.8837 24.86 16.632 24.4349 19.4676 24.5326C20.2543 24.559 21.0463 24.5168 21.8357 24.5062C22.0998 24.5722 22.3638 24.6382 22.6251 24.7042C24.4864 25.0131 26.287 25.52 27.9582 26.4177C28.312 26.6077 28.4915 26.7582 28.8031 26.2249C30.7779 22.8429 32.8161 19.5005 34.8674 16.166C35.0443 15.8783 34.9889 15.733 34.8859 15.4849C34.2813 14.0434 33.7031 12.5913 33.1038 11.1498C32.9375 10.7538 32.8213 10.363 32.9771 9.9142C33.4391 9.92476 33.6371 10.2997 33.8404 10.6086C34.6008 11.7623 35.3295 12.9371 36.074 14.0988C36.3089 14.4658 36.5386 14.6004 37.0746 14.4895C39.3187 14.0275 41.613 13.8876 43.8835 13.6051C45.3857 13.4177 46.9012 13.4388 48.4087 13.217C49.5466 13.0507 50.8165 13.0322 52.0309 13.056C55.7746 13.1325 59.5157 12.8078 63.2647 12.8949C64.1148 12.9134 64.9491 13.1906 65.8705 13.0032C65.551 12.0078 65.3847 10.9623 64.664 10.1439C64.5425 10.004 64.5003 9.86404 64.5135 9.70035C64.6402 8.10307 63.8086 6.71964 63.4997 5.22005C63.3835 4.65242 62.8819 4.35936 62.3406 4.36464C60.1599 4.38576 58.0135 4.04783 55.8538 3.88414C55.1489 3.83134 54.5311 3.53036 53.85 3.53564C53.7945 3.31651 53.5992 3.37987 53.454 3.33763C53.0685 2.78849 53.6467 2.75416 53.879 2.6512C54.6711 2.30006 55.5529 2.35022 56.3898 2.18654C56.6248 2.14165 56.8069 2.04925 57.0023 1.94364C57.3323 1.94364 57.6597 1.941 57.9897 1.93836C59.5817 2.02813 61.1103 1.45786 62.6971 1.4869C62.8845 1.48954 63.0746 1.37866 63.262 1.3813C65.7781 1.42618 68.2836 1.02488 70.8023 1.18065C71.4755 1.22289 72.1619 1.25721 72.814 1.40506C73.1784 1.4869 73.6246 1.63211 73.6087 2.22614C73.5955 2.76736 73.519 3.22939 72.9223 3.34555C71.8557 3.55148 70.7204 3.66501 69.7198 3.88678C68.2519 4.21152 66.7365 3.76533 65.3398 4.52041C67.4625 8.4014 69.2947 12.5068 70.0736 17.0109C69.9785 17.3594 70.0577 17.6392 70.393 17.8188C70.6702 18.6029 70.9475 19.3896 71.2247 20.1737C71.1798 20.216 71.1349 20.2609 71.09 20.3031C71.1349 20.3084 71.1824 20.3137 71.2273 20.319C71.3092 20.4061 71.391 20.4906 71.4728 20.5777C71.42 20.7176 71.5098 20.7572 71.6181 20.7836C72.323 22.3756 73.0517 23.9597 73.7222 25.5675C73.9097 26.019 74.179 26.2276 74.6014 26.1008C76.8957 25.4012 79.285 25.3563 81.6374 25.2032C82.5878 25.1425 83.6412 25.5121 84.6207 25.7629C85.7586 26.0533 86.8543 26.5233 87.9446 26.9747C88.1664 27.0671 88.7895 27.1701 88.3169 27.7113C88.1585 27.6796 87.9948 27.6638 87.8417 27.6163C84.032 26.3754 80.1958 26.085 76.3201 27.3021C74.6357 27.8301 74.6384 27.8407 75.4674 29.4406C75.4806 29.467 75.5202 29.4776 75.5492 29.496C75.7525 29.9554 75.9558 30.4148 76.1564 30.8742C76.1723 31.4022 76.3043 31.8352 76.9564 31.8273C77.6376 31.991 78.2606 31.5712 78.9312 31.6293C79.2612 31.6953 79.5886 31.7613 79.9186 31.8273C80.3173 31.8748 80.7318 31.8273 81.104 32.0253C81.7614 32.2259 82.4215 32.4266 83.0789 32.6272C83.4458 32.8411 83.8339 33.0285 84.1745 33.2794C84.3197 33.3876 84.7342 33.5671 84.2907 33.8496C82.44 33.0497 80.5047 32.6325 78.4903 32.6642C77.0039 32.688 76.9511 32.82 77.5452 34.1638C77.6983 34.5123 77.8276 34.8714 77.9649 35.2251C79.4196 38.9873 81.1331 42.6492 82.2129 46.5539C82.3212 46.9447 82.3528 47.3169 81.941 47.4674C81.5977 47.5915 81.3153 47.4569 81.0697 47.0688C80.4625 46.1183 79.8341 45.1811 79.3352 44.1699C77.8039 41.0625 76.299 37.9418 74.7783 34.8318C74.6146 34.4938 74.5618 33.9235 73.9255 34.3988C71.1376 36.4739 69.8624 39.3543 69.6802 42.7178C69.601 44.2121 70.0129 45.6906 70.6042 47.1084C72.5791 51.8316 77.2732 54.9073 82.5931 53.5899C86.9097 52.5206 89.8798 49.1201 90.1782 44.5659C90.3445 42.0393 89.5155 39.7582 88.1796 37.6171C87.3955 36.3604 86.1282 35.5314 85.4233 34.2324C85.8167 34.2351 86.2127 34.2377 86.6061 34.243C86.643 34.3486 86.6958 34.4252 86.8252 34.3935C88.1162 34.9743 89.1776 35.8324 89.9723 37.0125C90.6402 37.7834 90.9887 38.7523 91.5458 39.5893C91.6989 40.178 91.852 40.7694 92.0051 41.3582L92.2111 42.3482C92.0976 42.6518 92.1979 42.9053 92.388 43.1402L92.4064 43.7343C92.4064 43.9983 92.4064 44.2623 92.4064 44.5263C92.3801 44.785 92.3537 45.0464 92.3272 45.3052C92.0368 45.5322 92.1952 45.8332 92.1979 46.1104C92.1345 46.3744 92.0712 46.6384 92.0078 46.9024C91.9391 47.1664 91.8705 47.4305 91.8019 47.6945C91.7385 47.9585 91.6778 48.2225 91.6144 48.4865C91.3293 49.0753 91.0415 49.6666 90.7564 50.2554C90.5003 50.6541 90.2415 51.0527 89.9854 51.4514V51.4487C89.3017 52.1457 88.6179 52.8454 87.9341 53.5424L87.9605 53.5846L87.9235 53.5503C87.4905 53.8328 87.0575 54.1153 86.6246 54.3978C85.3071 55.1 83.9158 55.6096 82.4716 55.9713C82.1495 56.069 81.7614 55.8657 81.4921 56.1904C79.6546 56.3752 77.9016 55.9449 76.1617 55.4327C75.8977 55.306 75.6337 55.1792 75.3723 55.0525C74.4536 54.5034 73.5348 53.9569 72.616 53.4077C72.4101 53.0856 72.1725 52.7926 71.8266 52.613C71.6999 52.4863 71.5732 52.3596 71.4464 52.2329L69.4531 49.6535C69.0598 48.7347 68.6664 47.8159 68.2704 46.8945C68.2096 46.6305 68.3733 46.3058 68.0671 46.1051C67.9905 45.3791 67.914 44.6557 67.8374 43.9296V42.5436C67.914 41.8175 67.9905 41.0941 68.0697 40.3681C68.3813 40.1701 68.2123 39.8427 68.2757 39.5787C68.5423 39.3068 68.5819 38.9372 68.6875 38.5966C69.1443 37.5273 69.7568 36.5531 70.4458 35.6212C70.8947 35.1459 71.2564 34.5862 71.8108 34.214C72.2147 33.8919 72.616 33.5698 73.02 33.245C73.086 33.245 73.1467 33.2213 73.1995 33.179C74.0866 32.8675 73.6747 32.3448 73.4186 31.8458C73.2629 31.1937 72.6741 30.7448 72.5764 30.0637C71.956 28.7172 71.7897 28.6908 70.8867 29.8208C69.5429 30.4412 68.5133 31.4313 67.6631 32.622C66.9318 33.0972 66.6678 33.8813 66.3378 34.6232C65.3583 36.3551 64.9544 38.2982 64.3445 40.1648C64.3445 40.3628 64.3445 40.5608 64.3445 40.7589C64.3445 41.3529 64.3445 41.9469 64.3445 42.5409C64.3445 42.6729 64.3445 42.805 64.3445 42.937C64.3339 43.5864 64.2204 44.257 64.3366 44.8827C64.524 45.8992 64.5636 46.9684 65.1365 47.8846C65.0362 48.1486 65.3504 48.4126 65.1365 48.6766C65.1101 48.8033 65.1788 48.8561 65.2923 48.8773C65.3082 49.2046 65.324 49.5346 65.3425 49.862C65.3636 50.0785 65.5194 50.1762 65.6883 50.2633C65.9655 50.7887 66.2428 51.3167 66.5226 51.8421C66.4355 52.2012 66.5358 52.4757 66.8843 52.6342C67.4572 53.2599 67.8189 54.0651 68.5133 54.5905C68.7984 55.2611 69.4294 55.5436 69.9785 55.9211C70.0973 56.3699 70.2399 56.795 70.8339 56.7475C71.1613 56.964 71.4887 57.1805 71.8161 57.3969C72.0616 57.7164 72.4391 57.7428 72.7876 57.8379C73.1441 58.1203 73.5427 58.3078 73.9889 58.3949C74.2159 58.5982 74.4588 58.7725 74.7783 58.7883C74.8997 59.0734 75.1743 58.9203 75.3697 58.9942C75.6733 59.1896 75.9901 59.3454 76.365 59.3322C77.3181 59.7097 78.2949 59.9552 79.3272 59.9262C79.6573 59.9922 79.9846 60.0582 80.3147 60.1242C80.6658 60.1348 81.0222 60.1876 81.3681 60.148C81.8987 60.0846 82.5456 60.441 82.9284 59.7625C82.9838 59.7625 83.0393 59.7625 83.0947 59.7572C84.5811 60.0714 85.9381 59.6833 87.2344 58.9837C87.3638 58.9626 87.4932 58.9441 87.6252 58.9229C87.8311 58.8121 88.0978 58.8147 88.235 58.5797C88.8212 58.6114 89.1723 58.2154 89.5393 57.8511C89.8957 58.0438 89.9538 57.5976 90.194 57.5448C91.1603 57.0405 91.8969 56.2828 92.5226 55.4037C92.6045 55.2769 92.6863 55.1502 92.7682 55.0235C92.9662 54.6855 93.3331 54.4558 93.4018 54.0361C93.6579 53.5054 93.914 52.9774 94.1727 52.4467C94.3866 52.2962 94.3443 52.0639 94.3707 51.85C95.6565 48.5288 96.1475 45.1019 95.7489 41.5562C96.261 41.0493 95.9733 40.6823 95.5376 40.3443C95.3924 39.4573 95.3634 38.5332 95.0783 37.6937C93.9588 34.4146 92.5253 31.3019 89.8931 28.9047C89.6079 28.6459 89.2911 28.3714 89.4205 27.9014C90.0884 27.7905 90.6983 27.9753 91.2606 28.3106C92.3352 28.9522 93.3569 29.665 94.1437 30.663C94.1727 30.8108 94.1014 31.0036 94.3258 31.0643C94.5608 31.7164 95.2921 31.9883 95.5218 32.6431C95.5139 33.0655 95.6063 33.4114 96.1185 33.443C96.9765 35.336 97.7659 37.2475 98.1857 39.3041C98.3547 40.1331 98.5183 40.9225 98.2781 41.7489C98.4127 41.8809 98.5448 42.0103 98.6794 42.1423C98.719 45.1177 98.851 48.1037 97.9085 50.9946C97.8662 51.1266 97.8372 51.2375 97.6999 51.2903C97.5653 51.2534 97.5204 51.3088 97.5468 51.4382C97.3699 52.1642 97.2379 52.9008 97.0082 53.611C96.7864 54.2948 96.2663 54.8571 96.1185 55.5832C95.9099 55.6835 95.4479 55.4485 95.5746 55.995L95.5667 56.0109ZM63.7188 22.7584C63.6422 22.468 63.8323 22.175 63.9722 22.0614C65.1682 21.0793 65.7728 19.5533 67.085 18.6874C67.2328 18.5897 67.3358 18.426 67.2671 18.2649C66.9661 17.5521 66.6441 16.6492 65.9101 16.504C65.1022 16.3429 64.3049 16.0393 63.4416 16.0551C59.4444 16.137 55.4499 15.9997 51.4475 16.166C48.1579 16.3007 44.8683 16.496 41.5813 16.6756C40.4434 16.7389 39.2685 16.6703 38.1227 16.9792C37.6554 17.1059 37.7214 17.2353 37.8587 17.494C39.1497 19.9177 40.2823 22.4152 41.3173 24.9603C42.1621 27.0354 42.9753 29.1212 43.6063 31.2729C43.5719 31.4128 43.6485 31.4577 43.77 31.4656C44.0525 33.3612 44.8867 35.1037 45.3435 36.9623C45.8002 38.8289 46.4075 40.6744 46.7243 42.5832C46.8088 43.0954 47.0516 42.9818 47.3183 42.8366C47.4846 42.7469 47.6114 42.5753 47.7407 42.4301C49.441 40.516 50.8614 38.3854 52.4243 36.363C54.1826 34.0872 55.97 31.8299 57.7864 29.599C58.9058 28.2261 59.8748 26.7266 61.1552 25.4857C61.2952 25.5253 61.3374 25.4487 61.3427 25.3273C61.9209 24.5907 62.7023 24.0231 63.1327 23.1624C63.3835 23.1096 63.6686 23.1043 63.7188 22.7558V22.7584ZM36.0951 18.5949C34.1678 21.5994 32.3514 24.4323 30.5376 27.2678C30.3555 27.5529 30.2446 27.838 30.63 28.0915C32.3382 29.2136 33.3441 30.9296 34.2866 32.651C34.9994 33.95 35.4694 35.3571 35.8839 36.8145C36.4304 38.7286 36.9241 40.6242 37.0376 42.599C37.1195 43.9877 37.0482 43.993 38.4263 43.9323C38.524 43.927 38.6243 43.9428 38.722 43.9349C40.5648 43.8056 42.4076 43.6841 44.2478 43.5336C44.7494 43.494 45.0715 43.3013 44.7468 42.6888C43.8122 40.9305 43.205 39.0375 42.5819 37.1551C41.4255 33.6727 40.0817 30.2564 39.0124 26.7398C38.1966 24.06 37.1327 21.4595 36.0951 18.5976V18.5949ZM32.9111 44.3283C32.9111 44.3283 32.9111 44.3283 32.9111 44.3309C33.2728 44.3309 33.6345 44.3204 33.9936 44.3309C34.6536 44.3547 34.7645 43.956 34.6853 43.4307C34.3711 41.3634 33.9935 39.3068 33.2728 37.3372C32.3778 34.8872 31.2663 32.5639 29.2228 30.8214C28.8664 30.5178 28.6684 30.333 28.3331 30.8636C27.6546 31.9303 27.1451 33.1025 26.3002 34.0661C26.0204 34.3856 26.2817 34.6153 26.5933 34.837C27.586 35.5472 28.5575 36.2997 29.339 37.2448C30.865 39.0903 31.3138 41.3318 31.4933 43.6313C31.5462 44.2966 31.7758 44.4022 32.3197 44.3257C32.5124 44.2993 32.7131 44.3204 32.9111 44.3204V44.3283Z" fill="#202020"/>
<path d="M25.0013 60.5255C24.3307 60.1004 23.6654 60.5387 23.0238 60.61C20.9698 60.837 18.9554 60.7631 16.904 60.5149C15.7424 60.375 14.7021 59.8866 13.5616 59.7414C13.0177 59.6727 12.7326 58.9916 12.1491 58.8701C11.0165 58.6351 10.272 57.785 9.39812 57.1382C9.35852 56.7712 9.14203 56.6102 8.78561 56.6128C6.84511 54.8386 5.15807 52.8876 4.42675 50.2818C4.31851 49.8937 3.80896 49.7564 3.84856 49.2917C4.71453 48.2251 5.49865 47.1189 5.65441 45.6959C6.35405 46.4298 6.02667 47.4885 6.48341 48.299C6.44117 48.4284 6.52302 48.4759 6.62334 48.5102C8.59816 52.8612 11.8957 55.6967 16.5555 56.6418C17.6538 56.8636 18.8498 57.2438 20.088 57.0326C21.2919 56.8267 22.5777 56.8214 23.6733 56.3303C25.9755 55.2954 27.9266 53.7535 29.3073 51.5728C30.2895 50.0178 30.8281 48.3017 31.1634 46.5117C31.2162 46.4615 31.269 46.4087 31.3218 46.3585C32.3752 46.3612 33.4312 46.3665 34.4846 46.3691C34.4846 46.4879 34.4899 46.6067 34.4926 46.7282C34.4926 48.0482 34.1177 49.3524 34.3394 50.6778C34.3051 50.8072 34.3606 50.8494 34.4846 50.8309C34.5612 50.8652 34.6378 50.8996 34.7117 50.9365C34.7117 51.2718 34.6747 51.5992 34.4662 51.8817C33.6187 52.2302 33.5844 53.1622 33.2411 53.8063C32.0135 56.1244 30.3106 57.8589 28.0058 59.0972C27.0791 59.5961 25.9887 59.7757 25.2019 60.536C25.1808 60.4119 25.1597 60.2879 25.1386 60.1638C24.9089 60.2192 25.0488 60.4119 25.0039 60.536L25.0013 60.5255Z" fill="#00A79D"/>
<path d="M22.9974 2.76735C23.3538 1.01695 25.5689 0.0612193 27.3536 0.013697C29.9806 -0.0523063 32.5837 0.114022 35.2054 0.512682C37.2752 0.826857 39.0652 1.68226 40.9318 2.4347C42.4129 3.03137 43.1126 5.14083 42.1859 6.77771C41.8083 7.44303 41.0453 7.46151 40.4645 7.72288C39.155 8.31163 37.7425 8.5994 36.301 8.70765C34.4793 8.84229 32.5969 8.71293 30.8492 9.05615C28.0981 9.59473 23.6284 6.30249 23.0291 3.95013C23.0132 3.88677 23.008 3.82077 22.9974 3.75476C22.9974 3.42475 22.9974 3.09473 23 2.76471L22.9974 2.76735ZM30.2472 2.90992C29.0433 2.968 28.0295 2.92576 27.0262 3.15281C26.1154 3.35874 26.0124 3.53827 26.6117 4.24583C27.4434 5.22796 28.4361 6.02792 29.5713 6.63515C30.4294 7.09453 31.4326 7.37174 32.1428 7.98953C32.6286 8.41195 32.89 8.35915 33.3546 8.18226C35.3981 7.40342 37.5947 7.04701 39.522 5.94079C39.8441 5.75598 40.3906 5.77446 40.3747 5.29924C40.3589 4.8557 39.8863 4.65241 39.5325 4.43592C39.3715 4.33559 39.1708 4.29599 38.9834 4.24319C36.0634 3.43003 33.0933 2.95216 30.2498 2.90728L30.2472 2.90992Z" fill="#202020"/>
<path d="M89.4152 27.9146C89.2858 28.3846 89.6026 28.6565 89.8878 28.9179C92.52 31.3125 93.9536 34.4252 95.073 37.7069C95.3581 38.5438 95.3872 39.4705 95.5324 40.3575C95.5139 40.611 95.3977 40.7668 95.1284 40.7747C93.4467 40.2651 92.4117 39.1035 91.6223 37.559C89.5129 33.4325 86.2972 30.6339 81.6954 29.5858C79.6493 29.1212 77.6006 29.2822 75.5466 29.504C75.5202 29.4855 75.4779 29.4749 75.4647 29.4485C74.6384 27.8512 74.6331 27.8407 76.3175 27.31C80.1906 26.0929 84.0293 26.3807 87.839 27.6242C87.9922 27.6744 88.1559 27.6902 88.3143 27.7192L88.2984 27.6981C88.4304 27.8644 88.5941 27.9357 88.8053 27.8644C88.932 27.8776 89.0588 27.8882 89.1855 27.9014C89.2621 27.9067 89.3386 27.912 89.4152 27.9146Z" fill="#8FD5D0"/>
<path d="M0.276436 46.311C0.656614 46.8416 0.416362 47.5994 0.923268 48.0825C0.0546646 47.9083 -0.288552 46.9657 0.276436 46.311Z" fill="white"/>
<path d="M70.3931 17.8267C70.0578 17.6471 69.9786 17.3699 70.0736 17.0188C70.3799 17.0161 70.6888 17.0399 70.7838 17.399C70.8656 17.7079 70.6439 17.795 70.3904 17.8267H70.3931Z" fill="white"/>
<path d="M83.0789 62.9702H84.0663C84.0293 63.2923 83.8841 63.5299 83.5251 63.5009C83.2214 63.4771 83.1053 63.2501 83.0789 62.9702Z" fill="white"/>
<path d="M22.9974 2.76733C22.9974 3.09735 22.9974 3.42737 22.9948 3.75738C22.7149 3.72834 22.4879 3.61218 22.4641 3.30856C22.4377 2.94686 22.6727 2.8043 22.9974 2.76733Z" fill="white"/>
<path d="M57.9924 1.94362C57.6623 1.94362 57.335 1.94626 57.0049 1.9489C57.0419 1.62416 57.1845 1.38655 57.5435 1.41295C57.8498 1.43407 57.9659 1.66377 57.9924 1.94362Z" fill="white"/>
<path d="M22.6331 24.7042C22.3691 24.6382 22.105 24.5722 21.8437 24.5062C21.8648 24.2633 21.812 23.9385 22.2001 23.9861C22.612 24.0362 22.6331 24.3768 22.6331 24.7042Z" fill="white"/>
<path d="M77.9438 62.7722C78.2501 62.6639 78.5009 62.7854 78.7332 62.9702C78.3557 63.4692 78.2395 63.4401 77.9438 62.7722Z" fill="white"/>
<path d="M96.1132 33.4588C95.601 33.4245 95.5086 33.0787 95.5165 32.6589C95.9997 32.7143 96.0578 33.0866 96.1132 33.4588Z" fill="#FAFAFA"/>
<path d="M95.5667 56.0109C95.4399 55.4644 95.902 55.6993 96.1105 55.599C96.1185 55.9871 95.8571 56.0188 95.5667 56.0109Z" fill="#FAFAFA"/>
<path d="M98.6741 42.1607C98.5395 42.0287 98.4075 41.8993 98.2728 41.7673C98.4603 41.8439 99.0068 41.5508 98.6741 42.1607Z" fill="#FDFDFD"/>
<path d="M88.8079 27.8644C88.5967 27.9357 88.433 27.8644 88.301 27.6981C88.3406 27.0011 88.6891 27.6004 88.8845 27.5582C88.8581 27.6611 88.8343 27.7614 88.8079 27.8644Z" fill="#202020"/>
<path d="M94.3206 31.0774C94.0961 31.0167 94.1701 30.824 94.1384 30.6761C94.4024 30.7184 94.6427 30.7712 94.3206 31.0774Z" fill="#FAFAFA"/>
<path d="M68.6611 28.7436C68.6426 29.0023 68.4869 29.0947 68.2493 29.0868C68.2651 28.8254 68.3575 28.6564 68.6611 28.7436Z" fill="#242424"/>
<path d="M53.4566 3.34021C53.5992 3.38245 53.7972 3.31645 53.8526 3.53822C53.5226 3.87088 53.4909 3.60158 53.4566 3.34021Z" fill="white"/>
<path d="M65.5194 32.2682C65.4586 32.3949 65.5748 32.6325 65.2976 32.6193C65.155 32.3632 65.2184 32.2391 65.5194 32.2682Z" fill="#FAFAFA"/>
<path d="M88.8079 27.8644C88.8317 27.7614 88.8581 27.6611 88.8845 27.5581C89.0192 27.6426 89.1776 27.7086 89.1881 27.9013C89.0614 27.8881 88.9347 27.8776 88.8079 27.8644Z" fill="#242424"/>
<path d="M9.59344 60.1268C9.62777 60.0476 9.66209 59.971 9.69377 59.8918C9.72545 59.971 9.75713 60.0503 9.79145 60.1295C9.72545 60.1295 9.65945 60.1295 9.59344 60.1268Z" fill="#222221"/>
<path d="M71.6181 20.7889C71.5098 20.7625 71.42 20.7229 71.4728 20.5829C71.5204 20.6516 71.5705 20.7202 71.6181 20.7889Z" fill="#FAFAFA"/>
<path d="M32.1164 57.5553C32.1824 57.5025 32.2458 57.4497 32.3118 57.3942C32.3012 57.513 32.2564 57.5922 32.1164 57.5553Z" fill="#222221"/>
<path d="M71.23 20.3268C71.1851 20.3216 71.1376 20.3163 71.0927 20.311C71.1376 20.2688 71.1824 20.2239 71.2273 20.1816C71.23 20.2292 71.2326 20.2793 71.23 20.3268Z" fill="#FAFAFA"/>
<path d="M97.5389 51.4539C97.5151 51.3246 97.56 51.2691 97.692 51.3061C97.6418 51.3563 97.589 51.4038 97.5389 51.4539Z" fill="#FDFDFD"/>
<path d="M84.3646 33.8549H84.2933C84.7369 33.5724 84.3224 33.3929 84.1771 33.2846C83.8392 33.0312 83.4511 32.8437 83.0815 32.6325C82.9627 32.1626 81.7139 31.3732 81.2941 31.5263C81.0776 31.6055 81.1172 31.8405 81.1067 32.0306C80.7344 31.8299 80.3199 31.8801 79.9213 31.8326C79.9213 31.4973 79.8896 31.1567 79.4751 31.1065C79.1187 31.0643 78.9708 31.3098 78.9338 31.6346C78.2633 31.5765 77.6402 31.9963 76.959 31.8326C77.0013 31.2544 76.8798 30.8135 76.1591 30.8795C75.9558 30.4201 75.7525 29.9607 75.5518 29.5013C77.6032 29.2796 79.652 29.1185 81.7007 29.5832C86.3025 30.6313 89.5181 33.4298 91.6276 37.5564C92.417 39.1008 93.4519 40.2625 95.1337 40.772C95.2023 41.1443 95.271 41.5139 95.7515 41.5694C96.1501 45.1151 95.6591 48.5446 94.3733 51.8632C93.9166 51.9319 93.8136 52.1193 94.1753 52.4599C93.9192 52.9906 93.6631 53.5186 93.4044 54.0493C92.6124 54.0044 92.4012 54.3344 92.7708 55.0367C92.6889 55.1634 92.6071 55.2901 92.5252 55.4169C90.9544 55.2637 90.9095 56.7765 90.1966 57.558C89.9564 57.6108 89.8983 58.057 89.5419 57.8643C88.3565 57.7349 88.1796 57.8326 88.2377 58.5929C88.1004 58.8253 87.8337 58.8253 87.6278 58.9362C87.5671 58.8464 87.5116 58.6801 87.4483 58.6774C87.245 58.6642 87.2608 58.8543 87.2397 58.9969C85.9408 59.6965 84.5864 60.0846 83.1 59.7704C83.0657 59.7203 83.0287 59.6701 82.9944 59.6199C82.9759 59.6728 82.9548 59.7229 82.9363 59.7757C82.5535 60.4516 81.9066 60.0952 81.376 60.1612C81.0301 60.2034 80.6737 60.148 80.3226 60.1374C80.3226 59.8021 80.2909 59.4615 79.8764 59.4114C79.52 59.3691 79.3721 59.6147 79.3351 59.9394C78.3029 59.9684 77.3234 59.7229 76.3729 59.3454C76.3782 58.9995 76.3254 58.6827 75.9083 58.6088C75.5967 58.5533 75.404 58.6748 75.3776 59.0074C75.1822 58.9309 74.9077 59.0866 74.7862 58.8015C74.7915 58.4794 74.7994 58.1468 74.406 58.0385C74.1103 57.9567 74.0232 58.1626 73.9942 58.4081C73.548 58.321 73.1493 58.1309 72.7929 57.8511C72.8167 57.5158 72.8378 57.1699 72.4286 57.0485C72.1197 56.9587 71.9454 57.1567 71.8213 57.4102C71.494 57.1937 71.1666 56.9772 70.8392 56.7607C70.8049 55.7046 70.6861 55.5911 69.9838 55.9343C69.4347 55.5594 68.801 55.2743 68.5185 54.6037C68.6637 53.8803 67.9007 52.6236 67.0876 52.2513C66.9265 52.1669 66.8922 52.019 66.8896 51.8553C67.143 51.1002 66.219 49.1386 65.4903 48.8957C65.4322 48.8773 65.3636 48.8905 65.2976 48.8905C65.1867 48.8693 65.1154 48.8165 65.1418 48.6898C65.456 48.6528 65.7015 48.5156 65.6619 48.1591C65.6276 47.8555 65.3504 47.9162 65.1418 47.8978C64.5689 46.9816 64.5319 45.9097 64.3418 44.8959C64.2257 44.2702 64.3418 43.5996 64.3498 42.9502C64.4765 42.9317 64.6296 42.9158 64.6296 42.7521C64.6296 42.5885 64.4791 42.5726 64.3498 42.5541C64.3498 41.9601 64.3498 41.3661 64.3498 40.772C64.5029 40.743 64.6587 40.714 64.6824 40.5212C64.7115 40.2757 64.5478 40.2097 64.3498 40.1807C64.9596 38.3141 65.3609 36.3736 66.3431 34.639C67.3331 34.5361 67.6658 34.0344 67.6684 32.6378C68.5212 31.4471 69.5482 30.4597 70.8946 29.8393C71.4464 30.0056 71.9982 30.1561 72.5843 30.0822C72.682 30.7633 73.2708 31.2095 73.4265 31.8642C72.4946 32.1679 73.4001 32.7725 73.2074 33.1975C73.1546 33.2398 73.0965 33.2609 73.0279 33.2635C72.3124 33.1949 71.7052 33.2635 71.8187 34.2324C71.2643 34.6047 70.9026 35.1644 70.4538 35.6396C70.1845 35.5076 69.836 35.3413 69.733 35.7479C69.5746 36.363 69.0703 36.6746 68.7588 37.1392C68.5027 37.522 67.8981 38.1002 68.6954 38.6151C68.5898 38.9556 68.5502 39.3253 68.2836 39.5972C68.0143 39.6025 67.7872 39.6896 67.7186 39.9747C67.6473 40.2625 67.8321 40.3602 68.0776 40.384C68.0011 41.11 67.9219 41.8334 67.8453 42.5594C67.3859 42.5093 67.1562 42.7891 67.1272 43.1772C67.0902 43.6445 67.4176 43.8663 67.8479 43.9455C67.9245 44.6715 68.0011 45.3949 68.0776 46.121C67.8321 46.1447 67.6473 46.2424 67.7186 46.5302C67.7872 46.8153 68.0143 46.9024 68.2809 46.9104C68.6743 47.8291 69.0677 48.7479 69.4637 49.6693C69.131 50.7438 70.2848 52.2408 71.457 52.2487C71.5837 52.3754 71.7105 52.5022 71.8372 52.6289C71.8425 53.3523 72.1056 53.6172 72.6266 53.4236C73.5453 53.9727 74.4641 54.5192 75.3829 55.0684C75.3776 55.3641 75.404 55.6545 75.7314 55.7706C76.0033 55.8657 76.1432 55.7178 76.1749 55.4485C77.9148 55.9581 79.6652 56.3911 81.5053 56.2063C81.9858 56.824 82.3185 56.7792 82.4848 55.9871C83.9316 55.6254 85.3203 55.1159 86.6378 54.4136C86.6721 54.7278 86.8516 54.9443 87.1367 54.7463C87.538 54.4691 88.243 54.3423 87.9367 53.5661L87.9737 53.6005L87.9473 53.5582C89.2541 53.7325 90.0039 52.9668 89.9986 51.4619V51.4646C90.7537 51.388 91.1735 51.0976 90.7696 50.2686C91.0547 49.6799 91.3425 49.0885 91.6276 48.4997C91.955 48.4997 92.2903 48.4707 92.3352 48.0615C92.3774 47.676 92.0553 47.7288 91.8151 47.7077C91.8837 47.4437 91.9523 47.1796 92.021 46.9156C92.3484 46.9156 92.6837 46.8866 92.7312 46.4774C92.7734 46.0919 92.4513 46.1447 92.2111 46.1236C92.2111 45.849 92.05 45.548 92.3404 45.3184C92.5464 45.3104 92.7206 45.2603 92.7523 45.0174C92.7866 44.7586 92.7021 44.5791 92.4196 44.5395C92.4196 44.2755 92.4196 44.0115 92.4196 43.7475C92.5728 43.7184 92.7232 43.6815 92.7417 43.4861C92.7629 43.2406 92.5939 43.1825 92.4012 43.1534C92.2111 42.9185 92.1107 42.665 92.2243 42.3614C92.5464 42.3192 92.7813 42.166 92.7365 41.8149C92.6837 41.4057 92.351 41.3687 92.0183 41.3714C91.8652 40.7826 91.7121 40.1912 91.559 39.6025C91.9154 38.689 91.0124 37.2132 89.9854 37.0257C89.1908 35.8456 88.1321 34.9849 86.8384 34.4067C86.7645 34.3565 86.6932 34.3064 86.6193 34.2562C86.2259 34.2536 85.8299 34.2483 85.4365 34.2456L85.3441 34.2668L85.257 34.2324C85.3124 33.7018 84.8847 33.6411 84.5441 33.5513C84.3408 33.4985 84.3224 33.6939 84.3752 33.8602L84.3646 33.8549Z" fill="#00A79D"/>
<path d="M5.65702 45.6932C5.50125 47.1163 4.71713 48.2251 3.85117 49.2891C3.75613 49.2653 3.57924 49.2495 3.5766 49.2205C3.50267 48.1908 3.10401 47.1691 3.15682 46.1817C3.19114 45.5586 2.91392 45.0887 2.91128 44.5659C2.90336 43.0188 2.80568 41.4849 3.29146 39.9246C3.48683 39.2936 3.53963 38.3431 3.77725 37.7517C4.32639 36.3868 4.86498 34.977 5.81279 33.7651C8.62453 30.164 12.2943 28.2552 16.7878 27.6823C19.7844 27.2994 22.6727 27.5846 25.5214 28.5113C25.8857 28.6301 26.2131 28.8571 26.5589 29.034C26.2606 29.0921 26.192 29.3904 26.0045 29.5647C25.1993 30.3145 24.5366 31.1646 23.3855 31.558C22.0998 31.9962 20.946 31.7982 19.7368 31.4603C18.6755 31.1646 17.6142 30.7897 16.508 31.2834C16.3126 31.2834 16.1199 31.2887 15.9245 31.2887C15.6552 30.9692 15.576 31.1699 15.5179 31.4365C14.4275 31.3336 13.4111 31.7217 12.363 31.9065C12.2151 31.8986 12.0329 31.8141 12.0092 32.0702C11.9379 32.2867 11.7346 32.2497 11.5736 32.2972C11.4072 32.2655 11.2383 32.2286 11.1723 32.453V32.4503C11.0482 32.5058 10.8343 32.4187 10.8238 32.6642C9.77034 33.6806 8.43444 34.3988 7.65032 35.7003C7.54999 35.864 7.39423 35.9908 7.42063 36.2073C7.24374 36.2944 6.86092 36.1888 7.03517 36.6138C6.35137 38.0289 5.96063 39.547 5.44581 41.0229C5.3138 40.9832 5.27156 41.0387 5.29532 41.1628C5.42205 41.4585 5.45637 41.7674 5.45637 42.0921C5.45109 43.296 5.36925 44.5078 5.65966 45.6959L5.65702 45.6932Z" fill="#8FD5D0"/>
<path d="M32.9085 44.3282C32.7105 44.3282 32.5124 44.3045 32.3171 44.3335C31.7732 44.4101 31.5409 44.3018 31.4907 43.6392C31.3112 41.3422 30.8624 39.0981 29.3364 37.2527C28.5549 36.3075 27.5833 35.5551 26.5906 34.8449C26.2791 34.6231 26.0177 34.3934 26.2976 34.074C27.1424 33.1077 27.652 31.9381 28.3305 30.8715C28.6684 30.3408 28.8638 30.523 29.2202 30.8292C31.2663 32.5717 32.3752 34.895 33.2702 37.3451C33.9909 39.3146 34.3685 41.3713 34.6826 43.4385C34.7618 43.9665 34.651 44.3626 33.9909 44.3388C33.6292 44.3256 33.2675 44.3388 32.9085 44.3388C32.9085 44.3388 32.9085 44.3388 32.9085 44.3361V44.3282Z" fill="#00A79D"/>
<path d="M16.5053 31.2807C17.6115 30.787 18.6702 31.1619 19.7342 31.4576C20.9407 31.7929 22.0971 31.9935 23.3829 31.5553C24.534 31.1619 25.1966 30.3118 26.0019 29.562C26.1893 29.3877 26.258 29.0894 26.5563 29.0313C26.8942 29.0947 27.1239 29.2478 26.9127 29.6227C26.1524 30.9692 25.3682 32.3024 24.6184 33.6542C24.4574 33.9472 24.2251 33.7915 24.0271 33.8469C23.9531 33.839 23.8766 33.8337 23.8026 33.8258C23.7314 33.5037 23.4409 33.4747 23.2033 33.3743C21.2417 32.2972 19.2352 31.3625 16.9145 31.4655C16.7535 31.4734 16.5845 31.4761 16.508 31.2807H16.5053Z" fill="#00A79D"/>
<path d="M65.2923 48.8877C65.3557 48.8877 65.427 48.8745 65.485 48.893C66.2111 49.1359 67.1351 51.0975 66.8843 51.8526C66.7629 51.8526 66.6441 51.8526 66.5226 51.8526C66.2454 51.3272 65.9682 50.7992 65.6883 50.2738C65.992 49.7748 65.5537 49.9227 65.3425 49.8725C65.3266 49.5451 65.3108 49.2151 65.2923 48.8877Z" fill="#00A79D"/>
<path d="M68.6902 38.6044C67.8928 38.0896 68.4974 37.5141 68.7535 37.1286C69.0651 36.6639 69.5693 36.3524 69.7277 35.7373C69.8307 35.3307 70.1792 35.497 70.4485 35.629C69.7594 36.5583 69.1469 37.5352 68.6902 38.6044Z" fill="#00A79D"/>
<path d="M71.4491 52.2408C70.2769 52.2302 69.1231 50.7333 69.4558 49.6614L71.4491 52.2408Z" fill="#00A79D"/>
<path d="M89.9907 51.4513C89.9934 52.9562 89.2462 53.7192 87.9393 53.5476C88.6231 52.8479 89.3069 52.1509 89.9907 51.4513Z" fill="#00A79D"/>
<path d="M90.1914 57.5553C90.9042 56.7739 90.9517 55.2611 92.52 55.4142C91.8943 56.2933 91.1577 57.0511 90.1914 57.5553Z" fill="#00A79D"/>
<path d="M67.0797 52.2487C67.8928 52.6209 68.6558 53.8776 68.5106 54.601C67.8163 54.0756 67.4572 53.2704 66.8817 52.6447C67.0427 52.5602 67.0744 52.4123 67.0797 52.2487Z" fill="#00A79D"/>
<path d="M89.9723 37.0178C91.0019 37.2052 91.9048 38.6837 91.5458 39.5945C90.9861 38.755 90.6376 37.7887 89.9723 37.0178Z" fill="#00A79D"/>
<path d="M67.6631 32.6325C67.6631 34.0291 67.3278 34.5308 66.3378 34.6337C66.6678 33.8918 66.9318 33.1077 67.6631 32.6325Z" fill="#00A79D"/>
<path d="M81.104 32.0279C81.1146 31.8378 81.075 31.6028 81.2915 31.5236C81.7139 31.3705 82.9627 32.1599 83.0789 32.6298C82.4215 32.4292 81.7614 32.2285 81.104 32.0279Z" fill="#00A79D"/>
<path d="M72.5764 30.0769C71.993 30.1508 71.4385 30.0003 70.8867 29.834C71.787 28.704 71.956 28.7278 72.5764 30.0769Z" fill="#00A79D"/>
<path d="M87.9261 53.5555C88.2324 54.3317 87.5275 54.4585 87.1262 54.7357C86.8384 54.9337 86.6615 54.7172 86.6272 54.403C87.0602 54.1205 87.4932 53.838 87.9261 53.5555Z" fill="#00A79D"/>
<path d="M67.8427 43.9375C67.4123 43.861 67.085 43.6366 67.1219 43.1693C67.151 42.7812 67.3833 42.5013 67.84 42.5515V43.9375H67.8427Z" fill="#00A79D"/>
<path d="M69.9759 55.9317C70.6782 55.5885 70.797 55.702 70.8313 56.758C70.2373 56.8056 70.0921 56.3831 69.9759 55.9317Z" fill="#00A79D"/>
<path d="M73.2021 33.1895C73.3922 32.7645 72.4893 32.1599 73.4213 31.8563C73.68 32.3552 74.0892 32.878 73.2021 33.1895Z" fill="#00A79D"/>
<path d="M88.2324 58.5903C88.1743 57.8299 88.3512 57.7322 89.5366 57.8616C89.1697 58.2286 88.8212 58.622 88.2324 58.5903Z" fill="#00A79D"/>
<path d="M95.7462 41.5694C95.2684 41.5166 95.1971 41.1443 95.1284 40.7721C95.3977 40.7668 95.5165 40.6084 95.5324 40.3549C95.968 40.6955 96.2558 41.0625 95.7436 41.5667L95.7462 41.5694Z" fill="#00A79D"/>
<path d="M76.1564 30.8768C76.8772 30.8108 76.9986 31.2544 76.9564 31.8299C76.3043 31.8352 76.1723 31.4048 76.1564 30.8768Z" fill="#00A79D"/>
<path d="M90.759 50.258C91.1629 51.0844 90.7432 51.3774 89.9881 51.454C90.2442 51.0553 90.5029 50.6567 90.759 50.258Z" fill="#00A79D"/>
<path d="M75.367 59.0048C75.3934 58.6721 75.5862 58.5507 75.8977 58.6061C76.3148 58.68 76.3676 58.9942 76.3624 59.3427C75.9875 59.3559 75.6706 59.2001 75.367 59.0048Z" fill="#00A79D"/>
<path d="M71.8161 34.2219C71.7025 33.2529 72.3098 33.1843 73.0252 33.2529C72.6213 33.575 72.22 33.8971 71.8161 34.2219Z" fill="#00A79D"/>
<path d="M71.8161 57.4075C71.9402 57.154 72.1144 56.956 72.4233 57.0458C72.8325 57.1672 72.8114 57.5131 72.7876 57.8484C72.4391 57.756 72.0616 57.7296 71.8161 57.4075Z" fill="#00A79D"/>
<path d="M79.3272 59.9367C79.3642 59.612 79.5147 59.3664 79.8685 59.4087C80.283 59.4588 80.3173 59.7968 80.3146 60.1347C79.9846 60.0687 79.6572 60.0027 79.3272 59.9367Z" fill="#00A79D"/>
<path d="M92.0078 41.3634C92.3404 41.3634 92.6731 41.3951 92.7259 41.8069C92.7708 42.1581 92.5332 42.3112 92.2137 42.3535L92.0078 41.3634Z" fill="#00A79D"/>
<path d="M78.9312 31.6319C78.9682 31.3071 79.1187 31.0616 79.4724 31.1039C79.8869 31.154 79.9213 31.492 79.9186 31.8299C79.5886 31.7639 79.2612 31.6979 78.9312 31.6319Z" fill="#00A79D"/>
<path d="M72.6187 53.4156C72.0977 53.6092 71.8346 53.3443 71.8293 52.6209C72.1778 52.8031 72.4128 53.0935 72.6187 53.4156Z" fill="#00A79D"/>
<path d="M91.8045 47.6971C92.0448 47.7182 92.3669 47.6654 92.3246 48.0509C92.2797 48.4601 91.9444 48.4891 91.6171 48.4891C91.6804 48.2251 91.7411 47.9611 91.8045 47.6971Z" fill="#00A79D"/>
<path d="M82.4743 55.9765C82.308 56.7685 81.9727 56.8108 81.4948 56.1956C81.7667 55.8709 82.1548 56.0768 82.4743 55.9765Z" fill="#00A79D"/>
<path d="M73.9863 58.4054C74.0153 58.1599 74.1024 57.9566 74.3981 58.0358C74.7915 58.1441 74.7836 58.4767 74.7783 58.7988C74.4588 58.783 74.2159 58.6087 73.9889 58.4054H73.9863Z" fill="#00A79D"/>
<path d="M92.7655 55.0367C92.3985 54.3344 92.6071 54.0044 93.3992 54.0493C93.3279 54.469 92.9635 54.6987 92.7655 55.0367Z" fill="#00A79D"/>
<path d="M92.2005 46.113C92.4408 46.1341 92.7629 46.0813 92.7206 46.4668C92.6758 46.876 92.3378 46.905 92.0104 46.905C92.0738 46.641 92.1372 46.377 92.2005 46.113Z" fill="#00A79D"/>
<path d="M68.2757 46.9024C68.009 46.8945 67.7819 46.8047 67.7133 46.5222C67.642 46.2344 67.8242 46.1394 68.0724 46.113C68.3813 46.3136 68.2149 46.6384 68.2757 46.9024Z" fill="#00A79D"/>
<path d="M76.1644 55.4406C76.1327 55.7099 75.9928 55.8577 75.7208 55.7627C75.3934 55.6492 75.367 55.3561 75.3723 55.0604C75.6363 55.1872 75.9004 55.3139 76.1617 55.4406H76.1644Z" fill="#00A79D"/>
<path d="M68.0724 40.376C67.8242 40.3522 67.642 40.2545 67.7133 39.9668C67.7846 39.6816 68.009 39.5945 68.2783 39.5892C68.2149 39.8532 68.3839 40.178 68.0724 40.3786V40.376Z" fill="#00A79D"/>
<path d="M65.1365 47.8951C65.3451 47.9162 65.6249 47.8528 65.6566 48.1565C65.6962 48.5102 65.4507 48.6475 65.1365 48.6871C65.3504 48.4231 65.0362 48.1591 65.1365 47.8951Z" fill="#00A79D"/>
<path d="M67.0797 52.2486C67.0744 52.4123 67.0427 52.5602 66.8817 52.6446C66.5332 52.4836 66.4328 52.2117 66.52 51.8526C66.6414 51.8526 66.7602 51.8526 66.8817 51.8526C66.8843 52.0163 66.9213 52.1641 67.0797 52.2486Z" fill="#00A79D"/>
<path d="M23.198 33.3717C23.4357 33.472 23.7261 33.5011 23.7974 33.8232C23.4489 33.8786 23.1109 33.876 22.8311 33.612C22.9525 33.5328 23.074 33.4509 23.1954 33.3717H23.198Z" fill="#222222"/>
<path d="M92.4091 44.5316C92.6916 44.5712 92.7761 44.7507 92.7417 45.0094C92.7101 45.2523 92.5358 45.3051 92.3299 45.3104C92.3563 45.0517 92.3827 44.7903 92.4091 44.5316Z" fill="#00A79D"/>
<path d="M8.7856 56.6102C9.14202 56.6102 9.35851 56.7686 9.39811 57.1356C9.02585 57.1567 8.7988 57.0062 8.7856 56.6102Z" fill="#00A79D"/>
<path d="M92.388 43.1454C92.5833 43.1745 92.7497 43.2326 92.7285 43.4781C92.7127 43.6708 92.5596 43.7078 92.4064 43.7395C92.4012 43.5415 92.3932 43.3435 92.388 43.1454Z" fill="#00A79D"/>
<path d="M94.1701 52.4598C93.8084 52.1193 93.9113 51.9318 94.3681 51.8632C94.3417 52.0744 94.3839 52.3093 94.1701 52.4598Z" fill="#00A79D"/>
<path d="M64.3471 40.1753C64.5425 40.207 64.7088 40.2704 64.6798 40.5159C64.656 40.7086 64.5003 40.7403 64.3471 40.7667C64.3471 40.5687 64.3471 40.3707 64.3471 40.1727V40.1753Z" fill="#00A79D"/>
<path d="M63.1327 23.165C63.138 22.7531 63.4257 22.7531 63.7188 22.7584C63.6686 23.1043 63.3835 23.1095 63.1327 23.165Z" fill="#FAFAFA"/>
<path d="M7.03253 36.6111C6.85828 36.1887 7.2411 36.2943 7.41799 36.2045C7.41799 36.4633 7.29654 36.6032 7.03253 36.6111Z" fill="#222222"/>
<path d="M19.89 44.3415C19.8557 44.6108 19.7764 44.8458 19.486 44.9434C19.4253 44.8722 19.3619 44.8009 19.3012 44.7296L19.3171 44.6979C19.3646 44.5712 19.4147 44.4445 19.4623 44.3204L19.457 44.3257C19.6022 44.3309 19.7448 44.3389 19.89 44.3441V44.3415Z" fill="#242424"/>
<path d="M65.3398 49.8726C65.5537 49.9227 65.9919 49.7749 65.6857 50.2739C65.5167 50.1867 65.3583 50.089 65.3398 49.8726Z" fill="#00A79D"/>
<path d="M64.3471 42.5515C64.4739 42.5699 64.627 42.5858 64.627 42.7495C64.627 42.9132 64.4765 42.9264 64.3471 42.9475C64.3471 42.8155 64.3471 42.6835 64.3471 42.5515Z" fill="#00A79D"/>
<path d="M87.2318 58.9915C87.2529 58.8489 87.2371 58.6615 87.4404 58.6721C87.5064 58.6747 87.5618 58.841 87.6199 58.9308C87.4905 58.9519 87.3612 58.9704 87.2292 58.9915H87.2318Z" fill="#00A79D"/>
<path d="M15.5153 31.4339C15.5734 31.1672 15.6526 30.9666 15.9219 31.286C15.8506 31.5104 15.6816 31.4708 15.5153 31.4339Z" fill="#00A79D"/>
<path d="M10.8238 32.6615C10.8343 32.4159 11.0455 32.5031 11.1723 32.4476C11.1934 32.7407 11.0693 32.8014 10.8238 32.6615Z" fill="#222222"/>
<path d="M11.1696 32.453C11.2356 32.2286 11.4046 32.2655 11.5709 32.2972C11.5604 32.6642 11.3518 32.5269 11.1696 32.453Z" fill="#222222"/>
<path d="M12.0065 32.0675C12.0329 31.8114 12.2151 31.8959 12.3603 31.9038C12.3656 32.2259 12.1993 32.1784 12.0065 32.0675Z" fill="#222222"/>
<path d="M25.0013 60.5255C25.0462 60.4014 24.9062 60.2087 25.1359 60.1533C25.157 60.2773 25.1782 60.4014 25.1993 60.5255C25.1333 60.5255 25.0673 60.5255 24.9986 60.5255H25.0013Z" fill="#00A79D"/>
<path d="M34.4899 46.7203C34.4899 46.6015 34.4846 46.4827 34.482 46.3612C34.7882 46.4747 34.6483 46.5962 34.4899 46.7203Z" fill="#00A79D"/>
<path d="M61.1552 25.4883C61.2186 25.4355 61.2793 25.3827 61.3427 25.3299C61.3374 25.4513 61.2952 25.5279 61.1552 25.4883Z" fill="#FAFAFA"/>
<path d="M6.62594 48.5076C6.52562 48.4733 6.44113 48.4284 6.48601 48.2964C6.53354 48.3677 6.58106 48.4363 6.62594 48.5076Z" fill="#222222"/>
<path d="M31.3191 46.3532C31.2663 46.4034 31.2135 46.4562 31.1607 46.5063C31.1369 46.377 31.1871 46.3242 31.3191 46.3532Z" fill="#00A79D"/>
<path d="M43.6063 31.2728C43.6617 31.3362 43.7145 31.4022 43.77 31.4656C43.6485 31.4576 43.5719 31.4128 43.6063 31.2728Z" fill="#FDFDFD"/>
<path d="M82.9284 59.7704C82.9469 59.7176 82.968 59.6674 82.9865 59.6146C83.0208 59.6648 83.0577 59.7149 83.0921 59.7651C83.0366 59.7677 82.9812 59.7704 82.9257 59.7704H82.9284Z" fill="#222222"/>
<path d="M5.29005 41.1627C5.26629 41.0387 5.30853 40.9832 5.44054 41.0228C5.39038 41.0703 5.34021 41.1179 5.29005 41.1627Z" fill="#222222"/>
<path d="M86.6087 34.2482C86.6827 34.2984 86.7539 34.3486 86.8279 34.3987C86.6985 34.4304 86.6457 34.3538 86.6087 34.2482Z" fill="#00A79D"/>
<path d="M34.482 50.823C34.3606 50.8441 34.3051 50.7992 34.3368 50.6699C34.3843 50.72 34.4318 50.7702 34.482 50.823Z" fill="#242424"/>
<path d="M30.2472 2.90991C33.0906 2.95479 36.0608 3.43266 38.9808 4.24582C39.1682 4.29862 39.3689 4.33822 39.5299 4.43855C39.8837 4.65504 40.3589 4.85833 40.3721 5.30187C40.388 5.77973 39.8415 5.75861 39.5194 5.94342C37.5921 7.04964 35.3955 7.40605 33.352 8.18489C32.89 8.36178 32.626 8.41458 32.1402 7.99216C31.4274 7.37437 30.4267 7.09716 29.5687 6.63778C28.4334 6.03055 27.4408 5.23059 26.6091 4.24846C26.0098 3.5409 26.1128 3.36137 27.0236 3.15544C28.0269 2.92839 29.0407 2.97063 30.2446 2.91255L30.2472 2.90991Z" fill="#00A79D"/>
<path d="M19.486 44.9434C19.4385 45.0675 19.3356 45.1652 19.222 45.0913C19.0029 44.9434 19.3435 44.8114 19.2669 44.653L19.2379 44.7111L19.3012 44.7269C19.362 44.7982 19.4253 44.8695 19.486 44.9408V44.9434Z" fill="#242424"/>
<path d="M19.3017 44.7303L19.2405 44.7117L19.2671 44.6532L19.2644 44.6319L19.3176 44.6984L19.3017 44.7303Z" fill="white"/>
<path d="M19.3171 44.6979L19.2643 44.6345C19.2748 44.4946 19.2933 44.36 19.4649 44.3204C19.4174 44.4471 19.3672 44.5738 19.3197 44.6979H19.3171Z" fill="#202020"/>
<path d="M84.3646 33.8548C84.3118 33.6885 84.3276 33.4931 84.5336 33.5459C84.8742 33.6357 85.2992 33.6964 85.2464 34.2271C84.8847 34.264 84.6445 34.0132 84.3672 33.8548H84.3646Z" fill="#242424"/>
</svg>
