<svg width="75" height="74" viewBox="0 0 75 74" fill="none" xmlns="http://www.w3.org/2000/svg">
<path d="M65.6156 72.9283C65.55 73.1153 65.3873 73.0959 65.2416 73.0886C62.257 72.972 59.2822 73.346 56.2953 73.2853C52.8639 73.2149 49.4277 73.3922 46.0012 73.5136C42.9244 73.6229 39.8524 73.533 36.7805 73.6374C27.5962 73.9434 18.4095 73.7078 9.22521 73.9313C6.64866 73.9944 4.29552 73.482 2.44263 71.5975C0.852016 69.9754 0.0214962 67.9816 0.0117825 65.6868C0.00206884 63.2049 -0.0100733 60.7231 0.0142109 58.2437C0.0482088 55.0042 1.38384 52.4713 4.21052 50.8006C5.21103 50.208 6.30868 49.8996 7.47432 49.8365C7.65645 49.8268 7.87501 49.8948 8.011 49.817C8.55254 49.5014 9.28592 49.9142 9.65747 49.5863C10.1164 49.1808 9.42677 48.6296 9.42434 48.0637C9.41948 46.0991 10.2961 44.4818 11.2481 42.8815C12.3482 41.0286 13.4069 39.1417 14.6454 37.3835C15.4541 36.2349 16.2846 35.062 16.8723 33.838C17.5717 32.381 18.8005 31.2323 19.189 29.6369C19.2643 29.3285 19.7184 29.3357 19.6431 28.9642C19.8374 28.8719 20.2527 29.0638 20.1385 28.5781C19.9005 28.2187 20.1045 27.9345 20.2939 27.6456C21.275 26.1691 21.9623 24.5348 22.7442 22.9539C22.9555 22.7572 23.0696 22.5095 23.1085 22.2278C24.3227 19.8625 25.5393 17.4972 26.7535 15.1295L26.8968 14.9304C27.2902 14.078 27.6812 13.2256 28.0746 12.3732C28.2422 12.026 28.519 11.7297 28.5603 11.3242C28.7691 10.938 28.978 10.5543 29.1868 10.1682C29.2354 10.1901 29.216 10.3552 29.3325 10.2411C29.2912 10.2095 29.2524 10.1779 29.2111 10.1464C30.0441 8.35905 30.8843 6.57417 31.71 4.78199C32.0014 4.1506 32.2102 3.47793 32.725 2.97282C32.9217 2.90239 32.8902 2.7494 32.8635 2.59641C32.759 1.88731 33.3516 1.49634 33.6163 0.957229C33.6818 0.908661 33.745 0.857664 33.8105 0.809096C34.6969 0.153422 35.933 0.381694 36.7829 1.07379C38.3857 2.38028 38.7427 4.26231 39.2648 6.05448C40.2386 9.39113 40.4814 12.8273 40.3527 16.2878C40.3041 17.5482 40.2361 18.8231 39.7893 20.0325L39.4809 20.319C39.5829 20.3482 39.6873 20.3797 39.7893 20.4089C39.7942 22.0335 39.3279 23.5755 38.9831 25.1419C38.8034 25.9554 38.7305 26.8078 38.1623 27.4853C37.9534 27.5484 37.9996 27.7039 38.0263 27.852C38.0603 29.3188 37.4993 30.6398 36.8995 31.9196C36.3822 33.0197 36.1297 34.1974 35.6489 35.3097C33.9708 39.1951 32.2515 43.049 29.9202 46.6067C29.2135 47.6849 28.3782 48.6271 27.3509 49.6641C28.1815 49.6641 28.8323 49.6641 29.4855 49.6641C37.3585 49.6762 45.2314 49.6786 53.1019 49.7053C57.7208 49.7223 62.3445 49.7005 66.9609 49.8413C70.2077 49.9409 72.7648 51.3785 74.1005 54.4748C74.5473 55.5093 74.7804 56.6288 74.9067 57.7895C75.203 60.5264 74.6833 63.2438 74.8557 65.9758C74.9067 66.7844 74.5716 67.5761 74.3239 68.3532C74.2267 68.3823 74.1417 68.4236 74.1854 68.5523C73.2287 70.5363 71.8032 72.0055 69.6686 72.7195C68.7604 73.023 67.8448 72.9623 66.922 72.8822C66.871 72.4888 67.024 72.2678 67.4296 72.1731C67.7793 72.0929 68.1144 71.9497 68.4471 71.8112C70.8367 70.8156 72.505 69.1983 72.726 66.4979C72.828 65.2521 72.692 63.9844 72.6628 62.7265C72.6701 61.522 72.8401 60.2884 72.6385 59.1203C72.4103 57.7871 72.8158 56.3592 71.9003 55.0989C70.9629 53.8094 69.9309 52.7627 68.3257 52.4155C66.7666 52.0585 65.1954 52.328 63.6315 52.3329C54.287 52.3523 44.94 52.3839 35.5954 52.3815C26.3407 52.3815 17.086 52.3475 7.83372 52.328C7.76816 51.9662 7.49375 52.0245 7.24362 52.0366C6.89635 52.2649 6.54423 52.4592 6.14112 52.6073C5.24503 52.9376 4.40965 53.3747 3.83897 54.2295C2.88218 55.6598 2.58591 57.2529 2.52277 58.9212C2.4062 58.9382 2.26778 58.9528 2.26536 59.1009C2.26536 59.249 2.40135 59.266 2.51791 59.283C2.51791 60.4948 2.51791 61.7066 2.51791 62.9184C2.37706 62.9451 2.23622 62.9742 2.21679 63.1515C2.1925 63.3749 2.34307 63.4356 2.52277 63.4623C2.53734 64.339 2.48149 65.2205 2.58105 66.0875C2.75104 67.5397 3.09102 68.9481 4.35623 69.9074C5.58015 71.2139 7.19748 71.5417 8.86823 71.6024C11.1218 71.6825 13.3802 71.651 15.6362 71.668C15.663 71.8477 15.7237 72.0007 15.9495 71.974C16.1268 71.9521 16.1559 71.8112 16.1802 71.6704C18.6863 71.6656 21.1925 71.719 23.6986 71.7675C31.5861 71.9205 39.4785 71.9375 47.3684 72.0274C49.5734 72.0517 51.776 72.1488 53.9786 72.2119C54.0733 72.6053 54.2578 72.6491 54.5298 72.3528C58.2234 72.4111 61.9195 72.2508 65.6058 72.5908C65.6083 72.7049 65.6107 72.8166 65.6131 72.9307L65.6156 72.9283ZM28.3563 44.7489C28.3563 44.7052 28.3563 44.6591 28.3563 44.6154C28.4753 44.4891 28.6283 44.3822 28.7109 44.2341C29.8886 42.1675 30.9693 40.0499 31.8581 37.8401C32.1082 37.7867 32.2588 37.6992 31.9771 37.4734C33.3443 34.5471 34.4953 31.5335 35.2336 28.3911C35.7047 26.3804 36.4915 24.4619 36.7829 22.388C36.8849 21.6692 36.8048 20.88 37.0258 20.2632C37.4313 19.1242 36.7951 17.7789 37.7786 16.7905C37.8077 16.7614 37.6912 16.5914 37.6547 16.4845C37.4653 15.9454 37.4799 15.3796 37.4216 14.8211C37.3099 13.7671 37.8247 12.6428 37.0913 11.6568C37.5454 10.8798 37.2419 10.0322 37.1059 9.29885C36.8048 7.68153 36.2851 6.09577 35.7533 4.53429C35.6658 4.27931 35.9063 3.6722 35.3404 3.7062C34.8936 3.73534 34.9446 4.28659 34.7285 4.57558C34.6678 4.65571 34.709 4.81113 34.7018 4.93255C34.1068 5.26282 34.1481 5.9452 33.8882 6.45274C31.7828 10.5641 29.7624 14.7191 27.6254 18.8134C26.8944 20.2146 26.2509 21.6814 25.2722 22.9466C24.8302 23.1821 24.6165 23.5245 24.7525 24.0345C24.6797 24.1511 24.6068 24.2676 24.534 24.3866C24.2304 24.6198 23.8904 24.831 24.0313 25.307C23.8759 25.596 23.633 25.8437 23.6233 26.2007C23.1571 26.2444 23.0259 26.5188 23.1158 26.9438C23.0891 26.9972 23.0769 27.0555 23.0793 27.1162C22.8632 27.1477 22.6762 27.2012 22.7734 27.4901C22.5718 27.7913 22.3702 28.0948 22.1687 28.396C21.8409 28.5417 21.7583 28.7942 21.8409 29.1245C21.8141 29.1779 21.802 29.2362 21.8044 29.2945C21.5834 29.3212 21.3989 29.3795 21.496 29.6684C20.8719 30.7539 20.2478 31.8419 19.6237 32.9274C19.4464 32.9954 19.121 32.9225 19.2692 33.2989C19.0846 33.6583 18.9 34.0202 18.7155 34.3796C18.5382 34.4476 18.2152 34.3747 18.3634 34.7511C17.375 36.6744 16.0151 38.3573 14.8664 40.1762C13.4798 42.3739 11.7605 44.3725 10.862 46.8714C10.3763 48.2216 11.0732 49.6398 12.3749 49.6446C15.0971 49.6568 17.8194 49.6325 20.5416 49.6228C25.3863 50.208 26.4451 47.8209 28.3514 44.7489H28.3563Z" fill="#202020"/>
<path d="M72.6628 62.7241C72.692 63.982 72.8279 65.2472 72.726 66.4955C72.505 69.1959 70.8366 70.8132 68.4471 71.8088C68.1144 71.9473 67.7768 72.0881 67.4296 72.1707C67.0265 72.2654 66.871 72.4864 66.922 72.8798C66.6622 72.8433 66.4315 72.6369 66.1498 72.7511C65.9749 72.6758 65.8244 72.5228 65.6083 72.5884C61.9219 72.2484 58.2234 72.4111 54.5298 72.3504C54.389 72.1343 54.1801 72.1901 53.9785 72.2095C51.776 72.1464 49.571 72.0493 47.3684 72.025C39.4784 71.9351 31.5885 71.9181 23.6986 71.7651C21.1924 71.7166 18.6863 71.6631 16.1802 71.668C15.998 71.668 15.8183 71.668 15.6362 71.668C13.3802 71.651 11.1218 71.6826 8.86821 71.6024C7.19745 71.5442 5.58255 71.2139 4.3562 69.9074C4.36591 69.8224 4.3732 69.7374 4.38291 69.6524C4.72775 69.6403 4.89288 69.361 5.12115 69.1692C5.92739 68.4868 6.86476 68.0448 7.91384 68.0181C11.6585 67.9258 15.4055 67.8942 19.1477 67.8772C28.9731 67.8359 38.8009 67.6247 48.6263 67.9841C51.8197 68.1006 55.0155 67.9962 58.204 67.6538C60.7878 67.377 63.3182 66.8937 65.7637 66.0122C68.1702 65.1453 70.5598 64.2346 72.6628 62.7241Z" fill="#056B67"/>
<path d="M23.1085 22.2253C23.0696 22.5095 22.9555 22.7547 22.7442 22.9514C22.3362 22.4439 22.6519 22.3006 23.1085 22.2253Z" fill="white"/>
<path d="M28.5579 11.3217C28.5166 11.7273 28.2398 12.0235 28.0722 12.3708C27.9556 11.8924 27.9678 11.4747 28.5579 11.3217Z" fill="white"/>
<path d="M39.7869 20.4065C39.6849 20.3773 39.5804 20.3458 39.4785 20.3166L39.7869 20.0301C39.9229 20.0616 40.1147 20.0519 40.071 20.2583C40.0564 20.3239 39.8864 20.3579 39.7869 20.4065Z" fill="#FEFEFE"/>
<path d="M38.0238 27.8495C37.9971 27.7014 37.951 27.546 38.1598 27.4828C38.2861 27.5144 38.4877 27.4974 38.444 27.6917C38.3978 27.9005 38.1793 27.8301 38.0263 27.8495H38.0238Z" fill="#FCFCFC"/>
<path d="M20.1385 28.5757C20.2503 29.0614 19.8374 28.8695 19.6431 28.9618C19.631 28.6048 19.8666 28.5684 20.1385 28.5757Z" fill="#FCFCFC"/>
<path d="M65.6083 72.5883C65.8244 72.5228 65.975 72.6758 66.1498 72.751C66.0381 73.0109 65.7856 72.8457 65.6156 72.9283C65.6131 72.8142 65.6107 72.7025 65.6083 72.5883Z" fill="#212020"/>
<path d="M32.861 2.59155C32.8901 2.74454 32.9217 2.89753 32.7226 2.96796C32.6667 2.80525 32.5161 2.60855 32.861 2.59155Z" fill="#FEFEFE"/>
<path d="M33.8057 0.804209C33.7401 0.852778 33.677 0.903774 33.6114 0.952343C33.6357 0.850349 33.6794 0.77264 33.8057 0.804209Z" fill="#222222"/>
<path d="M26.8968 14.9279L26.7535 15.1271C26.7171 15.0008 26.7972 14.9571 26.8968 14.9279Z" fill="#212020"/>
<path d="M74.1855 68.5475C74.1417 68.4188 74.2243 68.3799 74.3239 68.3483C74.2777 68.4139 74.2316 68.4819 74.1855 68.5475Z" fill="#FCFCFC"/>
<path d="M72.6628 62.7241C70.5622 64.2346 68.1727 65.1452 65.7637 66.0122C63.3182 66.8937 60.7878 67.377 58.204 67.6538C55.0155 67.9938 51.8197 68.1006 48.6263 67.9841C38.8009 67.6247 28.9731 67.8359 19.1477 67.8772C15.4055 67.8918 11.6585 67.9258 7.91384 68.0181C6.86476 68.0448 5.92739 68.4868 5.12115 69.1691C4.89531 69.361 4.72775 69.6427 4.38291 69.6524C4.43391 67.8748 4.04779 66.1093 4.19593 64.3317C4.29063 63.2025 4.31735 62.0393 5.09444 61.0946C5.61169 61.2889 5.51941 61.8183 5.58498 62.1753C5.87639 63.7902 7.09303 65.0335 8.7225 65.2667C8.86335 65.2861 9.01634 65.3444 9.12805 65.4294C10.2014 66.272 11.3403 66.3255 12.54 65.7402C13.6983 65.1768 14.5216 64.3342 14.9247 63.0738C15.6824 60.711 15.0801 58.6492 13.6328 56.7478C13.9023 56.7259 14.1864 56.7478 14.4439 56.6773C20.2405 55.1037 26.1731 54.6108 32.1422 54.5768C36.0398 54.5549 39.9374 54.5646 43.8375 54.6788C48.3956 54.8123 52.9635 54.8585 57.5313 54.5986C59.8165 54.4675 62.1065 54.3606 64.3843 54.1688C65.8681 54.0449 67.2911 53.6175 68.3281 52.4106C69.9333 52.7579 70.9653 53.8045 71.9027 55.094C72.8182 56.3544 72.4127 57.7799 72.641 59.1155C72.8425 60.286 72.6701 61.5172 72.6652 62.7217L72.6628 62.7241Z" fill="#0C7C77"/>
<path d="M24.5364 24.3843C24.6092 24.2677 24.6821 24.1511 24.7549 24.0321C25.192 23.7966 25.4907 23.493 25.2746 22.9442C26.2533 21.6766 26.8968 20.2122 27.6277 18.811C29.7648 14.7167 31.7852 10.5617 33.8906 6.45037C34.1505 5.94283 34.1092 5.26044 34.7042 4.93018C34.7114 7.51644 34.9859 10.0881 34.7673 12.6963C34.5342 15.4938 34.1092 18.2452 33.5045 20.9699C32.5987 25.0399 31.1951 28.9643 29.7283 32.857C27.9823 37.4856 25.8259 41.881 22.0909 45.3221C20.8792 46.4392 20.1992 47.8792 20.5465 49.6228C17.8242 49.6325 15.102 49.6568 12.3797 49.6447C11.0805 49.6398 10.3811 48.2192 10.8668 46.8714C11.7653 44.3702 13.4846 42.374 14.8713 40.1763C16.0199 38.3574 17.3822 36.6745 18.3682 34.7512C18.611 34.7463 18.7252 34.6176 18.7203 34.3796C18.9049 34.0202 19.0894 33.6584 19.274 33.299C19.5168 33.2941 19.631 33.1654 19.6285 32.9274C20.2526 31.8419 20.8767 30.754 21.5008 29.6685C21.734 29.6515 21.8141 29.5082 21.8092 29.2945C21.8068 29.2338 21.819 29.178 21.8457 29.1245C22.1954 28.991 22.4843 28.8283 22.1735 28.396C22.3751 28.0949 22.5766 27.7913 22.7782 27.4902C23.0089 27.4708 23.089 27.3299 23.0842 27.1162C23.0817 27.0555 23.0939 26.9972 23.1206 26.9438C23.531 26.8612 23.582 26.5334 23.6281 26.2007C23.6354 25.8437 23.8807 25.596 24.0361 25.3071C24.5194 25.1735 24.5291 24.7777 24.5388 24.3867L24.5364 24.3843Z" fill="#E6E7E8"/>
<path d="M5.0945 61.0947C4.31498 62.0393 4.29069 63.2025 4.19598 64.3317C4.04785 66.1093 4.43397 67.8748 4.38297 69.6524C4.37569 69.7374 4.36597 69.8224 4.35626 69.9074C3.09105 68.9482 2.75107 67.5397 2.58108 66.0875C2.47909 65.223 2.53737 64.339 2.5228 63.4624C2.5228 63.2802 2.52037 63.1005 2.51794 62.9184C2.51794 61.7066 2.51794 60.4948 2.51794 59.2831C2.51794 59.1616 2.52037 59.0426 2.5228 58.9212C2.58351 57.2529 2.88221 55.6599 3.839 54.2295C4.40968 53.3747 5.24506 52.94 6.14115 52.6073C6.54427 52.4592 6.89639 52.2649 7.24365 52.0367C7.28736 52.4446 7.55206 52.4058 7.83376 52.3281C17.0885 52.3475 26.3432 52.3815 35.5955 52.3815C44.94 52.3815 54.287 52.3523 63.6316 52.3329C65.1979 52.3305 66.7667 52.0585 68.3257 52.4155C67.2888 53.6248 65.8657 54.0498 64.382 54.1737C62.1017 54.3655 59.8117 54.4724 57.5289 54.6035C52.9611 54.8633 48.3932 54.8172 43.8351 54.6836C39.935 54.5695 36.035 54.5598 32.1398 54.5816C26.1683 54.6156 20.2381 55.1086 14.4415 56.6822C14.1841 56.7526 13.9024 56.7308 13.6304 56.7526C13.4458 56.5997 13.2637 56.4442 13.0743 56.2961C10.8717 54.5816 7.2825 55.2179 5.87888 57.5589C5.21835 58.6614 5.03864 59.8464 5.09693 61.0947H5.0945Z" fill="#1D9C97"/>
<path d="M20.5465 49.6228C20.1993 47.8792 20.8792 46.4391 22.091 45.322C25.8235 41.881 27.9824 37.4855 29.7284 32.857C31.1952 28.9666 32.6012 25.0399 33.5046 20.9698C34.1117 18.2452 34.5342 15.4938 34.7674 12.6962C34.9859 10.0881 34.7091 7.51883 34.7042 4.93013C34.7091 4.80871 34.6702 4.65329 34.7309 4.57315C34.9471 4.28417 34.8961 3.73292 35.3429 3.70378C35.9087 3.66735 35.6683 4.27446 35.7557 4.53187C36.2876 6.09577 36.8072 7.6791 37.1084 9.29643C37.2443 10.0298 37.5479 10.8773 37.0938 11.6544C37.8272 12.6404 37.3099 13.7647 37.4241 14.8187C37.4823 15.3772 37.4702 15.943 37.6572 16.4821C37.696 16.589 37.8126 16.759 37.781 16.7881C36.7975 17.774 37.4338 19.1194 37.0282 20.2607C36.8072 20.8776 36.8874 21.6668 36.7854 22.3856C36.4915 24.4595 35.7072 26.3779 35.236 28.3887C34.4978 31.531 33.3467 34.5447 31.9795 37.471C31.7731 37.539 31.8095 37.6871 31.8605 37.8377C30.9693 40.0475 29.8911 42.1627 28.7133 44.2317C28.6307 44.3774 28.4778 44.4867 28.3588 44.6129C28.3175 44.6178 28.2738 44.6227 28.2325 44.6275C28.2738 44.6664 28.315 44.7077 28.3563 44.7465C26.4524 47.8185 25.3912 50.2032 20.5465 49.6203V49.6228Z" fill="white"/>
<path d="M25.2771 22.9466C25.4908 23.4954 25.1945 23.799 24.7574 24.0345C24.6214 23.5246 24.8375 23.1822 25.2771 22.9466Z" fill="#E2E3E4"/>
<path d="M24.5364 24.3842C24.5267 24.7776 24.517 25.171 24.0337 25.3046C23.8929 24.8286 24.2328 24.6173 24.5364 24.3842Z" fill="#E2E3E4"/>
<path d="M22.176 28.3935C22.4868 28.8258 22.2003 28.9885 21.8482 29.1221C21.7656 28.7918 21.8482 28.5392 22.176 28.3935Z" fill="#E2E3E4"/>
<path d="M23.6282 26.1982C23.582 26.5285 23.531 26.8588 23.1206 26.9413C23.0308 26.5164 23.1619 26.2444 23.6282 26.1982Z" fill="#E2E3E4"/>
<path d="M7.83376 52.3256C7.55206 52.4033 7.28736 52.4422 7.24365 52.0342C7.49378 52.022 7.76819 51.9638 7.83376 52.3256Z" fill="#402428"/>
<path d="M2.51788 62.9184C2.51788 63.1005 2.52031 63.2802 2.52273 63.4623C2.34303 63.4332 2.19247 63.3749 2.21675 63.1515C2.23618 62.9742 2.37703 62.9451 2.51788 62.9184Z" fill="#212020"/>
<path d="M15.6387 71.6655C15.8208 71.6655 16.0005 71.6655 16.1826 71.6655C16.1559 71.8064 16.1292 71.9497 15.9519 71.9691C15.7261 71.9958 15.6678 71.8428 15.6387 71.6631V71.6655Z" fill="#212020"/>
<path d="M53.981 72.2095C54.1825 72.1901 54.3914 72.1342 54.5322 72.3503C54.2602 72.6466 54.0757 72.6029 53.981 72.2095Z" fill="#212020"/>
<path d="M19.631 32.9274C19.6334 33.1654 19.5217 33.2941 19.2764 33.2989C19.1283 32.9225 19.4513 32.9929 19.631 32.9274Z" fill="#E2E3E4"/>
<path d="M18.7227 34.3796C18.7252 34.6176 18.6135 34.7463 18.3706 34.7512C18.2225 34.3748 18.5479 34.4476 18.7227 34.3796Z" fill="#E2E3E4"/>
<path d="M23.0842 27.1137C23.0891 27.325 23.0114 27.4683 22.7782 27.4877C22.6811 27.2012 22.8681 27.1453 23.0842 27.1137Z" fill="#E2E3E4"/>
<path d="M21.8117 29.292C21.819 29.5057 21.7364 29.649 21.5033 29.666C21.4062 29.377 21.5907 29.3187 21.8117 29.292Z" fill="#E2E3E4"/>
<path d="M31.8605 37.8426C31.8095 37.6896 31.7731 37.5439 31.9795 37.4759C32.2612 37.7041 32.1082 37.7891 31.8605 37.8426Z" fill="#222222"/>
<path d="M2.52276 58.9212C2.52276 59.0426 2.52034 59.1616 2.51791 59.283C2.40134 59.2636 2.26292 59.249 2.26535 59.1009C2.26535 58.9528 2.4062 58.9382 2.52276 58.9212Z" fill="#212020"/>
<path d="M28.3563 44.7514C28.315 44.7125 28.2738 44.6712 28.2325 44.6324C28.2738 44.6275 28.3175 44.6227 28.3588 44.6178C28.3588 44.6615 28.3588 44.7077 28.3588 44.7514H28.3563Z" fill="#222222"/>
<path d="M29.2111 10.1415C29.2524 10.1731 29.2913 10.2047 29.3325 10.2362C29.216 10.3504 29.2378 10.1877 29.1868 10.1634L29.2111 10.1391V10.1415Z" fill="#222222"/>
<path d="M5.09448 61.0946C5.03863 59.8464 5.2159 58.6589 5.87643 57.5589C7.28006 55.2179 10.8693 54.5816 13.0718 56.2961C13.2613 56.4442 13.4434 56.5996 13.6279 56.7526C15.0777 58.6541 15.6775 60.7158 14.9199 63.0787C14.5168 64.3366 13.6935 65.1817 12.5352 65.7451C11.3355 66.3303 10.1966 66.2769 9.12323 65.4342C9.01395 65.3468 8.85853 65.2909 8.71769 65.2715C7.08822 65.0384 5.87158 63.795 5.58017 62.1801C5.5146 61.8207 5.60688 61.2938 5.08962 61.0995L5.09448 61.0946ZM12.9043 61.8353C13.0718 60.9344 12.6274 60.0868 12.1709 59.2612C11.6464 58.3141 10.2136 57.8988 9.19851 58.3457C7.99402 58.8775 7.46219 60.2155 7.91631 61.6435C8.21743 62.5905 8.75897 63.4866 8.96296 64.4167C9.14266 65.2375 9.53363 65.1744 9.98775 65.0797C11.7751 64.7033 13.0257 64.2346 12.9043 61.8329V61.8353Z" fill="#212020"/>
<path d="M12.9067 61.8353C13.0281 64.2346 11.775 64.7033 9.99012 65.0821C9.536 65.1792 9.14503 65.2399 8.96532 64.4191C8.76134 63.4891 8.2198 62.5905 7.91868 61.6459C7.46456 60.218 7.99638 58.8799 9.20088 58.3481C10.216 57.8988 11.6487 58.3165 12.1733 59.2636C12.6298 60.0893 13.0718 60.9392 12.9067 61.8377V61.8353Z" fill="#FEFEFE"/>
</svg>
