<svg width="83" height="82" viewBox="0 0 83 82" fill="none" xmlns="http://www.w3.org/2000/svg">
<g filter="url(#filter0_d_1_2982)">
<path d="M69.6156 72.9283C69.55 73.1153 69.3873 73.0959 69.2416 73.0886C66.257 72.972 63.2822 73.346 60.2953 73.2853C56.8639 73.2149 53.4277 73.3922 50.0012 73.5136C46.9244 73.6229 43.8524 73.533 40.7805 73.6374C31.5962 73.9434 22.4095 73.7078 13.2252 73.9313C10.6487 73.9944 8.29552 73.482 6.44263 71.5975C4.85202 69.9754 4.0215 67.9816 4.01178 65.6868C4.00207 63.2049 3.98993 60.7231 4.01421 58.2437C4.04821 55.0042 5.38384 52.4713 8.21052 50.8006C9.21103 50.208 10.3087 49.8996 11.4743 49.8365C11.6565 49.8268 11.875 49.8948 12.011 49.817C12.5525 49.5014 13.2859 49.9142 13.6575 49.5863C14.1164 49.1808 13.4268 48.6296 13.4243 48.0637C13.4195 46.0991 14.2961 44.4818 15.2481 42.8815C16.3482 41.0286 17.4069 39.1417 18.6454 37.3835C19.4541 36.2349 20.2846 35.062 20.8723 33.838C21.5717 32.381 22.8005 31.2323 23.189 29.6369C23.2643 29.3285 23.7184 29.3357 23.6431 28.9642C23.8374 28.8719 24.2527 29.0638 24.1385 28.5781C23.9005 28.2187 24.1045 27.9345 24.2939 27.6456C25.275 26.1691 25.9623 24.5348 26.7442 22.9539C26.9555 22.7572 27.0696 22.5095 27.1085 22.2278C28.3227 19.8625 29.5393 17.4972 30.7535 15.1295L30.8968 14.9304C31.2902 14.078 31.6812 13.2256 32.0746 12.3732C32.2422 12.026 32.519 11.7297 32.5603 11.3242C32.7691 10.938 32.978 10.5543 33.1868 10.1682C33.2354 10.1901 33.216 10.3552 33.3325 10.2411C33.2912 10.2095 33.2524 10.1779 33.2111 10.1464C34.0441 8.35905 34.8843 6.57417 35.71 4.78199C36.0014 4.1506 36.2102 3.47793 36.725 2.97282C36.9217 2.90239 36.8902 2.7494 36.8635 2.59641C36.759 1.88731 37.3516 1.49634 37.6163 0.957229C37.6818 0.908661 37.745 0.857664 37.8105 0.809096C38.6969 0.153422 39.933 0.381694 40.7829 1.07379C42.3857 2.38028 42.7427 4.26231 43.2648 6.05448C44.2386 9.39113 44.4814 12.8273 44.3527 16.2878C44.3041 17.5482 44.2361 18.8231 43.7893 20.0325L43.4809 20.319C43.5829 20.3482 43.6873 20.3797 43.7893 20.4089C43.7942 22.0335 43.3279 23.5755 42.9831 25.1419C42.8034 25.9554 42.7305 26.8078 42.1623 27.4853C41.9534 27.5484 41.9996 27.7039 42.0263 27.852C42.0603 29.3188 41.4993 30.6398 40.8995 31.9196C40.3822 33.0197 40.1297 34.1974 39.6489 35.3097C37.9708 39.1951 36.2515 43.049 33.9202 46.6067C33.2135 47.6849 32.3782 48.6271 31.3509 49.6641C32.1815 49.6641 32.8323 49.6641 33.4855 49.6641C41.3585 49.6762 49.2314 49.6786 57.1019 49.7053C61.7208 49.7223 66.3445 49.7005 70.9609 49.8413C74.2077 49.9409 76.7648 51.3785 78.1005 54.4748C78.5473 55.5093 78.7804 56.6288 78.9067 57.7895C79.203 60.5264 78.6833 63.2438 78.8557 65.9758C78.9067 66.7844 78.5716 67.5761 78.3239 68.3532C78.2267 68.3823 78.1417 68.4236 78.1854 68.5523C77.2287 70.5363 75.8032 72.0055 73.6686 72.7195C72.7604 73.023 71.8448 72.9623 70.922 72.8822C70.871 72.4888 71.024 72.2678 71.4296 72.1731C71.7793 72.0929 72.1144 71.9497 72.4471 71.8112C74.8367 70.8156 76.505 69.1983 76.726 66.4979C76.828 65.2521 76.692 63.9844 76.6628 62.7265C76.6701 61.522 76.8401 60.2884 76.6385 59.1203C76.4103 57.7871 76.8158 56.3592 75.9003 55.0989C74.9629 53.8094 73.9309 52.7627 72.3257 52.4155C70.7666 52.0585 69.1954 52.328 67.6315 52.3329C58.287 52.3523 48.94 52.3839 39.5954 52.3815C30.3407 52.3815 21.086 52.3475 11.8337 52.328C11.7682 51.9662 11.4937 52.0245 11.2436 52.0366C10.8964 52.2649 10.5442 52.4592 10.1411 52.6073C9.24503 52.9376 8.40965 53.3747 7.83897 54.2295C6.88218 55.6598 6.58591 57.2529 6.52277 58.9212C6.4062 58.9382 6.26778 58.9528 6.26536 59.1009C6.26536 59.249 6.40135 59.266 6.51791 59.283C6.51791 60.4948 6.51791 61.7066 6.51791 62.9184C6.37706 62.9451 6.23622 62.9742 6.21679 63.1515C6.1925 63.3749 6.34307 63.4356 6.52277 63.4623C6.53734 64.339 6.48149 65.2205 6.58105 66.0875C6.75104 67.5397 7.09102 68.9481 8.35623 69.9074C9.58015 71.2139 11.1975 71.5417 12.8682 71.6024C15.1218 71.6825 17.3802 71.651 19.6362 71.668C19.663 71.8477 19.7237 72.0007 19.9495 71.974C20.1268 71.9521 20.1559 71.8112 20.1802 71.6704C22.6863 71.6656 25.1925 71.719 27.6986 71.7675C35.5861 71.9205 43.4785 71.9375 51.3684 72.0274C53.5734 72.0517 55.776 72.1488 57.9786 72.2119C58.0733 72.6053 58.2578 72.6491 58.5298 72.3528C62.2234 72.4111 65.9195 72.2508 69.6058 72.5908C69.6083 72.7049 69.6107 72.8166 69.6131 72.9307L69.6156 72.9283ZM32.3563 44.7489C32.3563 44.7052 32.3563 44.6591 32.3563 44.6154C32.4753 44.4891 32.6283 44.3822 32.7109 44.2341C33.8886 42.1675 34.9693 40.0499 35.8581 37.8401C36.1082 37.7867 36.2588 37.6992 35.9771 37.4734C37.3443 34.5471 38.4953 31.5335 39.2336 28.3911C39.7047 26.3804 40.4915 24.4619 40.7829 22.388C40.8849 21.6692 40.8048 20.88 41.0258 20.2632C41.4313 19.1242 40.7951 17.7789 41.7786 16.7905C41.8077 16.7614 41.6912 16.5914 41.6547 16.4845C41.4653 15.9454 41.4799 15.3796 41.4216 14.8211C41.3099 13.7671 41.8247 12.6428 41.0913 11.6568C41.5454 10.8798 41.2419 10.0322 41.1059 9.29885C40.8048 7.68153 40.2851 6.09577 39.7533 4.53429C39.6658 4.27931 39.9063 3.6722 39.3404 3.7062C38.8936 3.73534 38.9446 4.28659 38.7285 4.57558C38.6678 4.65571 38.709 4.81113 38.7018 4.93255C38.1068 5.26282 38.1481 5.9452 37.8882 6.45274C35.7828 10.5641 33.7624 14.7191 31.6254 18.8134C30.8944 20.2146 30.2509 21.6814 29.2722 22.9466C28.8302 23.1821 28.6165 23.5245 28.7525 24.0345C28.6797 24.1511 28.6068 24.2676 28.534 24.3866C28.2304 24.6198 27.8904 24.831 28.0313 25.307C27.8759 25.596 27.633 25.8437 27.6233 26.2007C27.1571 26.2444 27.0259 26.5188 27.1158 26.9438C27.0891 26.9972 27.0769 27.0555 27.0793 27.1162C26.8632 27.1477 26.6762 27.2012 26.7734 27.4901C26.5718 27.7913 26.3702 28.0948 26.1687 28.396C25.8409 28.5417 25.7583 28.7942 25.8409 29.1245C25.8141 29.1779 25.802 29.2362 25.8044 29.2945C25.5834 29.3212 25.3989 29.3795 25.496 29.6684C24.8719 30.7539 24.2478 31.8419 23.6237 32.9274C23.4464 32.9954 23.121 32.9225 23.2692 33.2989C23.0846 33.6583 22.9 34.0202 22.7155 34.3796C22.5382 34.4476 22.2152 34.3747 22.3634 34.7511C21.375 36.6744 20.0151 38.3573 18.8664 40.1762C17.4798 42.3739 15.7605 44.3725 14.862 46.8714C14.3763 48.2216 15.0732 49.6398 16.3749 49.6446C19.0971 49.6568 21.8194 49.6325 24.5416 49.6228C29.3863 50.208 30.4451 47.8209 32.3514 44.7489H32.3563Z" fill="#202020"/>
<path d="M76.6628 62.7241C76.692 63.982 76.8279 65.2472 76.726 66.4955C76.505 69.1959 74.8366 70.8132 72.4471 71.8088C72.1144 71.9473 71.7768 72.0881 71.4296 72.1707C71.0265 72.2654 70.871 72.4864 70.922 72.8798C70.6622 72.8433 70.4315 72.6369 70.1498 72.7511C69.9749 72.6758 69.8244 72.5228 69.6083 72.5884C65.9219 72.2484 62.2234 72.4111 58.5298 72.3504C58.389 72.1343 58.1801 72.1901 57.9785 72.2095C55.776 72.1464 53.571 72.0493 51.3684 72.025C43.4784 71.9351 35.5885 71.9181 27.6986 71.7651C25.1924 71.7166 22.6863 71.6631 20.1802 71.668C19.998 71.668 19.8183 71.668 19.6362 71.668C17.3802 71.651 15.1218 71.6826 12.8682 71.6024C11.1975 71.5442 9.58255 71.2139 8.3562 69.9074C8.36591 69.8224 8.3732 69.7374 8.38291 69.6524C8.72775 69.6403 8.89288 69.361 9.12115 69.1692C9.92739 68.4868 10.8648 68.0448 11.9138 68.0181C15.6585 67.9258 19.4055 67.8942 23.1477 67.8772C32.9731 67.8359 42.8009 67.6247 52.6263 67.9841C55.8197 68.1006 59.0155 67.9962 62.204 67.6538C64.7878 67.377 67.3182 66.8937 69.7637 66.0122C72.1702 65.1453 74.5598 64.2346 76.6628 62.7241Z" fill="#056B67"/>
<path d="M27.1085 22.2253C27.0696 22.5095 26.9555 22.7547 26.7442 22.9514C26.3362 22.4439 26.6519 22.3006 27.1085 22.2253Z" fill="white"/>
<path d="M32.5579 11.3217C32.5166 11.7273 32.2398 12.0235 32.0722 12.3708C31.9556 11.8924 31.9678 11.4747 32.5579 11.3217Z" fill="white"/>
<path d="M43.7869 20.4065C43.6849 20.3773 43.5804 20.3458 43.4785 20.3166L43.7869 20.0301C43.9229 20.0616 44.1147 20.0519 44.071 20.2583C44.0564 20.3239 43.8864 20.3579 43.7869 20.4065Z" fill="#FEFEFE"/>
<path d="M42.0238 27.8495C41.9971 27.7014 41.951 27.546 42.1598 27.4828C42.2861 27.5144 42.4877 27.4974 42.444 27.6917C42.3978 27.9005 42.1793 27.8301 42.0263 27.8495H42.0238Z" fill="#FCFCFC"/>
<path d="M24.1385 28.5757C24.2503 29.0614 23.8374 28.8695 23.6431 28.9618C23.631 28.6048 23.8666 28.5684 24.1385 28.5757Z" fill="#FCFCFC"/>
<path d="M69.6083 72.5883C69.8244 72.5228 69.975 72.6758 70.1498 72.751C70.0381 73.0109 69.7856 72.8457 69.6156 72.9283C69.6131 72.8142 69.6107 72.7025 69.6083 72.5883Z" fill="#212020"/>
<path d="M36.861 2.59155C36.8901 2.74454 36.9217 2.89753 36.7226 2.96796C36.6667 2.80525 36.5161 2.60855 36.861 2.59155Z" fill="#FEFEFE"/>
<path d="M37.8057 0.804209C37.7401 0.852778 37.677 0.903774 37.6114 0.952343C37.6357 0.850349 37.6794 0.77264 37.8057 0.804209Z" fill="#222222"/>
<path d="M30.8968 14.9279L30.7535 15.1271C30.7171 15.0008 30.7972 14.9571 30.8968 14.9279Z" fill="#212020"/>
<path d="M78.1855 68.5475C78.1417 68.4188 78.2243 68.3799 78.3239 68.3483C78.2777 68.4139 78.2316 68.4819 78.1855 68.5475Z" fill="#FCFCFC"/>
<path d="M76.6628 62.7241C74.5622 64.2346 72.1727 65.1452 69.7637 66.0122C67.3182 66.8937 64.7878 67.377 62.204 67.6538C59.0155 67.9938 55.8197 68.1006 52.6263 67.9841C42.8009 67.6247 32.9731 67.8359 23.1477 67.8772C19.4055 67.8918 15.6585 67.9258 11.9138 68.0181C10.8648 68.0448 9.92739 68.4868 9.12115 69.1691C8.89531 69.361 8.72775 69.6427 8.38291 69.6524C8.43391 67.8748 8.04779 66.1093 8.19593 64.3317C8.29063 63.2025 8.31735 62.0393 9.09444 61.0946C9.61169 61.2889 9.51941 61.8183 9.58498 62.1753C9.87639 63.7902 11.093 65.0335 12.7225 65.2667C12.8633 65.2861 13.0163 65.3444 13.128 65.4294C14.2014 66.272 15.3403 66.3255 16.54 65.7402C17.6983 65.1768 18.5216 64.3342 18.9247 63.0738C19.6824 60.711 19.0801 58.6492 17.6328 56.7478C17.9023 56.7259 18.1864 56.7478 18.4439 56.6773C24.2405 55.1037 30.1731 54.6108 36.1422 54.5768C40.0398 54.5549 43.9374 54.5646 47.8375 54.6788C52.3956 54.8123 56.9635 54.8585 61.5313 54.5986C63.8165 54.4675 66.1065 54.3606 68.3843 54.1688C69.8681 54.0449 71.2911 53.6175 72.3281 52.4106C73.9333 52.7579 74.9653 53.8045 75.9027 55.094C76.8182 56.3544 76.4127 57.7799 76.641 59.1155C76.8425 60.286 76.6701 61.5172 76.6652 62.7217L76.6628 62.7241Z" fill="#0C7C77"/>
<path d="M28.5364 24.3843C28.6092 24.2677 28.6821 24.1511 28.7549 24.0321C29.192 23.7966 29.4907 23.493 29.2746 22.9442C30.2533 21.6766 30.8968 20.2122 31.6277 18.811C33.7648 14.7167 35.7852 10.5617 37.8906 6.45037C38.1505 5.94283 38.1092 5.26044 38.7042 4.93018C38.7114 7.51644 38.9859 10.0881 38.7673 12.6963C38.5342 15.4938 38.1092 18.2452 37.5045 20.9699C36.5987 25.0399 35.1951 28.9643 33.7283 32.857C31.9823 37.4856 29.8259 41.881 26.0909 45.3221C24.8792 46.4392 24.1992 47.8792 24.5465 49.6228C21.8242 49.6325 19.102 49.6568 16.3797 49.6447C15.0805 49.6398 14.3811 48.2192 14.8668 46.8714C15.7653 44.3702 17.4846 42.374 18.8713 40.1763C20.0199 38.3574 21.3822 36.6745 22.3682 34.7512C22.611 34.7463 22.7252 34.6176 22.7203 34.3796C22.9049 34.0202 23.0894 33.6584 23.274 33.299C23.5168 33.2941 23.631 33.1654 23.6285 32.9274C24.2526 31.8419 24.8767 30.754 25.5008 29.6685C25.734 29.6515 25.8141 29.5082 25.8092 29.2945C25.8068 29.2338 25.819 29.178 25.8457 29.1245C26.1954 28.991 26.4843 28.8283 26.1735 28.396C26.3751 28.0949 26.5766 27.7913 26.7782 27.4902C27.0089 27.4708 27.089 27.3299 27.0842 27.1162C27.0817 27.0555 27.0939 26.9972 27.1206 26.9438C27.531 26.8612 27.582 26.5334 27.6281 26.2007C27.6354 25.8437 27.8807 25.596 28.0361 25.3071C28.5194 25.1735 28.5291 24.7777 28.5388 24.3867L28.5364 24.3843Z" fill="#E6E7E8"/>
<path d="M9.0945 61.0947C8.31498 62.0393 8.29069 63.2025 8.19598 64.3317C8.04785 66.1093 8.43397 67.8748 8.38297 69.6524C8.37569 69.7374 8.36597 69.8224 8.35626 69.9074C7.09105 68.9482 6.75107 67.5397 6.58108 66.0875C6.47909 65.223 6.53737 64.339 6.5228 63.4624C6.5228 63.2802 6.52037 63.1005 6.51794 62.9184C6.51794 61.7066 6.51794 60.4948 6.51794 59.2831C6.51794 59.1616 6.52037 59.0426 6.5228 58.9212C6.58351 57.2529 6.88221 55.6599 7.839 54.2295C8.40968 53.3747 9.24506 52.94 10.1411 52.6073C10.5443 52.4592 10.8964 52.2649 11.2436 52.0367C11.2874 52.4446 11.5521 52.4058 11.8338 52.3281C21.0885 52.3475 30.3432 52.3815 39.5955 52.3815C48.94 52.3815 58.287 52.3523 67.6316 52.3329C69.1979 52.3305 70.7667 52.0585 72.3257 52.4155C71.2888 53.6248 69.8657 54.0498 68.382 54.1737C66.1017 54.3655 63.8117 54.4724 61.5289 54.6035C56.9611 54.8633 52.3932 54.8172 47.8351 54.6836C43.935 54.5695 40.035 54.5598 36.1398 54.5816C30.1683 54.6156 24.2381 55.1086 18.4415 56.6822C18.1841 56.7526 17.9024 56.7308 17.6304 56.7526C17.4458 56.5997 17.2637 56.4442 17.0743 56.2961C14.8717 54.5816 11.2825 55.2179 9.87888 57.5589C9.21835 58.6614 9.03864 59.8464 9.09693 61.0947H9.0945Z" fill="#1D9C97"/>
<path d="M24.5465 49.6228C24.1993 47.8792 24.8792 46.4391 26.091 45.322C29.8235 41.881 31.9824 37.4855 33.7284 32.857C35.1952 28.9666 36.6012 25.0399 37.5046 20.9698C38.1117 18.2452 38.5342 15.4938 38.7674 12.6962C38.9859 10.0881 38.7091 7.51883 38.7042 4.93013C38.7091 4.80871 38.6702 4.65329 38.7309 4.57315C38.9471 4.28417 38.8961 3.73292 39.3429 3.70378C39.9087 3.66735 39.6683 4.27446 39.7557 4.53187C40.2876 6.09577 40.8072 7.6791 41.1084 9.29643C41.2443 10.0298 41.5479 10.8773 41.0938 11.6544C41.8272 12.6404 41.3099 13.7647 41.4241 14.8187C41.4823 15.3772 41.4702 15.943 41.6572 16.4821C41.696 16.589 41.8126 16.759 41.781 16.7881C40.7975 17.774 41.4338 19.1194 41.0282 20.2607C40.8072 20.8776 40.8874 21.6668 40.7854 22.3856C40.4915 24.4595 39.7072 26.3779 39.236 28.3887C38.4978 31.531 37.3467 34.5447 35.9795 37.471C35.7731 37.539 35.8095 37.6871 35.8605 37.8377C34.9693 40.0475 33.8911 42.1627 32.7133 44.2317C32.6307 44.3774 32.4778 44.4867 32.3588 44.6129C32.3175 44.6178 32.2738 44.6227 32.2325 44.6275C32.2738 44.6664 32.315 44.7077 32.3563 44.7465C30.4524 47.8185 29.3912 50.2032 24.5465 49.6203V49.6228Z" fill="white"/>
<path d="M29.2771 22.9466C29.4908 23.4954 29.1945 23.799 28.7574 24.0345C28.6214 23.5246 28.8375 23.1822 29.2771 22.9466Z" fill="#E2E3E4"/>
<path d="M28.5364 24.3842C28.5267 24.7776 28.517 25.171 28.0337 25.3046C27.8929 24.8286 28.2328 24.6173 28.5364 24.3842Z" fill="#E2E3E4"/>
<path d="M26.176 28.3935C26.4868 28.8258 26.2003 28.9885 25.8482 29.1221C25.7656 28.7918 25.8482 28.5392 26.176 28.3935Z" fill="#E2E3E4"/>
<path d="M27.6282 26.1982C27.582 26.5285 27.531 26.8588 27.1206 26.9413C27.0308 26.5164 27.1619 26.2444 27.6282 26.1982Z" fill="#E2E3E4"/>
<path d="M11.8338 52.3256C11.5521 52.4033 11.2874 52.4422 11.2437 52.0342C11.4938 52.022 11.7682 51.9638 11.8338 52.3256Z" fill="#402428"/>
<path d="M6.51788 62.9184C6.51788 63.1005 6.52031 63.2802 6.52273 63.4623C6.34303 63.4332 6.19247 63.3749 6.21675 63.1515C6.23618 62.9742 6.37703 62.9451 6.51788 62.9184Z" fill="#212020"/>
<path d="M19.6387 71.6655C19.8208 71.6655 20.0005 71.6655 20.1826 71.6655C20.1559 71.8064 20.1292 71.9497 19.9519 71.9691C19.7261 71.9958 19.6678 71.8428 19.6387 71.6631V71.6655Z" fill="#212020"/>
<path d="M57.981 72.2095C58.1825 72.1901 58.3914 72.1342 58.5322 72.3503C58.2602 72.6466 58.0757 72.6029 57.981 72.2095Z" fill="#212020"/>
<path d="M23.631 32.9274C23.6334 33.1654 23.5217 33.2941 23.2764 33.2989C23.1283 32.9225 23.4513 32.9929 23.631 32.9274Z" fill="#E2E3E4"/>
<path d="M22.7227 34.3796C22.7252 34.6176 22.6135 34.7463 22.3706 34.7512C22.2225 34.3748 22.5479 34.4476 22.7227 34.3796Z" fill="#E2E3E4"/>
<path d="M27.0842 27.1137C27.0891 27.325 27.0114 27.4683 26.7782 27.4877C26.6811 27.2012 26.8681 27.1453 27.0842 27.1137Z" fill="#E2E3E4"/>
<path d="M25.8117 29.292C25.819 29.5057 25.7364 29.649 25.5033 29.666C25.4062 29.377 25.5907 29.3187 25.8117 29.292Z" fill="#E2E3E4"/>
<path d="M35.8605 37.8426C35.8095 37.6896 35.7731 37.5439 35.9795 37.4759C36.2612 37.7041 36.1082 37.7891 35.8605 37.8426Z" fill="#222222"/>
<path d="M6.52276 58.9212C6.52276 59.0426 6.52034 59.1616 6.51791 59.283C6.40134 59.2636 6.26292 59.249 6.26535 59.1009C6.26535 58.9528 6.4062 58.9382 6.52276 58.9212Z" fill="#212020"/>
<path d="M32.3563 44.7514C32.315 44.7125 32.2738 44.6712 32.2325 44.6324C32.2738 44.6275 32.3175 44.6227 32.3588 44.6178C32.3588 44.6615 32.3588 44.7077 32.3588 44.7514H32.3563Z" fill="#222222"/>
<path d="M33.2111 10.1415C33.2524 10.1731 33.2913 10.2047 33.3325 10.2362C33.216 10.3504 33.2378 10.1877 33.1868 10.1634L33.2111 10.1391V10.1415Z" fill="#222222"/>
<path d="M9.09448 61.0946C9.03863 59.8464 9.2159 58.6589 9.87643 57.5589C11.2801 55.2179 14.8693 54.5816 17.0718 56.2961C17.2613 56.4442 17.4434 56.5996 17.6279 56.7526C19.0777 58.6541 19.6775 60.7158 18.9199 63.0787C18.5168 64.3366 17.6935 65.1817 16.5352 65.7451C15.3355 66.3303 14.1966 66.2769 13.1232 65.4342C13.014 65.3468 12.8585 65.2909 12.7177 65.2715C11.0882 65.0384 9.87158 63.795 9.58017 62.1801C9.5146 61.8207 9.60688 61.2938 9.08962 61.0995L9.09448 61.0946ZM16.9043 61.8353C17.0718 60.9344 16.6274 60.0868 16.1709 59.2612C15.6464 58.3141 14.2136 57.8988 13.1985 58.3457C11.994 58.8775 11.4622 60.2155 11.9163 61.6435C12.2174 62.5905 12.759 63.4866 12.963 64.4167C13.1427 65.2375 13.5336 65.1744 13.9877 65.0797C15.7751 64.7033 17.0257 64.2346 16.9043 61.8329V61.8353Z" fill="#212020"/>
<path d="M16.9067 61.8353C17.0281 64.2346 15.775 64.7033 13.9901 65.0821C13.536 65.1792 13.145 65.2399 12.9653 64.4191C12.7613 63.4891 12.2198 62.5905 11.9187 61.6459C11.4646 60.218 11.9964 58.8799 13.2009 58.3481C14.216 57.8988 15.6487 58.3165 16.1733 59.2636C16.6298 60.0893 17.0718 60.9392 16.9067 61.8377V61.8353Z" fill="#FEFEFE"/>
</g>
<defs>
<filter id="filter0_d_1_2982" x="0" y="0.419434" width="83" height="81.5169" filterUnits="userSpaceOnUse" color-interpolation-filters="sRGB">
<feFlood flood-opacity="0" result="BackgroundImageFix"/>
<feColorMatrix in="SourceAlpha" type="matrix" values="0 0 0 0 0 0 0 0 0 0 0 0 0 0 0 0 0 0 127 0" result="hardAlpha"/>
<feOffset dy="4"/>
<feGaussianBlur stdDeviation="2"/>
<feComposite in2="hardAlpha" operator="out"/>
<feColorMatrix type="matrix" values="0 0 0 0 0 0 0 0 0 0 0 0 0 0 0 0 0 0 0.25 0"/>
<feBlend mode="normal" in2="BackgroundImageFix" result="effect1_dropShadow_1_2982"/>
<feBlend mode="normal" in="SourceGraphic" in2="effect1_dropShadow_1_2982" result="shape"/>
</filter>
</defs>
</svg>
