<svg width="38" height="32" viewBox="0 0 44 39" fill="none" xmlns="http://www.w3.org/2000/svg">
<path d="M31.6235 9.28692C31.3217 9.53065 30.9967 9.75117 30.6602 9.94267C29.8709 10.4011 29.0295 10.7493 28.2286 11.1962C26.7024 12.0434 25.3677 13.2273 24.3463 14.6432C24.0271 15.0843 23.7312 15.7458 23.2205 15.9896C22.7446 16.2159 22.1585 16.4422 21.6304 16.4132C21.1023 16.3842 20.6033 16.1231 20.2377 15.7458C19.8663 15.3686 19.6225 14.887 19.4774 14.3763C19.4078 14.121 19.3556 13.8482 19.1989 13.6335C18.8971 13.2157 18.3284 13.1344 17.8468 12.9487C16.8718 12.5773 16.1348 11.6372 16.0188 10.5984C15.9201 9.77438 16.2161 8.91551 16.779 8.30618C16.895 8.18431 17.1562 8.04504 17.2316 7.90576C17.3477 7.70265 17.2316 7.66203 17.0749 7.48793C16.779 7.16876 16.4946 6.82057 16.3553 6.39693C16.1754 5.86304 16.2973 5.18988 16.7732 4.89972C16.837 5.48584 17.3941 5.97911 17.9802 5.95009C18.9145 5.89786 18.7985 5.06221 18.7637 4.37743C18.723 3.52436 19.0364 2.66549 19.6167 2.04456C20.197 1.42362 21.0385 1.05221 21.8916 1.0348C22.3326 1.029 22.7678 1.11024 23.1915 1.24372C23.412 1.31336 23.6383 1.3946 23.8646 1.3946C24.2941 1.3946 24.6597 1.11024 25.0021 0.854905C25.5244 0.466092 26.0989 0.0888859 26.7488 0.0134447C27.0622 -0.0213744 27.3814 0.0134443 27.6889 0.0946887C28.8902 0.413863 29.8535 1.48165 30.0566 2.70612C30.7008 2.21285 31.5597 1.96911 32.3025 2.45078C31.7628 2.4972 31.5945 2.76415 31.519 3.15876C31.4204 3.71007 31.7221 4.08727 31.9717 4.40645C32.2502 4.76624 32.5868 5.09122 32.8015 5.49164C33.231 6.29248 33.1033 7.31384 32.6448 8.10307C32.3837 8.55571 32.0239 8.94453 31.6177 9.27531L31.6235 9.28692Z" fill="#263238"/>
<path d="M27.7296 6.70455C26.4181 6.9831 25.2052 7.69689 24.3289 8.70664C24.091 8.97939 23.8705 9.29276 23.8357 9.64676C23.7834 10.1981 24.2013 10.7087 24.7177 10.9118C25.2342 11.1092 25.8145 11.0453 26.3426 10.9002C27.48 10.5811 28.513 9.87888 29.221 8.92716C29.546 8.48612 29.9 7.69689 29.5924 7.163C29.2384 6.54206 28.3215 6.58268 27.7296 6.70455Z" fill="#BA68C8"/>
<path d="M43.3227 18.7925C44.6864 16.1753 43.7753 12.5193 42.487 10.7435C40.6242 8.17851 37.5311 6.91342 32.7435 6.8786C29.1049 6.85538 24.6539 8.1727 23.7196 11.8461C20.2493 13.3143 20.9921 18.6939 21.642 20.7598C23.5223 26.7429 26.302 27.1433 26.2846 29.9404L43.3227 18.7925Z" fill="#263238"/>
<path d="M22.4893 21.5838C23.7892 20.1621 25.4547 20.6263 26.1917 21.961C26.9287 23.2958 28.2692 22.9011 27.7643 20.8991C28.6696 20.5102 30.1204 20.2549 29.7606 16.5467C29.6156 15.032 29.9754 13.9643 30.8864 13.2157C32.4127 11.9622 35.3491 12.3046 36.9043 13.9933C37.6413 12.2639 39.951 11.6488 41.5875 13.0358C42.3767 13.7031 43.6534 15.5427 43.3227 18.7925C43.1776 19.7732 43.4445 20.9977 43.3749 22.8431C43.1079 29.8011 41.1232 31.1823 39.2082 31.9309C38.065 32.3777 37.444 32.4358 35.6567 32.3429V34.728C35.6567 34.728 35.6509 32.3071 35.5 38C25.5 38 26.2671 34.7396 26.2555 34.728L26.3019 27.1433C26.2555 27.1781 25.1935 27.8455 23.9284 27.0446C22.1062 25.8898 21.1893 23.0056 22.4893 21.5838Z" fill="#C8856A"/>
<path d="M34.2117 25.2283L37.212 26.1742C36.9799 27.0215 36.121 27.4915 35.2911 27.2304C34.4613 26.9692 33.9796 26.0697 34.2117 25.2283Z" fill="#AF6152"/>
<path d="M35.9759 27.2825C35.9468 26.5107 35.3027 25.9071 34.5309 25.9303C34.4148 25.9303 34.2987 25.9535 34.1885 25.9884C34.3045 26.5571 34.705 27.0562 35.2853 27.236C35.5174 27.3115 35.7495 27.3173 35.9759 27.2825Z" fill="#FFA8A7"/>
<path d="M36.2487 18.4037L37.2294 24.5609L40.189 22.8257L36.2487 18.4037Z" fill="#AF6152"/>
<path d="M35.6567 32.3429C33.4283 32.134 28.7045 30.7296 27.6541 27.7178C27.6541 27.7178 27.747 29.8359 30.4222 31.5827C32.5346 32.958 35.6161 33.3469 35.6161 33.3469L35.6567 32.3429Z" fill="#AF6152"/>
<path d="M34.4903 20.371C34.4264 20.8585 33.9796 21.2009 33.4921 21.1371C33.0047 21.0732 32.6623 20.6264 32.7261 20.1389C32.7899 19.6514 33.2368 19.3091 33.7242 19.3729C34.2117 19.4367 34.5541 19.8836 34.4903 20.371Z" fill="#263238"/>
<path d="M41.3612 20.0344C41.2335 20.5103 40.746 20.7888 40.2702 20.6612C39.7943 20.5335 39.5158 20.046 39.6434 19.5702C39.7711 19.0943 40.2586 18.8158 40.7344 18.9434C41.2103 19.0711 41.4889 19.5586 41.3612 20.0344Z" fill="#263238"/>
<path d="M41.1812 16.4421C40.5023 16.2506 39.8001 16.6452 39.6086 17.3242L42.0575 18.0148C42.249 17.3358 41.8544 16.6336 41.1754 16.4421H41.1812Z" fill="#263238"/>
<path d="M32.7378 16.8137C32.082 17.0632 31.7512 17.8002 32.0008 18.456L34.3801 17.5507C34.1305 16.8949 33.3935 16.5641 32.7378 16.8137Z" fill="#263238"/>
<path d="M3.68612 11.2102C3.68612 11.2102 1.89778 11.4437 0.822317 13.7237C0.281513 14.8667 -0.087218 17.6691 1.78101 23.3721C2.97938 27.041 4.30067 28.5958 4.90293 29.6036C5.50519 30.6115 6.66054 30.8327 6.66054 30.8327L6.35326 26.3834L6.07672 22.5363C6.07672 22.5363 8.60866 21.7005 9.11874 18.1361C9.52434 15.2723 8.35055 14.1662 8.35055 14.1662L3.69226 11.1979L3.68612 11.2102Z" fill="#263238"/>
<path d="M0.945176 13.3487C0.244589 8.94243 8.55331 2.74162 13.5988 5.94957C15.3379 3.5221 19.4677 4.60985 19.8487 7.12336C21.3298 6.40434 24.1567 9.50167 23.4684 11.3638C24.8266 15.4997 22.774 17.583 20.8074 17.5277C15.9832 17.3925 10.8148 17.0729 5.94147 17.2819C5.94147 17.2819 0.951321 13.361 0.945176 13.3487Z" fill="#263238"/>
<path d="M21.3359 11.1918C22.3376 12.1444 23.579 14.5841 23.831 22.4934C23.9969 27.8707 22.6756 30.2367 20.7644 31.1708C19.5107 31.7854 18.4721 31.9882 16.2413 31.9697L16.2228 35.19C20.7336 39.6455 7.66832 40.893 4.66932 35.0978L4.84754 26.279C4.50339 26.9304 2.81952 27.3422 1.59042 26.0762C-0.357702 24.0666 0.0417558 21.1844 1.50438 20.1151C3.01618 19.0027 5.12408 19.2854 5.90456 21.4302C7.56999 22.0325 8.81753 19.6787 8.35662 13.1952C13.906 13.0723 17.0648 9.15151 21.342 11.1918H21.3359Z" fill="#FFBDA7"/>
<path d="M16.2352 31.9696C10.7718 31.6501 7.65606 29.2472 7.02307 27.1761C7.02307 27.1761 6.75882 30.2919 10.5444 32.0741C13.3591 33.4015 16.2106 33.42 16.2106 33.42L16.2352 31.9635V31.9696Z" fill="#F0997A"/>
<path d="M18.0603 25.3817L14.4714 24.2571C14.1272 25.2649 14.6496 26.3404 15.639 26.6477C16.6284 26.955 17.7162 26.3896 18.0603 25.3817Z" fill="#B16668"/>
<path d="M16.4441 26.7091C16.1798 26.746 15.9033 26.7276 15.6329 26.6477C14.9446 26.4326 14.4898 25.8426 14.3853 25.1666C15.344 25.1666 16.1614 25.8058 16.4379 26.7091H16.4441Z" fill="#F28F8F"/>
<path d="M12.1914 18.6217C12.2406 19.181 12.7322 19.5927 13.2976 19.5436C13.8568 19.4944 14.2747 19.0027 14.2317 18.4435C14.1825 17.8843 13.6909 17.4725 13.1255 17.5217C12.5663 17.5708 12.1484 18.0625 12.1914 18.6217Z" fill="#263238"/>
<path d="M19.4554 18.0747C19.5046 18.634 19.9962 19.0457 20.5616 18.9966C21.1209 18.9474 21.5388 18.4557 21.4957 17.8965C21.4466 17.3373 20.9549 16.9255 20.3895 16.9747C19.8303 17.0238 19.4124 17.5155 19.4554 18.0747Z" fill="#263238"/>
<path d="M16.0631 16.5015L17.1324 23.0771L20.4264 21.5285L16.0631 16.5015Z" fill="#F0997A"/>
<path d="M21.8152 15.8686L19.4124 15.2664C19.5598 14.5965 20.2113 14.1909 20.875 14.3568C21.5387 14.5228 21.9566 15.2049 21.8152 15.8748V15.8686Z" fill="#263238"/>
<path d="M11.2388 16.6674L13.4512 15.4813C13.1439 14.8606 12.4003 14.6209 11.7858 14.9466C11.1774 15.2723 10.9315 16.0467 11.2388 16.6674Z" fill="#263238"/>
<path d="M22.5404 11.2532C12.216 11.161 7.8527 15.4998 7.8527 15.4998C6.69734 16.2987 4.82911 18.2345 4.19613 19.6172C3.4218 19.3899 2.10051 19.3899 0.945155 20.6804C0.859118 20.4162 0.582569 20.0782 0.28144 18.5479C-0.406856 15.088 -0.43758 7.9408 7.51469 5.26137C14.8155 2.80317 19.9593 4.04456 21.5203 8.05757C21.8583 8.92408 22.565 11.2471 22.5404 11.2471V11.2532Z" fill="#37474F"/>
<path d="M7.64374 14.5348C7.84654 14.289 8.63316 11.6219 12.2651 8.84409C14.5083 7.1295 19.4369 6.34902 21.6555 6.06633C25.5456 5.57469 26.578 6.3183 26.7009 6.92055C26.7316 7.0619 26.8668 7.71947 26.9037 7.87311C26.9406 8.0206 26.9222 8.16194 26.873 8.27256C26.4059 9.29272 23.4745 11.3637 23.4745 11.3637C18.4537 10.6324 12.4987 12.3347 7.85882 15.5058L7.64988 14.5348H7.64374Z" fill="#BA68C8"/>
<path d="M7.8527 15.4996C12.4925 12.3286 18.5643 10.8352 23.4684 11.3576C23.4684 11.3576 26.3998 9.28654 26.8669 8.26638C27.1127 7.701 26.6702 6.42273 21.8644 7.03114C19.6459 7.31383 14.7111 8.09431 12.468 9.8089C8.83598 12.5867 8.04936 15.2538 7.84656 15.4996H7.8527Z" fill="#263238"/>
</svg>
