<svg width="62" height="66" viewBox="0 0 62 66" fill="none" xmlns="http://www.w3.org/2000/svg">
<path d="M10.1045 51.4111C9.63445 50.715 9.51695 49.985 9.94601 49.2337C10.2309 48.737 10.6475 48.299 10.8469 47.7756C11.3151 46.5436 12.3263 45.6321 12.7661 44.3947C13.0314 43.647 13.6278 43.1004 13.9927 42.4114C14.5464 41.3681 15.2408 40.4157 15.8692 39.4204C16.0295 39.1658 16.22 38.9967 16.4799 38.8774C16.3731 39.8299 15.9226 40.6453 15.4954 41.4785C15.2247 42.0055 14.9096 42.5396 14.7138 43.0595C14.5179 43.5793 14.3453 44.1152 14.0818 44.6137C13.8076 44.587 13.6153 44.701 13.5334 44.9627C13.4622 45.1888 13.0403 45.5359 13.7061 45.5466L13.0403 47.0172C12.7679 47.2753 12.7358 47.6581 12.5507 47.9608C12.4207 47.9554 12.2444 47.902 12.1803 48.0284C11.883 48.6231 11.2706 49.1198 11.5608 49.9085C11.5056 50.7399 11.7228 50.8984 12.4812 50.5494C12.8533 50.3785 13.2076 50.172 13.569 49.9815C13.569 50.3162 13.7506 50.4444 14.0177 50.2628C14.2491 50.1043 14.566 49.9494 14.5019 49.5631C15.9672 48.9079 17.4057 48.178 18.9119 47.6314C19.7094 47.3412 20.4056 46.7982 21.2708 46.6932C21.4791 46.962 21.5307 46.8107 21.5539 46.5863C22.2714 46.1769 23.0672 45.9721 23.8594 45.8244C24.9615 45.6196 25.0986 45.4505 24.6464 44.4784C24.8386 44.4553 24.9294 44.3271 24.8778 44.1597C24.6748 43.5206 24.4559 42.885 24.2333 42.253C24.171 42.0749 24.0001 42.0838 23.847 42.0803C23.6778 41.345 23.4019 40.6596 22.9052 40.0792C22.8073 39.7338 22.4138 39.8566 22.2269 39.6519C22.2126 39.5255 22.2518 39.3688 22.0862 39.3172C21.91 39.262 21.853 39.3831 21.8281 39.5273C20.9842 39.278 20.1403 39.0288 19.2964 38.7795C19.2804 38.6834 19.3017 38.5516 19.1629 38.5463C19.1202 38.5463 19.0739 38.6549 19.0311 38.7136C18.9421 38.7136 18.8531 38.7136 18.7641 38.7136C18.7427 38.5997 18.8068 38.4377 18.6323 38.4074C18.5362 38.3914 18.5131 38.4982 18.4988 38.5819C17.8436 38.6104 17.265 38.224 16.6134 38.2365C15.1998 37.9107 13.7844 37.5867 12.3708 37.2609C12.2676 36.6253 11.908 36.8585 11.5679 37.0241C11.1495 36.9974 10.74 36.944 10.3715 36.7196C10.165 36.2763 10.0884 36.2585 9.83919 36.595C8.552 36.1927 7.22207 35.9203 5.97583 35.3862C5.96337 35.2598 6.00075 35.1013 5.83518 35.0515C5.65893 34.9981 5.60196 35.1191 5.57703 35.2633C5.48623 35.217 5.39722 35.1707 5.30642 35.1245L5.15509 35.0265C3.67028 34.5405 2.27448 33.88 1.04248 32.9008C1.04782 32.6676 1.02468 32.4254 1.27037 32.283C2.1819 32.6426 3.11125 32.9542 3.98006 33.4135C4.01744 33.6931 4.14207 33.7643 4.37351 33.5756C4.43405 33.5649 4.49458 33.5542 4.55511 33.5417C4.98417 33.7304 5.41324 33.9192 5.8423 34.1079C5.87791 34.2948 5.93666 34.4194 6.1147 34.204C9.403 35.1476 12.7465 35.8473 16.1007 36.506C16.1523 36.8532 16.3464 36.6698 16.5066 36.6146C17.4039 36.7428 18.262 37.0828 19.1771 37.1184C19.202 37.2716 19.3071 37.2822 19.4299 37.2609C20.4162 37.4603 21.4043 37.6472 22.3604 37.9712C22.4156 38.2418 22.5491 38.281 22.7556 38.1048C23.6066 38.2027 24.139 38.7564 24.6214 39.3902C25.1182 40.0418 25.257 40.8714 25.7039 41.5462C25.6825 41.6566 25.695 41.7527 25.8107 41.8079C25.8018 41.8898 25.7929 41.9699 25.784 42.0518C25.7288 42.0999 25.6309 42.1462 25.6256 42.1996C25.6131 42.3384 25.7431 42.3242 25.8374 42.3402C26.1045 43.1396 26.3697 43.939 26.6368 44.7366C26.4214 44.9164 26.5478 44.9733 26.7347 45.009C26.9608 45.7603 27.3151 46.4742 27.4112 47.2647C27.3774 47.2896 27.3133 47.3234 27.3169 47.3359C27.3454 47.416 27.4077 47.4035 27.4718 47.375C27.5733 47.6403 27.721 47.8949 27.6854 48.1958C27.6516 48.2207 27.6178 48.2456 27.5822 48.2688C27.6178 48.283 27.6534 48.2955 27.689 48.3097C27.8617 48.5554 28.0005 48.8118 27.9453 49.1305C27.9133 49.1554 27.8474 49.191 27.8528 49.1999C27.883 49.28 27.9453 49.264 28.0077 49.2355C28.4065 50.1951 28.5845 51.2153 28.8177 52.2176C29.2058 53.8876 29.7061 55.5379 29.8272 57.2613C29.6153 57.4661 29.6491 57.6014 29.9411 57.6637C30.1619 58.2619 30.0408 58.9384 30.3595 59.5135C30.388 59.7627 30.4183 60.012 30.4574 60.352C30.5589 60.2114 30.6016 60.1775 30.6034 60.1419C30.6159 59.9016 30.6212 59.6612 30.6283 59.4191C31.7873 55.9029 32.9481 52.3867 34.1071 48.8705C34.4205 48.9061 34.5273 48.6978 34.6039 48.4539C34.8602 47.6403 35.1202 46.8285 35.3694 46.0113C35.4335 45.803 35.4851 45.5804 35.2768 45.4042C35.4602 44.79 35.6204 44.1686 35.8341 43.5651C36.3076 42.2191 36.6441 40.8251 37.2762 39.5362C37.3456 39.627 37.4435 39.6982 37.5076 39.5629C37.5913 39.3848 37.472 39.3029 37.3046 39.2798C37.5183 38.7653 37.7373 38.2543 38.0773 37.8074C38.1289 37.8858 38.2091 37.9463 38.2803 37.868C38.3907 37.7451 38.3283 37.633 38.2091 37.5475C38.2874 37.4549 38.3657 37.3624 38.4423 37.2698C38.7182 37.2947 38.7521 37.1167 38.7467 36.9066C38.9265 36.8051 38.9105 36.5256 39.1402 36.4704C39.2132 36.5861 39.32 36.6538 39.4411 36.5683C39.5675 36.4775 39.4713 36.401 39.3894 36.3387C39.5247 36.1393 39.7402 36.0485 39.9413 35.9381C40.3989 36.2532 40.5805 36.052 40.6143 35.5767C41.5081 35.3737 42.2683 34.7328 43.2759 34.8521C43.6427 34.8948 44.0379 34.5725 44.4296 34.5405C45.0581 34.4889 45.6652 34.3571 46.2794 34.2485C47.1838 34.0883 48.0775 33.8533 48.9998 33.807C49.1956 34.0278 49.3309 34.0011 49.4057 33.7109C49.881 33.6023 50.351 33.4402 50.8317 33.3975C51.6543 33.3245 52.4216 32.9364 53.2637 33.0076C53.5094 33.2106 53.7177 33.2818 53.7925 32.8616C54.6221 32.6035 55.5212 32.6747 56.333 32.3311C56.4114 32.3168 56.4897 32.3026 56.5698 32.2884C56.5573 32.2314 56.5627 32.1406 56.5306 32.1228C56.4487 32.0801 56.3686 32.1139 56.3312 32.21C56.2013 32.121 56.0695 32.0338 55.9396 31.9448C55.7971 31.7365 55.6565 31.5299 55.4055 31.8308C55.1046 31.6546 54.8019 31.4925 54.4316 31.562C54.1236 31.6207 53.8939 31.4605 53.6732 31.2789C53.6127 31.1667 53.5503 31.0564 53.4026 31.0475C53.0002 31.2949 52.6708 31.0902 52.3415 30.8783C52.2542 30.6522 52.1189 30.6202 51.9373 30.7804C51.5439 30.8854 51.2537 30.6041 50.9119 30.5187C48.2182 29.8368 45.6491 28.7811 43.0124 27.9283C43.0142 27.7111 42.9021 27.7467 42.7739 27.8197C42.1472 27.4244 41.4671 27.1414 40.7781 26.8725C40.1674 26.634 39.6458 26.2957 39.2256 25.7438C38.8482 25.2471 38.7058 24.6524 38.4815 24.1237C37.8352 22.6086 37.3919 21.0063 36.8702 19.4396C37.2851 18.9874 37.1765 18.6865 36.5302 18.5013C36.3895 18.147 36.2489 17.791 36.1083 17.4367C36.3059 17.4135 36.3664 17.2871 36.3397 17.1091C36.3076 16.8972 36.1367 16.9115 35.9836 16.9044C35.8875 16.6872 35.7664 16.4771 35.697 16.251C35.4638 15.4908 35.1273 14.7786 34.7534 14.0807C34.7534 14.0416 34.7516 14.0024 34.7481 13.9632C34.3973 13.219 34.3546 12.3502 33.8205 11.6808C33.8205 11.6434 33.8205 11.606 33.8169 11.5686C33.2971 10.2298 32.9392 8.82691 32.2324 7.56108C32.2022 7.43646 32.1861 7.30649 32.1381 7.19077C31.725 6.21158 31.3049 5.23594 30.8883 4.25853C30.8562 4.21224 30.8242 4.16773 30.7903 4.12145C30.6123 3.6728 30.5322 3.1743 30.1263 2.79509C30.0622 2.97846 29.9981 3.11733 29.9643 3.26332C29.5423 5.03833 29.1328 6.8169 28.7056 8.59012C28.1091 11.0648 27.5003 13.5359 26.9003 16.0088C26.1436 19.1334 25.4368 22.2721 24.6108 25.3788C24.3223 26.4666 23.571 27.2945 22.3729 27.5687C20.9005 27.9051 19.3925 27.939 17.8988 28.0992C16.9873 28.1971 16.0775 28.3057 15.1696 28.4339C14.5411 28.5229 13.9162 28.6422 13.2948 28.7668C12.5613 28.9146 11.7922 28.9253 11.0872 29.1069C10.0119 29.3846 8.92587 29.5911 7.84698 29.835C7.84698 29.6623 7.84698 29.4896 7.8452 29.317C8.83685 28.936 9.8837 28.7579 10.9092 28.5105C11.4023 28.3912 11.8884 28.2576 12.3744 28.1188C12.3976 28.3075 12.5115 28.3716 12.6895 28.352C12.8533 28.3342 12.8943 28.2203 12.9032 28.0814C12.921 28.0084 12.953 27.9568 13.042 27.9853C13.0652 28.174 13.1791 28.2381 13.3572 28.2185C13.521 28.2007 13.5619 28.0867 13.5708 27.9479C13.5886 27.8749 13.6207 27.8232 13.7097 27.8517C13.731 28.012 13.7738 28.1864 13.9678 28.1722C14.153 28.1579 14.0889 27.9728 14.1085 27.8517C15.0414 27.663 15.9725 27.4743 16.9054 27.2856C16.9303 27.3782 16.9179 27.5313 17.0656 27.4796C17.1315 27.4565 17.1546 27.3141 17.1974 27.225C17.233 27.2286 17.2704 27.2339 17.306 27.2411C17.5837 27.3497 17.881 27.3247 18.157 27.2838C19.6258 27.0737 21.091 26.8387 22.558 26.6108C22.7681 26.6215 23.0049 26.6803 23.0298 26.3527C23.247 26.0518 23.4624 25.7527 23.6565 25.434C23.9378 24.9729 23.7722 24.4246 24.0232 24.0222C24.4861 23.2816 24.2725 22.4199 24.5876 21.6365C24.9366 20.7659 24.9508 19.7654 25.2018 18.8449C25.4422 17.9637 25.3211 17.629 24.4719 17.3583C24.1817 17.2658 23.8968 17.1518 23.6138 17.0379C21.7106 16.2706 19.8501 15.4195 18.0697 14.3887C16.7291 13.6125 15.3369 12.9253 13.966 12.1989C13.9197 12.1704 13.8735 12.1419 13.8272 12.1134C13.7827 12.1188 13.7382 12.1241 13.6936 12.1312C12.9334 11.5651 12.0878 11.1699 11.1994 10.8529C10.9394 10.7604 10.6671 10.6785 10.4659 10.9117C10.2362 11.1788 10.505 11.396 10.6172 11.6167C11.0427 12.4446 11.5359 13.2778 11.7816 14.1413C12.0433 15.0617 12.5062 15.8985 12.8711 16.7352C13.3322 17.7928 13.8094 18.8788 14.3292 19.9274C15.0877 21.4549 15.6378 23.0857 16.3624 24.64C16.6561 25.2702 16.9001 25.9361 17.0265 26.6322C16.8912 26.634 16.7558 26.6375 16.6205 26.6393C15.9191 25.6352 15.344 24.5545 14.7921 23.4685C14.4093 22.7136 13.8521 22.0335 13.7061 21.1665C13.7417 21.1469 13.7755 21.1273 13.8111 21.1078C13.7755 21.0989 13.7417 21.0917 13.7061 21.0828C13.1845 20.6876 12.8996 20.1428 12.7803 19.5161C12.6913 19.0515 12.2658 18.8289 12.0682 18.4355C11.8189 17.937 11.6089 17.4331 11.4415 16.9044C11.4771 16.8848 11.5127 16.8634 11.5483 16.8438C11.5127 16.8349 11.4771 16.8278 11.4433 16.8189C10.7454 16.3079 10.5442 15.4694 10.1294 14.7768C9.67006 14.0095 9.47778 13.0517 8.91697 12.3876C8.29206 11.6452 8.4612 10.9509 8.65882 10.2387C8.99708 9.01563 10.3412 8.42633 11.5145 8.8999C11.5679 8.92127 11.6427 8.88744 11.7086 8.87854C11.7531 8.8821 11.7976 8.88388 11.8421 8.88744C14.0337 9.73311 16.0081 10.9954 18.0502 12.1259C18.3475 12.2897 18.6359 12.4695 18.9297 12.6422C18.9297 12.8202 19.081 12.7455 19.1647 12.7864H19.1629C19.2056 12.9431 19.3231 12.911 19.4353 12.8879C19.5777 12.984 19.7201 13.0784 19.8643 13.1745C19.8643 13.349 20.0174 13.2742 20.0993 13.317C20.1403 13.4754 20.2578 13.4416 20.37 13.4202C21.9669 14.3157 23.5586 15.2219 25.1627 16.1014C25.5045 16.2884 25.7787 16.4984 25.7715 15.7258C25.7662 15.1899 26.0404 14.5472 26.165 13.9543C26.2878 13.3739 26.4837 12.8113 26.5602 12.2131C26.6332 11.6363 26.7133 11.0007 26.9483 10.5058C27.2083 9.95743 27.2065 9.37526 27.3561 8.83581C27.6694 7.69817 27.851 6.5178 28.1536 5.36235C28.2836 4.86741 28.3726 4.27456 28.4563 3.73333C28.5987 2.82179 28.8747 1.92271 29.0367 1.00405C29.0723 0.802874 29.1969 0.601694 29.3269 0.436122C29.7987 -0.165636 29.9838 -0.126469 30.5322 0.441463C31.442 1.38327 31.9315 2.57076 32.4087 3.73333C33.1066 5.4389 33.9238 7.09285 34.5896 8.81089C35.1415 10.2334 35.713 11.647 36.2667 13.0695C36.7652 14.3496 37.2495 15.6403 37.7818 16.9097C37.6981 16.9239 37.6002 16.9417 37.6073 17.0503C37.6144 17.1554 37.7141 17.1643 37.7978 17.1768C38.3016 17.9993 38.2643 17.9352 39.1615 17.3904C40.5965 16.5198 42.0867 15.7418 43.5537 14.9246C43.7459 14.9175 43.883 14.8374 43.9347 14.6398C44.2053 14.7003 44.2943 14.4297 44.483 14.3424C44.5685 14.3638 44.6059 14.3389 44.5685 14.2481C45.6349 13.584 46.6996 12.9146 47.7695 12.2559C48.1042 12.0493 48.4728 11.9336 48.8751 11.9568C49.0087 11.9568 49.1422 11.9568 49.2757 11.955C50.3653 12.0209 51.211 12.7615 51.4317 13.8439C51.4104 13.9543 51.3765 14.0683 51.5296 14.1145C51.6382 14.743 51.2341 15.254 51.138 15.8344C51.0667 15.8522 51.0044 15.8771 51.0418 15.9715L50.4703 17.4313C50.3991 17.4509 50.3368 17.4758 50.3724 17.5702C50.3635 17.8711 50.052 18.0562 50.0715 18.366C49.9843 18.5298 49.598 18.4301 49.7119 18.7737C49.5926 18.982 49.8027 19.2669 49.5517 19.4431C49.2045 19.493 49.2704 19.7227 49.3327 19.9488C49.2668 20.1304 49.2009 20.3102 49.1351 20.4918C49.0621 20.5131 49.0015 20.5416 49.0336 20.636C48.9802 20.6912 48.925 20.7464 48.8716 20.8015C48.7808 20.7784 48.7487 20.8158 48.7665 20.903C48.5725 21.7576 48.1577 22.5214 47.7856 23.3029C47.1856 23.5059 46.963 23.9332 47.15 24.5207L46.5019 25.7117C46.3257 25.7313 46.1334 25.742 46.3613 25.9752C46.3559 26.1604 46.2634 26.2904 46.1031 26.3776C45.8076 26.3705 45.8058 26.5734 45.8165 26.7835C45.8574 26.8262 45.8984 26.869 45.9393 26.9117C46.5411 27.3942 47.3067 27.4547 47.9956 27.7111C49.4306 28.2452 50.8727 28.822 52.3308 29.2173C53.6429 29.5733 54.9746 29.933 56.2992 30.2677C57.8143 30.6504 59.3774 30.8445 60.8533 31.4071C61.4658 31.6403 61.6349 32.0818 61.658 32.6035C61.6848 33.1696 61.2254 33.4153 60.7625 33.5613C59.6943 33.8996 58.5727 33.9922 57.4796 34.2236C56.2387 34.4871 54.9978 34.7541 53.7515 34.9838C51.9071 35.3239 50.0591 35.639 48.2111 35.9559C47.4242 36.0912 46.6728 36.4134 45.8076 36.3636C46.2954 37.3303 46.7939 38.2454 47.2283 39.189C48.4532 41.8577 49.6532 44.5372 50.8602 47.2148C50.8852 47.2718 50.8691 47.3466 50.8727 47.4124C50.8371 47.4338 50.7997 47.4569 50.7641 47.4783C50.8015 47.4872 50.8371 47.4979 50.8745 47.5068C50.9297 47.5655 50.9849 47.6243 51.04 47.6813C51.0044 47.7756 51.065 47.8005 51.138 47.8183C51.6845 49.2106 51.9908 50.5993 51.1575 52.0057C50.976 52.312 50.7819 52.5719 50.449 52.7108C49.9932 52.6627 49.411 52.2496 49.2739 53.1185C48.4051 52.7481 47.5986 52.3173 46.7939 51.7743C45.1079 50.6366 43.502 49.3975 41.857 48.21C40.625 47.3199 39.4019 46.4119 38.2732 45.3882C37.7764 44.9377 37.6126 44.952 37.4257 45.5377C36.564 48.2296 35.7379 50.9322 34.8495 53.6152C34.0893 55.9118 33.265 58.1853 32.4674 60.4695C32.1612 60.5122 32.1149 60.79 32.0366 61.0001C31.7927 61.6588 31.5595 62.3229 31.369 62.9994C31.2657 63.3679 31.0521 63.74 31.2194 64.1495C31.3209 64.3471 31.1553 64.3952 31.0396 64.4717C30.8313 64.4628 30.6266 64.4628 30.6337 64.7602C30.4788 65.2658 30.0907 64.8901 29.8236 64.9738C29.7755 64.3275 29.7577 64.3097 29.2842 64.4806C28.6842 64.2136 28.9192 63.6012 28.7821 63.1596C28.6254 62.6504 28.6593 62.0843 28.6094 61.5413C28.8248 61.3633 28.7002 61.3045 28.5133 61.2689C28.5133 61.0909 28.5133 60.9128 28.5133 60.7366C28.6468 60.7152 28.7643 60.6654 28.7323 60.5033C28.6913 60.3057 28.5186 60.3502 28.3798 60.336C28.1999 58.5539 27.8118 56.8038 27.5145 55.0394C27.4148 54.4502 27.3062 53.8626 27.2012 53.2751C27.3151 53.2502 27.4219 53.2057 27.4041 53.0668C27.3774 52.8461 27.194 52.8888 27.048 52.8763C26.8059 51.8633 26.5798 50.8467 26.3163 49.839C26.0831 48.94 25.8107 48.0516 25.5561 47.1596C25.4974 47.0742 25.6985 46.8659 25.4244 46.8819C24.7389 46.7003 24.7033 46.7145 24.7728 47.1525C23.2061 47.9252 21.5646 48.5234 19.9676 49.2213C18.0804 50.0456 16.2378 50.9713 14.3506 51.7956C13.7132 52.0734 13.1275 52.5416 12.3726 52.5024C12.2605 52.4829 12.1447 52.4544 12.1074 52.6146C11.2279 52.6591 10.6012 52.2301 10.1098 51.5482C10.1401 51.5179 10.1721 51.4876 10.2024 51.4574C10.1703 51.4431 10.1383 51.4307 10.1062 51.4164L10.1045 51.4111ZM49.6567 14.2463C49.7778 14.1591 49.8347 14.0416 49.7279 13.9241C49.6122 13.7941 49.4502 13.8582 49.306 13.8849C49.0069 13.7193 48.7505 13.8795 48.5119 14.0202C47.3423 14.7127 46.1156 15.2914 44.8818 15.854C44.1554 15.5531 43.5448 15.8308 43.4166 16.5216C43.3222 16.7548 43.089 16.8118 42.8949 16.8901C41.5259 17.4491 40.1514 17.9922 38.7806 18.5458C38.6185 18.6117 38.4085 18.7079 38.4921 18.9215C38.7912 19.6746 38.8482 20.5274 39.4072 21.1754C39.6529 22.5142 40.0161 23.805 40.892 24.8928C40.8191 24.9355 40.7461 25.0103 40.8102 25.0779C40.917 25.1901 40.9775 25.0744 41.0309 24.9925L42.489 25.6601C42.4872 26.0108 42.7294 25.9628 42.9537 25.9432C43.3311 26.0286 43.7068 26.1088 44.0593 26.2815C44.4456 26.472 44.6628 26.3758 44.7429 25.9111C44.8213 25.4572 44.9993 25.0228 45.2397 24.6222C45.334 24.6151 45.4586 24.64 45.4747 24.5118C45.4818 24.4619 45.3946 24.3996 45.3518 24.3427C45.4373 24.072 45.4889 23.7872 45.6669 23.554C45.7168 23.6341 45.7987 23.7 45.8717 23.6216C45.9874 23.497 45.9198 23.383 45.7951 23.2994C45.8325 23.2121 45.8717 23.1249 45.9091 23.0377C46.242 23.0163 46.2064 22.7849 46.1832 22.5587C46.1209 22.3772 46.1904 22.2276 46.299 22.0887C46.4948 22.1012 46.655 22.0496 46.712 21.8413C46.7583 21.6704 46.6568 21.5991 46.5055 21.5724L46.8171 20.887C47.1749 20.9012 47.1357 20.6573 47.1144 20.4259C47.0485 20.2443 47.1286 20.0983 47.2265 19.9559C47.4028 19.9648 47.579 19.9488 47.6147 19.7351C47.6378 19.5909 47.4989 19.5909 47.401 19.5695C47.4455 19.2669 47.5951 19.0087 47.7517 18.7541C48.1096 18.7684 48.0704 18.5245 48.0491 18.293C47.9903 18.0046 48.1221 17.7732 48.2805 17.5524C48.3802 17.5488 48.5137 17.5916 48.5422 17.4491C48.5618 17.3494 48.4603 17.3227 48.3766 17.3067C48.4835 17.0788 48.5903 16.8527 48.6989 16.6248C48.8929 16.6373 49.055 16.5875 49.1137 16.3792C49.16 16.21 49.0603 16.137 48.9107 16.1085C48.9998 15.87 49.0532 15.6118 49.265 15.4373C49.7368 15.27 49.7635 15.1899 49.4466 14.9086C49.5178 14.6878 49.5891 14.4688 49.6603 14.2481L49.6567 14.2463ZM39.0351 40.0222C39.0868 40.2501 38.9942 40.4495 38.9248 40.6596C38.5812 41.6779 38.2589 42.7034 37.9153 43.7218C37.8209 43.9995 37.7088 44.2612 37.9545 44.5158C37.9741 44.5567 38.0025 44.587 38.0435 44.6066C40.333 45.8653 42.5122 47.3038 44.7358 48.6694C45.8788 49.3708 47.0681 50.0171 48.1203 50.836C48.4799 51.1156 48.8075 51.2829 49.1244 51.1672C49.4769 51.0372 49.5944 50.6135 49.5196 50.2022C49.5891 50.0349 49.8436 49.8497 49.6799 49.702C49.3095 49.369 49.2704 48.8955 49.0656 48.4967C47.5256 45.495 46.4396 42.3082 45.2575 39.1605C45.1133 38.6353 45.0118 38.0941 44.8106 37.5902C44.6878 37.2822 44.9299 36.8158 44.5952 36.6965C44.3032 36.5932 43.9169 36.7624 43.5715 36.8104C43.4219 36.563 43.3311 36.6217 43.2777 36.8674C42.3947 37.1897 41.4048 37.2306 40.6375 37.8626C40.5645 37.7309 40.4701 37.6668 40.3366 37.7843C40.2137 37.8929 40.2226 37.9997 40.3633 38.0905C40.228 38.2276 40.0945 38.3665 39.9591 38.5036C39.8238 38.3024 39.6885 38.3772 39.6031 38.5338C39.5194 38.6869 39.3058 38.8632 39.5888 39.0359C39.4963 39.2104 39.4019 39.3831 39.3093 39.5575C38.9693 39.5646 39.0209 39.8032 39.0351 40.0204V40.0222Z" fill="#202020"/>
<path d="M4.55688 33.5453C4.49634 33.556 4.43581 33.5667 4.37528 33.5792C4.25244 33.5062 4.14562 33.3905 3.98182 33.4172C3.11301 32.9596 2.18189 32.6463 1.27213 32.2884C1.04247 32.1033 0.714881 32.0783 0.519043 31.8344C0.65435 31.797 0.832385 31.8878 0.919622 31.7045C1.14039 31.6422 1.5463 31.797 1.39498 31.3003H1.37361C1.37183 31.4107 1.40566 31.4979 1.53384 31.4677C1.63888 31.4428 1.61396 31.3591 1.58191 31.2843L1.57301 31.2914C1.63176 31.3555 1.68161 31.3502 1.72612 31.2754C1.64957 31.7347 1.99317 31.4356 2.05905 31.4178C3.99251 30.9033 5.91884 30.3692 7.84696 29.8387C8.92586 29.593 10.0136 29.3882 11.0872 29.1105C11.7922 28.9289 12.5613 28.9182 13.2948 28.7704C13.918 28.644 14.5411 28.5248 15.1695 28.4375C16.0775 28.3093 16.9873 28.2007 17.8988 28.1028C19.3925 27.9426 20.8987 27.9088 22.3728 27.5723C23.571 27.2981 24.3205 26.4702 24.6107 25.3824C25.4368 22.2757 26.1436 19.137 26.9003 16.0125C27.5002 13.5396 28.1091 11.0684 28.7055 8.59374C29.1328 6.82052 29.5423 5.04195 29.9642 3.26694C29.9981 3.12095 30.0622 2.98208 30.1263 2.79871C30.5322 3.1797 30.6123 3.6782 30.7903 4.12507C30.7618 4.21408 30.817 4.24257 30.8882 4.26215C31.3066 5.23957 31.725 6.2152 32.1381 7.19439C32.1879 7.31011 32.2021 7.44186 32.2324 7.5647C32.0971 8.0543 31.9315 8.52787 31.5541 8.89462C31.385 9.01569 31.1749 9.07088 31.0894 9.30767C30.7298 10.2886 30.5909 11.3159 30.5055 12.3432C30.4271 13.2814 30.4788 14.2303 30.4734 15.1757C30.0426 16.7015 29.8111 18.2664 29.5655 19.8278C29.277 21.6526 29.0349 23.4846 28.7714 25.3148C28.4047 25.5302 28.0611 25.8026 27.6694 25.9539C26.1668 26.529 25.1804 27.6168 24.4932 29.025C24.4238 29.0446 24.3668 29.0731 24.3989 29.1639L24.1033 30.2232C23.2096 30.4458 22.3159 30.6683 21.4221 30.8891C21.1622 30.9336 20.8791 30.8143 20.6423 31.0048C19.1077 31.1472 17.5712 31.2736 16.0401 31.4392C14.9043 31.562 13.7666 31.7027 12.6539 31.9786C9.90505 32.2457 7.18645 32.6623 4.56044 33.5542L4.55688 33.5453Z" fill="#38CEFC"/>
<path d="M16.6134 38.2383C17.2651 38.2259 17.8437 38.6122 18.4988 38.5837C18.5879 38.6282 18.6769 38.671 18.7641 38.7155C18.8531 38.7155 18.9421 38.7155 19.0312 38.7155C19.1202 38.7368 19.2092 38.7582 19.2982 38.7813C20.1421 39.0306 20.986 39.2798 21.8299 39.5291C21.9563 39.5932 22.0595 39.7285 22.2287 39.6537C22.4156 39.8585 22.8091 39.7356 22.907 40.081C22.6417 40.2394 22.3604 40.3765 22.1112 40.5581C19.227 42.6732 16.35 44.7954 13.4676 46.914C13.3429 47.0066 13.2468 47.2433 13.0403 47.019C13.2628 46.5294 13.4836 46.038 13.7061 45.5484C13.9109 45.2689 14.0871 44.9787 14.08 44.6155C14.3435 44.1153 14.5162 43.5812 14.712 43.0613C14.9079 42.5414 15.223 42.0073 15.4936 41.4804C15.9227 40.6471 16.3731 39.83 16.4781 38.8793C16.5102 38.6638 16.455 38.4324 16.6117 38.2437L16.6134 38.2383Z" fill="#1C74BA"/>
<path d="M17.0194 26.6287C16.893 25.9325 16.6491 25.2667 16.3553 24.6365C15.6307 23.084 15.0823 21.4514 14.3221 19.9239C13.8023 18.877 13.3251 17.7892 12.864 16.7317C12.4991 15.8949 12.0362 15.0582 11.7745 14.1377C11.5288 13.2743 11.0356 12.4411 10.6101 11.6132C10.4962 11.3924 10.2291 11.1752 10.4588 10.9082C10.66 10.6749 10.9324 10.7568 11.1923 10.8494C12.0807 11.1663 12.9263 11.5616 13.6866 12.1277C13.2682 12.6636 13.3821 13.276 13.5192 13.8422C13.9109 15.4641 14.6159 16.9703 15.3476 18.4604C16.2948 20.3885 17.3024 22.29 18.2193 24.2323C18.8371 25.5391 18.5149 26.4471 17.2989 27.2358C17.2633 27.2286 17.2277 27.2233 17.1903 27.2197C17.1618 27.1236 17.1333 27.0292 17.0016 27.104V27.1022C17.233 26.9509 16.9677 26.7836 17.0158 26.6251L17.0194 26.6287Z" fill="#42A5DB"/>
<path d="M7.84357 29.8333C5.91545 30.3638 3.98733 30.8979 2.05566 31.4124C1.98978 31.4302 1.64617 31.7293 1.72273 31.27C2.87996 30.6095 4.18139 30.3549 5.4312 29.9543C6.22345 29.6997 6.99256 29.3526 7.84179 29.3152C7.84179 29.4879 7.84179 29.6606 7.84357 29.8333Z" fill="#202020"/>
<path d="M31.2159 64.1441C31.0504 63.7328 31.2622 63.3625 31.3655 62.994C31.556 62.3175 31.7892 61.6534 32.0331 60.9947C32.1115 60.7846 32.1578 60.5068 32.464 60.4641C32.1097 61.7121 31.734 62.953 31.2159 64.1441Z" fill="#202020"/>
<path d="M0.51733 31.8326C0.713168 32.0765 1.03897 32.1015 1.27042 32.2866C1.02473 32.429 1.04787 32.6712 1.04253 32.9044C0.584983 32.8011 0.310809 32.4219 0.091826 32.0908C-0.200151 31.6475 0.276982 31.7311 0.510208 31.6777C0.511989 31.7294 0.515549 31.781 0.51733 31.8326Z" fill="#202020"/>
<path d="M49.2705 53.1149C49.4076 52.2461 49.9898 52.6609 50.4455 52.7072C50.0913 52.9529 49.7174 53.1398 49.2705 53.1149Z" fill="#202020"/>
<path d="M47.1464 24.5154C46.9595 23.9279 47.182 23.5023 47.782 23.2976C47.5933 23.716 47.4313 24.1468 47.1464 24.5154Z" fill="#202020"/>
<path d="M24.7711 47.1489C24.6999 46.7109 24.7373 46.6949 25.4227 46.8783C25.4227 46.9584 25.4227 47.0385 25.4245 47.1186C25.2073 47.1293 24.9883 47.14 24.7711 47.1507V47.1489Z" fill="#202020"/>
<path d="M29.2825 64.4752C29.756 64.3061 29.7738 64.3221 29.8219 64.9684C29.5691 64.8847 29.4285 64.6764 29.2825 64.4752Z" fill="#202020"/>
<path d="M11.5679 37.0258C11.9079 36.8603 12.2675 36.6253 12.3708 37.2626C12.1447 37.0419 11.778 37.2982 11.5679 37.0258Z" fill="#202020"/>
<path d="M9.83936 36.5968C10.0904 36.2603 10.1652 36.2781 10.3717 36.7214C10.158 36.8336 10.0334 36.563 9.83936 36.5968Z" fill="#202020"/>
<path d="M12.8979 28.0779C12.889 28.2167 12.8481 28.3307 12.6843 28.3485C12.508 28.3681 12.3923 28.304 12.3691 28.1153C12.5454 28.1028 12.7199 28.0903 12.8961 28.0779H12.8979Z" fill="#202020"/>
<path d="M27.0462 52.871C27.1922 52.8834 27.3756 52.8407 27.4023 53.0615C27.4183 53.2003 27.3133 53.2448 27.1994 53.2698C27.1317 53.1434 26.9572 53.0579 27.0462 52.871Z" fill="#202020"/>
<path d="M14.1031 27.85C14.0818 27.971 14.1477 28.1562 13.9625 28.1704C13.7667 28.1847 13.7257 28.0102 13.7043 27.85H14.1049H14.1031Z" fill="#202020"/>
<path d="M13.5637 27.946C13.5548 28.0849 13.5138 28.1989 13.35 28.2167C13.1738 28.2362 13.0581 28.1722 13.0349 27.9834C13.2112 27.971 13.3856 27.9585 13.5619 27.946H13.5637Z" fill="#202020"/>
<path d="M5.57698 35.2651C5.6019 35.1209 5.65887 34.9999 5.83513 35.0533C6.00248 35.1049 5.96331 35.2616 5.97577 35.388L5.5752 35.2651H5.57698Z" fill="#202020"/>
<path d="M49.7084 18.7701C49.5926 18.4283 49.9808 18.528 50.068 18.3624C50.0965 18.6277 50.0128 18.7968 49.7084 18.7701Z" fill="#FCFCFC"/>
<path d="M17.0194 26.6287C16.9713 26.7871 17.2366 26.9545 17.0051 27.1058C16.7594 27.0453 16.6508 26.8708 16.6152 26.6358C16.7505 26.634 16.8858 26.6304 17.0212 26.6287H17.0194Z" fill="#202020"/>
<path d="M28.3779 60.3307C28.515 60.3449 28.6895 60.3004 28.7304 60.498C28.7625 60.6601 28.645 60.7099 28.5115 60.7313C28.4669 60.5977 28.4224 60.4642 28.3779 60.3307Z" fill="#202020"/>
<path d="M1.39323 31.2968C1.54278 31.7953 1.13864 31.6404 0.917879 31.7009C0.912538 31.6421 0.907197 31.5852 0.901855 31.5264C1.0514 31.4214 1.19383 31.2968 1.39323 31.2968Z" fill="#202020"/>
<path d="M0.901931 31.5264C0.907272 31.5852 0.912613 31.6422 0.917954 31.7009C0.830717 31.8861 0.654462 31.7953 0.517375 31.8309C0.515595 31.7792 0.512034 31.7276 0.510254 31.676C0.583248 31.4784 0.780867 31.5994 0.901931 31.5247V31.5264Z" fill="#202324"/>
<path d="M49.2705 11.9497C49.1369 11.9497 49.0034 11.9497 48.8699 11.9514C48.8912 11.8197 48.934 11.7093 49.0995 11.7271C49.2295 11.7414 49.2509 11.8464 49.2705 11.9497Z" fill="#FEFEFE"/>
<path d="M30.632 64.7549C30.6249 64.4576 30.8279 64.4593 31.0379 64.4665C30.9507 64.6285 30.8439 64.7638 30.632 64.7549Z" fill="#202020"/>
<path d="M45.813 26.7782C45.8041 26.5681 45.8041 26.367 46.0996 26.3723C46.1263 26.5343 45.9928 26.6251 45.9341 26.7497C45.8931 26.7569 45.8522 26.7675 45.8112 26.7764L45.813 26.7782Z" fill="#202020"/>
<path d="M43.9277 14.6344C43.876 14.8302 43.739 14.9104 43.5467 14.9193C43.5431 14.6486 43.7301 14.6362 43.9277 14.6344Z" fill="#FCFCFC"/>
<path d="M17.0051 27.1076C17.1369 27.0328 17.1653 27.1271 17.1938 27.2233C17.1511 27.3105 17.128 27.4547 17.0621 27.4779C16.9143 27.5295 16.925 27.3764 16.9019 27.2838C16.9375 27.2251 16.9713 27.1663 17.0069 27.1093L17.0051 27.1076Z" fill="#202020"/>
<path d="M49.3291 19.9452C49.2685 19.7191 49.2027 19.4894 49.5481 19.4396C49.5427 19.6372 49.459 19.801 49.3291 19.9452Z" fill="#202020"/>
<path d="M37.7924 17.1696C37.7087 17.1572 37.6091 17.1483 37.6019 17.0432C37.5948 16.9346 37.6927 16.9186 37.7764 16.9026L37.7924 17.1696Z" fill="#202020"/>
<path d="M28.5115 61.2635C28.6984 61.2992 28.823 61.3579 28.6076 61.5359C28.4545 61.4879 28.4883 61.3739 28.5115 61.2635Z" fill="#202020"/>
<path d="M12.1057 52.6092C12.1431 52.449 12.2588 52.4775 12.371 52.4971C12.3389 52.668 12.2926 52.8069 12.1057 52.6092Z" fill="#FCFCFC"/>
<path d="M46.3577 25.9699C46.1281 25.7349 46.3221 25.726 46.4984 25.7064C46.4752 25.8061 46.5091 25.9379 46.3577 25.9699Z" fill="#202020"/>
<path d="M51.5243 14.1111C51.3711 14.0648 51.405 13.9508 51.4263 13.8405C51.6097 13.8761 51.7361 13.933 51.5243 14.1111Z" fill="#FEFEFE"/>
<path d="M25.4244 47.117C25.4244 47.0368 25.4244 46.9567 25.4226 46.8766C25.6968 46.8606 25.4956 47.0689 25.5544 47.1543C25.5116 47.1419 25.4689 47.1294 25.4262 47.1152L25.4244 47.117Z" fill="#202324"/>
<path d="M20.3646 13.4149C20.2524 13.4363 20.1349 13.4701 20.094 13.3099C20.2168 13.26 20.3575 13.1674 20.3646 13.4149Z" fill="#FCFCFC"/>
<path d="M20.0941 13.3117C20.0122 13.2707 19.8609 13.3437 19.8591 13.1692C20.0247 13.0713 20.1066 13.1123 20.0941 13.3117Z" fill="#FCFCFC"/>
<path d="M19.161 12.7811C19.0774 12.7419 18.9243 12.8149 18.926 12.6369C19.0934 12.5407 19.1771 12.5799 19.161 12.7811Z" fill="#FCFCFC"/>
<path d="M19.4318 12.8825C19.3197 12.9057 19.2022 12.936 19.1594 12.7775C19.2823 12.7294 19.4229 12.6333 19.4318 12.8825Z" fill="#FCFCFC"/>
<path d="M11.8386 8.88215C11.7941 8.87859 11.7496 8.87681 11.7051 8.87325C11.7282 8.8234 11.7531 8.77355 11.7763 8.72192C11.7977 8.77533 11.8172 8.82696 11.8386 8.88037V8.88215Z" fill="#FCFCFC"/>
<path d="M49.0319 20.6325C49.0016 20.5381 49.0622 20.5096 49.1334 20.4883C49.0996 20.5364 49.0657 20.5844 49.0319 20.6325Z" fill="#FCFCFC"/>
<path d="M51.1327 47.8167C51.0614 47.7988 50.9991 47.7739 51.0347 47.6796C51.0668 47.7259 51.1006 47.7704 51.1327 47.8167Z" fill="#FCFCFC"/>
<path d="M51.0383 15.9679C51.0009 15.8735 51.0632 15.8486 51.1344 15.8308C51.1024 15.8771 51.0704 15.9234 51.0383 15.9679Z" fill="#FCFCFC"/>
<path d="M11.4361 16.8153C11.4717 16.8242 11.5073 16.8313 11.5411 16.8402C11.5055 16.8598 11.4699 16.8812 11.4343 16.9008C11.4343 16.8723 11.4343 16.8438 11.4343 16.8153H11.4361Z" fill="#FCFCFC"/>
<path d="M50.3689 17.5666C50.3315 17.4722 50.3938 17.4455 50.4668 17.4277C50.4347 17.474 50.4027 17.5203 50.3689 17.5666Z" fill="#FCFCFC"/>
<path d="M45.813 26.7782C45.8539 26.7675 45.8949 26.7586 45.9358 26.7515C45.9358 26.8031 45.9358 26.8547 45.9358 26.9081C45.8949 26.8654 45.8539 26.8227 45.813 26.78V26.7782Z" fill="#FCFCFC"/>
<path d="M50.8692 47.5033C50.8318 47.4944 50.7962 47.4837 50.7588 47.4748C50.7944 47.4534 50.8318 47.4303 50.8674 47.4089C50.8674 47.441 50.8692 47.473 50.8674 47.5051L50.8692 47.5033Z" fill="#FCFCFC"/>
<path d="M48.763 20.8995C48.7452 20.8104 48.7773 20.773 48.8681 20.798C48.8325 20.8318 48.7968 20.8656 48.763 20.8995Z" fill="#FCFCFC"/>
<path d="M10.1045 51.4111C10.1365 51.4254 10.1686 51.4378 10.2006 51.4521C10.1704 51.4823 10.1383 51.5126 10.1081 51.5429C10.1081 51.4984 10.1045 51.4539 10.1045 51.4111Z" fill="#FCFCFC"/>
<path d="M13.7009 21.0792C13.7365 21.0881 13.7704 21.0952 13.806 21.1041C13.7704 21.1237 13.7365 21.1433 13.7009 21.1629C13.7009 21.1344 13.7009 21.1077 13.7009 21.0792Z" fill="#FCFCFC"/>
<path d="M5.15503 35.0283L5.30636 35.1262C5.21378 35.1583 5.17817 35.1013 5.15503 35.0283Z" fill="#202020"/>
<path d="M1.58019 31.2807C1.61402 31.3555 1.63716 31.4392 1.53212 31.4641C1.40394 31.4944 1.37011 31.4071 1.37189 31.2967C1.44133 31.2914 1.51076 31.2861 1.58019 31.2789V31.2807Z" fill="#202020"/>
<path d="M1.7244 31.2717C1.67989 31.3465 1.63004 31.3518 1.57129 31.2878C1.61224 31.2504 1.65319 31.213 1.69235 31.1774C1.70304 31.2094 1.71372 31.2415 1.7244 31.2735V31.2717Z" fill="#202020"/>
<path d="M44.5632 14.2428C44.5988 14.3336 44.5632 14.3567 44.4778 14.3372C44.492 14.2926 44.5205 14.2624 44.5632 14.2428Z" fill="#FCFCFC"/>
<path d="M31.5506 8.88925C31.9263 8.52249 32.0936 8.04892 32.2289 7.55933C32.9357 8.82515 33.2954 10.2281 33.8134 11.5669C33.7796 11.5918 33.7458 11.615 33.712 11.6399C33.7476 11.6524 33.7832 11.6666 33.817 11.6791C34.3493 12.3485 34.3938 13.2173 34.7446 13.9615C34.7107 13.9864 34.6751 14.0113 34.6413 14.0362C34.6769 14.0505 34.7143 14.0647 34.7499 14.079C35.122 14.7769 35.4603 15.4908 35.6935 16.2492C35.7629 16.4753 35.8822 16.6854 35.9801 16.9026C36.0211 17.0806 36.0638 17.2587 36.1048 17.4349C36.2454 17.7892 36.386 18.1453 36.5267 18.4996C36.5231 18.8556 36.7368 19.1316 36.8667 19.4378C37.3902 21.0063 37.8317 22.6068 38.478 24.1219C38.7041 24.6507 38.8447 25.2453 39.2221 25.742C39.6423 26.2939 40.1622 26.6322 40.7746 26.8708C41.4636 27.1396 42.1419 27.4227 42.7704 27.8179C42.7935 27.9799 42.911 27.9301 43.009 27.9265C45.6456 28.7793 48.2147 29.8333 50.9084 30.5169C51.2502 30.6042 51.5404 30.8855 51.9338 30.7786C52.0068 31.0653 52.1421 31.0938 52.338 30.8766C52.6674 31.0884 52.9967 31.2932 53.3991 31.0457C53.4258 31.4142 53.4329 31.4214 53.6697 31.2771C53.8887 31.4587 54.1183 31.619 54.4281 31.5602C54.7966 31.4908 55.1011 31.6528 55.402 31.8291C55.5622 31.9537 55.6975 32.1887 55.9361 31.943C56.066 32.032 56.1978 32.1193 56.3278 32.2083C56.3278 32.2492 56.3295 32.2884 56.3313 32.3293C55.5195 32.6729 54.6204 32.6017 53.7908 32.8599C53.6163 32.9186 53.3937 32.794 53.262 33.0059C52.4199 32.9347 51.6526 33.3228 50.83 33.3958C50.3493 33.4385 49.8793 33.6005 49.404 33.7091C49.258 33.6984 49.0977 33.6201 48.998 33.8052C48.0758 33.8515 47.1821 34.0865 46.2777 34.2468C45.6617 34.3571 45.0546 34.4871 44.4279 34.5387C44.0362 34.5708 43.641 34.8948 43.2742 34.8503C42.2665 34.731 41.5063 35.372 40.6126 35.5749C40.3723 35.6657 40.1212 35.7369 39.9396 35.9363C39.7384 36.0449 39.523 36.1375 39.3877 36.3369C39.2845 36.3422 39.1794 36.344 39.1403 36.4686C38.9106 36.5256 38.9266 36.8034 38.7468 36.9048C38.5385 36.9369 38.478 37.0918 38.4424 37.268C38.364 37.3606 38.2857 37.4532 38.2091 37.5458C38.0667 37.5831 38.0792 37.6989 38.0774 37.8075C37.7356 38.2543 37.5184 38.7671 37.3047 39.2798C37.2958 39.3653 37.2869 39.4507 37.278 39.5362C36.6478 40.8252 36.3113 42.221 35.8359 43.5651C35.6223 44.1687 35.4638 44.7918 35.2787 45.4042C34.7606 46.5169 34.4829 47.7098 34.109 48.8706C32.95 52.3868 31.7892 55.9029 30.6302 59.4191C30.5412 59.4494 30.4504 59.4814 30.3613 59.5117C30.0427 58.9367 30.1637 58.2601 29.943 57.6619C29.9608 57.5124 29.9964 57.3575 29.829 57.2596C29.7097 55.5344 29.2095 53.8858 28.8196 52.2158C28.5863 51.2135 28.4083 50.1934 28.0095 49.2338C27.9988 49.1928 27.9792 49.1572 27.949 49.1287C28.0042 48.8118 27.8653 48.5554 27.6926 48.308C27.6926 48.2688 27.6908 48.2314 27.6873 48.194C27.7229 47.8932 27.5751 47.6386 27.4736 47.3733C27.4647 47.3306 27.4434 47.295 27.4131 47.2629C27.3169 46.4724 26.9627 45.7585 26.7366 45.0072C26.7615 44.895 26.7775 44.7882 26.6386 44.7348C26.3716 43.9354 26.1063 43.1361 25.8393 42.3385C25.8215 42.2423 25.8037 42.1462 25.7858 42.05C25.7947 41.9681 25.8037 41.888 25.8108 41.8061C26.0298 41.6156 25.8909 41.5711 25.704 41.5444C25.2571 40.8697 25.1182 40.04 24.6215 39.3884C24.139 38.7546 23.6049 38.2009 22.7557 38.103C22.6311 38.0371 22.5331 37.8947 22.3605 37.9695C21.4044 37.6455 20.4163 37.4567 19.43 37.2591C19.4033 37.1114 19.3801 36.9529 19.1772 37.1167C18.2621 37.0811 17.404 36.7428 16.5067 36.6129C16.407 36.4419 16.2521 36.4829 16.1007 36.5043C12.7466 35.8455 9.40307 35.1458 6.11476 34.2023C6.06135 34.0652 5.95275 34.083 5.84237 34.1061C5.4133 33.9174 4.98424 33.7287 4.55518 33.54C7.18119 32.648 9.90157 32.2314 12.6486 31.9644C12.7911 32.2813 14.0035 32.8474 14.4183 32.721C15.0539 32.5287 15.7019 32.7744 16.2645 32.8545C17.3434 33.0059 18.4099 33.029 19.487 33.0682C20.5249 33.1056 21.5646 32.972 22.599 33.1376C22.834 33.175 23.0512 33.1519 23.2809 32.9898C23.5996 32.7637 24.2209 33.013 24.3402 33.3797C24.812 34.8289 25.6114 36.0378 26.8825 36.9066C26.9164 36.9404 26.9502 36.9743 26.984 37.0099C27.5395 37.5048 28.1163 37.9659 28.8801 38.0959C29.1187 38.281 29.3608 38.4591 29.6848 38.4573C30.1014 38.5908 30.5091 38.7279 30.9506 38.5089C31.0788 38.4448 31.2284 38.2472 31.4224 38.4252C31.6147 38.5997 31.499 38.7582 31.4491 38.9576C31.2391 39.7961 30.9809 40.6364 30.9008 41.491C30.721 43.3817 30.6551 45.2814 30.7477 47.181C30.7619 47.4676 30.8082 47.7347 30.883 48.0124C31.0112 48.4878 31.2604 48.6587 31.7393 48.6088C32.1826 48.5626 32.3642 48.308 32.4906 47.9127C32.7274 47.165 32.6384 46.3888 32.7185 45.6303C32.8983 43.9408 32.6242 42.2494 32.4515 40.567C32.3892 39.9563 32.2895 39.3154 31.9993 38.7457C31.9352 38.6193 31.7322 38.5303 31.8978 38.3612C32.0509 38.2045 32.2218 38.0621 32.4657 38.2045C33.096 38.5748 33.7209 38.2045 34.2763 38.0621C35.6116 37.7167 36.6317 36.8781 37.1676 35.5464C37.2032 35.4984 37.2371 35.4503 37.2727 35.4022C37.5255 34.553 37.8175 33.7109 37.8103 32.8082C37.8086 32.5483 37.8477 32.502 38.1486 32.575C40.2583 33.0931 42.3983 33.1251 44.5507 32.8866C45.2308 32.8118 45.8593 32.5732 46.4539 32.2617C46.8741 32.0409 46.8794 31.489 46.4699 31.2344C46.1798 31.0546 45.886 30.8516 45.5032 30.8837C44.7163 30.9513 43.9169 30.9567 43.1407 31.0546C41.4458 31.2665 39.7295 31.3341 38.0596 31.7222C37.8388 31.7739 37.6697 31.7418 37.6964 31.5246C37.7747 30.8552 37.3688 30.3069 37.2816 29.6837L37.1943 29.5609C36.6513 28.028 35.6721 26.8352 34.344 25.9165C34.2959 25.8845 34.2479 25.8524 34.1998 25.8222C33.8117 25.6423 33.4342 25.4251 33.0301 25.2898C32.4764 25.1047 32.245 24.7539 32.3553 24.1931C32.5797 23.0537 32.4479 21.9072 32.4604 20.7624C32.4604 20.6734 32.4604 20.5844 32.4604 20.4971C32.4728 17.8141 32.4408 15.1294 32.5245 12.4482C32.5494 11.6595 32.3714 10.9046 32.3785 10.123C32.382 9.64412 32.2681 8.99607 31.5488 8.88391L31.5506 8.88925Z" fill="#00AEEF"/>
<path d="M17.3005 27.2375C18.5165 26.4489 18.8388 25.5409 18.221 24.2341C17.3023 22.2917 16.2964 20.3921 15.3493 18.4622C14.6176 16.9721 13.9125 15.4659 13.5209 13.844C13.3838 13.2778 13.2698 12.6636 13.6882 12.1295C13.7327 12.1242 13.7772 12.1188 13.8217 12.1117C13.8484 12.1722 13.8752 12.2328 13.9606 12.1972C15.3297 12.9235 16.7237 13.609 18.0643 14.387C19.8447 15.4196 21.7051 16.2706 23.6083 17.0361C23.8914 17.1501 24.1763 17.264 24.4665 17.3566C25.3139 17.6272 25.4367 17.9619 25.1964 18.8432C24.9454 19.7619 24.9329 20.7624 24.5822 21.6348C24.2671 22.4181 24.4807 23.2798 24.0178 24.0205C23.7668 24.4228 23.9306 24.9712 23.6511 25.4323C23.457 25.7527 23.2398 26.0501 23.0244 26.3509C22.8463 26.4008 22.6754 26.4595 22.5526 26.6091C21.0856 26.8352 19.6203 27.072 18.1516 27.2821C17.8756 27.3212 17.5801 27.3479 17.3005 27.2393V27.2375Z" fill="#1C75BC"/>
<path d="M13.0422 47.0172C13.2469 47.2434 13.343 47.0048 13.4695 46.9122C16.3501 44.7936 19.2289 42.6714 22.1131 40.5564C22.3605 40.3748 22.6418 40.2377 22.9089 40.0792C23.4056 40.6614 23.6798 41.3468 23.8507 42.0803C24.1177 42.8797 24.3848 43.6791 24.6501 44.4767C25.1023 45.4488 24.9634 45.6179 23.8631 45.8226C23.0709 45.9704 22.2733 46.1734 21.5576 46.5846C21.4632 46.6202 21.3689 46.6558 21.2745 46.6897C20.4093 46.7947 19.7131 47.3377 18.9155 47.6279C17.4111 48.1763 15.9726 48.9062 14.5056 49.5596C14.1905 49.6896 13.8451 49.7519 13.5727 49.978C13.2095 50.1685 12.8552 50.375 12.4849 50.5459C11.7283 50.8948 11.5093 50.7382 11.5645 49.905C11.9989 49.3086 12.2855 48.6374 12.5544 47.9555C12.7413 47.6528 12.7733 47.2701 13.0439 47.0119L13.0422 47.0172Z" fill="#1568A0"/>
<path d="M39.3076 39.5594C39.4001 39.3849 39.4945 39.2122 39.5871 39.0377C39.7099 38.8597 39.8345 38.6834 39.9574 38.5054C40.0927 38.3683 40.2262 38.2294 40.3615 38.0924C40.4523 38.0158 40.5449 37.9392 40.6357 37.8645C41.403 37.2324 42.3929 37.1915 43.276 36.8693C43.3739 36.8497 43.4718 36.8319 43.5697 36.8123C43.9151 36.7642 44.3032 36.5951 44.5934 36.6983C44.9281 36.8176 44.6878 37.2841 44.8088 37.5921C45.0082 38.0959 45.1115 38.6371 45.2557 39.1623C44.9851 39.4223 44.8801 39.814 44.5596 40.0347C43.8475 40.5261 43.2243 41.1154 42.6226 41.7332C41.6647 42.7159 41.6701 43.7111 42.6226 44.6975C43.9454 46.0648 45.4373 47.238 46.9239 48.4095C47.7464 49.0575 48.5547 49.7501 49.5179 50.2041C49.5926 50.6136 49.4751 51.0391 49.1226 51.169C48.8057 51.2847 48.4781 51.1174 48.1185 50.8379C47.0663 50.0189 45.8771 49.3744 44.7341 48.6712C42.5104 47.3039 40.3313 45.8671 38.0417 44.6084C38.0524 44.539 38.0221 44.5105 37.9527 44.5176C37.707 44.2648 37.8192 44.0013 37.9135 43.7236C38.2572 42.7052 38.5812 41.6798 38.923 40.6614C38.9942 40.4513 39.085 40.2519 39.0334 40.024C39.2096 39.9208 39.2809 39.7552 39.3076 39.5629V39.5594Z" fill="#1568A0"/>
<path d="M45.667 23.5504C45.489 23.7836 45.4374 24.0684 45.3519 24.3391C45.3145 24.4316 45.2771 24.526 45.2415 24.6186C45.003 25.0209 44.8249 25.4536 44.7448 25.9075C44.6647 26.3722 44.4457 26.4666 44.0612 26.2779C43.7087 26.1052 43.3312 26.025 42.9556 25.9396C42.8594 25.7491 42.6796 25.6975 42.4927 25.6565C42.0066 25.434 41.5206 25.2114 41.0346 24.9889C40.9883 24.9551 40.942 24.923 40.8957 24.8892C40.0198 23.8032 39.6566 22.5106 39.4109 21.1718C39.4251 21.0579 39.4607 20.9617 39.5711 20.8994C40.9936 20.0965 42.2416 19.039 43.5858 18.1221C45.1774 17.0361 46.8367 16.1014 48.5619 15.2628C48.8005 15.1471 49.0248 14.9922 49.3132 15.0652C49.2972 15.1881 49.2811 15.3109 49.2633 15.4355C49.0515 15.61 48.9981 15.8664 48.9091 16.1067C48.8396 16.2794 48.7684 16.4521 48.699 16.623C48.5922 16.8509 48.4853 17.077 48.3767 17.3049C48.3447 17.3868 48.3126 17.4687 48.2806 17.5506C48.1204 17.7713 47.9904 18.001 48.0491 18.2912C47.8551 18.382 47.8088 18.5707 47.7518 18.7523C47.5969 19.0069 47.4474 19.2651 47.4011 19.5677C47.2658 19.6621 47.2658 19.8152 47.2266 19.9523C47.1287 20.0947 47.0486 20.2407 47.1145 20.4223C46.9186 20.5131 46.8741 20.7018 46.8171 20.8834C46.7139 21.1113 46.6106 21.3409 46.5056 21.5688C46.4361 21.7415 46.3667 21.9142 46.2973 22.0851C46.1887 22.224 46.1175 22.3735 46.1816 22.5551C45.9875 22.6566 45.9323 22.8364 45.9074 23.0341C45.87 23.1213 45.8308 23.2085 45.7934 23.2958C45.7507 23.3812 45.708 23.4667 45.6653 23.5521L45.667 23.5504Z" fill="#1C75BB"/>
<path d="M49.5179 50.2023C48.5547 49.7483 47.7464 49.0575 46.9239 48.4077C45.4373 47.2362 43.9454 46.0629 42.6226 44.6956C41.6683 43.7093 41.6647 42.7141 42.6226 41.7313C43.2243 41.1136 43.8492 40.5243 44.5596 40.0329C44.88 39.8121 44.9851 39.4205 45.2557 39.1605C46.4378 42.3082 47.5239 45.495 49.0639 48.4967C49.2686 48.8955 49.3078 49.369 49.6781 49.702C49.8419 49.8497 49.5873 50.0349 49.5179 50.2023Z" fill="#1C75BB"/>
<path d="M49.3097 15.0652C49.023 14.9922 48.7969 15.1489 48.5584 15.2628C46.8332 16.1014 45.1739 17.0361 43.5823 18.1221C42.2381 19.039 40.9883 20.0965 39.5676 20.8994C39.4572 20.9617 39.4216 21.0579 39.4074 21.1718C38.8483 20.5256 38.7914 19.671 38.4923 18.9179C38.4068 18.7043 38.6187 18.6063 38.7807 18.5422C40.1516 17.9886 41.526 17.4456 42.8951 16.8865C43.0891 16.8064 43.3224 16.7512 43.4167 16.518C43.9757 16.4486 44.419 16.1263 44.8819 15.8504C46.1175 15.2878 47.3424 14.7092 48.5121 14.0166C48.7489 13.876 49.007 13.7157 49.3061 13.8813C49.4236 14.0024 49.5393 14.1234 49.6568 14.2445C49.5856 14.4652 49.5144 14.6842 49.4432 14.905C49.3987 14.9584 49.356 15.0118 49.3115 15.0634L49.3097 15.0652Z" fill="#42A5DB"/>
<path d="M34.1072 48.8759C34.4811 47.7151 34.7588 46.5223 35.2769 45.4095C35.4852 45.584 35.4318 45.8083 35.3694 46.0166C35.1202 46.832 34.8603 47.6457 34.6039 48.4593C34.5273 48.7032 34.4187 48.9133 34.1072 48.8759Z" fill="#202020"/>
<path d="M24.6463 44.4784C24.3792 43.679 24.1122 42.8796 23.8469 42.082C24 42.0856 24.1709 42.0767 24.2333 42.2547C24.4558 42.8885 24.6748 43.5223 24.8777 44.1615C24.9312 44.3288 24.8386 44.457 24.6463 44.4802V44.4784Z" fill="#202020"/>
<path d="M12.5507 47.959C12.2818 48.6391 11.9952 49.3121 11.5608 49.9085C11.2688 49.1198 11.8812 48.6231 12.1803 48.0284C12.2444 47.902 12.4207 47.9555 12.5507 47.9608V47.959Z" fill="#202020"/>
<path d="M44.88 15.8522C44.4154 16.1282 43.972 16.4504 43.4148 16.5199C43.5448 15.8291 44.1554 15.5514 44.88 15.8522Z" fill="#202020"/>
<path d="M14.082 44.612C14.0873 44.9751 13.911 45.2653 13.7081 45.5449C13.0422 45.5324 13.4642 45.1852 13.5354 44.9609C13.6173 44.6992 13.8096 44.5852 14.0837 44.612H14.082Z" fill="#202020"/>
<path d="M13.5691 49.9797C13.8415 49.7536 14.1869 49.693 14.502 49.5613C14.5661 49.9476 14.2492 50.1025 14.0177 50.261C13.7507 50.4426 13.5691 50.3144 13.5691 49.9797Z" fill="#202020"/>
<path d="M36.8667 19.4414C36.7367 19.1334 36.5231 18.8575 36.5267 18.5032C37.1729 18.6883 37.2815 18.991 36.8667 19.4414Z" fill="#202020"/>
<path d="M39.9397 35.9399C40.1213 35.7405 40.3723 35.6693 40.6127 35.5785C40.5788 36.0538 40.399 36.255 39.9397 35.9399Z" fill="#202020"/>
<path d="M39.9574 38.5072C39.8345 38.6852 39.7099 38.8615 39.5871 39.0395C39.304 38.8668 39.5194 38.6905 39.6013 38.5374C39.685 38.3825 39.8203 38.3078 39.9574 38.5072Z" fill="#202020"/>
<path d="M30.3596 59.517C30.4486 59.4867 30.5394 59.4547 30.6285 59.4244C30.6213 59.6648 30.6178 59.9069 30.6035 60.1473C30.6017 60.1829 30.559 60.2149 30.4575 60.3573C30.4184 60.0173 30.3881 59.768 30.3596 59.5188V59.517Z" fill="#202020"/>
<path d="M48.6971 16.6231C48.7665 16.4504 48.8377 16.2777 48.9072 16.1068C49.0567 16.1353 49.1582 16.2083 49.1101 16.3774C49.0514 16.5857 48.8912 16.6374 48.6953 16.6231H48.6971Z" fill="#202020"/>
<path d="M36.1046 17.4367C36.0637 17.2587 36.0209 17.0807 35.98 16.9044C36.1349 16.9115 36.304 16.8973 36.3361 17.1092C36.3628 17.2872 36.3022 17.4118 36.1046 17.4367Z" fill="#202020"/>
<path d="M49.3096 15.0653C49.3541 15.0119 49.3969 14.9585 49.4414 14.9069C49.7583 15.1882 49.7316 15.2683 49.2598 15.4356C49.2758 15.3128 49.2918 15.1899 49.3096 15.0653Z" fill="#202020"/>
<path d="M46.2991 22.0851C46.3685 21.9125 46.4379 21.7398 46.5074 21.5688C46.6569 21.5973 46.7602 21.6685 46.7139 21.8377C46.6569 22.046 46.4949 22.0976 46.3009 22.0851H46.2991Z" fill="#202020"/>
<path d="M55.936 31.9466C55.6974 32.1923 55.5621 31.9573 55.4019 31.8327C55.6511 31.5318 55.7935 31.7383 55.936 31.9466Z" fill="#01ACEC"/>
<path d="M53.2603 33.0077C53.392 32.7976 53.6163 32.9204 53.789 32.8617C53.7142 33.2801 53.5059 33.2106 53.2603 33.0077Z" fill="#202020"/>
<path d="M47.2266 19.9523C47.2657 19.8152 47.2675 19.6603 47.401 19.5677C47.499 19.5891 47.6396 19.5891 47.6147 19.7333C47.5791 19.947 47.4028 19.9612 47.2266 19.9541V19.9523Z" fill="#202020"/>
<path d="M22.2286 39.6519C22.0595 39.7267 21.9562 39.5914 21.8298 39.5273C21.8548 39.3831 21.9117 39.262 22.088 39.3172C22.2536 39.3688 22.2162 39.5255 22.2286 39.6519Z" fill="#202020"/>
<path d="M49.6569 14.2463C49.5394 14.1253 49.4237 14.0042 49.3062 13.8831C49.4504 13.8564 49.6124 13.7941 49.7281 13.9241C49.8349 14.0416 49.7779 14.1591 49.6569 14.2463Z" fill="#202020"/>
<path d="M40.6357 37.8645C40.5449 37.941 40.4523 38.0176 40.3615 38.0923C40.2226 38.0015 40.212 37.8947 40.3348 37.7861C40.4683 37.6686 40.5627 37.7327 40.6357 37.8645Z" fill="#202020"/>
<path d="M52.3397 30.8801C52.1438 31.0973 52.0085 31.0688 51.9355 30.7821C52.1171 30.6219 52.2524 30.654 52.3397 30.8801Z" fill="#01ACEC"/>
<path d="M29.8272 57.2649C29.9945 57.3628 29.9589 57.5177 29.9411 57.6673C29.6491 57.6049 29.6171 57.4696 29.8272 57.2649Z" fill="#202020"/>
<path d="M37.2762 39.5397C37.2851 39.4542 37.294 39.3688 37.3029 39.2833C37.4703 39.3065 37.5895 39.3884 37.5059 39.5664C37.4418 39.7017 37.3438 39.6305 37.2744 39.5397H37.2762Z" fill="#202020"/>
<path d="M38.0774 37.811C38.0774 37.7024 38.065 37.5867 38.2092 37.5493C38.3284 37.6348 38.3925 37.7487 38.2804 37.8698C38.2092 37.9481 38.129 37.8876 38.0774 37.8092V37.811Z" fill="#202020"/>
<path d="M39.1402 36.4722C39.1794 36.3476 39.2844 36.3458 39.3877 36.3405C39.4714 36.4028 39.5675 36.4793 39.4393 36.5701C39.3182 36.6556 39.2132 36.5879 39.1384 36.4722H39.1402Z" fill="#202020"/>
<path d="M48.998 33.807C49.0977 33.6218 49.258 33.7001 49.404 33.7108C49.3292 34.001 49.1939 34.0277 48.998 33.807Z" fill="#202020"/>
<path d="M22.5527 26.6091C22.6756 26.4613 22.8465 26.4008 23.0245 26.351C22.9996 26.6785 22.7628 26.6198 22.5527 26.6091Z" fill="#202020"/>
<path d="M39.3076 39.5593C39.2809 39.7516 39.2097 39.9172 39.0334 40.0204C39.0192 39.805 38.9658 39.5647 39.3076 39.5593Z" fill="#202020"/>
<path d="M42.4908 25.6548C42.6777 25.6957 42.8593 25.7474 42.9537 25.9379C42.7293 25.9574 42.4872 26.0055 42.4908 25.6548Z" fill="#202020"/>
<path d="M18.766 38.7154C18.677 38.6709 18.588 38.6282 18.5007 38.5837C18.515 38.5018 18.5381 38.3932 18.6343 38.4092C18.8087 38.4377 18.7464 38.6015 18.766 38.7154Z" fill="#202020"/>
<path d="M22.3623 37.9731C22.535 37.8983 22.6329 38.0407 22.7575 38.1066C22.551 38.2828 22.4175 38.2437 22.3623 37.9731Z" fill="#202020"/>
<path d="M3.97998 33.4154C4.14377 33.3887 4.24881 33.5062 4.37344 33.5774C4.14199 33.7643 4.01737 33.6949 3.97998 33.4154Z" fill="#202020"/>
<path d="M53.6715 31.2806C53.4347 31.4248 53.4258 31.4177 53.4009 31.0492C53.5486 31.0581 53.6127 31.1685 53.6715 31.2806Z" fill="#01ACEC"/>
<path d="M47.75 18.7505C47.807 18.5689 47.8515 18.382 48.0473 18.2894C48.0687 18.5209 48.1079 18.763 47.75 18.7505Z" fill="#202020"/>
<path d="M45.667 23.5504C45.7097 23.465 45.7524 23.3795 45.7952 23.2941C45.9198 23.3795 45.9875 23.4917 45.8717 23.6163C45.7987 23.6964 45.7168 23.6288 45.667 23.5487V23.5504Z" fill="#202020"/>
<path d="M45.9092 23.0324C45.9341 22.8348 45.9893 22.6549 46.1834 22.5535C46.2065 22.7796 46.2421 23.011 45.9092 23.0324Z" fill="#202020"/>
<path d="M38.4424 37.2716C38.478 37.0954 38.5385 36.9405 38.7468 36.9084C38.7522 37.1185 38.7183 37.2966 38.4424 37.2716Z" fill="#202020"/>
<path d="M46.8188 20.8835C46.8758 20.7037 46.9185 20.5132 47.1162 20.4224C47.1375 20.6538 47.1767 20.8959 46.8188 20.8835Z" fill="#202020"/>
<path d="M16.1008 36.5078C16.2522 36.4864 16.4071 36.4455 16.5067 36.6164C16.3465 36.6716 16.1525 36.8567 16.1008 36.5078Z" fill="#202020"/>
<path d="M26.6386 44.7401C26.7757 44.7935 26.7614 44.9003 26.7365 45.0125C26.5495 44.9769 26.4249 44.9199 26.6386 44.7401Z" fill="#202020"/>
<path d="M43.5696 36.8122C43.4717 36.8318 43.3738 36.8496 43.2759 36.8691C43.3293 36.6235 43.4201 36.5647 43.5696 36.8122Z" fill="#202020"/>
<path d="M25.7056 41.548C25.8908 41.5747 26.0296 41.6192 25.8124 41.8097C25.6985 41.7545 25.6842 41.6584 25.7056 41.548Z" fill="#01ACEC"/>
<path d="M21.271 46.6913C21.3654 46.6557 21.4597 46.6201 21.5541 46.5863C21.5309 46.8106 21.4793 46.962 21.271 46.6913Z" fill="#202020"/>
<path d="M19.1772 37.1202C19.3802 36.9564 19.4034 37.1148 19.4301 37.2626C19.3072 37.284 19.2022 37.2733 19.1772 37.1202Z" fill="#01ACEC"/>
<path d="M40.8939 24.8893C40.9402 24.9231 40.9865 24.9552 41.0327 24.989C40.9793 25.0727 40.9188 25.1866 40.812 25.0744C40.7479 25.0068 40.8209 24.932 40.8939 24.8893Z" fill="#202020"/>
<path d="M5.84229 34.1097C5.95267 34.0865 6.06127 34.0687 6.11468 34.2058C5.93664 34.4213 5.87789 34.2966 5.84229 34.1097Z" fill="#202020"/>
<path d="M45.2398 24.6186C45.2772 24.526 45.3146 24.4317 45.3502 24.3391C45.3947 24.3961 45.4802 24.4584 45.473 24.5082C45.457 24.6364 45.3324 24.6115 45.238 24.6186H45.2398Z" fill="#202020"/>
<path d="M56.3295 32.3328C56.3295 32.2919 56.3295 32.2527 56.3259 32.2118C56.3633 32.1156 56.4434 32.0818 56.5253 32.1245C56.5574 32.1406 56.552 32.2314 56.5645 32.2901C56.4862 32.3043 56.4078 32.3186 56.3277 32.3328H56.3295Z" fill="#01ACEC"/>
<path d="M19.2983 38.7795C19.2093 38.7581 19.1203 38.7368 19.0312 38.7136C19.0758 38.6549 19.122 38.5445 19.163 38.5463C19.3019 38.5498 19.2805 38.6834 19.2965 38.7795H19.2983Z" fill="#202020"/>
<path d="M48.2788 17.5506C48.3109 17.4687 48.3429 17.3868 48.3749 17.3049C48.4586 17.321 48.5601 17.3477 48.5405 17.4474C48.512 17.5898 48.3785 17.5471 48.2788 17.5506Z" fill="#202020"/>
<path d="M25.7858 42.0536C25.8036 42.1497 25.8214 42.2459 25.8392 42.342C25.7466 42.326 25.6166 42.3384 25.6273 42.2014C25.6327 42.1479 25.7306 42.1034 25.7858 42.0536Z" fill="#202020"/>
<path d="M43.0108 27.93C42.9129 27.9336 42.7936 27.9835 42.7722 27.8214C42.9004 27.7484 43.0143 27.7128 43.0108 27.93Z" fill="#202324"/>
<path d="M37.9526 44.5158C38.0221 44.5087 38.0523 44.5372 38.0417 44.6066C38.0007 44.587 37.9722 44.5568 37.9526 44.5158Z" fill="#202324"/>
<path d="M34.7517 14.0789C34.7161 14.0647 34.6787 14.0504 34.6431 14.0362C34.6769 14.0113 34.7125 13.9864 34.7463 13.9614C34.7499 14.0006 34.7517 14.0398 34.7517 14.0789Z" fill="#202324"/>
<path d="M27.4736 47.3769C27.4113 47.4054 27.3472 47.4178 27.3187 47.3377C27.3152 47.327 27.3793 47.2914 27.4131 47.2665C27.4434 47.2967 27.4647 47.3341 27.4736 47.3769Z" fill="#01ACEC"/>
<path d="M27.6855 48.1993C27.6872 48.2367 27.689 48.2759 27.6908 48.3133C27.6552 48.299 27.6196 48.2866 27.584 48.2723C27.6178 48.2474 27.6516 48.2225 27.6872 48.1993H27.6855Z" fill="#01ACEC"/>
<path d="M28.0078 49.2391C27.9455 49.2693 27.8832 49.2836 27.8529 49.2035C27.8494 49.1928 27.9135 49.1572 27.9455 49.134C27.9758 49.1643 27.9954 49.1981 28.006 49.2391H28.0078Z" fill="#01ACEC"/>
<path d="M13.9606 12.1972C13.8752 12.2328 13.8485 12.174 13.8218 12.1117C13.8681 12.1402 13.9144 12.1687 13.9606 12.1972Z" fill="#202324"/>
<path d="M33.8187 11.6791L33.7136 11.6399C33.7474 11.615 33.7813 11.5918 33.8151 11.5669C33.8169 11.6043 33.8187 11.6417 33.8187 11.6791Z" fill="#202324"/>
<path d="M30.8848 4.25672C30.8154 4.23713 30.7602 4.20865 30.7869 4.11963C30.8189 4.16592 30.851 4.21043 30.8848 4.25672Z" fill="#202324"/>
<path d="M28.8835 38.1013C28.1198 37.9713 27.5429 37.5102 26.9875 37.0152C27.0106 36.9245 26.9643 36.9013 26.886 36.912C25.6148 36.0414 24.8137 34.8343 24.3437 33.3851C24.2244 33.0166 23.603 32.7691 23.2843 32.9952C23.0529 33.1572 22.8357 33.1822 22.6025 33.143C21.5681 32.9756 20.5266 33.1109 19.4904 33.0736C18.4133 33.0344 17.3469 33.013 16.268 32.8599C15.7054 32.7816 15.0591 32.5341 14.4218 32.7264C14.0069 32.8528 12.7945 32.2866 12.6521 31.9697C13.7648 31.6956 14.9025 31.5531 16.0383 31.4303C17.5712 31.2647 19.1059 31.1401 20.6405 30.9959C20.9467 30.9905 21.2512 30.9852 21.5574 30.9799C22.0933 31.0813 22.6345 30.9959 23.1829 31.1223C23.8932 31.2861 24.2974 30.8125 24.1015 30.2143L24.3971 29.155L24.4914 29.0161C25.1769 27.6079 26.165 26.5201 27.6676 25.945C28.0592 25.7955 28.4046 25.5231 28.7696 25.3077C29.6562 25.0121 30.5535 24.7593 31.4971 24.7415C31.2763 23.8157 31.0876 22.9167 31.0271 22.0033C30.9755 21.2396 30.9167 20.4633 30.8224 19.7192C30.7031 18.7595 30.5108 17.8053 30.4894 16.8296C30.477 16.276 30.477 15.724 30.4716 15.1704C30.477 14.225 30.4236 13.2761 30.5037 12.3378C30.5891 11.3123 30.728 10.2833 31.0876 9.30232C31.1749 9.06554 31.3849 9.01213 31.5523 8.88928C32.2716 9.00144 32.3855 9.64949 32.3819 10.1284C32.3748 10.91 32.5529 11.6648 32.5279 12.4535C32.4442 15.1348 32.4763 17.8195 32.4638 20.5025C32.3784 20.515 32.2769 20.5256 32.2769 20.6342C32.2769 20.7429 32.3784 20.7553 32.4638 20.7678C32.4514 21.9125 32.5831 23.0591 32.3588 24.1985C32.2484 24.7593 32.4799 25.1083 33.0335 25.2952C33.4377 25.4305 33.8151 25.6477 34.2032 25.8275C34.2282 25.8916 34.2566 25.9539 34.3457 25.9219C35.6738 26.8405 36.653 28.0334 37.196 29.5663C37.1533 29.6571 37.2156 29.6749 37.2832 29.6891C37.3705 30.3122 37.7764 30.8606 37.6981 31.53C37.6731 31.7472 37.8405 31.7792 38.0613 31.7276C39.7312 31.3395 41.4475 31.2718 43.1424 31.06C43.9186 30.9621 44.718 30.9567 45.5049 30.8891C45.8877 30.857 46.1832 31.06 46.4716 31.2398C46.8811 31.4926 46.8758 32.0445 46.4556 32.2671C45.861 32.5804 45.2343 32.8172 44.5524 32.892C42.4017 33.1287 40.2618 33.0985 38.1503 32.5804C37.8494 32.5056 37.8102 32.5537 37.812 32.8136C37.8191 33.7163 37.5271 34.5584 37.2743 35.4076C37.2049 35.4307 37.1515 35.4663 37.1693 35.5518C36.6352 36.8835 35.615 37.7203 34.278 38.0674C33.7225 38.2116 33.0976 38.5802 32.4674 38.2099C32.2253 38.0674 32.0526 38.2099 31.8995 38.3665C31.7339 38.5374 31.9368 38.6265 32.0009 38.7511C32.2929 39.3226 32.3908 39.9617 32.4531 40.5724C32.6241 42.2548 32.9 43.9461 32.7202 45.6357C32.6401 46.3941 32.7273 47.1721 32.4923 47.9181C32.3677 48.3133 32.1861 48.5679 31.741 48.6142C31.2621 48.6641 31.0128 48.4932 30.8847 48.0178C30.8099 47.7383 30.7636 47.4712 30.7494 47.1864C30.6568 45.285 30.7227 43.3853 30.9025 41.4964C30.9844 40.6418 31.2407 39.8015 31.4508 38.963C31.5007 38.7653 31.6146 38.6069 31.4241 38.4306C31.23 38.2526 31.0805 38.4502 30.9523 38.5143C30.509 38.7333 30.1031 38.5962 29.6865 38.4627C29.715 38.1387 29.5512 37.9927 29.2467 37.9161C29.0384 37.8627 28.9031 37.8378 28.8818 38.1013H28.8835ZM29.9518 27.0186C29.455 27.0524 29.0865 27.3871 28.677 27.6025C27.0142 28.4803 25.8498 29.7496 25.9762 31.7614C26.0528 32.9899 26.5709 34.0919 27.429 35.0052C27.251 35.2687 27.3364 35.5091 27.5358 35.6996C27.7103 35.8669 27.9186 35.8883 28.0949 35.6711C28.9103 36.4081 29.7808 37.0509 30.8811 37.3019C31.2229 37.5137 31.6395 37.5778 31.9458 37.8574C32.1167 38.014 32.3321 37.9588 32.519 37.9393C34.7872 37.7007 36.7028 35.3293 36.4856 33.0326C36.3236 31.3217 35.8162 29.7407 34.7 28.3966C34.0893 27.6595 33.2721 27.0969 32.4282 26.8227C31.684 26.5824 30.7494 26.5949 29.9518 27.015V27.0186Z" fill="#202020"/>
<path d="M30.4698 15.1685C30.4752 15.7222 30.4752 16.2759 30.4876 16.8278C30.509 17.8034 30.7013 18.7577 30.8206 19.7173C30.9131 20.4615 30.9737 21.2377 31.0253 22.0015C31.0858 22.9166 31.2746 23.8139 31.4953 24.7397C30.55 24.7575 29.6544 25.0103 28.7678 25.3058C29.0295 23.4774 29.2717 21.6437 29.5619 19.8188C29.8093 18.2574 30.0408 16.6925 30.4698 15.1667V15.1685Z" fill="#00AEEF"/>
<path d="M24.0998 30.2142C24.2957 30.8142 23.8915 31.286 23.1812 31.1222C22.631 30.9958 22.0898 31.0813 21.5557 30.9798C21.5112 30.946 21.4649 30.9139 21.4204 30.8801C22.3141 30.6575 23.2079 30.435 24.1016 30.2142H24.0998Z" fill="#00AEEF"/>
<path d="M21.4205 30.8818C21.465 30.9157 21.5113 30.9477 21.5558 30.9815C21.2496 30.9869 20.9451 30.9922 20.6389 30.9976C20.8775 30.8088 21.1606 30.9263 21.4187 30.8818H21.4205Z" fill="#01ACEC"/>
<path d="M24.4898 29.0161L24.3955 29.155C24.3634 29.066 24.4222 29.0375 24.4898 29.0161Z" fill="#202324"/>
<path d="M28.8835 38.1012C28.9049 37.8377 29.0402 37.8627 29.2485 37.9161C29.553 37.9926 29.7167 38.1386 29.6883 38.4626C29.366 38.4626 29.1239 38.2864 28.8835 38.1012Z" fill="#202020"/>
<path d="M32.4621 20.7677C32.3766 20.7553 32.2751 20.7428 32.2751 20.6342C32.2751 20.5256 32.3766 20.5149 32.4621 20.5024C32.4621 20.5915 32.4621 20.6805 32.4621 20.7677Z" fill="#202020"/>
<path d="M26.886 36.912C26.9661 36.9013 27.0106 36.9244 26.9875 37.0152C26.9536 36.9814 26.9198 36.9476 26.886 36.912Z" fill="#01ACEC"/>
<path d="M34.3458 25.9219C34.2568 25.9539 34.2283 25.8916 34.2034 25.8275C34.2514 25.8596 34.2995 25.8916 34.3458 25.9219Z" fill="#01ACEC"/>
<path d="M37.2834 29.6891C37.2157 29.6749 37.1534 29.6589 37.1962 29.5663C37.2246 29.6072 37.2531 29.6482 37.2834 29.6891Z" fill="#01ACEC"/>
<path d="M37.173 35.55C37.1534 35.4627 37.2069 35.4289 37.2781 35.4058C37.2425 35.4538 37.2086 35.5019 37.173 35.55Z" fill="#01ACEC"/>
<path d="M30.8813 37.3037C29.781 37.0527 28.9104 36.4099 28.095 35.6729C27.8725 35.4503 27.6517 35.2296 27.4292 35.007C26.5711 34.0937 26.053 32.9917 25.9764 31.7632C25.85 29.7514 27.0144 28.4803 28.6772 27.6043C29.0849 27.3889 29.4552 27.0542 29.9519 27.0204C29.9644 27.875 30.4131 28.4767 31.1733 28.7509C32.2183 29.1283 32.9216 29.8351 33.4681 30.7556C34.401 32.324 34.6627 34.1792 33.3328 35.6853C32.6634 36.4438 31.7928 36.9084 30.8813 37.3055V37.3037Z" fill="white"/>
<path d="M30.8812 37.3036C31.7928 36.9066 32.6652 36.4419 33.3328 35.6835C34.6627 34.1791 34.401 32.3222 33.4681 30.7537C32.9215 29.8333 32.2183 29.1283 31.1732 28.7491C30.4148 28.4749 29.9644 27.8731 29.9519 27.0186C30.7495 26.5984 31.6842 26.5859 32.4284 26.8263C33.2723 27.0987 34.0894 27.663 34.7001 28.4001C35.8164 29.7443 36.3238 31.3252 36.4858 33.0361C36.703 35.3328 34.7873 37.7042 32.5192 37.9428C32.3322 37.9624 32.1168 38.0158 31.9459 37.8609C31.6397 37.5814 31.2231 37.5173 30.8812 37.3054V37.3036Z" fill="#E8EAEA"/>
<path d="M27.4291 35.0051C27.6516 35.2277 27.8724 35.4484 28.0949 35.671C27.9186 35.8864 27.7103 35.865 27.5359 35.6995C27.3365 35.509 27.251 35.2704 27.4291 35.0051Z" fill="#202020"/>
</svg>
