<svg width="179" height="34" viewBox="0 0 179 34" fill="none" xmlns="http://www.w3.org/2000/svg">
<path d="M108.51 17.9244C108.51 19.5525 108.102 21.0856 107.384 22.4305C107.614 21.6419 107.741 20.8094 107.741 19.9478C107.741 15.0484 103.746 11.0777 98.8185 11.0777C93.89 11.0777 89.8955 15.0494 89.8955 19.9478C89.8955 20.8104 90.0216 21.6429 90.2529 22.4305C89.5352 21.0856 89.1272 19.5525 89.1272 17.9244C89.1272 12.6037 93.4661 8.28978 98.8185 8.28978C104.171 8.28978 108.51 12.6027 108.51 17.9244ZM91.0639 19.9468C91.0639 15.6899 94.5352 12.2385 98.8185 12.2385C103.102 12.2385 106.573 15.6899 106.573 19.9468C106.573 21.1066 106.314 22.2053 105.852 23.191C105.961 22.6977 106.019 22.1843 106.019 21.659C106.019 17.7052 102.795 14.5 98.8185 14.5C94.8419 14.5 91.6178 17.7052 91.6178 21.659C91.6178 22.1853 91.6763 22.6977 91.7845 23.192C91.323 22.2053 91.0639 21.1066 91.0639 19.9468ZM92.7226 21.659C92.7226 18.3117 95.4514 15.5988 98.8185 15.5988C102.186 15.5988 104.914 18.3117 104.914 21.659C104.914 22.3634 104.792 23.0389 104.57 23.6683C104.595 23.4492 104.611 23.227 104.611 23.0009C104.611 19.7877 102.018 17.1839 98.8185 17.1839C95.6192 17.1839 93.0264 19.7887 93.0264 23.0009C93.0264 23.227 93.0422 23.4492 93.0671 23.6683C92.8447 23.0389 92.7226 22.3634 92.7226 21.659ZM94.0091 23.0009C94.0091 20.307 96.1622 18.1225 98.8185 18.1225C101.475 18.1225 103.628 20.307 103.628 23.0009C103.628 23.2941 103.6 23.5803 103.551 23.8585C103.433 21.3467 101.363 19.3454 98.8185 19.3454C96.2743 19.3454 94.2036 21.3467 94.0855 23.8585C94.0369 23.5793 94.0091 23.2931 94.0091 23.0009ZM101.171 24.675V21.0986C102.055 21.7941 102.624 22.8708 102.624 24.0816C102.624 25.4846 101.86 26.7074 100.727 27.3649C100.661 27.4039 100.593 27.4399 100.524 27.474C100.509 27.481 100.494 27.488 100.48 27.495C100.371 27.549 100.258 27.596 100.143 27.6391C100.106 27.6531 100.069 27.6671 100.032 27.6801C99.9789 27.6981 99.9243 27.7141 99.8707 27.7301C99.8032 27.7491 99.7347 27.7672 99.6662 27.7822C99.6226 27.7922 99.5789 27.8022 99.5352 27.8102C99.4439 27.8272 99.3516 27.8412 99.2582 27.8522C99.2255 27.8562 99.1937 27.8592 99.161 27.8622C99.0488 27.8722 98.9346 27.8792 98.8195 27.8792C98.7044 27.8792 98.5912 27.8722 98.478 27.8622C98.4453 27.8592 98.4135 27.8562 98.3807 27.8522C98.2874 27.8412 98.1951 27.8272 98.1038 27.8102C98.0591 27.8012 98.0154 27.7912 97.9718 27.7812C97.9033 27.7652 97.8348 27.7481 97.7673 27.7291C97.7137 27.7131 97.6591 27.6971 97.6065 27.6791C97.5687 27.6661 97.532 27.6521 97.4953 27.6381C97.3801 27.595 97.267 27.547 97.1568 27.493C97.1429 27.486 97.128 27.48 97.1141 27.472C97.0446 27.4369 96.9771 27.4009 96.9106 27.3619C95.777 26.7044 95.0136 25.4816 95.0136 24.0786C95.0136 22.8678 95.5834 21.7921 96.4669 21.0956V24.672H101.171V24.675ZM107.69 11.532H114.512L98.8185 2.1946L83.1246 11.532H89.9471C88.6358 13.3272 87.8606 15.5348 87.8606 17.9234C87.8606 20.203 88.5673 22.3174 89.7714 24.0666C89.7516 24.0376 89.7297 24.0106 89.7109 23.9816H83.1246L98.8185 33.319L114.512 23.9816H107.926C107.906 24.0106 107.884 24.0376 107.866 24.0666C109.07 22.3174 109.776 20.204 109.776 17.9234C109.776 15.5358 109.001 13.3282 107.69 11.532Z" fill="#010953"/>
<path d="M7.96106 6.1023V12.2965C7.96106 13.004 7.80819 13.6225 7.50246 14.1528C7.19672 14.6832 6.75399 15.0915 6.17626 15.3777C5.59755 15.6629 4.90567 15.806 4.10161 15.806C2.90546 15.806 1.97435 15.4917 1.31026 14.8633C0.646177 14.2349 0.313636 13.3703 0.313636 12.2705V6.1023H1.89692V12.1585C1.89692 12.948 2.08156 13.5314 2.45083 13.9067C2.82009 14.2829 3.38789 14.47 4.15323 14.47C5.64023 14.47 6.38373 13.6955 6.38373 12.1454V6.1023H7.96106Z" fill="#010953"/>
<path d="M16.2786 15.6749H14.7211V11.2228C14.7211 10.6644 14.6079 10.2471 14.3816 9.97194C14.1553 9.69675 13.7959 9.55966 13.3026 9.55966C12.6474 9.55966 12.168 9.75179 11.8642 10.1361C11.5605 10.5203 11.4096 11.1638 11.4096 12.0674V15.6749H9.85906V8.43289H11.0731L11.2905 9.38254H11.3699C11.5902 9.0373 11.9019 8.77112 12.3069 8.58399C12.712 8.39586 13.1606 8.3018 13.653 8.3018C15.403 8.3018 16.2786 9.1854 16.2786 10.9536V15.6749Z" fill="#010953"/>
<path d="M17.9522 6.51457C17.9522 6.23938 18.0286 6.02824 18.1795 5.87914C18.3314 5.73103 18.5478 5.65698 18.8297 5.65698C19.1026 5.65698 19.3141 5.73103 19.466 5.87914C19.6178 6.02824 19.6933 6.23938 19.6933 6.51457C19.6933 6.77575 19.6168 6.98289 19.466 7.133C19.3151 7.2831 19.1017 7.35915 18.8297 7.35915C18.5478 7.35915 18.3314 7.2841 18.1795 7.133C18.0276 6.98289 17.9522 6.77575 17.9522 6.51457ZM19.595 15.6749H18.0445V8.43289H19.595V15.6749Z" fill="#010953"/>
<path d="M23.0832 15.6749L20.3117 8.43291H21.9476L23.4326 12.6428C23.6877 13.3503 23.8416 13.9217 23.8942 14.358H23.9468C23.9865 14.0438 24.1404 13.4724 24.4084 12.6428L25.8934 8.43291H27.5432L24.7588 15.6749H23.0832Z" fill="#010953"/>
<path d="M31.4335 15.8049C30.2989 15.8049 29.4115 15.4767 28.7712 14.8203C28.1309 14.1628 27.8113 13.2582 27.8113 12.1064C27.8113 10.9236 28.1081 9.99296 28.7017 9.31749C29.2953 8.64103 30.1113 8.3018 31.1496 8.3018C32.1125 8.3018 32.8739 8.592 33.4327 9.17239C33.9916 9.75279 34.2705 10.5523 34.2705 11.569V12.4006H29.4075C29.4293 13.1031 29.6209 13.6435 29.9813 14.0217C30.3416 14.399 30.8498 14.5881 31.505 14.5881C31.9358 14.5881 32.3378 14.5471 32.7091 14.467C33.0803 14.386 33.4804 14.2519 33.9062 14.0648V15.3156C33.528 15.4937 33.1449 15.6208 32.7577 15.6949C32.3726 15.7689 31.9308 15.8049 31.4335 15.8049ZM31.1496 9.4676C30.6563 9.4676 30.2622 9.6227 29.9654 9.93192C29.6686 10.2421 29.4909 10.6934 29.4343 11.2868H32.7468C32.7379 10.6884 32.5929 10.2361 32.311 9.92791C32.0301 9.6217 31.643 9.4676 31.1496 9.4676Z" fill="#010953"/>
<path d="M39.329 8.3018C39.6417 8.3018 39.8988 8.32381 40.1013 8.36684L39.9494 9.80083C39.729 9.74879 39.5007 9.72177 39.2635 9.72177C38.643 9.72177 38.1407 9.92291 37.7556 10.3242C37.3704 10.7255 37.1789 11.2468 37.1789 11.8893V15.6739H35.6283V8.43289H36.8424L37.0468 9.70976H37.1262C37.3675 9.27747 37.6841 8.93423 38.0732 8.68106C38.4614 8.42888 38.8803 8.3018 39.329 8.3018Z" fill="#010953"/>
<path d="M45.9509 13.6124C45.9509 14.3199 45.6909 14.8613 45.1717 15.2396C44.6525 15.6178 43.909 15.8059 42.9412 15.8059C41.9694 15.8059 41.1882 15.6598 40.5985 15.3676V14.0377C41.4562 14.431 42.2543 14.6271 42.9938 14.6271C43.9488 14.6271 44.4262 14.3419 44.4262 13.7696C44.4262 13.5864 44.3736 13.4333 44.2684 13.3112C44.1622 13.1892 43.9895 13.0621 43.7472 12.931C43.505 12.7999 43.1685 12.6518 42.7377 12.4857C41.8969 12.1624 41.3291 11.8392 41.0323 11.517C40.7355 11.1938 40.5866 10.7745 40.5866 10.2601C40.5866 9.64072 40.8388 9.15938 41.342 8.81615C41.8453 8.47291 42.5302 8.3018 43.3978 8.3018C44.2555 8.3018 45.0675 8.47391 45.8328 8.81915L45.3315 9.97795C44.5443 9.65473 43.8822 9.49362 43.3452 9.49362C42.5273 9.49362 42.1183 9.72577 42.1183 10.1881C42.1183 10.4152 42.2245 10.6064 42.4379 10.7635C42.6514 10.9206 43.1169 11.1367 43.8336 11.4119C44.4362 11.6441 44.8739 11.8552 45.1469 12.0474C45.4199 12.2395 45.6224 12.4607 45.7544 12.7118C45.8844 12.963 45.9509 13.2632 45.9509 13.6124Z" fill="#010953"/>
<path d="M47.1423 6.51457C47.1423 6.23938 47.2187 6.02824 47.3696 5.87914C47.5215 5.73103 47.7379 5.65698 48.0198 5.65698C48.2927 5.65698 48.5042 5.73103 48.6561 5.87914C48.8079 6.02824 48.8834 6.23938 48.8834 6.51457C48.8834 6.77575 48.8069 6.98289 48.6561 7.133C48.5052 7.2831 48.2918 7.35915 48.0198 7.35915C47.7379 7.35915 47.5215 7.2841 47.3696 7.133C47.2187 6.98289 47.1423 6.77575 47.1423 6.51457ZM48.7861 15.6749H47.2356V8.43289H48.7861V15.6749Z" fill="#010953"/>
<path d="M53.0723 15.805C52.1621 15.805 51.4513 15.4777 50.9411 14.8233C50.4309 14.1688 50.1758 13.2492 50.1758 12.0664C50.1758 10.8796 50.4339 9.95494 50.951 9.29348C51.4682 8.63203 52.1839 8.3008 53.0991 8.3008C54.058 8.3008 54.7886 8.65204 55.2899 9.35552H55.3693C55.2949 8.83617 55.2572 8.42589 55.2572 8.12468V5.48587H56.8147V15.6749H55.6006L55.3306 14.7252H55.2582C54.7589 15.4457 54.0312 15.805 53.0723 15.805ZM53.4883 14.5611C54.1256 14.5611 54.5901 14.383 54.88 14.0277C55.1698 13.6715 55.3197 13.0941 55.3286 12.2955V12.0794C55.3286 11.1668 55.1788 10.5193 54.88 10.1341C54.5812 9.74979 54.1126 9.55766 53.4744 9.55766C52.9284 9.55766 52.5085 9.77781 52.2137 10.2161C51.9189 10.6554 51.772 11.2798 51.772 12.0924C51.772 12.896 51.9149 13.5074 52.2008 13.9287C52.4867 14.351 52.9155 14.5611 53.4883 14.5611Z" fill="#010953"/>
<path d="M63.1914 15.6749L62.8817 14.6672H62.8291C62.4767 15.1075 62.1233 15.4077 61.7669 15.5668C61.4106 15.7259 60.9529 15.806 60.3951 15.806C59.6774 15.806 59.1185 15.6138 58.7155 15.2306C58.3135 14.8463 58.112 14.3029 58.112 13.5994C58.112 12.8529 58.3909 12.2895 58.9498 11.9103C59.5086 11.531 60.3593 11.3239 61.5029 11.2889L62.7635 11.2488V10.8626C62.7635 10.4002 62.6544 10.054 62.437 9.82485C62.2196 9.5957 61.8821 9.48062 61.4244 9.48062C61.0502 9.48062 60.6919 9.53566 60.3494 9.64473C60.006 9.7538 59.6764 9.88289 59.3597 10.032L58.8584 8.93124C59.2545 8.7261 59.6873 8.56999 60.1578 8.46292C60.6283 8.35584 61.0731 8.30281 61.491 8.30281C62.4191 8.30281 63.1199 8.50394 63.5924 8.90522C64.0649 9.3065 64.3022 9.93793 64.3022 10.7975V15.6759H63.1914V15.6749ZM60.8815 14.6272C61.4443 14.6272 61.896 14.471 62.2374 14.1588C62.5779 13.8466 62.7487 13.4093 62.7487 12.8459V12.2175L61.8116 12.2575C61.081 12.2835 60.5499 12.4046 60.2184 12.6208C59.8868 12.8369 59.7201 13.1672 59.7201 13.6135C59.7201 13.9367 59.8163 14.1869 60.0099 14.363C60.2045 14.5381 60.4943 14.6272 60.8815 14.6272Z" fill="#010953"/>
<path d="M68.52 15.805C67.6098 15.805 66.899 15.4777 66.3888 14.8233C65.8786 14.1688 65.6234 13.2492 65.6234 12.0664C65.6234 10.8796 65.8815 9.95494 66.3987 9.29348C66.9159 8.63203 67.6316 8.3008 68.5468 8.3008C69.5058 8.3008 70.2364 8.65204 70.7376 9.35552H70.8171C70.7426 8.83617 70.7049 8.42589 70.7049 8.12468V5.48587H72.2624V15.6749H71.0483L70.7784 14.7252H70.7059C70.2066 15.4457 69.4789 15.805 68.52 15.805ZM68.935 14.5611C69.5723 14.5611 70.0368 14.383 70.3267 14.0277C70.6165 13.6715 70.7664 13.0941 70.7754 12.2955V12.0794C70.7754 11.1668 70.6255 10.5193 70.3267 10.1341C70.0279 9.74979 69.5594 9.55766 68.9211 9.55766C68.3751 9.55766 67.9552 9.77781 67.6604 10.2161C67.3656 10.6554 67.2187 11.2798 67.2187 12.0924C67.2187 12.896 67.3616 13.5074 67.6475 13.9287C67.9344 14.351 68.3632 14.5611 68.935 14.5611Z" fill="#010953"/>
<path d="M77.2594 15.8049C76.1248 15.8049 75.2374 15.4767 74.5971 14.8203C73.9569 14.1628 73.6372 13.2582 73.6372 12.1064C73.6372 10.9236 73.934 9.99296 74.5276 9.31749C75.1212 8.64103 75.9372 8.3018 76.9755 8.3018C77.9384 8.3018 78.6998 8.592 79.2586 9.17239C79.8175 9.75279 80.0964 10.5523 80.0964 11.569V12.4006H75.2334C75.2553 13.1031 75.4468 13.6435 75.8072 14.0217C76.1675 14.399 76.6758 14.5881 77.3309 14.5881C77.7617 14.5881 78.1637 14.5471 78.535 14.467C78.9062 14.386 79.3063 14.2519 79.7321 14.0648V15.3156C79.3539 15.4937 78.9708 15.6208 78.5836 15.6949C78.1985 15.7689 77.7568 15.8049 77.2594 15.8049ZM76.9765 9.4676C76.4832 9.4676 76.0891 9.6227 75.7923 9.93192C75.4955 10.2421 75.3178 10.6934 75.2612 11.2868H78.5737C78.5648 10.6884 78.4198 10.2361 78.1379 9.92791C77.856 9.6197 77.4689 9.4676 76.9765 9.4676Z" fill="#010953"/>
<path d="M2.64642 28.4129C2.11436 28.4129 1.6488 28.2628 1.25075 27.9616C0.852692 27.6604 0.544969 27.2171 0.326585 26.6327C0.109193 26.0473 0 25.3649 0 24.5833C0 23.3785 0.244194 22.4359 0.732581 21.7554C1.22097 21.0739 1.892 20.7337 2.74569 20.7337C3.1636 20.7337 3.52989 20.8167 3.84456 20.9829C4.15923 21.149 4.44611 21.4282 4.70519 21.8214H4.7578C4.67442 21.241 4.63273 20.6596 4.63273 20.0802V18.0959H7.2325V28.2849H5.28589L4.73199 27.3482H4.63273C4.18802 28.0577 3.52592 28.4129 2.64642 28.4129ZM3.70162 26.3896C4.11456 26.3896 4.4064 26.2605 4.57615 26.0023C4.74589 25.7451 4.83722 25.3478 4.85012 24.8105V24.6073C4.85012 23.9529 4.75582 23.4866 4.56622 23.2094C4.37662 22.9322 4.07982 22.7941 3.67581 22.7941C3.33731 22.7941 3.07426 22.9522 2.88764 23.2684C2.70102 23.5846 2.60771 24.0349 2.60771 24.6203C2.60771 25.1967 2.70201 25.635 2.89161 25.9363C3.07922 26.2395 3.35022 26.3896 3.70162 26.3896Z" fill="#010953"/>
<path d="M12.2176 28.4116C10.9728 28.4116 10.006 28.0834 9.31807 27.4269C8.62917 26.7695 8.28571 25.8348 8.28571 24.621C8.28571 23.3681 8.60435 22.4065 9.24263 21.737C9.87991 21.0666 10.7912 20.7313 11.9744 20.7313C13.1001 20.7313 13.9706 21.0235 14.5841 21.6049C15.1976 22.1883 15.5043 23.0269 15.5043 24.1227V25.2624H10.8924C10.9103 25.6777 11.0632 26.0019 11.351 26.2381C11.6389 26.4743 12.032 26.5914 12.5293 26.5914C12.982 26.5914 13.3989 26.5493 13.7791 26.4643C14.1592 26.3792 14.5722 26.2341 15.0169 26.029V27.8692C14.6119 28.0744 14.194 28.2165 13.7632 28.2945C13.3304 28.3726 12.8162 28.4116 12.2176 28.4116ZM12.0657 22.4725C11.762 22.4725 11.5079 22.5666 11.3034 22.7567C11.0989 22.9468 10.9788 23.2451 10.944 23.6503H13.1606C13.1517 23.2921 13.0495 23.0069 12.8539 22.7927C12.6583 22.5796 12.3953 22.4725 12.0657 22.4725Z" fill="#010953"/>
<path d="M22.3933 28.2805H19.8263V18.7079H25.5271V20.7834H22.3933V22.6106H25.2839V24.686H22.3933V28.2805Z" fill="#010953"/>
<path d="M33.6937 24.555C33.6937 25.7688 33.3651 26.7144 32.707 27.3929C32.0499 28.0724 31.1287 28.4106 29.9454 28.4106C28.8108 28.4106 27.9075 28.0644 27.2365 27.3699C26.5655 26.6764 26.2299 25.7378 26.2299 24.555C26.2299 23.3461 26.5585 22.4065 27.2166 21.736C27.8738 21.0656 28.7969 20.7303 29.9852 20.7303C30.7197 20.7303 31.3679 20.8854 31.9318 21.1957C32.4946 21.5059 32.9294 21.9492 33.2351 22.5276C33.5408 23.107 33.6937 23.7824 33.6937 24.555ZM28.8505 24.555C28.8505 25.1924 28.9359 25.6777 29.1076 26.011C29.2794 26.3452 29.5672 26.5123 29.9722 26.5123C30.3723 26.5123 30.6552 26.3452 30.82 26.011C30.9848 25.6777 31.0672 25.1914 31.0672 24.555C31.0672 23.9225 30.9838 23.4442 30.816 23.121C30.6482 22.7977 30.3624 22.6366 29.9584 22.6366C29.5623 22.6366 29.2784 22.7967 29.1067 23.118C28.9369 23.4392 28.8505 23.9175 28.8505 24.555Z" fill="#010953"/>
<path d="M39.2734 20.7303C39.4978 20.7303 39.7112 20.7483 39.9137 20.7834L40.0586 20.8094L39.8274 23.226C39.6159 23.174 39.3231 23.147 38.9498 23.147C38.387 23.147 37.978 23.2751 37.7229 23.5303C37.4678 23.7854 37.3407 24.1537 37.3407 24.634V28.2805H34.7608V20.8624H36.6806L37.0836 22.0472H37.2087C37.4241 21.654 37.7239 21.3367 38.1091 21.0946C38.4932 20.8524 38.8814 20.7303 39.2734 20.7303Z" fill="#010953"/>
<path d="M44.3578 26.3882C44.7052 26.3882 45.1211 26.3032 45.6046 26.133V27.9993C45.2571 28.1474 44.9256 28.2535 44.6109 28.3165C44.2963 28.3796 43.928 28.4106 43.5061 28.4106C42.6395 28.4106 42.0151 28.2005 41.632 27.7792C41.2498 27.3579 41.0582 26.7114 41.0582 25.8378V22.7797H40.1539V21.739L41.3024 20.9335L41.9685 19.3744H43.658V20.8614H45.4924V22.7797H43.658V25.6677C43.658 26.1481 43.8912 26.3882 44.3578 26.3882Z" fill="#010953"/>
<path d="M51.3957 28.2805L50.9004 27.2978H50.8478C50.5004 27.7261 50.146 28.0183 49.7856 28.1754C49.4253 28.3326 48.9588 28.4116 48.387 28.4116C47.6832 28.4116 47.1293 28.2025 46.7243 27.7832C46.3193 27.3639 46.1168 26.7755 46.1168 26.015C46.1168 25.2254 46.3937 24.637 46.9486 24.2507C47.5025 23.8645 48.3056 23.6473 49.3568 23.5993L50.6036 23.5593V23.4542C50.6036 22.8428 50.2998 22.5376 49.6933 22.5376C49.1474 22.5376 48.4555 22.7207 47.6147 23.0879L46.8692 21.3988C47.7408 20.9535 48.8396 20.7303 50.1688 20.7303C51.1277 20.7303 51.8702 20.9665 52.3954 21.4378C52.9215 21.9091 53.1835 22.5676 53.1835 23.4152V28.2805H51.3957ZM49.4819 26.6044C49.7946 26.6044 50.0616 26.5063 50.284 26.3102C50.5053 26.113 50.6165 25.8578 50.6165 25.5436V24.9672L50.0229 24.9933C49.1742 25.0243 48.7493 25.3335 48.7493 25.9229C48.7493 26.3772 48.9935 26.6044 49.4819 26.6044Z" fill="#010953"/>
<path d="M57.1136 28.2805H54.5336V18.0915H57.1136V28.2805Z" fill="#010953"/>
<path d="M62.1056 28.4116C60.8608 28.4116 59.8939 28.0834 59.206 27.4269C58.5171 26.7695 58.1737 25.8348 58.1737 24.621C58.1737 23.3681 58.4923 22.4065 59.1306 21.737C59.7679 21.0666 60.6791 20.7313 61.8624 20.7313C62.9881 20.7313 63.8586 21.0235 64.4721 21.6049C65.0855 22.1883 65.3923 23.0269 65.3923 24.1227V25.2624H60.7804C60.7983 25.6777 60.9511 26.0019 61.239 26.2381C61.5269 26.4743 61.92 26.5914 62.4173 26.5914C62.8699 26.5914 63.2868 26.5493 63.667 26.4643C64.0472 26.3792 64.4602 26.2341 64.9049 26.029V27.8692C64.4999 28.0744 64.082 28.2165 63.6512 28.2945C63.2184 28.3726 62.7042 28.4116 62.1056 28.4116ZM61.9537 22.4725C61.65 22.4725 61.3958 22.5666 61.1913 22.7567C60.9869 22.9468 60.8667 23.2451 60.832 23.6503H63.0486C63.0397 23.2921 62.9374 23.0069 62.7419 22.7927C62.5463 22.5796 62.2833 22.4725 61.9537 22.4725Z" fill="#010953"/>
<path d="M72.0668 28.2805H65.8776V26.8205L68.9717 22.8198H66.0553V20.8624H71.9209V22.4465L68.9578 26.3222H72.0658V28.2805H72.0668Z" fill="#010953"/>
<path d="M77.7776 28.2805L77.2822 27.2978H77.2296C76.8822 27.7261 76.5278 28.0183 76.1675 28.1754C75.8072 28.3326 75.3406 28.4116 74.7688 28.4116C74.065 28.4116 73.5111 28.2025 73.1061 27.7832C72.7011 27.3639 72.4986 26.7755 72.4986 26.015C72.4986 25.2254 72.7756 24.637 73.3305 24.2507C73.8844 23.8645 74.6874 23.6473 75.7387 23.5993L76.9854 23.5593V23.4542C76.9854 22.8428 76.6817 22.5376 76.0752 22.5376C75.5292 22.5376 74.8373 22.7207 73.9966 23.0879L73.2511 21.3988C74.1226 20.9535 75.2215 20.7303 76.5507 20.7303C77.5096 20.7303 78.2521 20.9665 78.7772 21.4378C79.3033 21.9091 79.5654 22.5676 79.5654 23.4152V28.2805H77.7776ZM75.8647 26.6044C76.1774 26.6044 76.4444 26.5063 76.6668 26.3102C76.8882 26.113 76.9993 25.8578 76.9993 25.5436V24.9672L76.4057 24.9933C75.557 25.0243 75.1321 25.3335 75.1321 25.9229C75.1321 26.3772 75.3763 26.6044 75.8647 26.6044Z" fill="#010953"/>
<path d="M138.614 19.3906H130.207V25.0921H140.074V28.6153H125.829V7.32979H140.045V10.8822H130.207V15.9551H138.614V19.3906Z" fill="#010953"/>
<path d="M154.64 24.2296H146.963L145.503 28.6153H140.847L148.758 7.32979H152.816L160.77 28.6153H156.114L154.64 24.2296ZM148.145 20.6771H153.458L150.787 12.7096L148.145 20.6771Z" fill="#010953"/>
<path d="M162.755 28.6153V7.32979H169.294C171.162 7.32979 172.831 7.75375 174.3 8.60166C175.779 9.43982 176.932 10.6386 177.759 12.198C178.586 13.7476 179 15.5117 179 17.4901V18.4696C179 20.4481 178.591 22.2072 177.774 23.7471C176.966 25.287 175.823 26.4809 174.344 27.3288C172.865 28.1767 171.196 28.6056 169.338 28.6153H162.755ZM167.134 10.8822V25.0921H169.25C170.963 25.0921 172.271 24.5317 173.176 23.4109C174.081 22.2901 174.544 20.6868 174.563 18.6012V17.4755C174.563 15.3119 174.115 13.6745 173.22 12.5635C172.325 11.4427 171.016 10.8822 169.294 10.8822H167.134Z" fill="#010953"/>
</svg>
