<svg width="26" height="27" viewBox="0 0 26 27" fill="none" xmlns="http://www.w3.org/2000/svg">
<path d="M21.0278 13.6454C21.0278 15.0578 20.6898 16.3877 20.0953 17.5544C20.2861 16.8703 20.3913 16.1481 20.3913 15.4007C20.3913 11.1505 17.0817 7.70598 13 7.70598C8.91746 7.70598 5.60866 11.1514 5.60866 15.4007C5.60866 16.149 5.71309 16.8712 5.90468 17.5544C5.31018 16.3877 4.97223 15.0578 4.97223 13.6454C4.97223 9.0298 8.56635 5.2875 13 5.2875C17.4336 5.2875 21.0278 9.02894 21.0278 13.6454ZM6.57647 15.3998C6.57647 11.707 9.45193 8.71295 13 8.71295C16.5481 8.71295 19.4235 11.707 19.4235 15.3998C19.4235 16.4059 19.2089 17.3591 18.8266 18.2141C18.9162 17.7862 18.9647 17.3408 18.9647 16.8851C18.9647 13.4553 16.294 10.6748 13 10.6748C9.70601 10.6748 7.03529 13.4553 7.03529 16.8851C7.03529 17.3417 7.08381 17.7862 7.17343 18.215C6.79108 17.3591 6.57647 16.4059 6.57647 15.3998ZM7.95047 16.8851C7.95047 13.9814 10.2109 11.628 13 11.628C15.7891 11.628 18.0495 13.9814 18.0495 16.8851C18.0495 17.4962 17.9484 18.0822 17.7642 18.6282C17.7848 18.4381 17.7979 18.2454 17.7979 18.0492C17.7979 15.2618 15.6502 13.003 13 13.003C10.3498 13.003 8.20209 15.2626 8.20209 18.0492C8.20209 18.2454 8.21524 18.4381 8.2358 18.6282C8.05161 18.0822 7.95047 17.4962 7.95047 16.8851ZM9.01613 18.0492C9.01613 15.7123 10.7996 13.8173 13 13.8173C15.2004 13.8173 16.9839 15.7123 16.9839 18.0492C16.9839 18.3035 16.9608 18.5518 16.9206 18.7931C16.8227 16.6143 15.1075 14.8781 13 14.8781C10.8925 14.8781 9.17729 16.6143 9.07944 18.7931C9.03915 18.5509 9.01613 18.3027 9.01613 18.0492ZM14.9488 19.5015V16.399C15.6806 17.0023 16.1526 17.9363 16.1526 18.9867C16.1526 20.2038 15.5194 21.2646 14.5812 21.8349C14.5261 21.8688 14.4702 21.9 14.4126 21.9295C14.4003 21.9356 14.388 21.9417 14.3765 21.9478C14.286 21.9946 14.1923 22.0354 14.0969 22.0728C14.0665 22.0849 14.0361 22.0971 14.0048 22.1083C13.9612 22.124 13.916 22.1379 13.8716 22.1518C13.8157 22.1682 13.7589 22.1839 13.7022 22.1969C13.666 22.2056 13.6299 22.2143 13.5937 22.2212C13.518 22.236 13.4416 22.2481 13.3643 22.2577C13.3371 22.2611 13.3108 22.2637 13.2837 22.2663C13.1908 22.275 13.0962 22.2811 13.0008 22.2811C12.9054 22.2811 12.8117 22.275 12.718 22.2663C12.6908 22.2637 12.6645 22.2611 12.6374 22.2577C12.5601 22.2481 12.4836 22.236 12.408 22.2212C12.371 22.2134 12.3348 22.2047 12.2986 22.196C12.2419 22.1821 12.1851 22.1674 12.1292 22.1509C12.0848 22.137 12.0396 22.1231 11.996 22.1075C11.9648 22.0962 11.9343 22.084 11.9039 22.0719C11.8085 22.0346 11.7148 21.9929 11.6235 21.946C11.612 21.9399 11.5997 21.9347 11.5882 21.9278C11.5306 21.8974 11.4747 21.8662 11.4196 21.8323C10.4806 21.262 9.84826 20.2012 9.84826 18.9841C9.84826 17.9337 10.3202 17.0005 11.0521 16.3964V19.4989H14.9488V19.5015ZM20.3486 8.10009H26L13 0L0 8.10009H5.65142C4.56521 9.65743 3.92302 11.5724 3.92302 13.6445C3.92302 15.622 4.50848 17.4563 5.50588 18.9737C5.48944 18.9485 5.47135 18.9251 5.45572 18.8999H0L13 27L26 18.8999H20.5443C20.5278 18.9251 20.5097 18.9485 20.4941 18.9737C21.4915 17.4563 22.077 15.6229 22.077 13.6445C22.077 11.5733 21.4348 9.6583 20.3486 8.10009Z" fill="#010953"/>
</svg>
