<svg width="40" height="40" viewBox="0 0 49 49" fill="none" xmlns="http://www.w3.org/2000/svg">
<path d="M16.1416 30.7367C16.367 31.4601 16.0879 32.1521 15.9962 32.8519C15.8572 33.9016 15.4837 34.8937 15.1325 35.8844C14.9255 36.4689 14.8141 37.0966 14.4589 37.6248C14.4353 37.6287 14.4117 37.6313 14.3882 37.6353C14.4117 37.6588 14.434 37.6811 14.4576 37.7047C14.4249 37.8633 14.3908 38.0219 14.358 38.1804C14.2755 38.2722 14.0894 38.2944 14.1601 38.4845C14.0959 38.7099 14.0317 38.9353 13.9675 39.162C13.9151 39.1764 13.8692 39.1961 13.8967 39.2655C13.8548 39.394 13.8128 39.5224 13.7709 39.6508C13.7185 39.6665 13.6726 39.6862 13.6988 39.757C13.5874 40.1252 13.3411 40.441 13.2821 40.829C13.2297 40.8434 13.1838 40.8643 13.2087 40.9338C13.1353 41.1278 13.0619 41.3217 12.9872 41.5157C12.9335 41.5301 12.8902 41.5524 12.9125 41.6205C12.906 41.6533 12.8994 41.6873 12.8916 41.7201C12.7684 41.7791 12.6753 41.8577 12.7173 42.015C12.2114 43.2141 11.6426 44.3817 11.0031 45.5166C10.9664 45.5822 10.952 45.6608 10.9271 45.7342C10.6742 45.7578 10.6047 45.9046 10.6558 46.1339C10.5366 46.2623 10.5366 46.4799 10.3426 46.5533C10.3203 46.5559 10.2968 46.5585 10.2745 46.5611C10.2968 46.5821 10.3203 46.6017 10.3426 46.6227C10.2784 46.7577 10.2142 46.8914 10.15 47.0264C9.9036 47.0015 9.94947 47.164 9.96781 47.3107C9.78827 47.5702 9.60873 47.8297 9.42133 48.0997C8.35196 47.063 7.38218 45.9596 6.43862 44.8326C5.89869 44.1878 5.29978 43.5915 4.97609 42.7934C5.34565 42.6283 5.40856 43.0018 5.53305 43.1617C6.56573 44.4813 7.79761 45.5992 9.0308 46.7197C9.23 46.9005 9.40954 47.0683 9.47375 46.6293C9.70964 46.2597 9.98223 45.9085 10.0543 45.4577C10.6204 44.8391 10.7463 43.9794 11.2534 43.3032C11.5483 42.91 11.602 42.2561 11.8196 41.7516C12.1184 41.0596 12.3569 40.3441 12.6937 39.6613C12.9754 39.0873 13.1327 38.4176 13.2637 37.7755C13.366 37.2709 13.8207 36.9407 13.8522 36.4637C13.8993 35.7599 14.1601 35.1217 14.3331 34.4599C14.7512 32.8676 15.0591 31.2662 14.9464 29.6123C14.9346 29.4302 15.143 29.2467 14.9425 29.0724C14.9491 28.56 14.78 28.0816 14.6621 27.5928C14.3226 26.1867 13.7264 24.9299 12.6019 23.9706C12.3464 23.5276 11.8798 23.1987 11.4985 23.0441C10.226 22.529 8.87616 22.1804 7.47654 22.4163C7.02703 22.4923 6.55787 22.4307 6.12671 22.6142C5.97863 22.5932 5.90393 22.685 5.84364 22.799C5.61168 22.9012 5.37972 23.0047 5.14645 23.107C5.0652 23.0952 4.98657 23.086 4.9525 23.1882C4.28021 23.7478 3.6551 24.3506 3.1689 25.0858C1.42199 27.7265 1.18479 30.5991 1.87149 33.6081C2.21485 35.1125 2.71808 36.5672 3.30519 37.993C3.27243 38.145 3.37465 38.2132 3.48211 38.2761C3.48604 38.4202 3.49915 38.5618 3.59743 38.6797C3.56598 38.8317 3.66689 38.8999 3.77697 38.9628C3.82415 39.3599 4.08887 39.6757 4.18978 40.0518C4.1544 40.2052 4.25793 40.2707 4.36539 40.3362C4.50562 40.8591 4.71792 41.3663 4.73889 41.9167C4.19634 41.8603 4.0417 41.3807 3.77173 41.0282C3.79794 41.0137 3.82415 40.998 3.84905 40.9836C3.82153 40.9731 3.79532 40.9626 3.7678 40.9521C2.86486 39.7517 2.25941 38.3967 1.64478 37.035C1.10616 35.8451 0.719558 34.6172 0.38931 33.3669C0.243844 32.8165 0.171766 32.2438 0.141624 31.6685C0.103619 31.0277 0.00795227 30.3895 8.92168e-05 29.7486C-0.00384231 29.4367 0.123277 29.1274 0.161282 28.8037C0.247775 28.0554 0.475804 27.332 0.716937 26.6126C1.21362 25.1278 1.9973 23.8343 3.15317 22.7793C3.80843 22.1804 4.58031 21.748 5.35614 21.326C5.45311 21.381 5.53699 21.4046 5.53436 21.2434C6.53297 21.0088 7.52765 20.7349 8.5695 20.8359C9.05963 20.8843 9.54583 20.9669 10.0346 21.0337C10.0713 21.1451 10.1552 21.1294 10.2404 21.1097C11.4094 21.3666 12.4289 21.9026 13.3332 22.6928C14.8508 24.0204 15.6829 25.7293 16.0879 27.6531C16.2858 28.5941 16.3854 29.5651 16.3107 30.5375C16.1665 30.5297 16.0918 30.5808 16.1403 30.7367H16.1416Z" fill="#202020"/>
<path d="M3.30126 37.9917C2.71415 36.5659 2.21091 35.1112 1.86756 33.6067C1.18085 30.5978 1.41806 27.7265 3.16496 25.0845C3.65116 24.3493 4.27627 23.7465 4.94856 23.1869C5.04161 23.2262 5.14121 23.2826 5.14252 23.1056C5.37448 23.0034 5.60644 22.8999 5.83971 22.7977C5.97338 22.7977 6.10705 22.7964 6.12278 22.6129C6.55394 22.4294 7.0231 22.491 7.4726 22.415C8.87223 22.1791 10.2234 22.5277 11.4946 23.0427C11.8759 23.1974 12.3425 23.5263 12.598 23.9693C12.328 23.9693 12.0961 23.8474 11.8536 23.7504C9.73847 22.8999 7.73602 23.1135 6.30101 24.9246C5.60644 25.8013 5.08093 26.7698 4.95512 27.91C4.58555 28.7133 4.46368 29.5573 4.55803 30.434C4.55541 30.9058 4.58949 31.3736 4.63404 31.8454C4.84372 34.0562 5.3522 36.1963 5.97993 38.3206C6.83701 41.2208 8.29953 43.8615 9.46851 46.6279C9.40429 47.0683 9.22475 46.9005 9.02556 46.7184C7.79237 45.5992 6.56049 44.48 5.52781 43.1603C5.40331 43.0018 5.34041 42.627 4.97084 42.7921C4.88697 42.5012 4.71267 42.2351 4.73364 41.9167C4.71267 41.3649 4.50037 40.8591 4.36015 40.3362C4.35884 40.2065 4.36408 40.0728 4.18454 40.0518C4.08363 39.6744 3.81891 39.3599 3.77173 38.9628C3.77042 38.8317 3.77173 38.6981 3.59219 38.6797C3.4939 38.5618 3.48211 38.4202 3.47686 38.2761C3.47555 38.145 3.47817 38.0114 3.29995 37.993L3.30126 37.9917Z" fill="#09CC61"/>
<path d="M46.029 1.49662C47.215 2.54502 47.869 3.87126 48.0918 5.42814C48.2844 6.77927 48.211 8.11599 47.9489 9.45271C47.717 10.6387 47.1626 11.6963 46.7 12.7906C46.5467 12.784 46.5283 12.7395 46.5729 12.577C46.7878 11.788 46.9909 10.9952 47.1705 10.1971C47.5322 8.59039 47.6331 6.97323 47.2124 5.3613C46.9923 4.51734 46.7315 3.67992 46.0343 3.07578C45.7486 2.5542 45.2637 2.2554 44.7762 1.96185C42.3347 0.610713 39.6613 1.41143 38.166 3.7022C37.0756 5.3731 36.9747 7.22223 37.2447 9.0897C37.4491 10.5064 37.9235 11.868 38.5093 13.1929C39.5027 15.4404 41.0753 17.2961 42.4749 19.271C42.7344 19.6367 42.8838 19.5567 42.9926 19.1767C43.028 19.1413 43.062 19.1059 43.0974 19.0718L43.0948 19.0771C43.5286 18.5476 43.8667 17.9645 44.0751 17.3092C44.3254 16.8794 44.5953 16.4639 44.7736 15.9908C45.1038 15.1115 45.5376 14.278 45.9936 13.4576C46.1299 13.2126 46.2649 12.9675 46.6017 12.9793C46.7813 13.8403 46.4667 14.603 46.1286 15.3618C46.1037 15.3657 46.0801 15.371 46.0552 15.3749C46.0788 15.3985 46.1024 15.4234 46.126 15.447C45.9504 16.4102 45.5337 17.2869 45.1484 18.1741C45.0291 18.4467 44.8902 18.7101 44.7591 18.9788C44.5115 18.9552 44.5626 19.1216 44.5796 19.2645C44.4577 19.3916 44.4617 19.6131 44.2664 19.6865C44.2402 19.693 44.214 19.6996 44.1865 19.7061C44.2127 19.7218 44.2389 19.7376 44.2651 19.7533C44.1091 20.2762 43.7134 20.6274 43.2979 20.9079C42.8655 21.1988 42.1591 20.9799 41.686 20.5697C41.1408 20.0967 40.7818 19.4781 40.365 18.9106C39.6744 17.9723 38.9366 17.0615 38.3573 16.0446C37.8554 15.1626 37.2381 14.3383 36.8764 13.3829C36.5305 12.4682 36.157 11.5495 35.9473 10.5994C35.4323 8.25884 35.3563 5.90648 36.4663 3.69696C37.44 1.75741 38.9785 0.404963 41.1762 0.0760256C42.9166 -0.184765 44.5521 0.21625 45.9203 1.42061C45.936 1.47434 45.9596 1.51758 46.0277 1.49793L46.029 1.49662Z" fill="#212020"/>
<path d="M46.0343 3.07443C46.7315 3.67989 46.9923 4.51599 47.2125 5.35996C47.6318 6.97188 47.5309 8.58905 47.1705 10.1957C46.991 10.9938 46.7879 11.7867 46.5729 12.5756C46.5284 12.7381 46.548 12.7827 46.7001 12.7892C46.6673 12.8521 46.6345 12.915 46.6018 12.9766C46.265 12.9648 46.1287 13.2099 45.9937 13.455C45.5376 14.2753 45.1039 15.1088 44.7736 15.9882C44.5967 16.4613 44.3254 16.8767 44.0751 17.3065C43.623 16.726 43.7147 16.1271 44.0227 15.5256C45.02 13.5808 45.7014 11.5246 46.1182 9.38453C46.4524 7.67038 46.4432 5.96541 45.8115 4.29976C45.6451 3.86074 45.7028 3.43482 46.033 3.07312L46.0343 3.07443Z" fill="#E02F05"/>
<path d="M35.0928 27.3071C33.705 27.4697 32.2884 27.3307 30.9163 27.6885C30.7629 27.7278 30.5913 27.7016 30.4274 27.6951C30.2715 27.6885 30.067 27.7632 29.9858 27.5784C29.8888 27.3583 30.1195 27.256 30.24 27.1656C31.8913 25.9364 33.709 25.5052 35.7324 26.0189C36.1897 26.1356 36.4112 26.3701 36.3182 26.8314C36.233 27.2534 35.8857 27.2967 35.5332 27.3045C35.3864 27.3072 35.2396 27.3045 35.0915 27.3045L35.0928 27.3071Z" fill="#202020"/>
<path d="M25.3414 38.9955C25.1684 40.5681 24.8486 42.0818 23.6613 43.2534C23.5814 43.3333 23.504 43.4316 23.4044 43.4735C23.1646 43.5758 22.8894 43.8457 22.6614 43.6308C22.4517 43.4329 22.7544 43.2036 22.8527 43.0109C23.238 42.2626 23.2826 41.4331 23.4844 40.6402C23.6626 39.9391 23.7753 39.2209 24.0531 38.5408C24.2143 38.1476 24.407 37.934 24.863 37.9838C25.209 38.0205 25.361 38.1647 25.3427 38.5054C25.3335 38.6679 25.3414 38.8317 25.3414 38.9942V38.9955Z" fill="#212121"/>
<path d="M25.053 33.3065C25.1618 31.7968 25.475 30.4522 26.2273 29.2348C26.568 28.6817 27.2534 28.7892 27.4604 29.1981C27.6059 29.4851 27.429 29.7799 27.3477 30.0303C26.8878 31.4469 26.4278 32.8649 25.838 34.2357C25.7437 34.4532 25.6611 34.7782 25.4016 34.7258C25.171 34.6786 25.1369 34.3471 25.1513 34.1086C25.171 33.7967 25.0976 33.5018 25.0543 33.3078L25.053 33.3065Z" fill="#212121"/>
<path d="M18.1519 47.6135C17.7391 47.6463 17.3604 47.527 16.9751 47.4195C16.8113 47.3737 16.7628 47.2531 16.73 47.1601C16.6789 47.0133 16.8244 46.9491 16.9489 46.8953C17.4705 46.6712 17.9999 46.4616 18.5097 46.2113C19.1191 45.9125 19.7115 45.5783 20.3104 45.2559C20.6773 45.0593 21.0233 45.1209 21.2461 45.4459C21.4505 45.7434 21.3352 46.0802 21.0849 46.3161C20.2619 47.0932 19.3026 47.5781 18.1519 47.6135Z" fill="#212121"/>
<path d="M39.9457 26.5195C39.8317 26.5195 39.7164 26.5247 39.6024 26.5182C39.4359 26.5077 39.3416 26.3832 39.2826 26.2561C39.2171 26.1171 39.3127 25.9966 39.4228 25.9232C40.2262 25.3859 40.7124 24.6061 41.137 23.7648C41.3348 23.3716 41.7529 23.4516 42.0897 23.4961C42.3767 23.5341 42.3924 23.8185 42.4055 24.0701C42.4711 25.2915 41.1514 26.5575 39.9457 26.5195Z" fill="#212121"/>
<path d="M13.5376 46.721C13.8496 46.721 14.0448 46.721 14.2401 46.721C14.5677 46.721 14.9098 46.7053 14.9517 47.16C15.0028 47.7039 14.8193 48.0394 14.3489 48.0813C13.4498 48.1613 12.5508 48.1783 11.7803 47.5545C11.6453 47.4457 11.5247 47.337 11.5313 47.1876C11.5378 47.0264 11.7344 46.9844 11.8576 46.9438C12.4394 46.7551 13.0397 46.6699 13.5376 46.721Z" fill="#212020"/>
<path d="M10.6519 46.1338C10.6021 45.9045 10.6716 45.7564 10.9232 45.7341C10.8983 45.9124 10.8708 46.088 10.6519 46.1338Z" fill="#FDFDFD"/>
<path d="M9.96387 47.3094C9.94552 47.1639 9.89966 47.0014 10.146 47.025C10.1434 47.1574 10.15 47.2937 9.96387 47.3094Z" fill="#FDFDFD"/>
<path d="M44.5783 19.2633C44.5626 19.1204 44.5102 18.954 44.7578 18.9776C44.7552 19.1086 44.7631 19.2476 44.5783 19.2633Z" fill="#FDFDFD"/>
<path d="M14.1562 38.4858C14.0855 38.2945 14.2729 38.2722 14.3541 38.1818C14.3607 38.3299 14.362 38.4753 14.1562 38.4858Z" fill="#FDFDFD"/>
<path d="M16.1416 30.7366C16.0918 30.5793 16.1678 30.5282 16.312 30.5374C16.4719 30.7877 16.2464 30.7117 16.1416 30.7366Z" fill="#FDFDFD"/>
<path d="M12.7133 42.015C12.6714 41.8577 12.7644 41.7804 12.8876 41.7201C12.8876 41.8525 12.9047 41.9953 12.7133 42.015Z" fill="#FDFDFD"/>
<path d="M10.2404 21.1097C10.1552 21.1294 10.0714 21.1451 10.0347 21.0337C10.1251 21.0023 10.2326 20.921 10.2404 21.1097Z" fill="#FDFDFD"/>
<path d="M5.53309 21.2434C5.53571 21.4046 5.45184 21.381 5.35486 21.326C5.36141 21.1831 5.45839 21.2382 5.53309 21.2434Z" fill="#212121"/>
<path d="M46.1247 15.447C46.1011 15.4234 46.0775 15.3985 46.054 15.3749C46.0789 15.371 46.1024 15.3657 46.1273 15.3618C46.1273 15.3906 46.1273 15.4195 46.1234 15.447H46.1247Z" fill="#FDFDFD"/>
<path d="M14.455 37.7047C14.4314 37.6811 14.4091 37.6588 14.3855 37.6352C14.4091 37.6313 14.4327 37.6287 14.4563 37.6248C14.4563 37.651 14.4563 37.6772 14.4536 37.7047H14.455Z" fill="#FDFDFD"/>
<path d="M44.2652 19.7532C44.2389 19.7375 44.2127 19.7218 44.1865 19.7061C44.2127 19.6995 44.2389 19.693 44.2665 19.6864C44.2665 19.7087 44.2665 19.731 44.2665 19.7532H44.2652Z" fill="#FDFDFD"/>
<path d="M13.8928 39.2667C13.8653 39.1973 13.9111 39.1776 13.9635 39.1632C13.9399 39.1973 13.9164 39.2327 13.8928 39.2667Z" fill="#FDFDFD"/>
<path d="M13.6936 39.7569C13.6674 39.6875 13.7132 39.6665 13.7657 39.6508C13.7421 39.6861 13.7172 39.7215 13.6936 39.7569Z" fill="#FDFDFD"/>
<path d="M13.2035 40.9337C13.1786 40.8642 13.2245 40.8446 13.2769 40.8289C13.252 40.8642 13.2284 40.8983 13.2035 40.9337Z" fill="#FDFDFD"/>
<path d="M3.76392 40.9521C3.79144 40.9626 3.81765 40.9731 3.84517 40.9836C3.81896 40.998 3.79275 41.0137 3.76785 41.0282C3.76785 41.0033 3.76785 40.977 3.76523 40.9521H3.76392Z" fill="#FDFDFD"/>
<path d="M12.9086 41.6205C12.885 41.551 12.9295 41.53 12.9833 41.5156C12.9584 41.551 12.9335 41.5864 12.9086 41.6205Z" fill="#FDFDFD"/>
<path d="M46.0291 1.49663C45.9609 1.51629 45.9374 1.47304 45.9216 1.41931C45.957 1.44552 45.9937 1.47042 46.0291 1.49663Z" fill="#FDFDFD"/>
<path d="M10.3387 46.6227C10.3164 46.6017 10.2928 46.5821 10.2705 46.5611C10.2928 46.5585 10.3164 46.5558 10.3387 46.5532C10.3387 46.5768 10.3387 46.5991 10.3387 46.6227Z" fill="#FDFDFD"/>
<path d="M9.46848 46.628C8.29819 43.8615 6.83698 41.2208 5.9799 38.3207C5.35217 36.1963 4.84369 34.0563 4.63401 31.8454C4.58946 31.3737 4.55538 30.9071 4.558 30.434C4.92101 31.2819 5.37052 32.0669 6.16338 32.5924C7.5381 33.5019 8.98883 34.0602 10.6309 33.3814C12.7788 32.4941 13.1654 30.552 12.8037 28.577C12.5403 27.1407 11.4893 25.6402 9.27059 25.458C8.50394 25.3951 7.74909 25.5707 7.17902 26.184C7.00079 26.3754 6.9392 26.5667 7.10432 26.7934C6.84615 26.897 6.58798 27.0005 6.32981 27.1027C5.70339 27.0844 5.36528 27.5601 4.95378 27.9087C5.07959 26.7685 5.6051 25.8001 6.29967 24.9233C7.73467 23.1122 9.73713 22.8986 11.8523 23.7491C12.0934 23.8461 12.3267 23.9693 12.5967 23.968C13.7211 24.926 14.3174 26.184 14.6568 27.5902C14.7747 28.079 14.9438 28.5574 14.9372 29.0698C14.4196 29.2821 14.2702 29.7552 14.1732 30.2283C14.0408 30.877 13.9845 31.5414 13.8613 32.1927C13.1484 35.9958 11.9886 39.6574 10.2574 43.1224C9.86949 43.8982 9.70306 44.6399 10.049 45.4551C9.97564 45.9059 9.70437 46.2571 9.46848 46.6267V46.628Z" fill="#00A651"/>
<path d="M10.0504 45.4563C9.70573 44.6412 9.87216 43.9008 10.2588 43.1236C11.9899 39.6586 13.1497 35.9984 13.8627 32.194C13.9845 31.5427 14.0409 30.8782 14.1746 30.2295C14.2715 29.7564 14.4209 29.282 14.9386 29.071C15.1404 29.2453 14.9307 29.4288 14.9425 29.611C15.0552 31.2648 14.7459 32.8663 14.3292 34.4585C14.1562 35.1203 13.8954 35.7586 13.8482 36.4623C13.8168 36.9393 13.362 37.2696 13.2598 37.7741C13.1301 38.415 12.9728 39.0859 12.6898 39.6599C12.3543 40.3427 12.1158 41.0583 11.8156 41.7502C11.5968 42.2548 11.5444 42.9087 11.2495 43.3019C10.741 43.9794 10.6165 44.8378 10.0504 45.4563Z" fill="#02913F"/>
<path d="M3.30129 37.9917C3.48083 38.0114 3.47689 38.145 3.4782 38.2748C3.37074 38.2106 3.26721 38.1437 3.30129 37.9917Z" fill="#0BBF5C"/>
<path d="M3.59347 38.6783C3.77301 38.6967 3.7717 38.8304 3.77301 38.9614C3.66293 38.8985 3.56333 38.8291 3.59347 38.6783Z" fill="#0BBF5C"/>
<path d="M4.1859 40.0518C4.36544 40.0727 4.3602 40.2064 4.36151 40.3361C4.25536 40.2706 4.15052 40.2051 4.1859 40.0518Z" fill="#0BBF5C"/>
<path d="M6.12279 22.6142C6.10707 22.7976 5.97339 22.7976 5.83972 22.799C5.90132 22.6863 5.9747 22.5932 6.12279 22.6142Z" fill="#0BBF5C"/>
<path d="M5.1425 23.107C5.1425 23.2852 5.04159 23.2288 4.94855 23.1882C4.98131 23.086 5.06125 23.0952 5.1425 23.107Z" fill="#0BBF5C"/>
<path d="M7.107 26.7947C6.94187 26.568 7.00347 26.3766 7.1817 26.1853C7.75177 25.572 8.50531 25.3964 9.27327 25.4593C11.492 25.6414 12.543 27.142 12.8064 28.5783C13.1681 30.5519 12.7815 32.4941 10.6336 33.3826C8.9902 34.0615 7.53947 33.5045 6.16605 32.5937C5.3732 32.0682 4.92369 31.2832 4.56068 30.4353C4.46763 29.5586 4.5882 28.7146 4.95776 27.9112C5.36926 27.5626 5.70738 27.0856 6.3338 27.1053C6.284 27.1682 6.24075 27.2376 6.18309 27.2914C5.06523 28.3437 5.03771 30.0867 6.20668 31.1652C7.09127 31.9817 8.1305 32.2949 9.327 32.2202C9.83941 32.1887 10.2444 32.0079 10.6178 31.6868C11.3203 31.084 11.4474 30.2937 11.4264 29.4223C11.3963 28.1707 10.281 26.6925 8.74906 26.7016C8.19734 26.7043 7.66134 26.8943 7.10831 26.7934L7.107 26.7947Z" fill="#202221"/>
<path d="M42.9939 19.1767C42.8852 19.5568 42.7344 19.6367 42.4763 19.2711C41.0767 17.2961 39.504 15.4405 38.5107 13.1929C37.9249 11.868 37.4505 10.5064 37.246 9.08973C36.9761 7.22226 37.077 5.37313 38.1673 3.70224C39.6626 1.41016 42.336 0.609437 44.7775 1.96188C44.7068 2.34193 44.4551 2.58175 44.159 2.80061C43.7003 3.13741 43.1839 2.97097 42.6951 2.97884C41.2352 3.00111 40.0178 3.90536 39.6246 5.29712C39.584 5.44128 39.4975 5.5815 39.7242 5.64179C39.6783 5.706 39.6338 5.77022 39.5879 5.83443C39.4752 5.86588 39.4634 5.95238 39.4713 6.04936C39.1843 6.73868 39.0624 7.44243 39.2708 8.17893C39.2682 8.29032 39.2485 8.40696 39.3691 8.47642L39.3664 8.47248C39.3651 8.50656 39.3625 8.54194 39.3612 8.57601C39.3638 8.72279 39.3468 8.87219 39.3743 9.01503C39.9273 11.944 40.8735 14.7288 42.5339 17.2241C42.9258 17.8125 43.1617 18.3825 43.0975 19.0771L43.1001 19.0719C43.0647 19.1073 43.0306 19.1426 42.9952 19.1767H42.9939Z" fill="#FF7150"/>
<path d="M43.0948 19.0771C43.159 18.3825 42.9231 17.8125 42.5313 17.2241C40.8709 14.7289 39.926 11.9427 39.3717 9.01504C39.3454 8.8735 39.3625 8.72279 39.3586 8.57602H39.4005H39.4424C39.5709 8.83812 39.6508 9.14347 39.8382 9.35315C40.8997 10.5496 42.4029 11.3687 44.1511 10.7331C44.7225 10.5247 45.248 10.1355 45.4812 9.65194C45.9425 8.69789 46.1915 7.65735 45.9452 6.55521C45.628 5.132 44.9702 4.00103 43.4657 3.62623C42.7174 3.44014 41.9678 3.53318 41.3925 4.14126C41.2431 4.29983 41.0032 4.48723 41.2588 4.75457C41.1081 4.90397 40.8512 4.85548 40.7215 5.0442C40.2418 4.99702 40.0138 5.3692 39.7242 5.64048C39.4988 5.58019 39.584 5.43997 39.6246 5.29581C40.0177 3.90405 41.2352 2.9998 42.6951 2.97753C43.1839 2.96966 43.7016 3.13741 44.1589 2.7993C44.4551 2.58175 44.7067 2.34062 44.7775 1.96057C45.265 2.25413 45.7499 2.55292 46.0356 3.0745C45.7053 3.43751 45.6464 3.86212 45.8141 4.30114C46.4458 5.96679 46.4536 7.67177 46.1208 9.38591C45.704 11.526 45.0226 13.5822 44.0253 15.527C43.7173 16.1285 43.6256 16.7274 44.0777 17.3079C43.8693 17.9632 43.5312 18.545 43.0974 19.0758L43.0948 19.0771Z" fill="#F15A29"/>
<path d="M42.9939 19.1766C43.0293 19.1412 43.0634 19.1059 43.0987 19.0718C43.0634 19.1072 43.0293 19.1425 42.9939 19.1766Z" fill="#F15A29"/>
<path d="M7.10698 26.7947C7.66002 26.8943 8.19602 26.7055 8.74774 26.7029C10.2797 26.6937 11.395 28.172 11.4251 29.4235C11.4461 30.295 11.3203 31.0853 10.6165 31.6881C10.243 32.0092 9.83677 32.1887 9.32568 32.2215C8.13049 32.2962 7.08995 31.983 6.20535 31.1665C5.03638 30.088 5.06521 28.345 6.18177 27.2927C6.23943 27.2389 6.28268 27.1682 6.33247 27.1066C6.59064 27.003 6.84881 26.8995 7.10698 26.7973V26.7947Z" fill="white"/>
<path d="M41.2575 4.75464C41.0019 4.48598 41.2417 4.29858 41.3911 4.14132C41.9664 3.53324 42.716 3.4402 43.4643 3.62629C44.9701 4.00109 45.6267 5.13206 45.9438 6.55527C46.1889 7.65741 45.9412 8.69796 45.4799 9.65201C45.2453 10.1356 44.7211 10.5248 44.1497 10.7332C42.4015 11.3688 40.8984 10.5497 39.8369 9.35321C39.6508 9.14353 39.5708 8.83818 39.4424 8.57608C39.4162 8.54201 39.3913 8.50662 39.3651 8.47255L39.3677 8.47648C39.3611 8.36902 39.3913 8.24845 39.2694 8.17899C39.0597 7.4438 39.1829 6.73875 39.4699 6.04942C39.5092 5.97734 39.5472 5.90526 39.5866 5.83449C39.6324 5.77028 39.677 5.70606 39.7228 5.64185C40.0125 5.37057 40.2418 4.99839 40.7201 5.04557C40.69 5.0993 40.6651 5.15696 40.6271 5.20545C39.3035 6.92615 40.2982 8.94433 42.1093 9.51309C43.0528 9.80927 44.058 9.35059 44.324 8.44634C44.5783 7.5814 44.5586 6.70729 44.1471 5.87774C43.7094 4.99446 43.0017 4.67207 42.0084 4.83458C41.7699 4.87389 41.4894 4.94073 41.2575 4.75595V4.75464Z" fill="#222120"/>
<path d="M39.2695 8.17761C39.3914 8.24707 39.3612 8.36764 39.3678 8.4751C39.2472 8.40564 39.2669 8.28769 39.2695 8.17761Z" fill="#EE5929"/>
<path d="M39.5866 5.83301C39.5473 5.90509 39.5093 5.97585 39.47 6.04793C39.4621 5.95095 39.4726 5.86446 39.5866 5.83301Z" fill="#EE5929"/>
<path d="M39.3651 8.47119C39.3913 8.50526 39.4175 8.54065 39.4424 8.57472H39.4005H39.3585C39.3598 8.54065 39.3625 8.50526 39.3638 8.47119H39.3651Z" fill="#EE5929"/>
<path d="M41.2575 4.75452C41.4894 4.94061 41.7699 4.87246 42.0084 4.83315C43.0017 4.66933 43.7094 4.99303 44.1471 5.87631C44.5586 6.70586 44.5783 7.57997 44.324 8.44491C44.058 9.34916 43.0515 9.80784 42.1093 9.51166C40.2995 8.9429 39.3035 6.92472 40.6271 5.20402C40.6638 5.15553 40.6887 5.09787 40.7201 5.04414C40.8499 4.85543 41.1067 4.90391 41.2575 4.75452Z" fill="white"/>
</svg>
