<svg width="74" height="74" viewBox="0 0 74 74" fill="none" xmlns="http://www.w3.org/2000/svg">
<path d="M46.8167 45.3954C46.1418 45.6758 45.4549 45.9161 44.7178 45.9822C44.7018 45.8861 44.6738 45.7619 44.5636 45.7839C44.3654 45.824 44.4415 46.0103 44.4194 46.1424C42.1323 46.6331 39.8171 46.6972 37.4919 46.6431C37.3537 46.6391 37.2155 46.7072 37.0773 46.7433C37.0613 46.5851 37.1114 46.3808 36.875 46.3487C36.6848 46.3227 36.6447 46.4729 36.6247 46.6231C34.3235 46.5911 32.1165 46.0403 29.9375 45.3734C28.5976 44.9648 27.2417 44.5843 25.986 43.9394C25.97 43.8032 26.0361 43.615 25.8698 43.5589C25.6976 43.5008 25.7116 43.683 25.6796 43.7892C24.0053 43.2344 22.6053 42.1469 21.0332 41.3919C21.0192 41.0875 21.0472 40.721 20.5846 41.0915C20.3743 41.0915 20.2241 40.9913 20.1299 40.8071C20.1059 40.6188 20.1079 40.3845 19.8355 40.6429C19.3168 40.4386 18.8662 40.1301 18.4696 39.7396C18.5538 39.6755 18.6339 39.5834 18.5377 39.5013C18.4076 39.3891 18.2574 39.4612 18.1232 39.5313L18.0891 39.5053C18.1412 39.3911 18.2053 39.269 18.0571 39.1828C17.9249 39.1047 17.8228 39.1768 17.7406 39.285C17.3601 39.0607 16.9395 38.8964 16.6632 38.5259C16.6912 38.4198 16.6351 38.3877 16.541 38.3877C16.525 38.3357 16.5089 38.2816 16.4929 38.2295C16.4829 38.1895 16.4749 38.1514 16.4649 38.1114C16.4428 38.1514 16.4208 38.1895 16.3988 38.2295C15.7879 38.1574 15.4515 37.6647 15.0129 37.3263C15.0409 37.2201 14.9848 37.1861 14.8907 37.1861C14.8587 37.0739 14.7625 37.0659 14.6704 37.0279C13.7451 36.6273 13.6991 36.6033 13.2565 37.6447C12.7638 38.8023 11.9767 39.7296 11.1516 40.6409C11.1275 40.5227 11.1235 40.3605 10.9553 40.3865C10.775 40.4165 10.6388 40.5527 10.6108 40.733C10.5848 40.9032 10.747 40.9052 10.8652 40.9293C9.46322 42.4013 7.68878 43.2444 5.7461 43.5749C4.62856 43.7652 3.38084 43.9014 2.29734 43.2004C2.24527 42.8118 2.1231 42.5615 1.70052 42.894C1.05963 42.6316 0.66509 42.1289 0.362673 41.5341C0.398723 41.498 0.43277 41.462 0.46882 41.4259C0.43277 41.4079 0.39672 41.3899 0.360671 41.3739C-0.236152 40.5047 0.0462371 39.5694 0.230491 38.6781C0.450795 37.6147 1.04962 36.6774 1.43816 35.674C2.13912 33.8575 2.96026 32.0891 3.52503 30.2165C4.11785 28.2558 3.84147 26.4253 3.05038 24.6107C3.22863 24.2663 3.31675 23.9679 2.74396 23.9999C2.14513 22.6641 1.53829 21.3362 1.27193 19.8722C1.04962 18.6605 2.07704 17.1264 3.32276 16.79C5.10121 16.3073 6.40901 17.1585 7.53857 18.294C9.42517 20.1927 11.0374 22.3196 12.3452 24.6648C12.6296 25.1755 12.946 25.6682 13.1082 26.239C12.9721 26.245 12.8519 26.279 12.7898 26.4172C11.7944 25.1595 10.7991 23.9018 9.80369 22.644L9.6675 22.4978C8.62407 21.4304 7.59865 20.3429 6.52517 19.3074C6.1106 18.9069 5.62994 18.5404 5.00908 18.4743C4.63657 18.1919 4.21799 18.3101 3.80943 18.3341C3.58912 18.284 3.50901 18.3962 3.503 18.5965C3.2807 18.8148 3.24865 19.0871 3.19658 19.3855C3.03236 20.3349 3.59914 21.0699 3.85749 21.895C3.7894 22.1313 3.91357 22.2515 4.11385 22.3276C4.2941 22.648 4.46834 22.9725 4.65459 23.2889C6.3249 26.1168 6.43905 29.0549 5.28146 32.0851C5.07117 32.1251 4.93097 32.1912 5.17331 32.3915C5.14927 32.738 4.99306 33.0444 4.88291 33.3668C4.48636 34.5124 3.79741 35.5358 3.50501 36.7215C3.36081 36.7755 3.18056 36.7996 3.24465 37.0299C3.23463 37.134 3.22462 37.2402 3.21461 37.3443C3.16854 37.5346 2.65383 37.3824 2.89416 37.7829C2.83008 38.1895 2.7059 38.574 2.5577 38.9605C2.049 40.2683 2.52766 41.1696 3.80943 41.3739C3.86751 41.5181 3.98166 41.5201 4.10784 41.498C5.32752 41.6863 6.42503 41.1716 7.5606 40.8872C7.65873 40.9172 7.69078 40.8552 7.71081 40.779C7.75887 40.767 7.80894 40.757 7.85701 40.745C7.95114 40.763 7.98919 40.723 7.97517 40.6308C8.23353 40.4766 8.49188 40.3244 8.75024 40.1702C8.84837 40.3064 8.97855 40.3785 9.11474 40.2463C9.20086 40.1622 9.12476 40.0741 9.03663 40.018C9.09071 39.9699 9.14278 39.9219 9.19686 39.8758C9.55735 39.8718 9.70222 39.769 9.63146 39.5674C10.4386 38.6721 11.2437 37.7769 12.0508 36.8797C12.4734 36.8977 12.5975 36.7114 12.4333 36.3249C12.5194 36.1106 12.6056 35.8963 12.6917 35.682C12.8199 35.662 12.9921 35.7281 13.0402 35.5478C13.0702 35.4417 12.962 35.4036 12.8699 35.3816C12.4774 35.0632 12.2731 34.6165 12.0368 34.188C12.175 34.0938 12.2511 33.9697 12.1309 33.8255C12.0528 33.7333 11.9607 33.7974 11.9006 33.8875C11.3598 33.2246 11.2377 32.4556 11.3238 31.6344C11.4199 31.6204 11.5341 31.6104 11.5401 31.4902C11.5441 31.3661 11.4299 31.352 11.3338 31.336C11.3338 31.1858 11.3298 31.0356 11.3278 30.8854C11.8165 30.8534 11.8906 30.6471 11.5841 30.2786C11.7464 29.86 11.8665 29.4214 12.183 29.0809C12.3772 29.0549 12.5835 29.0349 12.3392 28.7825C12.3833 28.7304 12.4293 28.6804 12.4734 28.6283C12.6616 28.6083 12.8819 28.6063 12.6436 28.3359C12.7397 28.2277 12.8379 28.1196 12.934 28.0114C13.5108 28.2217 13.1323 27.721 13.2484 27.5889C13.2945 27.4907 13.3386 27.3926 13.3846 27.2924C13.5408 27.2904 13.665 27.2424 13.7111 27.0761C14.0536 26.7417 14.398 26.4072 14.7405 26.0748C15.127 26.3231 15.0069 25.9746 15.0469 25.8144C15.7038 25.2476 16.3627 24.6849 17.1418 24.2863C17.2239 24.3945 17.3241 24.4665 17.4582 24.3884C17.6065 24.3003 17.5384 24.1802 17.4843 24.068L17.5243 24.038C17.6665 24.104 17.8147 24.2062 17.9529 24.052C18.039 23.9558 17.9349 23.8938 17.8728 23.8357C18.1392 23.6955 18.3074 23.3931 18.6439 23.369C18.9183 23.4391 19.1245 23.361 19.2427 23.0947C19.8876 22.6881 20.4544 22.1534 21.1854 21.885C21.8583 22.1353 22.9558 21.5706 23.1401 20.8796C24.2636 20.3689 25.4012 19.8962 26.5688 19.4977C26.6229 19.4616 26.679 19.4256 26.733 19.3875C28.1009 18.9289 29.5069 18.5985 30.8567 18.0677C31.4015 17.8534 32.0704 17.9756 32.6873 17.8775C34.1933 17.6411 35.7194 17.4449 37.2455 17.565C39.9092 17.7733 42.5288 18.1859 45.0984 18.997C48.3268 20.0164 51.2428 21.5866 53.9586 23.5533C55.3385 24.5527 56.7364 25.5601 57.7939 26.938C57.4794 27.0421 57.3332 27 56.8586 26.6135C54.5975 24.777 52.1761 23.2028 49.5305 21.9591C47.7721 21.132 46.0076 20.3669 44.101 19.9643C43.408 19.8181 42.7531 19.5057 42.0261 19.5117C41.7317 19.5137 41.3632 19.4216 41.2911 19.8241C40.9847 21.5505 40.3198 23.2268 40.3899 25.0053C40.462 26.8598 40.2096 28.7164 40.506 30.573C40.6683 31.5844 40.7864 32.6018 41.0848 33.5851C40.5881 33.9857 40.9246 34.234 41.2491 34.4844C41.7377 36.2488 42.5188 37.8991 43.2438 39.5694C42.9254 40 43.3159 39.9559 43.5462 40.02C44.0409 40.767 44.5336 41.5121 45.0283 42.2591C44.9862 42.5996 45.1304 42.7598 45.4769 42.7237C45.6712 42.936 45.8674 43.1483 46.0617 43.3606C46.0937 43.4788 46.1278 43.5989 46.28 43.6009C46.4783 43.6049 46.5023 43.4607 46.5103 43.3085L46.5043 43.3165C46.5584 43.2785 46.6124 43.2384 46.6665 43.2004C46.9149 43.1363 47.1632 43.0722 47.4116 43.0081C47.7861 43.3165 47.9904 43.2304 48.0184 42.7438C48.6172 42.4874 49.216 42.231 49.8149 41.9747C50.3316 42.3512 50.8223 42.1229 51.0145 41.4179C52.805 40.5147 54.3852 39.325 55.8031 37.9131C55.8272 38.1935 55.9593 38.2275 56.1957 38.1114C56.7244 37.855 56.9427 37.4444 56.8506 36.8657C57.169 36.3489 57.6877 36.0205 58.0763 35.5578C58.7832 34.7107 59.3821 33.7453 59.7185 32.78C60.047 31.8367 60.1091 30.6331 59.326 29.6517C59.0516 29.3072 58.8653 28.8326 58.9795 28.3319C59.0236 28.3379 59.0656 28.3319 59.1057 28.3119C61.3608 29.3232 61.8835 31.7626 60.8941 34.0778C60.4375 35.1453 59.8167 36.1246 59.1097 37.0479C58.641 36.7875 58.8714 37.2121 58.8113 37.3523C58.1063 38.4238 57.2331 39.3471 56.2678 40.1882C55.9734 40.4446 55.6669 40.6829 55.3645 40.9293C55.3305 40.8952 55.2944 40.8592 55.2604 40.8251C55.2544 40.8612 55.2504 40.8972 55.2444 40.9333C54.4513 41.9527 53.2877 42.4493 52.2102 43.0662C52.104 43.0662 51.9618 42.9861 51.9438 43.1844C51.1127 43.9134 50.0532 44.1637 49.0618 44.5583C48.9497 44.5522 48.8035 44.4701 48.7915 44.6804C48.5832 44.9067 48.3148 44.9848 48.0184 44.9929C47.4516 44.6484 47.1111 44.9628 46.8127 45.4034L46.8167 45.3954ZM40.0694 38.2335L39.9633 38.0813C39.6649 37.2942 39.6288 36.423 39.2002 35.678C39.6068 35.2434 39.4946 34.8529 38.8998 34.6286C38.8197 34.1819 38.9699 33.6512 38.8217 33.3007C38.4011 32.3074 38.4172 31.306 38.4512 30.2826C38.5473 30.2665 38.6615 30.2545 38.6615 30.1324C38.6615 30.0102 38.5453 29.9982 38.4492 29.9842C38.5393 28.8706 38.3811 27.7691 38.6334 26.6255C38.8037 25.8585 38.8678 24.9732 38.9138 24.1341C38.9479 24.08 38.9819 24.0239 39.016 23.9699C39.07 23.347 39.1942 22.7442 39.5087 22.1934C39.6829 22.1854 39.8732 22.1994 39.9092 21.9611C39.9393 21.7608 39.8712 21.6206 39.6488 21.5926C39.9393 20.8476 40.2417 20.1085 40.7544 19.3034C40.2717 19.4496 39.9833 19.1753 39.6308 19.1933C37.5379 19.3074 35.437 19.005 33.3422 19.4657C31.9843 19.7641 30.6284 20.0645 29.2826 20.409C27.7484 20.8035 26.2944 21.4584 24.8164 21.9951C23.9612 22.3056 23.06 22.8503 22.2469 23.4051C22.0145 23.1587 21.9745 23.343 21.9424 23.5413C21.7422 23.6915 21.5439 23.8417 21.3436 23.9919C21.2014 23.8076 21.0152 23.7896 20.8389 23.9118C20.7468 23.9739 20.8089 24.08 20.895 24.1421C20.7448 24.2442 20.5966 24.3484 20.4464 24.4505C20.3522 24.3163 20.2241 24.2442 20.0859 24.3624C19.9477 24.4806 19.9978 24.6168 20.1199 24.7309C19.5291 25.0834 18.9383 25.4379 18.3475 25.7904C18.1973 25.8404 17.8248 25.6782 18.0551 26.0948C18.003 26.239 17.8688 26.221 17.7547 26.243C17.5944 26.3271 17.1719 26.0207 17.306 26.5434C17.1478 26.6916 17.1458 26.99 16.8514 27.0041C16.7573 26.8659 16.6311 26.7878 16.4889 26.9119C16.3968 26.992 16.4689 27.0842 16.559 27.1422C15.9201 27.7471 15.2332 28.3119 14.6524 28.9688C13.9514 29.7598 13.3426 30.6331 13.4227 31.7826C13.3286 32.5537 13.9053 33.0704 14.1537 33.7113C14.1978 34.4924 14.5823 34.8769 15.3634 34.921C15.8681 35.3235 16.3708 35.7261 16.8754 36.1306C16.8574 36.2308 16.9075 36.2628 16.9976 36.2608C17.0857 36.7915 17.6145 36.7795 17.9449 36.9718C18.6759 37.3984 19.2788 38.0493 20.1339 38.2596C20.0258 38.4498 20.0819 38.538 20.3002 38.5219C20.9631 38.7603 21.5459 39.1308 22.0906 39.5714C22.0526 39.9159 22.2509 40.1482 22.5332 40.2303C22.7195 40.2844 22.6614 40.03 22.6895 39.9018C23.2743 40.1221 23.839 40.3825 24.3437 40.759C24.4078 41.3318 24.7323 41.2577 25.1048 41.0654C26.3004 41.5621 27.4961 42.0588 28.6897 42.5555C28.872 43.0101 29.1724 43.1083 29.589 42.8559C30.2259 42.8599 30.7726 43.2104 31.3814 43.3266C31.6418 43.7531 32.0123 43.7812 32.4369 43.619C33.3341 43.7732 34.2314 43.9294 35.1286 44.0836C35.2007 44.408 35.3469 44.4621 35.5812 44.2118C36.9792 44.2218 38.3691 44.4982 39.771 44.342C40.4179 44.35 41.0648 44.358 41.7117 44.366C41.936 44.4341 42.2044 44.7225 42.3205 44.2458C42.7431 44.1877 43.1657 44.1277 43.5883 44.0716C44.073 44.0055 43.6984 43.7932 43.6644 43.639C43.7345 43.1002 43.5422 42.8038 42.9554 42.8719C42.8272 42.7257 42.673 42.5955 42.5729 42.4333C42.2044 41.8285 41.5555 41.4079 41.4073 40.6609C41.4333 40.2643 41.4613 39.8658 40.8805 39.8758C40.6542 39.4292 40.4299 38.9826 40.2036 38.536C40.452 38.2976 40.2637 38.2616 40.0614 38.2335L40.0654 38.2375L40.0694 38.2335Z" fill="#202020"/>
<path d="M41.0829 33.5791C40.7844 32.5937 40.6663 31.5783 40.5041 30.5669C40.2056 28.7104 40.46 26.8538 40.3879 24.9992C40.3178 23.2208 40.9827 21.5445 41.2891 19.8181C41.3612 19.4155 41.7317 19.5077 42.0241 19.5057C42.7512 19.4997 43.4061 19.8121 44.099 19.9583C46.0056 20.3608 47.7701 21.1259 49.5285 21.953C52.1741 23.1967 54.5955 24.7689 56.8566 26.6075C57.3313 26.992 57.4795 27.036 57.7919 26.9319L57.7859 26.976C57.5075 27.4787 57.9862 27.4967 58.2285 27.6649L58.2706 27.6789L58.2645 27.721C58.3487 27.725 58.4328 27.729 58.5149 27.735L58.5069 27.727C58.4348 27.9032 58.5249 27.9213 58.6651 27.8872L58.6571 27.8772C58.569 28.0514 58.6431 28.1356 58.8173 28.1636C58.8714 28.2177 58.9255 28.2717 58.9775 28.3258C58.8634 28.8265 59.0496 29.3012 59.324 29.6456C60.1071 30.629 60.045 31.8307 59.7165 32.774C59.3801 33.7393 58.7813 34.7046 58.0743 35.5518C57.6877 36.0164 57.167 36.3429 56.8486 36.8596C56.5001 37.2081 56.1496 37.5586 55.8011 37.907C54.3832 39.319 52.803 40.5106 51.0125 41.4119C50.5539 41.472 50.2315 41.8244 49.8129 41.9686C49.2141 42.225 48.6152 42.4813 48.0164 42.7377C47.8382 42.8799 47.5578 42.7878 47.4096 43.0021C47.1612 43.0661 46.9129 43.1302 46.6645 43.1943C46.5684 43.1743 46.5284 43.2304 46.5023 43.3105L46.5083 43.3025C46.3581 43.3185 46.2079 43.3365 46.0597 43.3525C45.8654 43.1403 45.6692 42.928 45.4749 42.7157C45.3808 42.5074 45.2526 42.3331 45.0263 42.251C44.5316 41.504 44.0389 40.759 43.5442 40.0119C43.5062 39.8197 43.4341 39.6514 43.2418 39.5613C42.5188 37.889 41.7358 36.2387 41.2471 34.4763C41.193 34.1759 41.1369 33.8775 41.0829 33.5771V33.5791ZM51.341 25.4859C50.9685 25.0273 50.588 24.6227 49.9751 24.4244C47.0411 23.4711 44.8881 26.7577 45.6131 28.8966C46.3701 31.1357 48.9497 32.9061 51.5112 31.1798C52.7289 30.3586 53.3458 29.213 53.2797 27.727C53.4819 27.4686 53.2817 27.4606 53.1014 27.4386C52.9392 26.1969 52.5326 25.7082 51.6174 25.6501C51.5633 25.53 51.4612 25.4939 51.341 25.4879V25.4859Z" fill="#F7941E"/>
<path d="M72.7304 17.8494C73.0449 19.045 73.1711 20.2747 73.0208 21.4864C72.7765 23.4591 72.2558 25.3357 70.2791 26.3611C70.219 26.287 70.1569 26.2129 70.0968 26.1388C71.7291 24.3604 71.9133 22.1413 71.6049 19.9663C71.4507 18.8808 71.1182 17.6992 70.4313 16.6778C69.8845 15.8666 69.6001 14.8593 68.6328 14.4106C67.0666 13.6836 66.2415 13.4353 64.9577 14.5028C64.3649 14.9955 64.1526 15.7665 63.7881 16.4274C63.0431 17.7713 63.1853 19.1692 63.4036 20.485C63.694 22.2374 64.467 23.8857 65.6647 25.2536C66.3116 25.9926 67.0266 26.6635 68.1641 26.5514C68.6849 26.4993 69.2216 26.259 69.7503 26.5414C69.7784 26.5754 69.8084 26.6075 69.8425 26.6375C69.0534 27.723 69.3117 28.9747 69.3177 30.1764C69.3177 30.4668 69.0333 30.7472 69.2817 31.0376C69.3157 31.1457 69.2697 31.2979 69.4399 31.334C69.3818 33.5691 69.5681 35.8001 69.6422 38.0292C69.6963 39.6394 69.5941 41.2597 69.7684 42.8559C69.9927 44.9187 69.7603 46.9796 69.9166 49.0324C70.0027 50.17 70.0828 51.3055 70.0407 52.4411C69.9025 56.1482 69.504 59.8092 67.9458 63.24C67.6995 63.7827 67.4952 64.3575 67.0466 64.7881C67.0106 64.7921 66.9765 64.7961 66.9405 64.8001C66.9745 64.8322 67.0106 64.8642 67.0446 64.8983C65.7648 67.2675 63.9624 69.1641 61.7974 70.7443C60.0149 72.0421 58.0402 72.9193 55.9052 73.376C54.0587 73.7725 52.1941 73.8526 50.2995 73.4761C49.0037 73.2197 47.7921 72.8092 46.6004 72.2764C46.1838 72.0902 45.8394 71.8458 45.569 71.4874C45.609 71.3832 45.563 71.3572 45.4668 71.3752C45.1885 71.4353 44.9461 71.3932 44.7118 71.199C43.37 70.0894 42.1423 68.8757 41.1769 67.4157C41.1008 67.3016 41.1088 67.1333 41.0768 66.9911C41.1028 66.893 41.0748 66.855 40.9726 66.893C40.2797 66.128 40.0954 65.1346 39.773 64.2073C39.3324 62.9476 39.4125 61.6558 39.4125 60.336C39.4125 58.187 40.0514 56.3745 41.5194 54.8484C41.972 54.3778 42.5328 54.0193 43.2157 53.9311L43.5101 53.9732C40.7503 55.293 39.8331 59.0302 40.3398 61.5617C40.4279 61.9983 40.5801 62.4609 40.514 62.9336C40.478 62.9716 40.4419 63.0097 40.4059 63.0477C40.4439 63.0557 40.482 63.0617 40.52 63.0697C41.0007 64.005 41.241 65.0425 41.7878 65.9517C42.1423 66.5445 42.5809 67.0653 42.9894 67.614C44.107 69.1161 45.6591 70.0053 47.2753 70.8244C48.3709 71.3792 49.5725 71.6536 50.7581 71.7597C53.4218 71.9981 56.0354 71.6836 58.4608 70.4419C59.6364 69.8391 60.7339 69.1201 61.7112 68.2148C63.0451 66.9811 64.2588 65.6553 65.144 64.0531C66.2014 62.1385 66.9825 60.1237 67.343 57.9607C67.8277 55.0447 67.9539 52.0986 67.7636 49.1606C67.6635 47.6204 67.7876 46.0743 67.6174 44.5502C67.4371 42.934 67.5914 41.3218 67.4872 39.7135C67.303 36.8676 67.2028 34.0197 67.1908 31.1678C67.1908 31.0236 67.1568 30.8753 67.1127 30.7372C66.8283 29.8559 67.5333 28.6343 66.7923 28.1115C66.1113 27.6329 65.184 27.4006 64.4951 26.8117C64.441 26.7717 64.3849 26.7316 64.3309 26.6916C63.724 26.0908 63.2754 25.3878 62.8288 24.6548C62.1058 23.4671 61.5731 22.2254 61.1725 20.9016C60.9282 20.0905 60.7679 19.2493 60.9342 18.4562C61.1304 17.5169 61.1184 16.5616 61.4549 15.6183C62.246 13.4013 63.8322 12.1956 65.9751 11.5647C66.2155 11.4946 66.2876 11.4466 66.3016 11.2062C66.3516 10.347 66.3216 9.48585 66.3757 8.62466C66.4057 8.11797 66.1313 7.50712 66.1454 6.91631C66.1794 5.47832 66.2535 4.04034 66.2315 2.60436C66.2215 1.91742 66.3296 1.24248 66.2976 0.559543C66.2856 0.287167 66.3216 0.0728714 66.6501 0.0107858C66.9925 -0.0553053 67.1167 0.19504 67.1527 0.415344C67.2949 1.2565 67.4812 2.08565 67.4952 2.95284C67.5032 3.46956 67.7396 3.98226 67.5233 4.50899C67.5293 4.67922 67.6574 4.74532 67.7836 4.81341C67.7696 6.46368 68.2763 8.09994 67.9278 9.76023C67.9278 9.97653 68.034 10.0727 68.2483 10.0526C68.2463 10.2008 68.2683 10.353 68.2382 10.4952C68.03 11.5187 68.5767 12.0794 69.4279 12.458C69.486 12.6262 69.6121 12.6001 69.7423 12.5741C71.3265 13.5014 71.8092 15.1557 72.414 16.7098C72.5061 16.9461 72.7184 17.2305 72.5742 17.543C72.374 17.7673 72.6443 17.7633 72.7244 17.8514L72.7304 17.8494Z" fill="#202020"/>
<path d="M23.1401 20.8695C22.9558 21.5625 21.8583 22.1272 21.1854 21.8749C21.7962 21.4583 22.4711 21.1719 23.1401 20.8695Z" fill="#202020"/>
<path d="M13.7111 27.0721C13.665 27.2403 13.5388 27.2864 13.3846 27.2884C13.2044 26.9839 12.8879 26.7717 12.7898 26.4112C12.8519 26.273 12.974 26.2409 13.1082 26.2329C13.4587 26.4051 13.2384 26.988 13.7111 27.0721Z" fill="#202020"/>
<path d="M46.8167 45.3954C47.1151 44.9548 47.4556 44.6383 48.0224 44.9848C47.6659 45.2552 47.2773 45.4294 46.8167 45.3954Z" fill="#202020"/>
<path d="M10.8672 40.9272C10.749 40.9031 10.5868 40.9011 10.6128 40.7309C10.6409 40.5507 10.7791 40.4145 10.9573 40.3844C11.1275 40.3564 11.1295 40.5186 11.1536 40.6388C11.0574 40.7349 10.9613 40.831 10.8652 40.9272H10.8672Z" fill="#202020"/>
<path d="M1.7005 42.89C2.12308 42.5575 2.24525 42.8079 2.29732 43.1964C2.05699 43.1744 1.80665 43.1704 1.7005 42.89Z" fill="#202020"/>
<path d="M58.2305 27.6629C57.9882 27.4947 57.5095 27.4787 57.7879 26.974C58.1243 27.0821 58.4568 27.1943 58.2305 27.6629Z" fill="#202020"/>
<path d="M19.2407 23.0867C19.1226 23.355 18.9163 23.4331 18.6419 23.361C18.7501 23.0726 18.8882 22.8423 19.2407 23.0867Z" fill="#FCFCFC"/>
<path d="M36.6247 46.6211C36.6447 46.4709 36.6848 46.3207 36.875 46.3467C37.1094 46.3788 37.0613 46.583 37.0773 46.7413C36.9151 46.7493 36.7248 46.8534 36.6267 46.6211H36.6247Z" fill="#202020"/>
<path d="M2.74396 23.9938C3.31675 23.9618 3.22863 24.2602 3.05038 24.6047C2.86613 24.4424 2.778 24.2321 2.74396 23.9938Z" fill="#202020"/>
<path d="M20.5845 41.0874C21.0492 40.7169 21.0211 41.0834 21.0332 41.3879C20.8829 41.2877 20.7327 41.1876 20.5845 41.0874Z" fill="#202020"/>
<path d="M17.7407 39.281C17.8228 39.1728 17.9229 39.1007 18.0571 39.1788C18.2053 39.265 18.1412 39.3871 18.0891 39.5013C17.983 39.4112 17.7767 39.4813 17.7427 39.281H17.7407Z" fill="#202020"/>
<path d="M25.6816 43.7871C25.7136 43.681 25.6996 43.4987 25.8718 43.5568C26.0381 43.6129 25.972 43.8012 25.988 43.9373C25.8778 43.9013 25.7236 43.9594 25.6816 43.7871Z" fill="#202020"/>
<path d="M68.2543 10.0506C68.04 10.0726 67.9338 9.97448 67.9338 9.75818C68.086 9.80424 68.4425 9.63 68.2543 10.0506Z" fill="#FCFCFC"/>
<path d="M17.8708 23.8297C17.9349 23.8898 18.0391 23.9499 17.9509 24.046C17.8127 24.2002 17.6625 24.0981 17.5223 24.032C17.5884 23.8798 17.7026 23.8077 17.8708 23.8297Z" fill="#202020"/>
<path d="M17.4823 24.0619C17.5384 24.1741 17.6065 24.2943 17.4563 24.3824C17.3241 24.4605 17.2219 24.3884 17.1398 24.2802C17.1739 24.082 17.3762 24.1461 17.4803 24.0599L17.4823 24.0619Z" fill="#202020"/>
<path d="M18.1232 39.5273C18.2573 39.4552 18.4075 39.3831 18.5377 39.4973C18.6339 39.5814 18.5538 39.6715 18.4696 39.7356C18.2974 39.7597 18.1872 39.6795 18.1212 39.5273H18.1232Z" fill="#202020"/>
<path d="M15.0469 25.8104C15.0068 25.9706 15.127 26.3191 14.7405 26.0708C14.8106 25.9446 14.8747 25.8144 15.0469 25.8104Z" fill="#202020"/>
<path d="M72.7305 17.8494C72.6504 17.7613 72.38 17.7653 72.5803 17.541C72.7705 17.5751 72.9788 17.6011 72.7305 17.8494Z" fill="#FCFCFC"/>
<path d="M58.8133 37.3423C58.8733 37.2021 58.643 36.7775 59.1117 37.0378L58.8133 37.3423Z" fill="#202020"/>
<path d="M44.4194 46.1424C44.4435 46.0103 44.3653 45.824 44.5636 45.7839C44.6758 45.7619 44.7018 45.8861 44.7178 45.9822C44.6177 46.0363 44.5176 46.0884 44.4174 46.1424H44.4194Z" fill="#202020"/>
<path d="M70.2811 26.3611C70.201 26.5594 69.9707 26.5153 69.8425 26.6375C69.8105 26.6074 69.7784 26.5754 69.7504 26.5414C69.8665 26.4072 69.9827 26.273 70.0989 26.1388C70.1589 26.2129 70.221 26.287 70.2811 26.3611Z" fill="#202020"/>
<path d="M67.7897 4.81138C67.6635 4.74328 67.5353 4.6792 67.5293 4.50696C67.6875 4.54701 68.034 4.42484 67.7897 4.81138Z" fill="#FCFCFC"/>
<path d="M43.5142 53.9752L43.2198 53.9331C43.2638 53.861 43.3059 53.7328 43.356 53.7308C43.5142 53.7208 43.5002 53.867 43.5142 53.9772V53.9752Z" fill="#FDFDFD"/>
<path d="M19.8355 40.6389C20.1079 40.3805 20.1059 40.6148 20.1299 40.8031C20.0198 40.769 19.8736 40.8031 19.8355 40.6389Z" fill="#202020"/>
<path d="M69.44 31.334C69.2697 31.298 69.3158 31.1457 69.2817 31.0376C69.472 31.0616 69.6783 31.0797 69.44 31.334Z" fill="#FDFDFD"/>
<path d="M69.7463 12.5721C69.6181 12.6001 69.49 12.6242 69.4319 12.4559C69.5681 12.4079 69.7323 12.2837 69.7463 12.5721Z" fill="#FCFCFC"/>
<path d="M51.9478 43.1743C51.9658 42.9761 52.108 43.0562 52.2142 43.0562C52.2162 43.2985 52.094 43.2624 51.9478 43.1743Z" fill="#FDFDFD"/>
<path d="M58.9795 28.3238C58.9254 28.2698 58.8714 28.2157 58.8193 28.1616C58.8133 28.1176 58.8193 28.0755 58.8393 28.0334C59.0096 28.0435 59.0977 28.1316 59.1077 28.3018C59.0676 28.3198 59.0256 28.3279 58.9815 28.3218L58.9795 28.3238Z" fill="#FCFCFC"/>
<path d="M48.7955 44.6724C48.8075 44.4621 48.9537 44.5423 49.0658 44.5503C49.0699 44.7966 48.9437 44.7606 48.7955 44.6724Z" fill="#FCFCFC"/>
<path d="M58.8393 28.0354C58.8213 28.0755 58.8132 28.1175 58.8193 28.1636C58.647 28.1356 58.5709 28.0514 58.659 27.8772C58.7191 27.9293 58.7792 27.9833 58.8393 28.0354Z" fill="#232323"/>
<path d="M58.667 27.8852C58.5269 27.9172 58.4367 27.9012 58.5088 27.725C58.5609 27.7791 58.615 27.8311 58.667 27.8852Z" fill="#232323"/>
<path d="M45.4709 71.3772C45.567 71.3572 45.6111 71.3853 45.573 71.4894C45.539 71.4513 45.5049 71.4153 45.4709 71.3772Z" fill="#FDFDFD"/>
<path d="M0.360657 41.3699C0.396706 41.3879 0.432756 41.4059 0.468806 41.4219C0.432756 41.458 0.398709 41.494 0.362659 41.5301C0.362659 41.476 0.362659 41.4239 0.360657 41.3699Z" fill="#FDFDFD"/>
<path d="M55.2463 40.9232C55.2523 40.8872 55.2563 40.8511 55.2624 40.8151C55.2964 40.8491 55.3325 40.8852 55.3665 40.9192C55.3264 40.9212 55.2864 40.9232 55.2463 40.9232Z" fill="#FCFCFC"/>
<path d="M16.543 38.3837C16.6371 38.3837 16.6932 38.4157 16.6651 38.5219C16.6251 38.4758 16.585 38.4297 16.543 38.3837Z" fill="#FCFCFC"/>
<path d="M16.4008 38.2275C16.4228 38.1875 16.4449 38.1494 16.4669 38.1094C16.4769 38.1494 16.4849 38.1875 16.4949 38.2275H16.4489H16.4028H16.4008Z" fill="#FCFCFC"/>
<path d="M14.8947 37.1841C14.9888 37.1841 15.0449 37.2181 15.0169 37.3243C14.9768 37.2782 14.9348 37.2321 14.8947 37.1841Z" fill="#FCFCFC"/>
<path d="M64.3349 26.6917C64.389 26.7317 64.445 26.7718 64.4991 26.8118C64.395 26.8399 64.3589 26.7738 64.3349 26.6917Z" fill="#232323"/>
<path d="M40.5241 63.0717C40.486 63.0637 40.448 63.0577 40.4099 63.0497C40.446 63.0117 40.482 62.9736 40.5181 62.9355C40.5221 62.9796 40.5241 63.0257 40.5241 63.0697V63.0717Z" fill="#FCFCFC"/>
<path d="M67.0486 64.9003C67.0146 64.8683 66.9785 64.8362 66.9445 64.8022C66.9805 64.7982 67.0146 64.7942 67.0506 64.7902C67.0506 64.8262 67.0506 64.8643 67.0506 64.9003H67.0486Z" fill="#FCFCFC"/>
<path d="M40.9767 66.895C41.0788 66.857 41.1069 66.895 41.0808 66.9932C41.0328 66.9751 40.9987 66.9411 40.9767 66.895Z" fill="#FDFDFD"/>
<path d="M26.733 19.3775C26.6789 19.4136 26.6229 19.4496 26.5688 19.4877C26.5948 19.4096 26.6249 19.3355 26.733 19.3775Z" fill="#202020"/>
<path d="M58.5189 27.733C58.4348 27.729 58.3507 27.725 58.2686 27.719C58.2966 27.6709 58.3166 27.5888 58.3527 27.5808C58.4588 27.5568 58.4929 27.6489 58.5209 27.733H58.5189Z" fill="#232323"/>
<path d="M31.3814 43.3245C30.7726 43.2083 30.2278 42.8579 29.5889 42.8539C29.3446 42.5875 29.0182 42.5675 28.6897 42.5534C27.4941 42.0568 26.2984 41.5601 25.1048 41.0634C24.8784 40.8952 24.6161 40.815 24.3437 40.757C23.839 40.3804 23.2742 40.1201 22.6894 39.8998L22.0906 39.5693C21.5459 39.1287 20.9631 38.7582 20.3001 38.5199C20.2561 38.4257 20.3081 38.2695 20.1339 38.2575C19.2767 38.0492 18.6739 37.3983 17.9449 36.9697C17.6164 36.7775 17.0857 36.7895 16.9976 36.2588C16.9575 36.2147 16.9155 36.1726 16.8754 36.1286C16.3707 35.726 15.868 35.3235 15.3633 34.9189C14.9988 34.4763 14.6263 34.0437 14.1537 33.7092C13.9053 33.0684 13.3265 32.5516 13.4227 31.7806C13.681 31.7766 13.8212 31.5963 13.9494 31.4101C14.364 30.8072 14.9007 30.3206 15.4515 29.8539C18.3154 27.4186 21.65 25.8144 25.1168 24.4565C26.737 23.8236 28.3793 23.2448 30.0756 22.8423C31.5476 22.4938 33.0217 22.1473 34.5378 22.0371C34.9243 22.0091 35.1146 22.0412 35.0204 22.5619C34.8422 23.5352 34.738 24.5286 34.698 25.5179C34.6039 27.9072 34.736 30.2845 35.1106 32.6558C35.7835 36.9077 37.3116 40.805 39.769 44.3379C38.3671 44.4941 36.9771 44.2177 35.5792 44.2077C35.4711 44.0155 35.2928 44.0695 35.1266 44.0795C34.2293 43.9253 33.3321 43.7691 32.4349 43.6149C32.1124 43.4126 31.7479 43.3626 31.3794 43.3225L31.3814 43.3245Z" fill="#F7941E"/>
<path d="M39.771 44.3399C37.3116 40.8071 35.7855 36.9097 35.1126 32.6578C34.7381 30.2866 34.6059 27.9093 34.7 25.52C34.7381 24.5306 34.8442 23.5372 35.0225 22.5639C35.1186 22.0432 34.9264 22.0111 34.5398 22.0392C33.0237 22.1513 31.5497 22.4958 30.0777 22.8443C28.3813 23.2468 26.7371 23.8256 25.1188 24.4585C21.6521 25.8144 18.3175 27.4186 15.4535 29.856C14.9048 30.3226 14.366 30.8093 13.9514 31.4121C13.8233 31.5984 13.6831 31.7786 13.4247 31.7826C13.3446 30.631 13.9534 29.7598 14.6544 28.9687C15.2352 28.3118 15.9222 27.7471 16.561 27.1422C16.6752 27.1282 16.8074 27.1562 16.8554 27.002C17.1498 26.988 17.1519 26.6876 17.3101 26.5414C17.4603 26.4413 17.6085 26.3411 17.7587 26.241C17.8728 26.2189 18.007 26.237 18.0591 26.0928C18.2734 26.1048 18.3355 25.9686 18.3515 25.7883C18.9423 25.4359 19.5331 25.0814 20.1239 24.7289C20.2762 24.6868 20.3923 24.6007 20.4524 24.4505C20.6026 24.3484 20.7508 24.2442 20.901 24.1421C21.0572 24.112 21.2555 24.2142 21.3476 23.9939C21.5479 23.8437 21.7462 23.6935 21.9465 23.5433C22.0646 23.5332 22.2008 23.5653 22.2509 23.4071C23.064 22.8523 23.9652 22.3076 24.8204 21.9971C26.2985 21.4624 27.7525 20.8055 29.2866 20.4109C30.6324 20.0645 31.9883 19.764 33.3462 19.4676C35.4411 19.009 37.542 19.3094 39.6349 19.1953C39.9893 19.1752 40.2757 19.4516 40.7584 19.3054C40.2457 20.1105 39.9413 20.8495 39.6529 21.5946C39.6068 21.7948 39.5608 21.9951 39.5147 22.1934C39.2003 22.7442 39.0781 23.347 39.022 23.9698C38.9459 23.9979 38.8798 24.0339 38.9199 24.1341C38.8738 24.9712 38.8097 25.8564 38.6395 26.6255C38.3851 27.7711 38.5433 28.8706 38.4552 29.9841C38.4552 30.0843 38.4552 30.1844 38.4572 30.2846C38.4232 31.308 38.4072 32.3093 38.8277 33.3027C38.9759 33.6512 38.8257 34.1839 38.9058 34.6305C39.006 34.981 39.1061 35.3295 39.2063 35.68C39.6369 36.425 39.6709 37.2962 39.9693 38.0833C39.9373 38.1814 39.9994 38.2135 40.0755 38.2355L40.0715 38.2315C40.0935 38.3437 40.0574 38.4839 40.2136 38.5339C40.44 38.9805 40.6643 39.4272 40.8906 39.8738C41.0067 40.1742 41.1489 40.4586 41.4173 40.6589C41.5655 41.4079 42.2144 41.8265 42.5829 42.4313C42.6831 42.5955 42.8353 42.7257 42.9654 42.8699C43.1096 43.2104 43.4 43.4167 43.6744 43.637C43.7105 43.7912 44.083 44.0035 43.5983 44.0696C43.1757 44.1256 42.7532 44.1857 42.3306 44.2438C42.1183 44.2378 41.888 44.1397 41.7217 44.364C41.0748 44.356 40.4279 44.3479 39.7811 44.3399H39.771Z" fill="#FFB05A"/>
<path d="M12.7878 26.4112C12.886 26.7717 13.2024 26.984 13.3826 27.2884C13.3366 27.3865 13.2925 27.4846 13.2465 27.5848C13.0482 27.6569 12.932 27.7891 12.932 28.0074C12.8359 28.1155 12.7378 28.2237 12.6416 28.3318C12.4894 28.3739 12.4914 28.5061 12.4714 28.6242C12.4273 28.6763 12.3813 28.7264 12.3372 28.7784C12.189 28.8285 12.195 28.9587 12.181 29.0768C11.8645 29.4173 11.7424 29.8559 11.5822 30.2745C11.3779 30.4267 11.456 30.6991 11.3258 30.8813C11.3258 31.0315 11.3298 31.1817 11.3318 31.332C11.3278 31.4321 11.3258 31.5322 11.3218 31.6304C11.2357 32.4535 11.3558 33.2226 11.8986 33.8835C11.8986 34.0056 11.8906 34.1298 12.0368 34.1839C12.2711 34.6105 12.4774 35.0591 12.8699 35.3775C12.8099 35.4316 12.7498 35.4857 12.6897 35.5398C12.4494 35.3976 12.2471 35.3855 12.0308 35.6179C11.472 36.2207 10.8612 36.7674 10.2223 37.2902C8.94452 38.3356 7.55861 39.2128 6.07456 39.9238C5.43769 40.2302 4.99708 39.8978 5.0151 39.1888C5.02111 38.9705 5.07519 38.7462 5.13927 38.5359C5.60191 37.0138 6.05854 35.4897 6.54721 33.9736C7.59666 30.7211 7.64072 27.4566 6.84763 24.138C6.38299 22.1933 5.664 20.3448 5.00909 18.4702C5.62995 18.5363 6.11061 18.9028 6.52519 19.3034C7.59867 20.3388 8.62408 21.4263 9.66752 22.4938C9.66752 22.5859 9.71558 22.63 9.80371 22.64C10.7991 23.8977 11.7945 25.1554 12.7898 26.4132L12.7878 26.4112Z" fill="#F15A29"/>
<path d="M5.00706 18.4702C5.66196 20.3448 6.38295 22.1933 6.84559 24.138C7.63668 27.4566 7.59462 30.7211 6.54518 33.9736C6.0565 35.4877 5.60188 37.0118 5.13723 38.5359C5.07315 38.7482 5.01707 38.9705 5.01306 39.1888C4.99704 39.8977 5.43565 40.2302 6.07252 39.9238C7.55657 39.2128 8.94248 38.3376 10.2202 37.2901C10.8571 36.7674 11.468 36.2207 12.0287 35.6178C12.245 35.3855 12.4493 35.3975 12.6876 35.5397C12.6756 35.5858 12.6756 35.6319 12.6876 35.6779C12.6015 35.8922 12.5154 36.1065 12.4293 36.3208C12.1349 36.3909 12.0888 36.6312 12.0468 36.8756C11.2396 37.7708 10.4345 38.666 9.62743 39.5633C9.47722 39.6594 9.27694 39.6834 9.19283 39.8717C9.13875 39.9198 9.08668 39.9678 9.03261 40.0139C8.91444 40.0199 8.79027 40.0159 8.74821 40.1661C8.48986 40.3203 8.2315 40.4725 7.97315 40.6267C7.93309 40.6648 7.89504 40.7028 7.85498 40.7409C7.80692 40.7529 7.75685 40.7629 7.70878 40.7749C7.65871 40.811 7.60864 40.847 7.55857 40.8831C6.42301 41.1695 5.32549 41.6822 4.10581 41.4939C4.06976 41.2997 4.01769 41.1455 3.8074 41.3698C2.52363 41.1635 2.04697 40.2642 2.55567 38.9564C2.70588 38.5719 2.82805 38.1854 2.89214 37.7788C3.18855 37.7708 3.21458 37.5665 3.21258 37.3402C3.22259 37.2361 3.23261 37.1299 3.24262 37.0258C3.43288 37.0098 3.50699 36.8976 3.50298 36.7174C3.79338 35.5297 4.48433 34.5063 4.88088 33.3627C4.99304 33.0403 5.14725 32.7359 5.17128 32.3874C5.31748 32.3253 5.30547 32.2051 5.27943 32.081C6.43703 29.0508 6.32287 26.1127 4.65257 23.2848C4.46631 22.9684 4.29207 22.6439 4.11182 22.3235C4.10381 22.1332 4.12784 21.925 3.85547 21.8909C3.59711 21.0658 3.02833 20.3308 3.19456 19.3814C3.24663 19.083 3.27867 18.8107 3.50098 18.5924C3.67922 18.5924 3.79338 18.5203 3.8074 18.33C4.21596 18.306 4.63454 18.1878 5.00706 18.4702Z" fill="#F24619"/>
<path d="M55.8031 37.9071C56.1516 37.5586 56.5021 37.2081 56.8505 36.8596C56.9427 37.4384 56.7244 37.849 56.1956 38.1053C55.9593 38.2215 55.8271 38.1875 55.8031 37.9071Z" fill="#202020"/>
<path d="M14.1537 33.7113C14.6263 34.0458 14.9989 34.4784 15.3634 34.921C14.5823 34.8769 14.1977 34.4904 14.1537 33.7113Z" fill="#202020"/>
<path d="M49.8129 41.9707C50.2314 41.8245 50.5539 41.474 51.0125 41.4139C50.8203 42.1189 50.3296 42.3472 49.8129 41.9707Z" fill="#202020"/>
<path d="M39.2002 35.678C39.1001 35.3275 38.9999 34.979 38.8998 34.6285C39.4946 34.8508 39.6068 35.2434 39.2002 35.678Z" fill="#202020"/>
<path d="M43.6644 43.6369C43.39 43.4166 43.0996 43.2103 42.9554 42.8699C43.5422 42.8018 43.7345 43.0982 43.6644 43.6369Z" fill="#202020"/>
<path d="M28.6898 42.5535C29.0182 42.5675 29.3447 42.5875 29.589 42.8539C29.1724 43.1062 28.87 43.0081 28.6898 42.5535Z" fill="#202020"/>
<path d="M31.3815 43.3246C31.75 43.3626 32.1145 43.4147 32.4369 43.617C32.0123 43.7792 31.6418 43.7512 31.3815 43.3246Z" fill="#202020"/>
<path d="M22.0906 39.5693L22.6894 39.8998C22.6634 40.028 22.7195 40.2823 22.5332 40.2282C22.2508 40.1461 22.0526 39.9138 22.0906 39.5693Z" fill="#202020"/>
<path d="M41.4093 40.6568C41.1429 40.4565 41.0007 40.1721 40.8826 39.8717C41.4634 39.8637 41.4353 40.2602 41.4093 40.6568Z" fill="#202020"/>
<path d="M41.0828 33.5791C41.1369 33.8795 41.1929 34.1779 41.247 34.4783C40.9226 34.228 40.5861 33.9797 41.0828 33.5791Z" fill="#202020"/>
<path d="M24.3438 40.757C24.6161 40.813 24.8785 40.8931 25.1048 41.0634C24.7323 41.2556 24.4078 41.3297 24.3438 40.757Z" fill="#202020"/>
<path d="M39.5107 22.1914C39.5567 21.9911 39.6028 21.7908 39.6489 21.5925C39.8712 21.6186 39.9393 21.7588 39.9092 21.961C39.8732 22.1994 39.6829 22.1853 39.5087 22.1934L39.5107 22.1914Z" fill="#202020"/>
<path d="M12.0468 36.8757C12.0868 36.6313 12.1329 36.391 12.4293 36.3209C12.5955 36.7075 12.4713 36.8957 12.0468 36.8757Z" fill="#202020"/>
<path d="M47.4095 43.0041C47.5557 42.7898 47.8381 42.8819 48.0164 42.7397C47.9883 43.2264 47.7841 43.3125 47.4095 43.0041Z" fill="#202020"/>
<path d="M11.3258 30.8833C11.456 30.6991 11.3779 30.4287 11.5822 30.2765C11.8886 30.645 11.8145 30.8513 11.3258 30.8833Z" fill="#202020"/>
<path d="M21.3416 23.9918C21.2495 24.2141 21.0492 24.11 20.895 24.14C20.8089 24.078 20.7468 23.9738 20.8389 23.9097C21.0152 23.7896 21.1994 23.8056 21.3436 23.9898L21.3416 23.9918Z" fill="#202020"/>
<path d="M20.4463 24.4506C20.3862 24.6028 20.2701 24.6869 20.1179 24.7289C19.9957 24.6148 19.9456 24.4786 20.0838 24.3604C20.222 24.2423 20.3502 24.3144 20.4443 24.4486L20.4463 24.4506Z" fill="#202020"/>
<path d="M3.21261 37.3423C3.21261 37.5666 3.18858 37.7729 2.89217 37.7809C2.65184 37.3823 3.16655 37.5325 3.21261 37.3423Z" fill="#EF4619"/>
<path d="M43.2418 39.5634C43.4341 39.6535 43.5062 39.8217 43.5442 40.014C43.3139 39.9499 42.9234 39.996 43.2418 39.5634Z" fill="#202020"/>
<path d="M41.7137 44.3639C41.8799 44.1396 42.1102 44.2378 42.3225 44.2438C42.2064 44.7204 41.938 44.432 41.7137 44.3639Z" fill="#202020"/>
<path d="M12.934 28.0074C12.934 27.7891 13.0502 27.6569 13.2485 27.5848C13.1323 27.717 13.5108 28.2177 12.934 28.0074Z" fill="#202020"/>
<path d="M46.0597 43.3545C46.2099 43.3385 46.3601 43.3205 46.5083 43.3044C46.5003 43.4567 46.4763 43.5988 46.278 43.5968C46.1258 43.5948 46.0917 43.4727 46.0597 43.3565V43.3545Z" fill="#202020"/>
<path d="M35.1286 44.0816C35.2948 44.0736 35.4731 44.0175 35.5812 44.2098C35.3469 44.4581 35.1987 44.404 35.1286 44.0816Z" fill="#202020"/>
<path d="M8.75023 40.1661C8.79229 40.0159 8.91646 40.0199 9.03462 40.0139C9.12475 40.07 9.20085 40.1601 9.11273 40.2422C8.97654 40.3744 8.84837 40.3003 8.74823 40.1661H8.75023Z" fill="#202020"/>
<path d="M12.0348 34.1859C11.8886 34.1318 11.8966 34.0056 11.8966 33.8855C11.9566 33.7973 12.0488 33.7313 12.1269 33.8234C12.247 33.9656 12.1709 34.0918 12.0328 34.1859H12.0348Z" fill="#202020"/>
<path d="M45.0263 42.2531C45.2526 42.3352 45.3808 42.5094 45.4749 42.7177C45.1264 42.7537 44.9822 42.5935 45.0263 42.2531Z" fill="#202020"/>
<path d="M18.3454 25.7883C18.3294 25.9686 18.2673 26.1028 18.053 26.0928C17.8227 25.6762 18.1952 25.8404 18.3454 25.7883Z" fill="#202020"/>
<path d="M16.8514 27.002C16.8034 27.1542 16.6712 27.1282 16.557 27.1422C16.4669 27.0841 16.3968 26.992 16.4869 26.9119C16.6291 26.7857 16.7553 26.8638 16.8494 27.004L16.8514 27.002Z" fill="#202020"/>
<path d="M17.7547 26.241C17.6045 26.3411 17.4563 26.4413 17.306 26.5414C17.1719 26.0187 17.5924 26.3231 17.7547 26.241Z" fill="#202020"/>
<path d="M9.19482 39.8697C9.27894 39.6814 9.47922 39.6574 9.62942 39.5613C9.70152 39.7629 9.55666 39.8657 9.19482 39.8697Z" fill="#202020"/>
<path d="M3.85547 21.891C4.12785 21.925 4.10382 22.1333 4.11183 22.3236C3.91155 22.2475 3.78538 22.1273 3.85547 21.891Z" fill="#EF4619"/>
<path d="M12.6876 35.678C12.6736 35.6319 12.6736 35.5859 12.6876 35.5398C12.7477 35.4857 12.8078 35.4316 12.8679 35.3776C12.96 35.3996 13.0662 35.4376 13.0381 35.5438C12.9881 35.724 12.8158 35.658 12.6896 35.678H12.6876Z" fill="#232323"/>
<path d="M40.2076 38.5319C40.0514 38.4818 40.0895 38.3416 40.0654 38.2295C40.2677 38.2575 40.456 38.2916 40.2076 38.5319Z" fill="#202020"/>
<path d="M3.50298 36.7174C3.50698 36.8977 3.43288 37.0098 3.24262 37.0258C3.18053 36.7955 3.35878 36.7715 3.50298 36.7174Z" fill="#EF4619"/>
<path d="M22.2469 23.4051C22.1968 23.5633 22.0586 23.5312 21.9424 23.5412C21.9745 23.343 22.0145 23.1587 22.2469 23.4051Z" fill="#202020"/>
<path d="M5.28147 32.0811C5.3055 32.2052 5.31952 32.3254 5.17332 32.3875C4.93098 32.1872 5.07118 32.1211 5.28147 32.0811Z" fill="#202020"/>
<path d="M11.3198 31.6304C11.3238 31.5303 11.3258 31.4302 11.3298 31.332C11.4259 31.3481 11.5401 31.3621 11.5361 31.4862C11.5321 31.6084 11.4159 31.6164 11.3198 31.6304Z" fill="#202020"/>
<path d="M3.8074 18.328C3.79338 18.5183 3.67922 18.5924 3.50098 18.5904C3.50698 18.3901 3.5871 18.278 3.8074 18.328Z" fill="#EF4619"/>
<path d="M38.4512 30.2825C38.4512 30.1823 38.4512 30.0822 38.4492 29.9821C38.5454 29.9961 38.6595 30.0081 38.6615 30.1303C38.6615 30.2544 38.5474 30.2664 38.4512 30.2805V30.2825Z" fill="#202020"/>
<path d="M12.183 29.0789C12.197 28.9588 12.189 28.8286 12.3392 28.7805C12.5835 29.0349 12.3793 29.0549 12.183 29.0789Z" fill="#202020"/>
<path d="M3.80743 41.3699C4.01772 41.1455 4.0698 41.3018 4.10585 41.494C3.97967 41.5161 3.86351 41.514 3.80743 41.3699Z" fill="#EF4619"/>
<path d="M12.4714 28.6242C12.4934 28.506 12.4894 28.3738 12.6416 28.3318C12.8799 28.6022 12.6596 28.6042 12.4714 28.6242Z" fill="#202020"/>
<path d="M20.1339 38.2595C20.3082 38.2715 20.2561 38.4278 20.3002 38.5219C20.0819 38.5379 20.0258 38.4498 20.1339 38.2595Z" fill="#232323"/>
<path d="M9.80171 22.638C9.71359 22.628 9.66352 22.5839 9.66552 22.4918C9.71159 22.5399 9.75565 22.59 9.80171 22.638Z" fill="#202020"/>
<path d="M46.5023 43.3125C46.5264 43.2324 46.5684 43.1763 46.6645 43.1963C46.6105 43.2344 46.5564 43.2744 46.5023 43.3125Z" fill="#202020"/>
<path d="M38.9138 24.1341C38.8758 24.0339 38.9399 23.9979 39.016 23.9698L38.9138 24.1341Z" fill="#202020"/>
<path d="M7.55859 40.8832C7.60866 40.8471 7.65873 40.8111 7.7088 40.775C7.68677 40.8511 7.65473 40.9132 7.55859 40.8832Z" fill="#EF4619"/>
<path d="M7.85699 40.741C7.89705 40.7029 7.9351 40.6649 7.97516 40.6268C7.99118 40.721 7.95313 40.761 7.85699 40.741Z" fill="#EF4619"/>
<path d="M40.0694 38.2335C39.9913 38.2115 39.9292 38.1794 39.9633 38.0813L40.0694 38.2335Z" fill="#202020"/>
<path d="M16.8755 36.1306C16.9155 36.1747 16.9576 36.2167 16.9976 36.2608C16.9075 36.2628 16.8574 36.2308 16.8755 36.1306Z" fill="#F3921E"/>
<path d="M53.2796 27.7271C53.3457 29.2131 52.7269 30.3587 51.5112 31.1798C48.9517 32.9062 46.3701 31.1358 45.6131 28.8967C44.8901 26.7577 47.041 23.4712 49.9751 24.4245C50.5879 24.6228 50.9684 25.0273 51.341 25.486C51.3329 25.5781 51.3249 25.6702 51.3169 25.7624C50.7381 25.7203 50.2074 25.4039 49.6046 25.486C48.6853 25.6121 47.9783 25.9646 47.6579 26.942C47.3915 27.7551 47.6519 28.424 48.1506 28.9548C48.6092 29.4434 49.3903 29.7358 50.2234 29.3894C50.8483 29.129 51.2648 28.39 51.3269 27.6169C51.375 27.0141 50.9244 26.3692 51.4591 25.8064C51.5112 25.7543 51.5653 25.7003 51.6173 25.6482C52.5346 25.7083 52.9392 26.197 53.1014 27.4367C53.1374 27.5468 53.1214 27.689 53.2796 27.7251V27.7271Z" fill="#212120"/>
<path d="M51.6174 25.6501C51.5653 25.7022 51.5112 25.7563 51.4591 25.8084C51.4111 25.7943 51.363 25.7783 51.317 25.7643C51.325 25.6722 51.333 25.58 51.341 25.4879C51.4612 25.4939 51.5633 25.53 51.6174 25.6501Z" fill="#F3921E"/>
<path d="M53.2796 27.727C53.1214 27.6909 53.1374 27.5488 53.1014 27.4386C53.2816 27.4606 53.4819 27.4706 53.2796 27.727Z" fill="#F3921E"/>
<path d="M70.0989 26.1408C69.9827 26.275 69.8665 26.4092 69.7504 26.5434C69.2216 26.261 68.6849 26.5013 68.1642 26.5534C67.0266 26.6655 66.3096 25.9946 65.6647 25.2556C64.4671 23.8877 63.694 22.2394 63.4036 20.487C63.1853 19.1712 63.0431 17.7733 63.7881 16.4294C64.1547 15.7685 64.3649 14.9974 64.9578 14.5048C66.2415 13.4393 67.0667 13.6876 68.6328 14.4126C69.6022 14.8613 69.8846 15.8687 70.4313 16.6798C71.1203 17.7012 71.4527 18.8828 71.6049 19.9683C71.9134 22.1453 71.7291 24.3624 70.0968 26.1408H70.0989Z" fill="#939598"/>
<path d="M51.3169 25.7623C51.365 25.7764 51.413 25.7924 51.4591 25.8064C50.9224 26.3712 51.375 27.0141 51.3269 27.6169C51.2648 28.39 50.8483 29.129 50.2234 29.3893C49.3903 29.7338 48.6092 29.4414 48.1505 28.9547C47.6499 28.424 47.3895 27.7531 47.6579 26.942C47.9803 25.9626 48.6853 25.6121 49.6045 25.486C50.2054 25.4038 50.7381 25.7203 51.3169 25.7623Z" fill="white"/>
</svg>
