<svg width="82" height="82" viewBox="0 0 82 82" fill="none" xmlns="http://www.w3.org/2000/svg">
<g filter="url(#filter0_d_1_1649)">
<path d="M50.8167 45.3954C50.1418 45.6758 49.4549 45.9161 48.7178 45.9822C48.7018 45.8861 48.6738 45.7619 48.5636 45.7839C48.3654 45.824 48.4415 46.0103 48.4194 46.1424C46.1323 46.6331 43.8171 46.6972 41.4919 46.6431C41.3537 46.6391 41.2155 46.7072 41.0773 46.7433C41.0613 46.5851 41.1114 46.3808 40.875 46.3487C40.6848 46.3227 40.6447 46.4729 40.6247 46.6231C38.3235 46.5911 36.1165 46.0403 33.9375 45.3734C32.5976 44.9648 31.2417 44.5843 29.986 43.9394C29.97 43.8032 30.0361 43.615 29.8698 43.5589C29.6976 43.5008 29.7116 43.683 29.6796 43.7892C28.0053 43.2344 26.6053 42.1469 25.0332 41.3919C25.0192 41.0875 25.0472 40.721 24.5846 41.0915C24.3743 41.0915 24.2241 40.9913 24.1299 40.8071C24.1059 40.6188 24.1079 40.3845 23.8355 40.6429C23.3168 40.4386 22.8662 40.1301 22.4696 39.7396C22.5538 39.6755 22.6339 39.5834 22.5377 39.5013C22.4076 39.3891 22.2574 39.4612 22.1232 39.5313L22.0891 39.5053C22.1412 39.3911 22.2053 39.269 22.0571 39.1828C21.9249 39.1047 21.8228 39.1768 21.7406 39.285C21.3601 39.0607 20.9395 38.8964 20.6632 38.5259C20.6912 38.4198 20.6351 38.3877 20.541 38.3877C20.525 38.3357 20.5089 38.2816 20.4929 38.2295C20.4829 38.1895 20.4749 38.1514 20.4649 38.1114C20.4428 38.1514 20.4208 38.1895 20.3988 38.2295C19.7879 38.1574 19.4515 37.6647 19.0129 37.3263C19.0409 37.2201 18.9848 37.1861 18.8907 37.1861C18.8587 37.0739 18.7625 37.0659 18.6704 37.0279C17.7451 36.6273 17.6991 36.6033 17.2565 37.6447C16.7638 38.8023 15.9767 39.7296 15.1516 40.6409C15.1275 40.5227 15.1235 40.3605 14.9553 40.3865C14.775 40.4165 14.6388 40.5527 14.6108 40.733C14.5848 40.9032 14.747 40.9052 14.8652 40.9293C13.4632 42.4013 11.6888 43.2444 9.7461 43.5749C8.62856 43.7652 7.38084 43.9014 6.29734 43.2004C6.24527 42.8118 6.1231 42.5615 5.70052 42.894C5.05963 42.6316 4.66509 42.1289 4.36267 41.5341C4.39872 41.498 4.43277 41.462 4.46882 41.4259C4.43277 41.4079 4.39672 41.3899 4.36067 41.3739C3.76385 40.5047 4.04624 39.5694 4.23049 38.6781C4.45079 37.6147 5.04962 36.6774 5.43816 35.674C6.13912 33.8575 6.96026 32.0891 7.52503 30.2165C8.11785 28.2558 7.84147 26.4253 7.05038 24.6107C7.22863 24.2663 7.31675 23.9679 6.74396 23.9999C6.14513 22.6641 5.53829 21.3362 5.27193 19.8722C5.04962 18.6605 6.07704 17.1264 7.32276 16.79C9.10121 16.3073 10.409 17.1585 11.5386 18.294C13.4252 20.1927 15.0374 22.3196 16.3452 24.6648C16.6296 25.1755 16.946 25.6682 17.1082 26.239C16.9721 26.245 16.8519 26.279 16.7898 26.4172C15.7944 25.1595 14.7991 23.9018 13.8037 22.644L13.6675 22.4978C12.6241 21.4304 11.5987 20.3429 10.5252 19.3074C10.1106 18.9069 9.62994 18.5404 9.00908 18.4743C8.63657 18.1919 8.21799 18.3101 7.80943 18.3341C7.58912 18.284 7.50901 18.3962 7.503 18.5965C7.2807 18.8148 7.24865 19.0871 7.19658 19.3855C7.03236 20.3349 7.59914 21.0699 7.85749 21.895C7.7894 22.1313 7.91357 22.2515 8.11385 22.3276C8.2941 22.648 8.46834 22.9725 8.65459 23.2889C10.3249 26.1168 10.4391 29.0549 9.28146 32.0851C9.07117 32.1251 8.93097 32.1912 9.17331 32.3915C9.14927 32.738 8.99306 33.0444 8.88291 33.3668C8.48636 34.5124 7.79741 35.5358 7.50501 36.7215C7.36081 36.7755 7.18056 36.7996 7.24465 37.0299C7.23463 37.134 7.22462 37.2402 7.21461 37.3443C7.16854 37.5346 6.65383 37.3824 6.89416 37.7829C6.83008 38.1895 6.7059 38.574 6.5577 38.9605C6.049 40.2683 6.52766 41.1696 7.80943 41.3739C7.86751 41.5181 7.98166 41.5201 8.10784 41.498C9.32752 41.6863 10.425 41.1716 11.5606 40.8872C11.6587 40.9172 11.6908 40.8552 11.7108 40.779C11.7589 40.767 11.8089 40.757 11.857 40.745C11.9511 40.763 11.9892 40.723 11.9752 40.6308C12.2335 40.4766 12.4919 40.3244 12.7502 40.1702C12.8484 40.3064 12.9786 40.3785 13.1147 40.2463C13.2009 40.1622 13.1248 40.0741 13.0366 40.018C13.0907 39.9699 13.1428 39.9219 13.1969 39.8758C13.5574 39.8718 13.7022 39.769 13.6315 39.5674C14.4386 38.6721 15.2437 37.7769 16.0508 36.8797C16.4734 36.8977 16.5975 36.7114 16.4333 36.3249C16.5194 36.1106 16.6056 35.8963 16.6917 35.682C16.8199 35.662 16.9921 35.7281 17.0402 35.5478C17.0702 35.4417 16.962 35.4036 16.8699 35.3816C16.4774 35.0632 16.2731 34.6165 16.0368 34.188C16.175 34.0938 16.2511 33.9697 16.1309 33.8255C16.0528 33.7333 15.9607 33.7974 15.9006 33.8875C15.3598 33.2246 15.2377 32.4556 15.3238 31.6344C15.4199 31.6204 15.5341 31.6104 15.5401 31.4902C15.5441 31.3661 15.4299 31.352 15.3338 31.336C15.3338 31.1858 15.3298 31.0356 15.3278 30.8854C15.8165 30.8534 15.8906 30.6471 15.5841 30.2786C15.7464 29.86 15.8665 29.4214 16.183 29.0809C16.3772 29.0549 16.5835 29.0349 16.3392 28.7825C16.3833 28.7304 16.4293 28.6804 16.4734 28.6283C16.6616 28.6083 16.8819 28.6063 16.6436 28.3359C16.7397 28.2277 16.8379 28.1196 16.934 28.0114C17.5108 28.2217 17.1323 27.721 17.2484 27.5889C17.2945 27.4907 17.3386 27.3926 17.3846 27.2924C17.5408 27.2904 17.665 27.2424 17.7111 27.0761C18.0536 26.7417 18.398 26.4072 18.7405 26.0748C19.127 26.3231 19.0069 25.9746 19.0469 25.8144C19.7038 25.2476 20.3627 24.6849 21.1418 24.2863C21.2239 24.3945 21.3241 24.4665 21.4582 24.3884C21.6065 24.3003 21.5384 24.1802 21.4843 24.068L21.5243 24.038C21.6665 24.104 21.8147 24.2062 21.9529 24.052C22.039 23.9558 21.9349 23.8938 21.8728 23.8357C22.1392 23.6955 22.3074 23.3931 22.6439 23.369C22.9183 23.4391 23.1245 23.361 23.2427 23.0947C23.8876 22.6881 24.4544 22.1534 25.1854 21.885C25.8583 22.1353 26.9558 21.5706 27.1401 20.8796C28.2636 20.3689 29.4012 19.8962 30.5688 19.4977C30.6229 19.4616 30.679 19.4256 30.733 19.3875C32.1009 18.9289 33.5069 18.5985 34.8567 18.0677C35.4015 17.8534 36.0704 17.9756 36.6873 17.8775C38.1933 17.6411 39.7194 17.4449 41.2455 17.565C43.9092 17.7733 46.5288 18.1859 49.0984 18.997C52.3268 20.0164 55.2428 21.5866 57.9586 23.5533C59.3385 24.5527 60.7364 25.5601 61.7939 26.938C61.4794 27.0421 61.3332 27 60.8586 26.6135C58.5975 24.777 56.1761 23.2028 53.5305 21.9591C51.7721 21.132 50.0076 20.3669 48.101 19.9643C47.408 19.8181 46.7531 19.5057 46.0261 19.5117C45.7317 19.5137 45.3632 19.4216 45.2911 19.8241C44.9847 21.5505 44.3198 23.2268 44.3899 25.0053C44.462 26.8598 44.2096 28.7164 44.506 30.573C44.6683 31.5844 44.7864 32.6018 45.0848 33.5851C44.5881 33.9857 44.9246 34.234 45.2491 34.4844C45.7377 36.2488 46.5188 37.8991 47.2438 39.5694C46.9254 40 47.3159 39.9559 47.5462 40.02C48.0409 40.767 48.5336 41.5121 49.0283 42.2591C48.9862 42.5996 49.1304 42.7598 49.4769 42.7237C49.6712 42.936 49.8674 43.1483 50.0617 43.3606C50.0937 43.4788 50.1278 43.5989 50.28 43.6009C50.4783 43.6049 50.5023 43.4607 50.5103 43.3085L50.5043 43.3165C50.5584 43.2785 50.6124 43.2384 50.6665 43.2004C50.9149 43.1363 51.1632 43.0722 51.4116 43.0081C51.7861 43.3165 51.9904 43.2304 52.0184 42.7438C52.6172 42.4874 53.216 42.231 53.8149 41.9747C54.3316 42.3512 54.8223 42.1229 55.0145 41.4179C56.805 40.5147 58.3852 39.325 59.8031 37.9131C59.8272 38.1935 59.9593 38.2275 60.1957 38.1114C60.7244 37.855 60.9427 37.4444 60.8506 36.8657C61.169 36.3489 61.6877 36.0205 62.0763 35.5578C62.7832 34.7107 63.3821 33.7453 63.7185 32.78C64.047 31.8367 64.1091 30.6331 63.326 29.6517C63.0516 29.3072 62.8653 28.8326 62.9795 28.3319C63.0236 28.3379 63.0656 28.3319 63.1057 28.3119C65.3608 29.3232 65.8835 31.7626 64.8941 34.0778C64.4375 35.1453 63.8167 36.1246 63.1097 37.0479C62.641 36.7875 62.8714 37.2121 62.8113 37.3523C62.1063 38.4238 61.2331 39.3471 60.2678 40.1882C59.9734 40.4446 59.6669 40.6829 59.3645 40.9293C59.3305 40.8952 59.2944 40.8592 59.2604 40.8251C59.2544 40.8612 59.2504 40.8972 59.2444 40.9333C58.4513 41.9527 57.2877 42.4493 56.2102 43.0662C56.104 43.0662 55.9618 42.9861 55.9438 43.1844C55.1127 43.9134 54.0532 44.1637 53.0618 44.5583C52.9497 44.5522 52.8035 44.4701 52.7915 44.6804C52.5832 44.9067 52.3148 44.9848 52.0184 44.9929C51.4516 44.6484 51.1111 44.9628 50.8127 45.4034L50.8167 45.3954ZM44.0694 38.2335L43.9633 38.0813C43.6649 37.2942 43.6288 36.423 43.2002 35.678C43.6068 35.2434 43.4946 34.8529 42.8998 34.6286C42.8197 34.1819 42.9699 33.6512 42.8217 33.3007C42.4011 32.3074 42.4172 31.306 42.4512 30.2826C42.5473 30.2665 42.6615 30.2545 42.6615 30.1324C42.6615 30.0102 42.5453 29.9982 42.4492 29.9842C42.5393 28.8706 42.3811 27.7691 42.6334 26.6255C42.8037 25.8585 42.8678 24.9732 42.9138 24.1341C42.9479 24.08 42.9819 24.0239 43.016 23.9699C43.07 23.347 43.1942 22.7442 43.5087 22.1934C43.6829 22.1854 43.8732 22.1994 43.9092 21.9611C43.9393 21.7608 43.8712 21.6206 43.6488 21.5926C43.9393 20.8476 44.2417 20.1085 44.7544 19.3034C44.2717 19.4496 43.9833 19.1753 43.6308 19.1933C41.5379 19.3074 39.437 19.005 37.3422 19.4657C35.9843 19.7641 34.6284 20.0645 33.2826 20.409C31.7484 20.8035 30.2944 21.4584 28.8164 21.9951C27.9612 22.3056 27.06 22.8503 26.2469 23.4051C26.0145 23.1587 25.9745 23.343 25.9424 23.5413C25.7422 23.6915 25.5439 23.8417 25.3436 23.9919C25.2014 23.8076 25.0152 23.7896 24.8389 23.9118C24.7468 23.9739 24.8089 24.08 24.895 24.1421C24.7448 24.2442 24.5966 24.3484 24.4464 24.4505C24.3522 24.3163 24.2241 24.2442 24.0859 24.3624C23.9477 24.4806 23.9978 24.6168 24.1199 24.7309C23.5291 25.0834 22.9383 25.4379 22.3475 25.7904C22.1973 25.8404 21.8248 25.6782 22.0551 26.0948C22.003 26.239 21.8688 26.221 21.7547 26.243C21.5944 26.3271 21.1719 26.0207 21.306 26.5434C21.1478 26.6916 21.1458 26.99 20.8514 27.0041C20.7573 26.8659 20.6311 26.7878 20.4889 26.9119C20.3968 26.992 20.4689 27.0842 20.559 27.1422C19.9201 27.7471 19.2332 28.3119 18.6524 28.9688C17.9514 29.7598 17.3426 30.6331 17.4227 31.7826C17.3286 32.5537 17.9053 33.0704 18.1537 33.7113C18.1978 34.4924 18.5823 34.8769 19.3634 34.921C19.8681 35.3235 20.3708 35.7261 20.8754 36.1306C20.8574 36.2308 20.9075 36.2628 20.9976 36.2608C21.0857 36.7915 21.6145 36.7795 21.9449 36.9718C22.6759 37.3984 23.2788 38.0493 24.1339 38.2596C24.0258 38.4498 24.0819 38.538 24.3002 38.5219C24.9631 38.7603 25.5459 39.1308 26.0906 39.5714C26.0526 39.9159 26.2509 40.1482 26.5332 40.2303C26.7195 40.2844 26.6614 40.03 26.6895 39.9018C27.2743 40.1221 27.839 40.3825 28.3437 40.759C28.4078 41.3318 28.7323 41.2577 29.1048 41.0654C30.3004 41.5621 31.4961 42.0588 32.6897 42.5555C32.872 43.0101 33.1724 43.1083 33.589 42.8559C34.2259 42.8599 34.7726 43.2104 35.3814 43.3266C35.6418 43.7531 36.0123 43.7812 36.4369 43.619C37.3341 43.7732 38.2314 43.9294 39.1286 44.0836C39.2007 44.408 39.3469 44.4621 39.5812 44.2118C40.9792 44.2218 42.3691 44.4982 43.771 44.342C44.4179 44.35 45.0648 44.358 45.7117 44.366C45.936 44.4341 46.2044 44.7225 46.3205 44.2458C46.7431 44.1877 47.1657 44.1277 47.5883 44.0716C48.073 44.0055 47.6984 43.7932 47.6644 43.639C47.7345 43.1002 47.5422 42.8038 46.9554 42.8719C46.8272 42.7257 46.673 42.5955 46.5729 42.4333C46.2044 41.8285 45.5555 41.4079 45.4073 40.6609C45.4333 40.2643 45.4613 39.8658 44.8805 39.8758C44.6542 39.4292 44.4299 38.9826 44.2036 38.536C44.452 38.2976 44.2637 38.2616 44.0614 38.2335L44.0654 38.2375L44.0694 38.2335Z" fill="#202020"/>
<path d="M45.0829 33.5791C44.7844 32.5937 44.6663 31.5783 44.5041 30.5669C44.2056 28.7104 44.46 26.8538 44.3879 24.9992C44.3178 23.2208 44.9827 21.5445 45.2891 19.8181C45.3612 19.4155 45.7317 19.5077 46.0241 19.5057C46.7512 19.4997 47.4061 19.8121 48.099 19.9583C50.0056 20.3608 51.7701 21.1259 53.5285 21.953C56.1741 23.1967 58.5955 24.7689 60.8566 26.6075C61.3313 26.992 61.4795 27.036 61.7919 26.9319L61.7859 26.976C61.5075 27.4787 61.9862 27.4967 62.2285 27.6649L62.2706 27.6789L62.2645 27.721C62.3487 27.725 62.4328 27.729 62.5149 27.735L62.5069 27.727C62.4348 27.9032 62.5249 27.9213 62.6651 27.8872L62.6571 27.8772C62.569 28.0514 62.6431 28.1356 62.8173 28.1636C62.8714 28.2177 62.9255 28.2717 62.9775 28.3258C62.8634 28.8265 63.0496 29.3012 63.324 29.6456C64.1071 30.629 64.045 31.8307 63.7165 32.774C63.3801 33.7393 62.7813 34.7046 62.0743 35.5518C61.6877 36.0164 61.167 36.3429 60.8486 36.8596C60.5001 37.2081 60.1496 37.5586 59.8011 37.907C58.3832 39.319 56.803 40.5106 55.0125 41.4119C54.5539 41.472 54.2315 41.8244 53.8129 41.9686C53.2141 42.225 52.6152 42.4813 52.0164 42.7377C51.8382 42.8799 51.5578 42.7878 51.4096 43.0021C51.1612 43.0661 50.9129 43.1302 50.6645 43.1943C50.5684 43.1743 50.5284 43.2304 50.5023 43.3105L50.5083 43.3025C50.3581 43.3185 50.2079 43.3365 50.0597 43.3525C49.8654 43.1403 49.6692 42.928 49.4749 42.7157C49.3808 42.5074 49.2526 42.3331 49.0263 42.251C48.5316 41.504 48.0389 40.759 47.5442 40.0119C47.5062 39.8197 47.4341 39.6514 47.2418 39.5613C46.5188 37.889 45.7358 36.2387 45.2471 34.4763C45.193 34.1759 45.1369 33.8775 45.0829 33.5771V33.5791ZM55.341 25.4859C54.9685 25.0273 54.588 24.6227 53.9751 24.4244C51.0411 23.4711 48.8881 26.7577 49.6131 28.8966C50.3701 31.1357 52.9497 32.9061 55.5112 31.1798C56.7289 30.3586 57.3458 29.213 57.2797 27.727C57.4819 27.4686 57.2817 27.4606 57.1014 27.4386C56.9392 26.1969 56.5326 25.7082 55.6174 25.6501C55.5633 25.53 55.4612 25.4939 55.341 25.4879V25.4859Z" fill="#F7941E"/>
<path d="M76.7304 17.8494C77.0449 19.045 77.1711 20.2747 77.0208 21.4864C76.7765 23.4591 76.2558 25.3357 74.2791 26.3611C74.219 26.287 74.1569 26.2129 74.0968 26.1388C75.7291 24.3604 75.9133 22.1413 75.6049 19.9663C75.4507 18.8808 75.1182 17.6992 74.4313 16.6778C73.8845 15.8666 73.6001 14.8593 72.6328 14.4106C71.0666 13.6836 70.2415 13.4353 68.9577 14.5028C68.3649 14.9955 68.1526 15.7665 67.7881 16.4274C67.0431 17.7713 67.1853 19.1692 67.4036 20.485C67.694 22.2374 68.467 23.8857 69.6647 25.2536C70.3116 25.9926 71.0266 26.6635 72.1641 26.5514C72.6849 26.4993 73.2216 26.259 73.7503 26.5414C73.7784 26.5754 73.8084 26.6075 73.8425 26.6375C73.0534 27.723 73.3117 28.9747 73.3177 30.1764C73.3177 30.4668 73.0333 30.7472 73.2817 31.0376C73.3157 31.1457 73.2697 31.2979 73.4399 31.334C73.3818 33.5691 73.5681 35.8001 73.6422 38.0292C73.6963 39.6394 73.5941 41.2597 73.7684 42.8559C73.9927 44.9187 73.7603 46.9796 73.9166 49.0324C74.0027 50.17 74.0828 51.3055 74.0407 52.4411C73.9025 56.1482 73.504 59.8092 71.9458 63.24C71.6995 63.7827 71.4952 64.3575 71.0466 64.7881C71.0106 64.7921 70.9765 64.7961 70.9405 64.8001C70.9745 64.8322 71.0106 64.8642 71.0446 64.8983C69.7648 67.2675 67.9624 69.1641 65.7974 70.7443C64.0149 72.0421 62.0402 72.9193 59.9052 73.376C58.0587 73.7725 56.1941 73.8526 54.2995 73.4761C53.0037 73.2197 51.7921 72.8092 50.6004 72.2764C50.1838 72.0902 49.8394 71.8458 49.569 71.4874C49.609 71.3832 49.563 71.3572 49.4668 71.3752C49.1885 71.4353 48.9461 71.3932 48.7118 71.199C47.37 70.0894 46.1423 68.8757 45.1769 67.4157C45.1008 67.3016 45.1088 67.1333 45.0768 66.9911C45.1028 66.893 45.0748 66.855 44.9726 66.893C44.2797 66.128 44.0954 65.1346 43.773 64.2073C43.3324 62.9476 43.4125 61.6558 43.4125 60.336C43.4125 58.187 44.0514 56.3745 45.5194 54.8484C45.972 54.3778 46.5328 54.0193 47.2157 53.9311L47.5101 53.9732C44.7503 55.293 43.8331 59.0302 44.3398 61.5617C44.4279 61.9983 44.5801 62.4609 44.514 62.9336C44.478 62.9716 44.4419 63.0097 44.4059 63.0477C44.4439 63.0557 44.482 63.0617 44.52 63.0697C45.0007 64.005 45.241 65.0425 45.7878 65.9517C46.1423 66.5445 46.5809 67.0653 46.9894 67.614C48.107 69.1161 49.6591 70.0053 51.2753 70.8244C52.3709 71.3792 53.5725 71.6536 54.7581 71.7597C57.4218 71.9981 60.0354 71.6836 62.4608 70.4419C63.6364 69.8391 64.7339 69.1201 65.7112 68.2148C67.0451 66.9811 68.2588 65.6553 69.144 64.0531C70.2014 62.1385 70.9825 60.1237 71.343 57.9607C71.8277 55.0447 71.9539 52.0986 71.7636 49.1606C71.6635 47.6204 71.7876 46.0743 71.6174 44.5502C71.4371 42.934 71.5914 41.3218 71.4872 39.7135C71.303 36.8676 71.2028 34.0197 71.1908 31.1678C71.1908 31.0236 71.1568 30.8753 71.1127 30.7372C70.8283 29.8559 71.5333 28.6343 70.7923 28.1115C70.1113 27.6329 69.184 27.4006 68.4951 26.8117C68.441 26.7717 68.3849 26.7316 68.3309 26.6916C67.724 26.0908 67.2754 25.3878 66.8288 24.6548C66.1058 23.4671 65.5731 22.2254 65.1725 20.9016C64.9282 20.0905 64.7679 19.2493 64.9342 18.4562C65.1304 17.5169 65.1184 16.5616 65.4549 15.6183C66.246 13.4013 67.8322 12.1956 69.9751 11.5647C70.2155 11.4946 70.2876 11.4466 70.3016 11.2062C70.3516 10.347 70.3216 9.48585 70.3757 8.62466C70.4057 8.11797 70.1313 7.50712 70.1454 6.91631C70.1794 5.47832 70.2535 4.04034 70.2315 2.60436C70.2215 1.91742 70.3296 1.24248 70.2976 0.559543C70.2856 0.287167 70.3216 0.0728714 70.6501 0.0107858C70.9925 -0.0553053 71.1167 0.19504 71.1527 0.415344C71.2949 1.2565 71.4812 2.08565 71.4952 2.95284C71.5032 3.46956 71.7396 3.98226 71.5233 4.50899C71.5293 4.67922 71.6574 4.74532 71.7836 4.81341C71.7696 6.46368 72.2763 8.09994 71.9278 9.76023C71.9278 9.97653 72.034 10.0727 72.2483 10.0526C72.2463 10.2008 72.2683 10.353 72.2382 10.4952C72.03 11.5187 72.5767 12.0794 73.4279 12.458C73.486 12.6262 73.6121 12.6001 73.7423 12.5741C75.3265 13.5014 75.8092 15.1557 76.414 16.7098C76.5061 16.9461 76.7184 17.2305 76.5742 17.543C76.374 17.7673 76.6443 17.7633 76.7244 17.8514L76.7304 17.8494Z" fill="#202020"/>
<path d="M27.1401 20.8695C26.9558 21.5625 25.8583 22.1272 25.1854 21.8749C25.7962 21.4583 26.4711 21.1719 27.1401 20.8695Z" fill="#202020"/>
<path d="M17.7111 27.0721C17.665 27.2403 17.5388 27.2864 17.3846 27.2884C17.2044 26.9839 16.8879 26.7717 16.7898 26.4112C16.8519 26.273 16.974 26.2409 17.1082 26.2329C17.4587 26.4051 17.2384 26.988 17.7111 27.0721Z" fill="#202020"/>
<path d="M50.8167 45.3954C51.1151 44.9548 51.4556 44.6383 52.0224 44.9848C51.6659 45.2552 51.2773 45.4294 50.8167 45.3954Z" fill="#202020"/>
<path d="M14.8672 40.9272C14.749 40.9031 14.5868 40.9011 14.6128 40.7309C14.6409 40.5507 14.7791 40.4145 14.9573 40.3844C15.1275 40.3564 15.1295 40.5186 15.1536 40.6388C15.0574 40.7349 14.9613 40.831 14.8652 40.9272H14.8672Z" fill="#202020"/>
<path d="M5.7005 42.89C6.12308 42.5575 6.24525 42.8079 6.29732 43.1964C6.05699 43.1744 5.80665 43.1704 5.7005 42.89Z" fill="#202020"/>
<path d="M62.2305 27.6629C61.9882 27.4947 61.5095 27.4787 61.7879 26.974C62.1243 27.0821 62.4568 27.1943 62.2305 27.6629Z" fill="#202020"/>
<path d="M23.2407 23.0867C23.1226 23.355 22.9163 23.4331 22.6419 23.361C22.7501 23.0726 22.8882 22.8423 23.2407 23.0867Z" fill="#FCFCFC"/>
<path d="M40.6247 46.6211C40.6447 46.4709 40.6848 46.3207 40.875 46.3467C41.1094 46.3788 41.0613 46.583 41.0773 46.7413C40.9151 46.7493 40.7248 46.8534 40.6267 46.6211H40.6247Z" fill="#202020"/>
<path d="M6.74396 23.9938C7.31675 23.9618 7.22863 24.2602 7.05038 24.6047C6.86613 24.4424 6.778 24.2321 6.74396 23.9938Z" fill="#202020"/>
<path d="M24.5845 41.0874C25.0492 40.7169 25.0211 41.0834 25.0332 41.3879C24.8829 41.2877 24.7327 41.1876 24.5845 41.0874Z" fill="#202020"/>
<path d="M21.7407 39.281C21.8228 39.1728 21.9229 39.1007 22.0571 39.1788C22.2053 39.265 22.1412 39.3871 22.0891 39.5013C21.983 39.4112 21.7767 39.4813 21.7427 39.281H21.7407Z" fill="#202020"/>
<path d="M29.6816 43.7871C29.7136 43.681 29.6996 43.4987 29.8718 43.5568C30.0381 43.6129 29.972 43.8012 29.988 43.9373C29.8778 43.9013 29.7236 43.9594 29.6816 43.7871Z" fill="#202020"/>
<path d="M72.2543 10.0506C72.04 10.0726 71.9338 9.97448 71.9338 9.75818C72.086 9.80424 72.4425 9.63 72.2543 10.0506Z" fill="#FCFCFC"/>
<path d="M21.8708 23.8297C21.9349 23.8898 22.0391 23.9499 21.9509 24.046C21.8127 24.2002 21.6625 24.0981 21.5223 24.032C21.5884 23.8798 21.7026 23.8077 21.8708 23.8297Z" fill="#202020"/>
<path d="M21.4823 24.0619C21.5384 24.1741 21.6065 24.2943 21.4563 24.3824C21.3241 24.4605 21.2219 24.3884 21.1398 24.2802C21.1739 24.082 21.3762 24.1461 21.4803 24.0599L21.4823 24.0619Z" fill="#202020"/>
<path d="M22.1232 39.5273C22.2573 39.4552 22.4075 39.3831 22.5377 39.4973C22.6339 39.5814 22.5538 39.6715 22.4696 39.7356C22.2974 39.7597 22.1872 39.6795 22.1212 39.5273H22.1232Z" fill="#202020"/>
<path d="M19.0469 25.8104C19.0068 25.9706 19.127 26.3191 18.7405 26.0708C18.8106 25.9446 18.8747 25.8144 19.0469 25.8104Z" fill="#202020"/>
<path d="M76.7305 17.8494C76.6504 17.7613 76.38 17.7653 76.5803 17.541C76.7705 17.5751 76.9788 17.6011 76.7305 17.8494Z" fill="#FCFCFC"/>
<path d="M62.8133 37.3423C62.8733 37.2021 62.643 36.7775 63.1117 37.0378L62.8133 37.3423Z" fill="#202020"/>
<path d="M48.4194 46.1424C48.4435 46.0103 48.3653 45.824 48.5636 45.7839C48.6758 45.7619 48.7018 45.8861 48.7178 45.9822C48.6177 46.0363 48.5176 46.0884 48.4174 46.1424H48.4194Z" fill="#202020"/>
<path d="M74.2811 26.3611C74.201 26.5594 73.9707 26.5153 73.8425 26.6375C73.8105 26.6074 73.7784 26.5754 73.7504 26.5414C73.8665 26.4072 73.9827 26.273 74.0989 26.1388C74.1589 26.2129 74.221 26.287 74.2811 26.3611Z" fill="#202020"/>
<path d="M71.7897 4.81138C71.6635 4.74328 71.5353 4.6792 71.5293 4.50696C71.6875 4.54701 72.034 4.42484 71.7897 4.81138Z" fill="#FCFCFC"/>
<path d="M47.5142 53.9752L47.2198 53.9331C47.2638 53.861 47.3059 53.7328 47.356 53.7308C47.5142 53.7208 47.5002 53.867 47.5142 53.9772V53.9752Z" fill="#FDFDFD"/>
<path d="M23.8355 40.6389C24.1079 40.3805 24.1059 40.6148 24.1299 40.8031C24.0198 40.769 23.8736 40.8031 23.8355 40.6389Z" fill="#202020"/>
<path d="M73.44 31.334C73.2697 31.298 73.3158 31.1457 73.2817 31.0376C73.472 31.0616 73.6783 31.0797 73.44 31.334Z" fill="#FDFDFD"/>
<path d="M73.7463 12.5721C73.6181 12.6001 73.49 12.6242 73.4319 12.4559C73.5681 12.4079 73.7323 12.2837 73.7463 12.5721Z" fill="#FCFCFC"/>
<path d="M55.9478 43.1743C55.9658 42.9761 56.108 43.0562 56.2142 43.0562C56.2162 43.2985 56.094 43.2624 55.9478 43.1743Z" fill="#FDFDFD"/>
<path d="M62.9795 28.3238C62.9254 28.2698 62.8714 28.2157 62.8193 28.1616C62.8133 28.1176 62.8193 28.0755 62.8393 28.0334C63.0096 28.0435 63.0977 28.1316 63.1077 28.3018C63.0676 28.3198 63.0256 28.3279 62.9815 28.3218L62.9795 28.3238Z" fill="#FCFCFC"/>
<path d="M52.7955 44.6724C52.8075 44.4621 52.9537 44.5423 53.0658 44.5503C53.0699 44.7966 52.9437 44.7606 52.7955 44.6724Z" fill="#FCFCFC"/>
<path d="M62.8393 28.0354C62.8213 28.0755 62.8132 28.1175 62.8193 28.1636C62.647 28.1356 62.5709 28.0514 62.659 27.8772C62.7191 27.9293 62.7792 27.9833 62.8393 28.0354Z" fill="#232323"/>
<path d="M62.667 27.8852C62.5269 27.9172 62.4367 27.9012 62.5088 27.725C62.5609 27.7791 62.615 27.8311 62.667 27.8852Z" fill="#232323"/>
<path d="M49.4709 71.3772C49.567 71.3572 49.6111 71.3853 49.573 71.4894C49.539 71.4513 49.5049 71.4153 49.4709 71.3772Z" fill="#FDFDFD"/>
<path d="M4.36066 41.3699C4.39671 41.3879 4.43276 41.4059 4.46881 41.4219C4.43276 41.458 4.39871 41.494 4.36266 41.5301C4.36266 41.476 4.36266 41.4239 4.36066 41.3699Z" fill="#FDFDFD"/>
<path d="M59.2463 40.9232C59.2523 40.8872 59.2563 40.8511 59.2624 40.8151C59.2964 40.8491 59.3325 40.8852 59.3665 40.9192C59.3264 40.9212 59.2864 40.9232 59.2463 40.9232Z" fill="#FCFCFC"/>
<path d="M20.543 38.3837C20.6371 38.3837 20.6932 38.4157 20.6651 38.5219C20.6251 38.4758 20.585 38.4297 20.543 38.3837Z" fill="#FCFCFC"/>
<path d="M20.4008 38.2275C20.4228 38.1875 20.4449 38.1494 20.4669 38.1094C20.4769 38.1494 20.4849 38.1875 20.4949 38.2275H20.4489H20.4028H20.4008Z" fill="#FCFCFC"/>
<path d="M18.8947 37.1841C18.9888 37.1841 19.0449 37.2181 19.0169 37.3243C18.9768 37.2782 18.9348 37.2321 18.8947 37.1841Z" fill="#FCFCFC"/>
<path d="M68.3349 26.6917C68.389 26.7317 68.445 26.7718 68.4991 26.8118C68.395 26.8399 68.3589 26.7738 68.3349 26.6917Z" fill="#232323"/>
<path d="M44.5241 63.0717C44.486 63.0637 44.448 63.0577 44.4099 63.0497C44.446 63.0117 44.482 62.9736 44.5181 62.9355C44.5221 62.9796 44.5241 63.0257 44.5241 63.0697V63.0717Z" fill="#FCFCFC"/>
<path d="M71.0486 64.9003C71.0146 64.8683 70.9785 64.8362 70.9445 64.8022C70.9805 64.7982 71.0146 64.7942 71.0506 64.7902C71.0506 64.8262 71.0506 64.8643 71.0506 64.9003H71.0486Z" fill="#FCFCFC"/>
<path d="M44.9767 66.895C45.0788 66.857 45.1069 66.895 45.0808 66.9932C45.0328 66.9751 44.9987 66.9411 44.9767 66.895Z" fill="#FDFDFD"/>
<path d="M30.733 19.3775C30.6789 19.4136 30.6229 19.4496 30.5688 19.4877C30.5948 19.4096 30.6249 19.3355 30.733 19.3775Z" fill="#202020"/>
<path d="M62.5189 27.733C62.4348 27.729 62.3507 27.725 62.2686 27.719C62.2966 27.6709 62.3166 27.5888 62.3527 27.5808C62.4588 27.5568 62.4929 27.6489 62.5209 27.733H62.5189Z" fill="#232323"/>
<path d="M35.3814 43.3245C34.7726 43.2083 34.2278 42.8579 33.5889 42.8539C33.3446 42.5875 33.0182 42.5675 32.6897 42.5534C31.4941 42.0568 30.2984 41.5601 29.1048 41.0634C28.8784 40.8952 28.6161 40.815 28.3437 40.757C27.839 40.3804 27.2742 40.1201 26.6894 39.8998L26.0906 39.5693C25.5459 39.1287 24.9631 38.7582 24.3001 38.5199C24.2561 38.4257 24.3081 38.2695 24.1339 38.2575C23.2767 38.0492 22.6739 37.3983 21.9449 36.9697C21.6164 36.7775 21.0857 36.7895 20.9976 36.2588C20.9575 36.2147 20.9155 36.1726 20.8754 36.1286C20.3707 35.726 19.868 35.3235 19.3633 34.9189C18.9988 34.4763 18.6263 34.0437 18.1537 33.7092C17.9053 33.0684 17.3265 32.5516 17.4227 31.7806C17.681 31.7766 17.8212 31.5963 17.9494 31.4101C18.364 30.8072 18.9007 30.3206 19.4515 29.8539C22.3154 27.4186 25.65 25.8144 29.1168 24.4565C30.737 23.8236 32.3793 23.2448 34.0756 22.8423C35.5476 22.4938 37.0217 22.1473 38.5378 22.0371C38.9243 22.0091 39.1146 22.0412 39.0204 22.5619C38.8422 23.5352 38.738 24.5286 38.698 25.5179C38.6039 27.9072 38.736 30.2845 39.1106 32.6558C39.7835 36.9077 41.3116 40.805 43.769 44.3379C42.3671 44.4941 40.9771 44.2177 39.5792 44.2077C39.4711 44.0155 39.2928 44.0695 39.1266 44.0795C38.2293 43.9253 37.3321 43.7691 36.4349 43.6149C36.1124 43.4126 35.7479 43.3626 35.3794 43.3225L35.3814 43.3245Z" fill="#F7941E"/>
<path d="M43.771 44.3399C41.3116 40.8071 39.7855 36.9097 39.1126 32.6578C38.7381 30.2866 38.6059 27.9093 38.7 25.52C38.7381 24.5306 38.8442 23.5372 39.0225 22.5639C39.1186 22.0432 38.9264 22.0111 38.5398 22.0392C37.0237 22.1513 35.5497 22.4958 34.0777 22.8443C32.3813 23.2468 30.7371 23.8256 29.1188 24.4585C25.6521 25.8144 22.3175 27.4186 19.4535 29.856C18.9048 30.3226 18.366 30.8093 17.9514 31.4121C17.8233 31.5984 17.6831 31.7786 17.4247 31.7826C17.3446 30.631 17.9534 29.7598 18.6544 28.9687C19.2352 28.3118 19.9222 27.7471 20.561 27.1422C20.6752 27.1282 20.8074 27.1562 20.8554 27.002C21.1498 26.988 21.1519 26.6876 21.3101 26.5414C21.4603 26.4413 21.6085 26.3411 21.7587 26.241C21.8728 26.2189 22.007 26.237 22.0591 26.0928C22.2734 26.1048 22.3355 25.9686 22.3515 25.7883C22.9423 25.4359 23.5331 25.0814 24.1239 24.7289C24.2762 24.6868 24.3923 24.6007 24.4524 24.4505C24.6026 24.3484 24.7508 24.2442 24.901 24.1421C25.0572 24.112 25.2555 24.2142 25.3476 23.9939C25.5479 23.8437 25.7462 23.6935 25.9465 23.5433C26.0646 23.5332 26.2008 23.5653 26.2509 23.4071C27.064 22.8523 27.9652 22.3076 28.8204 21.9971C30.2985 21.4624 31.7525 20.8055 33.2866 20.4109C34.6324 20.0645 35.9883 19.764 37.3462 19.4676C39.4411 19.009 41.542 19.3094 43.6349 19.1953C43.9893 19.1752 44.2757 19.4516 44.7584 19.3054C44.2457 20.1105 43.9413 20.8495 43.6529 21.5946C43.6068 21.7948 43.5608 21.9951 43.5147 22.1934C43.2003 22.7442 43.0781 23.347 43.022 23.9698C42.9459 23.9979 42.8798 24.0339 42.9199 24.1341C42.8738 24.9712 42.8097 25.8564 42.6395 26.6255C42.3851 27.7711 42.5433 28.8706 42.4552 29.9841C42.4552 30.0843 42.4552 30.1844 42.4572 30.2846C42.4232 31.308 42.4072 32.3093 42.8277 33.3027C42.9759 33.6512 42.8257 34.1839 42.9058 34.6305C43.006 34.981 43.1061 35.3295 43.2063 35.68C43.6369 36.425 43.6709 37.2962 43.9693 38.0833C43.9373 38.1814 43.9994 38.2135 44.0755 38.2355L44.0715 38.2315C44.0935 38.3437 44.0574 38.4839 44.2136 38.5339C44.44 38.9805 44.6643 39.4272 44.8906 39.8738C45.0067 40.1742 45.1489 40.4586 45.4173 40.6589C45.5655 41.4079 46.2144 41.8265 46.5829 42.4313C46.6831 42.5955 46.8353 42.7257 46.9654 42.8699C47.1096 43.2104 47.4 43.4167 47.6744 43.637C47.7105 43.7912 48.083 44.0035 47.5983 44.0696C47.1757 44.1256 46.7532 44.1857 46.3306 44.2438C46.1183 44.2378 45.888 44.1397 45.7217 44.364C45.0748 44.356 44.4279 44.3479 43.7811 44.3399H43.771Z" fill="#FFB05A"/>
<path d="M16.7878 26.4112C16.886 26.7717 17.2024 26.984 17.3826 27.2884C17.3366 27.3865 17.2925 27.4846 17.2465 27.5848C17.0482 27.6569 16.932 27.7891 16.932 28.0074C16.8359 28.1155 16.7378 28.2237 16.6416 28.3318C16.4894 28.3739 16.4914 28.5061 16.4714 28.6242C16.4273 28.6763 16.3813 28.7264 16.3372 28.7784C16.189 28.8285 16.195 28.9587 16.181 29.0768C15.8645 29.4173 15.7424 29.8559 15.5822 30.2745C15.3779 30.4267 15.456 30.6991 15.3258 30.8813C15.3258 31.0315 15.3298 31.1817 15.3318 31.332C15.3278 31.4321 15.3258 31.5322 15.3218 31.6304C15.2357 32.4535 15.3558 33.2226 15.8986 33.8835C15.8986 34.0056 15.8906 34.1298 16.0368 34.1839C16.2711 34.6105 16.4774 35.0591 16.8699 35.3775C16.8099 35.4316 16.7498 35.4857 16.6897 35.5398C16.4494 35.3976 16.2471 35.3855 16.0308 35.6179C15.472 36.2207 14.8612 36.7674 14.2223 37.2902C12.9445 38.3356 11.5586 39.2128 10.0746 39.9238C9.43769 40.2302 8.99708 39.8978 9.0151 39.1888C9.02111 38.9705 9.07519 38.7462 9.13927 38.5359C9.60191 37.0138 10.0585 35.4897 10.5472 33.9736C11.5967 30.7211 11.6407 27.4566 10.8476 24.138C10.383 22.1933 9.664 20.3448 9.00909 18.4702C9.62995 18.5363 10.1106 18.9028 10.5252 19.3034C11.5987 20.3388 12.6241 21.4263 13.6675 22.4938C13.6675 22.5859 13.7156 22.63 13.8037 22.64C14.7991 23.8977 15.7945 25.1554 16.7898 26.4132L16.7878 26.4112Z" fill="#F15A29"/>
<path d="M9.00706 18.4702C9.66196 20.3448 10.383 22.1933 10.8456 24.138C11.6367 27.4566 11.5946 30.7211 10.5452 33.9736C10.0565 35.4877 9.60188 37.0118 9.13723 38.5359C9.07315 38.7482 9.01707 38.9705 9.01306 39.1888C8.99704 39.8977 9.43565 40.2302 10.0725 39.9238C11.5566 39.2128 12.9425 38.3376 14.2202 37.2901C14.8571 36.7674 15.468 36.2207 16.0287 35.6178C16.245 35.3855 16.4493 35.3975 16.6876 35.5397C16.6756 35.5858 16.6756 35.6319 16.6876 35.6779C16.6015 35.8922 16.5154 36.1065 16.4293 36.3208C16.1349 36.3909 16.0888 36.6312 16.0468 36.8756C15.2396 37.7708 14.4345 38.666 13.6274 39.5633C13.4772 39.6594 13.2769 39.6834 13.1928 39.8717C13.1388 39.9198 13.0867 39.9678 13.0326 40.0139C12.9144 40.0199 12.7903 40.0159 12.7482 40.1661C12.4899 40.3203 12.2315 40.4725 11.9731 40.6267C11.9331 40.6648 11.895 40.7028 11.855 40.7409C11.8069 40.7529 11.7568 40.7629 11.7088 40.7749C11.6587 40.811 11.6086 40.847 11.5586 40.8831C10.423 41.1695 9.32549 41.6822 8.10581 41.4939C8.06976 41.2997 8.01769 41.1455 7.8074 41.3698C6.52363 41.1635 6.04697 40.2642 6.55567 38.9564C6.70588 38.5719 6.82805 38.1854 6.89214 37.7788C7.18855 37.7708 7.21458 37.5665 7.21258 37.3402C7.22259 37.2361 7.23261 37.1299 7.24262 37.0258C7.43288 37.0098 7.50699 36.8976 7.50298 36.7174C7.79338 35.5297 8.48433 34.5063 8.88088 33.3627C8.99304 33.0403 9.14725 32.7359 9.17128 32.3874C9.31748 32.3253 9.30547 32.2051 9.27943 32.081C10.437 29.0508 10.3229 26.1127 8.65257 23.2848C8.46631 22.9684 8.29207 22.6439 8.11182 22.3235C8.10381 22.1332 8.12784 21.925 7.85547 21.8909C7.59711 21.0658 7.02833 20.3308 7.19456 19.3814C7.24663 19.083 7.27867 18.8107 7.50098 18.5924C7.67922 18.5924 7.79338 18.5203 7.8074 18.33C8.21596 18.306 8.63454 18.1878 9.00706 18.4702Z" fill="#F24619"/>
<path d="M59.8031 37.9071C60.1516 37.5586 60.5021 37.2081 60.8505 36.8596C60.9427 37.4384 60.7244 37.849 60.1956 38.1053C59.9593 38.2215 59.8271 38.1875 59.8031 37.9071Z" fill="#202020"/>
<path d="M18.1537 33.7113C18.6263 34.0458 18.9989 34.4784 19.3634 34.921C18.5823 34.8769 18.1977 34.4904 18.1537 33.7113Z" fill="#202020"/>
<path d="M53.8129 41.9707C54.2314 41.8245 54.5539 41.474 55.0125 41.4139C54.8203 42.1189 54.3296 42.3472 53.8129 41.9707Z" fill="#202020"/>
<path d="M43.2002 35.678C43.1001 35.3275 42.9999 34.979 42.8998 34.6285C43.4946 34.8508 43.6068 35.2434 43.2002 35.678Z" fill="#202020"/>
<path d="M47.6644 43.6369C47.39 43.4166 47.0996 43.2103 46.9554 42.8699C47.5422 42.8018 47.7345 43.0982 47.6644 43.6369Z" fill="#202020"/>
<path d="M32.6898 42.5535C33.0182 42.5675 33.3447 42.5875 33.589 42.8539C33.1724 43.1062 32.87 43.0081 32.6898 42.5535Z" fill="#202020"/>
<path d="M35.3815 43.3246C35.75 43.3626 36.1145 43.4147 36.4369 43.617C36.0123 43.7792 35.6418 43.7512 35.3815 43.3246Z" fill="#202020"/>
<path d="M26.0906 39.5693L26.6894 39.8998C26.6634 40.028 26.7195 40.2823 26.5332 40.2282C26.2508 40.1461 26.0526 39.9138 26.0906 39.5693Z" fill="#202020"/>
<path d="M45.4093 40.6568C45.1429 40.4565 45.0007 40.1721 44.8826 39.8717C45.4634 39.8637 45.4353 40.2602 45.4093 40.6568Z" fill="#202020"/>
<path d="M45.0828 33.5791C45.1369 33.8795 45.1929 34.1779 45.247 34.4783C44.9226 34.228 44.5861 33.9797 45.0828 33.5791Z" fill="#202020"/>
<path d="M28.3438 40.757C28.6161 40.813 28.8785 40.8931 29.1048 41.0634C28.7323 41.2556 28.4078 41.3297 28.3438 40.757Z" fill="#202020"/>
<path d="M43.5107 22.1914C43.5567 21.9911 43.6028 21.7908 43.6489 21.5925C43.8712 21.6186 43.9393 21.7588 43.9092 21.961C43.8732 22.1994 43.6829 22.1853 43.5087 22.1934L43.5107 22.1914Z" fill="#202020"/>
<path d="M16.0468 36.8757C16.0868 36.6313 16.1329 36.391 16.4293 36.3209C16.5955 36.7075 16.4713 36.8957 16.0468 36.8757Z" fill="#202020"/>
<path d="M51.4095 43.0041C51.5557 42.7898 51.8381 42.8819 52.0164 42.7397C51.9883 43.2264 51.7841 43.3125 51.4095 43.0041Z" fill="#202020"/>
<path d="M15.3258 30.8833C15.456 30.6991 15.3779 30.4287 15.5822 30.2765C15.8886 30.645 15.8145 30.8513 15.3258 30.8833Z" fill="#202020"/>
<path d="M25.3416 23.9918C25.2495 24.2141 25.0492 24.11 24.895 24.14C24.8089 24.078 24.7468 23.9738 24.8389 23.9097C25.0152 23.7896 25.1994 23.8056 25.3436 23.9898L25.3416 23.9918Z" fill="#202020"/>
<path d="M24.4463 24.4506C24.3862 24.6028 24.2701 24.6869 24.1179 24.7289C23.9957 24.6148 23.9456 24.4786 24.0838 24.3604C24.222 24.2423 24.3502 24.3144 24.4443 24.4486L24.4463 24.4506Z" fill="#202020"/>
<path d="M7.21261 37.3423C7.21261 37.5666 7.18858 37.7729 6.89217 37.7809C6.65184 37.3823 7.16655 37.5325 7.21261 37.3423Z" fill="#EF4619"/>
<path d="M47.2418 39.5634C47.4341 39.6535 47.5062 39.8217 47.5442 40.014C47.3139 39.9499 46.9234 39.996 47.2418 39.5634Z" fill="#202020"/>
<path d="M45.7137 44.3639C45.8799 44.1396 46.1102 44.2378 46.3225 44.2438C46.2064 44.7204 45.938 44.432 45.7137 44.3639Z" fill="#202020"/>
<path d="M16.934 28.0074C16.934 27.7891 17.0502 27.6569 17.2485 27.5848C17.1323 27.717 17.5108 28.2177 16.934 28.0074Z" fill="#202020"/>
<path d="M50.0597 43.3545C50.2099 43.3385 50.3601 43.3205 50.5083 43.3044C50.5003 43.4567 50.4763 43.5988 50.278 43.5968C50.1258 43.5948 50.0917 43.4727 50.0597 43.3565V43.3545Z" fill="#202020"/>
<path d="M39.1286 44.0816C39.2948 44.0736 39.4731 44.0175 39.5812 44.2098C39.3469 44.4581 39.1987 44.404 39.1286 44.0816Z" fill="#202020"/>
<path d="M12.7502 40.1661C12.7923 40.0159 12.9165 40.0199 13.0346 40.0139C13.1247 40.07 13.2009 40.1601 13.1127 40.2422C12.9765 40.3744 12.8484 40.3003 12.7482 40.1661H12.7502Z" fill="#202020"/>
<path d="M16.0348 34.1859C15.8886 34.1318 15.8966 34.0056 15.8966 33.8855C15.9566 33.7973 16.0488 33.7313 16.1269 33.8234C16.247 33.9656 16.1709 34.0918 16.0328 34.1859H16.0348Z" fill="#202020"/>
<path d="M49.0263 42.2531C49.2526 42.3352 49.3808 42.5094 49.4749 42.7177C49.1264 42.7537 48.9822 42.5935 49.0263 42.2531Z" fill="#202020"/>
<path d="M22.3454 25.7883C22.3294 25.9686 22.2673 26.1028 22.053 26.0928C21.8227 25.6762 22.1952 25.8404 22.3454 25.7883Z" fill="#202020"/>
<path d="M20.8514 27.002C20.8034 27.1542 20.6712 27.1282 20.557 27.1422C20.4669 27.0841 20.3968 26.992 20.4869 26.9119C20.6291 26.7857 20.7553 26.8638 20.8494 27.004L20.8514 27.002Z" fill="#202020"/>
<path d="M21.7547 26.241C21.6045 26.3411 21.4563 26.4413 21.306 26.5414C21.1719 26.0187 21.5924 26.3231 21.7547 26.241Z" fill="#202020"/>
<path d="M13.1948 39.8697C13.2789 39.6814 13.4792 39.6574 13.6294 39.5613C13.7015 39.7629 13.5567 39.8657 13.1948 39.8697Z" fill="#202020"/>
<path d="M7.85547 21.891C8.12785 21.925 8.10382 22.1333 8.11183 22.3236C7.91155 22.2475 7.78538 22.1273 7.85547 21.891Z" fill="#EF4619"/>
<path d="M16.6876 35.678C16.6736 35.6319 16.6736 35.5859 16.6876 35.5398C16.7477 35.4857 16.8078 35.4316 16.8679 35.3776C16.96 35.3996 17.0662 35.4376 17.0381 35.5438C16.9881 35.724 16.8158 35.658 16.6896 35.678H16.6876Z" fill="#232323"/>
<path d="M44.2076 38.5319C44.0514 38.4818 44.0895 38.3416 44.0654 38.2295C44.2677 38.2575 44.456 38.2916 44.2076 38.5319Z" fill="#202020"/>
<path d="M7.50298 36.7174C7.50698 36.8977 7.43288 37.0098 7.24262 37.0258C7.18053 36.7955 7.35878 36.7715 7.50298 36.7174Z" fill="#EF4619"/>
<path d="M26.2469 23.4051C26.1968 23.5633 26.0586 23.5312 25.9424 23.5412C25.9745 23.343 26.0145 23.1587 26.2469 23.4051Z" fill="#202020"/>
<path d="M9.28147 32.0811C9.3055 32.2052 9.31952 32.3254 9.17332 32.3875C8.93098 32.1872 9.07118 32.1211 9.28147 32.0811Z" fill="#202020"/>
<path d="M15.3198 31.6304C15.3238 31.5303 15.3258 31.4302 15.3298 31.332C15.4259 31.3481 15.5401 31.3621 15.5361 31.4862C15.5321 31.6084 15.4159 31.6164 15.3198 31.6304Z" fill="#202020"/>
<path d="M7.8074 18.328C7.79338 18.5183 7.67922 18.5924 7.50098 18.5904C7.50698 18.3901 7.5871 18.278 7.8074 18.328Z" fill="#EF4619"/>
<path d="M42.4512 30.2825C42.4512 30.1823 42.4512 30.0822 42.4492 29.9821C42.5454 29.9961 42.6595 30.0081 42.6615 30.1303C42.6615 30.2544 42.5474 30.2664 42.4512 30.2805V30.2825Z" fill="#202020"/>
<path d="M16.183 29.0789C16.197 28.9588 16.189 28.8286 16.3392 28.7805C16.5835 29.0349 16.3793 29.0549 16.183 29.0789Z" fill="#202020"/>
<path d="M7.80743 41.3699C8.01772 41.1455 8.0698 41.3018 8.10585 41.494C7.97967 41.5161 7.86351 41.514 7.80743 41.3699Z" fill="#EF4619"/>
<path d="M16.4714 28.6242C16.4934 28.506 16.4894 28.3738 16.6416 28.3318C16.8799 28.6022 16.6596 28.6042 16.4714 28.6242Z" fill="#202020"/>
<path d="M24.1339 38.2595C24.3082 38.2715 24.2561 38.4278 24.3002 38.5219C24.0819 38.5379 24.0258 38.4498 24.1339 38.2595Z" fill="#232323"/>
<path d="M13.8017 22.638C13.7136 22.628 13.6635 22.5839 13.6655 22.4918C13.7116 22.5399 13.7556 22.59 13.8017 22.638Z" fill="#202020"/>
<path d="M50.5023 43.3125C50.5264 43.2324 50.5684 43.1763 50.6645 43.1963C50.6105 43.2344 50.5564 43.2744 50.5023 43.3125Z" fill="#202020"/>
<path d="M42.9138 24.1341C42.8758 24.0339 42.9399 23.9979 43.016 23.9698L42.9138 24.1341Z" fill="#202020"/>
<path d="M11.5586 40.8832C11.6087 40.8471 11.6587 40.8111 11.7088 40.775C11.6868 40.8511 11.6547 40.9132 11.5586 40.8832Z" fill="#EF4619"/>
<path d="M11.857 40.741C11.897 40.7029 11.9351 40.6649 11.9752 40.6268C11.9912 40.721 11.9531 40.761 11.857 40.741Z" fill="#EF4619"/>
<path d="M44.0694 38.2335C43.9913 38.2115 43.9292 38.1794 43.9633 38.0813L44.0694 38.2335Z" fill="#202020"/>
<path d="M20.8755 36.1306C20.9155 36.1747 20.9576 36.2167 20.9976 36.2608C20.9075 36.2628 20.8574 36.2308 20.8755 36.1306Z" fill="#F3921E"/>
<path d="M57.2796 27.7271C57.3457 29.2131 56.7269 30.3587 55.5112 31.1798C52.9517 32.9062 50.3701 31.1358 49.6131 28.8967C48.8901 26.7577 51.041 23.4712 53.9751 24.4245C54.5879 24.6228 54.9684 25.0273 55.341 25.486C55.3329 25.5781 55.3249 25.6702 55.3169 25.7624C54.7381 25.7203 54.2074 25.4039 53.6046 25.486C52.6853 25.6121 51.9783 25.9646 51.6579 26.942C51.3915 27.7551 51.6519 28.424 52.1506 28.9548C52.6092 29.4434 53.3903 29.7358 54.2234 29.3894C54.8483 29.129 55.2648 28.39 55.3269 27.6169C55.375 27.0141 54.9244 26.3692 55.4591 25.8064C55.5112 25.7543 55.5653 25.7003 55.6173 25.6482C56.5346 25.7083 56.9392 26.197 57.1014 27.4367C57.1374 27.5468 57.1214 27.689 57.2796 27.7251V27.7271Z" fill="#212120"/>
<path d="M55.6174 25.6501C55.5653 25.7022 55.5112 25.7563 55.4591 25.8084C55.4111 25.7943 55.363 25.7783 55.317 25.7643C55.325 25.6722 55.333 25.58 55.341 25.4879C55.4612 25.4939 55.5633 25.53 55.6174 25.6501Z" fill="#F3921E"/>
<path d="M57.2796 27.727C57.1214 27.6909 57.1374 27.5488 57.1014 27.4386C57.2816 27.4606 57.4819 27.4706 57.2796 27.727Z" fill="#F3921E"/>
<path d="M74.0989 26.1408C73.9827 26.275 73.8665 26.4092 73.7504 26.5434C73.2216 26.261 72.6849 26.5013 72.1642 26.5534C71.0266 26.6655 70.3096 25.9946 69.6647 25.2556C68.4671 23.8877 67.694 22.2394 67.4036 20.487C67.1853 19.1712 67.0431 17.7733 67.7881 16.4294C68.1547 15.7685 68.3649 14.9974 68.9578 14.5048C70.2415 13.4393 71.0667 13.6876 72.6328 14.4126C73.6022 14.8613 73.8846 15.8687 74.4313 16.6798C75.1203 17.7012 75.4527 18.8828 75.6049 19.9683C75.9134 22.1453 75.7291 24.3624 74.0968 26.1408H74.0989Z" fill="#939598"/>
<path d="M55.3169 25.7623C55.365 25.7764 55.413 25.7924 55.4591 25.8064C54.9224 26.3712 55.375 27.0141 55.3269 27.6169C55.2648 28.39 54.8483 29.129 54.2234 29.3893C53.3903 29.7338 52.6092 29.4414 52.1505 28.9547C51.6499 28.424 51.3895 27.7531 51.6579 26.942C51.9803 25.9626 52.6853 25.6121 53.6045 25.486C54.2054 25.4038 54.7381 25.7203 55.3169 25.7623Z" fill="white"/>
</g>
<defs>
<filter id="filter0_d_1_1649" x="0" y="0" width="81.084" height="81.7198" filterUnits="userSpaceOnUse" color-interpolation-filters="sRGB">
<feFlood flood-opacity="0" result="BackgroundImageFix"/>
<feColorMatrix in="SourceAlpha" type="matrix" values="0 0 0 0 0 0 0 0 0 0 0 0 0 0 0 0 0 0 127 0" result="hardAlpha"/>
<feOffset dy="4"/>
<feGaussianBlur stdDeviation="2"/>
<feComposite in2="hardAlpha" operator="out"/>
<feColorMatrix type="matrix" values="0 0 0 0 0 0 0 0 0 0 0 0 0 0 0 0 0 0 0.25 0"/>
<feBlend mode="normal" in2="BackgroundImageFix" result="effect1_dropShadow_1_1649"/>
<feBlend mode="normal" in="SourceGraphic" in2="effect1_dropShadow_1_1649" result="shape"/>
</filter>
</defs>
</svg>
