<svg width="40" height="50" viewBox="0 0 46 52" fill="none" xmlns="http://www.w3.org/2000/svg">
<path d="M12.8433 7.9429C12.9779 7.93458 13.1139 7.92764 13.2486 7.91931C13.286 7.91931 13.3249 7.91931 13.3624 7.91931C13.4304 7.91654 13.4984 7.91237 13.5678 7.9096L13.5595 7.94568C13.7329 8.06504 13.9092 8.07059 14.0868 7.95401C14.9584 8.10251 15.8383 8.00675 16.714 8.02063C17.7855 8.03867 18.8583 8.01091 19.9297 8.03173C20.3211 8.04005 20.4238 7.90266 20.4335 7.52377C20.4488 6.97002 20.3058 6.43431 20.3155 5.8861C20.3405 4.63009 20.3974 3.37547 20.3877 2.11946C20.3766 0.759361 21.0539 0.24863 22.2988 0.0723718C22.9261 -0.016451 23.577 0.0695961 24.2154 0.0376754C24.4444 0.0265725 24.5527 0.291653 24.7803 0.215321C24.815 0.215321 24.8497 0.215321 24.8844 0.216709C25.9225 0.555346 26.1959 1.12992 26.2153 2.24159C26.2472 4.04025 26.2334 5.8403 26.2153 7.64035C26.2125 7.99981 26.2653 8.12194 26.6789 8.14137C28.9383 8.24685 31.2005 8.15247 33.4558 8.25517C34.9963 8.32456 36.5632 8.25517 38.0787 8.64794C39.4374 9.00045 40.6684 9.63609 41.8412 10.3925C43.0833 11.1933 44.2172 12.1328 45.3219 13.1071C45.3441 13.1626 45.3691 13.2154 45.4454 13.1987C46.3378 14.0647 46.0575 15.4998 45.2817 16.3658C44.381 17.372 43.5205 18.406 42.37 19.136C41.5136 19.6786 40.6004 19.9659 39.5609 20.1158C37.3959 20.4267 35.2433 20.1852 33.088 20.2296C30.9271 20.274 28.7648 20.2116 26.6025 20.1769C26.2639 20.1713 26.1487 20.2546 26.1653 20.6015C26.1917 21.1706 26.1751 21.7424 26.1709 22.3142C26.1695 22.5265 26.1959 22.6528 26.4721 22.6722C27.7114 22.7583 28.9563 22.9304 30.1887 22.929C31.1852 22.929 32.0651 23.3217 33.0186 23.3953C33.1837 23.4078 33.3683 23.4453 33.3295 23.6937C33.1574 23.6937 32.9811 23.7228 32.8146 23.6937C31.6654 23.4786 30.5079 23.4647 29.3463 23.5133C29.1576 23.3426 28.9272 23.3953 28.7065 23.3911C24.9968 23.312 21.2884 23.3828 17.5801 23.4924C16.5142 23.5244 15.4483 23.5799 14.3838 23.6229C12.7281 23.6895 11.078 23.8908 9.42225 24.0115C7.90255 24.1225 6.5022 24.4584 5.46686 25.713C4.94364 26.3473 4.3427 26.9163 3.78755 27.5242C3.24629 28.1168 2.70919 28.7122 2.19568 29.3284C2.08327 29.4644 1.82096 29.6087 2.05967 29.8905C2.5246 30.4414 2.95345 31.0243 3.60158 31.3838C4.23861 32.0375 5.01303 32.5191 5.82076 32.8924C7.80956 33.8112 9.92743 34.1068 12.1078 33.9694C13.2611 33.9791 14.413 33.9513 15.5663 33.9C17.3525 33.8181 19.1414 33.7695 20.929 33.6863C23.2536 33.5766 25.5811 33.4878 27.9071 33.4781C29.7016 33.4697 31.4906 33.3157 33.2837 33.331C33.3739 33.3879 33.471 33.4892 33.5182 33.2921C33.4821 32.8258 33.6903 32.3997 33.6792 31.914C33.6598 30.9924 33.8735 30.0695 33.9013 29.1438C33.9415 27.7809 33.904 26.4153 33.9013 25.051C33.9457 24.6985 33.8499 24.3182 34.1053 24.0073C34.1497 24.0073 34.1941 24.0101 34.2399 24.0101C34.3523 24.0087 34.4023 24.0434 34.4439 24.1725C34.8422 25.4035 35.0698 26.6609 35.0573 27.9572C35.0546 28.1987 35.1295 28.4332 35.1378 28.6664C35.1781 29.8141 35.0934 30.9563 34.9727 32.0999C34.8936 32.8424 34.8339 33.5877 34.7562 34.3302C34.7298 34.5773 34.6757 34.7049 34.3995 34.716C33.0311 34.7757 31.6626 34.9201 30.2984 34.8895C29.635 34.8743 29.0021 35.0519 28.3582 35.0117C27.6517 34.9672 26.9648 35.0991 26.268 35.1199C25.9877 35.1282 26.0252 35.2878 26.0252 35.4585C26.0252 36.115 26.0418 36.7728 26.0252 37.4293C26.003 38.2537 25.953 39.0781 25.9141 39.9025C25.835 39.9927 25.6699 39.9691 25.6296 40.1134C25.6921 40.4118 25.9044 40.6741 25.8267 41.0114C25.7976 41.1363 25.9114 41.2112 26.0363 41.2556C26.5179 41.4263 26.9967 41.6054 27.4769 41.783C27.5046 41.8982 27.6087 41.8635 27.6837 41.8899C29.3324 42.4811 30.7952 43.3568 31.9624 44.685C31.9472 44.7572 31.9749 44.7863 32.0485 44.7711C33.4724 46.2519 34.2413 47.9673 33.7958 50.0477C33.6154 50.8887 32.995 51.3703 32.1428 51.5299C32.1151 51.5036 32.0887 51.5036 32.061 51.5299C28.7593 51.5327 25.4548 51.584 22.1544 51.5202C20.0518 51.4786 17.9492 51.4689 15.848 51.4147C15.2707 51.3995 14.6878 51.3301 14.1049 51.3315C13.9258 51.3315 13.7815 51.2732 13.6774 51.1261C14.2617 51.0497 14.846 50.972 15.4317 50.8957C16.4559 50.8207 17.4829 50.7957 18.5085 50.7264C19.895 50.632 21.2856 50.5765 22.6749 50.5154C23.7227 50.4696 24.7719 50.4807 25.8184 50.3808C25.9905 50.3863 26.164 50.4016 26.3361 50.3947C28.0348 50.328 29.7321 50.2226 31.4309 50.2045C32.1456 50.1976 32.3552 49.9908 32.4981 49.2053C32.5412 48.9707 32.3677 48.8527 32.3413 48.6515C32.2164 47.6814 31.7792 46.7946 31.1464 46.0909C30.161 44.9945 28.991 44.0924 27.5823 43.5581C27.3811 43.472 27.1854 43.3707 26.9786 43.3013C25.8878 42.9377 24.8108 42.5144 23.6325 42.52C22.3127 42.4658 20.99 42.3853 19.7118 42.8267C18.5918 43.2139 17.5717 43.8204 16.5878 44.4532C15.6176 45.0764 14.8071 45.9147 14.2464 46.9583C13.9009 47.6009 13.8204 48.3032 13.7815 49.0082C13.7676 49.2566 13.7496 49.4759 13.5622 49.6522C12.9904 49.4731 13.0029 48.9263 12.9627 48.5155C12.8738 47.5842 13.0779 46.7335 13.5317 45.8494C14.4699 44.0258 16.0368 43.0182 17.7397 42.1314C18.6834 41.6401 19.5966 41.0433 20.7014 40.9406C20.897 40.9225 20.8152 40.7643 20.8304 40.6616C20.9054 40.1606 20.7139 39.6762 20.7305 39.1794C20.7652 38.0663 20.7832 36.9533 20.7416 35.8388C20.7263 35.453 20.6667 35.3017 20.2406 35.3281C18.5627 35.4322 16.8861 35.5501 15.2027 35.5446C14.982 35.5446 14.7599 35.5682 14.5601 35.4308C14.4976 35.3878 14.4296 35.2906 14.3366 35.3614C13.6733 35.8707 12.9224 35.496 12.2174 35.5626C10.6338 35.7111 9.0281 35.5807 7.52366 35.1588C6.23573 34.7979 4.83538 34.4718 3.8736 33.3629C3.90136 33.2893 3.86944 33.2713 3.80143 33.2852C3.51692 33.3171 3.34344 33.1353 3.13526 32.9798C2.21095 32.2915 1.37962 31.5143 0.725942 30.5594C0.273501 29.8988 0.329015 29.1632 0.852237 28.5748C1.84039 27.4617 2.84381 26.3653 3.89858 25.3147C4.41903 24.7956 4.94225 24.2849 5.5654 23.8894C5.73055 23.9393 5.76664 23.838 5.77913 23.709C6.43281 23.0497 7.31271 22.972 8.14681 22.8873C9.84416 22.7139 11.5429 22.5293 13.2583 22.5348C13.794 22.5362 14.3491 22.4654 14.8946 22.4654C16.6544 22.4682 18.4128 22.3142 20.1726 22.3919C20.4168 22.403 20.5445 22.3683 20.5279 22.063C20.496 21.4939 20.5057 20.9221 20.5251 20.3517C20.5334 20.0964 20.4529 20.0242 20.2045 20.0325C19.48 20.0575 18.7556 20.0617 18.0311 20.0714C16.0146 20.0977 14.0036 19.9187 11.9856 19.9562C11.0086 19.9742 10.459 19.5315 10.2092 18.7571C10.1328 18.5239 10.205 18.306 10.1939 18.0826C10.1481 17.143 10.1162 16.202 10.1439 15.2625C10.1772 14.1189 10.1772 12.9586 10.3896 11.8428C10.477 11.3834 10.4659 10.8935 10.588 10.423C10.6991 9.99416 10.6908 9.45706 10.7657 8.97131C10.7879 8.82558 10.8462 8.68402 10.8878 8.54107C10.9128 8.50499 10.9392 8.46751 10.9642 8.43143C10.9919 8.31069 11.1002 8.34816 11.1765 8.32179C11.275 8.38979 11.3972 8.45225 11.3777 8.59381C11.3111 9.11287 11.4818 9.6125 11.4874 10.1274C11.5165 12.7504 11.5512 15.3735 11.5831 17.9965C11.4624 18.0812 11.4929 18.1492 11.6053 18.2075C11.5665 18.4476 11.6567 18.5517 11.9037 18.4878C12.3853 18.4878 12.8669 18.4878 13.3485 18.4864C16.213 18.4948 19.0762 18.5045 21.9407 18.51C24.1321 18.5142 26.3222 18.51 28.5136 18.51C32.0054 18.6488 35.5001 18.6266 38.9933 18.6197C39.9676 18.6183 40.8433 18.2894 41.6538 17.7731C42.6267 17.1527 43.3762 16.295 44.1089 15.4235C44.7293 14.6865 44.6794 14.3742 43.8633 13.8108C42.9806 12.9295 42.0008 12.1703 40.9668 11.475C39.5637 10.3952 37.8691 9.97195 36.2453 9.39322C36.1426 9.35574 36.0844 9.43346 36.0163 9.47371C35.829 9.58196 35.6278 9.59584 35.421 9.58196C34.3801 9.51257 33.3364 9.46816 32.2983 9.36823C31.1353 9.25582 29.9681 9.25304 28.8037 9.19614C27.0189 9.11009 25.2327 9.03098 23.4479 8.96992C22.3474 8.93245 21.244 8.87554 20.1476 8.81864C19.4398 8.78117 18.7167 8.82558 18.002 8.66875C17.4343 8.54385 16.8001 8.48556 16.2574 8.50637C15.1888 8.54662 14.1576 8.27877 13.1028 8.33567C12.9585 8.344 12.8863 8.2524 12.8253 8.14276C12.8294 8.07614 12.835 8.00952 12.8392 7.9429H12.8433ZM21.888 7.91931C21.8838 7.98315 21.9157 8.0123 21.9768 8.01369C22.7373 8.02201 23.4993 8.02201 24.2598 8.04283C24.5388 8.05116 24.6637 7.98038 24.6623 7.67089C24.6512 5.85418 24.6554 4.03748 24.6581 2.22077C24.6581 1.83356 24.4763 1.65453 24.0836 1.66147C23.5132 1.67118 22.9414 1.67812 22.3709 1.65869C21.9976 1.6462 21.8963 1.81552 21.8963 2.15832C21.9005 4.07911 21.8921 5.99852 21.888 7.91931ZM21.4564 38.1135C21.4564 38.8144 21.4841 39.3182 21.448 39.8164C21.4147 40.2675 21.5882 40.4992 22.0268 40.5478C22.7762 40.6311 23.527 40.6977 24.2737 40.8004C24.7261 40.8629 24.883 40.6963 24.8899 40.2508C24.9052 39.3029 24.7206 38.3675 24.7719 37.4168C24.8066 36.7964 24.7581 36.1733 24.7817 35.5515C24.7941 35.2018 24.6581 35.1352 24.3334 35.1185C23.5034 35.0769 22.6874 35.2573 21.8616 35.2309C21.6395 35.224 21.5646 35.31 21.5577 35.5307C21.5257 36.4578 21.3883 37.3821 21.4577 38.1135H21.4564ZM24.6762 21.3149C24.6762 21.0387 24.6692 20.7625 24.679 20.4864C24.6859 20.2782 24.6276 20.1588 24.3917 20.1741C23.6519 20.2185 22.9247 20.02 22.1822 20.0617C21.8852 20.0783 21.7464 20.1283 21.7631 20.4628C21.7894 20.9957 21.7839 21.5328 21.7645 22.0671C21.7547 22.3572 21.8477 22.4557 22.1433 22.4585C22.7596 22.4627 23.3744 22.4432 23.9934 22.5501C24.6096 22.657 24.6748 22.557 24.6776 21.9367C24.6776 21.7299 24.6776 21.5231 24.6776 21.3149H24.6762ZM21.4813 40.7352C21.5368 40.7074 21.6021 40.6935 21.6118 40.663C21.6368 40.5853 21.5771 40.5423 21.5063 40.5478C21.4702 40.5506 21.4175 40.5922 21.4092 40.6255C21.4022 40.6519 21.4508 40.6935 21.4813 40.7352Z" fill="#202020"/>
<path d="M34.1067 24.0101C33.8499 24.321 33.9457 24.7012 33.9026 25.0538C33.582 25.4007 33.242 25.9045 33.3503 26.2612C33.5959 27.0814 33.5973 27.8614 33.5196 28.6913C33.3711 30.2624 32.6119 31.2852 31.1422 31.8196C30.272 32.136 29.3685 32.2734 28.4622 32.3095C26.5304 32.3872 24.5957 32.3914 22.6624 32.4274C19.8464 32.4802 17.0305 32.34 14.2145 32.5204C13.1903 32.5857 12.4061 32.9007 12.1091 33.9721C9.92743 34.1095 7.81095 33.8139 5.82215 32.8951C5.01442 32.5218 4.23999 32.0416 3.60297 31.3865C4.07484 31.0479 4.31355 30.5066 4.72019 30.1097C6.32594 28.5442 8.2967 27.6713 10.434 27.1383C12.9432 26.5124 15.5149 26.3028 18.0811 26.1099C19.8312 25.9781 21.5868 25.8601 23.348 25.8823C24.6803 25.899 26.0127 25.8865 27.345 25.8837C27.5338 25.8837 27.7197 25.8865 27.9085 25.831C28.9619 25.5215 29.3574 24.8942 29.3491 23.5132C30.5107 23.4647 31.6682 23.4785 32.8173 23.6937C32.9825 23.7242 33.1601 23.6964 33.3322 23.6937L33.3378 23.6992C33.5404 23.6812 33.7097 23.863 33.9207 23.7936C33.9915 23.8255 34.0609 23.856 34.1358 23.8019L34.133 23.7991C34.1247 23.8685 34.1178 23.9379 34.1094 24.0059L34.1067 24.0101Z" fill="#BC8F66"/>
<path d="M12.8294 8.14409C12.8919 8.25234 12.964 8.34394 13.107 8.337C14.1604 8.2801 15.1929 8.54796 16.2616 8.50771C16.8042 8.48689 17.4385 8.54518 18.0061 8.67009C18.7209 8.82692 19.4439 8.7825 20.1518 8.81998C21.2495 8.87688 22.3515 8.93378 23.4521 8.97125C25.2382 9.03232 27.023 9.11143 28.8078 9.19747C29.9708 9.25438 31.1394 9.25715 32.3024 9.36957C33.3405 9.47088 34.3842 9.51529 35.4251 9.5833C35.6319 9.59718 35.8331 9.5833 36.0205 9.47505C36.0885 9.43619 36.1468 9.35847 36.2495 9.39455C37.8733 9.97467 39.5679 10.3966 40.971 11.4763C40.7642 11.7303 40.4727 11.7511 40.1785 11.7636C39.7469 11.7817 39.3208 11.6984 38.8934 11.672C37.1766 11.5652 35.4862 11.2584 33.7916 10.9961C31.8014 10.688 29.8001 10.4826 27.7961 10.441C25.4173 10.3896 23.0343 10.3549 20.6514 10.4979C18.9513 10.5992 17.2456 10.6228 15.5441 10.7269C14.499 10.7907 13.7912 11.3084 13.5664 12.1425C13.0001 14.2423 13.354 16.3713 13.3513 18.4878C12.8697 18.4878 12.3881 18.4878 11.9065 18.4892C11.8996 18.3518 11.8316 18.2574 11.7053 18.206C11.6872 18.1242 11.7094 18.0187 11.5859 17.9979C11.5526 15.3748 11.5193 12.7518 11.4901 10.1287C11.4846 9.61522 11.3125 9.11559 11.3805 8.59514C11.3985 8.45358 11.2778 8.39113 11.1793 8.32312C11.3222 8.22459 11.4652 8.12466 11.6081 8.02612C11.9981 8.23847 12.4242 8.08025 12.8294 8.14409Z" fill="#E2B698"/>
<path d="M13.5622 49.6521C13.7482 49.4745 13.7676 49.2566 13.7815 49.0082C13.8204 48.3018 13.9023 47.6009 14.2464 46.9583C14.8057 45.9146 15.6163 45.0764 16.5878 44.4532C17.5717 43.8218 18.5918 43.2139 19.7118 42.8267C20.99 42.3839 22.3127 42.4644 23.6325 42.5199C23.2786 43.0251 22.8067 43.243 22.178 43.2458C21.6146 43.2486 21.0636 43.3776 20.5362 43.6288C19.5161 44.1146 18.6876 44.8182 18.0034 45.7023C17.1818 46.7654 16.5614 47.9243 16.3685 49.2774C16.306 49.7188 16.0965 50.0865 15.7911 50.4071C15.6523 50.5529 15.4497 50.6569 15.4303 50.8929C14.846 50.9692 14.2617 51.0469 13.676 51.1233C13.4318 51.0414 13.5525 50.8624 13.5567 50.7069C13.5664 50.3558 13.5608 50.0033 13.5622 49.6507V49.6521Z" fill="#DACEB9"/>
<path d="M12.8294 8.1441C12.4242 8.08026 11.9981 8.23848 11.6081 8.02614C12.0078 7.81796 12.4297 7.94703 12.8433 7.94425C12.8391 8.01087 12.8336 8.07749 12.8294 8.1441Z" fill="#4F4640"/>
<path d="M33.9179 23.7977C33.7069 23.8657 33.5376 23.6853 33.335 23.7033C33.2226 23.5159 33.3739 23.466 33.4793 23.5104C33.6251 23.5728 33.8124 23.5506 33.9207 23.6978C33.9193 23.7311 33.9179 23.7644 33.9179 23.7977Z" fill="#202020"/>
<path d="M25.631 40.1148C25.6699 39.9704 25.8351 39.994 25.9156 39.9038C26.028 40.2535 25.7379 40.0592 25.631 40.1148Z" fill="#FDFDFD"/>
<path d="M14.0868 7.95401C13.9092 8.07059 13.7343 8.06365 13.5594 7.94568C13.7357 7.94845 13.9106 7.95123 14.0868 7.95401Z" fill="#4F4640"/>
<path d="M5.78191 23.7088C5.76942 23.8379 5.73333 23.9406 5.56818 23.8893C5.57789 23.756 5.657 23.7061 5.78191 23.7088Z" fill="#FDFDFD"/>
<path d="M27.6837 41.8899C27.6101 41.8649 27.5046 41.8982 27.4769 41.7831C27.6503 41.6137 27.6656 41.7553 27.6837 41.8899Z" fill="#FDFDFD"/>
<path d="M33.918 23.7978C33.918 23.7645 33.9193 23.7312 33.9207 23.6979C34.0026 23.7118 34.1053 23.6854 34.1317 23.8061C34.0581 23.8603 33.9873 23.8297 33.9166 23.7978H33.918Z" fill="#232222"/>
<path d="M34.1067 24.0101C34.115 23.9407 34.122 23.8713 34.1303 23.8033C34.2358 23.8367 34.2205 23.9352 34.2413 24.0143C34.1969 24.0143 34.1525 24.0115 34.1067 24.0115V24.0101Z" fill="#232222"/>
<path d="M13.5678 7.90958C13.4998 7.91236 13.4318 7.91652 13.3624 7.9193C13.3624 7.88599 13.3596 7.85268 13.3485 7.82076C13.4346 7.81798 13.5137 7.83186 13.5664 7.90819L13.5678 7.90958Z" fill="#FDFDFD"/>
<path d="M24.8844 0.219389C24.8497 0.219389 24.815 0.219389 24.7803 0.218002C24.7983 0.176366 24.815 0.136118 24.833 0.0944824C24.8497 0.136118 24.8677 0.177754 24.8844 0.219389Z" fill="#FDFDFD"/>
<path d="M45.4441 13.2029C45.3677 13.2196 45.3428 13.1682 45.3206 13.1113C45.3608 13.1419 45.4024 13.1724 45.4441 13.2029Z" fill="#FDFDFD"/>
<path d="M3.80554 33.2837C3.87355 33.2698 3.90408 33.2893 3.87771 33.3614C3.85412 33.3351 3.83052 33.3101 3.80554 33.2837Z" fill="#FDFDFD"/>
<path d="M10.9655 8.43274C10.9406 8.46882 10.9142 8.5063 10.8892 8.54238C10.8615 8.46882 10.91 8.44801 10.9655 8.43274Z" fill="#232222"/>
<path d="M13.3485 7.82068C13.3582 7.8526 13.3638 7.88452 13.3624 7.91922C13.3249 7.91922 13.2861 7.91922 13.2486 7.91922C13.2541 7.85815 13.2833 7.82068 13.3485 7.82068Z" fill="#4F4640"/>
<path d="M32.0484 44.7696C31.9763 44.7849 31.9471 44.7572 31.9624 44.6836C31.9915 44.7127 32.0193 44.7405 32.0484 44.7696Z" fill="#FDFDFD"/>
<path d="M32.061 51.5299C32.0887 51.5035 32.1151 51.5035 32.1429 51.5299C32.1234 51.5563 32.104 51.5826 32.0846 51.609C32.0762 51.5826 32.0679 51.5563 32.061 51.5299Z" fill="#6A6A6A"/>
<path d="M13.3527 18.4864C13.3554 16.3685 13.0015 14.241 13.5678 12.1411C13.7926 11.307 14.499 10.7907 15.5455 10.7255C17.247 10.6214 18.9541 10.5978 20.6528 10.4965C23.0357 10.3536 25.4187 10.3896 27.7975 10.4396C29.8015 10.4826 31.8028 10.6867 33.793 10.9948C35.4862 11.2571 37.1766 11.5652 38.8948 11.6706C39.3222 11.697 39.7469 11.7817 40.1799 11.7622C40.4742 11.7497 40.7656 11.7289 40.9724 11.475C42.005 12.1689 42.9862 12.928 43.8689 13.8107C43.7065 13.8482 43.5996 13.9648 43.4955 14.0786C42.796 14.8599 41.8925 15.3401 40.9377 15.6968C37.3737 17.0264 33.7028 17.8563 29.8862 18.0145C29.4213 18.034 28.8231 17.9368 28.5192 18.5086C26.3277 18.5086 24.1377 18.5114 21.9463 18.5086C19.0817 18.5044 16.2186 18.4933 13.3541 18.485L13.3527 18.4864Z" fill="#CC9E79"/>
<path d="M15.4303 50.8944C15.4497 50.6584 15.6524 50.5543 15.7911 50.4086C16.0965 50.0866 16.306 49.7188 16.3685 49.2789C16.5614 47.9257 17.1818 46.7669 18.0034 45.7038C18.6862 44.8197 19.5161 44.1161 20.5362 43.6303C21.0636 43.3791 21.616 43.25 22.1781 43.2473C22.8068 43.2445 23.2786 43.0266 23.6325 42.5214C24.8094 42.5159 25.8878 42.9392 26.9787 43.3028C27.1854 43.3722 27.3811 43.4735 27.5824 43.5595C27.2229 44.742 27.7586 45.5691 28.6163 46.3075C28.9494 46.5948 29.2075 46.9778 29.456 47.347C30.0083 48.1644 29.8376 48.8042 28.9633 49.24C28.2666 49.587 27.5116 49.7688 26.7691 49.9895C26.4443 50.0866 26.046 50.0394 25.8184 50.3822C24.772 50.4808 23.7227 50.4697 22.6749 50.5169C21.2857 50.5779 19.895 50.6334 18.5086 50.7278C17.4829 50.7972 16.4559 50.8236 15.4317 50.8971L15.4303 50.8944Z" fill="#C2B59B"/>
<path d="M29.3477 23.5161C29.356 24.8957 28.9604 25.5243 27.9071 25.8338C27.7169 25.8894 27.5323 25.8866 27.3436 25.8866C26.0113 25.8894 24.6789 25.9005 23.3466 25.8852C21.5868 25.863 19.8311 25.981 18.0797 26.1128C15.5135 26.3057 12.9418 26.5153 10.4326 27.1412C8.29527 27.6741 6.32451 28.5471 4.71876 30.1126C4.31212 30.5095 4.07341 31.0508 3.60154 31.3894C2.95341 31.03 2.52456 30.4471 2.05963 29.8961C1.82092 29.613 2.08322 29.4686 2.19564 29.334C2.70776 28.7178 3.24625 28.1224 3.78751 27.5298C4.34265 26.9219 4.9436 26.3515 5.46682 25.7186C6.50216 24.464 7.90389 24.1282 9.42221 24.0171C11.0765 23.8964 12.7267 23.6952 14.3838 23.6285C15.4483 23.5855 16.5142 23.5286 17.58 23.4981C21.2884 23.3884 24.9967 23.3177 28.7065 23.3968C28.9271 23.4009 29.1575 23.3496 29.3463 23.5189L29.3477 23.5161Z" fill="#CC996E"/>
<path d="M12.1078 33.9735C12.4048 32.9021 13.1875 32.5871 14.2132 32.5218C17.0291 32.3414 19.8451 32.4816 22.661 32.4289C24.5943 32.3928 26.529 32.3886 28.4609 32.3109C29.3672 32.2748 30.2721 32.1374 31.1409 31.821C32.6106 31.2867 33.3697 30.2624 33.5182 28.6927C33.596 27.8642 33.5946 27.0828 33.3489 26.2626C33.2421 25.9059 33.5821 25.4021 33.9013 25.0552C33.9055 26.4194 33.9429 27.7851 33.9013 29.148C33.8735 30.0737 33.6584 30.9966 33.6792 31.9181C33.6903 32.4025 33.4822 32.8286 33.5182 33.2949C33.4322 33.2602 33.3531 33.2699 33.2837 33.3337C31.4892 33.3185 29.7016 33.4725 27.9071 33.4809C25.5811 33.492 23.2537 33.5808 20.929 33.689C19.1414 33.7723 17.3525 33.8223 15.5663 33.9028C14.4116 33.9555 13.2611 33.9833 12.1078 33.9722V33.9735Z" fill="#996844"/>
<path d="M28.5178 18.51C28.8217 17.9368 29.4199 18.034 29.8848 18.016C33.7014 17.8577 37.3723 17.0278 40.9363 15.6982C41.8911 15.3429 42.7946 14.8627 43.4941 14.08C43.5968 13.9648 43.7051 13.8482 43.8675 13.8121C44.6835 14.3742 44.7335 14.6879 44.1131 15.4248C43.3803 16.2964 42.6309 17.1541 41.658 17.7745C40.8475 18.2907 39.9717 18.6197 38.9975 18.6211C35.5042 18.6266 32.0096 18.6502 28.5178 18.5114V18.51Z" fill="#B78869"/>
<path d="M21.4577 38.1135C21.3883 37.3821 21.5257 36.4591 21.5577 35.5307C21.5646 35.3086 21.6395 35.224 21.8616 35.2309C22.6874 35.2559 23.5034 35.0755 24.3334 35.1185C24.6595 35.1351 24.7955 35.2017 24.7817 35.5515C24.7594 36.1719 24.8066 36.7964 24.7719 37.4168C24.7192 38.3674 24.9052 39.3029 24.8899 40.2508C24.883 40.6963 24.7261 40.8628 24.2737 40.8004C23.527 40.6977 22.7762 40.631 22.0268 40.5478C21.5882 40.4992 21.4147 40.2688 21.448 39.8164C21.4841 39.3181 21.4564 38.8143 21.4564 38.1135H21.4577Z" fill="#9B8579"/>
<path d="M25.817 50.3793C26.0446 50.0365 26.4429 50.0837 26.7677 49.9866C27.5102 49.7659 28.2652 49.5841 28.9619 49.2371C29.8362 48.8014 30.007 48.1615 29.4546 47.3441C29.2048 46.9749 28.9466 46.5919 28.6149 46.3046C27.7572 45.5649 27.2215 44.7377 27.581 43.5566C28.9897 44.091 30.1596 44.9931 31.145 46.0895C31.7765 46.7931 32.2136 47.68 32.3399 48.6501C32.3663 48.8513 32.5398 48.9693 32.4968 49.2038C32.3538 49.9894 32.1443 50.1961 31.4295 50.2031C29.7308 50.2197 28.032 50.3266 26.3347 50.3932C26.1626 50.4002 25.9905 50.3849 25.817 50.3793Z" fill="#B2A48B"/>
<path d="M21.8879 7.91922C21.8921 5.99843 21.9018 4.07902 21.8963 2.15823C21.8963 1.81543 21.9976 1.64611 22.3709 1.6586C22.9413 1.67803 23.5131 1.67109 24.0835 1.66138C24.4749 1.65444 24.6581 1.83347 24.6581 2.22068C24.6567 4.03739 24.6512 5.85409 24.6623 7.6708C24.6637 7.98029 24.5401 8.05107 24.2598 8.04274C23.4992 8.02192 22.7373 8.02192 21.9768 8.0136C21.9476 7.98168 21.9171 7.95114 21.8879 7.91922Z" fill="#9B8579"/>
<path d="M24.6762 21.3149C24.6762 21.5217 24.6762 21.7285 24.6762 21.9367C24.6748 22.5584 24.6081 22.657 23.9919 22.5501C23.373 22.4432 22.7581 22.4613 22.1419 22.4585C21.8449 22.4571 21.7533 22.3572 21.763 22.0671C21.7811 21.5328 21.7866 20.9971 21.7617 20.4628C21.745 20.1283 21.8838 20.0783 22.1808 20.0617C22.9233 20.0201 23.6505 20.2185 24.3903 20.1741C24.6276 20.1602 24.6845 20.2782 24.6775 20.4864C24.6678 20.7626 24.6748 21.0387 24.6762 21.3149Z" fill="#9B8579"/>
<path d="M11.7067 18.2047C11.833 18.2575 11.901 18.3518 11.9079 18.4878C11.6609 18.5517 11.5707 18.4476 11.6095 18.2075C11.6414 18.2075 11.6747 18.2075 11.7067 18.2047Z" fill="#CC9E79"/>
<path d="M21.4813 40.7365C21.4522 40.6949 21.4036 40.6533 21.4091 40.6269C21.4175 40.5936 21.4702 40.552 21.5063 40.5492C21.5771 40.5436 21.6367 40.5867 21.6118 40.6644C21.602 40.6949 21.5354 40.7074 21.4813 40.7365Z" fill="#232222"/>
<path d="M11.7066 18.2048C11.6747 18.2075 11.6414 18.2089 11.6095 18.2075C11.4971 18.1479 11.4652 18.0799 11.5873 17.9966C11.7108 18.0174 11.6886 18.1229 11.7066 18.2048Z" fill="#4F4640"/>
<path d="M33.2864 33.3323C33.3558 33.2671 33.4349 33.2588 33.521 33.2935C33.4738 33.4919 33.3766 33.3906 33.2864 33.3323Z" fill="#4F4640"/>
<path d="M21.8879 7.91931C21.9171 7.95123 21.9476 7.98176 21.9768 8.01369C21.9143 8.01369 21.8838 7.98177 21.8879 7.91931Z" fill="#6A6A6A"/>
</svg>
