<svg width="59" height="50" viewBox="0 0 59 50" fill="none" xmlns="http://www.w3.org/2000/svg">
<path d="M57.2751 14.4352C57.4057 14.5689 57.541 14.7011 57.3389 14.8815C57.2969 14.8768 57.2564 14.8722 57.2145 14.8675C57.2378 14.9235 57.2611 14.9795 57.2844 15.0355C57.2922 15.0588 57.3031 15.0806 57.3078 15.1054C57.3078 15.1101 57.286 15.1194 57.2751 15.1272C57.2611 15.2843 57.3513 15.3729 57.4788 15.4367C57.4788 15.516 57.4788 15.5953 57.4788 15.6746C57.2984 15.8379 57.5348 15.9809 57.5021 16.1364C57.1709 16.7133 57.4026 17.3587 57.2907 17.9682C57.2191 18.3586 57.1507 18.5047 56.7479 18.4643C55.0141 18.2932 53.2802 18.3959 51.5433 18.4394C49.1159 18.5016 46.6916 18.6571 44.2642 18.6804C43.2441 18.6898 42.8802 19.1594 42.8351 20.1235C42.804 20.7766 42.7978 21.436 42.6874 22.0766C42.4603 23.3813 42.6205 24.5631 43.5597 25.5646C43.5535 25.6299 43.5737 25.6625 43.6453 25.6408C44.0667 25.944 44.5456 26.0202 45.0526 26.0062C47.5344 25.9393 50.0116 26.0964 52.4918 26.157C52.7329 27.3466 52.8713 28.5456 52.9832 29.7554C53.1854 31.9293 53.0376 34.0613 52.6147 36.1963C51.8683 39.9657 49.6337 42.3107 45.9871 43.4303C43.7494 44.1177 41.4464 44.4784 39.173 44.9854C36.4315 45.5965 33.6744 46.1392 30.9002 46.5793C28.9829 46.8841 27.0717 47.2448 25.1373 47.4299C24.9336 47.4501 24.7983 47.4905 24.7905 47.7176C23.0955 47.7518 21.4036 47.7284 19.7087 47.6942C16.0932 47.6227 12.4762 47.6616 8.86075 47.5605C7.51254 47.5232 6.15966 47.4936 4.85344 47.1748C3.32328 46.8001 1.9362 45.8437 1.88333 43.7584C1.83356 41.8426 1.86311 39.9253 1.85689 38.0079C1.85689 37.8151 1.86 37.6207 1.86 37.4279C1.94242 36.9039 1.78691 36.3643 1.95641 35.8449C2.37938 35.5681 2.63596 35.1809 2.78058 34.6957C2.97029 34.0644 2.99984 33.4097 3.09936 32.7659C3.43058 30.6215 3.77269 28.4771 3.86288 26.3032C3.89087 25.6314 3.96085 24.9612 4.03082 24.2926C4.16145 23.0376 4.55176 21.8527 5.01827 20.6896C5.5392 20.6476 6.05237 20.7315 6.57019 20.772C8.52487 20.9275 10.4842 21.0985 12.442 21.1156C14.3111 21.1312 16.1787 21.2416 18.0494 21.1701C19.5205 21.1141 20.9947 21.1576 22.4673 21.1545C23.9197 21.1514 25.3736 21.1623 26.826 21.1327C28.2535 21.1032 29.6686 20.8901 31.1024 20.8793C31.7695 20.8746 32.4444 20.7797 33.1224 20.7611C34.1331 20.7331 35.1423 20.5605 36.15 20.4376C36.9477 20.3397 37.7361 20.1919 38.5121 19.982C38.6598 19.9416 38.8371 19.8747 38.8371 19.6959C38.8371 19.4751 38.6287 19.4253 38.4608 19.4113C37.9212 19.3647 37.3785 19.2947 36.8389 19.318C34.8562 19.402 32.8751 19.5637 30.8909 19.615C28.8678 19.6679 26.8462 19.8218 24.8263 19.8343C21.8453 19.8545 18.8658 19.9991 15.8848 19.9789C12.456 19.9556 9.02714 19.9602 5.5983 19.9525C6.49399 18.2964 7.98838 17.3182 9.59628 16.4987C12.0423 15.2516 14.7061 14.9111 17.3932 14.8831C19.6822 14.8582 21.9743 15.0541 24.2649 15.1832C25.977 15.2796 27.6937 15.2189 29.4058 14.9872C31.5191 14.7027 33.5329 14.1911 35.2621 12.8771C35.6477 12.5847 36.1391 12.3344 36.0878 11.7155C36.5232 11.7979 36.9353 11.574 37.3691 11.6144C37.9865 11.8679 38.6116 11.9767 39.2554 11.7092C39.6099 11.5957 39.9754 11.6066 40.3424 11.5988C42.7946 11.5429 45.2438 11.6797 47.6946 11.7061C48.3259 11.7124 48.9339 11.661 49.5824 11.7886C50.3381 11.9378 51.1374 11.9472 51.9165 12.0545C53.5772 12.2799 55.238 12.479 56.5567 13.6779C56.5847 13.7028 56.6593 13.6779 56.7122 13.6748L56.706 13.667C56.6158 13.978 56.9003 14.1087 57.0201 14.317C57.0714 14.4305 57.132 14.5254 57.2767 14.4368L57.2751 14.4352ZM40.6192 35.6039C40.7949 35.3442 40.8073 35.0394 40.8602 34.7439C41.1028 33.4097 40.7902 32.1253 40.5227 30.8361C40.0111 28.3667 38.7858 26.3545 36.6461 24.9892C35.1781 24.0531 33.5407 23.6006 31.7804 23.6783C31.7493 23.5197 31.7026 23.4077 31.544 23.5897C30.7556 23.641 29.9687 23.7359 29.1835 23.7903C28.2675 23.854 27.4185 24.0842 26.5617 24.3781C23.4936 25.4277 21.5172 27.5861 20.2669 30.4956C20.0212 31.0694 19.7926 31.651 19.5547 32.2279C19.4894 32.2123 19.4661 32.2434 19.4707 32.3041C19.6185 32.8188 19.6231 33.3973 19.4941 33.8529C19.2142 34.8403 19.4505 35.7889 19.5236 36.7375C19.62 37.9846 20.1176 39.1089 20.7972 40.1881C21.7737 41.7369 23.0489 42.8954 24.6614 43.7165C24.705 43.7476 24.7485 43.7787 24.792 43.8098C25.9272 44.3836 27.1277 44.8345 28.378 44.962C30.23 45.1533 32.0883 45.1937 33.9248 44.651C37.6195 43.5578 40.3937 41.2626 40.8338 36.9614C40.8338 36.8836 40.8306 36.8074 40.8306 36.7297C40.7327 36.5244 40.7855 36.2352 40.5041 36.1295C40.5103 35.9802 40.5165 35.8309 40.5227 35.6816C40.5538 35.6552 40.5849 35.6303 40.6145 35.6039H40.6192Z" fill="#C3C3E2"/>
<path d="M52.4903 26.1571C50.01 26.0964 47.5328 25.9378 45.051 26.0062C44.5441 26.0202 44.0651 25.9425 43.6437 25.6408C43.6157 25.6159 43.5862 25.5895 43.5582 25.5646C42.6189 24.5632 42.4588 23.3814 42.6858 22.0767C42.7978 21.436 42.804 20.7767 42.8335 20.1236C42.8786 19.1594 43.2425 18.6898 44.2626 18.6805C46.69 18.6572 49.1143 18.5017 51.5417 18.4395C53.2802 18.3959 55.0125 18.2933 56.7464 18.4643C57.1492 18.5048 57.2176 18.3586 57.2891 17.9683C57.4011 17.3587 57.1694 16.7118 57.5006 16.1365C57.5301 16.1411 57.5535 16.1318 57.5737 16.11C57.9935 16.8222 57.9516 17.6417 58.0682 18.4146C58.2455 19.5777 58.373 20.7549 58.4056 21.9305C58.4289 22.7951 58.5907 23.6488 58.5627 24.5134C58.4787 24.7 58.7104 24.8058 58.6793 24.9784C58.5487 26.734 58.8644 28.4803 58.7804 30.2359C58.7042 31.8252 58.7182 33.4191 58.6809 35.0052C58.6482 36.3845 58.5642 37.7887 58.3839 39.1603C58.2657 40.0544 58.359 40.9408 58.2283 41.8334C58.0355 43.1442 58.1646 44.4956 57.8349 45.8018C57.7743 45.8718 57.5612 45.8687 57.7183 46.0428C57.5053 47.6025 56.6267 48.5977 55.1369 49.058C53.994 49.411 52.8293 49.6458 51.6272 49.6458C48.3306 49.6458 45.0308 49.7454 41.7404 49.6163C38.7998 49.5012 35.8623 49.5214 32.9264 49.5634C27.9177 49.6365 22.9074 49.694 17.9002 49.6225C15.2146 49.5852 12.526 49.6085 9.84354 49.4981C8.40825 49.439 6.94963 49.565 5.53611 49.2804C3.48658 48.8683 1.64231 48.0628 0.667304 46.0319C0.332973 45.3368 0.138594 44.5811 0.138594 43.7958C0.135484 41.4881 0.0406267 39.1758 0.165029 36.8759C0.290987 34.5356 0.20857 32.1999 0.235006 29.8627C0.388954 29.6917 0.396729 29.4911 0.351633 29.2811C0.357853 28.8753 0.374958 28.4679 0.368738 28.062C0.317422 24.9115 0.485366 21.7657 0.546012 18.6183C0.556897 18.0227 0.595773 17.4225 0.469815 16.8316C0.581778 16.6061 0.348523 16.4521 0.351633 16.25C0.351633 15.9778 0.351633 15.7073 0.351633 15.4351C0.351633 15.2796 0.351633 15.1241 0.351633 14.9702C0.367183 13.1244 1.5148 12.4059 3.14758 12.0592C3.55966 11.9721 3.97486 11.9192 4.3916 11.9488C4.93587 11.9892 4.84256 11.7451 4.69484 11.3921C4.45381 10.8151 4.2501 10.2196 4.67929 9.62865C4.81146 9.58511 4.7928 9.48559 4.76948 9.38451C4.77881 8.89312 5.01828 8.51681 5.37283 8.20114C5.45369 8.21824 5.48635 8.18714 5.46924 8.10472C5.99173 7.34742 6.84544 7.28056 7.61985 7.19192C9.62895 6.96178 11.6536 7.01776 13.6736 7.01776C14.0328 7.01776 14.3656 7.12039 14.6859 7.27589C14.7061 7.42984 14.7263 7.58534 14.9192 7.39096C15.4463 7.74085 15.6376 8.25867 15.6065 8.85891C15.5769 9.41095 15.678 9.95988 15.5256 10.5197C15.4432 10.8214 15.5987 11.2941 16.0279 11.2226C16.8956 11.0811 17.7851 11.2583 18.6357 10.9924C20.1783 10.9769 21.7178 11.0484 23.2635 10.9178C25.0113 10.77 26.7716 10.8836 28.5304 10.8089C31.6466 10.6767 34.7707 10.7125 37.8916 10.7732C38.1902 10.7794 38.5432 10.9084 38.7827 10.6799C38.9957 10.4761 38.7422 10.1962 38.7531 9.93811C38.8044 8.63343 38.7858 7.32565 38.537 6.03653C38.2882 4.75052 37.6117 3.7864 36.3413 3.36188C35.7379 3.16128 35.0895 3.08508 34.455 2.98867C33.0773 2.77719 31.6808 2.90625 30.286 2.71032C29.4432 2.59214 28.5101 2.70099 27.6176 2.63723C25.9754 2.52216 24.3318 2.59991 22.7052 2.77563C21.2435 2.93269 19.8766 3.29501 19.1706 4.89825C18.5797 6.2418 18.4755 7.57446 18.5937 8.99887C18.6419 9.57734 18.8938 10.1729 18.645 10.7654C18.2298 9.99875 18.0494 9.17148 17.925 8.3131C17.8364 7.69886 17.7944 7.08929 17.8302 6.47972C17.967 4.14561 18.8767 2.27336 21.8204 1.5767C23.0675 1.2828 24.3256 1.20505 25.5945 1.09464C27.1759 0.957799 28.7558 0.886268 30.328 1.02311C31.9001 1.15995 33.4816 0.993565 35.0428 1.23926C36.5357 1.47407 37.9523 1.86283 39.0299 3.05243C39.6846 3.77396 39.9396 4.651 40.1464 5.54203C40.4061 6.65543 40.26 7.80305 40.2646 8.93511C40.2646 8.97554 40.1978 9.01597 40.162 9.0564C40.1324 9.06107 40.1045 9.06573 40.0749 9.07195C40.1029 9.09994 40.1309 9.12949 40.1573 9.15748C40.26 9.66442 39.9863 10.1543 40.0827 10.6612C40.0516 10.7436 40.0827 10.7669 40.162 10.7467C40.6269 10.7483 41.0919 10.7498 41.5569 10.7529C41.7497 10.7654 41.941 10.7778 42.1338 10.7918C42.1758 10.8245 42.2162 10.8836 42.2582 10.8851C44.0807 10.924 45.9016 10.9582 47.7241 10.9924C47.9185 11.0313 48.1113 11.0702 48.3057 11.109C48.5763 11.1168 48.8468 11.1261 49.1174 11.1339C49.1578 11.263 49.2574 11.2381 49.3522 11.221C50.3195 11.1666 51.2463 11.4356 52.1917 11.56C53.6037 11.7466 54.9255 12.1494 56.1259 12.8989C56.381 13.0591 56.7822 13.2146 56.7091 13.6686C56.6562 13.6702 56.5816 13.6966 56.5536 13.6717C55.2365 12.4728 53.5741 12.2738 51.9134 12.0483C51.1343 11.9425 50.335 11.9317 49.5793 11.7824C48.9308 11.6549 48.3228 11.7077 47.6915 11.7C45.2407 11.6735 42.7916 11.5367 40.3393 11.5927C39.9723 11.6004 39.6068 11.5895 39.2523 11.7031C38.6349 11.4356 37.9958 11.6409 37.366 11.6082C36.9337 11.5693 36.5217 11.7917 36.0847 11.7093C34.7349 11.6829 33.3898 11.7559 32.0416 11.7933C29.3623 11.8648 26.6845 11.9348 24.0052 12.0436C22.3615 12.1105 20.7194 12.182 19.0773 12.2644C17.0045 12.3686 14.9332 12.4977 12.8619 12.6236C11.5961 12.6998 10.3318 12.8025 9.06758 12.8522C7.29174 12.9238 5.53144 13.1586 3.7556 13.2363C2.22078 13.3032 1.60965 14.0263 1.79315 15.261C1.90355 16.0012 1.79315 16.7383 1.96265 17.4816C2.11815 18.1658 2.01552 18.9075 2.03573 19.6228C2.0404 19.8001 1.95021 20.0287 2.22545 20.1049C2.22545 20.1702 2.22545 20.234 2.22545 20.2993C1.90044 20.4112 2.03573 20.6896 2.03418 20.8933C1.98442 25.0281 1.94088 29.163 1.90666 33.2993C1.89889 34.1468 1.8258 34.9959 1.95487 35.8403C1.78693 36.3596 1.94243 36.8992 1.85846 37.4233C1.51791 37.6146 1.52102 37.8089 1.85535 38.0033C1.86157 39.9207 1.83202 41.838 1.88178 43.7538C1.93466 45.8391 3.32174 46.7955 4.85189 47.1702C6.15657 47.4906 7.50944 47.5185 8.85921 47.5559C12.4747 47.6569 16.0917 47.6181 19.7071 47.6896C21.4021 47.7238 23.0955 47.7471 24.789 47.7129C25.0004 47.73 25.2119 47.7611 25.4234 47.7596C27.0888 47.7409 28.7558 47.7347 30.4213 47.702C36.0241 47.5916 41.6253 47.7285 47.2281 47.7985C47.3058 47.7985 47.3836 47.7985 47.4613 47.8047C49.6415 47.9291 51.8216 48.013 53.9753 47.5325C54.8788 47.3319 55.7698 47.0987 56.0373 46.0211C56.1244 45.6696 56.2628 45.326 56.3032 44.9698C56.4494 43.6714 56.608 42.3714 56.6764 41.0683C56.7402 39.8476 56.9004 38.6347 56.9439 37.4093C56.9874 36.1995 57.0792 34.9881 57.174 33.7798C57.244 32.8904 57.1803 31.9978 57.2829 31.1207C57.4664 29.5782 57.342 28.0278 57.4695 26.4868C57.5021 26.0949 57.3855 25.9643 56.9657 26.0949C56.7013 26.1773 56.3919 26.1104 56.1011 26.1104C56.0886 26.0358 56.0777 25.9487 55.9829 25.9518C55.8896 25.9549 55.8803 26.042 55.8694 26.1167C54.7435 26.1275 53.6177 26.14 52.4918 26.1509L52.4903 26.1571ZM5.37905 11.5942C5.29819 11.616 5.14735 11.6175 5.20022 11.7311C5.27953 11.9006 5.39926 11.8181 5.48946 11.7062C6.70083 11.7559 7.89975 11.5102 9.10179 11.5009C10.6397 11.49 12.159 11.221 13.6954 11.2506C13.91 11.2552 14.011 11.2132 13.9613 10.9567C13.8509 10.3782 13.7405 9.7966 13.7622 9.20413C13.7747 8.87446 13.6487 8.78583 13.3284 8.78272C11.3784 8.7625 9.42835 8.75473 7.48145 8.67076C6.75836 8.63965 6.23276 8.89001 5.86266 9.43739C5.43037 10.0781 5.03383 10.7623 5.37905 11.5942ZM44.1351 20.7922C44.0387 21.691 43.9594 22.5914 44.0123 23.498C44.0542 24.2102 44.415 24.7513 44.9328 24.7389C46.323 24.7047 47.7086 24.8617 49.0956 24.8493C50.2153 24.84 51.324 24.9908 52.4421 25.0079C52.9661 25.0157 53.5119 25.039 54.0422 25.1137C55.0234 25.2521 56.0202 25.2334 56.9937 25.4418C57.2876 25.5055 57.3948 25.3765 57.3886 25.0639C57.37 24.064 57.4182 23.061 57.2456 22.0689C57.2518 21.1203 57.2393 20.1702 57.2736 19.2216C57.2907 18.7645 57.0652 18.7878 56.7402 18.8344C55.9316 18.9542 55.1214 19.0817 54.3081 19.1532C53.1045 19.259 51.89 19.2667 50.6927 19.4098C48.7582 19.6415 46.8066 19.6804 44.8768 19.9649C44.104 20.0785 44.0978 20.0318 44.1351 20.7922Z" fill="#202020"/>
<path d="M18.6403 10.7685C18.8891 10.1745 18.6372 9.58049 18.5889 9.00202C18.4708 7.57761 18.575 6.24495 19.1659 4.9014C19.8718 3.29816 21.2387 2.93584 22.7004 2.77878C24.3286 2.60462 25.9722 2.52531 27.6128 2.64039C28.5069 2.70414 29.4384 2.59529 30.2812 2.71347C31.6761 2.90941 33.0725 2.78034 34.4503 2.99182C35.0847 3.08823 35.7332 3.16443 36.3365 3.36503C37.6054 3.788 38.2834 4.75212 38.5322 6.03968C38.781 7.33036 38.7981 8.63659 38.7484 9.94126C38.739 10.1994 38.991 10.4793 38.7779 10.683C38.5384 10.9116 38.1855 10.7825 37.8869 10.7763C34.7659 10.7157 31.6419 10.6799 28.5256 10.8121C26.7669 10.8867 25.0066 10.7732 23.2587 10.9209C21.7115 11.0515 20.1735 10.98 18.6309 10.9956C18.634 10.9194 18.6372 10.8432 18.6403 10.767V10.7685Z" fill="#E6E7E8"/>
<path d="M42.1338 10.7965C41.941 10.784 41.7497 10.7716 41.5569 10.7576C41.5429 10.5181 41.6517 10.4186 41.8927 10.4357C42.14 10.4544 42.1353 10.6208 42.1338 10.7965Z" fill="white"/>
<path d="M48.3057 11.1121C48.1113 11.0732 47.9185 11.0344 47.7241 10.9955C47.7459 10.8042 47.8345 10.6612 48.0429 10.686C48.287 10.7156 48.3073 10.9146 48.3057 11.1121Z" fill="white"/>
<path d="M0.347008 16.2515C0.345453 16.4536 0.577153 16.6091 0.465191 16.833C0.315908 16.8284 0.157294 16.833 0.140189 16.6278C0.127749 16.4614 0.109088 16.2841 0.347008 16.2515Z" fill="white"/>
<path d="M0.346916 29.2842C0.390457 29.4941 0.382682 29.6947 0.230289 29.8658C-0.147584 29.5874 -0.0262915 29.4101 0.346916 29.2842Z" fill="white"/>
<path d="M58.681 24.9784C58.7121 24.8058 58.4804 24.6985 58.5643 24.5134C58.7572 24.5134 58.9578 24.5274 58.9873 24.7685C59.0153 24.997 58.824 24.9659 58.681 24.9784Z" fill="white"/>
<path d="M57.0183 14.3155C56.897 14.1071 56.614 13.9765 56.7042 13.6655C57.0074 13.4929 56.8908 13.8754 57.0354 13.9143C57.0308 14.048 57.0245 14.1817 57.0199 14.3155H57.0183Z" fill="#202020"/>
<path d="M0.346889 14.9717C0.346889 15.1272 0.346889 15.2827 0.346889 15.4366C0.0389927 15.2811 0.0389927 15.1272 0.346889 14.9717Z" fill="white"/>
<path d="M57.0186 14.3155C57.0232 14.1818 57.0294 14.048 57.0341 13.9143C57.1772 14.0589 57.2736 14.2238 57.2751 14.4337C57.1305 14.5223 57.0699 14.429 57.0186 14.314V14.3155Z" fill="#222222"/>
<path d="M57.5751 16.11C57.5549 16.1317 57.5316 16.1411 57.502 16.1364C57.5347 15.9809 57.2983 15.8378 57.4787 15.6746C57.5891 15.8021 57.6358 15.9451 57.5736 16.11H57.5751Z" fill="#01A59B"/>
<path d="M57.7183 46.0428C57.5612 45.8686 57.7742 45.8717 57.8349 45.8018C58.0293 45.9946 57.8644 46.0148 57.7183 46.0428Z" fill="#FDFDFD"/>
<path d="M14.9159 7.39559C14.723 7.58997 14.7028 7.43447 14.6826 7.28052C14.7697 7.30073 14.8879 7.25564 14.9159 7.39559Z" fill="#202020"/>
<path d="M49.3522 11.2256C49.2574 11.2427 49.1579 11.2676 49.1174 11.1385C49.2745 10.9566 49.3211 11.0686 49.3522 11.2256Z" fill="#FDFDFD"/>
<path d="M57.4786 15.4352C57.3526 15.3698 57.2609 15.2828 57.2748 15.1257C57.6341 15.0386 57.4537 15.303 57.4786 15.4352Z" fill="#202020"/>
<path d="M4.76612 9.38599C4.78945 9.48706 4.80811 9.58659 4.67593 9.63013C4.63861 9.52438 4.5422 9.39532 4.76612 9.38599Z" fill="#FDFDFD"/>
<path d="M5.46604 8.10785C5.48315 8.18871 5.45205 8.22137 5.36963 8.20426C5.40228 8.17161 5.43339 8.1405 5.46604 8.10785Z" fill="#FDFDFD"/>
<path d="M57.2843 15.0354C57.261 14.9795 57.2377 14.9235 57.2144 14.8675C57.2563 14.8722 57.2968 14.8768 57.3388 14.8815C57.3714 14.9515 57.3543 15.0028 57.2843 15.0354Z" fill="#202020"/>
<path d="M40.1574 9.16364C40.1294 9.13565 40.1014 9.1061 40.075 9.07811C40.1045 9.07345 40.1325 9.06878 40.162 9.06256C40.162 9.09677 40.162 9.12943 40.1589 9.16364H40.1574Z" fill="#FDFDFD"/>
<path d="M40.1603 10.7529C40.081 10.7715 40.0499 10.7482 40.081 10.6674C40.1074 10.6953 40.1339 10.7249 40.1603 10.7529Z" fill="#E6E7E8"/>
<path d="M40.5275 35.6816C40.5213 35.8309 40.5151 35.9802 40.5088 36.1294C40.033 36.4125 39.9895 36.9412 39.82 37.3859C39.3348 38.6517 38.7299 39.8428 37.7378 40.7868C36.021 42.4195 33.9171 43.1971 31.5938 43.3463C30.2208 43.435 28.8477 43.3743 27.487 43.0229C25.4624 42.5004 23.7503 41.4679 22.5404 39.8024C21.5608 38.4527 21.0616 36.8696 21.0601 35.1373C21.0601 33.5807 21.2824 32.0972 21.92 30.6775C21.9495 30.6355 21.9775 30.5935 22.0071 30.5515C22.7473 28.7213 24.0302 27.3637 25.7158 26.3841C26.9987 25.6361 28.4278 25.2893 29.8849 25.1214C30.356 25.0669 30.8148 24.8617 31.2642 24.9006C31.824 24.9503 32.3791 25.0669 32.9483 25.1043C33.9948 25.1727 35.0616 25.3577 35.9199 25.9409C36.7083 26.4758 37.6476 26.7884 38.1872 27.768C38.7439 28.7788 39.4592 29.7351 39.7578 30.8392C40.1294 32.2201 40.4389 33.6398 40.3938 35.0969C40.3875 35.2788 40.428 35.4343 40.5322 35.5774C40.5119 35.6116 40.5119 35.6474 40.5322 35.6816H40.5275Z" fill="white"/>
<path d="M52.4902 26.1571C53.6161 26.1462 54.7419 26.1338 55.8678 26.1229C55.9455 26.1213 56.0217 26.1182 56.0995 26.1167C56.3887 26.1167 56.6997 26.182 56.9641 26.1011C57.3839 25.9705 57.5006 26.1011 57.4679 26.493C57.3419 28.034 57.4648 29.5844 57.2813 31.127C57.1771 32.004 57.2409 32.8966 57.1724 33.7861C57.0791 34.9943 56.9858 36.2057 56.9423 37.4155C56.8988 38.6409 56.7386 39.8523 56.6748 41.0745C56.6064 42.3776 56.4478 43.6776 56.3016 44.9761C56.2612 45.3322 56.1228 45.6758 56.0357 46.0273C55.7682 47.1049 54.8772 47.3382 53.9737 47.5388C51.82 48.0193 49.6399 47.9353 47.4597 47.8109C47.382 47.8062 47.3042 47.8062 47.2265 47.8047C41.6252 47.7347 36.0225 47.5979 30.4197 47.7083C28.7527 47.7409 27.0872 47.7471 25.4218 47.7658C25.2103 47.7674 24.9988 47.7363 24.7874 47.7192C24.7951 47.4921 24.9304 47.4501 25.1341 47.4315C27.0686 47.2449 28.9797 46.8841 30.8971 46.5809C33.6713 46.1408 36.4283 45.5981 39.1698 44.987C41.4433 44.48 43.7479 44.1193 45.984 43.4319C49.6305 42.3123 51.8651 39.9673 52.6115 36.1979C53.0345 34.0629 53.1822 31.9294 52.9801 29.757C52.8681 28.5472 52.7282 27.3467 52.4887 26.1586L52.4902 26.1571Z" fill="#9797C9"/>
<path d="M2.227 20.1111C1.95176 20.0349 2.0435 19.8063 2.03728 19.629C2.01707 18.9137 2.1197 18.1719 1.9642 17.4877C1.7947 16.7444 1.90511 16.0073 1.7947 15.2671C1.60965 14.0324 2.22233 13.3109 3.75715 13.2425C5.53144 13.1647 7.29329 12.9299 9.06913 12.8584C10.3334 12.8086 11.5992 12.706 12.8634 12.6298C14.9347 12.5054 17.006 12.3748 19.0789 12.2706C20.721 12.1882 22.3631 12.1166 24.0068 12.0498C26.6845 11.9409 29.3638 11.871 32.0432 11.7994C33.3898 11.7637 34.7365 11.689 36.0862 11.7155C36.1376 12.3344 35.6446 12.5832 35.2605 12.8771C33.5313 14.1911 31.5176 14.7011 29.4043 14.9872C27.6922 15.2189 25.9754 15.2796 24.2633 15.1832C21.9728 15.0541 19.6822 14.8582 17.3917 14.8831C14.7046 14.911 12.0392 15.2531 9.59474 16.4987C7.98683 17.3182 6.494 18.2963 5.59675 19.9525C4.47402 20.0053 3.34973 20.0582 2.227 20.1111Z" fill="#DADAEF"/>
<path d="M40.5275 35.5774C40.4233 35.4344 40.3829 35.2789 40.3891 35.0969C40.4342 33.6414 40.1247 32.2201 39.7531 30.8392C39.4561 29.7336 38.7407 28.7773 38.1825 27.7681C37.6413 26.7884 36.7021 26.4774 35.9152 25.9409C35.0569 25.3578 33.9901 25.1727 32.9436 25.1043C32.3744 25.067 31.8193 24.9503 31.2595 24.9006C30.8101 24.8617 30.3513 25.067 29.8802 25.1214C28.4231 25.2893 26.994 25.6377 25.7111 26.3841C24.027 27.3653 22.7426 28.7213 22.0024 30.5516C21.9402 30.5702 21.8857 30.5951 21.9153 30.6775C21.2777 32.0973 21.0554 33.5808 21.0554 35.1374C21.0554 36.8697 21.5545 38.4527 22.5358 39.8024C23.7456 41.4694 25.4577 42.5004 27.4823 43.0229C28.843 43.3744 30.2161 43.435 31.5891 43.3464C33.9139 43.1971 36.0163 42.4196 37.7331 40.7868C38.7252 39.8429 39.3301 38.6517 39.8153 37.3859C39.9848 36.9427 40.0299 36.4125 40.5041 36.1295C40.7856 36.2368 40.7327 36.5244 40.8307 36.7297C40.7561 36.7421 40.669 36.7515 40.6705 36.8479C40.6721 36.9412 40.7607 36.9505 40.8338 36.963C40.3937 41.2642 37.6211 43.5594 33.9248 44.6526C32.0899 45.1953 30.2301 45.1549 28.378 44.9636C27.1262 44.8345 25.9273 44.3836 24.7921 43.8113C24.7486 43.7802 24.705 43.7491 24.6615 43.718C23.0489 42.897 21.7722 41.7385 20.7972 40.1897C20.1177 39.1105 19.6185 37.9846 19.5237 36.739C19.4506 35.7905 19.2127 34.8435 19.4941 33.8545C19.6232 33.3988 19.6185 32.8204 19.4708 32.3056C19.4988 32.2808 19.5268 32.2543 19.5548 32.2294C19.7911 31.651 20.0197 31.0709 20.267 30.4971C21.5172 27.5877 23.4937 25.4293 26.5617 24.3796C27.4186 24.0857 28.2676 23.8556 29.1835 23.7918C29.9688 23.7374 30.7557 23.6441 31.5441 23.5912C31.5923 23.7032 31.684 23.697 31.7804 23.6799C33.5407 23.6021 35.1782 24.0546 36.6461 24.9908C38.7843 26.3561 40.0096 28.3699 40.5228 30.8377C40.7903 32.1284 41.1013 33.4113 40.8602 34.7455C40.8074 35.0409 40.7949 35.3457 40.6192 35.6054C40.5912 35.5868 40.5601 35.579 40.5275 35.5774Z" fill="#202020"/>
<path d="M2.22681 20.1111C3.34954 20.0582 4.47383 20.0054 5.59656 19.9525C9.0254 19.9603 12.4542 19.954 15.8831 19.9789C18.8641 19.9991 21.8435 19.8545 24.8245 19.8343C26.8445 19.8203 28.8661 19.6664 30.8891 19.615C32.8734 19.5637 34.8545 19.4036 36.8371 19.318C37.3752 19.2947 37.9194 19.3662 38.459 19.4113C38.627 19.4253 38.8354 19.4751 38.8354 19.6959C38.8354 19.8747 38.6581 19.9416 38.5104 19.982C37.7344 20.192 36.9444 20.3412 36.1483 20.4377C35.1406 20.5621 34.1329 20.7331 33.1206 20.7611C32.4426 20.7798 31.7677 20.8746 31.1006 20.8793C29.6684 20.8902 28.2518 21.1032 26.8243 21.1328C25.3719 21.1623 23.9179 21.1514 22.4655 21.1545C20.9929 21.1576 19.5188 21.1141 18.0477 21.1701C16.177 21.2416 14.3078 21.1312 12.4403 21.1157C10.4825 21.0985 8.52313 20.9275 6.56846 20.772C6.05063 20.7316 5.53747 20.646 5.01653 20.6896C4.08662 20.5605 3.15672 20.433 2.22681 20.3039C2.22681 20.2386 2.22681 20.1749 2.22681 20.1095V20.1111Z" fill="#202020"/>
<path d="M2.22682 20.3055C3.15673 20.4345 4.08663 20.5621 5.01654 20.6911C4.55003 21.8543 4.15972 23.0392 4.0291 24.2941C3.95912 24.9628 3.88915 25.633 3.86116 26.3048C3.77096 28.4787 3.43041 30.6231 3.09763 32.7675C2.99811 33.4113 2.96857 34.066 2.77885 34.6973C2.63268 35.1825 2.37766 35.5697 1.95469 35.8465C1.82562 35.0021 1.90026 34.153 1.90648 33.3055C1.94069 29.1707 1.98423 25.0359 2.03399 20.8995C2.0371 20.6958 1.90182 20.4174 2.22526 20.3055H2.22682Z" fill="#DADAEF"/>
<path d="M37.3674 11.6144C37.9957 11.6471 38.6363 11.4418 39.2537 11.7093C38.6099 11.9767 37.9848 11.8679 37.3674 11.6144Z" fill="#ABABAB"/>
<path d="M1.85529 38.0095C1.52095 37.8135 1.51784 37.6207 1.8584 37.4294C1.8584 37.6223 1.85529 37.8166 1.85529 38.0095Z" fill="#202020"/>
<path d="M31.782 23.6783C31.6856 23.6954 31.5939 23.7017 31.5457 23.5897C31.7043 23.4078 31.7509 23.5197 31.782 23.6783Z" fill="#01A59B"/>
<path d="M40.8383 36.9629C40.7637 36.952 40.6766 36.9427 40.6751 36.8479C40.6735 36.753 40.7606 36.7421 40.8352 36.7297C40.8352 36.8074 40.8383 36.8836 40.8383 36.9614V36.9629Z" fill="#202020"/>
<path d="M43.5596 25.5646C43.5876 25.5895 43.6171 25.616 43.6451 25.6408C43.5752 25.6626 43.5534 25.6299 43.5596 25.5646Z" fill="#202020"/>
<path d="M19.5592 32.2279C19.5312 32.2528 19.5032 32.2792 19.4752 32.3041C19.4705 32.2419 19.4938 32.2124 19.5592 32.2279Z" fill="#222222"/>
<path d="M40.5273 35.5775C40.5599 35.5775 40.591 35.5868 40.619 35.6054C40.5879 35.6319 40.5568 35.6568 40.5273 35.6832C40.5071 35.6474 40.5086 35.6132 40.5273 35.579V35.5775Z" fill="#01A59B"/>
<path d="M57.2457 22.0689C57.4167 23.061 57.3701 24.064 57.3887 25.0639C57.395 25.3765 57.2877 25.504 56.9938 25.4418C56.0203 25.2319 55.0235 25.2521 54.0423 25.1137C53.5136 25.039 52.9662 25.0157 52.4422 25.0079C51.3241 24.9908 50.2154 24.84 49.0958 24.8493C47.7087 24.8618 46.3231 24.7047 44.9329 24.7389C44.4167 24.7513 44.0559 24.2118 44.0124 23.498C43.9579 22.5914 44.0372 21.691 44.1352 20.7922C47.4863 21.6599 50.8996 22.0829 54.3549 22.1809C55.319 22.2089 56.2862 22.2182 57.2457 22.0689Z" fill="#EFD907"/>
<path d="M57.2455 22.0689C56.286 22.2182 55.3188 22.2088 54.3547 22.1809C50.8994 22.0829 47.4861 21.6599 44.135 20.7922C44.0977 20.0318 44.1039 20.08 44.8768 19.9649C46.8066 19.6804 48.7581 19.6415 50.6926 19.4098C51.8899 19.2667 53.1044 19.259 54.308 19.1532C55.1213 19.0817 55.9315 18.9542 56.7401 18.8344C57.0635 18.7862 57.289 18.7629 57.2735 19.2216C57.2393 20.1702 57.2517 21.1203 57.2455 22.0689Z" fill="#F9ED32"/>
<path d="M5.37882 11.5942C5.03204 10.7638 5.43013 10.078 5.86243 9.43736C6.23253 8.88999 6.75813 8.63963 7.48122 8.67073C9.42812 8.7547 11.3781 8.76247 13.3281 8.78269C13.6485 8.7858 13.7744 8.87444 13.762 9.2041C13.7402 9.79657 13.8506 10.3782 13.961 10.9566C14.0092 11.2132 13.9097 11.2536 13.6951 11.2505C12.1588 11.221 10.6395 11.49 9.10156 11.5009C7.89797 11.5087 6.70059 11.7559 5.48922 11.7061C5.4519 11.6688 5.41614 11.6315 5.37882 11.5942Z" fill="#E6E7E8"/>
<path d="M5.37902 11.5942C5.41634 11.6315 5.45211 11.6688 5.48943 11.7061C5.40079 11.8181 5.28106 11.9005 5.20019 11.731C5.14732 11.6191 5.29816 11.6159 5.37902 11.5942Z" fill="#222222"/>
<path d="M56.1011 26.1166C56.0233 26.1181 55.9471 26.1212 55.8694 26.1228C55.8803 26.0482 55.8896 25.9611 55.9829 25.958C56.0778 25.9549 56.0886 26.0419 56.1011 26.1166Z" fill="#202020"/>
<path d="M21.9183 30.6775C21.8872 30.5951 21.9432 30.5702 22.0054 30.5516C21.9758 30.5936 21.9478 30.6355 21.9183 30.6775Z" fill="#FDFDFD"/>
</svg>
